<?xml version="1.0" encoding="UTF-8"?>
<svg id="Layer_1" data-name="Layer 1" xmlns="http://www.w3.org/2000/svg" viewBox="0 0 447.61 115.5">
  <defs>
    <style>
      .cls-1 {
        fill: #fff;
      }

      .cls-2 {
        fill: #ca525f;
      }

      .cls-3 {
        stroke: #221f1f;
        stroke-linecap: round;
        stroke-linejoin: round;
        stroke-width: .24px;
      }

      .cls-4 {
        fill: #221f1f;
      }
    </style>
  </defs>
  <g id="LogoLongateBW">
    <path class="cls-4" d="m47.92,63.52s-.09.07-.13.13v-5.54c-.02-.13-.03-.3-.04-.51,0-.21-.01-.46-.01-.76,0-.48-.02-.88-.06-1.2-.04-.32-.12-.6-.24-.85h-.03v-.03s-.03-.03-.03-.05c-.18-.2-.38-.41-.57-.63-.2-.22-.42-.43-.67-.65-.18-.15-.38-.3-.57-.45-.2-.15-.4-.3-.6-.45l-.2-.18c-.07-.05-.13-.1-.19-.15s-.13-.1-.21-.15c.35-.7.75-1.39,1.21-2.09s.98-1.39,1.56-2.09c1.17.9,2.2,1.95,3.12,3.15.1.11.2.24.3.35.1.11.2.24.3.38.18.36.33.79.44,1.27.11.48.17,1.04.19,1.67.05,0,.1,0,.16-.01.06,0,.12-.01.19-.01h.38c.25-.25.38-.59.38-1,0-.03,0-.08-.03-.15,0-.01,0-.03-.01-.05,0-.01-.01-.04-.01-.07v-.1c-.03-.13-.07-.24-.1-.3-.18-.27-.38-.55-.57-.86-.2-.31-.32-.51-.38-.61l2.97-3.89c.03.08.07.15.11.22.04.06.08.12.11.19l.25.25c.67,1.13,1.1,2.2,1.32,3.22.05.28.07.53.07.75,0,.5-.08.96-.25,1.4-.15.45-.34.86-.57,1.23-.24.36-.49.73-.77,1.1-.08.1-.17.2-.25.31s-.17.22-.25.34c-.07.08-.13.15-.18.2-.05.05-.1.11-.15.2.5,1.02.98,2.15,1.45,3.39h.03c.25.63.46,1.26.65,1.89s.34,1.25.47,1.86c-.07.1-.13.22-.22.35-.07.13-.15.26-.22.38-.08.13-.17.26-.25.38-.08.13-.17.26-.25.38-.13.2-.27.41-.41.63s-.28.42-.41.63-.26.38-.38.55-.2.29-.25.38l-.45-.45s-.07.08-.1.15c-.18-1.1-.4-2.09-.64-3-.24-.9-.5-1.7-.76-2.42-.13-.35-.27-.7-.4-1.05-.13-.35-.27-.69-.4-1.02-.32.67-.73,1.32-1.23,1.96s-1.1,1.29-1.8,1.96l-.45-.45h.02Zm7.42.8c.13-.24.27-.46.4-.67-.13-.61-.29-1.23-.46-1.83s-.38-1.21-.61-1.78c-.22-.58-.45-1.17-.71-1.76-.26-.59-.54-1.18-.84-1.76.17-.22.33-.42.48-.61.15-.19.3-.38.44-.56.28-.36.54-.73.77-1.08.24-.36.42-.75.55-1.16.15-.42.22-.86.22-1.32,0-.18-.03-.42-.07-.7-.11-.52-.26-1-.44-1.48-.18-.46-.4-.92-.66-1.35l-2.52,3.32c.05.08.15.25.31.5.15.25.3.46.44.65.11.2.19.4.22.6.01.08.03.16.04.22,0,.07.01.11.01.15,0,.59-.21,1.03-.63,1.35-.75-.07-1.27.03-1.55.28v-.95c0-1.28-.21-2.28-.63-3-.45-.59-.92-1.12-1.4-1.64-.48-.51-.99-.97-1.52-1.39-.48.59-.92,1.18-1.32,1.78s-.75,1.22-1.07,1.83c.61.42,1.16.84,1.64,1.27.47.43.9.88,1.26,1.35.15.27.25.57.3.92s.07.79.07,1.32c0,.28,0,.53.01.73,0,.21.02.38.04.51v4.82c1.12-1.06,1.97-2.24,2.57-3.52l.03-1.92c.2.63.47,1.33.82,2.11s.67,1.58.95,2.43c.28.77.54,1.54.76,2.32s.4,1.58.54,2.37c.11-.17.27-.38.45-.66s.4-.61.65-.98c.17-.25.32-.49.45-.73h0Z"/>
    <path class="cls-4" d="m60.73,59.9c-.02-.13-.03-.3-.04-.5,0-.2-.01-.45-.01-.75,0-.5-.03-.91-.07-1.23s-.14-.6-.28-.85c-.18-.22-.38-.43-.59-.64s-.43-.41-.66-.61c-.2-.15-.4-.3-.6-.45-.2-.15-.42-.3-.65-.45l-.3-.28c-.08-.07-.18-.14-.3-.22.38-.36.7-.7.96-1.01.26-.31.48-.61.69-.92.2-.31.38-.63.55-.96.17-.33.36-.71.57-1.15.67.5,1.27,1.02,1.81,1.56.54.54,1.04,1.1,1.51,1.68.08.08.16.18.24.28s.15.2.24.3c.42.71.63,1.72.63,3.02v1.35l-.05,3.6c-.63,1.33-1.66,2.65-3.07,3.95l-.45-.45-.13.13v-5.4h0Zm.32.57v4.1c1.12-1.02,1.97-2.16,2.57-3.45l.05-3.54v-1.35c0-1.23-.21-2.2-.63-2.92-.45-.57-.92-1.09-1.4-1.58s-.99-.94-1.52-1.36c-.18.38-.36.73-.51,1.04-.16.31-.32.6-.5.88-.18.28-.37.54-.59.8-.22.26-.48.54-.8.84,1.2.78,2.16,1.63,2.9,2.55.15.27.25.57.3.9s.07.77.07,1.3c0,.28,0,.53.01.72,0,.2.02.36.04.5v.6h0Z"/>
    <path class="cls-4" d="m70.89,65.51s-.09.08-.13.1l.05-4.27v-4.84h-4.99l-.42-.42h-.18c.58-2.03,1.91-4.2,3.99-6.52v.25l.42.42c0,.33,0,.63.03.9.01.27.04.5.07.7h1.95c.3-.32.66-.65,1.07-1,.42-.35.9-.71,1.45-1.1v.22l.42.42v1.45h2.8l-.07.15.45.42-1.62,4.1h-1.67v5.97c-.33.63-.75,1.24-1.27,1.83-.52.58-1.15,1.14-1.9,1.67l-.45-.45h0Zm.25-4.72v.55l-.05,3.64c.58-.42,1.09-.88,1.54-1.4.44-.52.82-1.08,1.14-1.7v-6.14h1.75l1.42-3.6h-3.04v-1.8c-.42.28-.79.57-1.14.88-.34.3-.65.61-.94.92h-2.57c-.08-.24-.15-.5-.22-.8-.06-.3-.09-.63-.11-1-1.66,1.87-2.75,3.66-3.25,5.4h5.47v5.04h0Z"/>
    <path class="cls-4" d="m78.61,57.78c0-1.45.46-2.82,1.4-4.12.3-.38.66-.66,1.07-.82.65-.24,1.23-.38,1.72-.42h2.75c.13-.61.2-1.44.2-2.47.13.18.27.36.41.51.14.16.28.33.41.51.8.95,1.5,1.93,2.09,2.94.59,1.02,1.08,2.07,1.49,3.17h-5.77c-.8.01-1.35.77-1.65,2.25,0,.03,0,.07.01.11,0,.04.01.08.01.11.03.25.05.48.06.69s.03.4.06.56c.01.02.06.03.13.03.13.01.29.03.46.04.18,0,.38.01.61.01l4.02.03.1.25.35.32,1.92,4.07h-8.54l-.42-.42h-.13c-1.85-2.86-2.77-5.31-2.77-7.34h-.01Zm9.44,7.02h1.52l-1.67-3.57-3.82-.03c-.24,0-.44,0-.63-.01-.18,0-.34-.02-.47-.04-.43-.03-.7-.24-.8-.63-.03-.2-.07-.44-.1-.73-.03-.29-.07-.63-.1-1.01.33-1.62.96-2.43,1.9-2.45h5.42c-.71-2.01-1.79-3.85-3.22-5.5,0,.75-.09,1.38-.28,1.9h-2.97c-.52.05-1.02.17-1.52.35-.42.2-.8.5-1.15.9-.82,1.17-1.23,2.43-1.23,3.79,0,1.97.88,4.3,2.62,7.02h6.5Z"/>
    <path class="cls-4" d="m96.27,49.81c0,.32.02.67.04,1.05.01.38.04.75.06,1.12s.05.71.06,1.01l4.82.03c.36.02.71.09,1.02.22s.61.3.88.51c.13.11.26.24.36.35.11.11.2.24.29.38l.05.05c.38.42.65.91.8,1.48.05.77.09,1.5.11,2.2.03.7.04,1.34.04,1.92v1.45c0,.17,0,.28-.03.35l-.07,2.3c-.75,1.05-1.72,2.02-2.92,2.92l-.45-.45c-.07.03-.11.07-.13.1l-.15-4.14c-.01-.08-.03-.26-.03-.55l-.1-3.2v-.25c0-.08,0-.19-.03-.32,0-.01,0-.03-.01-.04,0,0-.01-.03-.01-.06v-.1s-.03-.1-.04-.16c0-.06-.03-.11-.06-.16-.05-.03-.1-.05-.16-.06-.06,0-.11-.03-.16-.06h-3.95l.22.22v6.12c-.38.52-.84,1.03-1.36,1.54s-1.1,1.03-1.74,1.56l-.45-.45c-.07.03-.11.07-.13.1v-5.97c.71-1,1.64-2.04,2.77-3.12h-4.22l-.42-.42h-.22c.25-.4.44-.75.59-1.04.14-.29.28-.58.41-.86.03-.05.06-.1.07-.16s.04-.11.07-.16c.07-.13.13-.26.18-.38s.1-.24.15-.38c.1-.2.18-.38.25-.54.07-.15.15-.31.25-.46l-.03.03c.3-.52.53-.98.7-1.4.11-.25.24-.5.35-.75s.26-.52.42-.8.36-.59.6-.9c.24-.32.52-.67.85-1.07v.28l.42.42c0,.17,0,.41.01.73h.02Zm5.08,12.27c0,.35,0,.53.03.55l.13,3.5c.98-.75,1.8-1.58,2.45-2.5l.07-2.22s.03-.17.03-.35v-1.45c0-1.15-.05-2.49-.15-4.02-.18-.68-.5-1.21-.95-1.6-.46-.42-1.03-.63-1.7-.65l-5.5-.03c-.01-.13-.04-.39-.07-.76-.03-.38-.06-.77-.09-1.21-.03-.43-.05-.84-.06-1.24-.01-.39-.03-.67-.03-.84-.28.33-.53.67-.73,1.01-.2.34-.38.68-.55,1.02s-.33.69-.48,1.05c-.16.36-.34.72-.54,1.08-.1.17-.22.41-.38.73-.15.32-.3.66-.45,1.01-.15.35-.3.68-.45,1-.15.32-.28.56-.38.73h8.44c.36.07.65.19.85.38.18.18.3.46.35.82.01.17.03.32.04.45,0,.13.01.24.01.32l.1,3.2h0Zm-5.37-.72v-3.39c-1.02.95-1.88,1.92-2.6,2.92v5.19c.52-.42.99-.84,1.42-1.27s.82-.89,1.17-1.37v-2.07h0Z"/>
    <path class="cls-4" d="m113.64,55.24s-.04.03-.07.03c-.01-.11-.1-.28-.25-.47-.77.24-1.49.5-2.16.8-.67.3-1.3.65-1.89,1.05-.05.28-.09.56-.11.82-.03.27-.05.53-.06.8-.01.27-.03.57-.04.91,0,.34-.01.69-.01,1.06h.42v.07h.8l-.07-.07h4.34s-.11.05-.22.05h-.03l-.15.03h1.58l.15.18.85,1.72s.04.06.07.07v-.03s.03.07.03.1.04.13.13.3l.03-.03.95,1.85h-10.53l-.07-.07c-.07-.15-.13-.29-.18-.41-.05-.13-.14-.33-.28-.61-.28-.57-.48-1.03-.61-1.39-.13-.36-.22-.73-.29-1.11-.1-1.37-.15-2.38-.15-3.04,0-1.27.13-2.45.38-3.54,2.23-1.87,4.46-3.07,6.7-3.62.6.4,1.16.86,1.67,1.37l.25.28c-.42-.4-.89-.78-1.42-1.15-2.23.55-4.46,1.76-6.7,3.62-.25,1.1-.38,2.28-.38,3.54,0,.67.05,1.68.15,3.04.07.38.16.75.29,1.11.13.36.33.82.61,1.39.05.13.09.24.13.3.04.07.08.14.11.22h10.19l-.8-1.5-.07-.1-.03-.05v-.05c-.05-.13-.08-.22-.1-.26-.01-.04-.03-.08-.05-.11l-.07-.07-.73-1.45h-6.47v.25l-.75-.75h.25c0-.38,0-.75.01-1.1,0-.35.02-.67.04-.95.01-.25.04-.5.06-.75.03-.25.06-.52.11-.8l-.05-.07.1-.15.05.05c1.17-.8,2.51-1.41,4.02-1.85-.01-.01-.03-.03-.04-.05,0-.01-.02-.03-.04-.05l.22.05.5.5s-.06.03-.07.03-.04,0-.07.03h.03c.2.24.3.43.3.6,0,.13-.01.29-.05.47s-.08.36-.13.54c-.06.18-.13.32-.24.45-.1.13-.22.19-.35.19l-2.07.22-.72,2.3h2.09l1.1-.15v-.03h.2l-.03-.05.13-.22.1.1.57-.3c.28-.17.53-.33.75-.48s.42-.32.6-.48c.57-.5.85-1.19.85-2.07-.17-1.02-.63-2.05-1.4-3.1-.13-.15-.26-.3-.38-.44-.11-.14-.24-.28-.38-.41l.25.22c.18.18.35.36.51.55.15.18.32.38.48.57.77,1.05,1.23,2.08,1.4,3.1,0,.88-.28,1.57-.85,2.07-.18.17-.38.33-.6.48-.22.15-.46.32-.75.48l-.67.38s0,.03-.03.05h1.23l.1.25.35.32.92,1.9.03.03c.03.07.05.11.06.11s.05.12.13.34h.03l.9,1.72h-10.49l-.42-.42h-.13s-.03-.07-.05-.11c-.02-.04-.03-.08-.05-.11-.03-.1-.07-.21-.13-.32-.05-.11-.13-.29-.25-.53-.27-.55-.46-1-.59-1.36-.13-.36-.23-.75-.31-1.16-.1-1.37-.15-2.38-.15-3.04,0-1.28.13-2.47.38-3.57,2.31-1.91,4.58-3.15,6.79-3.7.98.67,1.88,1.52,2.69,2.55.78,1.05,1.26,2.09,1.42,3.15,0,.93-.29,1.64-.88,2.12-.2.18-.41.36-.63.53-.22.17-.46.32-.75.47l-.63.35c-.01.08-.11.13-.28.13l-.13.07.03-.07-1.1.18h-2.67l-.07-.07.88-2.8,2.07-.22c.13,0,.25-.06.35-.19.1-.13.18-.28.24-.45.06-.18.1-.35.13-.54.03-.18.05-.34.05-.47v-.05h0Zm.13,4.3h.03s.03,0,.03-.03l.8-.42c.26-.15.51-.3.71-.46.21-.15.4-.32.59-.48.52-.45.77-1.06.77-1.83-.18-1.02-.63-2.01-1.35-3-.77-1-1.6-1.79-2.5-2.37-2.16.53-4.31,1.69-6.44,3.47-.11.52-.2,1.06-.26,1.62s-.09,1.17-.09,1.8.05,1.61.15,2.97c.07.4.16.77.29,1.12.13.35.32.8.59,1.35.13.28.27.57.4.88h9.89l-.7-1.35c-.03-.08-.06-.15-.09-.22s-.07-.13-.13-.24l-.88-1.8h-6.84c0-.45,0-.86.01-1.25,0-.38.02-.73.04-1.05.01-.61.09-1.23.22-1.83,1.31-.92,2.78-1.6,4.39-2.05.33.28.5.59.5.9,0,.15-.02.33-.06.55-.04.22-.1.42-.19.63-.08.2-.19.37-.31.51-.13.14-.27.22-.44.22l-1.9.2-.72,2.32h2.34l1.15-.18h0Zm-4.24-.77c-.01.22-.03.44-.04.69,0,.24-.01.51-.01.79h.73l-.2-.2h-.18l.92-2.95,2.12-.22c.11,0,.22-.06.31-.18.09-.11.17-.26.22-.42.06-.17.1-.34.13-.51s.04-.33.04-.46v-.03c-1.45.43-2.73,1.04-3.85,1.83-.07.28-.11.56-.13.84s-.05.55-.06.84h0Z"/>
    <path class="cls-4" d="m119.73,52.31s.04-.07.06-.11c.03-.04.05-.09.09-.13.03-.03.05-.07.06-.11,0-.04.03-.08.06-.11l-.03.03c.05-.08.1-.19.16-.31.06-.13.13-.26.22-.38.1-.18.21-.38.32-.61.11-.22.22-.41.3-.56.35.43.76.93,1.23,1.5s.91,1.06,1.31,1.5c.38.43.77.84,1.17,1.23.4.39.79.77,1.17,1.14l1.02,1c.11.11.28.25.47.4.25.18.57.42.95.72.33-.48.5-1,.5-1.58,0-.07,0-.15-.01-.24,0-.09-.02-.19-.04-.29h-1.6l-.42-.42h-.18l1.48-3.99h5.09l-.07.15.45.42-1.02,2.09s.03.14.03.28v.42c0,.77-.1,1.61-.3,2.53-.2.92-.57,1.85-1.1,2.78.01,0,.03,0,.03.03h.03l.22.18c.2.17.42.34.66.53s.59.42,1.06.7l-.05.1.45.45c-.28.59-.62,1.18-1.01,1.8-.39.61-.84,1.24-1.33,1.87-.5-.38-1-.76-1.49-1.14-.49-.38-.98-.76-1.46-1.16-.65-.53-1.29-1.08-1.93-1.66-.64-.57-1.28-1.16-1.91-1.76-.07.2-.1.42-.1.67v.47c0,.11.01.22.05.32.07.07.15.13.28.18l-.07.07.47.45c-.4.52-.78,1.02-1.14,1.51-.36.49-.69.98-.98,1.46l-.5.8s-.07-.06-.1-.09c-.03-.03-.07-.05-.1-.09l-.25-.25-.03.05c-.36-.35-.69-.71-.98-1.07s-.52-.75-.7-1.15c-.18-.32-.28-.77-.28-1.35s.09-1.32.28-2.16c.18-.84.6-1.72,1.25-2.63-.3-.3-.57-.57-.8-.8s-.44-.46-.64-.67c-.19-.22-.38-.43-.55-.63-.18-.21-.36-.43-.54-.66.02-.05.03-.08.05-.1.03-.03.06-.07.07-.1l.05-.1s.03-.07.05-.11c.01-.04.03-.09.05-.13.07-.17.11-.26.13-.3.08-.13.15-.27.22-.4.06-.13.1-.28.13-.42l.03-.03h.03Zm-.07.98c-.08.17-.15.31-.19.42s-.08.21-.11.28c.2.25.38.48.56.69s.36.42.55.63c.19.22.4.44.64.67.24.24.5.49.8.77-.35.45-.63.9-.84,1.33-.21.44-.37.87-.48,1.29s-.2.81-.24,1.19c-.04.38-.06.71-.06,1.01,0,.5.08.91.25,1.23.17.38.36.73.57,1.04s.46.58.72.81l.35-.55c.65-1.02,1.3-1.94,1.95-2.77-.3-.17-.47-.36-.53-.59-.05-.22-.07-.55-.07-.98s.11-.82.35-1.15c1.1,1.1,2.21,2.14,3.33,3.11,1.12.98,2.26,1.89,3.41,2.73.43-.57.82-1.12,1.16-1.66.34-.54.65-1.07.91-1.58-.24-.15-.45-.3-.65-.44-.2-.14-.39-.28-.57-.42-.18-.14-.38-.3-.57-.46s-.42-.35-.67-.55c.58-.95.98-1.91,1.21-2.88.22-.98.34-1.85.34-2.61v-.42c0-.18,0-.28-.03-.3l.88-1.83h-4.37l-1.23,3.35h1.92c.07.17.11.38.15.63s.05.46.05.65c0,.42-.06.78-.19,1.1s-.33.63-.61.95c-.48-.42-.84-.71-1.06-.88-.22-.17-.43-.33-.61-.5l-1.02-1c-.38-.36-.77-.75-1.17-1.14-.4-.39-.79-.8-1.17-1.24-.8-.87-1.55-1.74-2.25-2.62-.22.36-.41.7-.57,1.01-.17.31-.32.59-.45.84-.07.27-.19.55-.38.85h.01Zm1.61,3.25c.06.05.11.1.16.15l-.4-.42s.05.08.1.1c.03.07.08.13.13.18Z"/>
    <path class="cls-4" d="m331.72,62.28v-3.39c0-.48-.01-.98-.05-1.5-.03-.52-.08-1.06-.15-1.65-.01-.13-.03-.24-.04-.32,0-.08-.01-.15-.01-.2v-.05c-.03-.1-.07-.19-.13-.28s-.1-.17-.15-.25c-.01-.03-.03-.05-.04-.06,0,0-.02-.03-.04-.06-.24-.27-.48-.53-.76-.77-.28-.25-.55-.49-.84-.73-.08-.07-.18-.13-.28-.19-.1-.06-.19-.12-.28-.19l-.2-.2c-.08-.05-.15-.09-.2-.13-.05-.04-.11-.09-.2-.13.43-.75.86-1.46,1.3-2.15.43-.68.92-1.35,1.45-2.02,1.02.85,1.92,1.78,2.72,2.8.27.32.52.64.76.98.24.33.48.68.71,1.05.1,1.23.15,2.51.15,3.85,0,.87-.03,1.73-.07,2.6l-.2,4.57c-.33.57-.75,1.15-1.24,1.74-.49.6-1.06,1.24-1.71,1.92l-.45-.45s-.09.07-.13.13l.03-4.22v-.6l.03-.07h.02Zm.3.67l-.03,3.42c.48-.5.93-1.01,1.33-1.54.41-.53.78-1.06,1.11-1.61l.2-4.49c.05-.86.07-1.72.07-2.57,0-1.3-.05-2.57-.15-3.79-.48-.77-1.01-1.48-1.58-2.14s-1.19-1.25-1.85-1.78c-.42.52-.82,1.07-1.2,1.67s-.77,1.25-1.15,1.95c.98.61,1.85,1.37,2.6,2.27.07.08.13.18.19.28s.1.21.13.32c.03.08.06.19.07.31.01.13.03.28.05.46.07.59.11,1.14.15,1.66.03.53.05,1.03.05,1.51v3.12c0,.2,0,.32-.03.38v.57h.01Z"/>
    <path class="cls-4" d="m339.72,59.9c-.02-.13-.03-.3-.04-.5,0-.2-.01-.45-.01-.75,0-.5-.03-.91-.07-1.23s-.14-.6-.28-.85c-.18-.22-.38-.43-.59-.64s-.43-.41-.66-.61c-.2-.15-.4-.3-.6-.45-.2-.15-.42-.3-.65-.45l-.3-.28c-.08-.07-.18-.14-.3-.22.38-.36.7-.7.96-1.01.26-.31.48-.61.69-.92.2-.31.38-.63.55-.96.17-.33.36-.71.57-1.15.67.5,1.27,1.02,1.81,1.56.54.54,1.04,1.1,1.51,1.68.08.08.16.18.24.28s.15.2.24.3c.42.71.63,1.72.63,3.02v1.35l-.05,3.6c-.63,1.33-1.66,2.65-3.07,3.95l-.45-.45-.13.13v-5.4h0Zm.32.57v4.1c1.12-1.02,1.97-2.16,2.57-3.45l.05-3.54v-1.35c0-1.23-.21-2.2-.63-2.92-.45-.57-.92-1.09-1.4-1.58-.48-.49-.99-.94-1.52-1.36-.18.38-.36.73-.51,1.04-.16.31-.32.6-.5.88s-.37.54-.59.8c-.22.26-.48.54-.8.84,1.2.78,2.16,1.63,2.9,2.55.15.27.25.57.3.9s.07.77.07,1.3c0,.28,0,.53.01.72,0,.2.02.36.04.5v.6h0Z"/>
    <path class="cls-4" d="m345.03,52.31s.04-.07.06-.11c.03-.04.05-.09.09-.13.03-.03.05-.07.06-.11,0-.04.03-.08.06-.11l-.03.03c.05-.08.1-.19.16-.31.06-.13.13-.26.22-.38.1-.18.21-.38.32-.61.11-.22.22-.41.3-.56.35.43.76.93,1.24,1.5.47.57.91,1.06,1.31,1.5.38.43.77.84,1.17,1.23.4.39.79.77,1.17,1.14l1.02,1c.11.11.28.25.47.4.25.18.57.42.95.72.33-.48.5-1,.5-1.58,0-.07,0-.15-.01-.24,0-.09-.02-.19-.04-.29h-1.6l-.42-.42h-.18l1.48-3.99h5.09l-.07.15.45.42-1.02,2.09s.03.14.03.28v.42c0,.77-.1,1.61-.3,2.53s-.57,1.85-1.1,2.78c.01,0,.03,0,.03.03h.03l.22.18c.2.17.42.34.66.53s.59.42,1.06.7l-.05.1.45.45c-.28.59-.62,1.18-1.01,1.8-.39.61-.84,1.24-1.33,1.87-.5-.38-1-.76-1.48-1.14-.49-.38-.98-.76-1.46-1.16-.65-.53-1.29-1.08-1.93-1.66-.64-.57-1.28-1.16-1.91-1.76-.07.2-.1.42-.1.67v.47c0,.11.01.22.05.32.07.07.16.13.28.18l-.07.07.48.45c-.4.52-.78,1.02-1.14,1.51s-.69.98-.98,1.46l-.5.8s-.07-.06-.1-.09c-.03-.03-.07-.05-.1-.09l-.25-.25-.03.05c-.36-.35-.69-.71-.98-1.07s-.52-.75-.7-1.15c-.18-.32-.28-.77-.28-1.35s.09-1.32.28-2.16c.18-.84.6-1.72,1.25-2.63-.3-.3-.57-.57-.8-.8s-.44-.46-.64-.67c-.19-.22-.38-.43-.55-.63-.18-.21-.36-.43-.54-.66.02-.05.03-.08.05-.1.03-.03.06-.07.07-.1l.05-.1s.03-.07.05-.11c.01-.04.03-.09.05-.13.07-.17.11-.26.13-.3.08-.13.15-.27.22-.4.06-.13.1-.28.13-.42l.03-.03h.02Zm-.07.98c-.08.17-.15.31-.19.42-.04.11-.08.21-.11.28.2.25.38.48.56.69s.36.42.55.63c.19.22.4.44.64.67.24.24.5.49.8.77-.35.45-.63.9-.84,1.33s-.37.87-.48,1.29-.2.81-.24,1.19c-.04.38-.06.71-.06,1.01,0,.5.08.91.25,1.23.17.38.36.73.57,1.04.22.31.46.58.72.81l.35-.55c.65-1.02,1.3-1.94,1.95-2.77-.3-.17-.47-.36-.53-.59-.05-.22-.07-.55-.07-.98s.11-.82.35-1.15c1.1,1.1,2.21,2.14,3.33,3.11s2.26,1.89,3.41,2.73c.43-.57.82-1.12,1.16-1.66.34-.54.65-1.07.91-1.58-.24-.15-.45-.3-.65-.44-.2-.14-.39-.28-.57-.42-.18-.14-.38-.3-.57-.46s-.42-.35-.67-.55c.58-.95.98-1.91,1.21-2.88.22-.98.34-1.85.34-2.61v-.42c0-.18,0-.28-.03-.3l.88-1.83h-4.37l-1.23,3.35h1.92c.07.17.11.38.15.63s.05.46.05.65c0,.42-.06.78-.19,1.1s-.33.63-.61.95c-.48-.42-.84-.71-1.06-.88-.23-.17-.43-.33-.61-.5l-1.02-1c-.38-.36-.77-.75-1.17-1.14-.4-.39-.79-.8-1.17-1.24-.8-.87-1.55-1.74-2.25-2.62-.22.36-.41.7-.57,1.01-.17.31-.32.59-.45.84-.07.27-.19.55-.38.85h0Zm1.61,3.25c.06.05.11.1.16.15l-.4-.42s.05.08.1.1c.03.07.08.13.13.18Z"/>
    <path class="cls-4" d="m371.08,50.15l.45.42-1.92,4.07-3.97.03c-.24,0-.44,0-.61.01-.18,0-.33.02-.46.04-.32.03-.51.18-.57.45-.03.18-.06.39-.09.63s-.05.49-.09.77c0,.05,0,.09-.01.13,0,.03-.01.07-.01.1.1.57.26,1.04.47,1.42.18.17.41.25.67.25h3.22s-.03-.09-.03-.18h-2.05l-.42-.42h-.18l.92-2.97h5.22l-.1.15.45.42-.95,1.58v1.27c0,.17-.02.34-.05.53l.22.2c-.84,2.3-2.11,4.45-3.82,6.44l-.45-.45c-.07.07-.11.11-.13.15,0-.43-.01-.82-.04-1.15-.03-.33-.05-.63-.09-.9h-2.32c-.27-.03-.54-.08-.81-.15s-.56-.15-.86-.25c-.33-.15-.63-.36-.9-.63-.25-.15-.49-.36-.73-.65-.93-1.3-1.4-2.67-1.4-4.12,0-2.01.92-4.46,2.77-7.34h8.72l-.07.15h.01Zm-.45.18h-8.02c-1.74,2.73-2.62,5.07-2.62,7.02,0,1.37.41,2.63,1.23,3.79.35.4.73.7,1.15.9.53.18,1.04.3,1.52.35h2.97c.18.55.28,1.18.28,1.9,1.43-1.65,2.51-3.48,3.22-5.5h-.2c.05-.24.08-.48.1-.73.01-.26.03-.54.03-.84v-.42c0-.18,0-.28-.03-.3l.77-1.27h-4.37l-.72,2.32h2.34c.13.36.2.71.2,1.02v.22h-3.54c-.95-.03-1.58-.85-1.9-2.45.03-.38.07-.72.1-1.01.03-.29.07-.54.1-.73.1-.38.36-.59.8-.63.13-.01.29-.03.47-.04.18,0,.39-.01.63-.01l3.82-.03,1.67-3.57h0Z"/>
    <path class="cls-4" d="m376.97,58.63c.03.2.07.36.1.47.07.05.18.07.32.07h3.25c-.24-.8-.42-1.59-.56-2.37s-.24-1.58-.29-2.37c.17-.59.36-1.18.6-1.78.24-.61.52-1.24.85-1.89h6.12l-.07.15.45.42-.45,1.02c-.01.08-.04.15-.07.2-.03.05-.07.1-.1.15l-.13.25-1.02,2.5h-2.27c.1.6.24,1.21.4,1.85s.36,1.28.6,1.95h2.15c-.03.07-.05.11-.05.15l.45.42c-.3.95-.75,1.93-1.33,2.96-.59,1.02-1.33,2.09-2.24,3.19l-.45-.45s-.06.07-.07.1c-.11-.33-.22-.64-.32-.92-.1-.28-.21-.56-.32-.82l-5.92-.03s-.1-.03-.2-.03h-.3c-.1,0-.19,0-.26-.01-.07,0-.15-.02-.24-.04h-.05c-.38-.07-.69-.22-.92-.45l-.15-.13c-.22-.11-.4-.28-.55-.47-.13-.17-.25-.34-.35-.53s-.18-.39-.25-.63c-.07-.18-.11-.38-.13-.57-.01-.2-.03-.39-.05-.57-.01-.08-.03-.17-.04-.25,0-.08-.01-.17-.01-.25,0-.05,0-.1-.01-.15s-.01-.09-.01-.13,0-.06-.01-.07c0-.01-.01-.04-.01-.07v-.1l-.32-5.47c.58-1.53,1.63-3,3.15-4.39v.22l.42.42c0,.15,0,.35.03.6.01.25.03.52.05.81s.03.59.05.9c.01.31.04.61.07.91l.32,4.17c.01.1.03.2.04.3,0,.1.02.19.04.28.01.07.03.13.04.2,0,.07.03.15.06.28v.02Zm9.44-6.57c.07-.1.11-.18.13-.25l.32-.72h-5.42c-.28.57-.53,1.13-.75,1.7s-.41,1.14-.57,1.72c.13,1.66.46,3.33.98,4.99h-3.72c-.36-.03-.63-.15-.8-.38-.17-.22-.28-.52-.35-.9-.03-.18-.06-.37-.09-.56-.03-.19-.05-.38-.09-.56l-.32-4.17c-.05-.58-.09-1.1-.11-1.55s-.05-.84-.06-1.15c-1.17,1.06-2.01,2.3-2.52,3.72l.32,5.42c.01.13.03.28.04.45s.03.36.06.57c.01.2.04.4.06.6.03.2.07.39.13.57.1.35.26.67.5.95.22.25.53.42.92.5.08.01.17.03.25.04.08,0,.17.01.25.01h.3c.13,0,.22,0,.25.03l6.37.03c.13.28.26.58.38.89.13.31.24.63.36.96,1.56-1.91,2.61-3.71,3.15-5.4h-2.15c-.33-.86-.61-1.7-.82-2.51-.22-.81-.38-1.6-.5-2.36h2.37l.98-2.34.15-.3h0Zm-12.31,10.76s.05.08.1.1l-.1-.1Z"/>
    <path class="cls-4" d="m401.69,59.14c.05.3.13.57.25.8.11.1.25.22.4.35.15.13.32.28.5.42l-.05.05.45.45-1.48,1.83c-.05.07-.1.13-.15.18-.05.05-.09.1-.13.15l-.03.03-1.67,2.12-.45-.45-.07.1c-.4-1.02-.73-1.98-1-2.88-.27-.91-.46-1.77-.57-2.59l-.72-4.27c-.03-.25-.08-.47-.15-.67v-.03c-.24-.05-.44-.07-.63-.07-1.03,0-2.08.48-3.15,1.45-.2.6-.3,1.12-.3,1.55,0,.3.09.77.28,1.42h-.03s.01.11.05.18c.2.15.46.22.8.22.38,0,.77-.07,1.17-.2.1-.03.2-.07.3-.11.1-.04.2-.09.3-.13.08-.03.17-.07.25-.11.08-.04.17-.08.25-.11.05-.03.14-.07.28-.13.13-.05.26-.1.38-.15.05-.03.11-.06.18-.09.07-.03.11-.05.15-.06v.2l.42.42c-.08,1.58-.46,2.96-1.15,4.14-.98.7-2.07,1.05-3.27,1.05s-2.06-.32-2.69-.95l-.03-.03c-.55-.32-.96-.8-1.23-1.45-.36-.8-.55-1.67-.55-2.62,0-1.56.54-3.33,1.62-5.29.61-1.2,1.56-2.12,2.82-2.77h-.03c.6-.35,1.23-.61,1.87-.79s1.31-.27,2-.29c.75,0,1.35.21,1.83.63.1.1.19.2.28.3s.15.21.22.32c.35.35.6.73.75,1.15.08.25.17.54.25.88.08.33.17.67.25,1l.18.75-.03-.03c.05.13.1.29.15.47.05.18.09.36.13.55l.8,3.12h0Zm-.9,3.57s.07-.08.13-.13c.05-.06.1-.12.15-.19l1.33-1.65c-.46-.38-.79-.69-.98-.92-.25-.35-.41-.72-.47-1.12l-.8-3.12c-.03-.22-.07-.41-.13-.57s-.09-.31-.13-.42l-.18-.75c-.08-.42-.17-.78-.25-1.08-.08-.31-.15-.56-.22-.76-.13-.36-.38-.74-.75-1.12-.38-.35-.92-.53-1.6-.53-1.3.03-2.53.38-3.7,1.05-1.21.63-2.11,1.51-2.67,2.62-1.06,1.97-1.6,3.68-1.6,5.15,0,.87.18,1.7.53,2.5.52,1.2,1.56,1.8,3.15,1.8,1.17,0,2.19-.32,3.07-.95.67-1.12,1.02-2.32,1.07-3.62-.32.13-.61.26-.88.38-.27.13-.52.23-.75.31-.43.15-.86.22-1.27.22-.78,0-1.31-.38-1.58-1.15-.18-.65-.28-1.15-.28-1.5,0-.43.11-1,.35-1.7,1.13-1.03,2.25-1.55,3.35-1.55.26,0,.54.03.82.07.2.07.35.15.45.25.1.1.15.27.18.5.08.24.13.44.15.63l.72,4.27c.22,1.56.67,3.2,1.35,4.9l1.42-1.8h.01Zm1.4-2.45s.05.03.06.05.03.03.06.05l-.13-.1h0Z"/>
    <g>
      <path class="cls-3" d="m315.32,47.41v-2.01h-169.85v2.01l-7.65,20.85c15.77,1.95,31.55,2.51,47.32,0,17.14-2.09,34.01-2.35,50.52,0,20.59,2.52,40.49,2.37,59.81,0,10.23-1.08,18.64-.26,26.32,1.33l-6.46-22.19Zm-159.78,21.68c-2.78-1.74-6.81-2.42-12.74-1.5l16.51-18.02-3.77,19.51h0Zm23.26-1.53c3.31-7.44,9.03-14.21,18.97-19.82,7.85,4.59,12.4,10.6,14.17,17.81-3.02-1.58-27.26.72-33.14,2.01h0Zm71.3.36c-2.55-1.95-19.7-4.01-25.82-3.54,5.25-6.86,6.2-9.21,17.47-13.38,6.48,5.56,8.56,9.6,8.36,16.91h0Zm33.04-1.79c3.31-7.44-3-12.38,6.94-17.98,7.85,4.59,23.48,10.78,25.25,17.98-3.02-1.57-26.32-1.29-32.19,0h0Z"/>
      <path class="cls-1" d="m155.55,69.09l3.77-19.51-16.51,18.02c5.92-.93,9.96-.24,12.74,1.5h0Z"/>
      <path class="cls-1" d="m197.78,47.75c-9.94,5.6-15.66,12.37-18.97,19.82,5.88-1.29,30.12-3.58,33.14-2.01-1.77-7.2-6.31-13.22-14.17-17.81h0Z"/>
      <path class="cls-1" d="m241.75,51c-11.26,4.16-12.21,6.51-17.47,13.38,6.12-.48,23.27,1.58,25.82,3.54.2-7.31-1.88-11.35-8.36-16.91h0Z"/>
      <path class="cls-1" d="m290.1,48.14c-9.93,5.6-3.64,10.54-6.94,17.98,5.87-1.29,29.17-1.57,32.19,0-1.77-7.2-17.39-13.39-25.25-17.98h0Z"/>
    </g>
    <path class="cls-2" d="m296.68,57.75c.06.05.11.1.16.15l-.27-.29s.06.1.11.13h0Z"/>
    <path class="cls-4" d="m282.75,57.73s.01.02.01.03h0s0-.03,0-.03h0Z"/>
    <path class="cls-4" d="m284.38,57.87l-.25-.25v.25h.25Z"/>
    <path class="cls-4" d="m296.45,57.68l.13.13s-.02-.02-.03-.03c-.05-.01-.08-.05-.1-.1Z"/>
  </g>
</svg>