<?xml version="1.0" encoding="utf-8"?>
<!-- Generator: Adobe Illustrator 27.7.0, SVG Export Plug-In . SVG Version: 6.00 Build 0)  -->
<svg version="1.1" id="Layer_1" xmlns="http://www.w3.org/2000/svg" xmlns:xlink="http://www.w3.org/1999/xlink" x="0px" y="0px"
	 viewBox="0 0 365 35" style="enable-background:new 0 0 365 35;" xml:space="preserve">
<style type="text/css">
	.st0{fill:#221F1F;}
	.st1{stroke:#221F1F;stroke-width:0.24;stroke-linecap:round;stroke-linejoin:round;}
	.st2{fill:#FFFFFF;}
	.st3{fill:#CA525F;}
</style>
<g id="LogoLongateBW">
	<path class="st0" d="M-461,23.3c0,0-0.1,0.1-0.1,0.1v-5.5c0-0.1,0-0.3,0-0.5c0-0.2,0-0.5,0-0.8c0-0.5,0-0.9-0.1-1.2
		s-0.1-0.6-0.2-0.8h0v0c0,0,0,0,0,0c-0.2-0.2-0.4-0.4-0.6-0.6c-0.2-0.2-0.4-0.4-0.7-0.7c-0.2-0.2-0.4-0.3-0.6-0.5
		c-0.2-0.2-0.4-0.3-0.6-0.5l-0.2-0.2c-0.1,0-0.1-0.1-0.2-0.2s-0.1-0.1-0.2-0.2c0.4-0.7,0.8-1.4,1.2-2.1c0.5-0.7,1-1.4,1.6-2.1
		c1.2,0.9,2.2,2,3.1,3.2c0.1,0.1,0.2,0.2,0.3,0.3c0.1,0.1,0.2,0.2,0.3,0.4c0.2,0.4,0.3,0.8,0.4,1.3c0.1,0.5,0.2,1,0.2,1.7
		c0.1,0,0.1,0,0.2,0c0.1,0,0.1,0,0.2,0h0.4c0.2-0.2,0.4-0.6,0.4-1c0,0,0-0.1,0-0.2c0,0,0,0,0,0c0,0,0,0,0-0.1v-0.1
		c0-0.1-0.1-0.2-0.1-0.3c-0.2-0.3-0.4-0.5-0.6-0.9c-0.2-0.3-0.3-0.5-0.4-0.6l3-3.9c0,0.1,0.1,0.2,0.1,0.2c0,0.1,0.1,0.1,0.1,0.2
		l0.2,0.2c0.7,1.1,1.1,2.2,1.3,3.2c0,0.3,0.1,0.5,0.1,0.8c0,0.5-0.1,1-0.2,1.4c-0.2,0.5-0.3,0.9-0.6,1.2c-0.2,0.4-0.5,0.7-0.8,1.1
		c-0.1,0.1-0.2,0.2-0.2,0.3c-0.1,0.1-0.2,0.2-0.2,0.3c-0.1,0.1-0.1,0.2-0.2,0.2c0,0-0.1,0.1-0.1,0.2c0.5,1,1,2.2,1.5,3.4h0
		c0.2,0.6,0.5,1.3,0.6,1.9s0.3,1.2,0.5,1.9c-0.1,0.1-0.1,0.2-0.2,0.3c-0.1,0.1-0.1,0.3-0.2,0.4c-0.1,0.1-0.2,0.3-0.2,0.4
		c-0.1,0.1-0.2,0.3-0.2,0.4c-0.1,0.2-0.3,0.4-0.4,0.6s-0.3,0.4-0.4,0.6s-0.3,0.4-0.4,0.6s-0.2,0.3-0.2,0.4l-0.4-0.4
		c0,0-0.1,0.1-0.1,0.2c-0.2-1.1-0.4-2.1-0.6-3c-0.2-0.9-0.5-1.7-0.8-2.4c-0.1-0.3-0.3-0.7-0.4-1c-0.1-0.3-0.3-0.7-0.4-1
		c-0.3,0.7-0.7,1.3-1.2,2s-1.1,1.3-1.8,2L-461,23.3L-461,23.3L-461,23.3z M-453.6,24.1c0.1-0.2,0.3-0.5,0.4-0.7
		c-0.1-0.6-0.3-1.2-0.5-1.8s-0.4-1.2-0.6-1.8c-0.2-0.6-0.4-1.2-0.7-1.8c-0.3-0.6-0.5-1.2-0.8-1.8c0.2-0.2,0.3-0.4,0.5-0.6
		c0.1-0.2,0.3-0.4,0.4-0.6c0.3-0.4,0.5-0.7,0.8-1.1c0.2-0.4,0.4-0.8,0.5-1.2c0.2-0.4,0.2-0.9,0.2-1.3c0-0.2,0-0.4-0.1-0.7
		c-0.1-0.5-0.3-1-0.4-1.5c-0.2-0.5-0.4-0.9-0.7-1.3l-2.5,3.3c0,0.1,0.1,0.2,0.3,0.5c0.1,0.2,0.3,0.5,0.4,0.7
		c0.1,0.2,0.2,0.4,0.2,0.6c0,0.1,0,0.2,0,0.2c0,0.1,0,0.1,0,0.2c0,0.6-0.2,1-0.6,1.3c-0.8-0.1-1.3,0-1.5,0.3v-1c0-1.3-0.2-2.3-0.6-3
		c-0.5-0.6-0.9-1.1-1.4-1.6c-0.5-0.5-1-1-1.5-1.4c-0.5,0.6-0.9,1.2-1.3,1.8c-0.4,0.6-0.8,1.2-1.1,1.8c0.6,0.4,1.2,0.8,1.6,1.3
		c0.5,0.4,0.9,0.9,1.3,1.3c0.1,0.3,0.2,0.6,0.3,0.9s0.1,0.8,0.1,1.3c0,0.3,0,0.5,0,0.7c0,0.2,0,0.4,0,0.5v4.8c1.1-1.1,2-2.2,2.6-3.5
		l0-1.9c0.2,0.6,0.5,1.3,0.8,2.1s0.7,1.6,0.9,2.4c0.3,0.8,0.5,1.5,0.8,2.3c0.2,0.8,0.4,1.6,0.5,2.4c0.1-0.2,0.3-0.4,0.4-0.7
		c0.2-0.3,0.4-0.6,0.7-1C-453.9,24.5-453.7,24.3-453.6,24.1L-453.6,24.1L-453.6,24.1z"/>
	<path class="st0" d="M-448.2,19.7c0-0.1,0-0.3,0-0.5c0-0.2,0-0.5,0-0.8c0-0.5,0-0.9-0.1-1.2c0-0.3-0.1-0.6-0.3-0.8
		c-0.2-0.2-0.4-0.4-0.6-0.6c-0.2-0.2-0.4-0.4-0.7-0.6c-0.2-0.2-0.4-0.3-0.6-0.5c-0.2-0.2-0.4-0.3-0.6-0.5l-0.3-0.3
		c-0.1-0.1-0.2-0.1-0.3-0.2c0.4-0.4,0.7-0.7,1-1c0.3-0.3,0.5-0.6,0.7-0.9c0.2-0.3,0.4-0.6,0.5-1c0.2-0.3,0.4-0.7,0.6-1.2
		c0.7,0.5,1.3,1,1.8,1.6s1,1.1,1.5,1.7c0.1,0.1,0.2,0.2,0.2,0.3c0.1,0.1,0.1,0.2,0.2,0.3c0.4,0.7,0.6,1.7,0.6,3v1.3l0,3.6
		c-0.6,1.3-1.7,2.6-3.1,4l-0.5-0.4l-0.1,0.1L-448.2,19.7C-448.2,19.7-448.2,19.7-448.2,19.7z M-447.9,20.2v4.1c1.1-1,2-2.2,2.6-3.5
		l0-3.5V16c0-1.2-0.2-2.2-0.6-2.9c-0.5-0.6-0.9-1.1-1.4-1.6c-0.5-0.5-1-0.9-1.5-1.4c-0.2,0.4-0.4,0.7-0.5,1
		c-0.2,0.3-0.3,0.6-0.5,0.9c-0.2,0.3-0.4,0.5-0.6,0.8s-0.5,0.5-0.8,0.8c1.2,0.8,2.2,1.6,2.9,2.5c0.1,0.3,0.2,0.6,0.3,0.9
		c0.1,0.3,0.1,0.8,0.1,1.3c0,0.3,0,0.5,0,0.7c0,0.2,0,0.4,0,0.5L-447.9,20.2L-447.9,20.2L-447.9,20.2z"/>
	<path class="st0" d="M-438,25.3c0,0-0.1,0.1-0.1,0.1l0-4.3v-4.8h-5l-0.4-0.4h-0.2c0.6-2,1.9-4.2,4-6.5v0.2l0.4,0.4
		c0,0.3,0,0.6,0,0.9c0,0.3,0,0.5,0.1,0.7h1.9c0.3-0.3,0.7-0.7,1.1-1c0.4-0.3,0.9-0.7,1.5-1.1v0.2l0.4,0.4v1.5h2.8l-0.1,0.2l0.4,0.4
		l-1.6,4.1h-1.7v6c-0.3,0.6-0.8,1.2-1.3,1.8c-0.5,0.6-1.1,1.1-1.9,1.7L-438,25.3L-438,25.3z M-437.8,20.5v0.5l-0.1,3.6
		c0.6-0.4,1.1-0.9,1.5-1.4c0.4-0.5,0.8-1.1,1.1-1.7v-6.1h1.8l1.4-3.6h-3v-1.8c-0.4,0.3-0.8,0.6-1.1,0.9c-0.3,0.3-0.7,0.6-0.9,0.9
		h-2.6c-0.1-0.2-0.2-0.5-0.2-0.8c-0.1-0.3-0.1-0.6-0.1-1c-1.7,1.9-2.8,3.7-3.2,5.4h5.5L-437.8,20.5L-437.8,20.5L-437.8,20.5z"/>
	<path class="st0" d="M-430.3,17.5c0-1.5,0.5-2.8,1.4-4.1c0.3-0.4,0.7-0.7,1.1-0.8c0.6-0.2,1.2-0.4,1.7-0.4h2.8
		c0.1-0.6,0.2-1.4,0.2-2.5c0.1,0.2,0.3,0.4,0.4,0.5c0.1,0.2,0.3,0.3,0.4,0.5c0.8,1,1.5,1.9,2.1,2.9c0.6,1,1.1,2.1,1.5,3.2h-5.8
		c-0.8,0-1.4,0.8-1.6,2.2c0,0,0,0.1,0,0.1c0,0,0,0.1,0,0.1c0,0.2,0.1,0.5,0.1,0.7c0,0.2,0,0.4,0.1,0.6c0,0,0.1,0,0.1,0
		c0.1,0,0.3,0,0.5,0c0.2,0,0.4,0,0.6,0l4,0l0.1,0.2l0.3,0.3l1.9,4.1h-8.5l-0.4-0.4h-0.1C-429.4,22-430.3,19.6-430.3,17.5
		L-430.3,17.5L-430.3,17.5z M-420.9,24.5h1.5L-421,21l-3.8,0c-0.2,0-0.4,0-0.6,0c-0.2,0-0.3,0-0.5,0c-0.4,0-0.7-0.2-0.8-0.6
		c0-0.2-0.1-0.4-0.1-0.7c0-0.3-0.1-0.6-0.1-1c0.3-1.6,1-2.4,1.9-2.5h5.4c-0.7-2-1.8-3.8-3.2-5.5c0,0.8-0.1,1.4-0.3,1.9h-3
		c-0.5,0-1,0.2-1.5,0.3c-0.4,0.2-0.8,0.5-1.1,0.9c-0.8,1.2-1.2,2.4-1.2,3.8c0,2,0.9,4.3,2.6,7L-420.9,24.5L-420.9,24.5z"/>
	<path class="st0" d="M-412.6,9.6c0,0.3,0,0.7,0,1c0,0.4,0,0.8,0.1,1.1s0,0.7,0.1,1l4.8,0c0.4,0,0.7,0.1,1,0.2s0.6,0.3,0.9,0.5
		c0.1,0.1,0.3,0.2,0.4,0.3c0.1,0.1,0.2,0.2,0.3,0.4l0,0c0.4,0.4,0.7,0.9,0.8,1.5c0.1,0.8,0.1,1.5,0.1,2.2c0,0.7,0,1.3,0,1.9v1.5
		c0,0.2,0,0.3,0,0.3l-0.1,2.3c-0.8,1.1-1.7,2-2.9,2.9l-0.4-0.4c-0.1,0-0.1,0.1-0.1,0.1l-0.2-4.1c0-0.1,0-0.3,0-0.5l-0.1-3.2v-0.2
		c0-0.1,0-0.2,0-0.3c0,0,0,0,0,0c0,0,0,0,0-0.1v-0.1c0,0,0-0.1,0-0.2c0-0.1,0-0.1-0.1-0.2c-0.1,0-0.1,0-0.2-0.1
		c-0.1,0-0.1,0-0.2-0.1h-4l0.2,0.2v6.1c-0.4,0.5-0.8,1-1.4,1.5c-0.5,0.5-1.1,1-1.7,1.6l-0.4-0.4c-0.1,0-0.1,0.1-0.1,0.1v-6
		c0.7-1,1.6-2,2.8-3.1h-4.2l-0.4-0.4h-0.2c0.2-0.4,0.4-0.8,0.6-1c0.1-0.3,0.3-0.6,0.4-0.9c0,0,0.1-0.1,0.1-0.2c0-0.1,0-0.1,0.1-0.2
		c0.1-0.1,0.1-0.3,0.2-0.4c0-0.1,0.1-0.2,0.1-0.4c0.1-0.2,0.2-0.4,0.2-0.5c0.1-0.2,0.1-0.3,0.2-0.5l0,0c0.3-0.5,0.5-1,0.7-1.4
		c0.1-0.2,0.2-0.5,0.4-0.8s0.3-0.5,0.4-0.8c0.2-0.3,0.4-0.6,0.6-0.9c0.2-0.3,0.5-0.7,0.9-1.1v0.3l0.4,0.4
		C-412.7,9-412.7,9.3-412.6,9.6L-412.6,9.6L-412.6,9.6z M-407.6,21.8c0,0.3,0,0.5,0,0.5l0.1,3.5c1-0.8,1.8-1.6,2.4-2.5l0.1-2.2
		c0,0,0-0.2,0-0.3v-1.5c0-1.2-0.1-2.5-0.2-4c-0.2-0.7-0.5-1.2-0.9-1.6c-0.5-0.4-1-0.6-1.7-0.7l-5.5,0c0-0.1,0-0.4-0.1-0.8
		c0-0.4-0.1-0.8-0.1-1.2c0-0.4-0.1-0.8-0.1-1.2c0-0.4,0-0.7,0-0.8c-0.3,0.3-0.5,0.7-0.7,1c-0.2,0.3-0.4,0.7-0.6,1
		c-0.2,0.3-0.3,0.7-0.5,1c-0.2,0.4-0.3,0.7-0.5,1.1c-0.1,0.2-0.2,0.4-0.4,0.7c-0.1,0.3-0.3,0.7-0.4,1c-0.2,0.3-0.3,0.7-0.5,1
		s-0.3,0.6-0.4,0.7h8.4c0.4,0.1,0.7,0.2,0.9,0.4c0.2,0.2,0.3,0.5,0.4,0.8c0,0.2,0,0.3,0,0.5c0,0.1,0,0.2,0,0.3L-407.6,21.8
		L-407.6,21.8L-407.6,21.8z M-412.9,21.1v-3.4c-1,1-1.9,1.9-2.6,2.9v5.2c0.5-0.4,1-0.8,1.4-1.3s0.8-0.9,1.2-1.4L-412.9,21.1
		L-412.9,21.1L-412.9,21.1z"/>
	<path class="st0" d="M-395.3,15C-395.3,15-395.3,15-395.3,15c-0.1-0.1-0.2-0.2-0.3-0.4c-0.8,0.2-1.5,0.5-2.2,0.8s-1.3,0.7-1.9,1
		c0,0.3-0.1,0.6-0.1,0.8c0,0.3-0.1,0.5-0.1,0.8c0,0.3,0,0.6,0,0.9c0,0.3,0,0.7,0,1.1h0.4v0.1h0.8l-0.1-0.1h4.3c0,0-0.1,0-0.2,0h0
		l-0.1,0h1.6l0.1,0.2l0.9,1.7c0,0,0,0.1,0.1,0.1v0c0,0,0,0.1,0,0.1s0,0.1,0.1,0.3l0,0l1,1.8h-10.5l-0.1-0.1
		c-0.1-0.2-0.1-0.3-0.2-0.4c-0.1-0.1-0.1-0.3-0.3-0.6c-0.3-0.6-0.5-1-0.6-1.4c-0.1-0.4-0.2-0.7-0.3-1.1c-0.1-1.4-0.1-2.4-0.1-3
		c0-1.3,0.1-2.5,0.4-3.5c2.2-1.9,4.5-3.1,6.7-3.6c0.6,0.4,1.2,0.9,1.7,1.4l0.2,0.3c-0.4-0.4-0.9-0.8-1.4-1.2
		c-2.2,0.5-4.5,1.8-6.7,3.6c-0.2,1.1-0.4,2.3-0.4,3.5c0,0.7,0.1,1.7,0.1,3c0.1,0.4,0.2,0.8,0.3,1.1c0.1,0.4,0.3,0.8,0.6,1.4
		c0,0.1,0.1,0.2,0.1,0.3c0,0.1,0.1,0.1,0.1,0.2h10.2l-0.8-1.5l-0.1-0.1l0,0v0c-0.1-0.1-0.1-0.2-0.1-0.3c0,0,0-0.1,0-0.1l-0.1-0.1
		l-0.7-1.5h-6.5v0.2l-0.8-0.8h0.2c0-0.4,0-0.8,0-1.1c0-0.3,0-0.7,0-1c0-0.2,0-0.5,0.1-0.8c0-0.2,0.1-0.5,0.1-0.8l-0.1-0.1l0.1-0.2
		l0.1,0c1.2-0.8,2.5-1.4,4-1.8c0,0,0,0,0,0c0,0,0,0,0,0l0.2,0l0.5,0.5c0,0-0.1,0-0.1,0c0,0,0,0-0.1,0h0c0.2,0.2,0.3,0.4,0.3,0.6
		c0,0.1,0,0.3,0,0.5s-0.1,0.4-0.1,0.5c-0.1,0.2-0.1,0.3-0.2,0.5c-0.1,0.1-0.2,0.2-0.4,0.2l-2.1,0.2l-0.7,2.3h2.1l1.1-0.2v0h0.2l0,0
		l0.1-0.2l0.1,0.1l0.6-0.3c0.3-0.2,0.5-0.3,0.8-0.5s0.4-0.3,0.6-0.5c0.6-0.5,0.8-1.2,0.8-2.1c-0.2-1-0.6-2-1.4-3.1
		c-0.1-0.2-0.3-0.3-0.4-0.4c-0.1-0.1-0.2-0.3-0.4-0.4l0.2,0.2c0.2,0.2,0.3,0.4,0.5,0.5c0.1,0.2,0.3,0.4,0.5,0.6
		c0.8,1,1.2,2.1,1.4,3.1c0,0.9-0.3,1.6-0.9,2.1c-0.2,0.2-0.4,0.3-0.6,0.5c-0.2,0.2-0.5,0.3-0.8,0.5l-0.7,0.4c0,0,0,0,0,0h1.2
		l0.1,0.2l0.4,0.3l0.9,1.9l0,0c0,0.1,0.1,0.1,0.1,0.1c0,0,0.1,0.1,0.1,0.3h0l0.9,1.7h-10.5l-0.4-0.4h-0.1c0,0,0-0.1-0.1-0.1
		c0,0,0-0.1,0-0.1c0-0.1-0.1-0.2-0.1-0.3c-0.1-0.1-0.1-0.3-0.2-0.5c-0.3-0.5-0.5-1-0.6-1.4s-0.2-0.8-0.3-1.2c-0.1-1.4-0.1-2.4-0.1-3
		c0-1.3,0.1-2.5,0.4-3.6c2.3-1.9,4.6-3.2,6.8-3.7c1,0.7,1.9,1.5,2.7,2.5c0.8,1,1.3,2.1,1.4,3.2c0,0.9-0.3,1.6-0.9,2.1
		c-0.2,0.2-0.4,0.4-0.6,0.5s-0.5,0.3-0.8,0.5l-0.6,0.3c0,0.1-0.1,0.1-0.3,0.1l-0.1,0.1l0-0.1l-1.1,0.2h-2.7l-0.1-0.1l0.9-2.8
		l2.1-0.2c0.1,0,0.2-0.1,0.4-0.2c0.1-0.1,0.2-0.3,0.2-0.5c0.1-0.2,0.1-0.3,0.1-0.5C-395.3,15.4-395.3,15.2-395.3,15L-395.3,15
		L-395.3,15L-395.3,15z M-395.1,19.3L-395.1,19.3C-395.1,19.3-395.1,19.3-395.1,19.3l0.9-0.4c0.3-0.2,0.5-0.3,0.7-0.5
		c0.2-0.2,0.4-0.3,0.6-0.5c0.5-0.5,0.8-1.1,0.8-1.8c-0.2-1-0.6-2-1.4-3c-0.8-1-1.6-1.8-2.5-2.4c-2.2,0.5-4.3,1.7-6.4,3.5
		c-0.1,0.5-0.2,1.1-0.3,1.6c-0.1,0.6-0.1,1.2-0.1,1.8s0,1.6,0.1,3c0.1,0.4,0.2,0.8,0.3,1.1s0.3,0.8,0.6,1.3c0.1,0.3,0.3,0.6,0.4,0.9
		h9.9l-0.7-1.3c0-0.1-0.1-0.2-0.1-0.2s-0.1-0.1-0.1-0.2l-0.9-1.8h-6.8c0-0.5,0-0.9,0-1.2c0-0.4,0-0.7,0-1c0-0.6,0.1-1.2,0.2-1.8
		c1.3-0.9,2.8-1.6,4.4-2c0.3,0.3,0.5,0.6,0.5,0.9c0,0.2,0,0.3-0.1,0.5c0,0.2-0.1,0.4-0.2,0.6c-0.1,0.2-0.2,0.4-0.3,0.5
		c-0.1,0.1-0.3,0.2-0.4,0.2l-1.9,0.2l-0.7,2.3h2.3L-395.1,19.3L-395.1,19.3L-395.1,19.3z M-399.4,18.5c0,0.2,0,0.4,0,0.7
		c0,0.2,0,0.5,0,0.8h0.7l-0.2-0.2h-0.2l0.9-3l2.1-0.2c0.1,0,0.2-0.1,0.3-0.2c0.1-0.1,0.2-0.3,0.2-0.4c0.1-0.2,0.1-0.3,0.1-0.5
		s0-0.3,0-0.5v0c-1.5,0.4-2.7,1-3.9,1.8c-0.1,0.3-0.1,0.6-0.1,0.8S-399.4,18.3-399.4,18.5L-399.4,18.5L-399.4,18.5z"/>
	<path class="st0" d="M-389.2,12.1c0,0,0-0.1,0.1-0.1c0,0,0-0.1,0.1-0.1c0,0,0-0.1,0.1-0.1c0,0,0-0.1,0.1-0.1l0,0
		c0-0.1,0.1-0.2,0.2-0.3c0.1-0.1,0.1-0.3,0.2-0.4c0.1-0.2,0.2-0.4,0.3-0.6c0.1-0.2,0.2-0.4,0.3-0.6c0.4,0.4,0.8,0.9,1.2,1.5
		s0.9,1.1,1.3,1.5c0.4,0.4,0.8,0.8,1.2,1.2c0.4,0.4,0.8,0.8,1.2,1.1l1,1c0.1,0.1,0.3,0.2,0.5,0.4c0.2,0.2,0.6,0.4,0.9,0.7
		c0.3-0.5,0.5-1,0.5-1.6c0-0.1,0-0.2,0-0.2c0-0.1,0-0.2,0-0.3h-1.6l-0.4-0.4h-0.2l1.5-4h5.1l-0.1,0.2l0.5,0.4l-1,2.1
		c0,0,0,0.1,0,0.3v0.4c0,0.8-0.1,1.6-0.3,2.5s-0.6,1.8-1.1,2.8c0,0,0,0,0,0h0l0.2,0.2c0.2,0.2,0.4,0.3,0.7,0.5s0.6,0.4,1.1,0.7
		l0,0.1l0.4,0.5c-0.3,0.6-0.6,1.2-1,1.8c-0.4,0.6-0.8,1.2-1.3,1.9c-0.5-0.4-1-0.8-1.5-1.1c-0.5-0.4-1-0.8-1.5-1.2
		c-0.6-0.5-1.3-1.1-1.9-1.7c-0.6-0.6-1.3-1.2-1.9-1.8c-0.1,0.2-0.1,0.4-0.1,0.7v0.5c0,0.1,0,0.2,0,0.3c0.1,0.1,0.2,0.1,0.3,0.2
		l-0.1,0.1l0.5,0.5c-0.4,0.5-0.8,1-1.1,1.5c-0.4,0.5-0.7,1-1,1.5l-0.5,0.8c0,0-0.1-0.1-0.1-0.1s-0.1-0.1-0.1-0.1l-0.2-0.2l0,0.1
		c-0.4-0.3-0.7-0.7-1-1.1s-0.5-0.8-0.7-1.2c-0.2-0.3-0.3-0.8-0.3-1.3s0.1-1.3,0.3-2.2c0.2-0.8,0.6-1.7,1.2-2.6
		c-0.3-0.3-0.6-0.6-0.8-0.8s-0.4-0.5-0.6-0.7c-0.2-0.2-0.4-0.4-0.6-0.6c-0.2-0.2-0.4-0.4-0.5-0.7c0,0,0-0.1,0.1-0.1
		c0,0,0.1-0.1,0.1-0.1l0-0.1c0,0,0-0.1,0.1-0.1c0,0,0-0.1,0-0.1c0.1-0.2,0.1-0.3,0.1-0.3c0.1-0.1,0.1-0.3,0.2-0.4
		C-389.3,12.4-389.3,12.3-389.2,12.1L-389.2,12.1L-389.2,12.1L-389.2,12.1z M-389.3,13c-0.1,0.2-0.1,0.3-0.2,0.4s-0.1,0.2-0.1,0.3
		c0.2,0.2,0.4,0.5,0.6,0.7c0.2,0.2,0.4,0.4,0.6,0.6c0.2,0.2,0.4,0.4,0.6,0.7c0.2,0.2,0.5,0.5,0.8,0.8c-0.4,0.5-0.6,0.9-0.8,1.3
		c-0.2,0.4-0.4,0.9-0.5,1.3c-0.1,0.4-0.2,0.8-0.2,1.2c0,0.4-0.1,0.7-0.1,1c0,0.5,0.1,0.9,0.2,1.2c0.2,0.4,0.4,0.7,0.6,1
		c0.2,0.3,0.5,0.6,0.7,0.8l0.3-0.6c0.7-1,1.3-1.9,2-2.8c-0.3-0.2-0.5-0.4-0.5-0.6c-0.1-0.2-0.1-0.5-0.1-1s0.1-0.8,0.4-1.2
		c1.1,1.1,2.2,2.1,3.3,3.1c1.1,1,2.3,1.9,3.4,2.7c0.4-0.6,0.8-1.1,1.2-1.7c0.3-0.5,0.6-1.1,0.9-1.6c-0.2-0.2-0.4-0.3-0.6-0.4
		c-0.2-0.1-0.4-0.3-0.6-0.4s-0.4-0.3-0.6-0.5s-0.4-0.3-0.7-0.5c0.6-1,1-1.9,1.2-2.9c0.2-1,0.3-1.8,0.3-2.6v-0.4c0-0.2,0-0.3,0-0.3
		l0.9-1.8h-4.4l-1.2,3.3h1.9c0.1,0.2,0.1,0.4,0.2,0.6c0,0.2,0,0.5,0,0.7c0,0.4-0.1,0.8-0.2,1.1s-0.3,0.6-0.6,1
		c-0.5-0.4-0.8-0.7-1.1-0.9c-0.2-0.2-0.4-0.3-0.6-0.5l-1-1c-0.4-0.4-0.8-0.8-1.2-1.1s-0.8-0.8-1.2-1.2c-0.8-0.9-1.6-1.7-2.2-2.6
		c-0.2,0.4-0.4,0.7-0.6,1c-0.2,0.3-0.3,0.6-0.4,0.8C-388.9,12.5-389.1,12.7-389.3,13L-389.3,13L-389.3,13z M-387.6,16.3
		c0.1,0,0.1,0.1,0.2,0.2l-0.4-0.4c0,0,0.1,0.1,0.1,0.1C-387.8,16.2-387.7,16.3-387.6,16.3L-387.6,16.3z"/>
	<path class="st0" d="M-177.2,22v-3.4c0-0.5,0-1,0-1.5c0-0.5-0.1-1.1-0.1-1.7c0-0.1,0-0.2,0-0.3c0-0.1,0-0.2,0-0.2v0
		c0-0.1-0.1-0.2-0.1-0.3s-0.1-0.2-0.1-0.2c0,0,0,0,0-0.1c0,0,0,0,0-0.1c-0.2-0.3-0.5-0.5-0.8-0.8c-0.3-0.2-0.5-0.5-0.8-0.7
		c-0.1-0.1-0.2-0.1-0.3-0.2c-0.1-0.1-0.2-0.1-0.3-0.2l-0.2-0.2c-0.1,0-0.1-0.1-0.2-0.1c0,0-0.1-0.1-0.2-0.1c0.4-0.8,0.9-1.5,1.3-2.2
		c0.4-0.7,0.9-1.3,1.5-2c1,0.8,1.9,1.8,2.7,2.8c0.3,0.3,0.5,0.6,0.8,1c0.2,0.3,0.5,0.7,0.7,1c0.1,1.2,0.1,2.5,0.1,3.8
		c0,0.9,0,1.7-0.1,2.6l-0.2,4.6c-0.3,0.6-0.8,1.1-1.2,1.7c-0.5,0.6-1.1,1.2-1.7,1.9l-0.5-0.4c0,0-0.1,0.1-0.1,0.1l0-4.2L-177.2,22
		L-177.2,22L-177.2,22L-177.2,22z M-176.9,22.7l0,3.4c0.5-0.5,0.9-1,1.3-1.5c0.4-0.5,0.8-1.1,1.1-1.6l0.2-4.5c0-0.9,0.1-1.7,0.1-2.6
		c0-1.3,0-2.6-0.1-3.8c-0.5-0.8-1-1.5-1.6-2.1s-1.2-1.2-1.9-1.8c-0.4,0.5-0.8,1.1-1.2,1.7s-0.8,1.2-1.1,2c1,0.6,1.9,1.4,2.6,2.3
		c0.1,0.1,0.1,0.2,0.2,0.3s0.1,0.2,0.1,0.3c0,0.1,0.1,0.2,0.1,0.3c0,0.1,0,0.3,0,0.5c0.1,0.6,0.1,1.1,0.1,1.7c0,0.5,0,1,0,1.5v3.1
		c0,0.2,0,0.3,0,0.4L-176.9,22.7L-176.9,22.7L-176.9,22.7z"/>
	<path class="st0" d="M-169.2,19.7c0-0.1,0-0.3,0-0.5c0-0.2,0-0.5,0-0.8c0-0.5,0-0.9-0.1-1.2s-0.1-0.6-0.3-0.8
		c-0.2-0.2-0.4-0.4-0.6-0.6s-0.4-0.4-0.7-0.6c-0.2-0.2-0.4-0.3-0.6-0.5s-0.4-0.3-0.6-0.5l-0.3-0.3c-0.1-0.1-0.2-0.1-0.3-0.2
		c0.4-0.4,0.7-0.7,1-1c0.3-0.3,0.5-0.6,0.7-0.9c0.2-0.3,0.4-0.6,0.5-1c0.2-0.3,0.4-0.7,0.6-1.2c0.7,0.5,1.3,1,1.8,1.6s1,1.1,1.5,1.7
		c0.1,0.1,0.2,0.2,0.2,0.3s0.1,0.2,0.2,0.3c0.4,0.7,0.6,1.7,0.6,3v1.3l0,3.6c-0.6,1.3-1.7,2.6-3.1,4l-0.5-0.4l-0.1,0.1L-169.2,19.7
		L-169.2,19.7L-169.2,19.7z M-168.9,20.2v4.1c1.1-1,2-2.2,2.6-3.5l0-3.5V16c0-1.2-0.2-2.2-0.6-2.9c-0.5-0.6-0.9-1.1-1.4-1.6
		c-0.5-0.5-1-0.9-1.5-1.4c-0.2,0.4-0.4,0.7-0.5,1c-0.2,0.3-0.3,0.6-0.5,0.9s-0.4,0.5-0.6,0.8s-0.5,0.5-0.8,0.8
		c1.2,0.8,2.2,1.6,2.9,2.5c0.1,0.3,0.2,0.6,0.3,0.9s0.1,0.8,0.1,1.3c0,0.3,0,0.5,0,0.7c0,0.2,0,0.4,0,0.5L-168.9,20.2L-168.9,20.2
		L-168.9,20.2z"/>
	<path class="st0" d="M-163.9,12.1c0,0,0-0.1,0.1-0.1c0,0,0-0.1,0.1-0.1c0,0,0-0.1,0.1-0.1c0,0,0-0.1,0.1-0.1l0,0
		c0-0.1,0.1-0.2,0.2-0.3c0.1-0.1,0.1-0.3,0.2-0.4c0.1-0.2,0.2-0.4,0.3-0.6c0.1-0.2,0.2-0.4,0.3-0.6c0.4,0.4,0.8,0.9,1.2,1.5
		c0.5,0.6,0.9,1.1,1.3,1.5c0.4,0.4,0.8,0.8,1.2,1.2c0.4,0.4,0.8,0.8,1.2,1.1l1,1c0.1,0.1,0.3,0.2,0.5,0.4c0.2,0.2,0.6,0.4,1,0.7
		c0.3-0.5,0.5-1,0.5-1.6c0-0.1,0-0.2,0-0.2c0-0.1,0-0.2,0-0.3h-1.6l-0.4-0.4h-0.2l1.5-4h5.1l-0.1,0.2l0.5,0.4l-1,2.1
		c0,0,0,0.1,0,0.3v0.4c0,0.8-0.1,1.6-0.3,2.5s-0.6,1.8-1.1,2.8c0,0,0,0,0,0h0l0.2,0.2c0.2,0.2,0.4,0.3,0.7,0.5s0.6,0.4,1.1,0.7
		l0,0.1l0.5,0.5c-0.3,0.6-0.6,1.2-1,1.8c-0.4,0.6-0.8,1.2-1.3,1.9c-0.5-0.4-1-0.8-1.5-1.1c-0.5-0.4-1-0.8-1.5-1.2
		c-0.6-0.5-1.3-1.1-1.9-1.7c-0.6-0.6-1.3-1.2-1.9-1.8c-0.1,0.2-0.1,0.4-0.1,0.7v0.5c0,0.1,0,0.2,0,0.3c0.1,0.1,0.2,0.1,0.3,0.2
		l-0.1,0.1l0.5,0.5c-0.4,0.5-0.8,1-1.1,1.5s-0.7,1-1,1.5l-0.5,0.8c0,0-0.1-0.1-0.1-0.1s-0.1-0.1-0.1-0.1l-0.2-0.2l0,0.1
		c-0.4-0.3-0.7-0.7-1-1.1s-0.5-0.8-0.7-1.2c-0.2-0.3-0.3-0.8-0.3-1.3s0.1-1.3,0.3-2.2c0.2-0.8,0.6-1.7,1.2-2.6
		c-0.3-0.3-0.6-0.6-0.8-0.8s-0.4-0.5-0.6-0.7c-0.2-0.2-0.4-0.4-0.5-0.6c-0.2-0.2-0.4-0.4-0.5-0.7c0,0,0-0.1,0-0.1
		c0,0,0.1-0.1,0.1-0.1l0-0.1c0,0,0-0.1,0-0.1c0,0,0-0.1,0-0.1c0.1-0.2,0.1-0.3,0.1-0.3c0.1-0.1,0.1-0.3,0.2-0.4
		C-164,12.4-163.9,12.3-163.9,12.1L-163.9,12.1L-163.9,12.1L-163.9,12.1z M-164,13c-0.1,0.2-0.1,0.3-0.2,0.4c0,0.1-0.1,0.2-0.1,0.3
		c0.2,0.2,0.4,0.5,0.6,0.7s0.4,0.4,0.5,0.6c0.2,0.2,0.4,0.4,0.6,0.7c0.2,0.2,0.5,0.5,0.8,0.8c-0.4,0.5-0.6,0.9-0.8,1.3
		s-0.4,0.9-0.5,1.3s-0.2,0.8-0.2,1.2c0,0.4-0.1,0.7-0.1,1c0,0.5,0.1,0.9,0.2,1.2c0.2,0.4,0.4,0.7,0.6,1c0.2,0.3,0.5,0.6,0.7,0.8
		l0.4-0.6c0.6-1,1.3-1.9,2-2.8c-0.3-0.2-0.5-0.4-0.5-0.6c0-0.2-0.1-0.5-0.1-1s0.1-0.8,0.4-1.2c1.1,1.1,2.2,2.1,3.3,3.1
		s2.3,1.9,3.4,2.7c0.4-0.6,0.8-1.1,1.2-1.7s0.6-1.1,0.9-1.6c-0.2-0.2-0.5-0.3-0.6-0.4c-0.2-0.1-0.4-0.3-0.6-0.4s-0.4-0.3-0.6-0.5
		s-0.4-0.3-0.7-0.5c0.6-1,1-1.9,1.2-2.9c0.2-1,0.3-1.8,0.3-2.6v-0.4c0-0.2,0-0.3,0-0.3l0.9-1.8h-4.4l-1.2,3.3h1.9
		c0.1,0.2,0.1,0.4,0.1,0.6s0,0.5,0,0.7c0,0.4-0.1,0.8-0.2,1.1s-0.3,0.6-0.6,1c-0.5-0.4-0.8-0.7-1.1-0.9c-0.2-0.2-0.4-0.3-0.6-0.5
		l-1-1c-0.4-0.4-0.8-0.8-1.2-1.1c-0.4-0.4-0.8-0.8-1.2-1.2c-0.8-0.9-1.5-1.7-2.2-2.6c-0.2,0.4-0.4,0.7-0.6,1
		c-0.2,0.3-0.3,0.6-0.5,0.8C-163.6,12.5-163.8,12.7-164,13L-164,13L-164,13z M-162.3,16.3c0.1,0,0.1,0.1,0.2,0.2l-0.4-0.4
		c0,0,0,0.1,0.1,0.1C-162.5,16.2-162.4,16.3-162.3,16.3L-162.3,16.3z"/>
	<path class="st0" d="M-137.8,9.9l0.5,0.4l-1.9,4.1l-4,0c-0.2,0-0.4,0-0.6,0c-0.2,0-0.3,0-0.5,0c-0.3,0-0.5,0.2-0.6,0.5
		c0,0.2-0.1,0.4-0.1,0.6s0,0.5-0.1,0.8c0,0,0,0.1,0,0.1c0,0,0,0.1,0,0.1c0.1,0.6,0.3,1,0.5,1.4c0.2,0.2,0.4,0.2,0.7,0.2h3.2
		c0,0,0-0.1,0-0.2h-2l-0.4-0.4h-0.2l0.9-3h5.2l-0.1,0.2l0.5,0.4l-1,1.6v1.3c0,0.2,0,0.3,0,0.5l0.2,0.2c-0.8,2.3-2.1,4.5-3.8,6.4
		l-0.5-0.4c-0.1,0.1-0.1,0.1-0.1,0.2c0-0.4,0-0.8,0-1.2s0-0.6-0.1-0.9h-2.3c-0.3,0-0.5-0.1-0.8-0.2s-0.6-0.2-0.9-0.2
		c-0.3-0.2-0.6-0.4-0.9-0.6c-0.2-0.2-0.5-0.4-0.7-0.7c-0.9-1.3-1.4-2.7-1.4-4.1c0-2,0.9-4.5,2.8-7.3h8.7L-137.8,9.9L-137.8,9.9
		L-137.8,9.9z M-138.3,10.1h-8c-1.7,2.7-2.6,5.1-2.6,7c0,1.4,0.4,2.6,1.2,3.8c0.4,0.4,0.7,0.7,1.1,0.9c0.5,0.2,1,0.3,1.5,0.3h3
		c0.2,0.5,0.3,1.2,0.3,1.9c1.4-1.7,2.5-3.5,3.2-5.5h-0.2c0-0.2,0.1-0.5,0.1-0.7c0-0.3,0-0.5,0-0.8v-0.4c0-0.2,0-0.3,0-0.3l0.8-1.3
		h-4.4l-0.7,2.3h2.3c0.1,0.4,0.2,0.7,0.2,1v0.2h-3.5c-1,0-1.6-0.8-1.9-2.5c0-0.4,0.1-0.7,0.1-1c0-0.3,0.1-0.5,0.1-0.7
		c0.1-0.4,0.4-0.6,0.8-0.6c0.1,0,0.3,0,0.5,0c0.2,0,0.4,0,0.6,0l3.8,0L-138.3,10.1L-138.3,10.1L-138.3,10.1z"/>
	<path class="st0" d="M-131.9,18.4c0,0.2,0.1,0.4,0.1,0.5c0.1,0,0.2,0.1,0.3,0.1h3.2c-0.2-0.8-0.4-1.6-0.6-2.4s-0.2-1.6-0.3-2.4
		c0.2-0.6,0.4-1.2,0.6-1.8c0.2-0.6,0.5-1.2,0.9-1.9h6.1l-0.1,0.2l0.5,0.4l-0.5,1c0,0.1,0,0.2-0.1,0.2s-0.1,0.1-0.1,0.2l-0.1,0.2
		l-1,2.5h-2.3c0.1,0.6,0.2,1.2,0.4,1.8s0.4,1.3,0.6,2h2.1c0,0.1,0,0.1,0,0.2l0.5,0.4c-0.3,1-0.8,1.9-1.3,3c-0.6,1-1.3,2.1-2.2,3.2
		l-0.5-0.4c0,0-0.1,0.1-0.1,0.1c-0.1-0.3-0.2-0.6-0.3-0.9s-0.2-0.6-0.3-0.8l-5.9,0c0,0-0.1,0-0.2,0h-0.3c-0.1,0-0.2,0-0.3,0
		c-0.1,0-0.1,0-0.2,0h0c-0.4-0.1-0.7-0.2-0.9-0.5l-0.1-0.1c-0.2-0.1-0.4-0.3-0.5-0.5c-0.1-0.2-0.2-0.3-0.4-0.5s-0.2-0.4-0.2-0.6
		c-0.1-0.2-0.1-0.4-0.1-0.6c0-0.2,0-0.4,0-0.6c0-0.1,0-0.2,0-0.2c0-0.1,0-0.2,0-0.2c0,0,0-0.1,0-0.2s0-0.1,0-0.1s0-0.1,0-0.1
		c0,0,0,0,0-0.1v-0.1l-0.3-5.5c0.6-1.5,1.6-3,3.1-4.4v0.2l0.4,0.4c0,0.2,0,0.3,0,0.6c0,0.2,0,0.5,0,0.8s0,0.6,0,0.9
		c0,0.3,0,0.6,0.1,0.9l0.3,4.2c0,0.1,0,0.2,0,0.3c0,0.1,0,0.2,0,0.3c0,0.1,0,0.1,0,0.2C-132,18.2-131.9,18.3-131.9,18.4L-131.9,18.4
		L-131.9,18.4z M-122.5,11.8c0.1-0.1,0.1-0.2,0.1-0.2l0.3-0.7h-5.4c-0.3,0.6-0.5,1.1-0.8,1.7s-0.4,1.1-0.6,1.7c0.1,1.7,0.5,3.3,1,5
		h-3.7c-0.4,0-0.6-0.2-0.8-0.4c-0.2-0.2-0.3-0.5-0.4-0.9c0-0.2-0.1-0.4-0.1-0.6c0-0.2,0-0.4-0.1-0.6l-0.3-4.2c0-0.6-0.1-1.1-0.1-1.5
		s0-0.8-0.1-1.2c-1.2,1.1-2,2.3-2.5,3.7l0.3,5.4c0,0.1,0,0.3,0,0.5s0,0.4,0.1,0.6c0,0.2,0,0.4,0.1,0.6c0,0.2,0.1,0.4,0.1,0.6
		c0.1,0.3,0.3,0.7,0.5,1c0.2,0.2,0.5,0.4,0.9,0.5c0.1,0,0.2,0,0.2,0c0.1,0,0.2,0,0.2,0h0.3c0.1,0,0.2,0,0.2,0l6.4,0
		c0.1,0.3,0.3,0.6,0.4,0.9c0.1,0.3,0.2,0.6,0.4,1c1.6-1.9,2.6-3.7,3.1-5.4h-2.1c-0.3-0.9-0.6-1.7-0.8-2.5c-0.2-0.8-0.4-1.6-0.5-2.4
		h2.4l1-2.3L-122.5,11.8L-122.5,11.8L-122.5,11.8z M-134.8,22.6c0,0,0,0.1,0.1,0.1L-134.8,22.6z"/>
	<path class="st0" d="M-107.2,18.9c0,0.3,0.1,0.6,0.2,0.8c0.1,0.1,0.2,0.2,0.4,0.3c0.1,0.1,0.3,0.3,0.5,0.4l0,0l0.5,0.5l-1.5,1.8
		c0,0.1-0.1,0.1-0.1,0.2s-0.1,0.1-0.1,0.2l0,0l-1.7,2.1l-0.5-0.4l-0.1,0.1c-0.4-1-0.7-2-1-2.9c-0.3-0.9-0.5-1.8-0.6-2.6l-0.7-4.3
		c0-0.2-0.1-0.5-0.1-0.7v0c-0.2,0-0.4-0.1-0.6-0.1c-1,0-2.1,0.5-3.1,1.5c-0.2,0.6-0.3,1.1-0.3,1.5c0,0.3,0.1,0.8,0.3,1.4h0
		c0,0,0,0.1,0,0.2c0.2,0.2,0.5,0.2,0.8,0.2c0.4,0,0.8-0.1,1.2-0.2c0.1,0,0.2-0.1,0.3-0.1c0.1,0,0.2-0.1,0.3-0.1
		c0.1,0,0.2-0.1,0.2-0.1s0.2-0.1,0.2-0.1c0,0,0.1-0.1,0.3-0.1c0.1,0,0.3-0.1,0.4-0.2c0,0,0.1-0.1,0.2-0.1s0.1,0,0.1-0.1v0.2l0.4,0.4
		c-0.1,1.6-0.5,3-1.1,4.1c-1,0.7-2.1,1-3.3,1s-2.1-0.3-2.7-1l0,0c-0.5-0.3-1-0.8-1.2-1.5c-0.4-0.8-0.5-1.7-0.5-2.6
		c0-1.6,0.5-3.3,1.6-5.3c0.6-1.2,1.6-2.1,2.8-2.8h0c0.6-0.3,1.2-0.6,1.9-0.8s1.3-0.3,2-0.3c0.8,0,1.4,0.2,1.8,0.6
		c0.1,0.1,0.2,0.2,0.3,0.3s0.1,0.2,0.2,0.3c0.4,0.3,0.6,0.7,0.8,1.2c0.1,0.2,0.2,0.5,0.2,0.9c0.1,0.3,0.2,0.7,0.2,1l0.2,0.8l0,0
		c0,0.1,0.1,0.3,0.1,0.5s0.1,0.4,0.1,0.5L-107.2,18.9L-107.2,18.9L-107.2,18.9z M-108.1,22.5c0,0,0.1-0.1,0.1-0.1
		c0-0.1,0.1-0.1,0.1-0.2l1.3-1.7c-0.5-0.4-0.8-0.7-1-0.9c-0.2-0.3-0.4-0.7-0.5-1.1l-0.8-3.1c0-0.2-0.1-0.4-0.1-0.6s-0.1-0.3-0.1-0.4
		l-0.2-0.8c-0.1-0.4-0.2-0.8-0.2-1.1c-0.1-0.3-0.1-0.6-0.2-0.8c-0.1-0.4-0.4-0.7-0.8-1.1c-0.4-0.3-0.9-0.5-1.6-0.5
		c-1.3,0-2.5,0.4-3.7,1c-1.2,0.6-2.1,1.5-2.7,2.6c-1.1,2-1.6,3.7-1.6,5.2c0,0.9,0.2,1.7,0.5,2.5c0.5,1.2,1.6,1.8,3.1,1.8
		c1.2,0,2.2-0.3,3.1-1c0.7-1.1,1-2.3,1.1-3.6c-0.3,0.1-0.6,0.3-0.9,0.4c-0.3,0.1-0.5,0.2-0.8,0.3c-0.4,0.2-0.9,0.2-1.3,0.2
		c-0.8,0-1.3-0.4-1.6-1.2c-0.2-0.7-0.3-1.2-0.3-1.5c0-0.4,0.1-1,0.4-1.7c1.1-1,2.2-1.5,3.4-1.5c0.3,0,0.5,0,0.8,0.1
		c0.2,0.1,0.4,0.2,0.5,0.2s0.1,0.3,0.2,0.5c0.1,0.2,0.1,0.4,0.1,0.6l0.7,4.3c0.2,1.6,0.7,3.2,1.4,4.9L-108.1,22.5L-108.1,22.5
		L-108.1,22.5z M-106.7,20C-106.7,20-106.7,20-106.7,20c0.1,0.1,0.1,0.1,0.1,0.1L-106.7,20L-106.7,20L-106.7,20z"/>
	<g>
		<path class="st1" d="M-193.6,7.2v-2h-169.9v2l-7.6,20.9c15.8,1.9,31.5,2.5,47.3,0c17.1-2.1,34-2.3,50.5,0
			c20.6,2.5,40.5,2.4,59.8,0c10.2-1.1,18.6-0.3,26.3,1.3L-193.6,7.2L-193.6,7.2z M-353.4,28.8c-2.8-1.7-6.8-2.4-12.7-1.5l16.5-18
			L-353.4,28.8L-353.4,28.8L-353.4,28.8z M-330.1,27.3c3.3-7.4,9-14.2,19-19.8c7.8,4.6,12.4,10.6,14.2,17.8
			C-300,23.7-324.2,26-330.1,27.3L-330.1,27.3z M-258.8,27.7c-2.6-1.9-19.7-4-25.8-3.5c5.2-6.9,6.2-9.2,17.5-13.4
			C-260.7,16.3-258.6,20.3-258.8,27.7L-258.8,27.7L-258.8,27.7z M-225.8,25.9c3.3-7.4-3-12.4,6.9-18c7.9,4.6,23.5,10.8,25.2,18
			C-196.6,24.3-219.9,24.6-225.8,25.9L-225.8,25.9z"/>
		<path class="st2" d="M-353.4,28.8l3.8-19.5l-16.5,18C-360.2,26.4-356.1,27.1-353.4,28.8L-353.4,28.8L-353.4,28.8z"/>
		<path class="st2" d="M-311.1,7.5c-9.9,5.6-15.7,12.4-19,19.8c5.9-1.3,30.1-3.6,33.1-2C-298.7,18.1-303.3,12.1-311.1,7.5
			L-311.1,7.5z"/>
		<path class="st2" d="M-267.2,10.8c-11.3,4.2-12.2,6.5-17.5,13.4c6.1-0.5,23.3,1.6,25.8,3.5C-258.6,20.4-260.7,16.3-267.2,10.8
			L-267.2,10.8L-267.2,10.8z"/>
		<path class="st2" d="M-218.8,7.9c-9.9,5.6-3.6,10.5-6.9,18c5.9-1.3,29.2-1.6,32.2,0C-195.3,18.7-211,12.5-218.8,7.9
			C-218.8,7.9-218.8,7.9-218.8,7.9z"/>
	</g>
	<path class="st3" d="M-212.2,17.5c0.1,0,0.1,0.1,0.2,0.2l-0.3-0.3C-212.3,17.4-212.3,17.5-212.2,17.5L-212.2,17.5L-212.2,17.5z"/>
	<path class="st0" d="M-226.2,17.5C-226.2,17.5-226.2,17.5-226.2,17.5L-226.2,17.5L-226.2,17.5L-226.2,17.5L-226.2,17.5z"/>
	<path class="st0" d="M-224.5,17.6l-0.2-0.2v0.2H-224.5z"/>
	<path class="st0" d="M-212.5,17.4l0.1,0.1c0,0,0,0,0,0C-212.4,17.5-212.4,17.5-212.5,17.4z"/>
</g>
<path class="st2" d="M97.9-188.1v32h93.7v-32H97.9z M112.6-164c-0.1,0.1-0.1,0.3-0.2,0.4c-0.1,0.1-0.2,0.3-0.2,0.4
	c-0.1,0.1-0.2,0.3-0.2,0.4c-0.1,0.2-0.3,0.4-0.4,0.6c-0.1,0.2-0.3,0.4-0.4,0.6c-0.1,0.2-0.3,0.4-0.4,0.5c-0.1,0.2-0.2,0.3-0.2,0.4
	l-0.5-0.4c0,0-0.1,0.1-0.1,0.1c-0.2-1.1-0.4-2.1-0.6-3c-0.2-0.9-0.5-1.7-0.8-2.4c-0.1-0.3-0.3-0.7-0.4-1c-0.1-0.4-0.3-0.7-0.4-1
	c-0.3,0.7-0.7,1.3-1.2,2c-0.5,0.6-1.1,1.3-1.8,2l-0.4-0.4h0l0,0c0,0-0.1,0.1-0.1,0.1v-5.5c0-0.1,0-0.3,0-0.5c0-0.2,0-0.5,0-0.8
	c0-0.5,0-0.9-0.1-1.2c0-0.3-0.1-0.6-0.2-0.8h0v0c0,0,0,0,0,0c-0.2-0.2-0.4-0.4-0.6-0.6c-0.2-0.2-0.4-0.4-0.7-0.6
	c-0.2-0.2-0.4-0.3-0.6-0.5c-0.2-0.2-0.4-0.3-0.6-0.5l-0.2-0.2c-0.1,0-0.1-0.1-0.2-0.2c-0.1,0-0.1-0.1-0.2-0.1
	c0.3-0.7,0.8-1.4,1.2-2.1c0.5-0.7,1-1.4,1.6-2.1c1.2,0.9,2.2,1.9,3.1,3.1c0.1,0.1,0.2,0.2,0.3,0.4c0.1,0.1,0.2,0.2,0.3,0.4
	c0.2,0.4,0.3,0.8,0.4,1.3s0.2,1,0.2,1.7c0,0,0.1,0,0.2,0c0.1,0,0.1,0,0.2,0h0.4c0.2-0.2,0.4-0.6,0.4-1c0,0,0-0.1,0-0.2c0,0,0,0,0,0
	c0,0,0,0,0-0.1v-0.1c0-0.1-0.1-0.2-0.1-0.3c-0.2-0.3-0.4-0.6-0.6-0.9c-0.2-0.3-0.3-0.5-0.4-0.6l3-3.9c0,0.1,0.1,0.2,0.1,0.2
	c0,0.1,0.1,0.1,0.1,0.2l0.2,0.2c0.7,1.1,1.1,2.2,1.3,3.2c0,0.3,0.1,0.5,0.1,0.8c0,0.5-0.1,1-0.2,1.4c-0.2,0.5-0.3,0.9-0.6,1.2
	c-0.2,0.4-0.5,0.7-0.8,1.1c-0.1,0.1-0.2,0.2-0.2,0.3c-0.1,0.1-0.2,0.2-0.2,0.3c-0.1,0.1-0.1,0.2-0.2,0.2s-0.1,0.1-0.2,0.2
	c0.5,1,1,2.1,1.5,3.4h0c0.2,0.6,0.5,1.3,0.6,1.9s0.3,1.2,0.5,1.9C112.7-164.2,112.7-164.1,112.6-164z M120.7-170.5l0,3.6
	c-0.6,1.3-1.7,2.6-3.1,4l-0.5-0.5l-0.1,0.1v-5.4c0-0.1,0-0.3,0-0.5c0-0.2,0-0.5,0-0.8c0-0.5,0-0.9-0.1-1.2s-0.1-0.6-0.3-0.9
	c-0.2-0.2-0.4-0.4-0.6-0.6c-0.2-0.2-0.4-0.4-0.7-0.6c-0.2-0.1-0.4-0.3-0.6-0.4c-0.2-0.2-0.4-0.3-0.7-0.5l-0.3-0.3
	c-0.1-0.1-0.2-0.1-0.3-0.2c0.4-0.4,0.7-0.7,1-1s0.5-0.6,0.7-0.9c0.2-0.3,0.4-0.6,0.5-1s0.4-0.7,0.6-1.2c0.7,0.5,1.3,1,1.8,1.6
	c0.5,0.5,1,1.1,1.5,1.7c0.1,0.1,0.2,0.2,0.2,0.3c0.1,0.1,0.1,0.2,0.2,0.3c0.4,0.7,0.6,1.7,0.6,3V-170.5z M132.5-172h-1.7v6
	c-0.3,0.6-0.8,1.2-1.3,1.8c-0.5,0.6-1.2,1.1-1.9,1.7l-0.5-0.5c0,0-0.1,0.1-0.1,0.1l0-4.3v-4.8h-5l-0.4-0.4h-0.2c0.6-2,1.9-4.2,4-6.5
	v0.2l0.4,0.4c0,0.3,0,0.6,0,0.9c0,0.3,0,0.5,0.1,0.7h2c0.3-0.3,0.7-0.6,1.1-1c0.4-0.3,0.9-0.7,1.4-1.1v0.2l0.4,0.4v1.4h2.8l-0.1,0.2
	l0.5,0.4L132.5-172z M138.2-163l-0.4-0.4h-0.1c-1.9-2.9-2.8-5.3-2.8-7.3h0l0,0c0-1.5,0.5-2.8,1.4-4.1c0.3-0.4,0.7-0.7,1.1-0.8
	c0.7-0.2,1.2-0.4,1.7-0.4h2.8c0.1-0.6,0.2-1.4,0.2-2.5c0.1,0.2,0.3,0.4,0.4,0.5c0.1,0.2,0.3,0.3,0.4,0.5c0.8,1,1.5,1.9,2.1,2.9
	c0.6,1,1.1,2.1,1.5,3.2h-5.8c-0.8,0-1.4,0.8-1.7,2.2c0,0,0,0.1,0,0.1c0,0,0,0.1,0,0.1c0,0.2,0,0.5,0.1,0.7c0,0.2,0,0.4,0.1,0.6
	c0,0,0.1,0,0.1,0c0.1,0,0.3,0,0.5,0c0.2,0,0.4,0,0.6,0l4,0l0.1,0.2l0.3,0.3l1.9,4.1H138.2z M161.1-167c0,0.2,0,0.3,0,0.3l-0.1,2.3
	c-0.8,1-1.7,2-2.9,2.9l-0.5-0.5c-0.1,0-0.1,0.1-0.1,0.1l-0.2-4.1c0-0.1,0-0.3,0-0.5l-0.1-3.2v-0.2c0-0.1,0-0.2,0-0.3c0,0,0,0,0,0
	c0,0,0,0,0-0.1v-0.1c0,0,0-0.1,0-0.2c0-0.1,0-0.1-0.1-0.2c0,0-0.1,0-0.2-0.1c-0.1,0-0.1,0-0.2-0.1h-3.9l0.2,0.2v6.1
	c-0.4,0.5-0.8,1-1.4,1.5s-1.1,1-1.7,1.6l-0.5-0.5c-0.1,0-0.1,0.1-0.1,0.1v-6c0.7-1,1.6-2,2.8-3.1h-4.2l-0.4-0.4h-0.2
	c0.2-0.4,0.4-0.8,0.6-1c0.1-0.3,0.3-0.6,0.4-0.9c0,0,0.1-0.1,0.1-0.2c0-0.1,0-0.1,0.1-0.2c0.1-0.1,0.1-0.3,0.2-0.4
	c0.1-0.1,0.1-0.2,0.2-0.4c0.1-0.2,0.2-0.4,0.2-0.5c0.1-0.1,0.2-0.3,0.2-0.5l0,0c0.3-0.5,0.5-1,0.7-1.4c0.1-0.2,0.2-0.5,0.4-0.8
	c0.1-0.2,0.3-0.5,0.4-0.8c0.2-0.3,0.4-0.6,0.6-0.9c0.2-0.3,0.5-0.7,0.9-1.1v0.3l0.4,0.4c0,0.2,0,0.4,0,0.7h0l0,0c0,0.3,0,0.7,0,1
	c0,0.4,0,0.8,0.1,1.1c0,0.4,0,0.7,0.1,1l4.8,0c0.4,0,0.7,0.1,1,0.2s0.6,0.3,0.9,0.5c0.1,0.1,0.3,0.2,0.4,0.4
	c0.1,0.1,0.2,0.2,0.3,0.4l0,0c0.4,0.4,0.7,0.9,0.8,1.5c0,0.8,0.1,1.5,0.1,2.2c0,0.7,0,1.3,0,1.9V-167z M164.1-163.6l-0.4-0.4h-0.1
	c0,0,0-0.1-0.1-0.1c0,0,0-0.1,0-0.1c0-0.1-0.1-0.2-0.1-0.3c0-0.1-0.1-0.3-0.2-0.5c-0.3-0.6-0.5-1-0.6-1.4c-0.1-0.4-0.2-0.8-0.3-1.2
	c-0.1-1.4-0.2-2.4-0.2-3c0-1.3,0.1-2.5,0.4-3.6c2.3-1.9,4.6-3.2,6.8-3.7c0.9,0.6,1.8,1.5,2.6,2.5c0,0,0,0,0.1,0.1
	c0.2,0.2,0.3,0.4,0.5,0.6c0.8,1.1,1.2,2.1,1.4,3.1c0,0.9-0.3,1.6-0.8,2.1c-0.2,0.2-0.4,0.3-0.6,0.5c-0.2,0.2-0.5,0.3-0.8,0.5
	l-0.7,0.4c0,0,0,0,0,0h0c0,0,0,0,0,0c0,0,0,0,0,0h1.2l0.1,0.2l0,0l0,0l0.3,0.3l0.9,1.9l0,0c0,0.1,0,0.1,0.1,0.1s0,0.1,0.1,0.3h0
	l0.9,1.7H164.1z M188.8-165.1c-0.4,0.6-0.8,1.2-1.3,1.9c-0.5-0.4-1-0.8-1.5-1.1c-0.5-0.4-1-0.8-1.5-1.2c-0.7-0.5-1.3-1.1-1.9-1.7
	c-0.6-0.6-1.3-1.2-1.9-1.8c-0.1,0.2-0.1,0.4-0.1,0.7v0.5c0,0.1,0,0.2,0,0.3c0.1,0.1,0.2,0.1,0.3,0.2l-0.1,0.1l0.5,0.5
	c-0.4,0.5-0.8,1-1.1,1.5c-0.4,0.5-0.7,1-1,1.5l-0.5,0.8c0,0-0.1-0.1-0.1-0.1c0,0-0.1,0-0.1-0.1l-0.2-0.2l0,0c-0.4-0.3-0.7-0.7-1-1.1
	c-0.3-0.4-0.5-0.8-0.7-1.1c-0.2-0.3-0.3-0.8-0.3-1.4c0-0.6,0.1-1.3,0.3-2.2c0.2-0.8,0.6-1.7,1.2-2.6c-0.3-0.3-0.6-0.6-0.8-0.8
	c-0.2-0.2-0.4-0.5-0.6-0.7c-0.2-0.2-0.4-0.4-0.6-0.6c-0.2-0.2-0.4-0.4-0.5-0.7c0,0,0-0.1,0-0.1c0,0,0.1-0.1,0.1-0.1l0-0.1
	c0,0,0-0.1,0.1-0.1c0,0,0-0.1,0-0.1c0.1-0.2,0.1-0.3,0.1-0.3c0.1-0.1,0.1-0.3,0.2-0.4c0.1-0.1,0.1-0.3,0.1-0.4l0,0h0l0,0
	c0,0,0-0.1,0.1-0.1c0,0,0-0.1,0.1-0.1c0,0,0-0.1,0.1-0.1c0,0,0-0.1,0.1-0.1l0,0c0-0.1,0.1-0.2,0.2-0.3c0.1-0.1,0.1-0.3,0.2-0.4
	c0.1-0.2,0.2-0.4,0.3-0.6c0.1-0.2,0.2-0.4,0.3-0.6c0.4,0.4,0.8,0.9,1.2,1.5c0.5,0.6,0.9,1.1,1.3,1.5c0.4,0.4,0.8,0.8,1.2,1.2
	c0.4,0.4,0.8,0.8,1.2,1.1l1,1c0.1,0.1,0.3,0.2,0.5,0.4c0.2,0.2,0.6,0.4,1,0.7c0.3-0.5,0.5-1,0.5-1.6c0-0.1,0-0.1,0-0.2
	c0-0.1,0-0.2,0-0.3h-1.6l-0.4-0.4h-0.2l1.5-4h5.1l-0.1,0.2l0.5,0.4l-1,2.1c0,0,0,0.1,0,0.3v0.4c0,0.8-0.1,1.6-0.3,2.5
	s-0.6,1.9-1.1,2.8c0,0,0,0,0,0h0l0.2,0.2c0.2,0.2,0.4,0.3,0.7,0.5c0.2,0.2,0.6,0.4,1.1,0.7l-0.1,0.1l0.5,0.5
	C189.5-166.3,189.2-165.7,188.8-165.1z"/>
<path class="st2" d="M363.6-283v32h79v-32H363.6z M371.7-264.2l-0.2,4.6c-0.3,0.6-0.8,1.1-1.2,1.7c-0.5,0.6-1.1,1.2-1.7,1.9
	l-0.5-0.5c0,0-0.1,0.1-0.1,0.1l0-4.2v-0.6l0-0.1h0l0,0v-3.4c0-0.5,0-1,0-1.5c0-0.5-0.1-1.1-0.1-1.6c0-0.1,0-0.2,0-0.3
	c0-0.1,0-0.2,0-0.2v0c0-0.1-0.1-0.2-0.1-0.3c-0.1-0.1-0.1-0.2-0.1-0.2c0,0,0,0,0-0.1c0,0,0,0,0-0.1c-0.2-0.3-0.5-0.5-0.8-0.8
	c-0.3-0.2-0.5-0.5-0.8-0.7c-0.1-0.1-0.2-0.1-0.3-0.2c-0.1-0.1-0.2-0.1-0.3-0.2l-0.2-0.2c-0.1,0-0.1-0.1-0.2-0.1c0,0-0.1-0.1-0.2-0.1
	c0.4-0.8,0.9-1.5,1.3-2.2c0.4-0.7,0.9-1.3,1.5-2c1,0.9,1.9,1.8,2.7,2.8c0.3,0.3,0.5,0.6,0.8,1c0.2,0.3,0.5,0.7,0.7,1
	c0.1,1.2,0.2,2.5,0.2,3.8C371.7-266,371.7-265.1,371.7-264.2z M379.7-265.5l0,3.6c-0.6,1.3-1.7,2.6-3.1,4l-0.5-0.5l-0.1,0.1v-5.4
	c0-0.1,0-0.3,0-0.5c0-0.2,0-0.5,0-0.8c0-0.5,0-0.9-0.1-1.2c0-0.3-0.1-0.6-0.3-0.9c-0.2-0.2-0.4-0.4-0.6-0.6
	c-0.2-0.2-0.4-0.4-0.7-0.6c-0.2-0.1-0.4-0.3-0.6-0.4c-0.2-0.2-0.4-0.3-0.7-0.5l-0.3-0.3c-0.1-0.1-0.2-0.1-0.3-0.2
	c0.4-0.4,0.7-0.7,1-1s0.5-0.6,0.7-0.9c0.2-0.3,0.4-0.6,0.5-1s0.4-0.7,0.6-1.2c0.7,0.5,1.3,1,1.8,1.6c0.5,0.5,1,1.1,1.5,1.7
	c0.1,0.1,0.2,0.2,0.2,0.3c0.1,0.1,0.1,0.2,0.2,0.3c0.4,0.7,0.6,1.7,0.6,3V-265.5z M394.1-260.1c-0.4,0.6-0.8,1.2-1.3,1.9
	c-0.5-0.4-1-0.8-1.5-1.1c-0.5-0.4-1-0.8-1.5-1.2c-0.7-0.5-1.3-1.1-1.9-1.7c-0.6-0.6-1.3-1.2-1.9-1.8c-0.1,0.2-0.1,0.4-0.1,0.7v0.5
	c0,0.1,0,0.2,0,0.3c0.1,0.1,0.2,0.1,0.3,0.2l-0.1,0.1l0.5,0.5c-0.4,0.5-0.8,1-1.1,1.5c-0.4,0.5-0.7,1-1,1.5L384-258
	c0,0-0.1-0.1-0.1-0.1c0,0-0.1,0-0.1-0.1l-0.2-0.2l0,0c-0.4-0.3-0.7-0.7-1-1.1c-0.3-0.4-0.5-0.8-0.7-1.1c-0.2-0.3-0.3-0.8-0.3-1.4
	c0-0.6,0.1-1.3,0.3-2.2c0.2-0.8,0.6-1.7,1.2-2.6c-0.3-0.3-0.6-0.6-0.8-0.8c-0.2-0.2-0.4-0.5-0.6-0.7c-0.2-0.2-0.4-0.4-0.5-0.6
	c-0.2-0.2-0.4-0.4-0.5-0.7c0,0,0-0.1,0-0.1c0,0,0.1-0.1,0.1-0.1l0-0.1c0,0,0-0.1,0-0.1c0,0,0-0.1,0-0.1c0.1-0.2,0.1-0.3,0.1-0.3
	c0.1-0.1,0.1-0.3,0.2-0.4c0.1-0.1,0.1-0.3,0.1-0.4l0,0h0l0,0c0,0,0-0.1,0.1-0.1c0,0,0-0.1,0.1-0.1c0,0,0-0.1,0.1-0.1
	c0,0,0-0.1,0.1-0.1l0,0c0-0.1,0.1-0.2,0.2-0.3c0.1-0.1,0.1-0.3,0.2-0.4c0.1-0.2,0.2-0.4,0.3-0.6c0.1-0.2,0.2-0.4,0.3-0.6
	c0.4,0.4,0.8,0.9,1.2,1.5c0.5,0.6,0.9,1.1,1.3,1.5c0.4,0.4,0.8,0.8,1.2,1.2c0.4,0.4,0.8,0.8,1.2,1.1l1,1c0.1,0.1,0.3,0.2,0.5,0.4
	c0.2,0.2,0.6,0.4,1,0.7c0.3-0.5,0.5-1,0.5-1.6c0-0.1,0-0.1,0-0.2c0-0.1,0-0.2,0-0.3h-1.6l-0.4-0.4h-0.2l1.5-4h5.1l-0.1,0.2l0.5,0.4
	l-1,2.1c0,0,0,0.1,0,0.3v0.4c0,0.8-0.1,1.6-0.3,2.5c-0.2,0.9-0.6,1.9-1.1,2.8c0,0,0,0,0,0h0l0.2,0.2c0.2,0.2,0.4,0.3,0.7,0.5
	s0.6,0.4,1.1,0.7l0,0.1l0.5,0.5C394.8-261.3,394.5-260.7,394.1-260.1z M407.5-264.5c-0.8,2.3-2.1,4.4-3.8,6.4l-0.5-0.5
	c-0.1,0.1-0.1,0.1-0.1,0.1c0-0.4,0-0.8,0-1.1c0-0.3,0-0.6-0.1-0.9h-2.3c-0.3,0-0.5-0.1-0.8-0.1c-0.3-0.1-0.6-0.2-0.9-0.2
	c-0.3-0.2-0.6-0.4-0.9-0.6c-0.2-0.2-0.5-0.4-0.7-0.7c-0.9-1.3-1.4-2.7-1.4-4.1c0-2,0.9-4.5,2.8-7.3h8.7l-0.1,0.2h0h0l0.5,0.4
	l-1.9,4.1l-4,0c-0.2,0-0.4,0-0.6,0c-0.2,0-0.3,0-0.5,0c-0.3,0-0.5,0.2-0.6,0.5c0,0.2-0.1,0.4-0.1,0.6c0,0.2,0,0.5-0.1,0.8
	c0,0.1,0,0.1,0,0.1c0,0,0,0.1,0,0.1c0.1,0.6,0.3,1,0.5,1.4c0.2,0.2,0.4,0.2,0.7,0.2h3.2c0,0,0-0.1,0-0.2h-2l-0.4-0.4h-0.2l0.9-3h5.2
	l-0.1,0.2l0.5,0.4l-1,1.6v1.3c0,0.2,0,0.3,0,0.5L407.5-264.5z M423.6-271.2c0,0.1,0,0.2-0.1,0.2c0,0-0.1,0.1-0.1,0.1l-0.1,0.2
	l-1,2.5H420c0.1,0.6,0.2,1.2,0.4,1.9c0.2,0.6,0.4,1.3,0.6,2h2.1c0,0.1,0,0.1,0,0.1l0.5,0.4c-0.3,1-0.8,1.9-1.3,3
	c-0.6,1-1.3,2.1-2.2,3.2l-0.5-0.5c0,0-0.1,0.1-0.1,0.1c-0.1-0.3-0.2-0.6-0.3-0.9c-0.1-0.3-0.2-0.6-0.3-0.8l-5.9,0c0,0-0.1,0-0.2,0
	h-0.3c-0.1,0-0.2,0-0.3,0c-0.1,0-0.1,0-0.2,0h0c-0.4-0.1-0.7-0.2-0.9-0.4l-0.2-0.1c-0.2-0.1-0.4-0.3-0.5-0.5
	c-0.1-0.2-0.2-0.3-0.3-0.5c-0.1-0.2-0.2-0.4-0.2-0.6c-0.1-0.2-0.1-0.4-0.1-0.6c0-0.2,0-0.4,0-0.6c0-0.1,0-0.2,0-0.2
	c0-0.1,0-0.2,0-0.2c0,0,0-0.1,0-0.2c0,0,0-0.1,0-0.1c0,0,0-0.1,0-0.1c0,0,0,0,0-0.1v-0.1l-0.3-5.5c0.6-1.5,1.6-3,3.2-4.4v0.2
	l0.4,0.4c0,0.1,0,0.3,0,0.6c0,0.2,0,0.5,0,0.8c0,0.3,0,0.6,0,0.9c0,0.3,0,0.6,0.1,0.9l0.3,4.2c0,0.1,0,0.2,0,0.3c0,0.1,0,0.2,0,0.3
	c0,0.1,0,0.1,0,0.2c0,0.1,0,0.2,0.1,0.3v0l0,0c0,0.2,0.1,0.4,0.1,0.5c0.1,0,0.2,0.1,0.3,0.1h3.2c-0.2-0.8-0.4-1.6-0.6-2.4
	c-0.1-0.8-0.2-1.6-0.3-2.4c0.2-0.6,0.4-1.2,0.6-1.8c0.2-0.6,0.5-1.2,0.8-1.9h6.1l-0.1,0.2l0.5,0.4L423.6-271.2z M438.1-260.5
	c0,0.1-0.1,0.1-0.2,0.2s-0.1,0.1-0.1,0.2l0,0l-1.7,2.1l-0.5-0.5l-0.1,0.1c-0.4-1-0.7-2-1-2.9c-0.3-0.9-0.5-1.8-0.6-2.6l-0.7-4.3
	c0-0.2-0.1-0.5-0.2-0.7v0c-0.2,0-0.4-0.1-0.6-0.1c-1,0-2.1,0.5-3.1,1.5c-0.2,0.6-0.3,1.1-0.3,1.5c0,0.3,0.1,0.8,0.3,1.4h0
	c0,0,0,0.1,0,0.2c0.2,0.2,0.5,0.2,0.8,0.2c0.4,0,0.8-0.1,1.2-0.2c0.1,0,0.2-0.1,0.3-0.1c0.1,0,0.2-0.1,0.3-0.1
	c0.1,0,0.2-0.1,0.2-0.1c0.1,0,0.2-0.1,0.2-0.1c0,0,0.1-0.1,0.3-0.1c0.1,0,0.3-0.1,0.4-0.1c0,0,0.1-0.1,0.2-0.1c0.1,0,0.1,0,0.1-0.1
	v0.2l0.4,0.4c-0.1,1.6-0.5,3-1.2,4.1c-1,0.7-2.1,1-3.3,1c-1.2,0-2.1-0.3-2.7-1l0,0c-0.5-0.3-1-0.8-1.2-1.5c-0.4-0.8-0.5-1.7-0.5-2.6
	c0-1.6,0.5-3.3,1.6-5.3c0.6-1.2,1.6-2.1,2.8-2.8h0c0.6-0.4,1.2-0.6,1.9-0.8c0.6-0.2,1.3-0.3,2-0.3c0.8,0,1.4,0.2,1.8,0.6
	c0.1,0.1,0.2,0.2,0.3,0.3c0.1,0.1,0.2,0.2,0.2,0.3c0.3,0.3,0.6,0.7,0.8,1.2c0.1,0.2,0.2,0.5,0.2,0.9c0.1,0.3,0.2,0.7,0.2,1l0.2,0.8
	l0,0c0,0.1,0.1,0.3,0.2,0.5s0.1,0.4,0.1,0.5l0.8,3.1l0,0c0,0.3,0.1,0.6,0.2,0.8c0.1,0.1,0.2,0.2,0.4,0.4c0.2,0.1,0.3,0.3,0.5,0.4
	l0,0l0.5,0.5L438.1-260.5z"/>
<g>
	<path class="st2" d="M61.3,15.5c-0.5-0.4-1-0.6-1.7-0.7l-5.5,0c0-0.1,0-0.4-0.1-0.8c0-0.4-0.1-0.8-0.1-1.2c0-0.4,0-0.8-0.1-1.2
		c0-0.4,0-0.7,0-0.8c-0.3,0.3-0.5,0.7-0.7,1c-0.2,0.3-0.4,0.7-0.5,1c-0.2,0.3-0.3,0.7-0.5,1c-0.2,0.4-0.3,0.7-0.5,1.1
		c-0.1,0.2-0.2,0.4-0.4,0.7c-0.1,0.3-0.3,0.7-0.4,1c-0.2,0.3-0.3,0.7-0.5,1c-0.2,0.3-0.3,0.6-0.4,0.7h8.4c0.4,0.1,0.7,0.2,0.8,0.4
		c0.2,0.2,0.3,0.5,0.4,0.8c0,0.2,0,0.3,0,0.5c0,0.1,0,0.2,0,0.3l0.1,3.2l0,0c0,0.4,0,0.5,0,0.5l0.1,3.5c1-0.8,1.8-1.6,2.5-2.5
		l0.1-2.2c0,0,0-0.2,0-0.3v-1.5c0-1.2-0.1-2.5-0.2-4C62,16.4,61.7,15.8,61.3,15.5z"/>
	<path class="st2" d="M51.7,22.4v5.2c0.5-0.4,1-0.8,1.4-1.3c0.4-0.4,0.8-0.9,1.2-1.4v-2.1l0,0v-3.4C53.3,20.4,52.4,21.4,51.7,22.4z"
		/>
	<path class="st2" d="M64.6,19.8c0,0.7,0.1,1.7,0.2,3c0.1,0.4,0.2,0.8,0.3,1.1c0.1,0.2,0.1,0.3,0.2,0.5c0,0.1,0.1,0.2,0.1,0.3
		c0.1,0.1,0.1,0.3,0.2,0.4c0,0.1,0.1,0.1,0.1,0.2c0,0,0,0,0,0c0,0.1,0.1,0.1,0.1,0.2h9.9L75,24.3c0-0.1-0.1-0.2-0.1-0.2
		c0-0.1-0.1-0.1-0.1-0.2L74,22.3h-6.2v0.2L67.3,22H67c0-0.1,0-0.1,0-0.2l0,0h0c0-0.4,0-0.7,0-1c0-0.4,0-0.7,0-1
		c0-0.6,0.1-1.2,0.2-1.8c1.3-0.9,2.8-1.6,4.4-2c0.3,0.2,0.4,0.5,0.5,0.7l0.1,0.1c0,0-0.1,0-0.1,0c0,0,0,0,0,0c0,0,0,0.1,0,0.1
		c0,0,0,0,0,0c0.2,0.2,0.3,0.4,0.3,0.5c0,0.1,0,0.3,0,0.5c0,0.2-0.1,0.4-0.1,0.5c-0.1,0.2-0.1,0.3-0.2,0.5c-0.1,0.1-0.2,0.2-0.4,0.2
		l-2.1,0.2l-0.6,2h1.9l1.1-0.2v0h0c0,0,0,0,0,0l0.8-0.4c0.3-0.2,0.5-0.3,0.7-0.5c0.2-0.1,0.4-0.3,0.6-0.5c0.5-0.5,0.8-1.1,0.8-1.8
		c-0.2-1-0.6-2-1.3-3c-0.7-0.9-1.4-1.5-2.1-2.1c-2.2,0.6-4.4,1.8-6.5,3.6C64.8,17.4,64.6,18.6,64.6,19.8z"/>
	<path class="st2" d="M19.9,13.2c-0.5-0.5-1-0.9-1.5-1.4c-0.2,0.4-0.4,0.7-0.5,1c-0.2,0.3-0.3,0.6-0.5,0.9c-0.2,0.3-0.4,0.5-0.6,0.8
		c-0.2,0.3-0.5,0.5-0.8,0.8c1.2,0.8,2.2,1.6,2.9,2.5c0.1,0.3,0.2,0.6,0.3,0.9c0,0.3,0.1,0.8,0.1,1.3c0,0.3,0,0.5,0,0.7
		c0,0.2,0,0.4,0,0.5V22l0,0V26c1.1-1,2-2.2,2.6-3.4l0-3.5v-1.3c0-1.2-0.2-2.2-0.6-2.9C20.9,14.2,20.4,13.7,19.9,13.2z"/>
	<path class="st2" d="M13,21.5c-0.2-0.6-0.5-1.2-0.7-1.8c-0.3-0.6-0.5-1.2-0.8-1.8c0.2-0.2,0.3-0.4,0.5-0.6c0.2-0.2,0.3-0.4,0.4-0.6
		c0.3-0.4,0.5-0.7,0.8-1.1c0.2-0.4,0.4-0.8,0.5-1.2c0.2-0.4,0.2-0.9,0.2-1.3c0-0.2,0-0.4-0.1-0.7c-0.1-0.5-0.3-1-0.4-1.5
		c-0.2-0.5-0.4-0.9-0.7-1.4L10.2,13c0.1,0.1,0.2,0.2,0.3,0.5c0.1,0.2,0.3,0.5,0.4,0.7c0.1,0.2,0.2,0.4,0.2,0.6c0,0.1,0,0.2,0,0.2
		c0,0.1,0,0.1,0,0.1c0,0.6-0.2,1-0.6,1.4c-0.8-0.1-1.3,0-1.5,0.3v-1c0-1.3-0.2-2.3-0.6-3C8,12.3,7.5,11.7,7,11.2
		c-0.5-0.5-1-1-1.5-1.4C5,10.4,4.6,11,4.2,11.6c-0.4,0.6-0.8,1.2-1.1,1.8c0.6,0.4,1.2,0.8,1.6,1.3C5.2,15.1,5.6,15.6,6,16
		c0.1,0.3,0.2,0.6,0.3,0.9c0,0.4,0.1,0.8,0.1,1.3c0,0.3,0,0.5,0,0.7c0,0.2,0,0.4,0,0.5v4.8c1.1-1.1,2-2.2,2.6-3.5l0-1.9
		c0.2,0.6,0.5,1.3,0.8,2.1c0.3,0.8,0.7,1.6,1,2.4c0.3,0.8,0.5,1.5,0.8,2.3c0.2,0.8,0.4,1.6,0.5,2.4c0.1-0.2,0.3-0.4,0.5-0.7
		c0.2-0.3,0.4-0.6,0.7-1c0.2-0.2,0.3-0.5,0.4-0.7l0,0c0.1-0.2,0.3-0.5,0.4-0.7c-0.1-0.6-0.3-1.2-0.5-1.8
		C13.4,22.7,13.2,22.1,13,21.5z"/>
	<path class="st2" d="M42.4,22.7c-0.2,0-0.4,0-0.6,0c-0.2,0-0.3,0-0.5,0c-0.4,0-0.7-0.2-0.8-0.6c0-0.2-0.1-0.4-0.1-0.7
		c0-0.3-0.1-0.6-0.1-1c0.3-1.6,1-2.4,1.9-2.5h5.4c-0.7-2-1.8-3.8-3.2-5.5c0,0.8-0.1,1.4-0.3,1.9h-3c-0.5,0-1,0.2-1.5,0.3
		c-0.4,0.2-0.8,0.5-1.2,0.9c-0.8,1.2-1.2,2.4-1.2,3.8c0,2,0.9,4.3,2.6,7h6.5v0h1.5l-1.7-3.6L42.4,22.7z"/>
	<path class="st2" d="M32.2,11.8c-0.4,0.3-0.8,0.6-1.1,0.9c-0.3,0.3-0.6,0.6-0.9,0.9h-2.6c-0.1-0.2-0.2-0.5-0.2-0.8
		c-0.1-0.3-0.1-0.6-0.1-1c-1.7,1.9-2.8,3.7-3.2,5.4h5.5v5v0v0.5l0,3.6c0.6-0.4,1.1-0.9,1.5-1.4c0.4-0.5,0.8-1.1,1.1-1.7v-6.1h1.8
		l1.4-3.6h-3V11.8z"/>
	<path class="st2" d="M79.6,18L79.6,18c0.1,0,0.1,0.1,0.2,0.1l-0.3-0.3C79.5,17.9,79.5,18,79.6,18z"/>
	<path class="st2" d="M89.8,21.8c-0.2-0.1-0.4-0.3-0.6-0.5c-0.2-0.2-0.4-0.3-0.7-0.5c0.6-1,1-1.9,1.2-2.9c0.2-1,0.3-1.8,0.3-2.6
		v-0.4c0-0.2,0-0.3,0-0.3l0.9-1.8h-4.4l-1.2,3.3h1.9c0.1,0.2,0.1,0.4,0.1,0.6c0,0.2,0.1,0.5,0.1,0.6c0,0.4-0.1,0.8-0.2,1.1
		s-0.3,0.6-0.6,1c-0.5-0.4-0.8-0.7-1.1-0.9c-0.2-0.2-0.4-0.3-0.6-0.5l-1-1c-0.4-0.4-0.8-0.8-1.2-1.1c-0.4-0.4-0.8-0.8-1.2-1.2
		c-0.8-0.9-1.5-1.7-2.2-2.6c-0.2,0.4-0.4,0.7-0.6,1c-0.2,0.3-0.3,0.6-0.5,0.8c-0.1,0.3-0.2,0.5-0.4,0.8l0,0h0c0,0,0,0,0,0l0,0
		c-0.1,0.2-0.1,0.3-0.2,0.4c0,0.1-0.1,0.2-0.1,0.3c0.2,0.2,0.4,0.5,0.6,0.7c0.2,0.2,0.4,0.4,0.5,0.6c0.2,0.2,0.4,0.4,0.6,0.7
		c0.2,0.2,0.5,0.5,0.8,0.8c-0.3,0.5-0.6,0.9-0.8,1.3c-0.2,0.4-0.4,0.9-0.5,1.3c-0.1,0.4-0.2,0.8-0.2,1.2c0,0.4-0.1,0.7-0.1,1
		c0,0.5,0.1,0.9,0.2,1.2c0.2,0.4,0.4,0.7,0.6,1s0.5,0.6,0.7,0.8l0.3-0.5c0.7-1,1.3-1.9,2-2.8c-0.3-0.2-0.5-0.4-0.5-0.6
		c0-0.2-0.1-0.5-0.1-1s0.1-0.8,0.4-1.1c1.1,1.1,2.2,2.1,3.3,3.1c1.1,1,2.3,1.9,3.4,2.7c0.4-0.6,0.8-1.1,1.2-1.7
		c0.3-0.5,0.7-1.1,0.9-1.6c-0.2-0.2-0.5-0.3-0.7-0.4C90.1,22.1,90,22,89.8,21.8z"/>
	<path class="st2" d="M79.4,17.8L79.4,17.8C79.3,17.7,79.4,17.8,79.4,17.8z"/>
	<path class="st0" d="M13.7,21.9L13.7,21.9c-0.5-1.2-1-2.4-1.5-3.4c0-0.1,0.1-0.2,0.2-0.2s0.1-0.1,0.2-0.2c0.1-0.1,0.2-0.2,0.2-0.3
		c0.1-0.1,0.2-0.2,0.2-0.3c0.3-0.4,0.5-0.7,0.8-1.1c0.2-0.4,0.4-0.8,0.6-1.2c0.2-0.4,0.2-0.9,0.2-1.4c0-0.2,0-0.5-0.1-0.8
		c-0.2-1-0.7-2.1-1.3-3.2L13,9.5c0-0.1-0.1-0.1-0.1-0.2c0-0.1-0.1-0.1-0.1-0.2l-3,3.9c0.1,0.1,0.2,0.3,0.4,0.6
		c0.2,0.3,0.4,0.6,0.6,0.9c0,0.1,0.1,0.2,0.1,0.3v0.1c0,0,0,0.1,0,0.1c0,0,0,0,0,0c0,0.1,0,0.1,0,0.2c0,0.4-0.1,0.8-0.4,1h-0.4
		c-0.1,0-0.1,0-0.2,0c-0.1,0-0.1,0-0.2,0c0-0.6-0.1-1.2-0.2-1.7s-0.3-0.9-0.4-1.3C9.1,13.1,9,13,8.9,12.8c-0.1-0.1-0.2-0.2-0.3-0.4
		c-0.9-1.2-2-2.2-3.1-3.1c-0.6,0.7-1.1,1.4-1.6,2.1c-0.5,0.7-0.9,1.4-1.2,2.1c0.1,0,0.1,0.1,0.2,0.1c0.1,0.1,0.1,0.1,0.2,0.2L3.3,14
		c0.2,0.2,0.4,0.3,0.6,0.5c0.2,0.1,0.4,0.3,0.6,0.5c0.2,0.2,0.5,0.4,0.7,0.6c0.2,0.2,0.4,0.4,0.6,0.6c0,0,0,0,0,0v0h0
		c0.1,0.2,0.2,0.5,0.2,0.8C6,17.4,6,17.8,6,18.3c0,0.3,0,0.5,0,0.8c0,0.2,0,0.4,0,0.5v5.5c0-0.1,0.1-0.1,0.1-0.1l0,0h0l0.4,0.4
		c0.7-0.7,1.3-1.3,1.8-2c0.5-0.6,0.9-1.3,1.2-2c0.1,0.3,0.3,0.7,0.4,1c0.1,0.3,0.3,0.7,0.4,1c0.3,0.7,0.5,1.5,0.8,2.4
		c0.2,0.9,0.5,1.9,0.6,3c0-0.1,0.1-0.1,0.1-0.1l0.5,0.4c0-0.1,0.1-0.2,0.2-0.4c0.1-0.2,0.2-0.3,0.4-0.5c0.1-0.2,0.3-0.4,0.4-0.6
		c0.1-0.2,0.3-0.4,0.4-0.6c0.1-0.1,0.2-0.2,0.2-0.4c0.1-0.1,0.2-0.2,0.2-0.4c0.1-0.1,0.1-0.2,0.2-0.4c0.1-0.1,0.2-0.2,0.2-0.4
		c-0.1-0.6-0.3-1.2-0.5-1.9S13.9,22.5,13.7,21.9z M13.6,25.8L13.6,25.8c-0.1,0.2-0.3,0.5-0.5,0.7c-0.2,0.4-0.5,0.7-0.7,1
		c-0.2,0.3-0.3,0.5-0.5,0.7c-0.1-0.8-0.3-1.6-0.5-2.4c-0.2-0.8-0.5-1.6-0.8-2.3c-0.3-0.9-0.6-1.7-1-2.4c-0.3-0.8-0.6-1.5-0.8-2.1
		l0,1.9c-0.6,1.3-1.5,2.5-2.6,3.5v-4.8c0-0.1,0-0.3,0-0.5c0-0.2,0-0.5,0-0.7c0-0.5,0-1-0.1-1.3c0-0.3-0.2-0.6-0.3-0.9
		c-0.4-0.5-0.8-0.9-1.3-1.3c-0.5-0.4-1-0.9-1.6-1.3c0.3-0.6,0.7-1.2,1.1-1.8C4.6,11,5,10.4,5.5,9.8c0.5,0.4,1,0.9,1.5,1.4
		c0.5,0.5,1,1,1.4,1.6c0.4,0.7,0.6,1.7,0.6,3v1c0.3-0.2,0.8-0.3,1.5-0.3c0.4-0.3,0.6-0.8,0.6-1.4c0,0,0-0.1,0-0.1c0-0.1,0-0.1,0-0.2
		c0-0.2-0.1-0.4-0.2-0.6c-0.1-0.2-0.3-0.4-0.4-0.7c-0.2-0.2-0.3-0.4-0.3-0.5l2.5-3.3c0.3,0.4,0.5,0.9,0.7,1.4c0.2,0.5,0.3,1,0.4,1.5
		c0,0.3,0.1,0.5,0.1,0.7c0,0.5-0.1,0.9-0.2,1.3c-0.1,0.4-0.3,0.8-0.5,1.2c-0.2,0.4-0.5,0.7-0.8,1.1c-0.1,0.2-0.3,0.4-0.4,0.6
		c-0.1,0.2-0.3,0.4-0.5,0.6c0.3,0.6,0.6,1.2,0.8,1.8c0.3,0.6,0.5,1.2,0.7,1.8c0.2,0.6,0.4,1.2,0.6,1.8c0.2,0.6,0.3,1.2,0.5,1.8
		C13.9,25.3,13.8,25.5,13.6,25.8z"/>
	<path class="st0" d="M21.9,14.9c-0.1-0.1-0.2-0.2-0.2-0.3c-0.5-0.6-1-1.1-1.5-1.7c-0.5-0.5-1.1-1.1-1.8-1.6
		c-0.2,0.4-0.4,0.8-0.6,1.2s-0.4,0.7-0.5,1c-0.2,0.3-0.4,0.6-0.7,0.9s-0.6,0.7-1,1c0.1,0.1,0.2,0.1,0.3,0.2l0.3,0.3
		c0.2,0.1,0.5,0.3,0.7,0.5c0.2,0.1,0.4,0.3,0.6,0.4c0.2,0.2,0.5,0.4,0.7,0.6c0.2,0.2,0.4,0.4,0.6,0.6c0.1,0.2,0.2,0.5,0.3,0.9
		s0.1,0.7,0.1,1.2c0,0.3,0,0.5,0,0.8c0,0.2,0,0.4,0,0.5v5.4l0.1-0.1l0.5,0.5c1.4-1.3,2.4-2.6,3.1-4l0-3.6v-1.3c0-1.3-0.2-2.3-0.6-3
		C22,15.1,21.9,15,21.9,14.9z M22,19l0,3.5c-0.6,1.3-1.5,2.4-2.6,3.4v-4.1l0,0v-0.6c0-0.1,0-0.3,0-0.5c0-0.2,0-0.4,0-0.7
		c0-0.5,0-1-0.1-1.3c0-0.3-0.2-0.6-0.3-0.9c-0.7-0.9-1.7-1.8-2.9-2.5c0.3-0.3,0.6-0.6,0.8-0.8c0.2-0.3,0.4-0.5,0.6-0.8
		c0.2-0.3,0.3-0.6,0.5-0.9c0.1-0.3,0.3-0.7,0.5-1c0.5,0.4,1,0.9,1.5,1.4c0.5,0.5,1,1,1.4,1.6c0.4,0.7,0.6,1.7,0.6,2.9V19z"/>
	<path class="st0" d="M35.7,13.3h-2.8v-1.4l-0.4-0.4v-0.2c-0.5,0.4-1,0.8-1.4,1.1c-0.4,0.4-0.8,0.7-1.1,1h-2c0-0.2-0.1-0.4-0.1-0.7
		c0-0.3,0-0.6,0-0.9l-0.4-0.4V11c-2.1,2.3-3.4,4.5-4,6.5h0.2l0.4,0.4h5v4.8l0,4.3c0,0,0.1-0.1,0.1-0.1l0.5,0.5
		c0.8-0.5,1.4-1.1,1.9-1.7c0.5-0.6,0.9-1.2,1.3-1.8v-6h1.7l1.6-4.1l-0.5-0.4L35.7,13.3z M33.8,17.2h-1.8v6.1
		c-0.3,0.6-0.7,1.2-1.1,1.7c-0.5,0.5-1,1-1.5,1.4l0-3.6v-0.5v0v-5H24c0.5-1.7,1.6-3.5,3.2-5.4c0,0.4,0,0.7,0.1,1
		c0.1,0.3,0.1,0.6,0.2,0.8h2.6c0.3-0.3,0.6-0.6,0.9-0.9c0.4-0.3,0.7-0.6,1.1-0.9v1.8h3L33.8,17.2z"/>
	<path class="st0" d="M46.5,22.6l-0.1-0.2l-4,0c-0.2,0-0.4,0-0.6,0c-0.2,0-0.3,0-0.5,0c-0.1,0-0.1,0-0.1,0c0-0.2,0-0.4-0.1-0.6
		c0-0.2,0-0.4-0.1-0.7c0,0,0-0.1,0-0.1c0,0,0-0.1,0-0.1c0.3-1.5,0.8-2.2,1.7-2.2h5.8c-0.4-1.1-0.9-2.1-1.5-3.2c-0.6-1-1.3-2-2.1-2.9
		c-0.1-0.2-0.3-0.3-0.4-0.5c-0.1-0.1-0.3-0.3-0.4-0.5c0,1-0.1,1.9-0.2,2.5h-2.8c-0.5,0-1.1,0.2-1.7,0.4c-0.4,0.2-0.8,0.4-1.1,0.8
		c-0.9,1.3-1.4,2.7-1.4,4.1l0,0h0c0,2,0.9,4.5,2.8,7.3h0.1l0.4,0.4h8.5L46.8,23L46.5,22.6z M46.4,26.3L46.4,26.3l-6.5,0
		c-1.7-2.7-2.6-5-2.6-7c0-1.4,0.4-2.6,1.2-3.8c0.4-0.4,0.7-0.7,1.2-0.9c0.5-0.2,1-0.3,1.5-0.3h3c0.2-0.5,0.3-1.2,0.3-1.9
		c1.4,1.7,2.5,3.5,3.2,5.5h-5.4c-0.9,0-1.6,0.8-1.9,2.5c0,0.4,0.1,0.7,0.1,1c0,0.3,0.1,0.5,0.1,0.7c0.1,0.4,0.4,0.6,0.8,0.6
		c0.1,0,0.3,0,0.5,0c0.2,0,0.4,0,0.6,0l3.8,0l1.7,3.6H46.4z"/>
	<path class="st0" d="M63,17.5c-0.1-0.6-0.4-1.1-0.8-1.5l0,0c-0.1-0.1-0.2-0.3-0.3-0.4c-0.1-0.1-0.2-0.2-0.4-0.4
		c-0.3-0.2-0.6-0.4-0.9-0.5s-0.7-0.2-1-0.2l-4.8,0c0-0.3,0-0.6-0.1-1c0-0.4,0-0.7-0.1-1.1c0-0.4,0-0.7,0-1l0,0h0c0-0.3,0-0.6,0-0.7
		l-0.4-0.4V9.9c-0.3,0.4-0.6,0.8-0.9,1.1c-0.2,0.3-0.4,0.6-0.6,0.9c-0.2,0.3-0.3,0.5-0.4,0.8c-0.1,0.2-0.2,0.5-0.4,0.8
		c-0.2,0.4-0.4,0.9-0.7,1.4l0,0c-0.1,0.1-0.2,0.3-0.2,0.5c-0.1,0.2-0.2,0.3-0.2,0.5c0,0.1-0.1,0.3-0.2,0.4c0,0.1-0.1,0.2-0.2,0.4
		c0,0.1-0.1,0.1-0.1,0.2c0,0.1,0,0.1-0.1,0.2c-0.1,0.3-0.3,0.6-0.4,0.9c-0.1,0.3-0.3,0.6-0.6,1h0.2l0.4,0.4h4.2
		c-1.1,1.1-2.1,2.1-2.8,3.1v6c0,0,0.1-0.1,0.1-0.1l0.5,0.5c0.6-0.5,1.2-1,1.7-1.6s1-1,1.4-1.5v-6.1l-0.2-0.2h3.9
		c0.1,0,0.1,0.1,0.2,0.1c0.1,0,0.1,0,0.2,0.1c0,0,0.1,0.1,0.1,0.2c0,0.1,0,0.2,0,0.2v0.1c0,0,0,0.1,0,0.1c0,0,0,0,0,0
		c0,0.1,0,0.2,0,0.3v0.2l0.1,3.2c0,0.3,0,0.5,0,0.5l0.2,4.1c0,0,0.1-0.1,0.1-0.1l0.5,0.5c1.2-0.9,2.2-1.9,2.9-2.9l0.1-2.3
		c0-0.1,0-0.2,0-0.3v-1.5c0-0.6,0-1.2,0-1.9C63,19,63,18.2,63,17.5z M54.3,22.8L54.3,22.8l0,2.1c-0.3,0.5-0.7,0.9-1.2,1.4
		c-0.4,0.4-0.9,0.8-1.4,1.3v-5.2c0.7-1,1.6-2,2.6-2.9V22.8z M62.4,22.5c0,0.2,0,0.3,0,0.3l-0.1,2.2c-0.6,0.9-1.5,1.8-2.5,2.5
		l-0.1-3.5c0,0,0-0.2,0-0.5l0,0l-0.1-3.2c0-0.1,0-0.2,0-0.3c0-0.1,0-0.3,0-0.5c0-0.4-0.2-0.6-0.4-0.8c-0.2-0.2-0.5-0.3-0.8-0.4h-8.4
		c0.1-0.2,0.2-0.4,0.4-0.7c0.1-0.3,0.3-0.7,0.5-1c0.1-0.3,0.3-0.7,0.4-1c0.2-0.3,0.3-0.6,0.4-0.7c0.2-0.4,0.4-0.7,0.5-1.1
		c0.1-0.4,0.3-0.7,0.5-1c0.2-0.3,0.3-0.7,0.5-1c0.2-0.3,0.5-0.7,0.7-1c0,0.2,0,0.5,0,0.8c0,0.4,0,0.8,0.1,1.2c0,0.4,0.1,0.8,0.1,1.2
		c0,0.4,0.1,0.6,0.1,0.8l5.5,0c0.7,0,1.2,0.2,1.7,0.7c0.5,0.4,0.8,0.9,1,1.6c0.1,1.5,0.2,2.9,0.2,4V22.5z"/>
	<path class="st0" d="M74.9,24.1c0,0.1,0.1,0.1,0.1,0.2l0.7,1.3h-9.9c0-0.1-0.1-0.1-0.1-0.2c0,0.1,0.1,0.2,0.1,0.3
		c0,0.1,0.1,0.1,0.1,0.2h10.2l-0.8-1.5l-0.1-0.1l0,0v0c0-0.1-0.1-0.2-0.1-0.3c0,0,0-0.1-0.1-0.1L75,23.7l-0.7-1.5H74l0.7,1.5
		C74.8,23.9,74.9,24,74.9,24.1z"/>
	<path class="st0" d="M65.6,25.1c0,0.1,0.1,0.2,0.1,0.3c0,0,0,0,0,0C65.6,25.3,65.6,25.2,65.6,25.1z"/>
	<polygon class="st0" points="67.8,22.3 74,22.3 73.9,22 67.3,22 67.8,22.5 	"/>
	<path class="st0" d="M67.3,22L67,21.8c0,0.1,0,0.1,0,0.2H67.3z"/>
	<polygon class="st0" points="72.8,21.7 72.8,21.7 72.8,21.7 	"/>
	<path class="st0" d="M65.3,24.5c0.1,0.2,0.2,0.4,0.3,0.6c-0.1-0.1-0.1-0.3-0.2-0.4C65.3,24.7,65.3,24.6,65.3,24.5z"/>
	<path class="st0" d="M75.3,17.8c0,0.9-0.3,1.6-0.9,2.1c-0.2,0.2-0.4,0.4-0.6,0.5c-0.2,0.2-0.5,0.3-0.8,0.5l-0.6,0.3
		c0,0.1-0.1,0.1-0.3,0.1L72,21.4l0-0.1l-1.1,0.2h-2.6l0.2,0.2h4.3c0,0,0,0,0,0l0.7-0.4c0.3-0.2,0.5-0.3,0.8-0.5
		c0.2-0.2,0.4-0.3,0.6-0.5c0.6-0.5,0.8-1.2,0.8-2.1c-0.2-1-0.6-2-1.4-3.1c-0.2-0.2-0.3-0.4-0.5-0.6c0,0,0,0-0.1-0.1
		c0,0,0.1,0.1,0.1,0.1C74.7,15.7,75.1,16.7,75.3,17.8z"/>
	<path class="st0" d="M67.8,20.9c0-0.2,0-0.5,0-0.7v0c0-0.3,0-0.6,0.1-0.8c0-0.3,0.1-0.6,0.1-0.8c1.1-0.8,2.4-1.4,3.9-1.8v0
		c0,0.1,0,0.3,0,0.5c0,0.2-0.1,0.3-0.1,0.5c0,0.2-0.1,0.3-0.2,0.4c-0.1,0.1-0.2,0.2-0.3,0.2l-2.1,0.2l-0.9,3h0.1l0,0l0.9-2.8
		l2.1-0.2c0.1,0,0.2-0.1,0.4-0.2c0.1-0.1,0.2-0.3,0.2-0.5c0.1-0.2,0.1-0.4,0.1-0.5c0-0.2,0-0.3,0-0.5v0l0,0c0,0,0,0-0.1,0
		c0-0.1-0.1-0.3-0.2-0.5c-0.8,0.2-1.5,0.5-2.2,0.8s-1.3,0.6-1.9,1c0,0.3-0.1,0.6-0.1,0.8c0,0.3,0,0.5-0.1,0.8s0,0.6,0,0.9
		c0,0.3,0,0.7,0,1.1h0.4v0.1h0.8l-0.1-0.1h-0.7C67.8,21.4,67.8,21.2,67.8,20.9z"/>
	<path class="st0" d="M72.6,21.8l-0.2,0H74l0.1,0.2l-0.1-0.2h-1.2c0,0,0,0,0,0C72.8,21.7,72.7,21.8,72.6,21.8L72.6,21.8z"/>
	<polygon class="st0" points="68.3,21.5 68.3,21.5 68.2,21.5 68.3,21.5 	"/>
	<rect x="68.5" y="21.7" class="st0" width="0" height="0"/>
	<path class="st0" d="M75.7,24.7c-0.1-0.2-0.1-0.3-0.1-0.3s0,0-0.1-0.1l0,0l-0.9-1.9L74.2,22l0.8,1.7c0,0,0,0.1,0.1,0.1v0
		c0,0,0,0.1,0,0.1c0,0,0,0.1,0.1,0.3l0,0l1,1.9H65.7l-0.1-0.1c-0.1-0.2-0.1-0.3-0.2-0.4c0-0.1-0.1-0.3-0.3-0.6
		c-0.3-0.6-0.5-1-0.6-1.4c-0.1-0.4-0.2-0.7-0.3-1.1c-0.1-1.4-0.2-2.4-0.2-3c0-1.3,0.1-2.5,0.4-3.5c2.2-1.9,4.5-3.1,6.7-3.6
		c0.6,0.4,1.2,0.9,1.7,1.4l0.2,0.3c-0.4-0.4-0.9-0.8-1.4-1.2c-0.1,0-0.1,0-0.2,0c0.7,0.5,1.4,1.2,2.1,2.1c0.7,1,1.2,2,1.3,3
		c0,0.8-0.2,1.4-0.8,1.8c-0.2,0.2-0.4,0.3-0.6,0.5c-0.2,0.2-0.5,0.3-0.7,0.5L72.1,21c0,0,0,0,0,0h0v0l-1.1,0.2H69l-0.1,0.3H71
		l1.1-0.2v0h0.2l0-0.1l0.1-0.2l0.1,0.1l0.6-0.3c0.3-0.2,0.5-0.3,0.8-0.5c0.2-0.2,0.4-0.3,0.6-0.5c0.6-0.5,0.8-1.2,0.8-2.1
		c-0.2-1-0.6-2.1-1.4-3.1c-0.1-0.1-0.3-0.3-0.4-0.4c-0.1-0.1-0.2-0.3-0.4-0.4l0.2,0.2c0.2,0.2,0.3,0.3,0.5,0.5
		c-0.8-1-1.7-1.8-2.6-2.5c-2.2,0.5-4.5,1.8-6.8,3.7c-0.2,1.1-0.4,2.3-0.4,3.6c0,0.7,0,1.7,0.2,3c0.1,0.4,0.2,0.8,0.3,1.2
		c0.1,0.4,0.3,0.8,0.6,1.4c0.1,0.2,0.2,0.4,0.2,0.5c0.1,0.1,0.1,0.2,0.1,0.3c0,0,0,0.1,0,0.1c0,0,0.1,0.1,0.1,0.1h0.1l0.4,0.4h10.5
		L75.7,24.7L75.7,24.7z"/>
	<path class="st0" d="M73.1,13.8c0.1,0.1,0.3,0.3,0.4,0.4c0.1,0.1,0.2,0.3,0.4,0.4c0.8,1,1.2,2.1,1.4,3.1c0,0.9-0.3,1.6-0.8,2.1
		c-0.2,0.2-0.4,0.3-0.6,0.5c-0.2,0.1-0.5,0.3-0.8,0.5l-0.6,0.3L72.4,21l-0.1,0.2l0,0.1h-0.2v0L71,21.5h-2.1l0.1-0.3h-0.4l0.7-2.3
		l1.9-0.2c0.2,0,0.3-0.1,0.4-0.2c0.1-0.1,0.2-0.3,0.3-0.5c0.1-0.2,0.2-0.4,0.2-0.6c0-0.2,0.1-0.4,0.1-0.5c0,0,0,0,0-0.1h0
		c0,0,0.1,0,0.1,0c0,0,0-0.1,0-0.1l-0.4-0.4l-0.2,0c0,0,0,0,0,0c0,0,0,0,0,0c-1.5,0.4-2.8,1-4,1.9L67.6,18l-0.1,0.2l0,0.1
		c0,0.3-0.1,0.5-0.1,0.8c0,0.2,0,0.5-0.1,0.8c0,0.3,0,0.6,0,1c0,0.3,0,0.7,0,1.1H67c0,0,0,0,0,0l0.2,0.2h6.6l0.1,0.3h0.2l0.7,1.5
		l0.1,0.1c0,0,0,0.1,0.1,0.1c0,0,0,0.1,0.1,0.3v0l0,0l0.1,0.1l0.8,1.5H65.9c0-0.1-0.1-0.2-0.1-0.2c0-0.1-0.1-0.1-0.1-0.3
		c0-0.1-0.1-0.2-0.1-0.3c-0.1-0.2-0.2-0.4-0.3-0.6c-0.2-0.4-0.4-0.8-0.5-1.1c-0.1-0.4-0.2-0.7-0.3-1.1c-0.1-1.4-0.1-2.3-0.1-3
		s0-1.2,0.1-1.8s0.2-1.1,0.3-1.6c2.1-1.8,4.3-2.9,6.4-3.5c0.1,0.1,0.3,0.2,0.4,0.3c0.1,0,0.1,0,0.2,0C72.2,13,72.7,13.4,73.1,13.8
		l-0.2-0.3c-0.5-0.5-1.1-1-1.7-1.4c-2.2,0.6-4.5,1.8-6.7,3.6c-0.2,1.1-0.4,2.3-0.4,3.5c0,0.7,0.1,1.7,0.2,3c0.1,0.4,0.2,0.8,0.3,1.1
		c0.1,0.4,0.3,0.8,0.6,1.4c0.1,0.3,0.2,0.5,0.3,0.6c0,0.1,0.1,0.3,0.2,0.4l0.1,0.1h10.5l-1-1.9l0,0c-0.1-0.2-0.1-0.3-0.1-0.3
		c0,0,0-0.1,0-0.1v0c0,0-0.1-0.1-0.1-0.1L74.2,22l0,0l0,0L74,21.8h-1.6l0.2,0h0c0.1,0,0.2,0,0.2,0c0,0,0,0,0,0h-4.3l0,0h0l0.1,0.1
		h-0.8v-0.1h-0.4c0-0.4,0-0.7,0-1.1c0-0.3,0-0.6,0-0.9s0-0.5,0.1-0.8c0-0.3,0.1-0.5,0.1-0.8c0.6-0.4,1.2-0.8,1.9-1s1.4-0.6,2.2-0.8
		c0.1,0.2,0.2,0.4,0.2,0.5c0,0,0.1,0,0.1,0l0,0v0c0,0.1,0,0.3,0,0.5c0,0.2-0.1,0.4-0.1,0.5c-0.1,0.2-0.1,0.3-0.2,0.5
		c-0.1,0.1-0.2,0.2-0.4,0.2l-2.1,0.2l-0.9,2.8l0,0h0.1l0,0h2.6l1.1-0.2l0,0.1l0.1-0.1c0.2,0,0.3,0,0.3-0.1l0.6-0.3
		c0.3-0.2,0.5-0.3,0.8-0.5c0.2-0.2,0.4-0.3,0.6-0.5c0.6-0.5,0.9-1.2,0.9-2.1c-0.2-1.1-0.6-2.1-1.4-3.2c0,0-0.1-0.1-0.1-0.1
		c-0.1-0.2-0.3-0.3-0.5-0.5L73.1,13.8z"/>
	<path class="st0" d="M71.7,18.9c0.1,0,0.2-0.1,0.4-0.2c0.1-0.1,0.2-0.3,0.2-0.5c0-0.2,0.1-0.4,0.1-0.5c0-0.2,0-0.3,0-0.5
		c0-0.2-0.1-0.3-0.3-0.5c0,0.1,0,0.3-0.1,0.5c0,0.2-0.1,0.4-0.2,0.6c-0.1,0.2-0.2,0.4-0.3,0.5c-0.1,0.1-0.3,0.2-0.4,0.2l-1.9,0.2
		l-0.7,2.3H69l0.6-2L71.7,18.9z"/>
	<polygon class="st0" points="67,21.8 67,21.8 67,21.8 	"/>
	<path class="st0" d="M72.2,16.7C72.2,16.7,72.2,16.7,72.2,16.7L72.2,16.7c0,0.1,0,0.1,0,0.1C72.2,16.7,72.2,16.7,72.2,16.7
		C72.2,16.7,72.2,16.7,72.2,16.7z"/>
	<path class="st0" d="M72.3,16.6L72.3,16.6C72.2,16.6,72.2,16.6,72.3,16.6C72.2,16.7,72.2,16.7,72.3,16.6
		C72.2,16.7,72.3,16.6,72.3,16.6z"/>
	<path class="st0" d="M71.7,15.8c-1.6,0.4-3.1,1.1-4.4,2c-0.1,0.6-0.2,1.2-0.2,1.8c0,0.3,0,0.7,0,1c0,0.3,0,0.7,0,1h0.2
		c0-0.4,0-0.8,0-1.1c0-0.3,0-0.7,0-1c0-0.2,0-0.5,0.1-0.8c0-0.2,0.1-0.5,0.1-0.8l0-0.1l0.1-0.2l0.1,0.1c1.2-0.8,2.5-1.4,4-1.9
		c0,0,0,0,0,0c0,0,0,0,0,0l0.2,0l0.4,0.4C72.1,16.3,72,16.1,71.7,15.8z"/>
	<polygon class="st0" points="74.2,22 74.2,22 74.2,21.9 74.2,22 	"/>
	<path class="st0" d="M64.7,15.9c-0.1,0.5-0.2,1.1-0.3,1.6s-0.1,1.2-0.1,1.8s0,1.6,0.1,3c0.1,0.4,0.2,0.8,0.3,1.1
		c0.1,0.3,0.3,0.7,0.5,1.1c-0.1-0.2-0.2-0.4-0.2-0.5c-0.1-0.4-0.2-0.7-0.3-1.1c-0.1-1.4-0.2-2.4-0.2-3c0-1.3,0.1-2.4,0.4-3.5
		c2.2-1.8,4.4-3,6.5-3.6c-0.1-0.1-0.3-0.2-0.4-0.3C69,13,66.8,14.1,64.7,15.9z"/>
	<path class="st0" d="M79.4,17.8L79.4,17.8C79.4,17.9,79.4,17.8,79.4,17.8C79.4,17.8,79.4,17.8,79.4,17.8z"/>
	<path class="st0" d="M91.4,22.6c-0.5-0.3-0.8-0.5-1.1-0.7c-0.2-0.2-0.5-0.4-0.7-0.5l-0.2-0.2h0c0,0,0,0,0,0
		c0.5-0.9,0.9-1.9,1.1-2.8s0.3-1.8,0.3-2.5v-0.4c0-0.1,0-0.3,0-0.3l1-2.1l-0.5-0.4l0.1-0.2h-5.1l-1.5,4H85l0.4,0.4H87
		c0,0.1,0,0.2,0,0.3c0,0.1,0,0.2,0,0.2c0,0.6-0.2,1.1-0.5,1.6c-0.4-0.3-0.7-0.5-1-0.7c-0.2-0.2-0.4-0.3-0.5-0.4l-1-1
		c-0.4-0.4-0.8-0.8-1.2-1.1c-0.4-0.4-0.8-0.8-1.2-1.2C81.4,14,81,13.6,80.5,13c-0.5-0.6-0.9-1.1-1.2-1.5c-0.1,0.2-0.2,0.3-0.3,0.6
		c-0.1,0.2-0.2,0.4-0.3,0.6c-0.1,0.1-0.2,0.2-0.2,0.4c-0.1,0.1-0.1,0.2-0.2,0.3l0,0c0,0-0.1,0.1-0.1,0.1c0,0,0,0.1-0.1,0.1
		c0,0-0.1,0.1-0.1,0.1c0,0-0.1,0.1-0.1,0.1l0,0h0l0,0c0,0.1-0.1,0.3-0.1,0.4c-0.1,0.1-0.1,0.3-0.2,0.4c0,0-0.1,0.1-0.1,0.3
		c0,0,0,0.1,0,0.1c0,0-0.1,0.1-0.1,0.1l0,0.1c0,0,0,0.1-0.1,0.1c0,0,0,0,0,0.1c0.2,0.2,0.4,0.5,0.5,0.7c0.2,0.2,0.4,0.4,0.6,0.6
		c0.2,0.2,0.4,0.4,0.6,0.7c0.2,0.2,0.5,0.5,0.8,0.8c-0.7,0.9-1.1,1.8-1.2,2.6c-0.2,0.8-0.3,1.6-0.3,2.2c0,0.6,0.1,1,0.3,1.4
		c0.2,0.4,0.4,0.8,0.7,1.1c0.3,0.4,0.6,0.7,1,1.1l0,0l0.2,0.2c0,0,0.1,0.1,0.1,0.1c0,0,0.1,0.1,0.1,0.1l0.5-0.8c0.3-0.5,0.6-1,1-1.5
		c0.4-0.5,0.7-1,1.1-1.5l-0.5-0.5l0.1-0.1c-0.1,0-0.2-0.1-0.3-0.2c0-0.1,0-0.2,0-0.3v-0.5c0-0.2,0-0.5,0.1-0.7
		c0.6,0.6,1.3,1.2,1.9,1.8c0.6,0.6,1.3,1.1,1.9,1.7c0.5,0.4,1,0.8,1.5,1.2c0.5,0.4,1,0.8,1.5,1.1c0.5-0.6,0.9-1.3,1.3-1.9
		c0.4-0.6,0.7-1.2,1-1.8L91.4,22.6L91.4,22.6z M79.6,18L79.6,18c-0.1,0-0.1-0.1-0.1-0.1l0,0c0,0-0.1-0.1-0.1-0.1l0.1,0.1
		c0,0,0,0,0,0c0,0,0,0,0,0l0.3,0.3C79.7,18.1,79.6,18.1,79.6,18z M90.1,24.3c-0.3,0.5-0.7,1.1-1.2,1.7c-1.2-0.8-2.3-1.8-3.4-2.7
		c-1.1-1-2.2-2-3.3-3.1c-0.2,0.3-0.4,0.7-0.4,1.1s0,0.8,0.1,1c0.1,0.2,0.2,0.4,0.5,0.6c-0.7,0.8-1.3,1.8-2,2.8l-0.3,0.5
		c-0.3-0.2-0.5-0.5-0.7-0.8s-0.4-0.7-0.6-1c-0.2-0.3-0.2-0.7-0.2-1.2c0-0.3,0-0.6,0.1-1c0-0.4,0.1-0.8,0.2-1.2
		c0.1-0.4,0.3-0.9,0.5-1.3c0.2-0.4,0.5-0.9,0.8-1.3c-0.3-0.3-0.6-0.5-0.8-0.8c-0.2-0.2-0.5-0.5-0.6-0.7c-0.2-0.2-0.4-0.4-0.5-0.6
		c-0.2-0.2-0.4-0.4-0.6-0.7c0-0.1,0.1-0.2,0.1-0.3c0-0.1,0.1-0.2,0.2-0.4l0,0c0.2-0.3,0.3-0.6,0.4-0.8c0.1-0.2,0.3-0.5,0.5-0.8
		c0.2-0.3,0.4-0.7,0.6-1c0.7,0.9,1.5,1.8,2.2,2.6c0.4,0.4,0.8,0.8,1.2,1.2c0.4,0.4,0.8,0.8,1.2,1.1l1,1c0.2,0.2,0.4,0.3,0.6,0.5
		c0.2,0.2,0.6,0.5,1.1,0.9c0.3-0.3,0.5-0.6,0.6-1s0.2-0.7,0.2-1.1c0-0.2,0-0.4-0.1-0.6c0-0.2-0.1-0.5-0.1-0.6h-1.9l1.2-3.3h4.4
		l-0.9,1.8c0,0,0,0.1,0,0.3v0.4c0,0.8-0.1,1.6-0.3,2.6c-0.2,1-0.6,1.9-1.2,2.9c0.2,0.2,0.5,0.4,0.7,0.5c0.2,0.2,0.4,0.3,0.6,0.5
		c0.2,0.1,0.4,0.3,0.6,0.4c0.2,0.1,0.4,0.3,0.7,0.4C90.7,23.2,90.4,23.7,90.1,24.3z"/>
	<polygon class="st0" points="78,14.8 78,14.8 78,14.8 	"/>
	<path class="st2" d="M304.9,18L304.9,18c0.1,0,0.1,0.1,0.2,0.1l-0.3-0.3C304.8,17.9,304.8,18,304.9,18z"/>
	<path class="st2" d="M332.5,24.4l-0.1-0.1C332.4,24.3,332.5,24.4,332.5,24.4z"/>
	<path class="st2" d="M325,16.7l-0.7,2.3h2.3c0.1,0.4,0.2,0.7,0.2,1v0.2h-3.5c-1,0-1.6-0.8-1.9-2.5c0-0.4,0.1-0.7,0.1-1
		c0-0.3,0.1-0.5,0.1-0.7c0.1-0.4,0.4-0.6,0.8-0.6c0.1,0,0.3,0,0.5,0c0.2,0,0.4,0,0.6,0l3.8,0l1.7-3.6h-8c-1.7,2.7-2.6,5.1-2.6,7
		c0,1.4,0.4,2.6,1.2,3.8c0.4,0.4,0.7,0.7,1.2,0.9c0.5,0.2,1,0.3,1.5,0.3h3c0.2,0.5,0.3,1.2,0.3,1.9c1.4-1.7,2.5-3.5,3.2-5.5h-0.2
		c0-0.2,0.1-0.5,0.1-0.7c0-0.3,0-0.5,0-0.8v-0.4c0-0.2,0-0.3,0-0.3l0.8-1.3H325z"/>
	<path class="st2" d="M304.7,17.8L304.7,17.8C304.6,17.7,304.7,17.8,304.7,17.8z"/>
	<path class="st2" d="M315.1,21.8c-0.2-0.1-0.4-0.3-0.6-0.5c-0.2-0.2-0.4-0.3-0.7-0.5c0.6-1,1-1.9,1.2-2.9c0.2-1,0.3-1.8,0.3-2.6
		v-0.4c0-0.2,0-0.3,0-0.3l0.9-1.8h-4.4l-1.2,3.3h1.9c0.1,0.2,0.1,0.4,0.1,0.6c0,0.2,0,0.5,0,0.6c0,0.4-0.1,0.8-0.2,1.1
		s-0.3,0.6-0.6,1c-0.5-0.4-0.8-0.7-1.1-0.9c-0.2-0.2-0.4-0.3-0.6-0.5l-1-1c-0.4-0.4-0.8-0.8-1.2-1.1c-0.4-0.4-0.8-0.8-1.2-1.2
		c-0.8-0.9-1.5-1.7-2.2-2.6c-0.2,0.4-0.4,0.7-0.6,1c-0.2,0.3-0.3,0.6-0.5,0.8c-0.1,0.3-0.2,0.5-0.4,0.8l0,0
		c-0.1,0.2-0.1,0.3-0.2,0.4c0,0.1-0.1,0.2-0.1,0.3c0.2,0.2,0.4,0.5,0.6,0.7c0.2,0.2,0.4,0.4,0.5,0.6c0.2,0.2,0.4,0.4,0.6,0.7
		c0.2,0.2,0.5,0.5,0.8,0.8c-0.3,0.5-0.6,0.9-0.8,1.3c-0.2,0.4-0.4,0.9-0.5,1.3c-0.1,0.4-0.2,0.8-0.2,1.2c0,0.4-0.1,0.7-0.1,1
		c0,0.5,0.1,0.9,0.2,1.2c0.2,0.4,0.4,0.7,0.6,1c0.2,0.3,0.5,0.6,0.7,0.8l0.3-0.5c0.7-1,1.3-1.9,2-2.8c-0.3-0.2-0.5-0.4-0.5-0.6
		c0-0.2-0.1-0.5-0.1-1s0.1-0.8,0.3-1.1c1.1,1.1,2.2,2.1,3.3,3.1c1.1,1,2.3,1.9,3.4,2.7c0.4-0.6,0.8-1.1,1.2-1.7
		c0.3-0.5,0.6-1.1,0.9-1.6c-0.2-0.2-0.5-0.3-0.6-0.4C315.4,22.1,315.3,22,315.1,21.8z"/>
	<path class="st2" d="M359.7,21.3c-0.2-0.3-0.4-0.7-0.5-1.1l-0.8-3.1c0-0.2-0.1-0.4-0.1-0.6c-0.1-0.2-0.1-0.3-0.1-0.4l-0.2-0.8
		c-0.1-0.4-0.2-0.8-0.2-1.1c-0.1-0.3-0.1-0.6-0.2-0.8c-0.1-0.4-0.4-0.7-0.8-1.1c-0.4-0.3-0.9-0.5-1.6-0.5c-1.3,0-2.5,0.4-3.7,1
		c-1.2,0.6-2.1,1.5-2.7,2.6c-1.1,2-1.6,3.7-1.6,5.2c0,0.9,0.2,1.7,0.5,2.5c0.5,1.2,1.6,1.8,3.1,1.8c1.2,0,2.2-0.3,3.1-1
		c0.7-1.1,1-2.3,1.1-3.6c-0.3,0.1-0.6,0.3-0.9,0.4c-0.3,0.1-0.5,0.2-0.8,0.3c-0.4,0.2-0.9,0.2-1.3,0.2c-0.8,0-1.3-0.4-1.6-1.2
		c-0.2-0.7-0.3-1.2-0.3-1.5c0-0.4,0.1-1,0.3-1.7c1.1-1,2.2-1.5,3.4-1.5c0.3,0,0.5,0,0.8,0.1c0.2,0.1,0.3,0.2,0.5,0.2
		c0.1,0.1,0.1,0.3,0.2,0.5c0.1,0.2,0.1,0.4,0.1,0.6l0.7,4.3c0.2,1.6,0.7,3.2,1.3,4.9l1.4-1.8h0l0,0c0,0,0.1-0.1,0.1-0.1
		c0-0.1,0.1-0.1,0.2-0.2l1.3-1.6C360.2,21.8,359.9,21.5,359.7,21.3z"/>
	<path class="st2" d="M291.3,11.7c-0.6-0.7-1.2-1.2-1.8-1.8c-0.4,0.5-0.8,1.1-1.2,1.7c-0.4,0.6-0.8,1.2-1.2,2c1,0.6,1.9,1.4,2.6,2.3
		c0.1,0.1,0.1,0.2,0.2,0.3c0.1,0.1,0.1,0.2,0.1,0.3c0,0.1,0.1,0.2,0.1,0.3c0,0.1,0,0.3,0,0.5c0.1,0.6,0.1,1.1,0.1,1.7
		c0,0.5,0,1,0,1.5v3.1c0,0.2,0,0.3,0,0.4v0.6h0h0l0,3.4c0.5-0.5,0.9-1,1.3-1.5c0.4-0.5,0.8-1.1,1.1-1.6l0.2-4.5
		c0-0.9,0.1-1.7,0.1-2.6c0-1.3,0-2.6-0.1-3.8C292.4,13.1,291.8,12.4,291.3,11.7z"/>
	<path class="st2" d="M339,14.3c-0.2,0.6-0.4,1.1-0.6,1.7c0.1,1.7,0.5,3.3,1,5h-3.7c-0.4,0-0.6-0.1-0.8-0.4
		c-0.2-0.2-0.3-0.5-0.4-0.9c0-0.2-0.1-0.4-0.1-0.6c0-0.2,0-0.4-0.1-0.6l-0.3-4.2c0-0.6-0.1-1.1-0.1-1.5c0-0.5,0-0.8-0.1-1.1
		c-1.2,1.1-2,2.3-2.5,3.7l0.3,5.4c0,0.1,0,0.3,0,0.5c0,0.2,0,0.4,0.1,0.6c0,0.2,0,0.4,0.1,0.6c0,0.2,0.1,0.4,0.1,0.6
		c0.1,0.4,0.3,0.7,0.5,1c0.2,0.2,0.5,0.4,0.9,0.5c0.1,0,0.2,0,0.2,0c0.1,0,0.2,0,0.2,0h0.3c0.1,0,0.2,0,0.2,0l6.4,0
		c0.1,0.3,0.3,0.6,0.4,0.9c0.1,0.3,0.2,0.6,0.4,1c1.6-1.9,2.6-3.7,3.1-5.4h-2.1c-0.3-0.9-0.6-1.7-0.8-2.5c-0.2-0.8-0.4-1.6-0.5-2.4
		h2.4l1-2.3l0.2-0.3l0,0c0.1-0.1,0.1-0.2,0.1-0.2l0.3-0.7h-5.4C339.5,13.1,339.2,13.7,339,14.3z"/>
	<path class="st2" d="M298.9,13.2c-0.5-0.5-1-0.9-1.5-1.4c-0.2,0.4-0.4,0.7-0.5,1c-0.2,0.3-0.3,0.6-0.5,0.9
		c-0.2,0.3-0.4,0.5-0.6,0.8c-0.2,0.3-0.5,0.5-0.8,0.8c1.2,0.8,2.2,1.6,2.9,2.5c0.2,0.3,0.2,0.6,0.3,0.9c0,0.3,0.1,0.8,0.1,1.3
		c0,0.3,0,0.5,0,0.7c0,0.2,0,0.4,0,0.5V22l0,0V26c1.1-1,2-2.2,2.6-3.4l0-3.5v-1.3c0-1.2-0.2-2.2-0.6-2.9
		C299.9,14.2,299.4,13.7,298.9,13.2z"/>
	<path class="st0" d="M292.9,13.3c-0.2-0.3-0.5-0.7-0.8-1c-0.8-1-1.7-1.9-2.7-2.8c-0.5,0.7-1,1.3-1.5,2c-0.4,0.7-0.9,1.4-1.3,2.2
		c0.1,0,0.2,0.1,0.2,0.1c0.1,0,0.1,0.1,0.2,0.1l0.2,0.2c0.1,0.1,0.2,0.1,0.3,0.2c0.1,0.1,0.2,0.1,0.3,0.2c0.3,0.2,0.6,0.5,0.8,0.7
		c0.3,0.2,0.5,0.5,0.8,0.8c0,0,0,0.1,0,0.1c0,0,0,0,0,0.1c0,0.1,0.1,0.2,0.1,0.2c0.1,0.1,0.1,0.2,0.1,0.3v0c0,0,0,0.1,0,0.2
		c0,0.1,0,0.2,0,0.3c0.1,0.6,0.1,1.1,0.1,1.6c0,0.5,0,1,0,1.5v3.4l0,0h0l0,0.1v0.6l0,4.2c0-0.1,0.1-0.1,0.1-0.1l0.5,0.5
		c0.7-0.7,1.2-1.3,1.7-1.9c0.5-0.6,0.9-1.2,1.2-1.7l0.2-4.6c0-0.9,0.1-1.7,0.1-2.6c0-1.3,0-2.6-0.2-3.8
		C293.4,13.9,293.1,13.6,292.9,13.3z M292.9,20.2l-0.2,4.5c-0.3,0.5-0.7,1.1-1.1,1.6c-0.4,0.5-0.8,1-1.3,1.5l0-3.4h0h0v-0.6
		c0-0.1,0-0.2,0-0.4v-3.1c0-0.5,0-1,0-1.5c0-0.5-0.1-1.1-0.1-1.7c0-0.2,0-0.3,0-0.5c0-0.1,0-0.2-0.1-0.3c0-0.1-0.1-0.2-0.1-0.3
		c-0.1-0.1-0.1-0.2-0.2-0.3c-0.8-0.9-1.6-1.7-2.6-2.3c0.4-0.7,0.8-1.3,1.2-2c0.4-0.6,0.8-1.1,1.2-1.7c0.7,0.5,1.3,1.1,1.8,1.8
		c0.6,0.7,1.1,1.4,1.6,2.1c0.1,1.2,0.1,2.5,0.1,3.8C293,18.5,293,19.3,292.9,20.2z"/>
	<path class="st0" d="M300.9,14.9c-0.1-0.1-0.2-0.2-0.2-0.3c-0.5-0.6-1-1.1-1.5-1.7c-0.5-0.5-1.1-1.1-1.8-1.6
		c-0.2,0.4-0.4,0.8-0.6,1.2s-0.3,0.7-0.5,1c-0.2,0.3-0.4,0.6-0.7,0.9s-0.6,0.7-1,1c0.1,0.1,0.2,0.1,0.3,0.2l0.3,0.3
		c0.2,0.1,0.5,0.3,0.7,0.5c0.2,0.1,0.4,0.3,0.6,0.4c0.2,0.2,0.5,0.4,0.7,0.6c0.2,0.2,0.4,0.4,0.6,0.6c0.1,0.2,0.2,0.5,0.3,0.9
		c0,0.3,0.1,0.7,0.1,1.2c0,0.3,0,0.5,0,0.8c0,0.2,0,0.4,0,0.5v5.4l0.1-0.1l0.5,0.5c1.4-1.3,2.4-2.6,3.1-4l0-3.6v-1.3
		c0-1.3-0.2-2.3-0.6-3C301,15.1,300.9,15,300.9,14.9z M301,19l0,3.5c-0.6,1.3-1.5,2.4-2.6,3.4v-4.1l0,0v-0.6c0-0.1,0-0.3,0-0.5
		c0-0.2,0-0.4,0-0.7c0-0.5,0-1-0.1-1.3c0-0.3-0.1-0.6-0.3-0.9c-0.7-0.9-1.7-1.8-2.9-2.5c0.3-0.3,0.6-0.6,0.8-0.8
		c0.2-0.3,0.4-0.5,0.6-0.8c0.2-0.3,0.3-0.6,0.5-0.9c0.2-0.3,0.3-0.7,0.5-1c0.5,0.4,1,0.9,1.5,1.4c0.5,0.5,0.9,1,1.4,1.6
		c0.4,0.7,0.6,1.7,0.6,2.9V19z"/>
	<path class="st0" d="M316.7,22.6c-0.5-0.3-0.8-0.5-1.1-0.7s-0.5-0.4-0.7-0.5l-0.2-0.2h0c0,0,0,0,0,0c0.5-0.9,0.9-1.9,1.1-2.8
		c0.2-0.9,0.3-1.8,0.3-2.5v-0.4c0-0.1,0-0.3,0-0.3l1-2.1l-0.5-0.4l0.1-0.2h-5.1l-1.5,4h0.2l0.4,0.4h1.6c0,0.1,0,0.2,0,0.3
		c0,0.1,0,0.2,0,0.2c0,0.6-0.2,1.1-0.5,1.6c-0.4-0.3-0.7-0.5-1-0.7c-0.2-0.2-0.4-0.3-0.5-0.4l-1-1c-0.4-0.4-0.8-0.8-1.2-1.1
		c-0.4-0.4-0.8-0.8-1.2-1.2c-0.4-0.4-0.8-0.9-1.3-1.5c-0.5-0.6-0.9-1.1-1.2-1.5c-0.1,0.2-0.2,0.3-0.3,0.6c-0.1,0.2-0.2,0.4-0.3,0.6
		c-0.1,0.1-0.2,0.2-0.2,0.4c-0.1,0.1-0.1,0.2-0.2,0.3l0,0c0,0-0.1,0.1-0.1,0.1c0,0,0,0.1-0.1,0.1c0,0-0.1,0.1-0.1,0.1
		c0,0-0.1,0.1-0.1,0.1l0,0h0l0,0c0,0.1-0.1,0.3-0.1,0.4c-0.1,0.1-0.1,0.3-0.2,0.4c0,0-0.1,0.1-0.1,0.3c0,0,0,0.1,0,0.1
		c0,0,0,0.1,0,0.1l0,0.1c0,0,0,0.1-0.1,0.1c0,0,0,0,0,0.1c0.2,0.2,0.4,0.5,0.5,0.7c0.2,0.2,0.4,0.4,0.5,0.6c0.2,0.2,0.4,0.4,0.6,0.7
		c0.2,0.2,0.5,0.5,0.8,0.8c-0.6,0.9-1.1,1.8-1.2,2.6c-0.2,0.8-0.3,1.6-0.3,2.2c0,0.6,0.1,1,0.3,1.4c0.2,0.4,0.4,0.8,0.7,1.1
		c0.3,0.4,0.6,0.7,1,1.1l0,0l0.2,0.2c0,0,0.1,0.1,0.1,0.1c0,0,0.1,0.1,0.1,0.1l0.5-0.8c0.3-0.5,0.6-1,1-1.5c0.4-0.5,0.7-1,1.1-1.5
		l-0.5-0.5l0.1-0.1c-0.1,0-0.2-0.1-0.3-0.2c0-0.1,0-0.2,0-0.3v-0.5c0-0.2,0-0.5,0.1-0.7c0.6,0.6,1.3,1.2,1.9,1.8
		c0.6,0.6,1.3,1.1,1.9,1.7c0.5,0.4,1,0.8,1.5,1.2c0.5,0.4,1,0.8,1.5,1.1c0.5-0.6,0.9-1.3,1.3-1.9c0.4-0.6,0.7-1.2,1-1.8L316.7,22.6
		L316.7,22.6z M304.9,18L304.9,18c-0.1,0-0.1-0.1-0.1-0.1l0,0c0,0-0.1-0.1-0.1-0.1l0.1,0.1c0,0,0,0,0,0c0,0,0,0,0,0l0.3,0.3
		C305,18.1,304.9,18.1,304.9,18z M315.4,24.3c-0.3,0.5-0.7,1.1-1.2,1.7c-1.1-0.8-2.3-1.8-3.4-2.7c-1.1-1-2.2-2-3.3-3.1
		c-0.2,0.3-0.3,0.7-0.3,1.1s0,0.8,0.1,1c0.1,0.2,0.2,0.4,0.5,0.6c-0.7,0.8-1.3,1.8-2,2.8l-0.3,0.5c-0.3-0.2-0.5-0.5-0.7-0.8
		c-0.2-0.3-0.4-0.7-0.6-1c-0.2-0.3-0.2-0.7-0.2-1.2c0-0.3,0-0.6,0.1-1c0-0.4,0.1-0.8,0.2-1.2c0.1-0.4,0.3-0.9,0.5-1.3
		c0.2-0.4,0.5-0.9,0.8-1.3c-0.3-0.3-0.6-0.5-0.8-0.8c-0.2-0.2-0.5-0.5-0.6-0.7c-0.2-0.2-0.4-0.4-0.5-0.6c-0.2-0.2-0.4-0.4-0.6-0.7
		c0-0.1,0.1-0.2,0.1-0.3c0-0.1,0.1-0.2,0.2-0.4l0,0c0.2-0.3,0.3-0.6,0.4-0.8c0.1-0.2,0.3-0.5,0.5-0.8c0.2-0.3,0.3-0.7,0.6-1
		c0.7,0.9,1.5,1.8,2.2,2.6c0.4,0.4,0.8,0.8,1.2,1.2c0.4,0.4,0.8,0.8,1.2,1.1l1,1c0.2,0.2,0.4,0.3,0.6,0.5c0.2,0.2,0.6,0.5,1.1,0.9
		c0.3-0.3,0.5-0.6,0.6-1s0.2-0.7,0.2-1.1c0-0.2,0-0.4,0-0.6c0-0.2-0.1-0.5-0.1-0.6h-1.9l1.2-3.3h4.4l-0.9,1.8c0,0,0,0.1,0,0.3v0.4
		c0,0.8-0.1,1.6-0.3,2.6c-0.2,1-0.6,1.9-1.2,2.9c0.2,0.2,0.5,0.4,0.7,0.5c0.2,0.2,0.4,0.3,0.6,0.5c0.2,0.1,0.4,0.3,0.6,0.4
		c0.2,0.1,0.4,0.3,0.6,0.4C316,23.2,315.7,23.7,315.4,24.3z"/>
	<path class="st0" d="M304.7,17.8L304.7,17.8C304.7,17.9,304.7,17.8,304.7,17.8C304.7,17.8,304.7,17.8,304.7,17.8z"/>
	<path class="st0" d="M329.3,18.5l1-1.6l-0.5-0.4l0.1-0.2h-5.2l-0.9,3h0.2l0.4,0.4h2c0,0.1,0,0.2,0,0.2h-3.2c-0.3,0-0.5-0.1-0.7-0.2
		c-0.2-0.4-0.4-0.8-0.5-1.4c0,0,0-0.1,0-0.1c0,0,0-0.1,0-0.1c0-0.3,0.1-0.5,0.1-0.8c0-0.2,0.1-0.5,0.1-0.6c0.1-0.3,0.2-0.4,0.6-0.5
		c0.1,0,0.3,0,0.5,0c0.2,0,0.4,0,0.6,0l4,0l1.9-4.1l-0.5-0.4h0h0l0.1-0.2h-8.7c-1.8,2.9-2.8,5.3-2.8,7.3c0,1.5,0.5,2.8,1.4,4.1
		c0.2,0.3,0.5,0.5,0.7,0.7c0.3,0.3,0.6,0.5,0.9,0.6c0.3,0.1,0.6,0.2,0.9,0.2c0.3,0.1,0.5,0.1,0.8,0.1h2.3c0,0.3,0.1,0.6,0.1,0.9
		c0,0.3,0,0.7,0,1.1c0,0,0.1-0.1,0.1-0.1l0.5,0.5c1.7-2,3-4.1,3.8-6.4l-0.2-0.2c0-0.2,0-0.4,0-0.5V18.5z M328.6,18.3v0.4
		c0,0.3,0,0.6,0,0.8c0,0.2,0,0.5-0.1,0.7h0.2c-0.7,2-1.8,3.8-3.2,5.5c0-0.7-0.1-1.4-0.3-1.9h-3c-0.5,0-1-0.2-1.5-0.3
		c-0.4-0.2-0.8-0.5-1.2-0.9c-0.8-1.2-1.2-2.4-1.2-3.8c0-2,0.9-4.3,2.6-7h8l0,0l0,0h0l-1.7,3.6l-3.8,0c-0.2,0-0.5,0-0.6,0
		c-0.2,0-0.3,0-0.5,0c-0.4,0-0.7,0.2-0.8,0.6c0,0.2-0.1,0.4-0.1,0.7c0,0.3-0.1,0.6-0.1,1c0.3,1.6,0.9,2.4,1.9,2.5h3.5V20
		c0-0.3-0.1-0.7-0.2-1h-2.3l0.7-2.3h4.4l-0.8,1.3C328.6,18,328.6,18.1,328.6,18.3z"/>
	<polygon class="st0" points="328.9,11.8 328.9,11.8 328.9,11.8 	"/>
	<path class="st0" d="M345.7,12.2h-6.1c-0.3,0.7-0.6,1.3-0.8,1.9c-0.2,0.6-0.4,1.2-0.6,1.8c0.1,0.8,0.2,1.6,0.3,2.4
		c0.1,0.8,0.3,1.6,0.6,2.4h-3.2c-0.1,0-0.2,0-0.3-0.1c0-0.1-0.1-0.3-0.1-0.5l0,0v0c0-0.1-0.1-0.2-0.1-0.3c0-0.1,0-0.1,0-0.2
		c0-0.1,0-0.2,0-0.3c0-0.1,0-0.2,0-0.3l-0.3-4.2c0-0.3-0.1-0.6-0.1-0.9c0-0.3,0-0.6,0-0.9c0-0.3,0-0.6,0-0.8c0-0.2,0-0.5,0-0.6
		l-0.4-0.4V11c-1.5,1.4-2.6,2.9-3.2,4.4l0.3,5.5V21c0,0,0,0.1,0,0.1c0,0,0,0,0,0.1c0,0,0,0.1,0,0.1c0,0.1,0,0.1,0,0.2
		c0,0.1,0,0.2,0,0.2c0,0.1,0,0.2,0,0.2c0,0.2,0,0.4,0,0.6c0,0.2,0.1,0.4,0.1,0.6c0.1,0.2,0.1,0.4,0.2,0.6c0.1,0.2,0.2,0.4,0.3,0.5
		c0.2,0.2,0.3,0.4,0.5,0.5l0.2,0.1c0.2,0.2,0.5,0.4,0.9,0.4h0c0.1,0,0.2,0,0.2,0c0.1,0,0.2,0,0.3,0h0.3c0.1,0,0.2,0,0.2,0l5.9,0
		c0.1,0.3,0.2,0.5,0.3,0.8c0.1,0.3,0.2,0.6,0.3,0.9c0,0,0.1-0.1,0.1-0.1l0.5,0.5c0.9-1.1,1.6-2.2,2.2-3.2c0.6-1,1-2,1.3-3l-0.5-0.4
		c0,0,0-0.1,0-0.1H343c-0.2-0.7-0.4-1.3-0.6-2c-0.2-0.6-0.3-1.2-0.4-1.9h2.3l1-2.5l0.1-0.2c0,0,0.1-0.1,0.1-0.1c0,0,0.1-0.1,0.1-0.2
		l0.5-1l-0.5-0.4L345.7,12.2z M332.4,24.3l0.1,0.1C332.5,24.4,332.4,24.3,332.4,24.3z M344.8,13.3c0,0.1-0.1,0.1-0.1,0.2l0,0
		l-0.2,0.3l-1,2.3h-2.4c0.1,0.8,0.3,1.5,0.5,2.4c0.2,0.8,0.5,1.7,0.8,2.5h2.1c-0.5,1.7-1.6,3.5-3.1,5.4c-0.1-0.3-0.2-0.7-0.4-1
		c-0.1-0.3-0.2-0.6-0.4-0.9l-6.4,0c0,0-0.1,0-0.2,0h-0.3c-0.1,0-0.2,0-0.2,0c-0.1,0-0.2,0-0.2,0c-0.4-0.1-0.7-0.2-0.9-0.5
		c-0.2-0.3-0.4-0.6-0.5-1c-0.1-0.2-0.1-0.4-0.1-0.6c0-0.2,0-0.4-0.1-0.6c0-0.2,0-0.4-0.1-0.6c0-0.2,0-0.3,0-0.5l-0.3-5.4
		c0.5-1.4,1.3-2.7,2.5-3.7c0,0.3,0,0.7,0.1,1.1c0,0.5,0.1,1,0.1,1.5l0.3,4.2c0,0.2,0.1,0.4,0.1,0.6c0,0.2,0.1,0.4,0.1,0.6
		c0.1,0.4,0.2,0.7,0.4,0.9c0.2,0.2,0.4,0.3,0.8,0.4h3.7c-0.5-1.7-0.8-3.3-1-5c0.2-0.6,0.3-1.1,0.6-1.7c0.2-0.6,0.5-1.1,0.8-1.7h5.4
		L344.8,13.3z"/>
	<path class="st0" d="M361.1,22.2c-0.2-0.1-0.3-0.3-0.5-0.4c-0.1-0.1-0.3-0.2-0.4-0.4c-0.1-0.2-0.2-0.5-0.2-0.8l0,0l-0.8-3.1
		c0-0.2-0.1-0.4-0.1-0.5s-0.1-0.3-0.2-0.5l0,0l-0.2-0.8c-0.1-0.3-0.2-0.7-0.2-1c-0.1-0.3-0.2-0.6-0.2-0.9c-0.2-0.4-0.4-0.8-0.8-1.2
		c-0.1-0.1-0.1-0.2-0.2-0.3c-0.1-0.1-0.2-0.2-0.3-0.3c-0.5-0.4-1.1-0.6-1.8-0.6c-0.7,0-1.4,0.1-2,0.3c-0.6,0.2-1.3,0.4-1.9,0.8h0
		c-1.3,0.6-2.2,1.6-2.8,2.8c-1.1,2-1.6,3.7-1.6,5.3c0,1,0.2,1.8,0.5,2.6c0.3,0.7,0.7,1.1,1.2,1.5l0,0c0.6,0.6,1.5,1,2.7,1
		c1.2,0,2.3-0.3,3.3-1c0.7-1.2,1.1-2.6,1.2-4.1l-0.4-0.4v-0.2c0,0-0.1,0-0.1,0.1c-0.1,0-0.1,0.1-0.2,0.1c-0.1,0-0.2,0.1-0.4,0.1
		c-0.1,0.1-0.2,0.1-0.3,0.1c-0.1,0-0.2,0.1-0.2,0.1c-0.1,0-0.2,0.1-0.2,0.1c-0.1,0-0.2,0.1-0.3,0.1c-0.1,0-0.2,0.1-0.3,0.1
		c-0.4,0.1-0.8,0.2-1.2,0.2c-0.3,0-0.6-0.1-0.8-0.2c0-0.1,0-0.2,0-0.2h0c-0.2-0.6-0.3-1.1-0.3-1.4c0-0.4,0.1-1,0.3-1.5
		c1.1-1,2.1-1.5,3.1-1.5c0.2,0,0.4,0,0.6,0.1v0c0.1,0.2,0.1,0.4,0.2,0.7l0.7,4.3c0.1,0.8,0.3,1.7,0.6,2.6c0.3,0.9,0.6,1.9,1,2.9
		l0.1-0.1l0.5,0.5l1.7-2.1l0,0c0-0.1,0.1-0.1,0.1-0.2s0.1-0.1,0.2-0.2l1.5-1.8L361.1,22.2L361.1,22.2z M360.5,21.7
		C360.5,21.7,360.5,21.8,360.5,21.7c0.1,0.1,0.1,0.1,0.1,0.1L360.5,21.7L360.5,21.7z M359.4,23.9c0,0.1-0.1,0.1-0.2,0.2
		c-0.1,0-0.1,0.1-0.1,0.1l0,0h0l-1.4,1.8c-0.7-1.7-1.1-3.3-1.3-4.9l-0.7-4.3c0-0.2-0.1-0.4-0.1-0.6c0-0.2-0.1-0.4-0.2-0.5
		c-0.1-0.1-0.2-0.2-0.5-0.2c-0.3,0-0.6-0.1-0.8-0.1c-1.1,0-2.2,0.5-3.4,1.5c-0.2,0.7-0.3,1.3-0.3,1.7c0,0.3,0.1,0.8,0.3,1.5
		c0.3,0.8,0.8,1.2,1.6,1.2c0.4,0,0.8-0.1,1.3-0.2c0.2-0.1,0.5-0.2,0.8-0.3c0.3-0.1,0.6-0.2,0.9-0.4c0,1.3-0.4,2.5-1.1,3.6
		c-0.9,0.6-1.9,1-3.1,1c-1.6,0-2.6-0.6-3.1-1.8c-0.4-0.8-0.5-1.6-0.5-2.5c0-1.5,0.5-3.2,1.6-5.2c0.6-1.1,1.5-2,2.7-2.6
		c1.2-0.7,2.4-1,3.7-1c0.7,0,1.2,0.2,1.6,0.5c0.4,0.4,0.6,0.8,0.8,1.1c0.1,0.2,0.1,0.4,0.2,0.8c0.1,0.3,0.2,0.7,0.2,1.1l0.2,0.8
		c0,0.1,0.1,0.3,0.1,0.4c0.1,0.2,0.1,0.4,0.1,0.6l0.8,3.1c0.1,0.4,0.2,0.8,0.5,1.1c0.2,0.2,0.5,0.5,1,0.9L359.4,23.9z"/>
	<path class="st0" d="M360.6,21.8C360.5,21.8,360.5,21.7,360.6,21.8L360.6,21.8L360.6,21.8C360.6,21.8,360.6,21.8,360.6,21.8z"/>
	<g>
		<path class="st1" d="M273.6,8.9v-2H103.8v2l-7.6,20.9c15.8,1.9,31.6,2.5,47.3,0c17.1-2.1,34-2.3,50.5,0c20.6,2.5,40.5,2.4,59.8,0
			c10.2-1.1,18.6-0.3,26.3,1.3L273.6,8.9L273.6,8.9z M113.8,30.6c-2.8-1.7-6.8-2.4-12.7-1.5l16.5-18L113.8,30.6L113.8,30.6
			L113.8,30.6z M137.1,29c3.3-7.4,9-14.2,19-19.8c7.9,4.6,12.4,10.6,14.2,17.8C167.2,25.4,143,27.7,137.1,29L137.1,29z M208.4,29.4
			c-2.6-1.9-19.7-4-25.8-3.5c5.2-6.9,6.2-9.2,17.5-13.4C206.5,18,208.6,22.1,208.4,29.4L208.4,29.4L208.4,29.4z M241.4,27.6
			c3.3-7.4-3-12.4,6.9-18c7.8,4.6,23.5,10.8,25.2,18C270.6,26,247.3,26.3,241.4,27.6L241.4,27.6z"/>
		<path class="st2" d="M113.9,30.6l3.8-19.5l-16.5,18C107,28.1,111.1,28.8,113.9,30.6L113.9,30.6L113.9,30.6z"/>
		<path class="st2" d="M156.1,9.2c-9.9,5.6-15.7,12.4-19,19.8c5.9-1.3,30.1-3.6,33.1-2C168.5,19.8,163.9,13.8,156.1,9.2L156.1,9.2z"
			/>
		<path class="st2" d="M200.1,12.5c-11.3,4.2-12.2,6.5-17.5,13.4c6.1-0.5,23.3,1.6,25.8,3.5C208.6,22.1,206.5,18,200.1,12.5
			L200.1,12.5L200.1,12.5z"/>
		<path class="st2" d="M248.4,9.6c-9.9,5.6-3.6,10.5-6.9,18c5.9-1.3,29.2-1.6,32.2,0C271.9,20.4,256.3,14.2,248.4,9.6
			C248.4,9.6,248.4,9.6,248.4,9.6z"/>
	</g>
	<path class="st3" d="M255,19.2c0.1,0,0.1,0.1,0.2,0.2l-0.3-0.3C254.9,19.1,254.9,19.2,255,19.2L255,19.2L255,19.2z"/>
	<path class="st0" d="M241.1,19.2C241.1,19.2,241.1,19.2,241.1,19.2L241.1,19.2L241.1,19.2L241.1,19.2L241.1,19.2z"/>
	<path class="st0" d="M242.7,19.3l-0.2-0.2v0.2H242.7z"/>
	<path class="st0" d="M254.8,19.1l0.1,0.1c0,0,0,0,0,0C254.8,19.2,254.8,19.2,254.8,19.1z"/>
</g>
</svg>
