<?xml version="1.0" encoding="utf-8"?>
<!-- Generator: Adobe Illustrator 27.7.0, SVG Export Plug-In . SVG Version: 6.00 Build 0)  -->
<svg version="1.1" id="Layer_1" xmlns="http://www.w3.org/2000/svg" xmlns:xlink="http://www.w3.org/1999/xlink" x="0px" y="0px"
	 viewBox="0 0 216 9.1" style="enable-background:new 0 0 216 9.1;" xml:space="preserve">
<style type="text/css">
	.st0{clip-path:url(#SVGID_00000050627790306306349560000003430499084695209123_);}
	.st1{fill:#F5914D;}
	.st2{fill:#F5F7ED;}
	.st3{fill:#2E4529;}
	.st4{fill:#6E00CC;}
	.st5{clip-path:url(#SVGID_00000154423956389040080940000004469998371675895953_);}
	.st6{fill:#B58245;}
	.st7{fill:#F7FAED;}
	.st8{fill:#242429;}
	.st9{clip-path:url(#SVGID_00000091013671654652633930000017123700680536196239_);}
	.st10{fill:#125C8F;}
	.st11{clip-path:url(#SVGID_00000124135645050824811280000001220340055133878149_);}
	.st12{clip-path:url(#SVGID_00000136406124622297343690000004844760017480941709_);}
</style>
<g>
	<defs>
		<rect id="SVGID_1_" x="-0.2" y="-0.1" width="216" height="9.6"/>
	</defs>
	<clipPath id="SVGID_00000021109689500696321840000012502272549707238026_">
		<use xlink:href="#SVGID_1_"  style="overflow:visible;"/>
	</clipPath>
	<g style="clip-path:url(#SVGID_00000021109689500696321840000012502272549707238026_);">
		<path class="st1" d="M215.8,0.1V4c-0.1,0-0.3,0-0.4,0c-0.9,0-1.8,0.1-2.7,0c-0.1,0-0.2,0-0.2,0h-0.2c0,0,0,0,0,0
			c0,0-0.1-0.1-0.1-0.1c-0.9-0.5-1.8-1-2.7-1.5c-0.3-0.2-0.6-0.3-0.9-0.5c-0.2-0.1-0.3-0.2-0.2-0.4c0.2-0.5,0.3-1,0.5-1.5
			C211.2,0.1,213.5,0.1,215.8,0.1"/>
		<path class="st1" d="M215.5,8.9c0.1,0,0.2,0.1,0.2,0.2c0,0.1-0.2,0-0.3,0c-0.7,0-1.4,0-2.2,0c-1.2,0-2.4,0-3.6,0
			c-1.4,0-2.7,0-4.1,0c-0.2,0-0.4,0-0.6,0c-0.1,0,0-0.1,0-0.1c0.4-0.8,0.9-1.6,1.3-2.4c0.1-0.1,0.1-0.1,0.2-0.1c0.5,0,0.9,0,1.4,0
			c1.1,0,2.2,0,3.3,0c0.1,0,0.2,0,0.2,0c0.1,0,0.1,0,0.1,0.1c0.7,0.4,1.4,0.8,2.1,1.2C214.2,8.2,214.8,8.5,215.5,8.9"/>
		<path class="st1" d="M215.5,6.2C215.5,6.2,215.5,6.3,215.5,6.2c-0.2,0-0.4,0-0.5,0c-0.9,0.1-1.9,0.2-2.8,0.3c-0.1,0-0.2,0-0.3,0
			c-0.2,0-0.4,0-0.6,0c-0.3-0.1-0.5-0.2-0.8-0.4c-0.7-0.5-1.4-0.9-2.1-1.4c-0.1,0-0.1-0.1-0.2-0.1c0,0,0,0,0-0.1
			c0.4,0,0.7-0.1,1.1-0.1c0.5-0.1,1.1-0.1,1.6-0.2c0.4,0,0.7-0.1,1.1-0.1c0,0,0.1,0,0.1,0h0.2c0,0,0,0,0,0c0.2,0.2,0.5,0.3,0.7,0.5
			c0.7,0.5,1.3,0.9,2,1.4C215.2,6.1,215.3,6.2,215.5,6.2"/>
		<path class="st2" d="M208.3,4.5C208.3,4.5,208.3,4.5,208.3,4.5c-0.1,0.1-0.1,0-0.2,0c0,0,0,0,0,0C208.2,4.5,208.3,4.5,208.3,4.5"
			/>
		<path class="st3" d="M208,4.3c0.1,0,0.1,0.1,0.1,0.1c0,0,0,0,0,0c0,0-0.1,0-0.2,0c-0.7,0-1.3,0-2,0.1c-0.4,0-0.8,0-1.3,0
			c-0.1,0-0.3,0-0.4,0c-0.1,0-0.1,0.1-0.2,0.1c-0.2,0.3-0.4,0.7-0.6,1c0,0.1-0.1,0.1-0.1,0.1c-0.1-0.2-0.2-0.4-0.3-0.6
			c-0.2-0.4-0.4-0.9-0.6-1.3c-0.2-0.3-0.3-0.7-0.5-1c0,0,0,0,0,0c0,0,0-0.1,0-0.1c1.1-0.6,2.3-1.2,3.3-1.8c0.1,0,0.1,0,0.2-0.1
			c-0.1,0.4-0.2,0.7-0.3,1.1c0,0.1-0.1,0.2-0.1,0.3c0,0.1,0,0.1,0.1,0.2C206.1,3.2,207,3.8,208,4.3"/>
		<path class="st3" d="M207.1,0.1C207.1,0.1,207.1,0.2,207.1,0.1c-0.5,0.3-1,0.6-1.5,0.8c0,0-0.1,0-0.1,0c0.1-0.2,0.2-0.5,0.3-0.7
			c0.1-0.1,0.2-0.2,0.4-0.2C206.5,0.1,206.8,0.1,207.1,0.1"/>
		<path class="st3" d="M204.5,8.8c0,0.1,0.2,0.2,0.1,0.3c-0.1,0-0.1,0-0.2,0c-0.8,0-1.6,0-2.4,0c-0.1,0-0.1,0-0.1-0.1
			c0-0.1,0.1-0.2,0.1-0.3c0.2-0.5,0.5-1,0.7-1.5c0.2-0.4,0.4-0.7,0.5-1.1c0,0,0-0.1,0.1,0c0.2,0.4,0.3,0.8,0.5,1.1
			C204.1,7.7,204.3,8.3,204.5,8.8"/>
		<path class="st4" d="M202,3C202,3,202,3,202,3c-0.2,0.1-0.3,0.2-0.5,0.3c-0.5,0.3-1.1,0.6-1.6,0.9c-0.1,0-0.1,0.1-0.1,0.1h-0.1
			c0-0.1,0-0.1-0.1-0.3c-0.2-0.5-0.4-0.9-0.6-1.4c0-0.1-0.1-0.1-0.1-0.2c0,0,0,0,0-0.1c0.2,0,0.3-0.1,0.4-0.1
			c0.6-0.3,1.1-0.7,1.8-0.9c0.1,0,0.1,0,0.1,0c0,0,0.1,0,0.1,0.1c0.1,0.4,0.3,0.7,0.4,1c0.1,0.2,0.2,0.4,0.2,0.5
			C201.9,2.8,201.9,2.9,202,3"/>
		<path class="st4" d="M200.8,0.1c0.7,0,1.4,0,2,0.1c-0.5,0.3-1,0.5-1.5,0.8c-0.1,0-0.1,0-0.1,0c-0.1,0-0.1-0.1-0.1-0.1
			C200.9,0.7,200.8,0.4,200.8,0.1C200.7,0.1,200.7,0.1,200.8,0.1"/>
		<path class="st4" d="M201.8,8.9c0.1,0.2,0.1,0.2-0.2,0.2c-0.2,0-0.3,0-0.5,0c-0.3,0-0.5,0-0.8,0c-0.2,0-0.5,0-0.7-0.1
			c-1.4-0.7-2.8-1.4-4.3-2.1c-0.1,0-0.2-0.1-0.3-0.2c0.4-0.2,0.9-0.5,1.3-0.7c1-0.5,2-1.1,3-1.6c0.2-0.1,0.3-0.1,0.3-0.2h0.1
			c0,0.1,0,0.1,0,0.2c0.2,0.4,0.3,0.8,0.5,1.2c0.2,0.3,0.3,0.7,0.4,1c0.2,0.5,0.4,0.9,0.6,1.4C201.5,8.2,201.7,8.5,201.8,8.9"/>
		<path class="st1" d="M198.9,2.1c0.1,0,0.1,0.1,0.1,0.1c0,0,0,0,0,0.1c-0.1,0-0.1,0.1-0.2,0.1c0-0.1-0.1-0.1-0.2-0.1
			c-1.3,0-2.6,0-4,0c-0.1,0-0.2,0-0.2,0.1l-0.5-0.1c0.1,0,0.2,0,0.4,0c0,0,0.1,0,0.1-0.1c0-0.2,0.2-0.4,0.3-0.6
			c0.2-0.4,0.4-0.8,0.5-1.2c0-0.1,0.1-0.1,0.1-0.1c0.2,0.1,0.4,0.2,0.6,0.4c0.9,0.5,1.8,1,2.7,1.5C198.7,2.1,198.8,2.1,198.9,2.1"/>
		<path class="st3" d="M198.5,1.3c0.1,0.3,0.2,0.5,0.3,0.8c-0.1,0-0.2,0-0.2,0c-0.9-0.5-1.8-1-2.7-1.5c-0.2-0.1-0.4-0.2-0.6-0.4
			c0,0,0-0.1,0-0.1c0.1,0,0.2,0,0.4,0c0.7,0,1.4,0,2.1,0c0.2,0,0.3,0.1,0.3,0.2C198.2,0.6,198.4,1,198.5,1.3"/>
		<path class="st3" d="M198.6,2.3c0.1,0,0.1,0,0.2,0.1c-0.4,0.3-0.9,0.5-1.4,0.8c-1.4,0.7-2.7,1.5-4.1,2.2c-0.1,0-0.2,0.1-0.2,0.1
			c0.1-0.2,0.1-0.3,0.2-0.5c0.1-0.2,0.2-0.4,0.3-0.6c0.1-0.1,0.1-0.3,0.2-0.5c0.1-0.2,0.2-0.4,0.3-0.6c0.2-0.3,0.3-0.6,0.5-0.9
			c0.1-0.1,0.1-0.1,0.2-0.1C195.9,2.3,197.3,2.3,198.6,2.3"/>
		<path class="st3" d="M195.3,9C195.3,9,195.4,9,195.3,9c0,0.1,0,0.1-0.1,0.1c-0.7,0-1.4,0-2.1,0c-0.5,0-1,0-1.5,0c-0.3,0-0.7,0-1,0
			c0,0-0.1,0-0.1,0c0.2-0.1,0.4-0.2,0.6-0.3c0.5-0.3,1.1-0.6,1.6-0.8c0.1,0,0.1-0.1,0.1-0.1h0.1c0,0,0,0.1,0.1,0.1
			C193.8,8.3,194.5,8.7,195.3,9"/>
		<path class="st4" d="M195.3,0.1C195.3,0.1,195.3,0.2,195.3,0.1c-0.1,0.1-0.1,0.1-0.1,0.2c-0.1,0.4-0.3,0.8-0.5,1.2
			c-0.1,0.2-0.3,0.4-0.3,0.6c0,0-0.1,0-0.1,0.1c-0.1,0-0.2,0-0.4,0c-0.1,0-0.1,0-0.2,0c-0.6,0-1.2,0-1.9,0c-0.1,0-0.2,0-0.3-0.1
			c0,0,0,0,0,0c-0.3-0.5-0.5-1-0.7-1.4c0-0.1,0-0.2-0.1-0.3c0-0.1,0.1-0.1,0.2-0.2c1.2-0.1,2.3,0,3.4,0C194.7,0.1,195,0.2,195.3,0.1
			"/>
		<path class="st3" d="M194.8,6.5c0.1,0.1,0.2,0.1,0.2,0.2c0,0-0.1,0.1-0.2,0.2c-0.6,0.3-1.2,0.6-1.8,0.9c-0.1,0-0.1,0.1-0.1,0.1
			h-0.1c0,0-0.1-0.1-0.1-0.1c-0.4-0.2-0.8-0.4-1.2-0.6c-0.3-0.1-0.5-0.3-0.8-0.4c0.3-0.2,0.6-0.3,0.9-0.5c0.4-0.2,0.9-0.5,1.3-0.7
			c0,0,0.1,0,0.1,0C193.6,5.8,194.2,6.2,194.8,6.5"/>
		<path class="st1" d="M193.9,2.2l0.5,0.1c-0.2,0.3-0.3,0.6-0.5,0.9c-0.1,0.2-0.2,0.4-0.3,0.6c-0.1,0.2-0.1,0.3-0.2,0.5
			c-0.1,0.2-0.2,0.4-0.3,0.6c-0.1,0.1-0.1,0.3-0.2,0.5c0,0-0.1,0-0.1,0.1c0,0-0.1,0-0.1,0c0,0-0.1-0.1-0.1-0.1c0.1,0,0.1-0.1,0-0.1
			c-0.2-0.5-0.4-0.9-0.6-1.4c-0.2-0.3-0.3-0.7-0.4-1c-0.1-0.2-0.2-0.4-0.2-0.5c0-0.1-0.1-0.2-0.3-0.2l0.3-0.1
			c0.1,0.1,0.2,0.1,0.3,0.1c0.6,0,1.2,0,1.9,0C193.8,2.2,193.9,2.2,193.9,2.2"/>
		<path class="st3" d="M192.8,5.3c0,0,0,0.1,0,0.1c-1.8-1.1-3.7-2.1-5.5-3.2c0.1,0,0.1,0,0.2,0c1.3,0,2.6,0,3.9,0
			c0.2,0,0.3,0,0.3,0.2c0,0.2,0.1,0.4,0.2,0.5c0.2,0.3,0.3,0.7,0.4,1C192.4,4.4,192.6,4.9,192.8,5.3"/>
		<path class="st1" d="M191.5,2.1C191.5,2.1,191.5,2.1,191.5,2.1l-0.2,0.1c-1.3,0-2.6,0-3.9,0c-0.1,0-0.1,0-0.2,0c0,0-0.1,0-0.1,0
			c0,0,0-0.1-0.1-0.1c0.1,0,0.1,0,0.2-0.1c0,0,0.1,0,0.1,0c0.5-0.3,1-0.5,1.5-0.8c0.5-0.3,1.1-0.6,1.6-0.8c0.2-0.1,0.3-0.2,0.3-0.3
			c0.1,0,0.2,0,0.3,0c-0.1,0-0.2,0.1-0.2,0.2c0,0.1,0,0.2,0.1,0.3C191.1,1.1,191.3,1.6,191.5,2.1"/>
		<path class="st4" d="M190.5,6.6c0.1,0,0.1,0.1,0.1,0.1c0,0,0,0.1-0.1,0.1c-0.3,0.1-0.5,0.3-0.8,0.4c-0.9,0.5-1.9,1-2.9,1.6
			c-0.1,0-0.1,0.1-0.2,0.1c-0.3,0.2-0.6,0.2-1,0.2c-0.5,0-0.9,0-1.4,0V8.6c0,0,0.1,0,0.1-0.1c0.2-0.5,0.4-1,0.7-1.5
			c0.3-0.8,0.7-1.6,1-2.4c0-0.1,0.1-0.1,0.1-0.2c0-0.1,0.1-0.1,0.1-0.2c0.1,0,0.1,0,0.3,0.1c0.6,0.3,1.1,0.7,1.7,1
			C189,5.7,189.7,6.1,190.5,6.6"/>
		<path class="st3" d="M190.7,0.1c0,0.2-0.2,0.2-0.3,0.3c-0.5,0.3-1.1,0.5-1.6,0.8c-0.5,0.3-1,0.5-1.5,0.8c0,0,0,0-0.1,0
			c0.1-0.3,0.2-0.6,0.3-0.8c0.2-0.4,0.3-0.7,0.5-1.1c0,0,0,0,0.1-0.1C188.9,0.1,189.8,0,190.7,0.1"/>
		<path class="st3" d="M187.1,2.2C187.1,2.2,187.1,2.2,187.1,2.2c-0.2,0.5-0.3,0.9-0.5,1.4c-0.1,0.2-0.1,0.4-0.3,0.6
			c-0.6-0.4-1.3-0.7-2-1.1c-0.1,0-0.1-0.1-0.2,0L184,2.9c0.1,0,0.1,0,0.1-0.1c0.2-0.4,0.4-0.8,0.5-1.2c0.1-0.2,0.2-0.4,0.2-0.6
			c0,0,0.1,0,0.1,0c0.1,0.1,0.3,0.2,0.5,0.3C186,1.6,186.5,1.9,187.1,2.2"/>
		<path class="st4" d="M185.3,0.1c0,0.2-0.2,0.5-0.2,0.7c0,0.1-0.1,0.1-0.1,0.2c0,0-0.1,0-0.1,0c-0.5-0.3-1.1-0.6-1.6-0.8
			c0,0,0,0,0,0L185.3,0.1L185.3,0.1z"/>
		<path class="st4" d="M184.3,8.6v0.5c-0.1,0-0.2,0-0.3,0c-0.2,0-0.1,0.1-0.1,0.1h-0.1c0.1-0.1-0.1-0.1-0.2-0.1c-1.6,0-3.1,0-4.7,0
			c-0.1,0-0.2,0-0.3,0c-0.1-0.2,0.1-0.4,0.1-0.5c0.2-0.6,0.4-1.1,0.6-1.7c0.1-0.3,0.2-0.5,0.3-0.8c0,0,0-0.1,0-0.1c0,0,0.1,0,0.1,0
			c0.2,0.2,0.5,0.4,0.8,0.5c0.5,0.3,1,0.6,1.5,0.8c0.7,0.4,1.4,0.7,2.1,1.1C184.2,8.6,184.3,8.6,184.3,8.6"/>
		<path class="st3" d="M184,2.9L184,2.9c0.1,0.1,0,0.1,0,0.2c-0.3,0.7-0.6,1.5-0.9,2.2c-0.1,0.2-0.1,0.2-0.3,0.1
			c-0.7-0.3-1.3-0.7-2-1c-0.1,0-0.2-0.1-0.2-0.1c-0.1,0-0.1,0-0.1,0l0-0.1c0.1-0.1,0.1-0.2,0.1-0.3c0.3-0.7,0.6-1.4,0.8-2.1
			c0-0.1,0.1-0.1,0.2,0c0.8,0.4,1.5,0.7,2.3,1.1C184,2.9,184,2.9,184,2.9"/>
		<path class="st3" d="M180.5,4.1L180.5,4.1c0,0.1,0,0.1-0.1,0.2c-0.2,0.5-0.4,1.1-0.6,1.6c0,0.1,0,0.1,0,0.2c0,0-0.1,0-0.1,0
			c-0.6-0.3-1.2-0.7-1.8-1c-0.1,0-0.2-0.1-0.3-0.1c0,0,0-0.1,0-0.1c0.2-0.4,0.3-0.8,0.5-1.2c0.1-0.2,0.2-0.4,0.2-0.7
			C179,3.3,179.7,3.8,180.5,4.1"/>
		<path class="st4" d="M179.2,0.1c0.2,0,0.2,0,0.2,0.2c-0.2,0.5-0.4,1-0.6,1.5c-0.1,0.3-0.3,0.7-0.4,1c0,0.1-0.1,0.1-0.2,0.1
			c0,0-0.1,0-0.2-0.1c-1.1-0.6-2.2-1.2-3.2-1.7c-0.4-0.2-0.8-0.4-1.2-0.7c-0.1-0.1-0.2-0.1-0.2-0.1s0.1-0.1,0.2-0.1
			c0.2-0.1,0.4-0.1,0.7-0.1c0.8,0,1.6,0,2.4,0S178.4,0.1,179.2,0.1"/>
		<path class="st1" d="M177.5,4.8c0,0,0,0.1,0,0.1c0,0-0.1,0.1-0.1,0.1c-0.1,0-0.2,0-0.3,0c-0.3,0.1-0.7,0.3-1,0.4
			c-0.7,0.3-1.3,0.5-2,0.8c0,0-0.1,0-0.1,0l-0.2,0c0.1-0.1,0-0.2-0.1-0.3c-0.2-0.3-0.4-0.5-0.5-0.8c-0.1-0.2-0.2-0.2-0.5-0.2
			l0.3-0.1c0.1,0.1,0.1,0.1,0.3,0.1c1.2,0,2.5,0,3.7,0c0.1,0,0.2,0,0.3,0C177.5,4.8,177.5,4.8,177.5,4.8"/>
		<path class="st3" d="M177.2,5c0.1,0,0.2-0.1,0.3,0c-0.2,0.4-0.3,0.7-0.5,1.1c-0.2,0.6-0.4,1.2-0.7,1.7c-0.1,0.4-0.3,0.7-0.4,1.1
			c0,0.1-0.1,0.1-0.2,0.1c0.1-0.1,0.1-0.2,0-0.2c-0.3-0.5-0.7-1-1-1.6c-0.1-0.2-0.3-0.5-0.4-0.7c0-0.1-0.1-0.1-0.2-0.2
			c0,0-0.1-0.1,0-0.1c0,0,0,0,0.1,0c0.7-0.2,1.3-0.5,2-0.8C176.5,5.3,176.9,5.2,177.2,5"/>
		<path class="st3" d="M177.4,4.8c-0.1,0.1-0.2,0-0.3,0c-1.2,0-2.5,0-3.7,0c-0.1,0-0.2,0-0.3-0.1c0,0,0,0,0,0
			c-0.4-0.7-0.8-1.4-1.2-2c-0.2-0.4-0.4-0.7-0.7-1.1c0.2,0,0.4,0.1,0.6,0.2c1.2,0.6,2.3,1.2,3.5,1.9C176,4.1,176.7,4.5,177.4,4.8"/>
		<path class="st1" d="M175.7,8.9c0.1,0.1,0.1,0.2,0,0.2c-0.1,0-0.1,0-0.2,0c0,0-0.1,0-0.1,0c0-0.1-0.1-0.1-0.1-0.1
			c-0.3-0.1-0.7-0.3-1-0.4c-0.9-0.3-1.7-0.7-2.6-1c-0.1,0-0.3-0.1-0.4-0.1l0-0.2c0.1,0,0.3,0,0.4-0.1c0.4-0.2,0.9-0.3,1.3-0.5
			c0.2-0.1,0.5-0.2,0.8-0.3c0.2,0,0.3-0.1,0.3-0.2l0.2,0c0,0,0,0.1,0,0.1c0.1,0.1,0.2,0.1,0.2,0.2c0.1,0.2,0.3,0.5,0.4,0.7
			C175,7.8,175.4,8.3,175.7,8.9"/>
		<path class="st3" d="M175.4,9.1c-2.7,0-5.4,0-8.1,0c-0.1,0-0.2,0-0.3,0c0,0,0.1-0.1,0.1-0.1c1.3-0.4,2.5-1,3.8-1.5
			c0.1,0,0.1,0,0.2,0c0.2,0,0.3,0.1,0.4,0.1c0.9,0.3,1.7,0.7,2.6,1c0.4,0.1,0.7,0.3,1,0.4C175.3,9,175.3,9.1,175.4,9.1"/>
		<path class="st4" d="M173.8,5.9c0.1,0.1,0.1,0.2,0.1,0.3c-0.1,0.1-0.2,0.1-0.3,0.2c-0.3,0.1-0.5,0.2-0.8,0.3
			c-0.4,0.2-0.8,0.3-1.3,0.5c-0.1,0-0.2,0.1-0.4,0.1c-0.1,0-0.2,0-0.4-0.1c-0.8-0.3-1.5-0.6-2.3-0.8c-0.1,0-0.1-0.1-0.1-0.1
			c0,0,0-0.1,0-0.1c0.2-0.3,0.4-0.6,0.6-1c0,0,0.1-0.1,0.1-0.1c0.1-0.1,0.3-0.2,0.5-0.2c0.5,0,1,0,1.5,0c0.6,0,1.2,0,1.7,0
			c0.2,0,0.4,0.1,0.5,0.2C173.4,5.4,173.6,5.7,173.8,5.9"/>
		<path class="st4" d="M173.3,0.3c0,0,0,0.1-0.1,0.1c0,0-0.1,0.1-0.1,0.1c-0.5,0.3-1.1,0.6-1.6,0.8c-0.1,0.1-0.2,0.1-0.3,0.2h-0.1
			c0-0.1-0.1-0.1-0.2-0.2c-0.6-0.3-1.1-0.6-1.7-0.9c-0.1-0.1-0.3-0.1-0.3-0.2l0,0c0-0.1,0.2-0.1,0.3-0.1c0.2-0.1,0.3-0.1,0.5-0.1
			c0.9,0,1.8,0,2.6,0c0.2,0,0.5,0,0.7,0.1C173.2,0.2,173.3,0.3,173.3,0.3"/>
		<path class="st1" d="M173.2,4.7C173.2,4.7,173.2,4.8,173.2,4.7l-0.3,0.1c-0.6,0-1.2,0-1.7,0c-0.5,0-1,0-1.5,0
			c-0.3,0-0.4,0-0.5,0.2l-0.4-0.2c0.3,0,0.4-0.1,0.5-0.3c0.5-0.9,1.1-1.7,1.6-2.6c0.1-0.1,0.2-0.2,0.2-0.3c0-0.1,0.1-0.1,0.1-0.1
			h0.1c0,0,0,0,0,0.1c0.3,0.3,0.5,0.7,0.7,1.1C172.4,3.4,172.8,4.1,173.2,4.7"/>
		<path class="st1" d="M171.2,7.3l0,0.2c-0.1,0-0.1,0-0.2,0c-1.3,0.5-2.5,1-3.8,1.5C167.1,9,167,9,167,9.1c-0.1,0-0.2,0-0.4,0
			c0-0.1,0.1-0.3,0.2-0.4c0.4-0.7,0.9-1.5,1.3-2.2c0,0,0-0.1,0-0.1l0.2,0c0,0,0,0.1,0.1,0.1c0.8,0.2,1.5,0.5,2.3,0.8
			C170.9,7.2,171,7.2,171.2,7.3"/>
		<path class="st3" d="M170.8,1.7c0.1,0,0.1,0,0.2-0.1c0,0.1-0.1,0.2-0.2,0.3c-0.5,0.9-1.1,1.7-1.6,2.6c-0.1,0.2-0.3,0.3-0.5,0.3
			l0,0c-1.2,0-2.3,0-3.5,0c-0.1,0-0.1,0-0.2,0c0.5-0.3,1-0.6,1.6-0.9C168,3.2,169.4,2.5,170.8,1.7"/>
		<path class="st1" d="M168.7,4.9l0.4,0.2c0,0-0.1,0.1-0.1,0.1c-0.2,0.3-0.4,0.6-0.6,1c0,0,0,0.1,0,0.1l-0.2,0c0,0-0.1-0.1-0.1-0.1
			c-0.2-0.1-0.3-0.1-0.5-0.2c-0.8-0.4-1.7-0.6-2.4-1c-0.1,0-0.1,0-0.2,0c0,0-0.1,0-0.1-0.1c0,0,0,0,0-0.1c0.1,0,0.1,0,0.2,0
			c0.1,0,0.1,0,0.2,0C166.4,4.9,167.5,4.9,168.7,4.9L168.7,4.9L168.7,4.9z"/>
		<path class="st4" d="M168.8,0.3C168.8,0.3,168.8,0.4,168.8,0.3c-0.1,0.1-0.2,0.2-0.2,0.2c-0.9,0.5-1.9,1-2.8,1.5
			c-0.6,0.3-1.2,0.6-1.7,1c0,0-0.1,0-0.1,0c0-0.2-0.1-0.3-0.1-0.4c-0.2-0.5-0.4-1-0.6-1.5c-0.1-0.3-0.2-0.6-0.3-0.9
			c0-0.1,0-0.1,0.1-0.1c1.7,0,3.4,0,5.1,0c0.2,0,0.4,0.1,0.6,0.1C168.8,0.3,168.9,0.3,168.8,0.3"/>
		<path class="st3" d="M168.2,6.3c0,0,0,0.1,0,0.1c-0.5,0.7-0.9,1.5-1.3,2.2c-0.1,0.1-0.2,0.3-0.2,0.4c-0.2,0.1-0.2,0-0.2-0.1
			c-0.3-0.7-0.5-1.3-0.8-2c-0.2-0.6-0.5-1.3-0.7-1.9c0,0,0,0,0,0c0.1,0,0.1,0,0.2,0c0.8,0.4,1.7,0.6,2.4,1c0.2,0.1,0.3,0.1,0.5,0.2
			C168.1,6.2,168.1,6.2,168.2,6.3"/>
		<path class="st3" d="M164.9,4.9C164.9,4.9,164.9,4.9,164.9,4.9c-0.6,0.3-1.1,0.6-1.6,0.9c-0.2,0.1-0.4,0.2-0.6,0.3
			c-0.2-0.6-0.5-1.2-0.7-1.9c0,0,0-0.1-0.1-0.1l0-0.1c0,0,0.1,0,0.2,0c0.7-0.4,1.3-0.7,2-1.1c0,0,0.1,0,0.1,0
			c0.1,0.2,0.2,0.5,0.2,0.7C164.5,4,164.7,4.4,164.9,4.9C164.8,4.8,164.9,4.8,164.9,4.9"/>
		<path class="st4" d="M163.5,8.3c0.1,0.3,0.3,0.6,0.3,0.8c-0.4,0-0.7,0-1.1,0c-0.9,0-1.8,0-2.7,0c-0.9,0-1.8,0-2.6,0
			c-0.3,0-0.5,0-0.8,0c-0.2,0-0.4,0-0.6-0.1c-0.7-0.4-1.4-0.8-2.1-1.1c-0.7-0.4-1.3-0.7-2-1.1c-0.1,0-0.1-0.1-0.2-0.1
			c0,0-0.1,0-0.1-0.1c0.4-0.1,0.6-0.3,0.9-0.4c1.1-0.6,2.1-1.2,3.1-1.8c0.1-0.1,0.2-0.1,0.3-0.2c0,0,0.1,0,0.1,0c0,0,0.1,0,0.1,0.1
			c0.2,0.6,0.5,1.1,0.7,1.7c0.2,0.4,0.4,0.8,0.5,1.1c0.2,0.4,0.4,0.8,0.5,1.2c0,0,0,0.1,0.1,0.1c0.1,0.1,0.1,0.1,0.2,0
			c1.1-0.6,2.1-1.2,3.2-1.8c0.3-0.2,0.7-0.4,1-0.6c0.1,0,0.1,0,0.1,0c0.1,0,0.1,0,0.1,0.1c0.1,0.2,0.2,0.5,0.3,0.7
			C163.2,7.4,163.3,7.8,163.5,8.3"/>
		<path class="st3" d="M161.9,4.1L161.9,4.1c0,0.1-0.1,0.1-0.2,0.1c-0.6,0.3-1.1,0.6-1.6,0.8c-0.2,0.1-0.4,0.2-0.6,0.3
			c-0.2,0.1-0.3,0.1-0.3-0.1c-0.1-0.3-0.2-0.7-0.4-1c-0.2-0.4-0.3-0.8-0.5-1.2c0,0,0-0.1-0.1-0.1v0c0.4-0.1,0.7-0.3,1-0.4
			c0.5-0.2,1.1-0.5,1.6-0.7c0.1-0.1,0.1,0,0.2,0.1c0.1,0.2,0.2,0.4,0.2,0.6c0.1,0.4,0.3,0.7,0.4,1.1c0.1,0.2,0.1,0.3,0.2,0.5
			C161.8,4.1,161.8,4.1,161.9,4.1"/>
		<path class="st4" d="M159,0.2C159,0.2,159,0.2,159,0.2c-0.5,0.3-1,0.5-1.5,0.8c-0.1,0-0.1,0-0.1,0c0,0,0,0-0.1-0.1
			c-0.2-0.2-0.2-0.5-0.4-0.7c-0.1-0.1,0-0.1,0.1-0.1h0.9v0c0.3,0,0.6,0,0.9,0C159,0.1,159,0.1,159,0.2"/>
		<path class="st3" d="M158.3,2.9L158.3,2.9c0,0-0.1,0.1-0.1,0.1c-0.6,0.3-1.2,0.7-1.8,1c-0.1,0.1-0.2,0.1-0.3,0.1
			c-0.1,0-0.1-0.1-0.1-0.2c-0.2-0.5-0.4-1-0.6-1.5c0-0.1-0.1-0.1-0.1-0.1c0,0,0,0,0-0.1c0.5-0.2,0.9-0.5,1.3-0.7
			c0.3-0.2,0.6-0.3,0.9-0.5C157.7,1.7,158,2.3,158.3,2.9"/>
		<path class="st1" d="M155.2,2.1c0,0,0,0.1,0.1,0.1c0,0,0,0,0,0.1c0,0,0,0-0.1,0c0,0-0.1,0-0.1,0c-1.2,0-2.5,0-3.7,0
			c-0.1,0-0.2,0-0.3,0c-0.1,0-0.1,0-0.1,0.1l-0.3-0.1c0.2,0,0.3,0,0.4-0.2c0.1-0.2,0.2-0.4,0.3-0.6c0.1-0.4,0.2-0.7,0.4-1.1
			c0.1-0.1,0.1-0.2,0-0.3l0,0c0.1,0,0.1,0,0.2,0l0,0c0,0.1,0.1,0.2,0.2,0.3c0.3,0.2,0.6,0.3,1,0.5c0.7,0.4,1.4,0.7,2,1.1
			C155,2.1,155.1,2.1,155.2,2.1"/>
		<path class="st3" d="M155.2,2.1c-0.1,0-0.1,0-0.2,0c-0.6-0.4-1.4-0.7-2-1.1c-0.3-0.2-0.6-0.3-1-0.5c-0.1-0.1-0.2-0.2-0.2-0.3
			c0,0,0,0,0,0h0c0.8,0,1.5,0,2.3,0c0.1,0,0.2,0.1,0.3,0.2c0.2,0.5,0.4,0.9,0.6,1.4C155,1.8,155.1,2,155.2,2.1"/>
		<path class="st3" d="M155.1,2.2c-0.7,0.4-1.4,0.8-2,1.2c-1.1,0.6-2.2,1.3-3.3,1.9c0,0-0.1,0-0.1,0c-0.1-0.1-0.1-0.2,0-0.3
			c0.3-0.6,0.5-1.2,0.7-1.8c0.1-0.3,0.3-0.6,0.4-0.9c0,0,0,0,0,0c0,0,0.1-0.1,0.1-0.1c0.1,0,0.2,0,0.3,0c1.2,0,2.5,0,3.7,0
			C155.1,2.2,155.1,2.2,155.1,2.2"/>
		<path class="st3" d="M151.8,9c0.1,0,0.1,0,0.1,0.1c0,0,0,0-0.1,0c0,0-0.1,0-0.1,0c-0.7,0-1.4,0-2.1,0c-0.9,0-1.7,0-2.6,0
			c0-0.1,0-0.1,0.1-0.1c0.7-0.3,1.3-0.6,1.9-1c0.1-0.1,0.3-0.1,0.3-0.2h0.1c0,0,0,0,0.1,0.1C150.4,8.3,151.1,8.6,151.8,9"/>
	</g>
</g>
<g>
	<defs>
		<rect id="SVGID_00000175300978496735615380000003370920790205450401_" x="-0.2" y="-0.1" width="216" height="9.6"/>
	</defs>
	<clipPath id="SVGID_00000029006668859596043430000004741822457365033110_">
		<use xlink:href="#SVGID_00000175300978496735615380000003370920790205450401_"  style="overflow:visible;"/>
	</clipPath>
	<g style="clip-path:url(#SVGID_00000029006668859596043430000004741822457365033110_);">
		<path class="st3" d="M151.6,6.8C151.6,6.8,151.6,6.9,151.6,6.8c-0.4,0.3-0.9,0.6-1.4,0.8c-0.2,0.1-0.4,0.2-0.6,0.3
			c0,0-0.1,0-0.1,0.1h-0.1v0c0-0.1-0.2-0.1-0.3-0.2c-0.4-0.2-0.9-0.5-1.3-0.7c-0.2-0.1-0.4-0.2-0.6-0.3v0c0.7-0.3,1.3-0.7,2-1.1
			c0,0,0.1-0.1,0.1-0.1c0.1,0,0.2,0,0.2,0c0.4,0.3,0.9,0.5,1.3,0.8C151.1,6.6,151.4,6.7,151.6,6.8"/>
		<path class="st4" d="M151.6,0.1c0,0.1,0,0.2,0,0.3c-0.2,0.4-0.3,0.7-0.4,1.1c-0.1,0.2-0.2,0.4-0.3,0.6c-0.1,0.1-0.2,0.2-0.4,0.2
			c-0.8,0-1.5,0-2.3,0c-0.1,0-0.2,0-0.2-0.1c0,0,0,0,0-0.1c-0.3-0.5-0.5-1-0.7-1.5c0-0.1-0.1-0.2-0.1-0.2c0-0.1,0-0.2,0.1-0.2
			c0.9-0.1,1.8,0,2.7,0h0.1c0.5,0,0.9,0,1.4,0l0,0l0,0C151.5,0.1,151.5,0.1,151.6,0.1"/>
		<path class="st1" d="M150.8,2.3C150.8,2.3,150.8,2.4,150.8,2.3c-0.1,0.3-0.3,0.6-0.4,1c-0.2,0.6-0.4,1.3-0.7,1.9
			c-0.1,0.1-0.1,0.2,0,0.3c-0.1,0-0.1,0.1-0.1,0.2c-0.1,0-0.2,0-0.2,0c0-0.1,0-0.1-0.1-0.1c0.1-0.1,0-0.2-0.1-0.4
			c-0.2-0.3-0.3-0.7-0.5-1c-0.2-0.4-0.3-0.7-0.5-1.1c-0.1-0.2-0.2-0.4-0.3-0.7c0-0.1-0.1-0.1-0.2-0.1l0.2-0.1c0,0.1,0.1,0.1,0.2,0.1
			c0.8,0,1.5,0,2.3,0L150.8,2.3z"/>
		<path class="st3" d="M149.2,5.1c0.1,0.1,0.1,0.2,0.1,0.4c-0.6-0.3-1.2-0.7-1.9-1c-1.2-0.7-2.4-1.3-3.6-2c-0.1-0.1-0.2-0.1-0.3-0.2
			c0.7,0,1.3,0,1.9,0c0.6,0,1.1,0,1.7,0c0.2,0,0.4,0,0.6,0c0.1,0,0.2,0,0.2,0.1c0.1,0.2,0.2,0.4,0.3,0.7c0.1,0.4,0.3,0.7,0.5,1.1
			C148.9,4.5,149.1,4.8,149.2,5.1"/>
		<path class="st1" d="M148,2.1l-0.2,0.1c-0.2,0-0.4,0-0.6,0c-0.6,0-1.1,0-1.7,0c-0.7,0-1.3,0-1.9,0c0,0-0.1,0-0.1,0
			c0,0,0-0.1,0-0.1c0,0,0.1,0,0.1,0c0.2-0.2,0.5-0.3,0.8-0.4c0.8-0.4,1.6-0.9,2.4-1.3c0.2-0.1,0.2-0.2,0.2-0.3c0.1,0,0.2,0,0.3,0
			c-0.1,0.1-0.1,0.1-0.1,0.2c0,0.1,0.1,0.2,0.1,0.2C147.5,1.1,147.7,1.6,148,2.1C148,2.1,148,2.1,148,2.1"/>
		<path class="st4" d="M147.2,6.8C147.2,6.8,147.2,6.8,147.2,6.8c-0.7,0.5-1.6,0.9-2.3,1.3c-0.7,0.4-1.4,0.7-2.1,1.1
			c-0.2,0.1-0.5,0.2-0.8,0.2c-0.4,0-0.9,0-1.3,0c0,0-0.1,0-0.1,0c-0.1,0-0.2,0-0.1-0.2c0.2-0.7,0.6-1.4,0.8-2.1
			c0.2-0.6,0.5-1.1,0.7-1.7c0.1-0.3,0.3-0.6,0.4-0.9c0-0.1,0-0.1,0-0.2l0.1,0v0c0.1,0.1,0.2,0.1,0.3,0.2c0.8,0.5,1.7,1,2.6,1.5
			c0.5,0.3,1.1,0.6,1.6,0.9C147.2,6.8,147.2,6.8,147.2,6.8"/>
		<path class="st3" d="M147,0.1c0,0.1-0.1,0.2-0.2,0.3c-0.8,0.4-1.6,0.9-2.4,1.3c-0.3,0.1-0.5,0.3-0.8,0.4c0,0-0.1,0-0.1,0
			c0.1-0.3,0.2-0.6,0.3-0.9c0.2-0.4,0.3-0.7,0.5-1.1c0-0.1,0.1-0.1,0.2-0.1c0.7,0,1.4,0,2.2,0C146.7,0,146.8,0.1,147,0.1"/>
		<path class="st4" d="M143.4,2.3c0,0,0,0.1,0,0.1c-0.2,0.5-0.5,1.1-0.7,1.6c0,0.1-0.2,0.2-0.1,0.3l-0.1,0c0,0-0.1-0.1-0.1-0.1
			c-0.6-0.3-1.1-0.6-1.6-0.9c-0.1-0.1-0.2-0.1-0.3-0.2v0c0.2-0.4,0.3-0.7,0.5-1.1c0.1-0.2,0.2-0.4,0.3-0.7c0.1-0.1,0.1-0.2,0.1-0.2
			c0.1,0,0.1,0,0.2,0.1c0.6,0.3,1.1,0.6,1.7,0.9C143.2,2.1,143.3,2.1,143.4,2.3C143.4,2.2,143.4,2.2,143.4,2.3"/>
		<path class="st4" d="M141.4,0c0.1,0,0.2,0,0.1,0.1c-0.1,0.2-0.2,0.5-0.3,0.7c0,0.1-0.1,0.1-0.1,0.1c0,0-0.1,0-0.1,0
			c-0.5-0.3-1-0.5-1.5-0.8c-0.1,0-0.1-0.1-0.1-0.1c0,0,0.1,0,0.2,0h0.9C140.8,0,141.1,0,141.4,0L141.4,0L141.4,0z"/>
		<path class="st3" d="M140.4,3C140.4,3,140.4,3,140.4,3c-0.1,0.1-0.1,0.2-0.2,0.3c-0.1,0.4-0.3,0.7-0.5,1.1
			c-0.1,0.3-0.3,0.6-0.4,0.9c-0.1,0.2-0.2,0.4-0.3,0.6c0,0.1-0.1,0.1-0.2,0.1c0-0.2-0.2-0.3-0.2-0.5c-0.1-0.2-0.3-0.5-0.4-0.7
			c-0.1-0.1-0.1-0.1-0.3-0.1c-0.4,0-0.7,0-1,0c-0.9,0-1.8,0-2.7-0.1c0,0,0,0,0-0.1c0.9-0.6,1.9-1.2,2.8-1.8c0.2-0.1,0.2-0.2,0.2-0.4
			c-0.1-0.3-0.2-0.6-0.3-0.9c0-0.1-0.1-0.2-0.1-0.3c0.1,0,0.1,0,0.2,0c0.9,0.5,1.8,1,2.7,1.5C139.9,2.8,140.1,2.9,140.4,3"/>
		<path class="st3" d="M140.3,9.2c0,0.1,0,0.2-0.2,0.2c-0.7,0-1.4,0-2.1,0c-0.1,0-0.2,0-0.3,0l0,0v0c0,0,0-0.1,0-0.1
			c0-0.2,0.1-0.3,0.2-0.4c0.3-0.7,0.5-1.4,0.8-2c0.1-0.2,0.2-0.4,0.3-0.6c0.4,0.9,0.9,1.9,1.3,2.8C140.2,9.1,140.3,9.2,140.3,9.2"/>
		<path class="st1" d="M137.4,9.2c0,0.1,0.1,0.1,0.1,0.2c-0.1,0-0.2,0-0.3,0H137c0,0-0.1,0-0.1,0c-0.2,0-0.4,0-0.6,0h-8
			c0,0-0.1,0-0.1,0c-0.4,0-0.9,0-1.3,0c-0.1,0-0.2,0-0.2,0c0-0.1,0.1-0.1,0.1-0.1c0.5-0.3,1.1-0.6,1.6-0.9c0.4-0.2,0.7-0.5,1.1-0.7
			c0.4-0.2,0.8-0.4,1.1-0.7c0,0,0.1,0,0.1-0.1c0.1-0.1,0.2-0.1,0.2-0.2l0.3,0c0,0,0.1,0,0.2,0c1.5,0,3,0,4.5,0
			c0.2,0,0.3,0.1,0.4,0.2C136.6,7.7,137.1,8.4,137.4,9.2"/>
		<path class="st3" d="M136.7,0.9C136.7,0.9,136.7,1,136.7,0.9c-0.1,0-0.1,0-0.2-0.1c-0.4-0.2-0.8-0.5-1.2-0.7c-0.1,0-0.1,0-0.1-0.1
			c0.3,0,0.7,0,1,0c0.1,0,0.2,0,0.2,0.1C136.5,0.4,136.6,0.6,136.7,0.9"/>
		<path class="st1" d="M134.2,4.6C134.2,4.6,134.2,4.6,134.2,4.6c-0.1,0.1-0.2,0.1-0.3,0.2c-0.9,0.6-1.8,1.2-2.7,1.9
			c0,0-0.1,0-0.1,0.1c0,0,0,0,0,0l-0.3,0c0-0.1-0.2,0-0.2,0c-0.7-0.1-1.4-0.1-2.1-0.2c-0.5,0-0.9-0.1-1.4-0.1c0,0-0.1,0-0.1,0
			c0,0,0,0,0,0c0,0,0.1-0.1,0.1-0.1c0.4-0.3,0.9-0.6,1.3-0.9c0.4-0.3,0.9-0.7,1.4-1c0.1,0,0.1-0.1,0.1-0.1l0.2,0c0.1,0,0.2,0,0.3,0
			c0.4,0,0.7,0.1,1.1,0.1c0.5,0,1,0.1,1.4,0.1C133.4,4.5,133.8,4.6,134.2,4.6"/>
		<path class="st1" d="M134.1,1.8c0,0.1,0,0.2-0.1,0.2c-0.7,0.4-1.4,0.8-2.1,1.2c-0.6,0.3-1.1,0.6-1.7,0.9c0,0-0.1,0-0.1,0.1
			c0,0,0.1,0,0.1,0l-0.2,0c-0.5-0.1-1.1-0.1-1.6-0.1c-0.7,0-1.4,0-2.1,0c-0.6,0-1.3,0-1.9-0.1c-0.1,0-0.2,0-0.3,0c0,0,0,0,0,0
			c0.2-0.4,0.3-0.7,0.4-1.1c0.1-0.4,0.2-0.7,0.4-1.1c0.3-0.5,0.4-1.1,0.6-1.6c0-0.1,0-0.1,0.1-0.2c0.1,0,0.2,0,0.3,0
			c2.4,0,4.9,0,7.3,0c0.1,0,0.2,0,0.3,0c0.1,0.3,0.2,0.5,0.3,0.8C133.9,1.2,134,1.5,134.1,1.8"/>
		<path class="st3" d="M127,6.4c-0.3,0.1-0.5,0.3-0.7,0.4c-0.8,0.4-1.5,0.9-2.3,1.3c-0.1,0.1-0.2,0.1-0.2,0.1h-0.2
			c0,0,0-0.1-0.1-0.1c-0.3-0.2-0.6-0.3-0.9-0.5c-0.2-0.1-0.2-0.2-0.1-0.3c0.2-0.3,0.3-0.5,0.4-0.8c0-0.1,0-0.1-0.1-0.1l0.2,0
			c0,0,0.1,0,0.2,0c0.7,0,1.3,0,2,0C125.7,6.3,126.3,6.3,127,6.4"/>
		<path class="st3" d="M125.9,9.3c0,0,0.1,0,0.1,0.1c-0.1,0.1-0.2,0-0.4,0c-1.2,0-2.5,0-3.7,0c-0.2,0-0.3,0-0.5,0
			c0.3-0.2,0.6-0.3,0.8-0.4c0.4-0.2,0.9-0.4,1.3-0.7c0.1,0,0.1-0.1,0.1-0.1h0.2c0,0,0.1,0.1,0.2,0.1C124.6,8.6,125.3,9,125.9,9.3"/>
		<path class="st1" d="M124.6,0.1C124.7,0.1,124.7,0.1,124.6,0.1c-0.1,0.1-0.2,0.2-0.3,0.2c-0.6,0.2-1.2,0.5-1.9,0.8
			c-0.1,0-0.2,0.1-0.4,0.1c0.1-0.4,0.2-0.7,0.3-1.1c0.6,0,1.1,0,1.7,0C124.3,0.1,124.4,0.1,124.6,0.1"/>
		<path class="st3" d="M124,4C124,4,124,4,124,4c-0.2,0.3-0.3,0.6-0.4,0.9c-0.2,0.4-0.4,0.8-0.6,1.2c0,0,0,0.1,0,0.1l-0.2,0
			c0,0,0,0,0,0c-0.4,0.1-0.8,0-1.3,0c-0.2,0-0.4,0-0.7,0c-0.3,0-0.6,0-0.9,0c-0.1,0-0.1,0-0.1,0c0,0,0,0,0-0.1
			c0.3-0.5,0.5-1,0.8-1.6c0.1-0.1,0.1-0.3,0.2-0.4c0.1-0.2,0-0.2-0.2-0.2l0.3,0C121.9,4.1,123,4,124,4"/>
		<path class="st3" d="M122.1,1.3L122.1,1.3c-0.4,0.9-0.8,1.9-1.2,2.8l-0.3,0c-0.3,0-0.7,0-1,0c-0.4,0-0.4,0-0.4-0.3
			c-0.1-0.2-0.2-0.5-0.3-0.7c0-0.1-0.1-0.1-0.2-0.2l0,0c0,0,0.1,0,0.2-0.1c0.4-0.2,0.8-0.4,1.2-0.6c0.6-0.3,1.1-0.6,1.7-0.9
			C121.9,1.3,122,1.3,122.1,1.3"/>
		<path class="st4" d="M120.8,9.3C120.8,9.3,120.9,9.3,120.8,9.3c-0.3,0.1-0.7,0.1-1.1,0.1c-0.3,0-0.5,0-0.8,0c-1.7,0-3.3,0-5,0
			h-2.9c-0.7,0-1.5,0-2.2,0c-0.1,0-0.3,0-0.2,0.1h-1.4c0,0,0-0.1,0-0.1c0,0,0-0.1,0.1-0.1c0.7-0.2,1.4-0.5,2.1-0.8
			c0.2-0.1,0.2-0.2,0.1-0.3c-0.4-0.6-0.9-1.2-1.3-1.9l0,0c0.9,0.1,1.7,0.2,2.6,0.3c0.4,0,0.4,0,0.5-0.2c0.2-0.5,0.2-1.1,0.3-1.7
			c0-0.1-0.1-0.2,0.1-0.2c0.1,0,0.2,0.1,0.3,0.1c0,0,0.1,0,0.1,0.1c0.3,0.2,0.5,0.4,0.8,0.6c0.3,0.3,0.7,0.5,1,0.8
			c0.1,0.1,0.1,0.1,0.2,0c0.2-0.2,0.5-0.4,0.8-0.6c0.4-0.3,0.9-0.7,1.3-1c0,0,0.1,0,0.1,0c0,0.2,0,0.4,0,0.5
			c0.1,0.2,0.1,0.4,0.1,0.6c0,0.4,0.1,0.7,0.2,1.1c0,0.1,0,0.1,0.1,0.1c0.7-0.1,1.4-0.2,2.1-0.2c0.3,0,0.5-0.1,0.8-0.1
			c0,0.1-0.1,0.2-0.1,0.3c-0.4,0.5-0.8,1-1.1,1.5c-0.1,0.2-0.1,0.2,0.1,0.3c0.3,0.1,0.6,0.2,1,0.3C120,9,120.3,9.2,120.8,9.3"/>
		<path class="st1" d="M118.9,0.1C119,0.1,118.9,0.2,118.9,0.1c-0.4,0.2-0.7,0.3-1,0.5c0,0-0.1,0-0.1,0c0-0.1,0-0.2-0.1-0.3
			C117.6,0,117.6,0,118,0c0.2,0,0.5,0,0.7,0c0,0,0.1,0,0.1,0C118.8,0.1,118.9,0.1,118.9,0.1"/>
		<path class="st3" d="M118.8,2.9L118.8,2.9c-0.4,0.3-0.8,0.5-1.2,0.7c-0.4,0.3-0.9,0.5-1.2,0.8c0,0-0.1,0-0.1,0c0,0,0-0.1-0.1-0.1
			c-0.3-0.7-0.5-1.4-0.8-2.2l0-0.1c0,0,0.1,0,0.2,0c0.6-0.4,1.2-0.7,1.7-1.1c0.2-0.1,0.4-0.2,0.5-0.3c0,0,0.1,0,0.1,0
			c0.1,0.4,0.3,0.8,0.4,1.2c0.1,0.3,0.2,0.6,0.3,0.9C118.7,2.8,118.7,2.9,118.8,2.9"/>
		<path class="st3" d="M115.5,2.1L115.5,2.1c-0.4,0.2-0.7,0.4-1.1,0.6c-0.3,0.2-0.3,0.2-0.6,0l0.2,0c0.1-0.1,0.1-0.2,0.1-0.3
			c0-0.4,0-0.9,0-1.3c0-0.3,0-0.7,0-1c0.2,0,0.3,0,0.3,0.1c0.3,0.6,0.6,1.2,0.8,1.8C115.4,2,115.4,2,115.5,2.1"/>
		<path class="st3" d="M114.1,0.1c0,0.9,0,1.7,0,2.6l-0.2,0c-0.3-0.2-0.6-0.3-0.9-0.5c-0.1,0-0.1,0-0.1,0l0-0.1c0,0,0.1,0,0.1-0.1
			c0.1-0.2,0.2-0.5,0.3-0.7c0.2-0.4,0.3-0.7,0.5-1.1c0-0.1,0.1-0.1,0.2-0.1C113.9,0,114,0.1,114.1,0.1"/>
		<path class="st3" d="M112.7,2.1L112.7,2.1c0,0.1,0,0.1,0,0.2c-0.3,0.7-0.5,1.3-0.7,2c0,0.1-0.1,0.2-0.1,0.2c0,0-0.1,0-0.2-0.1
			c-0.7-0.4-1.4-0.8-2.1-1.2C109.6,3,109.5,3,109.5,3l-0.1-0.1c0.1,0,0.1-0.1,0.2-0.3c0.2-0.5,0.4-1,0.6-1.5
			c0.1-0.1,0.1-0.3,0.1-0.4c0,0,0.1,0,0.1,0c0.2,0.2,0.5,0.3,0.7,0.5c0.5,0.3,1,0.6,1.6,1C112.6,2.1,112.7,2.1,112.7,2.1"/>
		<path class="st1" d="M110.3,0c0.3,0,0.3,0,0.2,0.2c-0.1,0.1-0.1,0.2-0.1,0.3c0,0,0,0-0.1,0c-0.2-0.2-0.5-0.3-0.8-0.4
			c-0.1,0-0.2-0.1-0.2-0.1C109.6,0,109.9,0,110.3,0"/>
		<path class="st3" d="M109.4,2.9L109.4,2.9c0.1,0.1,0,0.2,0,0.2c-0.1,0.3-0.2,0.5-0.3,0.8c-0.1,0.2-0.2,0.2-0.4,0.2
			c-0.4,0-0.8,0-1.1,0c-0.1,0-0.1,0-0.1,0l-0.3,0c0.2,0,0.2,0,0.2-0.2c-0.1-0.3-0.3-0.6-0.4-0.9c-0.2-0.6-0.5-1.1-0.7-1.7
			c0,0,0,0,0,0c1,0.5,1.9,1,2.9,1.5C109.2,2.8,109.3,2.9,109.4,2.9"/>
		<path class="st3" d="M108.4,6.4L108.4,6.4c-0.7,0-1.3,0-2,0c-0.4,0-0.7-0.1-1.1,0c0,0-0.1,0-0.1,0c0-0.1,0-0.2,0-0.2
			c-0.3-0.5-0.5-1-0.8-1.5c-0.1-0.2-0.1-0.3-0.2-0.5c0.7,0.1,1.3,0,2,0.1c0.3,0,0.6,0,0.9,0h0l0.3,0c0,0,0,0,0,0.1
			c0.2,0.4,0.4,0.7,0.5,1.1C108.1,5.7,108.3,6,108.4,6.4"/>
		<path class="st3" d="M106.8,9.3C106.8,9.3,106.8,9.3,106.8,9.3c-1.5,0.1-3,0.1-4.6,0.1c0.4-0.2,0.8-0.4,1.1-0.6
			c0.3-0.2,0.6-0.3,1-0.5c0.1,0,0.1-0.1,0.1-0.1h0.2c0,0,0.1,0.1,0.2,0.1C105.4,8.6,106.1,9,106.8,9.3"/>
		<path class="st1" d="M106.2,1.2C106.2,1.2,106.2,1.2,106.2,1.2c-0.4-0.2-0.8-0.4-1.2-0.5c-0.5-0.2-1-0.5-1.6-0.6
			c0.7,0,1.5,0,2.2,0c0.1,0,0.2,0,0.2,0c0.2,0.2,0.1,0.4,0.2,0.5C106.1,0.8,106.1,1,106.2,1.2"/>
		<path class="st3" d="M105.8,7.4c0.1,0.1,0,0.1-0.1,0.2c-0.3,0.2-0.6,0.3-0.9,0.5c-0.1,0.1-0.2,0.1-0.2,0.1h-0.2c0,0,0-0.1-0.1-0.1
			c-0.8-0.4-1.5-0.9-2.3-1.3c-0.2-0.2-0.4-0.2-0.7-0.4c0,0,0.1,0,0.1,0c0.6,0,1.2,0,1.9,0c0.7,0,1.3,0,2,0c0,0,0.1,0.1,0.1,0.1
			C105.5,6.7,105.6,7,105.8,7.4"/>
		<path class="st6" d="M105.3,6.3C105.3,6.3,105.3,6.3,105.3,6.3c-0.1,0-0.1,0-0.1,0l0,0C105.2,6.3,105.3,6.3,105.3,6.3"/>
		<path class="st1" d="M104.1,3.9C104.1,3.9,104.1,4,104.1,3.9C104.1,4,104,4,104,4c-1.8,0.1-3.6,0.1-5.5,0.1c-0.1,0-0.2,0-0.3,0
			C98.1,4.1,98,4,97.9,4c-1.2-0.6-2.3-1.3-3.4-1.9c-0.3-0.2-0.3-0.2-0.2-0.5c0.2-0.5,0.2-1,0.4-1.4C94.8,0.1,94.8,0,94.9,0
			c2.6,0,5.1,0,7.7,0c0.1,0,0.1,0.1,0.1,0.2c0.2,0.6,0.4,1.1,0.6,1.7c0.2,0.6,0.5,1.3,0.7,1.9C104.1,3.8,104.1,3.8,104.1,3.9"/>
		<path class="st1" d="M101.6,9.4h-0.9c-0.3,0-0.5,0-0.8,0c-0.1,0-0.1,0-0.1,0.1h-0.1c0.1-0.1-0.1-0.1-0.2-0.1h-6.8
			c-0.1,0-0.1,0-0.2,0c-0.5,0-0.9,0-1.4,0c-0.1,0-0.3,0.1-0.4,0c0,0,0.1-0.1,0.1-0.2c0.2-0.3,0.3-0.6,0.5-0.9
			c0.3-0.5,0.5-0.9,0.8-1.4c0.1-0.1,0.1-0.1,0.2-0.1c1.6,0,3.2,0,4.8,0c0,0,0.1,0,0.1,0c0,0,0.1,0,0.1,0c0.6,0.3,1.1,0.6,1.6,0.9
			c0.8,0.5,1.6,0.9,2.5,1.4C101.4,9.2,101.5,9.3,101.6,9.4"/>
		<path class="st1" d="M100.9,6.1c0.1,0.1,0.2,0.1,0.2,0.2c0,0,0,0,0,0c-0.1,0-0.2,0-0.3,0c-0.6,0.1-1.2,0.1-1.7,0.2
			c-0.6,0.1-1.2,0.1-1.8,0.2c-0.1,0-0.1,0-0.2,0c-0.1,0-0.1,0-0.2-0.1c-0.1-0.1-0.3-0.3-0.5-0.4c-0.7-0.5-1.5-1-2.1-1.5
			c-0.1-0.1-0.2-0.1-0.3-0.2l0,0c0.2,0,0.4,0,0.6-0.1c0.7,0,1.4-0.1,2.2-0.2c0.4,0,0.9-0.1,1.3-0.1c0.1,0,0.1,0,0.1,0
			c0.1,0,0.1,0,0.2,0.1C99.3,4.9,100.1,5.5,100.9,6.1"/>
		<path class="st3" d="M94,4.6L94,4.6c-0.3,0-0.6,0-0.8,0.1c-0.9,0.1-1.8,0.1-2.8,0.1c-0.2,0-0.3,0-0.4,0.2
			c-0.2,0.4-0.4,0.8-0.6,1.1c0,0,0,0-0.1,0.1c-0.2-0.2-0.2-0.5-0.3-0.7c-0.4-0.8-0.7-1.6-1.1-2.5l0,0l0,0c0.9-0.4,1.6-0.9,2.4-1.3
			c0.2-0.1,0.3-0.1,0.4-0.2c0.1-0.1,0.3-0.1,0.4-0.2c0.1,0,0.1-0.1,0.2-0.1c0,0,0.1-0.1,0.2,0c-0.1,0.3-0.2,0.7-0.3,1
			c-0.1,0.2-0.2,0.3-0.1,0.5c0.1,0.2,0.3,0.2,0.5,0.3c0.8,0.5,1.6,1,2.4,1.5C93.9,4.5,94,4.5,94,4.6"/>
		<path class="st3" d="M93.1,0.1c-0.5,0.3-0.9,0.5-1.4,0.8c-0.1,0-0.1,0-0.1,0c0,0,0-0.1,0-0.1c0.1-0.2,0.1-0.4,0.2-0.5
			c0-0.2,0.2-0.2,0.4-0.2c0.3,0,0.5,0,0.8,0C93,0.1,93,0.1,93.1,0.1"/>
		<path class="st3" d="M90.4,9c0.1,0.1,0.1,0.2,0.1,0.3c0,0,0,0,0,0c-0.6,0-1.3,0-1.9,0c-0.2,0-0.4,0-0.6,0c-0.1,0-0.1,0-0.1,0
			c0,0,0,0,0,0c0.2-0.4,0.3-0.8,0.5-1.2c0.3-0.6,0.6-1.2,0.8-1.8c0,0,0-0.1,0.1-0.1c0.3,0.6,0.5,1.3,0.7,1.9c0,0,0,0,0,0.1
			c0,0,0,0,0,0c0,0,0,0,0,0C90.2,8.5,90.3,8.8,90.4,9"/>
		<path class="st7" d="M90.2,8.2c0,0.1-0.1,0-0.1,0c0,0,0,0,0,0c0,0,0,0,0,0c0,0,0,0,0-0.1C90.2,8.1,90.2,8.1,90.2,8.2"/>
		<path class="st2" d="M90.1,8.2C90.1,8.2,90.1,8.2,90.1,8.2C90.1,8.2,90.1,8.2,90.1,8.2"/>
		<path class="st4" d="M88.7,0.1C88.7,0.1,88.7,0.1,88.7,0.1c-0.5,0.3-1,0.6-1.5,0.9c-0.1,0-0.1,0.1-0.1,0.1l-0.1,0
			c0.1-0.1,0-0.2,0-0.3c-0.1-0.2-0.2-0.4-0.3-0.6c0-0.1,0-0.1,0.1-0.1C87.4,0,88,0,88.7,0.1"/>
		<polyline class="st8" points="87.9,3 87.9,3 87.9,3 87.9,3 87.9,3 		"/>
		<path class="st4" d="M87.5,2c0.1,0.3,0.3,0.6,0.4,0.9l0,0c0,0,0,0,0,0c-0.6,0.4-1.3,0.8-1.9,1.1c-0.1,0-0.1,0.1-0.1,0.1h-0.2
			c0-0.1,0-0.1,0-0.2c-0.2-0.4-0.3-0.8-0.5-1.2c-0.1-0.2-0.1-0.4-0.3-0.6c0,0,0,0,0.1-0.1c0.1,0,0.3-0.1,0.4-0.1
			c0.5-0.3,1-0.6,1.6-0.9C86.9,1.1,86.9,1.1,87,1l0.1,0c0,0,0,0.1,0,0.1C87.3,1.5,87.4,1.8,87.5,2"/>
		<path class="st4" d="M87.7,9.2C87.7,9.2,87.8,9.3,87.7,9.2c0,0.1,0,0.1-0.1,0.1c-0.5,0-0.9,0-1.4,0c-0.2,0-0.5,0-0.7-0.1
			c-1.4-0.7-2.8-1.5-4.2-2.2C81.2,7,81.1,6.9,81,6.9l0,0c0,0,0,0,0.1-0.1c0.4-0.2,0.8-0.5,1.3-0.7c1-0.6,2.1-1.2,3.1-1.8
			c0.1,0,0.1-0.1,0.1-0.1h0.2c0,0.1,0,0.1,0,0.2c0.2,0.7,0.5,1.3,0.8,1.9c0.2,0.4,0.3,0.8,0.5,1.2c0.1,0.3,0.3,0.7,0.4,1
			C87.5,8.8,87.6,9.1,87.7,9.2"/>
		<path class="st1" d="M84.7,2.1C84.8,2.1,84.8,2.1,84.7,2.1c0.1,0.1,0,0.1,0,0.2c0,0-0.1,0-0.1,0c-1.3,0-2.7,0-4,0
			c-0.1,0-0.3,0-0.4,0l-0.4-0.1c0.2,0,0.3,0,0.4-0.2c0.1-0.4,0.3-0.7,0.5-1.1c0.1-0.1,0.1-0.3,0.2-0.4c0.1-0.2,0.2-0.3,0.1-0.5
			c0,0,0.1,0,0.1,0c0,0.1,0.1,0.2,0.3,0.3c0.2,0.1,0.3,0.2,0.5,0.2c0.4,0.2,0.8,0.4,1.1,0.7C83.5,1.5,84,1.7,84.4,2
			C84.5,2,84.6,2.1,84.7,2.1"/>
		<path class="st3" d="M84.7,2.1c-0.2,0-0.3,0-0.4-0.1c-0.4-0.3-0.9-0.5-1.3-0.7C82.7,1,82.3,0.8,82,0.6c-0.2-0.1-0.3-0.2-0.5-0.2
			c-0.2-0.1-0.2-0.2-0.3-0.3c0.1-0.1,0.2,0,0.2,0c0.7,0,1.5,0,2.2,0c0.2,0,0.3,0,0.3,0.2c0.1,0.4,0.3,0.7,0.4,1.1
			C84.5,1.5,84.6,1.8,84.7,2.1"/>
		<path class="st3" d="M80.7,2.3c1.3,0,2.7,0,4,0c-0.1,0.1-0.2,0.2-0.3,0.2c-1.8,1-3.5,2-5.3,3c0,0-0.1,0-0.1,0
			c-0.1-0.3,0.2-0.5,0.3-0.7c0.3-0.8,0.7-1.5,1-2.3c0-0.1-0.1-0.2,0.1-0.3C80.4,2.3,80.6,2.3,80.7,2.3"/>
		<path class="st3" d="M81.1,9.2c0.1,0,0.2,0,0.2,0.2c-0.3,0-0.7,0-1,0c-1,0-1.9,0-2.9,0c-0.3,0-0.7-0.1-1,0c0,0,0,0-0.1,0
			C77,9,77.8,8.6,78.5,8.2c0.1-0.1,0.2-0.1,0.2-0.1l0.1,0c0,0,0,0,0.1,0.1C79.6,8.5,80.4,8.9,81.1,9.2"/>
	</g>
</g>
<g>
	<defs>
		<rect id="SVGID_00000007407564403438260860000010616975353267075765_" x="-0.2" y="-0.1" width="216" height="9.6"/>
	</defs>
	<clipPath id="SVGID_00000126299325157549109610000015055558164772422053_">
		<use xlink:href="#SVGID_00000007407564403438260860000010616975353267075765_"  style="overflow:visible;"/>
	</clipPath>
	<g style="clip-path:url(#SVGID_00000126299325157549109610000015055558164772422053_);">
		<path class="st4" d="M81.1,0.1c0,0.2,0,0.3-0.1,0.5c-0.1,0.1-0.1,0.2-0.2,0.4c-0.2,0.4-0.3,0.7-0.5,1.1c-0.1,0.2-0.2,0.2-0.4,0.2
			c-0.3,0-0.5,0-0.8,0c-0.5,0-1,0-1.5,0c-0.2,0-0.3,0-0.3-0.1c0,0-0.1-0.1-0.1-0.2c0-0.1-0.1-0.2-0.1-0.4c-0.2-0.4-0.4-0.8-0.5-1.2
			c0-0.1-0.1-0.2-0.2-0.2c0,0,0.1-0.1,0.1-0.1c0.3,0,0.6,0,0.9,0c0.9,0,1.7,0,2.6,0C80.5,0,80.8,0.1,81.1,0.1"/>
		<polygon class="st2" points="81,6.9 81,6.9 81,6.9 		"/>
		<path class="st3" d="M79,5.8c0.7,0.4,1.3,0.7,2,1.1c-0.5,0.2-0.9,0.5-1.3,0.7c-0.3,0.1-0.5,0.3-0.8,0.4C78.8,8,78.8,8,78.8,8
			l-0.1,0c0,0-0.1-0.1-0.1-0.1c-0.6-0.3-1.2-0.7-1.8-1c0,0-0.1,0-0.1,0c0,0,0-0.1,0-0.1c0.1,0,0.2,0,0.2-0.1
			c0.6-0.3,1.1-0.6,1.7-0.9c0.2-0.1,0.2-0.1,0.1-0.2l0.1,0c0,0,0.1,0,0.1,0C78.8,5.7,78.9,5.7,79,5.8"/>
		<path class="st1" d="M79.9,2.2l0.4,0.1c-0.2,0-0.1,0.2-0.1,0.3c-0.3,0.7-0.7,1.5-1,2.3C79.1,5,78.9,5.3,79,5.5c0,0-0.1,0-0.1,0.1
			c-0.1,0-0.1,0-0.1,0c0,0-0.1,0-0.1-0.1c-0.2-0.4-0.3-0.8-0.5-1.2c-0.2-0.4-0.3-0.8-0.5-1.2c-0.1-0.2-0.2-0.4-0.3-0.7
			c0-0.2-0.2-0.2-0.4-0.2l0.3-0.1c0.1,0.1,0.2,0.1,0.3,0.1c0.5,0,1,0,1.5,0C79.4,2.2,79.7,2.2,79.9,2.2"/>
		<path class="st3" d="M78.7,5.5L78.7,5.5c-0.1,0-0.1,0-0.2,0c-1.4-0.8-2.7-1.6-4.1-2.4c-0.4-0.2-0.8-0.5-1.2-0.7
			c-0.1,0-0.1-0.1-0.2-0.1V2.2c0.5,0,1,0,1.5,0c0.8,0,1.6,0,2.4,0c0.2,0,0.4,0,0.4,0.2c0,0.2,0.2,0.5,0.3,0.7
			c0.2,0.4,0.3,0.8,0.5,1.2C78.3,4.7,78.5,5,78.7,5.5C78.7,5.5,78.7,5.5,78.7,5.5"/>
		<path class="st1" d="M77.4,2.1L77,2.2c-0.8,0-1.6,0-2.4,0c-0.5,0-1,0-1.5,0H73c0,0,0-0.1,0.1-0.1c0.1,0,0.2,0,0.2-0.1
			c0.2-0.1,0.4-0.2,0.6-0.3c0.7-0.4,1.5-0.8,2.2-1.2c0.1-0.1,0.3-0.1,0.4-0.2c0.2,0,0.2,0.1,0.2,0.2c0.1,0.4,0.3,0.8,0.5,1.2
			c0.1,0.1,0.1,0.2,0.1,0.4C77.3,2,77.3,2.1,77.4,2.1"/>
		<path class="st3" d="M76.6,0.1c0,0.1-0.1,0.1-0.1,0.1c-0.1,0.1-0.3,0.2-0.4,0.2c-0.7,0.4-1.5,0.8-2.2,1.2
			c-0.2,0.1-0.4,0.2-0.6,0.3c-0.1,0-0.1,0.1-0.2,0.1c0.2-0.6,0.5-1.2,0.8-1.7c0-0.1,0-0.2,0.1-0.3c0.1-0.1,0.3,0,0.4,0
			c0.5,0,0.9,0,1.4,0C76.1,0,76.4,0.1,76.6,0.1"/>
		<path class="st4" d="M76.6,6.8c0,0,0,0.1,0,0.1c-0.1,0-0.1,0-0.2,0.1c-0.6,0.3-1.1,0.6-1.7,0.9c-0.8,0.4-1.6,0.9-2.4,1.3
			c-0.1,0.1-0.2,0.1-0.4,0.1c0,0-0.1,0-0.1,0h-0.1c0,0,0,0,0,0c-0.1,0-0.1,0-0.2,0c0,0,0,0-0.1,0c0,0,0,0-0.1,0c0,0-0.1,0-0.1,0
			s-0.1,0-0.1,0h-0.1c0,0-0.1,0-0.1,0c-0.2,0-0.4,0-0.6,0c-1.7,0-3.4,0-5,0c-0.1,0-0.1,0-0.2,0l0,0c-0.3,0-0.5,0-0.8,0
			c-0.1,0-0.1-0.1-0.1-0.1c0-0.1,0.1-0.3,0.2-0.4c0.2-0.5,0.4-1,0.6-1.6c0.1-0.3,0.2-0.6,0.3-0.9c0-0.1,0.1-0.1,0.1-0.1
			c0.1,0,0.1,0,0.2,0.1c0.3,0.1,0.5,0.3,0.8,0.4c0.8,0.5,1.7,0.9,2.5,1.4c0.3,0.2,0.7,0.4,1,0.6c0.2,0.1,0.2,0,0.3,0
			c0.2-0.3,0.2-0.7,0.4-1C70.9,7.3,71,7,71.2,6.6c0.2-0.4,0.3-0.8,0.5-1.2C71.9,5,72,4.6,72.2,4.3c0,0,0,0,0,0c0,0,0.1,0,0.1,0
			c0.1,0,0.2,0.1,0.2,0.1c1.3,0.8,2.5,1.5,3.8,2.3C76.4,6.7,76.5,6.9,76.6,6.8"/>
		<path class="st3" d="M73.1,2.2L73.1,2.2C73,2.3,73,2.3,72.9,2.4c-0.1,0.3-0.2,0.6-0.4,0.9c-0.1,0.3-0.3,0.6-0.4,0.9
			c-0.6-0.3-1.1-0.7-1.7-1c0,0-0.1,0-0.1-0.1C70.2,3.1,70.1,3,70,3v0c0.2-0.6,0.5-1.2,0.7-1.9c0,0,0-0.1,0-0.1c0,0,0.1,0,0.1,0
			c0.7,0.4,1.4,0.8,2.1,1.2C73,2.2,73,2.2,73.1,2.2C73,2.2,73.1,2.2,73.1,2.2z"/>
		<path class="st10" d="M71,0c0.2,0,0.3,0.1,0.2,0.2C71,0.5,70.9,0.7,70.8,1c0,0-0.1,0-0.1,0c0-0.1-0.1-0.1-0.1-0.1
			c-0.5-0.2-0.9-0.5-1.4-0.7c0,0-0.1,0-0.1-0.1c0,0,0.1,0,0.1,0C69.8,0,70.4,0,71,0"/>
		<path class="st3" d="M70,3L70,3c-0.1,0-0.1,0.1-0.2,0.4c-0.2,0.6-0.5,1.2-0.7,1.9c0,0.1,0,0.1-0.1,0.2c-0.1,0.2-0.1,0.2-0.3,0.1
			c-0.7-0.3-1.3-0.7-2-1c-0.1,0-0.1-0.1-0.2-0.1c-0.1,0-0.1,0-0.2,0l-0.1-0.1c0.1,0,0.1-0.1,0.1-0.2c0.1-0.3,0.2-0.5,0.3-0.8
			c0.2-0.5,0.4-1,0.5-1.4c0-0.1,0.2-0.1,0.3,0c0.2,0.1,0.4,0.2,0.6,0.3C68.7,2.3,69.3,2.7,70,3"/>
		<path class="st3" d="M66.3,4.2L66.3,4.2c0.1,0.1,0,0.1-0.1,0.2c-0.1,0.4-0.3,0.7-0.4,1.1c-0.1,0.2-0.2,0.4-0.3,0.7
			c-0.7-0.4-1.4-0.8-2.1-1.2c0,0-0.1-0.1-0.1-0.1c0.2-0.6,0.5-1.3,0.7-1.9c0.1,0,0.2,0.1,0.3,0.1c0.6,0.4,1.2,0.7,1.8,1
			C66.3,4.2,66.3,4.2,66.3,4.2"/>
		<path class="st4" d="M65,0c0.3,0,0.3,0,0.2,0.2c-0.3,0.7-0.6,1.5-0.9,2.2c-0.1,0.2-0.1,0.4-0.3,0.5c-0.7-0.4-1.5-0.8-2.2-1.2
			c-0.8-0.4-1.6-0.9-2.4-1.3c-0.1-0.1-0.2-0.1-0.2-0.2c0,0,0.1-0.1,0.2-0.1C59.8,0.1,60,0,60.2,0C61.8,0,63.4,0,65,0"/>
		<path class="st1" d="M63.4,5C63.4,5,63.5,5,63.4,5c0,0.1,0,0.1-0.1,0.1c-0.1,0-0.1,0-0.2,0c-1,0.4-2,0.8-2.9,1.2
			c-0.1,0-0.1,0-0.1,0.1l-0.2,0c0-0.1,0-0.1-0.1-0.2c-0.2-0.3-0.4-0.5-0.5-0.8C59.2,5.1,59,5,58.6,5l0.5-0.2C59.2,4.9,59.3,5,59.4,5
			c0.1,0,0.2,0,0.3,0c1.1,0,2.3,0,3.4,0c0.1,0,0.2,0,0.2,0C63.4,4.9,63.4,5,63.4,5"/>
		<path class="st3" d="M57.3,1.6c2,1.1,4,2.2,6,3.3c-0.1,0.1-0.1,0-0.2,0c-1.1,0-2.3,0-3.4,0c-0.1,0-0.2,0-0.3,0
			c-0.2,0-0.3-0.1-0.3-0.2c0,0-0.1-0.1-0.1-0.1C58.7,4.1,58.3,3.6,58,3C57.8,2.6,57.5,2.2,57.3,1.6C57.2,1.7,57.2,1.6,57.3,1.6"/>
		<path class="st3" d="M63.1,5.1c0.1,0,0.1,0,0.2,0c-0.2,0.6-0.4,1.2-0.6,1.8c-0.1,0.3-0.2,0.6-0.4,0.9c-0.2,0.4-0.3,0.9-0.5,1.3
			c0,0.1,0,0.2-0.2,0.2c-0.1-0.2-0.2-0.5-0.4-0.7c-0.4-0.7-0.7-1.3-1.2-2c-0.1-0.1-0.1-0.1,0-0.2c0,0,0.1,0,0.1-0.1
			C61.2,5.9,62.1,5.5,63.1,5.1"/>
		<path class="st1" d="M61.6,9.3c-0.2,0-0.3,0-0.4,0c0-0.1-0.2-0.1-0.2-0.1c-0.8-0.3-1.5-0.6-2.3-0.9c-0.4-0.2-0.9-0.3-1.3-0.5
			c-0.1-0.1-0.2-0.1-0.3-0.1V7.5c0.2,0,0.4,0,0.5-0.1c0.2-0.1,0.5-0.2,0.7-0.3c0.4-0.2,0.8-0.3,1.3-0.5c0.1,0,0.2-0.1,0.2-0.1l0.2,0
			c-0.1,0.1-0.1,0.1,0,0.2c0.5,0.6,0.8,1.3,1.2,2C61.4,8.8,61.5,9.1,61.6,9.3"/>
		<path class="st3" d="M61.2,9.3c-0.1,0.1-0.2,0-0.3,0c-0.1,0-0.2,0-0.3,0c-1.8,0-3.5,0-5.3,0l0,0l0,0h-0.2l0,0c-0.8,0-1.6,0-2.4,0
			c0-0.1,0.1-0.1,0.1-0.1c0.9-0.3,1.7-0.7,2.6-1c0.4-0.2,0.8-0.3,1.2-0.5c0.1-0.1,0.2-0.1,0.3-0.1c0.1,0,0.2,0,0.3,0.1
			c0.4,0.2,0.9,0.4,1.3,0.5c0.8,0.3,1.5,0.6,2.3,0.9C61.1,9.3,61.2,9.2,61.2,9.3"/>
		<path class="st4" d="M59.8,6.2c0.1,0.1,0.1,0.2,0.1,0.2c0,0-0.1,0.1-0.2,0.1c-0.4,0.2-0.8,0.3-1.3,0.5c-0.3,0.1-0.5,0.2-0.7,0.3
			c-0.2,0.1-0.4,0.1-0.5,0.1c-0.2,0-0.5-0.1-0.7-0.2c-0.3-0.2-0.7-0.3-1-0.4c-0.3-0.1-0.6-0.3-0.9-0.4c-0.1,0-0.1,0-0.1-0.1
			c0,0,0-0.1,0-0.2c0.2-0.3,0.3-0.6,0.4-0.9c0.1-0.1,0.1-0.2,0.2-0.3C55.1,5,55.3,5,55.6,5c0.4,0,0.9,0,1.3,0l0,0c0.6,0,1.1,0,1.7,0
			c0.3,0,0.6,0.1,0.7,0.3C59.4,5.6,59.6,5.9,59.8,6.2"/>
		<path class="st4" d="M59.2,0.3c0,0,0,0.1-0.1,0.1s-0.2,0.1-0.2,0.1c-0.5,0.3-1.1,0.6-1.6,0.8c-0.1,0-0.1,0.1-0.2,0.1
			c-0.1,0-0.1,0-0.2-0.1c-0.6-0.3-1.2-0.7-1.8-1c-0.1-0.1-0.2-0.1-0.2-0.2s0.1-0.1,0.2-0.1C55.3,0.1,55.5,0,55.7,0
			c0.5,0,0.9,0,1.4,0s0.9,0,1.4,0c0.2,0,0.4,0,0.6,0.1C59.1,0.2,59.2,0.2,59.2,0.3"/>
		<path class="st1" d="M59,4.8L58.6,5c-0.6,0-1.1,0-1.7,0l0,0c-0.4,0-0.9,0-1.3,0c-0.3,0-0.5,0-0.6,0.1L54.9,5C55,5,55,5,55.1,4.9
			c0.2-0.4,0.4-0.7,0.6-1.1c0.5-0.7,0.8-1.4,1.2-2.1c0,0,0-0.1,0-0.1C56.9,1.6,57,1.6,57,1.6c0.1,0,0.2,0,0.2,0.1
			c-0.1,0-0.1,0.1,0,0.1c0.3,0.4,0.5,0.9,0.8,1.3C58.3,3.6,58.7,4.2,59,4.8C59,4.8,59,4.8,59,4.8"/>
		<path class="st1" d="M57.1,7.5v0.2c-0.1,0-0.2,0-0.3,0.1c-0.4,0.2-0.8,0.3-1.2,0.5c-0.8,0.4-1.7,0.7-2.6,1c-0.1,0-0.1,0-0.1,0.1
			c-0.1,0-0.2,0-0.3,0c0-0.1,0-0.1,0-0.2c0.3-0.4,0.5-0.8,0.8-1.3c0.2-0.5,0.5-0.9,0.8-1.3c0,0,0-0.1,0-0.1l0.2,0
			c0,0,0.1,0.1,0.1,0.1c0.3,0.1,0.6,0.3,0.9,0.4c0.4,0.1,0.7,0.2,1,0.4C56.6,7.4,56.9,7.5,57.1,7.5"/>
		<path class="st3" d="M56.8,1.6C56.8,1.6,56.9,1.7,56.8,1.6c-0.4,0.8-0.7,1.5-1.2,2.1c-0.2,0.4-0.4,0.7-0.6,1.1C55,5,55,5,54.9,5
			c-1.3,0-2.6,0-3.9,0c0,0-0.1,0-0.1,0c1.6-0.9,3.1-1.7,4.7-2.6C56,2.1,56.4,1.9,56.8,1.6"/>
	</g>
</g>
<g>
	<defs>
		<rect id="SVGID_00000142861591415752779260000004591293419205971103_" x="-0.2" y="-0.1" width="216" height="9.6"/>
	</defs>
	<clipPath id="SVGID_00000091010092074289612980000009500413414305250726_">
		<use xlink:href="#SVGID_00000142861591415752779260000004591293419205971103_"  style="overflow:visible;"/>
	</clipPath>
	<g style="clip-path:url(#SVGID_00000091010092074289612980000009500413414305250726_);">
		<path class="st1" d="M54.9,5L55,5.1c-0.1,0.1-0.2,0.2-0.2,0.3c-0.1,0.3-0.3,0.6-0.4,0.9c0,0.1-0.1,0.1,0,0.2l-0.2,0
			c0,0-0.1,0-0.1-0.1c-0.4-0.2-0.8-0.3-1.1-0.5c-0.4-0.2-0.8-0.3-1.2-0.5c-0.3-0.1-0.6-0.3-0.9-0.3c0,0-0.1,0-0.1-0.1
			c0,0,0-0.1,0.1-0.1c0,0,0.1,0,0.1,0c0,0,0.1,0,0.1,0C52.3,5,53.6,5,54.9,5"/>
		<path class="st4" d="M54.8,0.3c0,0-0.1,0.1-0.1,0.2c-0.4,0.2-0.7,0.4-1.1,0.6c-0.5,0.3-1,0.5-1.5,0.8c-0.6,0.3-1.2,0.7-1.9,1
			c-0.1,0-0.2,0.1-0.3,0c0,0,0,0,0,0c0,0,0-0.1-0.1-0.1c-0.1-0.3-0.2-0.6-0.3-0.9c-0.2-0.5-0.4-0.9-0.5-1.4
			c-0.1-0.1-0.2-0.3-0.1-0.4c1.7,0,3.4,0,5.1,0c0.2,0,0.4,0,0.6,0.1C54.7,0.2,54.8,0.2,54.8,0.3"/>
		<path class="st3" d="M54.1,6.4C54.1,6.4,54.1,6.5,54.1,6.4c-0.3,0.5-0.6,1-0.8,1.4c-0.2,0.4-0.5,0.9-0.8,1.3
			c-0.1,0.1-0.1,0.1,0,0.2c-0.1,0-0.1,0-0.2-0.1c-0.2-0.5-0.4-1-0.6-1.5s-0.4-1-0.6-1.5c-0.1-0.4-0.3-0.8-0.4-1.2
			c0.3,0.1,0.6,0.2,0.9,0.3c0.4,0.2,0.8,0.3,1.2,0.5c0.4,0.2,0.8,0.3,1.1,0.5C54,6.4,54.1,6.4,54.1,6.4"/>
		<path class="st3" d="M50.8,5C50.8,5,50.7,5,50.8,5c-0.2,0.1-0.2,0.2-0.3,0.2c-0.6,0.3-1.1,0.6-1.7,0.9c-0.1,0.1-0.2,0.1-0.2,0.1
			c0,0-0.1-0.1-0.1-0.1c-0.2-0.5-0.4-1-0.6-1.5c0-0.1-0.1-0.2-0.1-0.2l0,0c0,0,0,0,0,0c0,0,0,0,0,0c0,0,0.1,0,0.1,0
			c0.1,0,0.2-0.1,0.2-0.2l0,0c0.3,0,0.4-0.2,0.6-0.3c0.1,0,0.1-0.1,0.2-0.1c0.3-0.2,0.7-0.3,0.9-0.6c0.1,0,0.1,0,0.1,0.1
			c0.2,0.6,0.4,1.1,0.6,1.7C50.7,4.9,50.7,4.9,50.8,5"/>
		<path class="st2" d="M49.8,2.7c0,0,0.1,0.1,0.1,0.1C49.8,2.8,49.8,2.8,49.8,2.7"/>
		<path class="st4" d="M49.6,9c0.1,0.1,0.1,0.2,0,0.4c-0.1,0-0.2,0-0.3,0c-1.8,0-3.5,0-5.3,0V8.8c0,0,0.1,0,0.1,0
			c1.4-0.8,2.8-1.6,4.2-2.4c0.1,0,0.1,0,0.1,0c0,0,0.1,0,0.1,0.1c0.2,0.4,0.3,0.8,0.5,1.2C49.2,8,49.4,8.5,49.6,9"/>
		<path class="st2" d="M47.9,4.2C47.9,4.2,47.9,4.2,47.9,4.2C47.9,4.2,47.9,4.2,47.9,4.2"/>
		<path class="st2" d="M47.8,4.2C47.8,4.2,47.8,4.2,47.8,4.2C47.8,4.2,47.8,4.2,47.8,4.2C47.8,4.2,47.8,4.2,47.8,4.2"/>
		<path class="st3" d="M47.8,4.2C47.8,4.2,47.8,4.2,47.8,4.2L47.8,4.2c-0.5,0.3-0.9,0.5-1.4,0.8c-0.3,0.2-0.7,0.3-1,0.5
			c-0.2,0.1-0.2,0.1-0.3-0.1c-0.2-0.6-0.4-1.1-0.6-1.6c-0.1-0.3-0.2-0.5-0.3-0.8v0c0.1,0,0.1,0,0.2-0.1c0.4-0.2,0.7-0.3,1.1-0.5
			c0.4-0.2,0.8-0.4,1.2-0.6c0.1,0,0.2-0.1,0.2,0c0.2,0.7,0.5,1.3,0.7,2c0,0,0,0,0,0c0,0,0,0.1,0,0.1C47.7,4,47.7,4.1,47.8,4.2"/>
		<path class="st10" d="M44.8,0.1c0.1,0,0.2,0,0.3,0.1c-0.5,0.1-0.9,0.4-1.3,0.6c-0.1,0-0.2,0.1-0.3,0.1c0,0-0.1,0-0.1,0l0,0
			c-0.1,0-0.1-0.2-0.2-0.3c-0.1-0.1-0.2-0.3-0.2-0.5c-0.1-0.2,0-0.2,0.2-0.2C43.7,0,44.2,0.1,44.8,0.1"/>
		<path class="st3" d="M44.1,2.9L44.1,2.9c-0.6,0.4-1.2,0.7-1.8,1C42.2,4,42.1,4.2,42,4.2c0,0,0,0,0,0c-0.1,0-0.1-0.2-0.1-0.3
			c-0.1-0.3-0.3-0.6-0.4-0.8c-0.1-0.2-0.2-0.4-0.3-0.7c0-0.1-0.1-0.1-0.1-0.1v0c0,0,0,0,0,0c0.3-0.1,0.5-0.3,0.8-0.4
			c0.4-0.2,0.8-0.5,1.2-0.7C43.2,1,43.3,1,43.4,1c0.1,0.5,0.4,0.9,0.6,1.4c0.1,0.1,0.2,0.3,0.2,0.4C44.1,2.9,44.1,2.9,44.1,2.9"/>
		<path class="st4" d="M44,8.8v0.6h-0.9c-0.2,0-0.4,0-0.5,0c-0.1,0-0.1,0.1-0.1,0.1h-0.2c0,0,0-0.1,0-0.1C41.8,9.3,41.4,9,41,8.8
			c-1.1-0.6-2.3-1.3-3.4-1.9C39,6,40.5,5.1,41.9,4.2c0.2,0.4,0.3,0.7,0.5,1.1c0.1,0.3,0.3,0.7,0.4,1c0.1,0.3,0.3,0.7,0.4,1
			c0.2,0.5,0.4,1,0.6,1.4C43.9,8.8,43.9,8.8,44,8.8"/>
		<path class="st2" d="M43.4,0.9C43.4,0.9,43.4,1,43.4,0.9C43.4,0.9,43.4,0.9,43.4,0.9"/>
		<path class="st6" d="M41.1,2.2C41.1,2.2,41.1,2.2,41.1,2.2L41.1,2.2C41.1,2.2,41.1,2.2,41.1,2.2"/>
		<path class="st3" d="M41.1,2.2L41.1,2.2c-0.1,0-0.2,0.1-0.2,0.2c-1.2,0.7-2.4,1.4-3.5,2.1c-0.6,0.4-1.2,0.7-1.8,1.1
			c0,0-0.1,0-0.1,0c-0.1-0.1,0-0.1,0-0.2c0.2-0.2,0.2-0.5,0.3-0.7C35.8,4.4,35.9,4.2,36,4c0.2-0.4,0.3-0.7,0.5-1.1
			c0.1-0.2,0.2-0.3,0.2-0.5c0,0,0-0.1,0-0.1c0-0.1,0.1-0.1,0.3-0.1c1.2,0,2.5,0,3.7,0C40.8,2.2,40.9,2.2,41.1,2.2L41.1,2.2
			C41,2.1,41.1,2.2,41.1,2.2"/>
		<path class="st1" d="M41,2c0,0,0,0.1,0,0.1c-0.1,0.1-0.2,0.1-0.4,0.1c-1.2,0-2.5,0-3.7,0c-0.2,0-0.2,0-0.3,0.1l-0.2-0.1
			c0.1,0,0.2,0,0.2-0.1c0.2-0.5,0.4-0.9,0.6-1.3c0.1-0.2,0.1-0.4,0.1-0.7c0.1,0,0.1,0,0.2,0c0,0.1,0.1,0.2,0.2,0.2
			c1.1,0.6,2.1,1.2,3.2,1.7C40.9,2.1,41,2.1,41,2"/>
		<path class="st3" d="M41,2c-0.1,0.1-0.1,0-0.2,0c-1.1-0.6-2.1-1.2-3.2-1.7c-0.1-0.1-0.2-0.1-0.2-0.2c0.1,0,0.1,0,0.2,0
			c0.7,0,1.5,0,2.2,0c0.2,0,0.3,0,0.3,0.2c0.2,0.5,0.4,0.9,0.6,1.4C40.9,1.8,41,1.9,41,2"/>
		<path class="st3" d="M37.7,9.3C37.7,9.3,37.7,9.3,37.7,9.3c-1.3,0.1-2.8,0.1-4.2,0.1c-0.2,0-0.4,0-0.5,0c0.2-0.1,0.4-0.2,0.6-0.3
			c0.5-0.3,1.1-0.5,1.6-0.8c0.1,0,0.1-0.1,0.1-0.1h0.2c0,0,0.1,0.1,0.1,0.1C36.3,8.5,37,8.9,37.7,9.3"/>
		<path class="st3" d="M37.4,6.8c0.1,0,0.1,0.1,0.1,0.1c0,0,0,0.1-0.1,0.1c-0.6,0.3-1.2,0.7-1.8,1C35.5,8,35.5,8,35.5,8h-0.2
			c0,0-0.1-0.1-0.1-0.1c-0.6-0.3-1.2-0.7-1.8-1c-0.1,0-0.1-0.1-0.1-0.1c0,0,0.1-0.1,0.1-0.1c0.6-0.3,1.1-0.6,1.7-0.9
			c0.1,0,0.2-0.1,0.2-0.2c0,0,0.1,0,0.1,0C36.1,6.1,36.7,6.4,37.4,6.8"/>
		<path class="st4" d="M37.4,0.1c0,0.2,0,0.4-0.1,0.7c-0.2,0.4-0.4,0.9-0.6,1.3c0,0.1-0.1,0.1-0.2,0.1c-0.8,0-1.6,0-2.4,0
			c-0.1,0-0.2,0-0.2-0.1c0,0,0,0,0-0.1c-0.2-0.4-0.4-0.7-0.5-1.1c-0.1-0.2-0.3-0.5-0.3-0.7c0-0.1,0-0.1-0.1-0.1c0,0,0-0.1,0-0.1
			c1.2-0.1,2.5,0,3.7,0C36.9,0,37.1,0.1,37.4,0.1"/>
		<path class="st1" d="M36.5,2.2l0.2,0.1c0,0,0,0.1,0,0.1c0,0.2-0.1,0.4-0.2,0.5C36.3,3.3,36.2,3.7,36,4c-0.1,0.2-0.2,0.4-0.2,0.6
			c-0.1,0.2-0.1,0.5-0.3,0.7c0,0.1-0.1,0.1,0,0.2c0,0-0.1,0.1-0.1,0.1c0,0-0.1,0-0.1,0c0,0,0-0.1-0.1-0.1c0-0.2-0.2-0.4-0.2-0.5
			c-0.3-0.5-0.5-1-0.7-1.6c-0.2-0.3-0.3-0.7-0.5-1c-0.1-0.1-0.1-0.1-0.3-0.1l0.3-0.1c0.1,0.1,0.1,0.1,0.2,0.1
			C34.9,2.2,35.7,2.2,36.5,2.2"/>
		<path class="st3" d="M35,5c0.1,0.2,0.2,0.4,0.2,0.5c-0.3-0.1-0.6-0.3-0.9-0.5c-1.1-0.6-2.1-1.2-3.2-1.8c-0.5-0.3-0.9-0.5-1.4-0.8
			c-0.1-0.1-0.2-0.1-0.4-0.2c0-0.1,0.1-0.1,0.2-0.1c1.1,0,2.1,0,3.2,0c0.3,0,0.5,0,0.8,0c0.1,0,0.2,0,0.3,0.1c0.2,0.3,0.3,0.7,0.5,1
			C34.6,4,34.8,4.5,35,5"/>
		<path class="st1" d="M33.9,2.1l-0.3,0.1c-0.3,0-0.5,0-0.8,0c-1.1,0-2.1,0-3.2,0c-0.1,0-0.1,0-0.2,0.1c-0.1,0-0.1,0-0.1,0
			c0,0,0,0,0,0c0,0,0-0.1,0.1-0.1c0.2-0.1,0.4-0.2,0.5-0.3c0.6-0.3,1.2-0.7,1.8-1c0.4-0.2,0.8-0.4,1.2-0.7c0.1,0,0.1,0,0.1,0.1
			c0,0.3,0.2,0.5,0.3,0.7C33.5,1.3,33.6,1.7,33.9,2.1C33.8,2.1,33.8,2.1,33.9,2.1"/>
		<path class="st4" d="M33.1,6.8C33.1,6.8,33.1,6.8,33.1,6.8C33.1,6.9,33,6.9,33,7c-0.3,0.2-0.6,0.3-0.9,0.5c-1,0.5-2,1-2.9,1.6
			c-0.3,0.2-0.6,0.3-0.9,0.4c-0.1,0-0.3,0-0.4,0c-0.3,0-0.7,0-0.9,0c0,0-0.1,0-0.1,0c-0.4,0-0.4,0-0.3-0.3c0.2-0.5,0.4-1.1,0.6-1.6
			c0.2-0.6,0.5-1.2,0.7-1.8c0.1-0.3,0.3-0.7,0.4-1c0-0.1,0.1-0.1,0.1-0.2c0-0.1,0.1-0.2,0.2-0.2c0.1,0,0.2,0,0.3,0.1
			c0.2,0.1,0.4,0.3,0.7,0.4c0.5,0.3,1.1,0.6,1.6,0.9C31.7,6,32.4,6.4,33.1,6.8"/>
		<path class="st3" d="M32.9,0.1C32.9,0.1,32.9,0.1,32.9,0.1c-0.4,0.3-0.8,0.6-1.2,0.8c-0.6,0.3-1.2,0.7-1.8,1
			c-0.2,0.1-0.3,0.3-0.5,0.3c0-0.3,0.2-0.6,0.3-0.8C29.9,1,30,0.6,30.2,0.2c0-0.1,0.1-0.1,0.2-0.1c0.7,0,1.4,0,2.1,0
			C32.7,0,32.8,0.1,32.9,0.1"/>
		<path class="st4" d="M29.3,2.3C29.3,2.3,29.3,2.3,29.3,2.3c-0.2,0.2-0.2,0.4-0.3,0.5c-0.2,0.4-0.4,0.9-0.6,1.3c0,0.1,0,0.1,0,0.2
			c-0.7-0.4-1.4-0.7-2-1.1c-0.1,0-0.2,0-0.3,0c0,0,0-0.1,0-0.1c0.2,0,0.2-0.2,0.3-0.3c0.2-0.5,0.4-0.9,0.5-1.4C27,1.2,27,1.1,27,1
			h0.1c0,0,0.1,0,0.1,0.1c0.7,0.3,1.2,0.7,1.9,1C29.2,2.2,29.2,2.2,29.3,2.3"/>
		<path class="st4" d="M27.3,0c0.2,0,0.3,0.1,0.2,0.2c-0.1,0.2-0.1,0.5-0.3,0.7c0,0,0,0,0,0.1H27c0-0.1-0.1-0.1-0.3-0.2
			c-0.4-0.2-0.8-0.5-1.3-0.7c0,0-0.1,0-0.1-0.1c0,0,0.1-0.1,0.1-0.1C26.1,0,26.7,0,27.3,0"/>
		<path class="st3" d="M26.1,9.1c0.1,0.1,0.2,0.2,0.1,0.3c-0.1,0-0.3,0-0.4,0c-0.7,0-1.4,0-2,0c-0.1,0-0.2,0-0.2-0.1
			c0.2-0.4,0.3-0.8,0.5-1.2c0.2-0.4,0.3-0.8,0.4-1.2c0.1-0.2,0.2-0.3,0.2-0.5c0.1,0,0-0.1,0.2-0.2C25.3,7.2,25.7,8.1,26.1,9.1"/>
		<path class="st3" d="M26.2,3c0,0,0,0.1,0,0.1c-0.1,0.2-0.2,0.5-0.3,0.7c-0.3,0.7-0.6,1.3-0.9,2C24.9,5.9,24.9,6,24.9,6
			c0,0.1-0.1,0-0.1,0c0-0.1,0-0.1-0.1-0.2c-0.2-0.3-0.4-0.7-0.6-1c-0.1-0.1-0.2-0.1-0.3-0.1c-0.2,0-0.3,0-0.5,0c-0.6,0-1.3,0-1.9,0
			c-0.5,0-1,0-1.5-0.1c0,0,0,0,0,0c0.2-0.1,0.4-0.2,0.5-0.3c0.7-0.4,1.3-0.8,1.9-1.2c0.2-0.1,0.3-0.2,0.5-0.3
			c0.1-0.1,0.1-0.1,0.1-0.2c-0.1-0.3-0.2-0.7-0.3-1c0-0.1-0.1-0.2-0.1-0.2c0,0-0.1-0.1,0-0.1c0.1,0,0.1,0,0.1,0
			c0.6,0.4,1.2,0.7,1.7,1C25.1,2.4,25.6,2.7,26.2,3"/>
		<path class="st1" d="M23.4,9.2c0,0.1,0.1,0.1-0.1,0.1c-0.6,0-1.2,0-1.7,0c-1.2,0-2.4,0-3.6,0l0,0c-1.7,0-3.4,0-5.2,0
			c0,0-0.1,0-0.1,0c0,0,0,0-0.1,0c0,0,0.1-0.1,0.1-0.1c0.4-0.2,0.8-0.5,1.2-0.7c0.5-0.3,0.9-0.5,1.4-0.8c0.4-0.2,0.9-0.5,1.3-0.8
			c0.1-0.1,0.2-0.1,0.4-0.2c0.3-0.1,0.6,0,0.9,0c1.3,0,2.7,0,4,0c0.1,0,0.2,0,0.2,0.1c0.4,0.7,0.7,1.4,1.1,2.1
			C23.3,9.1,23.3,9.2,23.4,9.2"/>
		<path class="st3" d="M22.6,0.7c0.1,0.1,0.1,0.1,0.1,0.2c-0.5-0.2-0.9-0.5-1.4-0.8C21.1,0.1,21,0.1,21,0c0.3,0,0.7,0,1,0
			c0.2,0,0.2,0,0.3,0.2C22.4,0.4,22.4,0.6,22.6,0.7"/>
		<path class="st1" d="M20.1,4.6L20.1,4.6c-1,0.7-1.9,1.4-2.9,2c-0.1,0-0.1,0.1-0.2,0.1c-0.1,0-0.2,0-0.4,0
			c-0.5-0.1-1.1-0.1-1.7-0.2c-0.4,0-0.8-0.1-1.3-0.1c-0.3,0-0.5,0-0.8-0.1c0,0,0,0,0,0h0c1-0.7,1.9-1.4,2.9-2.1
			c-0.1-0.1-0.1-0.1-0.2-0.1l0.3,0c0.1,0.1,0.2,0.1,0.4,0.1c0.7,0.1,1.5,0.1,2.2,0.2c0.3,0,0.6,0,0.9,0.1c0.1,0,0.2,0,0.3,0
			C19.9,4.6,20,4.6,20.1,4.6"/>
		<path class="st1" d="M19.9,1.7c0.1,0.2,0,0.3-0.2,0.4c-1.2,0.6-2.3,1.3-3.5,1.9C16.2,4,16.1,4,16,4.1l-0.3,0c-0.9,0-1.7,0-2.6,0
			c-0.7,0-1.4,0-2.1-0.1c-0.3,0-0.6,0-0.9,0C10,4,10,4,10,4c0,0,0,0,0-0.1c0.2-0.5,0.4-1,0.6-1.5C10.7,2,10.9,1.6,11,1.2
			c0.1-0.3,0.2-0.5,0.3-0.8c0.1-0.1,0-0.3,0.2-0.3h7.7c0.1,0,0.1,0,0.2,0c0.2,0.1,0.2,0.2,0.2,0.4C19.7,0.8,19.8,1.3,19.9,1.7"/>
		<path class="st6" d="M12.9,6.3C12.9,6.3,12.9,6.4,12.9,6.3L12.9,6.3C12.9,6.4,12.9,6.4,12.9,6.3L12.9,6.3L12.9,6.3z"/>
		<path class="st3" d="M12.9,6.3C12.9,6.3,12.9,6.3,12.9,6.3L12.9,6.3C11.7,7,10.7,7.6,9.6,8.2H9.5c0,0,0-0.1-0.1-0.1
			C9.1,7.9,8.8,7.7,8.5,7.6C8.4,7.5,8.3,7.5,8.4,7.3c0.2-0.3,0.3-0.7,0.5-1v0C10.2,6.3,11.5,6.3,12.9,6.3"/>
		<path class="st3" d="M11.9,9.5L11.9,9.5c-0.1,0-0.1-0.1-0.2-0.1c-0.3,0-0.5,0-0.8,0c-0.8,0-1.5,0-2.3,0c-0.4,0-0.9-0.1-1.3,0
			c0,0,0,0-0.1-0.1C8,9,8.7,8.7,9.3,8.3c0,0,0.1,0,0.1-0.1c0.1,0,0.1-0.1,0.1-0.1h0.1c0.7,0.3,1.4,0.7,2.1,1.1
			C11.8,9.3,11.9,9.4,11.9,9.5"/>
		<path class="st1" d="M10.6,0.1c0.1,0,0.2,0.1,0,0.1C10.3,0.2,10,0.4,9.8,0.5c-0.5,0.2-1,0.4-1.5,0.6c-0.1,0-0.2,0-0.3,0.1
			C8.1,0.8,8.2,0.4,8.3,0C9.1,0,9.8,0.1,10.6,0.1"/>
		<path class="st3" d="M9.8,4c0.1,0,0.1,0,0.1,0.1C9.5,4.8,9.2,5.5,8.8,6.3v0c-0.2,0-0.5,0-0.7,0c-0.4,0-0.9,0-1.3,0
			c-0.4,0-0.7,0-1.1,0c0,0,0,0,0,0c0.2-0.5,0.5-0.9,0.7-1.4c0.1-0.2,0.2-0.4,0.3-0.7c0.1-0.2-0.1-0.2-0.2-0.2H6.4l0.4,0
			c0,0,0.1,0,0.1,0C7.7,4.1,8.4,4.1,9.1,4C9.3,4,9.6,4,9.8,4C9.8,4,9.8,4,9.8,4"/>
		<path class="st3" d="M7.9,1.3c0.1,0,0,0.1,0,0.1C7.7,1.9,7.5,2.3,7.3,2.8C7.2,3.2,7,3.6,6.8,4c0,0,0,0.1,0,0.1l-0.4,0
			c-0.3,0-0.5,0-0.8,0c-0.5,0-0.5,0-0.6-0.4C4.9,3.5,4.8,3.2,4.6,3l0-0.1c0,0,0.1,0,0.1,0C4.9,2.8,5,2.8,5,2.7
			c0.9-0.5,1.8-0.9,2.7-1.4C7.8,1.3,7.8,1.3,7.9,1.3C7.9,1.3,7.9,1.3,7.9,1.3"/>
	</g>
</g>
<g>
	<defs>
		<rect id="SVGID_00000095331972851328576280000012244235239786132136_" x="-0.2" y="-0.1" width="216" height="9.6"/>
	</defs>
	<clipPath id="SVGID_00000119116316859691241290000011358783209345024151_">
		<use xlink:href="#SVGID_00000095331972851328576280000012244235239786132136_"  style="overflow:visible;"/>
	</clipPath>
	<g style="clip-path:url(#SVGID_00000119116316859691241290000011358783209345024151_);">
		<path class="st4" d="M6.8,9.4H6c-1.9,0-3.8,0-5.6,0C0.1,9.4,0,9.3,0,9.1c0-0.9,0-1.8,0-2.6c0-0.2,0.1-0.4,0.2-0.5
			c0.6-0.5,1.2-1,1.9-1.5C2.3,4.7,2.3,5,2.3,5.2c0,0.3,0.1,0.6,0.2,0.9c0,0.1,0.1,0.3,0.1,0.4c0,0.1,0.1,0.1,0.2,0.1
			c0.5,0,1.1-0.1,1.6-0.2c0.4,0,0.7-0.1,1.1-0.1c0.1,0,0.1,0,0.2-0.1c0,0,0,0,0,0C5.5,6.5,5.4,6.8,5.3,7C4.9,7.4,4.7,7.8,4.4,8.3
			c-0.1,0.1,0,0.2,0.1,0.3C5.1,8.7,5.7,9,6.3,9.2C6.5,9.2,6.6,9.2,6.8,9.4"/>
		<path class="st3" d="M4.7,2.9L4.7,2.9c-0.8,0.6-1.6,1-2.3,1.5c0,0-0.1,0.1-0.1,0c0,0,0,0-0.1-0.1C1.9,3.7,1.7,3.1,1.5,2.5
			C1.4,2.3,1.4,2.2,1.3,2.2l0.1-0.1c0,0,0.1,0,0.1,0C1.5,2,1.6,2,1.7,1.9c0.6-0.4,1.2-0.7,1.8-1.1c0.2-0.1,0.2-0.1,0.3-0.1
			c0.1,0,0.1,0.1,0.2,0.2C4.2,1.5,4.4,2.1,4.7,2.9C4.6,2.8,4.6,2.8,4.7,2.9"/>
		<path class="st1" d="M3.6,0C4,0,4.5,0,4.9,0.1C4.5,0.2,4.2,0.4,3.9,0.6C3.7,0.4,3.6,0.2,3.6,0"/>
		<path class="st3" d="M1.4,2.1L1.3,2.2c-0.1,0-0.2,0-0.3,0.1C0.8,2.5,0.5,2.6,0.3,2.7C0.2,2.8,0.1,2.8,0,2.8c0-0.9,0-1.8,0-2.6
			C0-0.1,0.2,0.1,0.4,0c0.2,0.3,0.3,0.7,0.5,1C1,1.3,1.1,1.6,1.3,2C1.3,2,1.3,2,1.4,2.1"/>
	</g>
</g>
<rect x="114" y="0" class="st3" width="0.3" height="2.6"/>
</svg>
