<?xml version="1.0" encoding="UTF-8"?>
<svg id="Layer_1" data-name="Layer 1" xmlns="http://www.w3.org/2000/svg" xmlns:xlink="http://www.w3.org/1999/xlink" viewBox="0 0 216 9.12">
  <defs>
    <style>
      .cls-1 {
        clip-path: url(#clippath-4);
      }

      .cls-1, .cls-2, .cls-3, .cls-4, .cls-5, .cls-6 {
        fill: none;
      }

      .cls-2 {
        clip-path: url(#clippath-2);
      }

      .cls-7 {
        fill: #b58245;
      }

      .cls-8 {
        fill: #f5914d;
      }

      .cls-9 {
        fill: #f7faed;
      }

      .cls-10 {
        fill: #6e00cc;
      }

      .cls-11 {
        fill: #f5f7ed;
      }

      .cls-3 {
        clip-path: url(#clippath-3);
      }

      .cls-12 {
        fill: #242429;
      }

      .cls-5 {
        clip-path: url(#clippath);
      }

      .cls-6 {
        clip-path: url(#clippath-1);
      }

      .cls-13 {
        fill: #125c8f;
      }

      .cls-14 {
        fill: #2e4529;
      }
    </style>
    <clipPath id="clippath">
      <rect class="cls-4" x=".44" y="-.32" width="215.45" height="10"/>
    </clipPath>
    <clipPath id="clippath-1">
      <rect class="cls-4" x=".44" y="-.32" width="215.45" height="10"/>
    </clipPath>
    <clipPath id="clippath-2">
      <rect class="cls-4" x=".44" y="-.32" width="215.45" height="10"/>
    </clipPath>
    <clipPath id="clippath-3">
      <rect class="cls-4" x=".44" y="-.32" width="215.45" height="10"/>
    </clipPath>
    <clipPath id="clippath-4">
      <rect class="cls-4" x=".44" y="-.32" width="215.45" height="10"/>
    </clipPath>
  </defs>
  <g class="cls-5">
    <path class="cls-11" d="m215.7-.32c.15,0,.21.03.18.15-2.33,0-4.66,0-6.99,0-.19.05-.39.01-.56-.02-.38-.07-.74.03-1.11.05-.3-.02-.6-.04-.91-.04-.2,0-.3.05-.35.2-.08.26-.18.51-.31.76-.02.03-.03.05-.05.08-.05.02-.11.04-.15.07-1.09.68-2.22,1.32-3.34,1.97-.08-.06-.12-.13-.15-.23-.05-.19-.15-.38-.22-.57-.14-.37-.34-.73-.44-1.11-.02-.06-.03-.08-.07-.08l.03-.1s.08,0,.13-.03c.5-.3,1.01-.6,1.53-.89-.68-.08-1.35-.05-2.03-.06v-.14c4.93,0,9.87,0,14.8,0"/>
    <path class="cls-9" d="m215.88,9.58c0,.09-.02.11-.14.11-.82,0-1.64,0-2.47,0v-.12c.72,0,1.43,0,2.15,0,.09,0,.23.04.26-.04.04-.09-.1-.13-.18-.18-.64-.38-1.3-.75-1.92-1.15-.69-.44-1.41-.86-2.1-1.3-.04-.03-.08-.05-.13-.06l.04-.08c.18.05.37.06.59,0,.08-.02.17-.03.26-.03.92-.1,1.85-.19,2.77-.28.18-.02.36-.02.52.07.09.07.21.09.33.11,0,.99,0,1.98,0,2.96"/>
    <path class="cls-12" d="m215.88,6.4v.22c-.12-.02-.24-.04-.33-.11,0-.02.01-.04.02-.05.1-.02.21-.03.31-.05"/>
    <path class="cls-9" d="m215.88,4.05v2.36c-.1.02-.21.03-.31.05-.18-.05-.29-.16-.42-.25-.66-.5-1.32-1.01-1.99-1.51-.23-.17-.46-.35-.69-.54.01,0,.03-.02.04-.02.08-.03.15-.02.22-.01.91.02,1.82-.05,2.73-.05.14,0,.28-.02.42-.03"/>
    <path class="cls-8" d="m215.88-.17v4.21c-.14,0-.28.03-.42.03-.91,0-1.82.07-2.73.04-.07,0-.15-.01-.22.02h-.17s.01-.02.02-.03c0-.04-.05-.06-.08-.08-.91-.52-1.82-1.05-2.74-1.57-.31-.18-.62-.35-.93-.53-.2-.11-.27-.24-.2-.43.2-.55.34-1.11.48-1.66,2.33,0,4.66,0,6.99,0"/>
    <path class="cls-8" d="m215.51,9.33c.08.05.22.09.18.18-.03.08-.17.04-.26.04-.72,0-1.43,0-2.15,0-1.2,0-2.4,0-3.6,0-1.37,0-2.73,0-4.09,0-.2,0-.4.02-.6.04-.05-.04-.04-.08-.02-.13.39-.86.86-1.7,1.28-2.55.05-.09.12-.09.21-.09.46,0,.91,0,1.37,0,1.1,0,2.19,0,3.29-.03.09,0,.17,0,.24.03.05.01.09.03.13.06.69.44,1.41.86,2.1,1.3.62.4,1.28.77,1.92,1.15"/>
    <path class="cls-8" d="m215.56,6.45s-.01.04-.02.05c-.16-.09-.34-.08-.52-.07-.92.09-1.85.19-2.77.28-.09,0-.18.02-.26.03-.22.05-.42.04-.59,0-.29-.08-.53-.25-.76-.42-.68-.52-1.38-1.02-2.07-1.52-.06-.05-.12-.1-.18-.16,0-.03.02-.05.03-.08.37-.05.73-.1,1.1-.14.54-.06,1.09-.11,1.63-.17.36-.04.72-.08,1.08-.12.04,0,.08,0,.11-.02h.17s-.03.02-.04.02c.23.19.46.37.69.54.67.5,1.33,1,1.99,1.51.13.1.24.21.42.25"/>
    <path class="cls-9" d="m212.27,4.02s.09.03.08.08c0,.01,0,.02-.02.03-.02.02-.06.02-.1.02-.36.04-.72.08-1.08.12-.54.06-1.09.11-1.63.17-.37.04-.73.09-1.1.14-.05,0-.12-.06-.17,0h-.1s0-.01.01-.02c.03-.07-.05-.1-.11-.14-.96-.59-1.85-1.24-2.79-1.84-.08-.05-.12-.1-.1-.18.04-.12.08-.24.11-.35.11-.39.27-.77.34-1.17.02-.03.03-.05.05-.08.03,0,.07,0,.09,0,.49-.28.97-.57,1.45-.85.02-.01.02-.04.03-.06.37-.02.73-.12,1.11-.05.18.03.37.07.56.02-.15.56-.28,1.12-.48,1.66-.07.19,0,.32.2.43.31.17.62.35.93.53.91.52,1.83,1.05,2.74,1.57"/>
    <path class="cls-9" d="m211.4,6.75l-.04.08c-.08-.03-.16-.04-.24-.04-1.1.04-2.2.03-3.29.04-.46,0-.91,0-1.37,0-.09,0-.17,0-.21.09-.42.85-.9,1.69-1.28,2.55-.02.05-.04.09.02.13.01.03.03.06.05.1h-.27s0-.09,0-.14c0-.12-.1-.22-.14-.33-.19-.56-.41-1.12-.61-1.68-.15-.41-.31-.82-.46-1.24.11-.07-.01-.1-.04-.15.04-.05.1-.11.12-.16.19-.37.38-.74.57-1.11.03-.06.05-.14.17-.15.13,0,.26-.03.39-.03.41-.02.83,0,1.25-.03.66-.04,1.32-.05,1.98-.07.05,0,.13.03.17-.01h.1s0,.02-.01.02c.06.02.11.04.16.05.06.05.11.11.18.16.7.5,1.39,1,2.07,1.52.23.18.47.35.76.43"/>
    <path class="cls-11" d="m208.42,4.58s-.02.05-.03.08c-.05-.02-.1-.03-.16-.05,0,0,0-.02.01-.02.05-.06.12,0,.17,0"/>
    <path class="cls-14" d="m208.05,4.42c.06.03.14.07.11.14,0,0,0,.01-.01.02-.04.04-.11,0-.17.01-.66.02-1.32.03-1.98.07-.42.03-.83.01-1.25.03-.13,0-.26.02-.39.03-.11,0-.14.08-.17.15-.19.37-.38.74-.57,1.11-.03.06-.08.11-.12.16-.11-.22-.21-.44-.31-.66-.21-.46-.41-.92-.61-1.38-.16-.35-.31-.71-.47-1.06,0-.02-.02-.03-.04-.04.01-.03.03-.06.04-.09,1.12-.65,2.25-1.29,3.34-1.97.05-.03.1-.05.15-.07-.07.4-.23.78-.34,1.17-.03.12-.07.24-.11.35-.02.08.02.13.1.18.94.6,1.83,1.26,2.79,1.84"/>
    <path class="cls-14" d="m207.22-.13s0,.05-.03.06c-.48.29-.96.57-1.45.85-.02.01-.06,0-.09,0,.13-.25.23-.5.31-.76.05-.15.15-.2.35-.2.3,0,.61.02.91.04"/>
    <path class="cls-14" d="m204.61,9.22c.04.11.15.21.14.33-.05.02-.1.04-.17.03-.8-.02-1.61-.03-2.41.01-.1,0-.08-.04-.07-.06.03-.11.05-.23.1-.34.24-.55.49-1.1.74-1.65.18-.4.35-.8.51-1.2.02-.04.04-.06.09-.05.16.41.31.82.46,1.24.21.56.42,1.12.61,1.68"/>
    <path class="cls-11" d="m204.76,9.55s0,.09,0,.14h-3.5s-.02-.04-.05-.04v-.09c.15,0,.3,0,.46,0,.3,0,.32-.01.23-.24-.15-.37-.3-.74-.45-1.11-.19-.48-.38-.97-.57-1.46-.14-.37-.27-.74-.43-1.1-.18-.41-.32-.84-.5-1.25-.04-.09-.04-.14-.01-.18.02-.03.06-.06.12-.1.53-.3,1.05-.62,1.59-.93.13-.08.25-.2.44-.2.01.02.03.03.04.04.16.36.31.71.47,1.06.2.46.4.92.61,1.38.1.22.21.44.31.66.03.05.15.08.04.15-.05,0-.07.01-.09.05-.17.4-.34.8-.51,1.2-.24.55-.5,1.1-.74,1.65-.05.11-.07.22-.1.34,0,.03-.03.07.07.06.8-.05,1.61-.04,2.42-.01.06,0,.11-.01.17-.03"/>
    <path class="cls-10" d="m202.11,2.91s-.03.06-.04.09c-.19,0-.3.12-.44.2-.54.3-1.05.62-1.59.93-.06.04-.1.06-.12.1h-.13c.02-.06-.03-.14-.11-.34-.19-.5-.38-1-.57-1.49-.03-.07-.09-.13-.13-.2,0-.03.02-.05.03-.08.15-.01.25-.08.37-.14.59-.33,1.12-.73,1.75-1.02.05-.02.08-.03.1-.03.04,0,.06.03.07.09.11.38.3.74.44,1.11.07.19.16.38.22.57.02.09.07.16.15.23"/>
    <path class="cls-10" d="m200.9-.17c.67,0,1.35-.02,2.03.06-.52.29-1.03.59-1.53.89-.06.03-.1.04-.13.04-.05-.01-.08-.06-.11-.11-.12-.26-.23-.52-.34-.79-.02-.06,0-.09.08-.09"/>
    <path class="cls-10" d="m201.89,9.32c.09.23.07.24-.23.24-.15,0-.3,0-.46,0-.27,0-.54.02-.81.03-.24.01-.46-.05-.65-.15-1.42-.77-2.83-1.54-4.25-2.32-.1-.05-.16-.14-.29-.17.43-.25.85-.5,1.27-.75,1-.59,2.01-1.17,3-1.78.21-.13.31-.16.33-.22h.13c-.03.06-.03.11.01.19.18.41.33.83.5,1.25.16.36.28.74.43,1.1.19.49.38.97.57,1.46.15.37.3.74.45,1.11"/>
    <path class="cls-11" d="m201.27.82l-.03.09s-.05,0-.1.03c-.64.28-1.16.69-1.75,1.02-.12.07-.22.13-.37.14,0-.05,0-.1-.06-.13-.12-.29-.23-.57-.34-.86-.15-.36-.3-.72-.44-1.08-.05-.14-.13-.21-.32-.2-.69,0-1.38,0-2.08,0-.12,0-.24-.02-.35.02-.3.05-.59-.01-.88-.01-1.15,0-2.29-.05-3.44.03-.09,0-.19,0-.28,0-.88-.1-1.75-.03-2.63-.04-.15-.02-.34.04-.38-.15,4.37,0,8.73,0,13.1,0v.14c-.08,0-.1.03-.08.09.11.26.22.53.34.79.02.05.06.1.11.11"/>
    <path class="cls-11" d="m201.2,9.56v.09s-.05,0-.04.04h-.09s0-.03-.02-.03c-.02,0-.03.01-.02.03h-9.33s0-.04-.02-.04v-.09c.51,0,1.02,0,1.53,0,.71,0,1.42-.02,2.13-.03.05,0,.11.02.13-.04,0-.03,0-.05-.05-.07-.78-.36-1.51-.81-2.3-1.15-.07-.03-.12-.06-.12-.09,0-.03.03-.05.1-.09.6-.32,1.19-.66,1.79-.98.14-.08.22-.13.22-.18h.09c.13.04.19.12.29.17,1.42.77,2.83,1.54,4.25,2.32.19.11.41.16.65.15.27-.01.54-.02.81-.03"/>
    <path class="cls-11" d="m199.69,3.88c.08.2.12.28.11.33-.02.06-.12.09-.33.22-.99.61-2,1.19-3,1.78-.42.25-.84.5-1.27.75h-.09c0-.06-.07-.11-.21-.19-.62-.36-1.24-.72-1.86-1.08,0-.06.06-.07.1-.1.08-.04.15-.07.22-.11,1.36-.79,2.72-1.59,4.08-2.38.46-.27.94-.52,1.37-.83.08,0,.1-.07.18-.07.05.07.11.13.13.2.19.5.38,1,.57,1.49"/>
    <path class="cls-8" d="m198.95,1.97c.06.03.07.08.06.13,0,.03-.02.05-.03.08-.07,0-.1.08-.17.07-.01-.08-.09-.07-.16-.07-1.31-.01-2.63.02-3.94-.04-.1,0-.15.02-.2.1l-.48-.14c.12,0,.24,0,.36-.05.04-.02.13,0,.12-.06-.02-.25.2-.43.28-.65.16-.44.38-.86.49-1.31.01-.06.07-.08.13-.09.17.16.4.26.61.38.88.55,1.81,1.05,2.7,1.59.07.05.14.07.23.04"/>
    <path class="cls-14" d="m198.61,1.11c.11.29.23.57.34.86-.09.03-.16,0-.23-.04-.89-.54-1.82-1.04-2.7-1.59-.2-.13-.44-.23-.61-.38,0-.04,0-.07,0-.11.11-.04.23-.02.35-.02.69,0,1.39,0,2.08,0,.19,0,.27.07.32.2.14.36.29.72.44,1.08"/>
    <path class="cls-14" d="m198.66,2.19c.06,0,.14,0,.16.07-.43.31-.91.56-1.37.83-1.36.79-2.72,1.59-4.08,2.38-.07.04-.15.08-.22.11.06-.18.09-.36.18-.53.12-.21.17-.44.28-.66.08-.16.12-.35.21-.52.1-.21.16-.43.27-.63.17-.33.25-.68.45-.99.05-.08.1-.11.2-.11,1.31.06,2.63.03,3.94.04"/>
    <path class="cls-14" d="m195.42,9.44s.06.04.05.07c-.02.06-.08.03-.13.04-.71,0-1.42.03-2.13.03-.51,0-1.02,0-1.53,0-.33,0-.65,0-.97,0-.03,0-.05,0-.11-.02.18-.16.38-.24.57-.34.53-.3,1.07-.6,1.62-.89.07-.04.1-.07.1-.11h.12s.04.06.12.09c.79.35,1.52.79,2.3,1.15"/>
    <path class="cls-10" d="m195.42-.15s0,.07,0,.1c-.06.01-.12.03-.13.09-.1.45-.33.87-.49,1.31-.08.22-.31.4-.28.65,0,.05-.08.05-.12.06-.11.04-.24.05-.36.05-.07,0-.14,0-.22,0-.62,0-1.24,0-1.86.02-.14,0-.23-.03-.3-.13,0-.01-.02-.03-.03-.04-.28-.5-.46-1.03-.66-1.56-.04-.11-.04-.22-.06-.33-.01-.11.05-.16.16-.2,1.15-.08,2.29-.03,3.44-.03.29,0,.59.06.88.01"/>
    <path class="cls-14" d="m194.9,6.76c.14.08.21.13.21.18,0,.05-.08.1-.22.18-.6.33-1.19.66-1.79.98-.07.04-.1.07-.1.09h-.12s-.06-.09-.12-.13c-.39-.22-.77-.45-1.16-.67-.26-.15-.52-.29-.8-.45.29-.17.57-.33.85-.5.43-.26.88-.49,1.29-.76.04,0,.07,0,.11,0,.62.36,1.24.72,1.86,1.08"/>
    <path class="cls-8" d="m194.04,2.11l.48.14c-.2.32-.28.67-.45,1-.11.21-.17.43-.27.63-.08.17-.12.35-.21.52-.11.21-.16.44-.28.66-.09.16-.12.35-.18.53-.03.03-.1.04-.1.1-.04,0-.07,0-.11,0-.02-.03-.05-.06-.07-.1.06-.02.06-.06.04-.11-.21-.49-.38-.98-.57-1.47-.15-.37-.29-.75-.44-1.12-.08-.2-.22-.38-.22-.59,0-.15-.07-.19-.25-.19l.26-.11c.07.09.16.13.3.13.62,0,1.24,0,1.86-.02.07,0,.14,0,.22,0"/>
    <path class="cls-11" d="m192.86,5.59s.05.06.07.09c-.41.28-.86.5-1.29.76-.28.17-.56.33-.85.5h-.05c0-.05-.05-.1-.13-.15-.76-.47-1.51-.94-2.26-1.42-.56-.35-1.11-.71-1.67-1.07-.12-.08-.2-.11-.25-.08l-.03-.05c.15-.21.2-.44.29-.66.2-.46.33-.93.57-1.38.03,0,.06,0,.09,0,1.84,1.15,3.68,2.29,5.52,3.44"/>
    <path class="cls-14" d="m192.9,5.49s.02.08-.04.11c-1.84-1.15-3.68-2.29-5.52-3.44.05-.05.12-.04.18-.04,1.3,0,2.6,0,3.89,0,.18,0,.25.05.25.19,0,.21.14.4.22.59.15.37.29.75.44,1.12.19.49.36.99.57,1.47"/>
    <path class="cls-11" d="m192.88,8.2s-.03.07-.1.11c-.54.3-1.08.59-1.62.89-.18.11-.39.19-.57.34.06,0,.09.02.11.02.33,0,.65,0,.97,0v.09s-.03.02-.02.04h-6.59s0-.04-.02-.04-.03.02-.02.04h-.94c-.06-.08-.1-.14.08-.13.09,0,.18,0,.27,0,.45,0,.91-.02,1.36.02.4.03.7-.05.99-.24.06-.04.12-.07.18-.11.94-.59,1.94-1.11,2.87-1.7.25-.16.53-.3.79-.46.08-.05.11-.08.11-.12h.05c.28.17.54.31.8.46.39.22.78.44,1.16.67.07.04.12.08.12.13"/>
    <path class="cls-8" d="m191.64,1.96s.02.03.03.04l-.26.11c-1.3,0-2.6,0-3.89,0-.06,0-.14-.01-.18.04-.03,0-.06,0-.09,0-.02-.03-.04-.07-.06-.1.05-.02.1-.05.16-.07.02,0,.05,0,.07,0,.49-.28.98-.56,1.47-.84.53-.3,1.06-.61,1.6-.89.18-.09.32-.18.34-.36.1,0,.19,0,.28,0-.11.03-.18.09-.16.2.01.11.01.23.06.33.2.52.38,1.05.66,1.56"/>
    <path class="cls-10" d="m190.61,6.8c.09.05.14.1.13.14,0,.04-.04.08-.11.12-.26.16-.54.3-.79.46-.94.59-1.93,1.12-2.87,1.7-.06.04-.12.07-.18.11-.29.18-.59.27-.99.24-.45-.04-.91-.02-1.36-.02v-.57s.07-.04.1-.13c.21-.54.44-1.08.65-1.62.33-.86.71-1.71,1.01-2.58.03-.09.08-.16.12-.25.04-.09.07-.15.11-.17.06-.03.13,0,.25.08.56.35,1.11.71,1.67,1.07.75.48,1.5.95,2.26,1.42"/>
    <path class="cls-14" d="m190.81-.12c-.01.18-.16.27-.34.36-.54.29-1.07.59-1.6.89-.49.28-.98.56-1.47.84-.02,0-.04,0-.07,0,.07-.31.2-.6.33-.9.17-.38.33-.77.45-1.17,0-.03.03-.05.05-.08.88.01,1.76-.06,2.63.04"/>
    <path class="cls-9" d="m188.18-.16s-.04.05-.05.08c-.12.4-.28.78-.45,1.17-.13.29-.27.59-.33.9-.05.02-.1.05-.16.07-.55-.29-1.08-.61-1.6-.92-.17-.1-.35-.2-.49-.33.03-.07.06-.15.08-.22.08-.25.25-.47.24-.73.28,0,.56,0,.84,0,.13,0,.24-.03.29-.14h1.25c.04.19.23.13.38.15"/>
    <path class="cls-14" d="m187.18,2.05s.04.07.06.1c-.24.45-.37.92-.57,1.38-.09.22-.14.45-.29.66-.62-.45-1.33-.79-1.97-1.2-.07-.05-.13-.07-.18-.05l-.05-.09c.06,0,.09-.04.12-.11.18-.44.38-.88.53-1.33.07-.2.22-.39.17-.61.03,0,.06,0,.09,0,.13.14.32.23.49.33.52.32,1.05.64,1.6.92"/>
    <path class="cls-11" d="m179.34-.31h7.2c-.05.11-.16.14-.29.14-.28,0-.56,0-.84,0h-2s-.01.03-.02.05c.54.31,1.07.61,1.61.91.05.22-.1.41-.17.61-.16.45-.35.89-.53,1.33-.03.07-.06.11-.12.11-.03,0-.08-.01-.13-.04-.76-.41-1.53-.8-2.3-1.2-.06-.03-.13-.09-.17.03-.27.75-.55,1.5-.83,2.25-.04.11-.04.24-.14.31-.76-.41-1.44-.89-2.24-1.26v-.08c.07,0,.11-.05.15-.15.13-.37.26-.74.4-1.11.2-.53.39-1.06.6-1.59.07-.17,0-.18-.17-.18v-.14Z"/>
    <path class="cls-11" d="m186.39,4.19l.03.05s-.07.08-.11.17c-.03.08-.09.16-.12.25-.3.87-.68,1.72-1.01,2.58-.21.54-.44,1.08-.65,1.62-.03.09-.06.13-.11.13-.04,0-.08-.02-.14-.06-.67-.42-1.36-.81-2.05-1.22-.51-.3-1.01-.6-1.51-.9-.28-.17-.58-.33-.81-.55,0-.06,0-.12.03-.18.2-.57.41-1.14.61-1.7.02-.05.05-.08.09-.09.04-.01.09,0,.14.01.08.03.16.07.23.11.66.36,1.33.73,1.99,1.1.19.11.21.1.28-.08.29-.79.59-1.58.87-2.37.03-.07.05-.11.09-.12.05-.02.11,0,.18.05.64.41,1.36.75,1.97,1.2"/>
    <path class="cls-10" d="m185.41-.16c.01.26-.16.49-.24.73-.02.07-.05.15-.08.22-.03,0-.06,0-.09,0-.54-.3-1.07-.61-1.61-.91,0-.02.01-.03.02-.05h2Z"/>
    <path class="cls-10" d="m184.42,8.98v.57c-.08,0-.17,0-.26,0-.18,0-.14.06-.08.13h-.13c.05-.16-.09-.14-.21-.14-1.56,0-3.13,0-4.7,0-.1,0-.21.02-.3.05-.08-.2.06-.38.11-.55.19-.6.43-1.19.63-1.79.1-.28.18-.57.33-.84.03-.05.02-.1.02-.16.03,0,.06,0,.08,0,.24.22.53.38.81.55.5.3,1,.6,1.51.9.68.4,1.38.8,2.05,1.22.06.04.11.06.14.06"/>
    <path class="cls-14" d="m184.18,2.85l.05.09s-.06.05-.09.12c-.28.79-.58,1.58-.87,2.37-.06.18-.09.19-.28.08-.66-.36-1.33-.73-1.99-1.1-.07-.04-.15-.09-.23-.11-.05-.01-.1-.02-.14-.01l-.03-.09c.1-.08.1-.21.14-.31.28-.75.56-1.5.83-2.25.04-.12.11-.06.18-.03.77.4,1.54.79,2.3,1.2.06.03.1.04.13.04"/>
    <path class="cls-14" d="m180.6,4.2l.03.09s-.07.04-.09.09c-.2.57-.41,1.14-.61,1.7-.02.06-.02.12-.03.18-.03,0-.05,0-.08,0-.63-.32-1.22-.71-1.83-1.05-.09-.05-.19-.1-.28-.14,0-.04-.01-.09-.02-.13.15-.42.3-.84.45-1.26.08-.23.19-.45.22-.74.8.37,1.48.85,2.24,1.26"/>
    <path class="cls-11" d="m179.83,6.26c0,.05,0,.1-.02.16-.15.27-.23.56-.33.83-.21.6-.44,1.19-.63,1.79-.05.18-.2.36-.11.56-.01.03-.02.06-.04.1h-3.07v-.1c.07,0,.13-.02.2-.04.13.02.2,0,.23-.13.13-.4.28-.8.42-1.2.22-.62.43-1.25.66-1.87.14-.4.26-.8.46-1.19.04-.03.07-.06.11-.09.09.05.19.09.28.14.62.35,1.2.73,1.83,1.05"/>
    <path class="cls-10" d="m179.34-.17c.17,0,.24,0,.17.18-.22.53-.41,1.06-.6,1.59-.14.37-.27.74-.4,1.11-.04.1-.08.15-.15.15-.04,0-.1-.02-.17-.06-1.08-.63-2.16-1.25-3.24-1.88-.4-.23-.8-.47-1.2-.71-.11-.06-.17-.1-.17-.14,0-.04.07-.07.2-.12.21-.08.43-.12.66-.12.8,0,1.6,0,2.4,0s1.66,0,2.49,0"/>
    <path class="cls-11" d="m179.34-.31v.14c-.83,0-1.66,0-2.49,0s-1.6,0-2.4,0c-.23,0-.45.04-.66.12-.14.05-.2.09-.2.12h-.13c0-.06-.05-.11-.16-.15-.23-.08-.47-.09-.72-.09-.88,0-1.76,0-2.64,0-.17,0-.33,0-.47.07-.11.04-.29.03-.3.13h0s-.14.02-.14.02c0-.04-.03-.08-.11-.1-.18-.06-.36-.13-.55-.13-1.7,0-3.39,0-5.09,0-.14,0-.17.03-.13.13.11.31.22.61.34.92.2.53.41,1.06.6,1.59.05.15.16.29.12.46-.66.39-1.31.79-1.97,1.18-.1.06-.15.08-.19.05-.03-.02-.06-.07-.08-.15-.06-.18-.13-.36-.2-.54-.14-.39-.28-.78-.43-1.17-.08-.22-.15-.44-.24-.66-.02-.05-.03-.15-.16-.07-.47.32-1.03.55-1.55.82-.31.16-.58.37-.95.47-.27-.68-.58-1.34-.82-2.02l.02-.07s.06,0,.11-.03c.46-.26.93-.52,1.39-.77.04-.02.08-.04.07-.08-.01-.05-.07-.03-.11-.03-.3,0-.6,0-.89,0v-.17h21.11Z"/>
    <path class="cls-11" d="m178.37,2.86v.08c-.03.28-.14.51-.22.74-.15.42-.3.84-.45,1.26-.05,0-.09,0-.13,0-.7-.39-1.4-.78-2.09-1.18-1.17-.68-2.32-1.36-3.48-2.03-.17-.1-.32-.24-.55-.25-.01-.02-.03-.04-.04-.07.05-.1.15-.17.27-.23.54-.29,1.08-.6,1.62-.89.04-.02.08-.05.12-.08.05-.05.07-.09.07-.13h.13s.06.08.17.14c.4.24.8.47,1.2.71,1.08.63,2.16,1.26,3.24,1.88.07.04.12.06.17.06"/>
    <path class="cls-8" d="m177.69,4.93s.01.09.02.13c-.04.03-.07.06-.11.09-.09-.05-.17-.02-.25.01-.34.15-.68.29-1.03.43-.67.28-1.32.59-2.01.84-.04.01-.06.03-.06.04l-.17-.04c.05-.08.02-.18-.08-.32-.2-.28-.38-.56-.52-.86-.09-.19-.23-.26-.47-.26l.34-.13c.06.07.14.11.26.11,1.23,0,2.46,0,3.7-.01.09,0,.18.02.26-.03.04,0,.09,0,.13,0"/>
    <path class="cls-14" d="m177.35,5.16c.08-.04.16-.07.25-.01-.2.38-.32.79-.46,1.19-.22.62-.44,1.25-.66,1.87-.14.4-.29.8-.42,1.2-.04.12-.1.15-.23.13.08-.08.05-.17,0-.25-.32-.56-.66-1.12-.96-1.7-.14-.26-.3-.51-.4-.79-.03-.09-.12-.16-.18-.24-.02-.03-.05-.06-.04-.09,0-.02.03-.03.06-.04.69-.25,1.34-.56,2.01-.84.35-.15.69-.29,1.03-.43"/>
    <path class="cls-14" d="m177.56,4.94c-.07.06-.17.03-.26.03-1.23,0-2.46,0-3.7.01-.11,0-.2-.03-.26-.11,0,0-.01-.02-.02-.03-.39-.73-.78-1.47-1.19-2.2-.22-.39-.41-.8-.7-1.17.23.01.38.15.55.25,1.16.67,2.32,1.35,3.48,2.03.69.4,1.39.79,2.09,1.18"/>
    <path class="cls-8" d="m175.83,9.29c.05.08.08.17,0,.25-.07.02-.13.04-.2.04-.04,0-.08,0-.12-.02-.01-.06-.07-.09-.13-.12-.34-.15-.67-.31-1.02-.44-.91-.33-1.74-.77-2.64-1.1-.14-.05-.26-.13-.42-.13l.02-.2c.13,0,.25-.02.37-.07.43-.17.87-.33,1.28-.55.24-.13.49-.25.77-.33.18-.05.29-.1.34-.18l.17.03s.01.06.04.09c.07.08.15.15.18.24.1.27.26.53.4.79.3.57.64,1.13.96,1.7"/>
    <path class="cls-11" d="m175.63,9.58v.1h-8.73s0-.03-.02-.03-.03.02-.02.03h-2.83s-.03-.08-.04-.13c-.05-.31-.18-.61-.31-.91-.2-.47-.32-.95-.5-1.42-.09-.26-.19-.52-.29-.77-.03-.07-.06-.11-.12-.11l.04-.05c.21-.13.42-.25.63-.37.53-.29,1.01-.65,1.58-.89.03.03.06.05.09.08,0,.02,0,.04,0,.05.24.69.49,1.38.73,2.07.25.71.5,1.41.75,2.12.03.09.04.2.22.14.11.04.23.06.35.01.09.07.2.03.29.04,2.68.05,5.37,0,8.05.01.04.02.08.02.12.02"/>
    <path class="cls-14" d="m175.51,9.56c-2.68,0-5.37.04-8.05-.01-.1,0-.21.03-.29-.04.03-.05.08-.09.14-.11,1.3-.47,2.54-1.05,3.8-1.59.07-.03.14-.04.2-.04.16,0,.28.08.42.13.9.33,1.74.77,2.64,1.1.35.13.68.29,1.02.44.06.03.11.06.13.12"/>
    <path class="cls-10" d="m174,6.13c.1.14.12.24.08.32-.05.08-.16.13-.34.18-.28.08-.53.2-.77.33-.4.22-.84.37-1.28.55-.12.05-.24.07-.37.07-.11,0-.22-.03-.36-.09-.75-.31-1.48-.66-2.27-.9-.09-.03-.12-.06-.13-.1,0-.04,0-.08.03-.13.15-.36.4-.69.57-1.05.03-.05.05-.1.08-.14.1-.13.25-.19.51-.17.5.04,1.01,0,1.52,0,.57,0,1.15,0,1.73,0,.24,0,.38.07.47.26.14.3.33.58.52.86"/>
    <path class="cls-10" d="m173.46.07s-.02.08-.07.13c-.03.03-.07.06-.12.08-.54.3-1.07.6-1.62.89-.11.06-.21.12-.27.23h-.07c-.03-.09-.12-.13-.21-.18-.56-.32-1.13-.64-1.69-.97-.1-.06-.26-.11-.26-.21h0c.01-.12.2-.1.3-.15.15-.06.31-.08.47-.07.88,0,1.76,0,2.64,0,.24,0,.49.01.72.09.1.03.16.09.16.14"/>
    <path class="cls-8" d="m173.33,4.85s.01.02.02.03l-.34.13c-.58,0-1.15,0-1.73,0-.51,0-1.02.03-1.52,0-.27-.02-.41.03-.52.17l-.35-.19c.26,0,.41-.08.52-.28.52-.95,1.06-1.89,1.58-2.85.07-.12.19-.22.21-.36,0-.07.08-.06.11-.09h.07s.03.04.04.07c.29.37.48.77.7,1.17.41.73.8,1.47,1.19,2.2"/>
    <path class="cls-8" d="m171.32,7.57l-.02.2c-.06,0-.13.01-.2.04-1.26.54-2.49,1.11-3.8,1.59-.06.02-.11.06-.14.11-.12.05-.24.03-.35-.01.03-.16.1-.31.18-.46.44-.8.88-1.61,1.32-2.42.03-.05.03-.09.02-.13l.23-.02s.04.08.13.1c.79.25,1.53.59,2.27.9.13.06.25.08.36.09"/>
    <path class="cls-11" d="m171.32,1.41s-.12.03-.11.09c-.08,0-.15.02-.22.06-1.41.82-2.83,1.63-4.24,2.45-.52.31-1.07.59-1.56.93-.05.01-.1.02-.15.04-.02-.03-.05-.06-.06-.09-.15-.4-.3-.8-.45-1.21-.09-.24-.16-.49-.23-.74.56-.36,1.15-.71,1.73-1.05.92-.54,1.85-1.05,2.76-1.6.07-.04.14-.09.19-.15.02-.03.04-.06.04-.09h.14c0,.09.15.14.26.2.56.32,1.13.64,1.69.97.08.05.18.09.21.18"/>
    <path class="cls-14" d="m170.99,1.56c.07-.04.14-.05.22-.06-.01.14-.14.24-.21.36-.52.95-1.06,1.89-1.58,2.84-.11.2-.26.28-.52.28h0c-1.17,0-2.34,0-3.51,0-.06,0-.14.01-.19-.03.49-.34,1.03-.62,1.56-.93,1.41-.82,2.83-1.63,4.24-2.45"/>
    <path class="cls-8" d="m168.9,4.98l.35.19s-.06.08-.08.14c-.18.36-.42.69-.57,1.05-.02.05-.04.09-.03.13l-.23.02s-.05-.07-.11-.09c-.16-.07-.33-.11-.48-.19-.78-.4-1.65-.69-2.44-1.08-.06-.03-.13-.03-.19-.03-.03-.03-.06-.05-.09-.08,0-.02,0-.04,0-.06.05-.01.1-.03.15-.04.05.05.12.03.19.03,1.17,0,2.34,0,3.51,0h0Z"/>
    <path class="cls-10" d="m169.02.06s-.01.06-.04.09c-.05.06-.12.11-.19.15-.91.55-1.85,1.06-2.76,1.6-.59.34-1.17.69-1.73,1.05-.03,0-.06,0-.09,0,.04-.17-.07-.31-.12-.46-.19-.53-.4-1.06-.6-1.59-.11-.3-.23-.61-.34-.92-.04-.1,0-.13.13-.13,1.69,0,3.39,0,5.09,0,.19,0,.37.06.55.13.08.03.11.06.11.1"/>
    <path class="cls-14" d="m168.34,6.5s0,.08-.02.13c-.45.8-.88,1.61-1.32,2.42-.08.15-.15.3-.18.46-.18.06-.19-.05-.22-.14-.25-.71-.5-1.41-.75-2.12-.24-.69-.49-1.38-.73-2.07,0-.02,0-.03,0-.05.07,0,.13,0,.19.03.79.38,1.66.67,2.44,1.07.15.08.32.12.48.19.06.03.09.05.11.09"/>
    <path class="cls-14" d="m165.04,4.98s0,.04,0,.06c-.58.24-1.05.6-1.58.89-.21.12-.42.24-.63.37-.19-.69-.48-1.33-.71-2-.02-.05-.04-.07-.07-.08l.02-.06s.1,0,.19-.05c.66-.39,1.31-.78,1.97-1.18.03,0,.06,0,.09,0,.08.24.15.49.23.74.14.4.29.8.45,1.21.01.03.04.06.06.09"/>
    <path class="cls-10" d="m163.68,8.65c.13.3.25.6.31.91-.36-.03-.73-.01-1.1-.01-.91,0-1.81,0-2.71,0-.88,0-1.76,0-2.64,0-.27,0-.53.02-.8.03-.23,0-.44-.05-.63-.16-.7-.41-1.4-.83-2.12-1.23-.67-.38-1.32-.77-1.97-1.17-.05-.03-.09-.07-.15-.07-.03-.02-.05-.04-.08-.06.36-.09.62-.31.9-.48,1.05-.65,2.08-1.31,3.12-1.97.1-.06.19-.14.29-.2.04-.02.08-.04.11-.04.04,0,.08.03.11.1.23.61.49,1.22.72,1.83.15.42.36.83.53,1.24.18.44.36.88.53,1.32.02.05.04.1.07.15.05.1.13.11.24.04,1.07-.64,2.14-1.28,3.21-1.91.34-.2.68-.39,1-.6.06-.04.1-.05.14-.05.06,0,.09.04.12.11.1.26.2.52.29.77.18.47.3.95.5,1.42"/>
    <path class="cls-11" d="m162.81,6.3l-.04.05s-.08.02-.14.05c-.33.21-.67.4-1,.6-1.07.64-2.14,1.27-3.21,1.91-.12.07-.19.06-.24-.04-.03-.05-.04-.1-.06-.15-.18-.44-.35-.88-.53-1.32-.17-.42-.37-.82-.53-1.24-.23-.61-.48-1.22-.72-1.83-.03-.07-.06-.1-.11-.1l.04-.08s.12-.02.25-.1c.6-.36,1.21-.72,1.81-1.08.05-.03.09-.04.12-.04.03,0,.05.03.07.07.17.45.34.9.5,1.35.13.36.24.73.37,1.09.06.18.13.19.33.08.18-.11.36-.21.55-.31.55-.3,1.09-.6,1.64-.9.04-.02.09-.07.14-.07.03,0,.05.02.07.08.23.66.52,1.31.71,1.99"/>
    <path class="cls-14" d="m162.05,4.17l-.02.06s-.1.05-.14.07c-.55.3-1.09.6-1.64.9-.18.1-.37.21-.55.31-.2.11-.26.11-.33-.08-.13-.36-.24-.73-.37-1.09-.16-.45-.34-.9-.5-1.35-.02-.05-.04-.07-.07-.07v-.05c.38-.1.65-.31.96-.47.52-.27,1.07-.5,1.55-.81.13-.09.14.02.16.07.08.22.16.44.23.66.14.39.28.78.43,1.17.07.18.14.36.2.54.03.08.05.13.08.15"/>
    <path class="cls-11" d="m160.18,9.55s0,.09,0,.13h-.58s0-.03-.02-.03-.03.02-.02.03h-1.57s0-.03-.02-.03-.03.01-.02.03h-.13s.02-.03-.01-.03c-.03,0-.05,0-.03.03h-5.73v-.1s.06,0,.07-.03c.03-.06-.04-.08-.09-.11-.72-.39-1.44-.78-2.16-1.18-.05-.03-.07-.04-.07-.07,0-.02.02-.03.06-.06.21-.12.4-.24.61-.36.48-.27.95-.54,1.43-.81.07,0,.11.04.15.07.65.4,1.3.79,1.97,1.17.71.4,1.41.82,2.12,1.23.19.11.39.17.63.16.27-.01.53-.03.8-.03.88,0,1.76,0,2.64,0"/>
    <path class="cls-10" d="m159.23-.1s-.03.06-.07.08c-.46.26-.93.51-1.39.77-.05.03-.08.04-.11.03-.02,0-.04-.03-.06-.07-.15-.26-.2-.55-.37-.8-.05-.08.03-.09.11-.08h.9v.03c.3,0,.6,0,.89,0,.04,0,.09-.01.11.03"/>
    <path class="cls-14" d="m158.46,2.87v.05s-.08.01-.13.04c-.6.36-1.21.72-1.81,1.08-.13.08-.2.12-.25.1-.05-.01-.07-.08-.12-.21-.21-.54-.42-1.08-.63-1.62-.02-.06-.07-.1-.1-.16,0-.02,0-.04.01-.06.46-.21.86-.49,1.29-.73.3-.17.59-.36.93-.51.23.68.54,1.34.82,2.02"/>
    <path class="cls-11" d="m158.23-.31v.15h-.9c-.07,0-.16,0-.1.08.17.25.22.54.37.8.02.04.04.06.06.07l-.02.07c-.34.15-.62.34-.93.51-.43.24-.83.53-1.29.73-.02-.04-.04-.08-.06-.12-.05-.15-.14-.29-.19-.43-.18-.52-.42-1.03-.61-1.55-.04-.11-.13-.16-.28-.16-.76,0-1.52,0-2.28.01h-.02s-.02.02-.02.03c-.05,0-.11,0-.16.01h0s-.07,0-.1,0h-.02c-.46,0-.91-.05-1.36-.05v-.14h7.92Z"/>
    <path class="cls-11" d="m156.27,4.14l-.04.08s-.07.02-.11.04c-.1.06-.19.13-.29.2-1.04.66-2.07,1.32-3.12,1.97-.28.18-.54.39-.9.48-.23-.13-.45-.26-.68-.4-.44-.26-.91-.49-1.32-.79,0-.08.03-.14.1-.2.02-.01.05-.03.07-.04,1.11-.69,2.22-1.38,3.33-2.07.68-.42,1.35-.84,2.02-1.26.02,0,.04,0,.07,0,.04.05.08.1.1.16.21.54.42,1.08.63,1.62.05.13.08.19.12.21"/>
    <path class="cls-8" d="m155.36,1.98s.04.08.06.12c0,.02,0,.04-.01.06-.02,0-.04,0-.06,0-.03-.04-.07-.03-.12-.03-1.24,0-2.48,0-3.72,0-.1,0-.21.02-.31.04-.06,0-.1.03-.14.07l-.34-.11c.15,0,.3-.04.36-.17.09-.21.19-.41.26-.63.12-.39.23-.77.42-1.14.05-.1.06-.2.03-.3h0c.05,0,.11,0,.16,0h0c-.02.14.05.23.2.31.33.18.64.36.96.55.67.41,1.42.73,2.04,1.2.06.05.13.06.2.05"/>
    <path class="cls-14" d="m155.36,1.98c-.08,0-.14,0-.2-.05-.62-.46-1.37-.79-2.04-1.2-.31-.19-.63-.37-.96-.55-.14-.08-.21-.17-.2-.31,0,0,.01,0,.02-.01h.02c.76-.02,1.52-.02,2.28-.03.14,0,.24.06.28.17.19.52.43,1.02.61,1.55.05.14.15.28.19.43"/>
    <path class="cls-14" d="m155.34,2.15c-.67.42-1.35.84-2.02,1.26-1.11.69-2.22,1.38-3.33,2.07-.02.02-.05.03-.07.04-.08-.11-.05-.23,0-.34.3-.64.52-1.29.73-1.95.1-.32.29-.63.4-.96,0-.02.01-.03.02-.04.03-.04.08-.06.14-.07.1-.02.21-.04.31-.04,1.24,0,2.48,0,3.71,0,.05,0,.09,0,.12.03"/>
    <path class="cls-14" d="m152.01,9.44c.05.03.11.05.09.11-.01.03-.04.03-.07.03-.02,0-.05,0-.07,0-.69-.04-1.38-.02-2.07-.02-.86,0-1.71-.01-2.57-.02-.04-.06.03-.08.08-.11.67-.32,1.31-.69,1.94-1.05.11-.06.32-.08.33-.19h.11s.03.05.07.07c.72.39,1.44.78,2.16,1.18"/>
    <path class="cls-11" d="m152.02,9.58v.1h-10.55s0-.03-.02-.03c-.03,0-.03.02-.02.03h-.13s0-.03-.02-.03-.03.02-.02.03h-.18s0-.03-.02-.03-.03.01-.02.03h-.09s0-.03-.02-.03c0,0-.01,0-.02,0v-.07s.04,0,.07,0c.43-.05.87-.04,1.29,0,.3.02.53-.03.77-.17.7-.4,1.42-.78,2.13-1.18.77-.43,1.58-.83,2.32-1.29.19.11.38.23.57.33.43.24.86.47,1.29.71.11.06.31.1.32.21h0c0,.13-.22.14-.33.21-.63.36-1.27.73-1.94,1.05-.05.02-.11.04-.08.11.86,0,1.71.03,2.57.02.69,0,1.38-.03,2.07.02.02,0,.05,0,.07,0"/>
  </g>
  <g class="cls-6">
    <path class="cls-14" d="m151.8,6.9s.05.04.08.06c-.48.27-.96.54-1.43.82-.21.12-.4.25-.61.36-.04.03-.06.04-.06.06h-.11v-.02c0-.11-.2-.14-.32-.21-.43-.24-.86-.47-1.29-.71-.19-.11-.38-.22-.57-.33,0,0,0-.02,0-.02.73-.31,1.34-.77,2.02-1.13.03-.02.05-.06.07-.09.08-.01.16-.02.23.03.41.29.88.53,1.32.79.22.14.45.27.68.4"/>
    <path class="cls-10" d="m151.79-.12c.03.1.02.2-.03.3-.19.37-.3.75-.42,1.14-.07.21-.17.42-.26.63-.06.13-.2.17-.36.17-.77,0-1.54,0-2.3,0-.1,0-.16-.03-.2-.09-.01-.02-.03-.04-.04-.06-.28-.52-.48-1.06-.68-1.61-.03-.08-.06-.16-.09-.24-.04-.1-.02-.19.1-.25.9-.06,1.8-.02,2.7-.04h.11c.46,0,.91.04,1.36.05,0,0,0,0,0,0h0s.06,0,.1,0"/>
    <path class="cls-8" d="m151.06,2.23s-.02.03-.02.04c-.11.32-.29.63-.4.96-.21.66-.43,1.31-.73,1.95-.05.11-.09.23,0,.34-.07.05-.11.12-.1.2-.07-.05-.15-.04-.23-.03.02-.06-.04-.1-.06-.14.06-.14,0-.26-.07-.39-.16-.34-.33-.68-.46-1.03-.15-.38-.33-.76-.48-1.14-.09-.23-.22-.45-.29-.69-.04-.11-.1-.15-.23-.15l.23-.12c.04.06.1.09.2.09.77,0,1.54,0,2.3,0l.34.11Z"/>
    <path class="cls-11" d="m150.31-.31v.14h-.11c-.9.02-1.8-.02-2.7.04-.1,0-.21,0-.32,0-.11.03-.22-.03-.33-.03-.72,0-1.43,0-2.15,0-.1,0-.16.01-.2.12-.13.38-.28.75-.45,1.13-.14.31-.26.62-.34.94,0,.04-.04.09-.02.12h-.09s-.04-.04-.08-.07c-.05-.03-.11-.06-.17-.09-.55-.33-1.11-.66-1.67-.98-.13-.08-.19-.11-.24-.1l-.06-.07s.07-.04.1-.09c.1-.25.18-.5.29-.75.06-.13,0-.15-.13-.15v-.14h8.63Z"/>
    <path class="cls-11" d="m149.51,5.55s.08.08.06.14c-.02.03-.04.07-.07.09-.68.36-1.28.82-2.02,1.13-.04,0-.08,0-.11-.02-.52-.33-1.08-.63-1.61-.95-.86-.52-1.77-1.01-2.61-1.55-.1-.07-.28-.07-.33-.17,0,0,0-.02,0-.02-.02-.09.1-.18.13-.27.18-.56.45-1.11.67-1.66.02-.05.02-.08.01-.11h.09s.03.02.07.04c.07.11.2.16.31.23,1.19.69,2.37,1.38,3.56,2.07.62.36,1.24.71,1.85,1.06"/>
    <path class="cls-14" d="m149.44,5.16c.06.13.13.25.07.39-.62-.35-1.24-.71-1.85-1.06-1.19-.69-2.37-1.38-3.56-2.07-.11-.07-.24-.12-.31-.22.65,0,1.29,0,1.94,0,.57,0,1.13,0,1.7,0,.19,0,.37-.02.56-.03.13,0,.19.04.23.15.07.23.2.45.29.69.14.38.33.76.48,1.14.14.35.3.69.46,1.03"/>
    <path class="cls-8" d="m148.21,2.03l-.23.12c-.19,0-.37.02-.56.03-.57,0-1.13,0-1.7,0-.65,0-1.29,0-1.94,0-.04-.01-.06-.03-.07-.05-.01-.04.02-.08.02-.12.04,0,.09,0,.13-.02.23-.17.5-.3.75-.44.79-.46,1.55-.94,2.37-1.36.16-.08.24-.17.21-.32.1,0,.21,0,.32,0-.12.06-.14.15-.1.25.03.08.06.16.09.24.2.54.4,1.09.68,1.61.01.02.02.04.04.06"/>
    <path class="cls-10" d="m147.48,6.91s0,.02,0,.03c-.74.47-1.55.86-2.32,1.29-.71.4-1.43.78-2.13,1.18-.24.14-.47.19-.77.17-.43-.03-.86-.04-1.29,0-.03,0-.05,0-.07,0-.14,0-.15-.04-.1-.19.23-.76.58-1.48.84-2.23.21-.59.48-1.16.71-1.74.13-.33.25-.66.37-.99.03-.08.03-.15,0-.21l.1-.03s0,.02,0,.02c.05.1.22.1.33.17.84.55,1.74,1.03,2.61,1.55.53.32,1.09.62,1.61.95.03.02.07.01.11.02"/>
    <path class="cls-14" d="m147.19-.14c.04.15-.05.24-.21.32-.82.42-1.58.91-2.37,1.36-.25.15-.52.27-.75.44-.04.03-.08.02-.13.02.08-.32.2-.63.34-.94.16-.37.31-.75.45-1.13.04-.1.09-.12.2-.12.72,0,1.43,0,2.15,0,.11,0,.21.06.33.03"/>
    <path class="cls-10" d="m143.63,2.15s0,.06-.01.11c-.21.56-.49,1.1-.67,1.66-.03.09-.15.18-.13.27l-.1.03s-.07-.09-.14-.14c-.55-.31-1.09-.63-1.63-.95-.11-.07-.22-.14-.33-.21,0,0,0-.02,0-.02.19-.37.3-.76.46-1.14.09-.23.17-.46.27-.68.05-.12.08-.18.13-.19.05-.01.11.03.24.1.55.33,1.11.66,1.67.98.06.03.11.06.17.09.05.03.07.05.08.08"/>
    <path class="cls-11" d="m142.72,4.22c.03.06.02.13,0,.21-.12.33-.24.67-.37,1-.23.58-.51,1.15-.71,1.74-.26.75-.62,1.47-.84,2.23-.05.15-.04.2.1.19v.07s0,.01,0,.02h-2.87s-.02-.03-.05-.04c0-.02,0-.04,0-.07.1,0,.21-.02.31-.02.7,0,1.4.01,2.1.03.2,0,.22-.06.17-.18-.03-.07-.09-.14-.11-.21-.39-.99-.82-1.97-1.26-2.94-.12-.02-.09-.09-.09-.15.11.02.14-.06.16-.12.1-.2.19-.39.28-.59.15-.33.3-.66.43-.99.15-.39.37-.75.49-1.15.03-.11.03-.24.16-.33.11.07.22.14.33.21.54.32,1.08.64,1.63.95.07.04.11.09.14.14"/>
    <path class="cls-10" d="m141.68-.17c.13,0,.19.02.13.15-.11.25-.2.5-.29.75-.02.06-.05.09-.1.09-.03,0-.07-.01-.12-.04-.47-.28-.96-.54-1.45-.81-.05-.03-.11-.06-.1-.1.02-.05.1-.04.16-.04h.9c.28,0,.57,0,.85,0h.02Z"/>
    <path class="cls-11" d="m141.68-.31v.14h-.02c-.28,0-.57,0-.85,0h0s-.9,0-.9,0c-.06,0-.14-.02-.16.04-.02.05.05.08.1.1.48.27.97.53,1.45.81.05.03.09.04.12.04l.06.07s-.07.07-.13.19c-.1.23-.18.46-.27.69-.15.38-.26.77-.46,1.14-.23-.12-.46-.24-.68-.37-.9-.53-1.81-1.05-2.71-1.58-.05-.03-.1-.08-.18-.04.04.12.07.23.11.35-.08,0-.16,0-.23-.04-.2-.1-.22-.34-.02-.42.07,0,.09,0,.06-.07-.11-.26-.2-.52-.3-.78-.03-.08-.12-.11-.23-.11-.33,0-.67,0-1.01,0-.12,0-.25,0-.37,0-.14,0-.2-.04-.22-.15h6.84Z"/>
    <path class="cls-14" d="m140.62,2.91s0,.01,0,.02c-.13.08-.13.22-.16.33-.12.4-.34.76-.49,1.15-.13.33-.28.66-.43.99-.09.2-.18.4-.28.59-.03.06-.05.13-.17.12,0-.2-.15-.36-.23-.54-.11-.25-.25-.49-.37-.74-.05-.11-.13-.14-.27-.14-.35,0-.69,0-1.03,0-.91-.02-1.81-.05-2.72-.07,0-.02,0-.04,0-.07.94-.63,1.88-1.26,2.83-1.88.19-.13.21-.25.15-.42-.1-.32-.2-.65-.3-.98-.04-.12-.07-.23-.11-.35.08-.04.13,0,.18.04.9.53,1.8,1.06,2.71,1.58.22.13.45.25.68.37"/>
    <path class="cls-14" d="m140.57,9.41c.04.11.03.18-.17.18-.7-.02-1.4-.02-2.1-.03-.1,0-.21.01-.31.02h0s0-.02,0-.02c0-.03-.01-.06-.02-.08-.01-.16.09-.3.15-.44.29-.7.51-1.42.79-2.12.09-.22.19-.44.29-.66.44.97.86,1.95,1.26,2.94.03.07.09.14.11.21"/>
    <path class="cls-9" d="m139.1,6.11c0,.06-.03.14.09.15-.1.22-.2.44-.29.66-.27.7-.49,1.42-.79,2.12-.06.14-.17.28-.15.44-.04.03-.06.06.02.08h0s0,.02,0,.02c0,.02,0,.05,0,.07-.02.02-.02.03,0,.04h-.81v-.12s.07,0,.11.01h.14c.11,0,.22.02.33-.02,0-.07-.02-.14-.06-.21-.4-.76-.8-1.53-1.19-2.3-.08-.16-.17-.22-.38-.22-1.5,0-3,0-4.5-.02-.05,0-.1.02-.15,0-.01,0-.03-.01-.03-.03-.03-.05.04-.07.08-.1.89-.65,1.78-1.3,2.68-1.94.08-.06.16-.12.28-.13.91.02,1.81.05,2.72.07.34,0,.69,0,1.03,0,.14,0,.22.03.27.14.12.25.27.49.37.74.08.18.23.34.23.54"/>
    <path class="cls-8" d="m137.7,9.35c.04.07.06.13.06.21-.11.02-.22-.02-.33.02h-.14s-.07,0-.11-.01c-.2,0-.4,0-.6,0h-7.96s-.09,0-.13,0c-.44,0-.88,0-1.32-.01-.06,0-.15.03-.18-.03-.02-.06.06-.09.11-.12.53-.32,1.08-.64,1.6-.97.37-.24.74-.47,1.12-.7.37-.23.75-.46,1.13-.68.04-.02.08-.03.11-.06.07-.06.22-.08.19-.17l.25-.02s.1,0,.15,0c1.5,0,3,.02,4.5.02.22,0,.3.06.38.22.38.77.79,1.54,1.19,2.3"/>
    <path class="cls-9" d="m137.46,2.24c.06.17.04.3-.15.42-.95.62-1.89,1.25-2.83,1.88-.42.02-.84-.05-1.25-.1-.48-.06-.96-.11-1.44-.15-.35-.03-.7-.09-1.06-.11-.1,0-.22,0-.33-.04-.04-.01-.07-.03-.11-.05.06-.03.1-.06.14-.08.55-.31,1.11-.63,1.66-.94.71-.4,1.41-.83,2.14-1.21.1-.05.12-.11.1-.21-.06-.32-.19-.63-.28-.95-.07-.28-.13-.57-.27-.84.09-.08.35.04.31-.18h.76c.01.1.08.15.22.15.12,0,.25,0,.37,0-.02.08.06.09.12.13.41.24.81.47,1.22.71.05.04.14.06.14.13-.19.08-.18.32.02.42.07.04.15.05.23.04.1.32.2.65.3.98"/>
    <path class="cls-12" d="m136.97.72c.03.06,0,.07-.06.07,0-.07-.08-.09-.14-.13-.41-.24-.81-.47-1.22-.71-.06-.03-.14-.05-.12-.13.34,0,.67,0,1.01,0,.11,0,.2.03.23.11.1.26.2.52.3.78"/>
    <path class="cls-8" d="m134.48,4.54s0,.04,0,.07c-.12,0-.2.07-.28.13-.89.65-1.79,1.3-2.68,1.94-.04.03-.1.05-.07.1,0,.01.02.02.03.03l-.25.02c-.02-.07-.16-.01-.24-.03-.7-.13-1.42-.15-2.12-.22-.46-.05-.93-.13-1.4-.13-.04,0-.09,0-.12-.02,0,0-.01-.01-.02-.02-.02-.05.05-.07.08-.09.42-.33.85-.65,1.27-.98.44-.35.87-.72,1.37-1.02.06-.03.09-.08.1-.14l.24-.02c.11.03.23.03.34.04.36.02.71.08,1.06.11.48.05.96.09,1.44.15.42.05.83.12,1.25.1"/>
    <path class="cls-8" d="m134.32,1.66c.02.1,0,.16-.11.21-.73.38-1.42.8-2.13,1.21-.55.31-1.11.63-1.66.94-.04.03-.08.05-.14.08.04.02.07.04.11.05l-.24.02c-.52-.09-1.06-.06-1.59-.08-.69-.03-1.39,0-2.08-.05-.62-.04-1.25,0-1.87-.06-.09,0-.18,0-.26.03-.01,0-.03-.02-.04-.03.19-.37.3-.75.44-1.13.14-.37.24-.74.41-1.1.26-.55.42-1.12.63-1.69.03-.07.04-.15.11-.21.11,0,.21,0,.31,0,2.42,0,4.84,0,7.26,0,.1,0,.21-.02.3.03.14.27.19.56.27.84.08.32.22.63.28.95"/>
    <path class="cls-9" d="m131.24,6.82c.03.09-.12.12-.19.17-.03.03-.07.04-.11.06-.38.22-.76.45-1.14.68-.37.23-.75.46-1.12.7-.52.33-1.07.65-1.6.97-.05.03-.13.06-.11.12.03.06.11.03.18.03.44,0,.88,0,1.32.01v.12h-2.06c0-.06-.03-.11-.1-.15,0-.05-.06-.07-.1-.09-.66-.32-1.28-.69-1.93-1.03-.11-.06-.16-.09-.16-.13,0-.04.05-.08.15-.13.76-.45,1.52-.89,2.29-1.34.22-.13.44-.25.7-.4h.09s.08.01.12.01c.47,0,.93.08,1.4.13.71.08,1.42.09,2.12.22.08.02.22-.04.24.03"/>
    <path class="cls-9" d="m130.15,4.16c0,.06-.04.11-.1.14-.5.3-.93.67-1.37,1.02-.42.33-.84.66-1.27.98-.03.03-.1.04-.08.09,0,0,0,.01.02.02h-.09c-.65-.07-1.25,0-1.85-.05-.66-.04-1.33-.03-1.99-.04-.09,0-.14-.01-.15-.05,0-.03,0-.06.03-.11.2-.42.36-.85.59-1.26.17-.3.23-.63.46-.91.08-.03.17-.04.26-.03.62.07,1.25.02,1.87.06.69.04,1.39.02,2.08.05.53.02,1.07-.01,1.59.08"/>
    <path class="cls-14" d="m127.26,6.42c-.26.15-.49.27-.7.4-.76.44-1.53.89-2.29,1.34-.1.06-.15.1-.15.13h-.18s-.04-.08-.12-.12c-.32-.17-.62-.35-.94-.52-.16-.08-.17-.18-.1-.3.17-.28.28-.57.38-.87.03-.1,0-.15-.08-.15l.2-.05s.05.05.15.05c.66,0,1.33,0,1.99.04.6.04,1.19-.02,1.85.05"/>
    <path class="cls-11" d="m126.41,9.69h-4.66s.02-.03-.01-.03c-.04,0-.05,0-.03.03h-1.17s0-.03-.02-.03c-.02,0-.03.01-.02.03h-.72s-.01-.03-.04-.03c-.05,0-.12-.04-.14.03h-.76c-.06-.07-.12-.06-.18,0h-.13s-.01-.02-.02-.03c0,.01-.01.02-.02.03h-.13s-.01-.02-.02-.03c0,0-.01.02-.02.03h-2.6s-.01-.02-.02-.03c0,0-.02.02-.02.03h-.18s0-.03-.02-.03-.03.02-.02.03h-.14s0-.03-.02-.03-.03.01-.02.03h-.14s0-.03-.02-.03-.03.01-.02.03h-.13s-.03-.03-.05-.04c-.03,0-.05,0-.04.04h-.63s0-.03-.02-.03c-.02,0-.03.01-.02.03h-.36s0-.03-.02-.03c-.02,0-.03.01-.02.03h-2.6s0-.03-.03-.03c0,0,0,.02-.01.03h-.13s-.01-.02-.02-.03c0,0-.01.02-.02.03h-.63s-.01-.02-.02-.03c0,0-.02.02-.02.03h-1.03s-.02-.04-.06-.03c-.01,0-.02.02-.03.03h-.09c-.09-.15.05-.13.16-.13.73,0,1.45,0,2.17,0h2.85c1.66,0,3.31,0,4.97,0,.27,0,.54.01.8.03.39.03.77-.04,1.15-.05.02-.05-.02-.07-.05-.07-.45-.06-.82-.28-1.22-.42-.33-.11-.65-.24-.97-.36-.24-.09-.25-.14-.13-.33.35-.54.72-1.07,1.11-1.6.07-.09.11-.19.14-.31l.08-.02s.07.02.12.02c.3-.02.59-.04.89-.04.22,0,.44.02.65,0,.42-.05.84,0,1.26-.05.01,0,.03,0,.04,0,.08,0,.12.05.08.15-.1.3-.21.59-.38.87-.07.12-.05.22.1.3.32.17.62.35.94.52.08.04.12.08.12.12s-.04.07-.12.12c-.43.23-.85.46-1.28.69-.27.15-.53.29-.82.45.18.07.34.02.49.02,1.24.01,2.49.02,3.73.02.12,0,.25.03.37-.04.07.04.09.09.1.15"/>
    <path class="cls-14" d="m126.21,9.45s.1.04.1.09c-.11.07-.24.04-.37.04-1.24,0-2.49-.01-3.73-.02-.15,0-.31.05-.49-.02.29-.16.55-.3.82-.45.42-.23.85-.46,1.28-.69.08-.04.12-.08.12-.12h.18s.06.08.16.14c.65.34,1.27.71,1.93,1.03"/>
    <path class="cls-9" d="m125.89-.16c-.07.06-.09.14-.11.21-.2.56-.36,1.14-.63,1.69-.17.36-.28.74-.41,1.1-.14.38-.24.76-.44,1.13-1.03.04-2.06.09-3.11.07.41-.98.74-1.96,1.19-2.93h-.02l.02-.12c.17,0,.26-.05.36-.1.61-.27,1.22-.55,1.85-.8.11-.04.22-.08.32-.13.1-.05.03-.07-.03-.08.33-.05.67-.08,1.01-.06"/>
    <path class="cls-8" d="m124.88-.1c.07,0,.14.03.03.08-.1.05-.21.08-.32.13-.63.25-1.24.53-1.85.8-.1.04-.19.09-.36.1.1-.4.2-.78.3-1.16.57,0,1.14,0,1.71,0,.16,0,.32.04.47.07"/>
    <path class="cls-14" d="m124.31,3.97s.03.02.04.03c-.22.28-.29.61-.46.91-.23.41-.39.84-.59,1.26-.02.05-.03.08-.03.11l-.2.05s-.03,0-.04,0c-.42.06-.84,0-1.26.05-.21.03-.43.01-.65,0-.3,0-.59.01-.89.04-.05,0-.11.01-.12-.02,0-.02,0-.04.01-.08.26-.54.51-1.09.76-1.63.06-.14.12-.27.19-.4.08-.16.04-.22-.18-.22l.3-.04c1.05.01,2.08-.03,3.11-.07"/>
    <path class="cls-9" d="m122.7-.16c-.1.38-.2.77-.3,1.16l-.02.12c-.1,0-.15.03-.2.06-.57.31-1.15.62-1.72.93-.39.22-.78.44-1.18.65-.1.05-.17.08-.21.07-.05-.01-.07-.06-.09-.16-.07-.33-.21-.64-.31-.96-.13-.42-.26-.85-.39-1.27.25-.2.57-.33.87-.46.06-.03.13-.03.08-.1.09-.08.2-.04.31-.04.14,0,.21-.03.19-.15h2.74c-.03.16.11.15.23.15"/>
    <path class="cls-14" d="m122.37,1.12h.02c-.45.96-.78,1.94-1.19,2.93l-.3.04c-.34,0-.67,0-1.01,0-.35,0-.35,0-.43-.28-.08-.26-.18-.51-.28-.77-.03-.07-.11-.12-.15-.17l.04-.05s.1-.02.21-.07c.4-.21.78-.44,1.18-.65.57-.31,1.14-.62,1.72-.93.05-.03.1-.06.2-.06"/>
    <path class="cls-10" d="m121.11,9.46s.07.03.05.07c-.38,0-.76.08-1.15.05-.27-.02-.54-.03-.8-.03-1.66,0-3.31,0-4.97,0h-2.85c-.73,0-1.45,0-2.17,0-.11,0-.25-.02-.16.13h-1.35s.02-.09.03-.14c0-.03.03-.06.09-.08.73-.23,1.42-.54,2.13-.82.21-.08.19-.17.11-.29-.44-.65-.88-1.29-1.33-1.94h0c.86.1,1.71.2,2.57.31.41.05.44.05.54-.26.18-.57.18-1.17.34-1.74.02-.08-.05-.2.06-.22.07-.02.18.07.26.11.03.02.06.04.08.06.26.21.54.42.79.64.32.28.7.51.97.82.05.06.12.06.18,0,.21-.26.52-.44.78-.66.42-.36.86-.71,1.29-1.06.02,0,.05,0,.07.01,0,.19-.01.37.04.56.06.2.11.41.13.61.04.37.11.73.19,1.1.02.06.04.12.14.1.69-.09,1.39-.18,2.08-.26.25-.03.5-.08.77-.08-.02.12-.07.22-.14.31-.38.53-.76,1.06-1.11,1.6-.12.19-.11.23.13.33.32.12.64.25.97.36.4.14.77.35,1.22.42"/>
    <path class="cls-11" d="m120.9,4.08c.22,0,.26.06.18.22-.07.13-.13.27-.19.4-.25.54-.5,1.09-.76,1.63-.02.04-.02.07-.01.09l-.08.03c-.27,0-.52.05-.77.08-.69.09-1.39.17-2.08.26-.1.01-.13-.04-.14-.1-.09-.36-.15-.73-.19-1.1-.02-.21-.07-.41-.13-.61-.06-.19-.04-.37-.04-.56.38-.31.82-.56,1.24-.82.37-.24.74-.47,1.12-.71.04.05.12.1.15.17.1.25.2.51.28.77.09.27.08.28.43.28.34,0,.67,0,1.01,0"/>
    <path class="cls-11" d="m119.73-.31c.02.12-.05.15-.19.15-.1,0-.22-.04-.31.04-.05,0-.09,0-.13-.01-.03-.03-.06-.03-.09,0-.24-.03-.48-.03-.73-.03-.33,0-.35.02-.2.25.08.11.12.23.12.35-.17.11-.35.23-.52.34-.58.37-1.16.74-1.74,1.12-.07.04-.12.06-.16.05-.05,0-.07-.05-.11-.13-.27-.61-.56-1.22-.83-1.83-.07-.15-.17-.18-.34-.14-.04,0-.08,0-.11,0-.07,0-.16-.03-.24-.03v-.13h5.57Z"/>
    <path class="cls-8" d="m119.23-.13c.05.07-.02.08-.08.1-.31.13-.62.26-.87.46-.03,0-.05,0-.07,0,0-.13-.04-.24-.12-.36-.16-.23-.14-.25.2-.25.24,0,.49,0,.73.03.03,0,.06,0,.09,0,.04,0,.09,0,.13.01"/>
    <path class="cls-14" d="m119.07,2.83l-.04.05c-.38.24-.75.48-1.12.71-.42.27-.86.52-1.24.82-.02,0-.05,0-.07-.01-.02-.05-.04-.09-.05-.13-.25-.75-.47-1.51-.79-2.25l.03-.08s.09,0,.16-.05c.58-.37,1.16-.75,1.74-1.12.17-.11.35-.23.52-.34.02,0,.05,0,.07,0,.13.43.25.85.38,1.27.1.32.24.63.31.96.02.1.04.15.09.16"/>
    <path class="cls-11" d="m116.55,4.27s.03.09.05.13c-.43.35-.86.71-1.29,1.06-.26.22-.57.41-.78.67-.06.07-.13.07-.18,0-.27-.31-.65-.54-.97-.82-.26-.22-.53-.43-.79-.64-.03-.02-.05-.05-.08-.06-.09-.04-.2-.13-.26-.11v-.11s.05-.05.08-.18c.2-.7.45-1.38.7-2.07.02-.06.05-.09.08-.09.03,0,.07.01.12.04.3.17.61.34.91.52.29.16.29.16.59,0,.34-.19.66-.41,1.02-.57.32.74.53,1.5.79,2.25"/>
    <path class="cls-14" d="m115.79,1.95l-.03.08c-.36.17-.68.38-1.02.57-.3.17-.3.17-.59,0l.23-.04c.08-.1.11-.2.11-.3,0-.44.02-.89,0-1.34-.01-.36.04-.72.02-1.08.17-.04.27-.01.34.14.27.61.56,1.22.83,1.83.03.07.06.12.11.13"/>
    <path class="cls-7" d="m114.51-.15c.02.36-.04.72-.02,1.08.02.44,0,.89,0,1.34,0,.11-.03.21-.11.3.05-.91,0-1.81.02-2.72.04,0,.08,0,.11,0"/>
    <path class="cls-14" d="m114.4-.15c-.02.9.03,1.81-.02,2.72l-.23.04c-.3-.17-.61-.35-.91-.52-.05-.03-.09-.05-.12-.04l-.04-.08s.08-.05.12-.15c.12-.25.22-.52.33-.77.16-.37.34-.74.48-1.12.03-.08.09-.1.16-.1.08,0,.17.03.24.03"/>
    <path class="cls-11" d="m114.16-.31v.13c-.07,0-.13.02-.16.1-.14.38-.32.75-.48,1.12-.11.26-.21.52-.33.77-.05.11-.08.15-.12.15-.04,0-.09-.03-.17-.08-.52-.33-1.04-.66-1.55-1-.23-.16-.48-.3-.68-.48-.01-.12.04-.22.11-.32.13-.21.11-.25-.19-.25-.31,0-.62,0-.93,0-.11,0-.22,0-.33,0-.14,0-.21-.04-.22-.15h5.06Z"/>
    <path class="cls-14" d="m113.07,1.97l.04.08s-.05.03-.08.09c-.25.69-.5,1.37-.7,2.07-.03.12-.05.18-.1.18-.04,0-.09-.04-.18-.1-.66-.45-1.37-.86-2.06-1.29-.1-.07-.16-.09-.2-.08l-.07-.1c.09,0,.11-.1.19-.34.18-.54.38-1.07.55-1.6.05-.14.09-.28.13-.42.04,0,.06-.01.07-.04.2.18.45.32.68.48.51.34,1.03.67,1.55,1,.08.05.13.08.17.08"/>
    <path class="cls-11" d="m112.24,4.39v.11c-.1.03-.02.15-.05.23-.15.58-.16,1.17-.34,1.74-.1.31-.13.31-.54.26-.86-.11-1.71-.21-2.57-.31-.11-.37-.33-.72-.49-1.08-.16-.38-.34-.75-.52-1.13-.02-.03-.02-.06-.02-.08,0-.05.05-.05.14-.05.38,0,.76.01,1.14.02.2,0,.32-.05.37-.22.08-.27.2-.54.32-.81.04-.09.07-.14.11-.16.04,0,.1.02.2.09.68.43,1.4.84,2.06,1.29.1.07.15.1.18.1"/>
    <path class="cls-8" d="m110.58-.16c.3,0,.33.04.19.25-.06.1-.12.2-.1.32,0,.03-.03.04-.07.04-.22-.21-.51-.32-.79-.46-.07-.04-.17-.06-.17-.15.31,0,.62,0,.93,0"/>
    <path class="cls-9" d="m110.6.44c-.04.14-.09.28-.13.42-.17.54-.37,1.07-.55,1.6-.08.24-.1.34-.19.34-.07,0-.17-.06-.35-.16-.95-.52-1.9-1.04-2.85-1.56-.1-.21-.15-.44-.21-.66-.06-.19.02-.4-.18-.55.11-.06.34.03.32-.18h2.65c.01.11.08.15.22.15.11,0,.22,0,.33,0,0,.09.09.11.17.15.27.15.57.26.79.46"/>
    <path class="cls-11" d="m110.07,8.36c.08.12.1.21-.11.29-.71.28-1.4.58-2.13.82-.06.02-.09.05-.09.08l-.58-.02s-.04-.04-.07-.05c-.7-.32-1.32-.72-2-1.05-.13-.06-.19-.1-.19-.14,0-.03.06-.07.18-.14.31-.17.62-.33.92-.5.08-.04.18-.07.12-.19-.17-.34-.3-.69-.45-1.03,0-.03.01-.06.02-.08.36-.04.72,0,1.07.03.66.05,1.33,0,1.99.05.44.65.89,1.29,1.33,1.94"/>
    <path class="cls-14" d="m109.73,2.81l.07.1s-.07.06-.11.16c-.12.27-.23.54-.32.81-.05.17-.17.23-.37.22-.38,0-.76-.01-1.14-.02-.09,0-.14,0-.14.05l-.29-.05c.22,0,.24-.04.16-.22-.13-.32-.25-.65-.38-.98-.24-.6-.51-1.19-.72-1.8.01,0,.03,0,.04,0,.95.52,1.9,1.04,2.85,1.56.19.1.29.16.35.16"/>
    <path class="cls-14" d="m108.75,6.42h0c-.66-.05-1.33.01-1.99-.04-.35-.03-.71-.07-1.07-.03-.03-.03-.07-.04-.12-.04.02-.08,0-.16-.03-.23-.26-.53-.52-1.06-.78-1.59-.08-.16-.13-.33-.21-.53.66.09,1.32.02,1.98.08.29.03.59.04.89.04h.02l.29.05s0,.04.02.08c.18.37.36.75.52,1.12.16.36.37.71.49,1.08"/>
    <path class="cls-9" d="m107.59,3.86c.07.18.06.22-.16.22h-.02c-.3,0-.59-.01-.89-.04-.66-.06-1.32,0-1.98-.08h-.09s.04-.05.03-.1c0-.05-.02-.1-.04-.16-.25-.65-.5-1.3-.73-1.96-.21-.58-.46-1.15-.64-1.74-.02-.06-.06-.12-.12-.17l.51-.09c.02.11.18.07.27.1.54.2,1.05.43,1.57.67.4.18.83.34,1.2.56.21.61.48,1.2.72,1.8.13.33.25.65.38.98"/>
    <path class="cls-14" d="m107.09,9.47s.06.02.07.05c-1.54.06-3.06.04-4.64.01.41-.22.77-.41,1.13-.61.32-.17.63-.34.95-.51.1-.05.14-.09.14-.13h.15s.06.07.19.14c.68.33,1.31.73,2,1.05"/>
    <path class="cls-8" d="m106.53,1.08s-.03,0-.04,0c-.37-.23-.8-.38-1.2-.57-.52-.23-1.03-.47-1.57-.66.73,0,1.46,0,2.18-.02.08,0,.16,0,.24.04.2.16.12.37.18.55.07.22.11.45.21.66"/>
    <path class="cls-14" d="m106.11,7.46c.06.12-.04.15-.12.19-.3.17-.61.34-.92.5-.11.06-.17.1-.17.14h-.15s-.04-.08-.13-.13c-.76-.46-1.52-.92-2.32-1.34-.19-.16-.44-.26-.67-.4.03,0,.05-.02.07-.02.62-.01,1.24-.03,1.87-.04.67-.02,1.33-.03,2-.05.03.04.07.08.1.11.15.34.28.69.45,1.03"/>
    <path class="cls-7" d="m105.68,6.35s-.01.06-.02.08c-.03-.04-.07-.08-.1-.11h0s.09,0,.12.03"/>
    <path class="cls-9" d="m105.54,6.07c.04.08.05.15.03.23h0c-.67.03-1.33.04-2,.06-.63.02-1.25.03-1.87.04-.02,0-.04.01-.06.02h-.12s.01-.02.02-.03c.02-.09-.12-.18-.22-.25-.87-.6-1.68-1.27-2.52-1.9-.06-.05-.13-.09-.21-.1l.04-.07c.09.03.18.04.29.04,1.82-.03,3.64-.07,5.45-.15.05,0,.08,0,.1-.02h.09c.08.2.13.37.21.53.26.53.52,1.06.78,1.59"/>
    <path class="cls-11" d="m104.62,8.16c.09.05.13.09.13.13s-.05.08-.14.13c-.32.17-.63.34-.95.51-.36.2-.72.39-1.13.61h-.59c-.07-.1-.16-.14-.24-.19-.82-.49-1.63-1-2.46-1.48-.55-.32-1.07-.68-1.63-.99-.04-.02-.07-.04-.11-.05v-.03c.06,0,.1,0,.16,0,.61-.06,1.22-.13,1.83-.19.57-.06,1.15-.11,1.72-.17.09,0,.24.02.29-.02h.12c.23.14.47.24.67.4.8.42,1.56.88,2.32,1.34"/>
    <path class="cls-8" d="m104.48,3.86s0,.08-.03.09c-.02.01-.06.02-.1.02-1.82.08-3.64.12-5.45.14-.1,0-.2-.01-.29-.04-.11-.03-.22-.09-.32-.14-1.15-.67-2.29-1.33-3.44-2-.33-.19-.34-.19-.23-.5.17-.5.22-1.01.44-1.5.06-.07.11-.11.23-.11,2.55,0,5.1,0,7.65,0,.07.04.1.1.12.16.18.59.43,1.16.64,1.74.23.66.49,1.31.73,1.96.02.05.03.1.04.16"/>
    <path class="cls-8" d="m101.93,9.55h-.89c-.27,0-.54,0-.81,0-.12,0-.14.05-.1.13h-.09c.05-.15-.08-.13-.19-.13h-6.83c-.05,0-.1.01-.15.02-.45-.03-.9-.03-1.35,0-.14,0-.29.06-.42-.03.02-.05.05-.11.07-.17.21-.31.3-.65.47-.97.26-.48.5-.97.75-1.45.05-.1.1-.13.24-.13,1.59,0,3.18,0,4.77,0,.04,0,.07,0,.09.01.04,0,.07.02.11.04.56.31,1.08.67,1.63.99.83.49,1.64.99,2.46,1.48.08.05.17.1.24.21"/>
    <path class="cls-8" d="m101.3,6.15c.1.07.24.15.22.24,0,0,0,.02-.02.03-.05.05-.2.01-.29.02-.57.06-1.15.11-1.72.17-.61.06-1.22.12-1.83.19-.06,0-.1,0-.15,0-.07-.02-.13-.05-.19-.11-.14-.15-.32-.27-.49-.39-.73-.51-1.45-1.03-2.14-1.57-.1-.08-.22-.12-.34-.17h0c.21-.02.42,0,.63-.06.73-.05,1.44-.15,2.17-.23.43-.05.87-.08,1.3-.13.05,0,.09,0,.13,0,.08.02.14.05.21.1.84.63,1.65,1.29,2.52,1.9"/>
    <path class="cls-9" d="m97.51,6.8v.03s-.07-.01-.1-.01c-1.59,0-3.18,0-4.77,0-.14,0-.19.03-.24.13-.26.48-.5.97-.75,1.45-.17.32-.26.66-.47.97-.02.06-.05.11-.07.17h-.2c0-.12-.05-.23-.1-.34-.11-.28-.23-.56-.3-.85.05,0,.11,0,.11-.05,0-.09-.09-.09-.17-.09-.28-.64-.48-1.31-.74-1.96l-.02-.1s.06-.05.07-.07c.2-.39.41-.78.58-1.19.08-.19.21-.23.42-.22.92,0,1.83-.01,2.75-.08.28-.02.56-.03.84-.05.12.05.24.09.34.17.7.54,1.41,1.06,2.14,1.57.18.12.35.24.49.39.06.06.12.1.19.11"/>
    <path class="cls-14" d="m94.35,4.55h0c-.28.03-.56.04-.84.06-.92.07-1.83.07-2.75.08-.21-.02-.34.03-.42.22-.17.4-.39.79-.58,1.18-.01.02-.04.04-.07.07-.15-.23-.22-.47-.32-.7-.37-.85-.74-1.7-1.12-2.56h0s0,0,0,0c.86-.41,1.61-.94,2.43-1.39.15-.07.29-.15.41-.25.13-.06.25-.13.35-.21.07-.03.13-.07.21-.1.04-.02.09-.1.16-.02-.11.34-.22.68-.32,1.03-.05.17-.18.34-.13.51.05.18.32.23.48.34.78.54,1.57,1.06,2.36,1.59.06.04.12.08.15.15"/>
    <path class="cls-14" d="m93.43-.11c-.47.27-.93.53-1.4.8-.05.03-.1.05-.14.02-.01-.01.02-.06.03-.1.07-.19.14-.38.22-.57.03-.18.16-.23.38-.22.27.02.53,0,.8.01.03.02.07.03.1.05"/>
    <path class="cls-9" d="m92.68,2.17s.07.08.02.13c-.04.04-.09.03-.14.03-.27-.04-.32-.11-.25-.32.04-.15.05-.3-.02-.45-.04-.08-.02-.15.04-.2,0,0,.02-.02.03-.02.04-.02.08-.03.14-.03.03,0,.06,0,.08,0,.06,0,.09.04.11.1.06.15.09.27-.05.42-.09.09-.09.24.04.34"/>
    <path class="cls-9" d="m92.14.04c-.07.19-.14.38-.22.57-.07,0-.14.01-.15.08,0,.05.02.08.07.1.05.02.12.03.1.09-.02.06-.09.05-.15.05-.06-.09-.11,0-.16.02-.07.03-.14.07-.21.1,0-.16-.14-.12-.25-.09-.12.03-.32-.04-.36.1-.04.14.2.11.26.2-.12.1-.26.18-.41.25-.01-.02-.05-.04-.04-.06.05-.18-.08-.13-.18-.09-.17.08-.38.09-.55.18-.08.04-.21.08-.28,0-.07-.09-.01-.2.07-.25.17-.1.2-.23.27-.37.11-.21.2-.43.26-.65.01-.06.06-.12.04-.17-.1-.21.09-.24.25-.25.44-.05.88-.09,1.32,0,.15.03.24.1.31.21"/>
    <path class="cls-11" d="m91.18.96c.11-.03.24-.08.25.09-.1.08-.22.16-.35.21-.07-.09-.3-.06-.26-.2.04-.14.24-.07.36-.1"/>
    <path class="cls-14" d="m90.8,9.2c.05.11.1.22.1.34,0,.01-.01.02,0,.04-.63,0-1.26,0-1.9-.02-.21,0-.42.04-.64,0-.07-.01-.09-.02-.09-.05,0,0,0-.03.01-.04.17-.4.34-.8.5-1.21.27-.64.6-1.26.82-1.91.01-.03.03-.08.11-.09.26.65.45,1.31.74,1.96,0,.03,0,.05.01.07-.01.02,0,.03.03.04,0,0,0,.02.01.02.07.29.18.57.3.85"/>
    <path class="cls-9" d="m90.61,8.31c0,.06-.06.05-.11.05,0,0-.01-.02-.01-.03-.01-.01-.02-.03-.03-.04,0-.02,0-.05-.01-.07.08,0,.17,0,.17.09"/>
    <path class="cls-11" d="m90.46,8.29s.02.03.03.04c-.03,0-.05-.01-.03-.04"/>
    <path class="cls-11" d="m89.68,6.16l.02.1c-.08,0-.1.05-.11.09-.21.65-.55,1.27-.82,1.91-.17.4-.34.8-.51,1.21,0,.02-.01.04-.01.05h-.11s0-.05-.03-.09c-.13-.19-.19-.41-.26-.61-.13-.36-.28-.72-.42-1.08-.15-.42-.34-.83-.49-1.25-.25-.68-.57-1.34-.78-2.03-.03-.09-.04-.16,0-.23.02-.05.06-.09.14-.14.65-.4,1.33-.76,1.94-1.19.37.85.74,1.7,1.12,2.56.1.23.17.47.32.7"/>
    <path class="cls-10" d="m89.06-.13s.05.02.08.04c-.57.24-1.03.61-1.57.88-.06.03-.09.06-.1.1l-.14-.02c.05-.08.03-.17-.04-.32-.1-.2-.2-.4-.26-.61-.02-.08,0-.11.1-.11.65.01,1.29-.03,1.94.04"/>
    <polyline class="cls-12" points="88.25 2.9 88.25 2.9 88.25 2.9 88.24 2.9 88.25 2.9"/>
    <path class="cls-10" d="m87.84,1.92c.13.33.27.65.4.98,0,0,0,0,0,0t0,0c-.62.43-1.29.79-1.94,1.19-.07.04-.12.09-.14.14h-.19c.03-.06.03-.12,0-.2-.18-.41-.34-.84-.52-1.25-.09-.21-.12-.44-.29-.62.02-.03.03-.05.05-.08.14,0,.25-.06.36-.12.52-.31,1.04-.62,1.57-.92.1-.06.16-.1.2-.16l.14.02s0,.09.03.15c.14.28.24.59.36.88"/>
    <path class="cls-10" d="m88.12,9.43s.03.06.03.08c0,.04-.05.05-.14.05-.47,0-.94.01-1.41.03-.24,0-.45-.05-.65-.15-1.44-.74-2.82-1.54-4.23-2.3-.11-.06-.2-.15-.33-.18h0s.03-.05.06-.07c.42-.23.84-.47,1.25-.71,1.04-.61,2.08-1.23,3.13-1.84.07-.04.12-.08.14-.12h.19c-.03.07-.02.14,0,.23.21.69.53,1.35.78,2.03.15.42.34.83.49,1.25.13.36.29.72.42,1.08.07.2.13.42.26.61"/>
    <path class="cls-11" d="m85.97,4.03c.04.09.04.15,0,.2-.03.04-.07.08-.14.12-1.05.6-2.09,1.22-3.13,1.84-.41.24-.84.48-1.25.71-.03.02-.06.03-.06.06h0c-.65-.38-1.3-.77-1.96-1.15-.08-.05-.18-.09-.16-.19.03-.02.06-.04.1-.07.03,0,.06-.02.08-.03,1.77-1.03,3.53-2.06,5.3-3.1.12-.07.27-.11.33-.23.03-.01.05-.02.08-.04.18.18.2.41.29.62.18.41.34.84.52,1.25"/>
    <path class="cls-8" d="m85.13,1.97c.05.02.07.06.07.1-.02.03-.03.05-.05.08-.03.01-.06.03-.08.04-1.33-.01-2.66-.03-3.98-.04-.13,0-.26-.02-.38.01l-.37-.06c.19,0,.34-.05.4-.23.14-.38.31-.75.46-1.13.05-.13.07-.27.16-.38.12-.16.17-.31.14-.49.04,0,.07,0,.11,0,.03.13.1.22.26.28.17.07.33.16.48.25.38.23.75.45,1.13.68.43.26.9.47,1.29.77.1.07.21.14.36.11"/>
    <path class="cls-14" d="m85.13,1.97c-.15.03-.26-.04-.36-.11-.39-.29-.86-.51-1.29-.77-.38-.22-.75-.45-1.13-.68-.16-.09-.31-.19-.48-.25-.16-.06-.23-.16-.26-.28.06-.06.15-.05.23-.05.74,0,1.48,0,2.22,0,.17,0,.25.05.29.17.13.38.27.75.44,1.11.14.28.23.58.35.87"/>
    <path class="cls-14" d="m81.09,2.16c1.33.01,2.65.03,3.98.04-.06.12-.21.16-.33.23-1.76,1.03-3.53,2.06-5.3,3.1-.02.01-.05.02-.08.03-.06-.29.16-.51.26-.76.31-.79.65-1.57.98-2.35.04-.09-.05-.23.11-.27.11-.03.25-.02.38-.01"/>
    <path class="cls-14" d="m81.49,9.39c.08.04.23.05.18.18-.32-.05-.65,0-.97,0-.97,0-1.94-.02-2.9,0-.34,0-.67-.06-1.01,0-.01,0-.03-.02-.05-.03.72-.4,1.45-.81,2.17-1.21.1-.06.15-.09.15-.13l.12-.02s.04.05.11.09c.74.37,1.47.75,2.2,1.13"/>
    <path class="cls-11" d="m81.68,9.58h0s-.09.06-.02.1h-4.84s.03-.03,0-.05c-.02-.02-.03-.02-.05,0-.02.02-.03.03,0,.05h-5.11c.02-.09-.15-.05-.13-.13.03,0,.06,0,.08,0,.02.03.04.02.06,0,.04,0,.08,0,.11,0,.04.03.08.02.12,0,.02,0,.03,0,.05,0,.02.02.04.02.06,0,.05,0,.1,0,.15,0h.02s.02,0,.02,0h.1s.09.02.12-.02c.14,0,.25-.07.36-.13.79-.46,1.58-.93,2.37-1.39.56-.32,1.13-.64,1.69-.96.06-.04.12-.06.2-.07.04.01.09.02.12.04.59.34,1.18.68,1.77,1.02.09.05.14.09.14.13,0,.04-.05.08-.15.13-.73.4-1.45.81-2.17,1.21.01.01.03.03.05.03.34-.05.67.01,1.01,0,.97-.03,1.94,0,2.9,0,.32,0,.65-.04.97,0h0s0,0,0,0"/>
  </g>
  <g class="cls-2">
    <path class="cls-10" d="m81.5-.12c.04.18-.02.33-.14.49-.09.11-.1.25-.16.38-.16.38-.32.75-.46,1.13-.06.17-.21.22-.4.22-.25,0-.51,0-.76,0-.49,0-.99,0-1.48,0-.16,0-.27-.03-.33-.1-.04-.04-.06-.1-.06-.17,0-.14-.07-.26-.12-.39-.19-.4-.35-.82-.45-1.24-.03-.1-.06-.19-.22-.17.03-.05.14-.07.13-.15.31-.02.62-.05.93-.05.86,0,1.73,0,2.6,0,.31,0,.62.03.93.05"/>
    <polygon class="cls-11" points="81.39 6.96 81.39 6.96 81.38 6.96 81.39 6.96"/>
    <path class="cls-14" d="m79.43,5.8c.65.38,1.3.77,1.96,1.15-.45.24-.89.47-1.34.71-.25.14-.49.29-.75.41-.07.04-.11.06-.11.09l-.12.02s-.05-.07-.14-.13c-.59-.34-1.18-.68-1.77-1.02-.03-.02-.08-.02-.12-.03,0-.04,0-.09,0-.13.09,0,.15-.03.22-.08.56-.33,1.13-.66,1.69-.99.16-.09.2-.14.12-.21l.08-.04s.08.04.12.05c-.02.11.08.14.16.19"/>
    <path class="cls-8" d="m80.34,2.11l.37.06c-.16.04-.07.18-.11.27-.33.78-.67,1.56-.98,2.35-.1.25-.32.48-.26.76-.03.02-.06.04-.1.07-.05-.02-.09-.03-.12-.05-.03-.02-.06-.05-.08-.09-.15-.4-.3-.81-.46-1.21-.16-.42-.34-.84-.49-1.26-.08-.24-.23-.46-.28-.71-.03-.17-.21-.18-.38-.18l.32-.11c.06.07.17.1.33.1.49,0,.98,0,1.48,0,.25,0,.51,0,.76,0"/>
    <path class="cls-14" d="m79.14,5.56l-.08.03s-.06-.05-.11-.08c-1.35-.84-2.71-1.69-4.06-2.53-.41-.25-.83-.51-1.24-.76-.06-.04-.11-.06-.16-.06v-.06c.51,0,1.01,0,1.52,0,.81,0,1.63,0,2.44,0,.17,0,.35,0,.38.18.04.25.19.47.28.71.15.42.32.84.49,1.26.15.4.31.8.46,1.21.02.04.05.07.08.09"/>
    <path class="cls-11" d="m79.06,5.6c.08.07.04.12-.12.21-.56.33-1.13.66-1.69.99-.07.04-.13.08-.22.08-.18.07-.23-.07-.32-.13-1.27-.8-2.54-1.6-3.81-2.41-.07-.04-.15-.08-.22-.12-.03-.02-.06-.02-.08-.02v-.02c.13-.34.27-.66.4-.99.12-.31.24-.61.36-.91.03-.08.08-.12.13-.12.04,0,.1.02.16.06.41.26.82.51,1.24.76,1.35.84,2.71,1.68,4.06,2.53.05.03.09.06.11.08"/>
    <path class="cls-8" d="m77.78,2.01l-.32.11c-.81,0-1.63,0-2.44,0-.51,0-1.01,0-1.52,0h-.05s0-.1.05-.13c.09,0,.15-.04.22-.07.2-.1.37-.24.56-.35.74-.43,1.49-.84,2.23-1.25.14-.08.29-.15.39-.26.17-.02.2.07.22.17.11.42.27.84.46,1.24.06.13.12.25.12.39,0,.07.02.13.06.17"/>
    <path class="cls-14" d="m77.05-.11c.01.08-.1.09-.13.15-.1.11-.25.18-.39.26-.74.42-1.5.83-2.23,1.25-.19.11-.37.24-.56.35-.07.04-.14.07-.22.07.22-.61.47-1.22.75-1.82.04-.1,0-.24.1-.29.12-.06.29-.02.44-.02.45,0,.9,0,1.35,0,.31,0,.61.03.91.06"/>
    <path class="cls-10" d="m77.03,6.87s0,.09,0,.13c-.08,0-.14.03-.2.07-.56.32-1.13.64-1.69.96-.79.46-1.58.93-2.37,1.39-.11.06-.22.13-.36.13-.04,0-.09-.01-.12.02h-.1s-.02-.02-.03,0c-.05,0-.1,0-.15,0-.02,0-.04,0-.06,0-.02,0-.03,0-.05,0-.04,0-.08,0-.12,0-.04,0-.08,0-.11,0h-.06s-.06,0-.08,0c-.19,0-.37-.01-.56-.01-1.68,0-3.35,0-5.03,0-.07,0-.13,0-.2,0h0c-.25.02-.5-.02-.75.04-.12.03-.11-.07-.09-.13.04-.14.1-.28.15-.42.19-.54.38-1.08.57-1.62.11-.31.24-.62.33-.93.02-.09.06-.14.11-.15.05,0,.12.01.21.07.26.14.51.3.76.44.83.49,1.66.98,2.49,1.47.33.19.66.38.97.58.15.1.2.05.25-.05.16-.33.24-.68.39-1.01.18-.4.33-.81.5-1.21.17-.43.33-.85.5-1.28.15-.37.3-.74.45-1.11,0-.02.02-.03.04-.04.02,0,.05,0,.08.02.07.04.15.07.22.12,1.27.8,2.53,1.61,3.81,2.41.09.06.15.2.32.13"/>
    <path class="cls-14" d="m73.5,2.11v.06c-.06,0-.1.03-.13.12-.12.31-.24.61-.36.91-.13.32-.27.65-.41.99-.56-.36-1.11-.69-1.68-1.02-.04-.02-.07-.04-.11-.06-.21-.11-.31-.17-.38-.17v-.04c.24-.66.48-1.3.73-1.95.01-.04,0-.08.01-.12.03,0,.06,0,.08,0,.71.42,1.42.83,2.13,1.25.02.01.05.02.07.03h.05Z"/>
    <path class="cls-11" d="m72.59,4.19v.02s-.03.02-.04.04c-.15.37-.3.74-.45,1.11-.17.43-.33.85-.5,1.28-.16.4-.31.81-.5,1.21-.15.33-.23.68-.39,1-.05.11-.1.15-.25.05-.31-.21-.64-.39-.97-.58-.83-.49-1.66-.98-2.49-1.47-.25-.15-.5-.3-.76-.44-.1-.06-.16-.08-.21-.07v-.08c.08-.25.16-.47.24-.7.15-.39.3-.77.44-1.16.02-.06.06-.1.1-.11.05-.01.1,0,.17.02.07.03.13.06.19.09.67.36,1.33.72,2,1.08.19.1.24.07.31-.09.03-.07.03-.14.05-.21.2-.65.48-1.28.71-1.93.08-.22.09-.33.18-.33.06,0,.17.06.38.17.04.02.07.04.11.06.56.32,1.12.66,1.68,1.01"/>
    <path class="cls-13" d="m71.38-.17c.23,0,.27.06.19.23-.12.25-.23.5-.32.76-.03,0-.05,0-.08,0,0-.07-.08-.1-.14-.13-.46-.25-.91-.49-1.37-.74-.04-.02-.11-.03-.09-.08.01-.04.08-.04.13-.04.56,0,1.12,0,1.68,0"/>
    <path class="cls-14" d="m70.41,2.9v.04c-.08,0-.09.1-.17.33-.23.65-.51,1.28-.71,1.93-.02.07-.02.14-.05.21-.07.16-.12.19-.31.09-.67-.36-1.33-.72-2-1.08-.06-.03-.12-.07-.19-.09-.07-.03-.12-.04-.17-.03l-.05-.1c.08,0,.09-.11.1-.16.09-.29.19-.57.31-.85.22-.49.38-1,.54-1.51.04-.12.17-.07.25-.03.19.08.37.17.55.27.63.32,1.25.65,1.89.99"/>
    <path class="cls-14" d="m66.77,4.19l.05.1s-.07.05-.1.11c-.14.39-.29.77-.44,1.16-.08.22-.16.45-.25.7-.7-.4-1.4-.8-2.09-1.2-.03-.04-.05-.07-.08-.1.23-.67.46-1.34.7-2.02.11,0,.19.06.27.11.6.38,1.24.7,1.83,1.09.05.03.08.04.11.04"/>
    <path class="cls-11" d="m66.03,6.26v.08s-.07.06-.1.15c-.09.31-.22.62-.33.93-.19.54-.38,1.08-.57,1.62-.05.14-.1.28-.15.42-.02.05-.03.16.09.13.25-.06.51-.02.75-.04,0,.04,0,.09,0,.13h-3.72s-.02-.02-.03-.03c0,.01,0,.02-.01.03h-.85s.04-.03,0-.05c0,0-.02,0-.03,0v-.08c.08,0,.17,0,.25,0,.1,0,.22.02.32-.04.14.03.29.05.44,0,.14-.02.16-.11.18-.2.17-.46.33-.92.5-1.38.12-.33.25-.66.36-.99.22-.61.42-1.23.63-1.84.05-.03.1-.05.17-.05.69.4,1.39.79,2.09,1.2"/>
    <path class="cls-10" d="m65.45-.17c.32,0,.33,0,.23.25-.3.76-.6,1.52-.87,2.28-.07.19-.12.38-.26.53-.74-.42-1.47-.83-2.2-1.26-.79-.46-1.57-.92-2.35-1.39-.12-.08-.18-.12-.18-.16,0-.05.08-.08.23-.14.19-.07.39-.1.6-.1,1.6,0,3.2,0,4.8,0"/>
    <path class="cls-11" d="m64.55,2.89v.06c-.23.68-.46,1.35-.69,2.02-.06.03-.09-.03-.14-.03-1.99-1.15-3.98-2.3-5.96-3.44-.08-.06-.16-.1-.24-.1v-.08c.07,0,.13-.02.2-.06.53-.29,1.07-.59,1.6-.88.08-.04.16-.09.24-.14.07-.05.1-.1.1-.15h.17s.06.08.18.15c.78.47,1.56.93,2.35,1.39.73.42,1.46.84,2.2,1.26"/>
    <path class="cls-8" d="m63.86,4.97s.05.07.08.1c-.06,0-.12.02-.17.05-.07,0-.13,0-.19.03-.98.42-1.96.84-2.94,1.25-.05.02-.09.04-.11.07l-.24-.02c.03-.06,0-.13-.05-.23-.16-.28-.35-.56-.48-.85-.13-.27-.35-.36-.69-.36l.46-.21c.08.1.18.16.33.18.08.02.17,0,.26,0,1.14,0,2.28,0,3.42,0,.07,0,.15.02.21-.04.05,0,.08.07.14.03"/>
    <path class="cls-14" d="m57.75,1.49c1.99,1.15,3.98,2.29,5.96,3.44-.06.06-.14.04-.21.04-1.14,0-2.28,0-3.42,0-.09,0-.18.02-.26,0-.15-.03-.25-.08-.33-.18-.03-.03-.05-.07-.07-.12-.29-.58-.62-1.14-.94-1.71-.26-.46-.52-.92-.77-1.38-.02-.05-.02-.08.04-.1"/>
    <path class="cls-14" d="m63.58,5.14c.06-.03.13-.03.19-.03-.21.61-.42,1.22-.63,1.84-.11.33-.24.66-.36.99-.17.46-.33.92-.5,1.38-.03.08-.04.18-.18.2-.12-.26-.24-.52-.38-.77-.39-.69-.74-1.4-1.19-2.07-.06-.09-.06-.15,0-.21.03-.02.06-.05.11-.07.98-.42,1.96-.84,2.94-1.25"/>
    <path class="cls-8" d="m62.1,9.52c-.15.04-.29.03-.44,0,0-.12-.15-.08-.22-.11-.75-.33-1.52-.65-2.27-.98-.44-.19-.9-.35-1.31-.57-.12-.07-.23-.1-.33-.1v-.18c.18,0,.35-.04.53-.13.24-.12.5-.22.74-.32.42-.17.84-.34,1.25-.52.13-.05.2-.09.22-.15l.24.02c-.05.06-.05.12,0,.21.45.67.8,1.38,1.19,2.07.14.25.26.51.38.77"/>
    <path class="cls-14" d="m61.66,9.51c-.1.06-.21.04-.32.04-.08,0-.17,0-.25,0-1.75,0-3.5.01-5.24.02h0s0,0,0,0h-.18s0,0,0,0c-.79,0-1.57-.02-2.35-.03,0-.06.06-.08.11-.1.86-.34,1.71-.69,2.55-1.06.4-.18.83-.34,1.22-.53.12-.06.22-.09.33-.09s.21.03.33.1c.41.22.87.38,1.31.57.76.32,1.52.64,2.27.98.07.03.22,0,.22.11"/>
    <path class="cls-11" d="m61.1,9.55v.08s-.02,0-.03,0c-.03.02-.02.03,0,.05h-.13s.01-.03.02-.04c-.03,0-.06,0-.08,0-.02.01,0,.03.01.04h-10.76s-.02-.07-.03-.11c.09-.14.02-.27-.04-.4-.21-.51-.39-1.04-.57-1.56-.14-.4-.3-.8-.45-1.2-.02-.07-.05-.09-.09-.09l.06-.1s.11,0,.23-.07c.56-.32,1.12-.65,1.68-.98.08-.05.17-.1.27-.12.02.02.05.04.07.06.08.42.28.81.42,1.22.17.52.37,1.04.56,1.56.19.52.38,1.04.57,1.56.02.06.04.12.15.1.11,0,.23,0,.34,0,.78,0,1.56.02,2.35.03h.19c1.75,0,3.5,0,5.24-.02"/>
    <path class="cls-10" d="m60.22,6.22c.06.11.08.18.05.23-.03.05-.1.09-.22.15-.41.17-.83.34-1.25.52-.25.1-.51.2-.74.32-.18.09-.35.13-.52.13-.23,0-.45-.07-.68-.19-.32-.17-.68-.3-1.03-.43-.32-.12-.59-.29-.93-.39-.06-.02-.09-.04-.11-.08-.03-.05-.01-.12.02-.19.15-.3.33-.59.44-.89.05-.14.12-.23.21-.29.14-.1.34-.13.6-.11.44.03.88,0,1.32,0h0c.55,0,1.11,0,1.66,0,.34,0,.57.08.69.36.13.29.32.57.48.85"/>
    <path class="cls-10" d="m59.65.09s-.03.1-.1.15c-.07.05-.16.09-.23.14-.53.29-1.07.59-1.6.88-.07.04-.12.06-.19.06-.05,0-.11-.02-.18-.06-.58-.35-1.19-.68-1.79-1.01-.12-.07-.18-.11-.18-.16s.07-.09.2-.14c.17-.07.35-.11.55-.11.46,0,.91,0,1.37,0s.91,0,1.37,0c.21,0,.43.02.63.1.1.04.15.09.15.16"/>
    <path class="cls-8" d="m59.5,4.8l-.46.21c-.55,0-1.11,0-1.66,0h0c-.44,0-.88.02-1.32,0-.26-.02-.45,0-.6.11l-.13-.13c.1,0,.15-.02.19-.11.19-.39.37-.78.6-1.14.45-.7.8-1.43,1.2-2.14.02-.04,0-.07-.02-.1.07-.07.14-.09.21-.09.08,0,.16.04.24.1-.06.02-.06.06-.04.1.25.46.51.92.77,1.38.32.57.65,1.13.94,1.71.02.05.05.08.07.12"/>
    <path class="cls-8" d="m57.54,7.57v.18c-.12,0-.22.03-.34.09-.39.19-.82.35-1.22.53-.84.37-1.69.73-2.55,1.06-.05.02-.11.04-.11.1-.11,0-.23,0-.34,0-.03-.08,0-.14.04-.22.26-.44.51-.88.75-1.33.24-.47.51-.93.79-1.39.03-.04.03-.08.02-.1l.23-.02s.05.06.11.08c.33.1.61.27.93.39.35.13.71.26,1.03.43.22.12.45.19.67.19"/>
    <path class="cls-11" d="m57.52,1.31v.08c-.08,0-.15.03-.22.1-.42.24-.84.49-1.26.73-1.57.91-3.14,1.81-4.7,2.72-.03,0-.06,0-.09.01-.08-.04-.11-.1-.12-.16-.19-.6-.46-1.17-.63-1.77-.02-.06-.06-.09-.14-.08-.03-.06-.08-.12.03-.15.1.14.22.05.31,0,.62-.35,1.25-.72,1.87-1.07.49-.28.97-.57,1.46-.86.35-.21.72-.4,1.07-.61.09-.06.14-.11.14-.16h.14s.06.08.18.15c.6.34,1.2.67,1.79,1.02.07.04.13.06.18.06"/>
    <path class="cls-14" d="m57.3,1.49s.04.06.02.1c-.39.72-.75,1.44-1.2,2.14-.23.37-.41.76-.6,1.14-.04.09-.09.11-.19.11-1.3,0-2.6,0-3.9,0-.03,0-.07-.02-.1-.03,1.57-.91,3.14-1.81,4.7-2.72.42-.24.84-.49,1.26-.73"/>
  </g>
  <g class="cls-3">
    <path class="cls-8" d="m55.34,4.98l.13.13c-.09.06-.16.16-.21.29-.11.3-.3.59-.44.89-.03.06-.05.13-.02.19l-.24.02s-.05-.05-.09-.08c-.35-.2-.75-.31-1.11-.48-.39-.18-.82-.31-1.2-.5-.28-.13-.56-.27-.88-.33-.03-.02-.05-.04-.07-.06.01-.03.03-.06.05-.1.03,0,.06,0,.09-.01.03,0,.07.03.1.03,1.3,0,2.6,0,3.9,0"/>
    <path class="cls-10" d="m55.23.09s-.05.1-.14.16c-.35.21-.71.41-1.07.61-.49.28-.97.57-1.46.86-.62.36-1.24.72-1.87,1.08-.09.05-.21.14-.31,0,0-.01,0-.02-.01-.02-.01-.04-.01-.09-.06-.13-.06-.32-.21-.62-.32-.93-.16-.48-.35-.94-.52-1.41-.05-.15-.17-.29-.14-.46,1.71,0,3.42,0,5.13,0,.19,0,.4.02.58.09.12.05.19.1.19.16"/>
    <path class="cls-14" d="m54.56,6.51s0,.06-.02.1c-.28.46-.54.92-.79,1.39-.24.45-.49.89-.75,1.33-.05.08-.06.14-.04.22-.11.03-.13-.04-.15-.09-.19-.52-.38-1.04-.57-1.56-.19-.52-.4-1.03-.56-1.56-.13-.41-.34-.8-.42-1.22.32.06.6.2.88.33.39.19.81.31,1.2.5.36.17.76.28,1.11.48.05.03.08.05.1.08"/>
    <path class="cls-14" d="m51.24,4.96s-.03.06-.05.1c-.1.02-.19.07-.27.12-.56.33-1.12.66-1.68.98-.12.07-.18.1-.23.07-.03-.02-.06-.07-.09-.15-.19-.53-.37-1.06-.56-1.59-.03-.08-.09-.16-.14-.26l.03-.04s.02-.02.04-.03c.01,0,.03,0,.04,0,.04,0,.07,0,.09-.03.07-.05.2-.06.19-.16h0c.26-.04.41-.2.61-.31.06-.04.13-.07.19-.11.31-.2.68-.33.93-.59.08,0,.12.02.14.08.17.6.44,1.18.63,1.77.02.06.05.12.12.16"/>
    <path class="cls-9" d="m50.37,2.76s.02.01.01.02c-.12.04-.06.1-.03.15-.25.26-.62.4-.93.59-.03-.05-.05-.11-.14-.07-.11.04-.07.11-.05.18-.2.11-.35.27-.61.31,0-.12-.08-.19-.22-.21-.05,0-.07.02-.07.05.01.13.13.14.26.16,0,0,.01,0,.02,0,0,.11-.12.12-.19.16-.03,0-.06.02-.09.03-.01,0-.02,0-.04,0-.02,0-.03,0-.05,0-.05-.11-.1-.21-.14-.32.03,0,.08,0,.07-.04,0-.04-.06-.03-.1-.03-.01-.01-.03-.03-.04-.04-.24-.68-.49-1.36-.73-2.04-.04-.12-.11-.09-.21-.04-.4.21-.8.42-1.2.62-.36.18-.71.37-1.08.54-.05.02-.13.07-.18.06-.04,0-.07-.04-.08-.13-.02-.15-.1-.29-.16-.43-.19-.49-.42-.96-.55-1.47,0,0,0-.02,0-.03h0s.07-.02.08-.04c.09-.05.18-.11.27-.15.45-.21.8-.52,1.29-.67.18-.05.41-.04.46-.25h3.23c-.01.09,0,.15.15.15-.03.17.09.3.14.46.17.47.36.94.52,1.41.11.31.26.61.32.93,0,.05-.01.1.06.13"/>
    <path class="cls-11" d="m50.31,2.64s.05.08.06.13c-.07-.03-.06-.08-.06-.13"/>
    <path class="cls-10" d="m50.06,9.17c.05.13.12.26.04.4-.1-.04-.2-.03-.31-.03-1.77,0-3.54,0-5.32,0v-.58s.08-.01.13-.04c1.41-.85,2.82-1.7,4.23-2.55.05-.03.09-.05.12-.05.04,0,.06.03.09.09.15.4.31.8.45,1.2.18.52.36,1.04.57,1.56"/>
    <path class="cls-11" d="m49.42,3.53c-.06.04-.13.07-.19.11-.02-.07-.06-.14.05-.18.09-.04.11.02.14.07"/>
    <path class="cls-11" d="m49.02,6.22l-.06.1s-.07.02-.12.05c-1.41.85-2.82,1.7-4.23,2.55-.05.03-.09.05-.13.05-.06,0-.11-.04-.13-.1-.19-.5-.43-1-.62-1.5-.14-.35-.3-.7-.43-1.06-.12-.35-.27-.69-.4-1.03-.15-.36-.31-.72-.46-1.1l.02-.06s.01,0,.02,0c.12,0,.24-.12.36-.19.6-.34,1.19-.69,1.79-1.04.16.28.23.57.34.84.22.57.45,1.13.63,1.71.04.14.11.16.26.07.33-.19.66-.37.99-.55.46-.25.91-.5,1.38-.75.06.1.11.18.14.26.19.53.37,1.06.56,1.59.03.08.06.14.09.15"/>
    <path class="cls-11" d="m48.62,3.95h0s-.01,0-.02,0c-.12-.02-.24-.03-.26-.15,0-.03.02-.06.07-.05.14.02.22.09.22.21"/>
    <path class="cls-11" d="m48.34,4.15s.06-.02.09-.03c-.02.03-.05.04-.09.03"/>
    <path class="cls-11" d="m48.3,4.15s-.02.02-.04.03c0,0,0-.02-.02-.03.02,0,.04,0,.05,0"/>
    <path class="cls-14" d="m48.25,4.15s.01.02.02.03l-.03.04c-.46.25-.92.5-1.38.75-.33.18-.66.36-.99.55-.15.09-.22.07-.26-.07-.18-.58-.41-1.14-.63-1.71-.11-.28-.18-.56-.34-.84v-.04c.06.01.13-.04.19-.06.36-.17.72-.36,1.08-.54.4-.21.8-.41,1.2-.62.1-.05.16-.08.21.04.24.68.49,1.36.73,2.04,0,.02.03.03.04.04,0,.03-.02.06.03.07.05.11.1.21.14.32"/>
    <path class="cls-11" d="m48.18,3.79s-.04.03-.07.04c-.05-.02-.03-.04-.03-.07.04,0,.09,0,.1.03"/>
    <path class="cls-13" d="m45.25-.14c.1,0,.18.03.26.07-.49.15-.85.46-1.29.67-.09.04-.18.1-.27.15-.03,0-.07,0-.08.04h0c-.14-.05-.1-.18-.16-.27-.1-.15-.16-.32-.23-.49-.07-.18-.04-.2.19-.21.53-.02,1.06.07,1.59.03"/>
    <path class="cls-14" d="m44.64,2.86v.04c-.6.35-1.2.7-1.8,1.04-.12.07-.25.19-.36.19,0,0-.01,0-.02,0-.08-.02-.09-.19-.14-.28-.13-.29-.25-.58-.35-.88-.08-.24-.23-.46-.3-.71-.02-.08-.06-.11-.09-.12v-.05s.02,0,.03,0c.3-.11.54-.3.8-.45.41-.23.81-.48,1.22-.73.07-.04.12-.09.22-.08.13.5.36.98.55,1.47.06.14.15.29.16.43,0,.09.04.12.08.13"/>
    <path class="cls-10" d="m44.48,8.97v.58h-.89c-.18,0-.35.02-.53.03-.13,0-.06.07-.06.11h-.22s0-.06-.02-.06c-.5-.15-.87-.44-1.29-.68-1.14-.65-2.27-1.31-3.43-1.99,1.48-.93,2.93-1.85,4.4-2.77.16.38.32.74.46,1.1.14.34.28.69.4,1.03.13.35.29.7.43,1.06.19.5.43,1,.62,1.5.02.06.06.09.13.09"/>
    <path class="cls-11" d="m43.94.76s-.05.03-.08.04c0-.04.05-.03.08-.04"/>
    <path class="cls-11" d="m42.78,9.69h-8.74s.04-.03,0-.05c0,0-.02,0-.03,0v-.11c1.43.05,2.84.05,4.26.02,0-.07-.05-.08-.08-.1-.68-.38-1.35-.76-2.04-1.13-.09-.05-.14-.09-.14-.13,0-.03.03-.07.11-.11.59-.34,1.18-.69,1.77-1.03.07-.04.11-.07.11-.1h.04c1.16.68,2.28,1.35,3.43,2,.42.24.79.53,1.29.68.01,0,.01.04.02.06"/>
    <path class="cls-11" d="m42.46,4.12l-.02.06c-1.47.92-2.92,1.84-4.4,2.77h-.04s-.03-.07-.1-.11c-.66-.37-1.31-.75-1.96-1.13-.04-.06.02-.1.05-.14.04-.02.08-.03.12-.05.58-.37,1.17-.74,1.76-1.1,1.17-.73,2.34-1.45,3.51-2.18.06-.04.14-.11.2-.11.04,0,.07.03.09.12.07.25.22.47.3.71.1.3.22.59.35.88.04.1.05.26.14.28"/>
    <path class="cls-7" d="m41.56,2.05s.04.02.06.03c0,0-.02,0-.02,0-.02,0-.03,0-.03-.03"/>
    <path class="cls-14" d="m41.59,2.08v.05c-.07,0-.15.07-.21.11-1.17.73-2.35,1.45-3.51,2.18-.59.37-1.17.74-1.76,1.1-.04.02-.08.04-.12.05-.1-.08,0-.15.03-.21.15-.23.21-.48.28-.72.06-.22.15-.44.24-.64.17-.38.32-.76.46-1.15.07-.18.19-.36.21-.55,0-.04,0-.08.02-.11.04-.09.12-.1.27-.1,1.23,0,2.46,0,3.69,0,.13,0,.25,0,.36-.07h0s.01.03.03.03"/>
    <path class="cls-8" d="m41.52,1.93s.02.08.04.12c-.11.06-.23.07-.36.07-1.23,0-2.46,0-3.69,0-.15,0-.24,0-.27.09l-.24-.09c.11,0,.19-.03.23-.13.18-.47.36-.94.57-1.39.11-.23.11-.46.08-.7.06,0,.12-.02.18-.03.02.1.07.19.18.25,1.05.6,2.1,1.21,3.15,1.81.05.03.1.06.15,0"/>
    <path class="cls-14" d="m41.52,1.93c-.05.06-.1.03-.15,0-1.05-.61-2.1-1.21-3.15-1.81-.11-.07-.16-.15-.18-.25.06-.05.14-.03.21-.03.73,0,1.46,0,2.2,0,.18,0,.26.05.31.19.18.48.39.95.58,1.43.06.16.12.32.18.49"/>
    <path class="cls-14" d="m38.18,9.45s.08.03.08.1c-1.41.03-2.83.03-4.25-.02-.18,0-.35-.01-.53-.02.2-.11.41-.22.61-.33.53-.28,1.07-.57,1.6-.85.09-.05.14-.09.14-.13h.17s.05.08.14.13c.68.37,1.36.75,2.04,1.13"/>
    <path class="cls-14" d="m37.9,6.84c.07.04.1.07.1.1,0,.03-.04.06-.11.1-.59.34-1.18.69-1.77,1.03-.08.05-.11.08-.11.11h-.17s-.05-.08-.14-.13c-.6-.34-1.21-.68-1.82-1-.09-.05-.13-.08-.13-.12s.05-.07.13-.12c.58-.32,1.14-.65,1.71-.97.09-.05.16-.11.24-.16.04.01.07.03.11.04.65.38,1.3.76,1.96,1.13"/>
    <path class="cls-10" d="m37.87-.11c.03.24.03.46-.08.7-.21.46-.39.93-.57,1.39-.04.1-.13.13-.23.13-.79,0-1.58,0-2.38,0-.09,0-.17-.03-.22-.09-.02-.02-.03-.04-.04-.07-.17-.37-.36-.74-.49-1.12-.09-.25-.25-.5-.27-.76,0-.07-.04-.1-.12-.1,0-.03,0-.06,0-.09,1.23-.07,2.46-.04,3.7-.05.24,0,.47.02.71.06"/>
    <path class="cls-8" d="m36.99,2.11l.24.09s-.02.06-.02.11c-.01.19-.14.37-.21.55-.14.38-.29.77-.46,1.15-.09.2-.18.42-.24.64-.07.24-.13.49-.28.72-.04.06-.13.13-.03.21-.03.04-.09.08-.05.14-.04-.01-.07-.02-.11-.04-.01-.03-.03-.07-.05-.1-.02-.21-.15-.38-.23-.57-.26-.54-.45-1.09-.7-1.63-.17-.36-.28-.74-.48-1.09-.06-.11-.14-.15-.27-.14l.29-.13c.05.06.13.09.22.09.79,0,1.58,0,2.38,0"/>
    <path class="cls-11" d="m35.78,5.58s.03.07.05.1c-.08.05-.16.11-.24.16-.57.33-1.13.66-1.71.97-.08.05-.13.08-.13.12h-.11s-.02-.04-.06-.06c-.7-.37-1.36-.8-2.04-1.19-.53-.3-1.07-.61-1.59-.92-.22-.13-.43-.27-.65-.4-.11-.07-.2-.1-.27-.08v-.05s0-.1.03-.16c.19-.44.38-.89.55-1.34.07-.18.11-.37.28-.52.03.02.06.05.11.04.12.07.24.13.36.2.46.27.93.54,1.39.81,1.06.61,2.11,1.23,3.16,1.84.29.17.56.35.89.48"/>
    <path class="cls-11" d="m33.49,9.64s0-.01-.02-.01c0,0,0,0-.01,0,0,0,0,.01.01.01s.01,0,.02,0m2.21-1.59c.09.05.14.09.14.13s-.05.08-.14.13c-.53.28-1.07.57-1.6.85-.2.11-.41.22-.61.33.18,0,.35.02.53.02v.11s-.03,0-.04,0c-.03.02-.02.03,0,.05h-5.52s.02-.03-.01-.04c-.03,0-.05,0-.03.04h-.67s.02-.03-.01-.04c-.03,0-.04,0-.03.04h-.13s0-.04-.04-.04c-.03,0-.06,0-.05.04h-.14s0-.03-.02-.03v-.07s.07,0,.1,0c.25-.02.59-.03.93-.04.13,0,.25.05.39.02.37-.08.65-.26.94-.43.97-.55,1.99-1.05,2.94-1.62.28-.17.59-.31.89-.47.05-.03.12-.07.12-.11h.11s.04.06.13.11c.62.33,1.22.67,1.82,1.01"/>
    <path class="cls-14" d="m35.55,5.01c.09.19.21.37.23.57-.32-.13-.6-.31-.89-.48-1.06-.61-2.11-1.23-3.16-1.84-.46-.27-.93-.54-1.39-.81-.12-.07-.24-.13-.36-.2.02-.07.09-.06.16-.06,1.05,0,2.1,0,3.16,0,.27,0,.54-.02.8-.03.13,0,.21.03.27.14.2.35.31.73.48,1.09.25.54.44,1.09.7,1.63"/>
    <path class="cls-8" d="m34.39,2.02l-.29.13c-.27.01-.53.03-.8.03-1.05,0-2.11,0-3.16,0-.07,0-.14,0-.16.06-.05.02-.08-.02-.11-.04,0,0,0-.02,0-.03,0-.04.02-.07.05-.1.23-.06.35-.24.53-.34.62-.35,1.21-.73,1.83-1.07.4-.22.82-.44,1.17-.71.08,0,.12.04.12.1.02.27.18.51.27.76.14.38.33.75.49,1.12.01.03.03.05.04.07"/>
    <path class="cls-10" d="m33.58,6.87s.06.05.06.07c0,.04-.07.08-.12.11-.3.16-.6.3-.89.47-.95.57-1.97,1.07-2.94,1.62-.29.17-.57.35-.94.43-.14.03-.26-.02-.39-.02-.34,0-.68.02-.93.04-.03,0-.07,0-.1,0-.4,0-.4-.03-.29-.33.2-.56.44-1.11.63-1.66.21-.63.5-1.23.72-1.86.12-.36.28-.7.43-1.05.03-.06.05-.12.06-.19.03-.13.07-.2.15-.21.07-.02.15.01.27.08.22.13.43.27.65.4.53.31,1.06.62,1.59.92.68.39,1.34.82,2.04,1.19"/>
    <path class="cls-14" d="m33.46-.12s0,.06,0,.09c-.36.27-.77.49-1.17.71-.63.34-1.22.72-1.83,1.07-.19.1-.3.28-.53.34.04-.3.18-.58.3-.87.17-.41.33-.82.49-1.24.04-.1.08-.15.22-.15.7,0,1.4,0,2.1,0,.15,0,.29.03.44.04"/>
    <path class="cls-10" d="m29.87,2.19s0,.02,0,.03c-.17.15-.21.34-.28.52-.17.45-.36.9-.55,1.34-.02.06-.04.11-.04.16-.67-.39-1.35-.78-2.02-1.18-.08-.05-.16-.05-.25-.04,0-.05-.02-.09-.03-.14.24-.02.21-.2.25-.31.19-.47.36-.95.53-1.43.04-.12.07-.2.05-.26h.12s.05.04.09.06c.65.32,1.21.73,1.85,1.06.1.05.18.13.28.2"/>
    <path class="cls-11" d="m29.01,4.23v.05c-.06.02-.1.08-.13.21-.01.06-.04.13-.06.19-.15.35-.31.69-.43,1.05-.22.63-.51,1.23-.72,1.86-.19.56-.43,1.11-.63,1.66-.11.3-.11.32.29.33v.07s-.03.02-.02.03h-.18s0-.03-.02-.03-.03.01-.02.03h-.58s.02-.03-.01-.04c-.04,0-.05,0-.03.04h-2.33c0-.07-.03-.15.03-.22-.02.12.08.11.19.11.68,0,1.35-.02,2.03-.02.14,0,.35.05.41,0,.1-.09-.06-.21-.11-.32-.42-.98-.84-1.97-1.27-2.95-.14.03-.08.14-.16.18-.18-.14-.09-.27.04-.39.04.04.09.11.13,0,.04-.09.06-.18.1-.27.37-.68.61-1.39.94-2.08.11-.24.18-.48.28-.72.09-.01.18,0,.25.04.67.39,1.35.79,2.02,1.18"/>
    <path class="cls-10" d="m27.81-.16c.23,0,.25.06.15.23-.14.24-.14.5-.3.73-.02.02-.01.04,0,.06h-.12c-.02-.07-.1-.12-.27-.21-.43-.22-.81-.5-1.26-.7-.03-.02-.1-.02-.09-.07.01-.04.06-.06.12-.06.59,0,1.18,0,1.77,0"/>
    <path class="cls-14" d="m26.67,9.24c.05.11.21.22.11.32-.06.05-.27,0-.41,0-.68,0-1.35.02-2.03.02-.1,0-.2,0-.19-.11.18-.42.29-.86.47-1.28.17-.4.3-.81.44-1.22.06-.17.16-.32.18-.5.07-.04.02-.15.16-.18.42.98.85,1.96,1.27,2.95"/>
    <path class="cls-14" d="m26.71,2.88s.02.09.03.14c-.1.24-.17.48-.28.72-.33.69-.57,1.4-.94,2.08-.05.09-.06.18-.1.27-.04.1-.09.03-.13,0,.01-.08-.02-.14-.06-.21-.19-.35-.38-.71-.57-1.07-.05-.11-.15-.11-.27-.12-.15,0-.3,0-.45,0-.62.03-1.25-.01-1.87-.05-.49-.03-.98.02-1.46-.07,0,0,.01-.01,0-.02.21-.1.37-.23.54-.36.67-.4,1.28-.85,1.93-1.27.17-.11.33-.22.5-.33.1-.07.12-.13.08-.24-.13-.36-.22-.73-.33-1.09-.03-.09-.06-.18-.1-.26-.02-.04-.05-.09,0-.11.05-.03.1.02.13.04.56.37,1.16.69,1.74,1.03.53.31,1.06.62,1.59.93"/>
    <path class="cls-9" d="m25.23,5.87c.04.07.07.13.06.21-.13.12-.22.25-.04.39-.02.18-.13.33-.18.5-.14.41-.28.82-.44,1.22-.18.42-.29.86-.47,1.28-.06.07-.02.14-.03.21h-10.9s0-.03-.02-.03l.04-.1s.07,0,.1,0c1.72,0,3.44,0,5.15,0h0c1.2,0,2.4-.02,3.61,0,.57,0,1.15-.03,1.72.02.15.01.13-.07.1-.14-.04-.1-.12-.18-.16-.27-.37-.73-.74-1.47-1.1-2.2-.05-.09-.1-.13-.22-.13-1.32,0-2.65,0-3.97-.02-.3,0-.62-.04-.91.03l-.03-.07c.06-.02.12-.05.18-.1.97-.7,1.94-1.4,2.91-2.1.48.09.97.04,1.46.07.62.03,1.24.07,1.87.05.15,0,.3,0,.45,0,.11,0,.21.01.27.12.18.36.38.72.57,1.07"/>
    <path class="cls-8" d="m23.92,9.43c.03.07.05.15-.1.14-.57-.05-1.15-.01-1.72-.02-1.2,0-2.41,0-3.61,0h0c-1.72,0-3.43,0-5.15,0-.03,0-.07,0-.1,0-.02,0-.04-.02-.05-.04-.02-.05.05-.09.09-.11.41-.25.83-.51,1.24-.76.45-.28.9-.56,1.36-.84.44-.26.91-.5,1.31-.79.12-.09.24-.14.37-.17.3-.08.62-.04.91-.03,1.32,0,2.65.02,3.97.02.12,0,.18.04.23.13.36.74.73,1.47,1.1,2.2.05.09.12.18.16.27"/>
    <path class="cls-14" d="m23.12.57c.05.06.07.13.05.21-.49-.24-.91-.57-1.42-.79-.05-.06-.19-.06-.18-.16.34,0,.69,0,1.03,0,.15,0,.23.04.28.17.07.19.12.39.25.57"/>
    <path class="cls-8" d="m20.63,4.55s0,.02,0,.02c-.97.7-1.94,1.4-2.91,2.1-.06.04-.12.08-.18.1-.11.04-.24.04-.39.01-.54-.11-1.1-.12-1.65-.17-.42-.04-.83-.1-1.25-.12-.27-.01-.54-.04-.8-.07,0,0,.02,0,.03-.02h-.02c.97-.74,1.94-1.49,2.91-2.23-.05-.06-.1-.06-.16-.06l.33-.05c.11.08.23.1.36.12.74.06,1.49.13,2.22.24.29.04.59.05.88.08.1,0,.21.01.31.04.11.04.21.03.32,0"/>
    <path class="cls-8" d="m20.47,1.52c.06.17,0,.28-.19.39-1.16.66-2.31,1.33-3.46,2-.09.05-.18.1-.29.16l-.33.05c-.86.02-1.73-.05-2.59-.04-.68,0-1.37-.04-2.05-.07-.3,0-.61-.02-.91-.03-.07,0-.1-.01-.11-.04,0-.02,0-.05,0-.09.18-.53.41-1.04.58-1.57.13-.42.37-.82.46-1.25.06-.28.19-.56.33-.83.06-.12.02-.27.15-.36h7.67c.05,0,.1,0,.16,0,.15.11.15.26.19.39.13.43.23.87.39,1.29"/>
    <path class="cls-9" d="m17.52,6.77l.03.07c-.13.03-.25.09-.37.17-.4.29-.87.53-1.31.79-.46.28-.91.56-1.36.84-.41.25-.83.51-1.24.76-.05.03-.11.06-.09.11.01.03.03.04.05.04l-.04.09s0,0-.01,0c0,0,0,.02,0,.03h-.67c0-.14-.1-.22-.25-.3-.71-.35-1.36-.76-2.07-1.1,1.1-.58,2.12-1.23,3.25-1.86.26.02.53.05.8.07.42.02.83.08,1.25.12.55.05,1.11.07,1.65.17.15.03.28.03.39-.01"/>
    <path class="cls-9" d="m16.2,4.12c.05,0,.1,0,.16.06-.97.74-1.95,1.49-2.91,2.23-1.38-.03-2.7-.07-4.03-.1.36-.76.7-1.49,1.05-2.22.05-.1.02-.13-.08-.13l.15-.03s.05.03.11.04c.3,0,.61.02.91.03.68.03,1.37.08,2.05.07.86-.01,1.73.06,2.59.04"/>
    <path class="cls-7" d="m13.46,6.41s-.02.01-.03.02h0s.01-.01.02-.02h.02Z"/>
    <path class="cls-14" d="m13.44,6.41s-.01,0-.02.02h0c-1.13.62-2.15,1.28-3.25,1.86h-.05s-.03-.06-.09-.1c-.31-.17-.61-.36-.94-.51-.13-.06-.21-.11-.14-.26.17-.35.3-.7.46-1.07v-.02c1.33.03,2.65.06,4.03.1"/>
    <path class="cls-14" d="m12.5,9.69h-.09c-.05-.02.04-.11-.09-.11-.25,0-.5-.02-.75-.02-.75,0-1.5.03-2.25.01-.44,0-.87-.06-1.31.02-.02-.02-.03-.05-.05-.07.63-.38,1.3-.69,1.94-1.05.04-.03.09-.05.13-.07.07-.03.1-.07.1-.1h.05c.71.33,1.36.74,2.07,1.1.15.08.24.16.25.3"/>
    <path class="cls-9" d="m12.06-.17c-.14.1-.1.24-.15.36-.13.27-.27.55-.33.83-.09.43-.33.83-.46,1.25-.17.53-.4,1.04-.58,1.57-.01.04-.02.07,0,.08l-.15.03s-.03,0-.04,0c-.21.01-.41.02-.62.03-.73.02-1.46.02-2.19.08-.09,0-.14,0-.14-.05,0-.02,0-.04.02-.08.18-.43.34-.86.51-1.29.18-.45.37-.91.55-1.36.02-.05.07-.11,0-.14-.01,0-.03,0-.04,0l.15-.15c.11-.02.19-.04.27-.07.49-.22.98-.43,1.47-.65.25-.11.51-.23.79-.29.19-.04.06-.07,0-.11.31-.03.62.01.93-.04"/>
    <path class="cls-8" d="m11.14-.12c.05.04.18.07,0,.11-.28.06-.54.17-.79.29-.49.22-.98.43-1.47.65-.08.04-.16.05-.27.07.08-.39.15-.78.28-1.16.75-.02,1.51.02,2.26.04"/>
    <path class="cls-14" d="m10.39,3.97c.1,0,.12.03.08.13-.35.73-.69,1.46-1.05,2.22v.02c-.24-.02-.46,0-.68.02-.42.02-.85.01-1.28.03-.37.02-.74-.01-1.12.03-.01-.01-.03-.03-.04-.04.23-.48.47-.96.69-1.44.1-.23.21-.45.29-.68.07-.19-.06-.17-.19-.17h-.08l.39-.05c0,.05.06.05.14.05.73-.06,1.46-.06,2.19-.08.2,0,.41-.02.62-.03.02,0,.03,0,.04,0"/>
    <path class="cls-11" d="m10.04,8.19c.06.04.09.07.09.1,0,.04-.04.07-.1.11-.04.02-.09.04-.13.07-.64.36-1.32.67-1.94,1.05h0c-.05.05-.12.1-.12.17h-.49c-.07-.03-.14-.05-.2-.05v-.08h.22c-.15-.13-.29-.14-.42-.19-.62-.23-1.24-.46-1.85-.69-.13-.05-.21-.13-.12-.27.28-.45.57-.91.9-1.34.16-.21.27-.45.47-.64.37-.04.74,0,1.11-.03.43-.02.85,0,1.28-.03.23-.01.45-.04.68-.02-.16.37-.29.73-.46,1.08-.07.15,0,.2.14.26.33.15.63.34.94.51"/>
    <path class="cls-9" d="m8.6-.31c.01.15.14.15.28.15-.13.38-.21.77-.28,1.16l-.15.15s-.08.03-.12.05c-.9.48-1.79.97-2.68,1.46-.08.04-.16.08-.25.11-.06.02-.1.03-.13.01-.03,0-.05-.04-.07-.09-.22-.65-.45-1.3-.66-1.94-.06-.18-.09-.26-.16-.26l.08-.06c.35-.2.68-.38,1.05-.51.09-.08.22-.02.32-.05.14-.04.36.03.36-.18h2.42Z"/>
    <path class="cls-14" d="m8.48,1.16c.07.04.02.09,0,.14-.18.46-.37.91-.55,1.36-.17.43-.33.86-.51,1.29-.01.03-.02.06-.02.08l-.39.05c-.27,0-.54,0-.82.01-.45,0-.49-.04-.59-.37-.09-.29-.2-.57-.37-.85l.03-.1s.07,0,.13-.01c.09-.03.17-.07.25-.11.89-.49,1.79-.97,2.68-1.46.04-.02.08-.05.12-.05.01,0,.03,0,.04,0"/>
  </g>
  <g class="cls-1">
    <path class="cls-10" d="m7.36,9.56h-.73c-1.87,0-3.75,0-5.62,0q-.39,0-.39-.31c0-.92,0-1.83,0-2.75,0-.21.07-.38.24-.52.62-.5,1.24-1,1.88-1.52.15.27.18.53.21.78.04.31.13.62.18.94.02.15.05.29.05.44,0,.12.05.15.2.14.54-.03,1.06-.14,1.59-.18.37-.03.74-.09,1.11-.14.07,0,.14-.04.21-.06.01.01.03.03.04.04-.21.19-.31.43-.47.64-.33.44-.61.89-.9,1.34-.09.15-.01.23.12.27.62.24,1.24.46,1.86.69.12.05.27.06.42.19"/>
    <path class="cls-11" d="m7.09,4.09c.13,0,.25-.02.19.17-.08.23-.18.46-.29.68-.22.48-.46.96-.69,1.44-.07.02-.14.05-.21.06-.37.05-.74.1-1.11.14-.53.05-1.06.15-1.59.18-.15,0-.2-.02-.2-.14,0-.15-.03-.29-.05-.44-.05-.31-.13-.62-.18-.94-.03-.25-.06-.52-.21-.78l.07-.06s.06-.01.1-.04c.74-.52,1.56-.96,2.31-1.48.17.28.28.56.37.85.1.34.15.38.59.37.27,0,.55-.01.82-.01h.08Z"/>
    <path class="cls-11" d="m7.14,9.56v.08c-.07,0-.13.02-.2.05h-.58s-.01-.02-.02-.03c0,.01-.01.02-.02.03h-.27s0-.02-.01-.02c-.02,0-.03,0-.03.02h-.31s-.01-.03-.03-.02c0,0,0,.02,0,.02h-1.35c-.14-.07-.27-.07-.4,0-1.11,0-2.21,0-3.31,0-.1,0-.14,0-.14-.11,0-3.26,0-6.53,0-9.79,0-.09.03-.11.14-.11.33,0,.66,0,.99,0-.06.12-.2.14-.34.14-.09,0-.18,0-.26,0-.14.02-.35-.09-.34.15,0,.92,0,1.83,0,2.76.11-.02.19-.08.27-.12.23-.14.47-.28.7-.41.17-.1.27-.15.33-.15.08,0,.11.09.18.3.2.66.42,1.31.67,1.96.02.04.03.07.05.08l-.07.06c-.64.52-1.26,1.01-1.88,1.52-.17.14-.24.31-.24.52,0,.92,0,1.83,0,2.75q0,.31.39.31c1.88,0,3.75,0,5.63,0h.51Z"/>
    <path class="cls-14" d="m5.26,2.78l-.03.1c-.75.52-1.57.95-2.31,1.48-.04.03-.08.06-.1.04-.02,0-.03-.03-.05-.08-.24-.65-.46-1.3-.67-1.96-.06-.21-.09-.3-.18-.3l.05-.12s.06,0,.09-.02c.08-.04.16-.07.22-.12.61-.39,1.21-.78,1.81-1.17.15-.1.23-.15.28-.15.07,0,.1.08.16.26.22.65.45,1.29.67,1.94.02.05.04.08.06.09"/>
    <path class="cls-8" d="m4.21-.17c.43,0,.87-.02,1.29.08-.37.13-.7.32-1.05.51-.11-.19-.25-.37-.24-.59"/>
    <path class="cls-9" d="m4.45.43l-.08.06c-.06,0-.14.05-.28.15-.6.39-1.2.78-1.81,1.17-.07.04-.15.08-.22.12-.03.01-.06.02-.09.02-.05,0-.08-.03-.1-.09-.12-.34-.28-.66-.44-.99-.16-.34-.31-.68-.46-1.02.09,0,.17,0,.26,0,.14,0,.27-.02.34-.14h2.42c-.03.15.11.15.23.15,0,.22.13.4.24.59"/>
    <path class="cls-14" d="m1.97,1.94l-.05.12c-.06,0-.16.05-.33.15-.23.14-.47.27-.7.41-.08.05-.16.1-.27.12,0-.93,0-1.84,0-2.76,0-.24.21-.13.34-.15.15.34.3.68.46,1.02.16.33.32.65.44.99.02.06.06.09.1.09"/>
  </g>
</svg>