<?xml version="1.0" encoding="UTF-8" standalone="no"?><!DOCTYPE svg PUBLIC "-//W3C//DTD SVG 1.1//EN" "http://www.w3.org/Graphics/SVG/1.1/DTD/svg11.dtd"><svg width="100%" height="100%" viewBox="0 0 792 612" version="1.1" xmlns="http://www.w3.org/2000/svg" xmlns:xlink="http://www.w3.org/1999/xlink" xml:space="preserve" xmlns:serif="http://www.serif.com/" style="fill-rule:evenodd;clip-rule:evenodd;stroke-linejoin:round;stroke-miterlimit:2;"><g><path d="M285.601,276.623c12.827,14.765 14.979,28.89 5.733,45.375c-7.094,12.497 -15.232,24.298 -27.117,32.477l0.017,-0c-6.607,4.903 -14.356,7.647 -22.359,7.941c-18.324,0.146 -36.463,-2.324 -52.987,-12.059c-11.095,-6.659 -20.408,-16.338 -27.031,-28.103c-10.188,-16.302 -7.734,-38.313 5.749,-51.485c17.012,-17.235 36.985,-27.518 60.535,-27.847l-0,-0.018c7.027,-0.092 14.037,0.566 20.947,1.975c6.405,1.318 12.591,3.989 15.786,11.179l0.437,-0.256l-0.017,0c-10.608,-3.86 -21.67,-5.964 -32.849,-6.22c-21.72,-0.751 -42.868,7.648 -59.025,23.456c-14.087,13.046 -16.088,31.068 -5.732,47.719c6.203,10.21 14.693,18.553 24.679,24.207c14.172,7.721 29.688,12.112 45.524,12.881c7.952,0.548 15.853,-1.537 22.694,-5.965c13.635,-8.398 21.688,-21.865 29.387,-35.916l-0,0.018c4.034,-7.043 4.37,-15.9 0.857,-23.273c-2.152,-5.031 -4.102,-10.173 -6.12,-15.278l0.892,-0.808Zm-134.421,48.23c0.186,1.702 -0.302,3.422 -1.328,4.739c-1.025,1.298 -2.504,2.104 -4.084,2.177c-27.806,6.404 -55.63,12.716 -83.47,18.955c-2.707,0.659 -5.514,0.732 -8.254,0.257c-1.833,-0.312 -3.211,-1.995 -3.278,-4.026c-0.068,-2.012 1.21,-3.806 3.008,-4.244c27.773,-6.514 55.578,-12.863 83.401,-19.048c4.489,-1.043 9.246,-2.03 14.004,1.19l0.001,0Zm192.874,-171.164c-0.606,2.214 -1.497,4.318 -2.639,6.257c-2.505,3.001 -5.229,5.782 -8.154,8.307c-18.61,17.016 -36.363,35.111 -53.189,54.192c-4.623,5.014 -9.515,9.716 -14.659,14.089c-0.924,0.805 -3.244,-0.275 -4.909,-0.476c0.202,-1.812 0.337,-3.659 0.639,-5.434c0,-0.44 0.572,-0.786 0.891,-1.116c23.754,-24.316 45.391,-51.12 71.733,-72.343c2.522,-2.031 5.313,-3.715 7.969,-5.562l2.318,2.086Zm-192.607,119.29c-13.163,-4.428 -26.679,-8.252 -39.708,-13.485c-17.467,-7.026 -34.597,-15.077 -51.644,-22.889c-2.874,-1.243 -6.136,-2.744 -5.227,-8.361c5.362,-0.476 10.019,2.031 14.659,3.751c6.169,2.287 11.986,5.58 18.156,7.922c16.273,6.239 32.647,11.984 48.92,18.114c5.245,1.976 10.422,4.245 15.499,6.678c1.867,0.896 1.699,2.653 -0.655,8.27Zm-73.566,-93.988c22.527,21.481 44.934,42.777 67.228,64.24l-0,-0.018c2.638,2.762 4.976,5.855 6.942,9.222c0.404,0.658 -0.689,2.708 -1.462,3.787l0,-0.019c-0.69,0.623 -1.614,0.824 -2.472,0.531c-1.663,-0.877 -3.211,-1.994 -4.623,-3.312c-20.493,-19.211 -40.935,-38.476 -61.344,-57.799c-2.79,-2.653 -5.211,-5.745 -7.162,-9.166c-1.765,-3.038 -0.268,-5.599 2.892,-7.466l0.001,0Zm112.906,203.404c0.286,3.129 1.093,5.032 0.538,6.458c-1.412,3.769 -3.194,7.356 -5.312,10.722c-18.19,28.104 -30.983,59.337 -43.609,90.549c-1.126,2.782 -2.203,5.617 -3.497,8.307c-0.37,0.751 -1.378,1.153 -2.471,2.032c-0.857,-0.843 -2.555,-1.812 -2.522,-2.654c0.135,-2.507 0.656,-4.958 1.513,-7.282c12.306,-33.044 25.099,-65.851 44.853,-94.742c2.488,-3.659 4.741,-7.52 7.145,-11.27c0.202,-0.476 0.774,-0.585 3.362,-2.122l0,0.002Zm-17.938,-13.466c-0.52,1.719 -0.52,4.116 -1.613,5.049c-16.442,14.418 -29.201,32.604 -43.037,49.804c-8.843,11.124 -17.5,22.359 -26.343,33.446l0.016,0.018c-2.353,2.489 -4.824,4.831 -7.43,6.99c0,-3.897 -0.655,-6.239 0,-7.52c3.38,-6.057 7.145,-11.856 11.264,-17.327c13.65,-17.272 27.503,-34.397 41.523,-51.34c4.707,-5.617 9.717,-10.905 15.013,-15.863c2.588,-2.031 5.362,-3.751 8.287,-5.16l2.32,1.903Zm-56.351,-215.24c6.169,10.081 12.742,19.925 18.441,30.318c10.793,19.631 21.081,39.593 31.555,59.336l0.017,-0c0.504,0.841 0.824,1.81 0.907,2.817c0,0.897 -0.285,2.397 -0.823,2.616c-1.127,0.476 -3.177,0.878 -3.614,0.274c-3.615,-5.25 -7.146,-10.611 -10.356,-16.173c-12.02,-21.041 -24.023,-42.192 -36.043,-63.454c-1.614,-2.451 -2.908,-5.159 -3.833,-8.013c-0.152,-2.323 0.084,-4.647 0.706,-6.88l3.043,-0.841Zm259.799,235.638c-14.542,-12.844 -30.294,-24.005 -46.97,-33.3c-6.977,-4.062 -14.122,-7.739 -21.065,-11.838l-0,0.019c-2.454,-1.354 -4.657,-3.202 -6.505,-5.434c-0.925,-1.684 -1.01,-3.751 -0.253,-5.526c1.211,-1.262 2.942,-1.738 4.556,-1.262c20.526,12.863 40.952,25.907 61.276,39.117l-0,0.019c3.547,2.415 6.707,5.434 9.397,8.928c0.942,1.062 -0.1,4.026 -0.437,9.277l0.001,-0Zm-39.388,62.98c-5.245,-2.525 -6.993,-8.088 -9.531,-12.496c-11.499,-20.951 -24.544,-40.838 -39.019,-59.482c-3.042,-3.879 -6.203,-7.611 -9.146,-11.545c-1.293,-1.482 -2.269,-3.238 -2.874,-5.159c-0.252,-1.099 0.723,-2.781 1.513,-3.806c0.824,-0.439 1.782,-0.439 2.589,0c1.563,1.08 2.976,2.378 4.22,3.879c19.215,23.602 36.395,49.054 51.359,76.057c2.287,3.714 4.674,7.556 0.892,12.551l-0.003,0.001Zm-67.464,-75.514c6.708,6.916 12.558,14.728 17.417,23.274c13.6,21.26 23.72,44.679 34.43,67.733c0.706,1.849 0.857,3.879 0.436,5.836c0,0.714 -2.875,1.776 -3.177,1.447l-0.017,-0.019c-2.202,-2.488 -4.136,-5.269 -5.732,-8.27c-5.077,-10.246 -9.818,-20.675 -14.777,-31.013c-7.212,-15.368 -15.819,-29.933 -25.705,-43.435c-1.798,-2.305 -3.244,-4.903 -4.27,-7.703c-0.487,-1.464 0.572,-3.567 1.395,-7.849l0,-0.001Zm37.472,-94.755c9.381,-5.307 18.846,-5.746 27.924,-7.502c17.046,-3.129 34.194,-5.709 51.325,-8.526c0.455,0 0.925,-0.184 1.379,-0.22c2.437,-0.256 4.708,0 5.732,2.964c1.026,2.964 -0.941,5.16 -4.639,6.239l-0,0.018c-2.707,0.787 -5.464,1.409 -8.238,1.866c-21.771,3.441 -43.54,6.88 -65.295,10.339c-1.849,0.383 -3.749,0.182 -5.48,-0.587c-1.16,-0.695 -1.699,-2.817 -2.707,-4.592l-0.001,0.001Zm-163.255,5.892c-7.632,3.129 -14.608,2.251 -21.401,1.317c-17.534,-2.434 -35,-5.251 -52.5,-7.959c-2.304,-0.256 -4.59,-0.805 -6.775,-1.628c-1.059,-0.476 -2.589,-2.689 -2.32,-3.129c0.74,-1.536 2.303,-3.659 3.497,-3.659c7.884,-0 15.803,0.274 23.636,1.244c15.702,1.902 31.354,4.281 47.022,6.586l0.017,0.019c2.286,0.238 4.522,1.006 6.54,2.214c1.143,0.695 1.428,2.964 2.286,4.995l-0.002,0Zm164.719,30.609c2.487,-2.873 3.564,-5.178 4.707,-5.215c4.186,-0.256 8.389,0.092 12.491,1.025c19.904,5.727 40.195,9.807 60.673,12.185c4.253,0.44 9.835,-0.493 11.987,5.49c1.176,3.129 -3.767,4.464 -13.164,3.403c-25.973,-3.11 -51.644,-8.764 -76.691,-16.888l-0.003,0Zm-112.011,185.473c-3.649,-1.006 -3.985,-4.062 -3.615,-7.208c1.412,-11.601 2.908,-23.182 4.472,-34.782c2.69,-20.126 5.446,-40.253 8.271,-60.362c0.756,-3 1.715,-5.927 2.874,-8.782c1.817,3.659 3.162,5.178 3.212,6.751c0.235,4.557 0.084,9.148 -0.437,13.668c-2.488,19.138 -5.279,38.258 -7.885,57.359c-1.025,7.556 -1.781,15.149 -2.875,22.669c-0.42,3.971 -0.134,8.325 -4.017,10.685l-0,0.002Zm98.898,-158.465c2,1.024 3.933,2.25 5.749,3.622c14.34,12.771 28.982,25.451 41.254,40.874c6.406,8.051 13.23,15.607 19.619,23.695c0.89,1.647 1.16,3.604 0.723,5.434c-0.404,2.031 -3.766,1.903 -5.968,-0.274c-2.202,-2.177 -4.018,-4.209 -5.918,-6.458c-4.404,-5.234 -8.776,-10.485 -13.113,-15.809c-9.144,-11.435 -19.399,-21.79 -30.579,-30.885c-4.472,-3.586 -8.608,-7.812 -12.675,-11.874c-1.75,-1.702 -1.581,-2.635 0.907,-8.325l0.001,-0Zm-92.327,-125.37c-4.707,-0.714 -4.623,-4.116 -5.027,-7.026c-1.63,-12.076 -3.177,-24.17 -4.824,-36.227l0.017,-0c-3.312,-21.114 -7.851,-41.972 -13.567,-62.446c-1.783,-6.86 -3.38,-13.704 -0.925,-21.571c1.294,1.024 2.875,1.591 3.01,2.525c5.026,21.699 10.439,43.308 14.693,65.171c3.278,16.889 5.127,34.105 7.397,51.215l0,-0.019c0.067,2.817 -0.185,5.636 -0.774,8.38l0,-0.002Zm-43.002,122.273c-1.95,4.94 -2.186,7.154 -3.295,8.032c-4.556,3.532 -9.263,6.861 -14.122,9.899c-20.627,12.935 -41.372,25.597 -60.535,41.057c-0.807,0.457 -1.697,0.714 -2.605,0.714c-0.437,0.055 -0.875,-0.11 -1.177,-0.457c-0.437,-0.806 -1.211,-2.068 -0.942,-2.562l-0.016,-0c1.025,-2.195 2.42,-4.171 4.101,-5.818c9.045,-7.191 17.988,-14.619 27.486,-21.042c13.08,-8.8 26.629,-16.833 40.162,-24.974l0.017,-0c3.564,-1.811 7.212,-3.44 10.928,-4.849l-0.002,0Zm211.938,-125.711c-1.294,3.458 -1.514,5.782 -2.673,6.752c-2.286,1.701 -4.741,3.11 -7.329,4.208c-19.535,9.55 -39.137,19.082 -58.824,28.579c-1.613,0.988 -3.344,1.776 -5.144,2.305c-1.345,0.129 -2.672,-0.439 -3.58,-1.536c-0.572,-1.281 -0.487,-2.799 0.202,-4.026c1.58,-1.848 3.445,-3.403 5.514,-4.556c21.165,-11.855 43.003,-22.284 65.346,-31.232c2.152,-0.385 4.321,-0.548 6.49,-0.494l-0.002,0Zm-20.679,-26.202c-1.126,1.976 -1.832,4.63 -3.447,5.837c-20.711,15.607 -41.574,30.756 -62.403,46.089c-0.369,0.311 -0.773,0.585 -1.176,0.823c-2.101,1.025 -4.153,2.379 -6.455,0.366c-1.716,-1.5 -0.774,-4.775 2.554,-7.209c19.703,-14.418 39.44,-28.798 59.193,-43.088c3.093,-1.958 6.304,-3.696 9.599,-5.215l2.135,2.397Zm-182.316,-75.254c1.211,3.183 2.185,6.458 2.875,9.807c1.58,18.424 7.312,35.696 11.616,53.336c2.874,11.234 4.623,22.797 6.573,34.342c0.437,2.525 -0.572,5.38 -1.211,10.612c-2.354,-3.623 -3.984,-5.032 -4.185,-6.66c-3.245,-25.322 -11.886,-49.143 -17.215,-73.879l-0,0.018c-1.144,-7.007 -1.748,-14.088 -1.799,-21.206c0.084,-1.207 1.311,-2.469 3.345,-6.367l0.001,-0.003Zm73.196,-4.19c2.691,5.379 1.211,10.173 -0.689,15.332c-5.161,14.107 -10.238,28.287 -14.743,42.65l-0,0.018c-3.716,10.959 -5.867,22.486 -6.372,34.16c-0.117,2.525 -0.639,4.995 -1.513,7.337c-0.404,1.153 -1.816,1.903 -2.875,2.836c-1.009,-1.446 -2.874,-2.964 -2.874,-4.318l-0,0.018c0.555,-11.619 2.236,-23.127 4.993,-34.361c6.085,-22.028 14.138,-43.362 24.073,-63.673l0,0.001Zm2.522,266.524c2.068,11.271 3.38,20.236 5.43,29c4.304,18.736 8.927,37.288 13.483,55.861c0.941,3.878 2.875,7.684 -0.976,12.203c-1.21,-1.152 -3.076,-2.03 -3.497,-3.439c-2.604,-8.143 -5.312,-16.303 -7.178,-24.645c-3.766,-16.76 -7.06,-33.63 -10.389,-50.498l0,0.037c-0.774,-3.441 -1.092,-6.972 -0.941,-10.503c0.235,-2.085 1.916,-3.988 4.068,-8.013l0,-0.003Zm-157.621,-68.61c-3.699,0 -7.431,0.22 -11.096,0c-0.924,0 -2.269,-1.994 -2.353,-3.129l-0,0.019c0.101,-1.446 0.773,-2.763 1.849,-3.605c1.227,-0.712 2.589,-1.079 3.968,-1.079c15.752,-1.555 31.554,-3.312 47.289,-4.428l-0,-0.018c5.53,-0.073 11.044,0.439 16.491,1.537c0.807,-0 1.95,2.287 1.832,3.403c-0.117,1.116 -1.462,2.251 -2.353,3.129c-0.253,0.275 -0.891,0.256 -1.345,0.275c-18.089,1.243 -36.195,2.488 -54.282,3.713l-0,0.183Zm198.993,155.483c-1.547,-2.251 -2.875,-4.648 -3.985,-7.191c-6.741,-21.114 -14.777,-41.735 -24.006,-61.697c-0.874,-1.774 -1.194,-3.805 -0.924,-5.781c0.285,-1.464 2.034,-2.562 3.967,-4.739c7.867,17.583 16.004,33.483 21.518,50.736c2.438,7.685 5.027,15.295 7.28,23.017c0.773,2.654 -0,5.032 -3.85,5.654l-0,0.001Zm-41.909,-249.161c-1.262,-3.878 -2.321,-5.378 -2.001,-6.239l-0.016,-0c1.142,-3.915 2.571,-7.721 4.303,-11.362c9.583,-19.101 20.594,-37.288 32.916,-54.394c0.823,-1.245 1.849,-2.305 3.043,-3.129c0.79,-0.421 1.731,-0.421 2.521,0c0.723,0.604 1.144,1.555 1.127,2.561c-0.37,2.434 -1.177,4.776 -2.387,6.862c-13.499,18.845 -25.402,38.953 -35.573,60.122c-1.211,1.94 -2.521,3.806 -3.933,5.581l-0,-0.002Zm74.337,83.121c3.311,-2.891 7.648,-4.044 11.818,-3.111c17.215,1.245 34.665,1.372 51.441,6.679c2.102,1.116 4.035,2.58 5.733,4.336c-1.379,1.683 -2.102,3.128 -3.177,3.715c-1.329,0.42 -2.741,0.42 -4.069,-0c-12.356,-2.91 -24.914,-4.666 -37.539,-5.27c-6.523,-0.585 -13.012,-1.555 -19.45,-2.91c-1.228,-0.31 -2.27,-1.628 -4.758,-3.439l0.001,-0Zm-93.42,89.378c1.379,3.751 2.421,7.649 3.127,11.619c1.866,20.766 3.446,41.569 4.909,62.446c-0,1.372 -1.665,2.927 -2.875,4.72c-4.354,-5.397 -4.421,-11.216 -4.539,-16.668c-0.336,-18.37 -0.942,-36.667 -4.959,-54.615c-0.505,-3.037 -0.219,-3.128 4.337,-7.501l-0,-0.001Zm21.958,-244.589c1.327,1.244 1.832,1.501 1.915,1.867c0.455,1.408 0.673,2.89 0.622,4.372c-0.52,3.477 -1.26,6.917 -2.168,10.302c-5.262,19.211 -10.557,38.476 -15.719,57.396c-3.732,0.402 -3.782,-2.122 -3.564,-3.843c0.976,-6.989 2.119,-13.96 3.447,-20.894c3.816,-16.851 8.994,-33.318 15.467,-49.2Zm-76.778,72.839c-1.328,-1.097 -2.505,-2.378 -3.53,-3.805c-7.666,-13.795 -15.214,-27.701 -22.78,-41.533c-1.865,-3.403 -2.555,-6.404 1.462,-8.49c9.836,9.368 21.805,33.044 24.848,53.827l-0,0.001Zm138.59,44.095c9.129,-6.989 20.376,-8.087 31.017,-10.831c4.708,-1.226 9.616,-4.63 14.609,-0.842c0.454,1.207 0.353,2.562 -0.269,3.678c-0.605,1.116 -1.664,1.866 -2.858,1.994c-12.541,3.659 -25.083,7.209 -37.674,10.557c-2.471,0.604 -4.522,-0.659 -4.825,-4.556Zm-32.126,5.049c4.069,2.617 7.246,6.606 9.011,11.381l-0.925,0.841c-4.32,-2.543 -7.279,-7.19 -7.935,-12.496l-0.151,0.274Zm-11.685,-9.33l11.684,9.367l0,-0.402l-11.482,-9.184l-0.202,0.219Z" style="fill:#f4924c;fill-rule:nonzero;"/></g></svg>