<?xml version="1.0" encoding="utf-8"?>
<!-- Generator: Adobe Illustrator 27.7.0, SVG Export Plug-In . SVG Version: 6.00 Build 0)  -->
<svg version="1.1" id="Layer_1" xmlns="http://www.w3.org/2000/svg" xmlns:xlink="http://www.w3.org/1999/xlink" x="0px" y="0px"
	 viewBox="0 0 12.4 539.8" style="enable-background:new 0 0 12.4 539.8;" xml:space="preserve">
<style type="text/css">
	.st0{clip-path:url(#SVGID_00000106848653413499503630000000984463352683881637_);}
	.st1{fill:#2E4529;}
	.st2{fill:#F5914D;}
	.st3{clip-path:url(#SVGID_00000126318687616012210370000005048806265914361516_);}
</style>
<g>
	<defs>
		<rect id="SVGID_1_" x="-0.2" y="-0.5" width="12.6" height="541"/>
	</defs>
	<clipPath id="SVGID_00000005969859760519337050000011431158993283074223_">
		<use xlink:href="#SVGID_1_"  style="overflow:visible;"/>
	</clipPath>
	<g style="clip-path:url(#SVGID_00000005969859760519337050000011431158993283074223_);">
		<path class="st1" d="M10.6,10.8L9.8,7C9.4,6.4,8.9,6.3,8.3,6.4C8,5.3,8,4.4,8.3,3.7C8.2,3.9,9.5,3.8,9.8,3.1
			c0.1-0.2,0.6-2.3,0.7-3.2C10.6-1.1,10.6,10.8,10.6,10.8"/>
		<path class="st1" d="M10.6,26l-0.7-3.7c-0.4-0.6-0.9-0.7-1.6-0.6c-0.3-1.1-0.3-2,0-2.7c-0.1,0.2,1.1,0.2,1.5-0.6
			c0.1-0.2,0.6-2.3,0.7-3.2C10.6,14.1,10.6,26,10.6,26"/>
		<path class="st1" d="M10.6,56.9l-0.7-3.7c-0.4-0.6-0.9-0.7-1.6-0.6c-0.3-1.1-0.3-2,0-2.7C8.2,50,9.5,50,9.8,49.2
			C9.9,49,10.4,47,10.5,46C10.6,45.1,10.6,56.9,10.6,56.9"/>
		<path class="st1" d="M10.6,41.3l-0.7-3.7C9.4,37,8.9,36.9,8.3,37c-0.3-1.1-0.3-2,0-2.7c-0.1,0.2,1.1,0.2,1.5-0.6
			c0.1-0.2,0.6-2.3,0.7-3.2C10.6,29.5,10.6,41.3,10.6,41.3"/>
		<path class="st2" d="M1.3,51.9L2,55.7c0.4,0.6,0.9,0.7,1.6,0.6c0.3,1.1,0.3,2,0,2.7c0.1-0.2-1.1-0.2-1.5,0.6
			c-0.1,0.2-0.6,2.3-0.7,3.2C1.2,63.8,1.2,51.9,1.3,51.9"/>
		<path class="st2" d="M1.3,21.7L2,25.4c0.4,0.6,0.9,0.7,1.6,0.6c0.3,1.1,0.3,2,0,2.7c0.1-0.2-1.1-0.2-1.5,0.6
			c-0.1,0.2-0.6,2.3-0.7,3.2C1.2,33.6,1.2,21.7,1.3,21.7"/>
		<path class="st2" d="M1.3,37.3L2,41c0.4,0.6,0.9,0.7,1.6,0.6c0.3,1.1,0.3,2,0,2.7C3.6,44.2,2.4,44.2,2,45
			c-0.1,0.2-0.6,2.3-0.7,3.2C1.2,49.2,1.2,37.3,1.3,37.3"/>
		<path class="st2" d="M1.3,6.5L2,10.2c0.4,0.6,0.9,0.7,1.6,0.6c0.3,1.1,0.3,2,0,2.7c0.1-0.2-1.1-0.2-1.5,0.6
			c-0.1,0.2-0.6,2.3-0.7,3.2C1.2,18.4,1.2,6.5,1.3,6.5"/>
		<path class="st1" d="M5.2,171.8c-0.1,0.5-0.2,1.1-0.3,1.6c0,0.1,0,0.2,0,0.3c0.1,0.5,0.2,1,0.3,1.5c0.1,0.4,0.2,0.6,0.3,0.6h0.4
			c0.2,0,0.3,0,0.5,0c0.2,0,0.3,0.1,0.4,0.1l0,0.1c0,0.2,0.1,0.2,0.1,0.2l0.1,0c0.1,0.4,0.2,0.8,0.3,1.1l0,0.1
			c0,0.2,0.1,0.4,0.1,0.6c0,0.1,0,0.2,0.1,0.2c0.1,0.2,0.1,0.4,0.1,0.6c0,0.2,0,0.4,0.1,0.4c0,0.1,0.1,0.2,0.1,0.1
			c0,0,0.1,0.1,0.1,0.1c0,0,0.1,0,0.1,0c0,0,0.1,0,0.1,0c0.1,0,0.3,0,0.4,0c0.2,0,0.3,0,0.5,0c0.2,0,0.3,0.3,0.4,0.8
			c0,0.1,0,0.1,0.1,0.2c0.1,0.5,0,0.9-0.1,1.4l0,0.2l-0.1,0.1c-0.1,0.4-0.3,0.5-0.4,0.5c-0.1,0-0.1,0-0.2,0c-0.2,0-0.4,0-0.6,0
			c-0.1,0-0.2,0-0.3,0.1c-0.1,0-0.1,0.2-0.2,0.4c-0.1,0.3-0.1,0.6-0.2,0.8c0,0-0.1,0.1-0.1,0.2c-0.1,0.7-0.3,1.4-0.5,1.8
			c0,0-0.1,0.1-0.1,0.1c-0.1,0.1-0.1,0.1-0.2,0.1c-0.1-0.3-0.2-0.2-0.3-0.1v0.1c-0.1,0-0.2,0-0.2,0c-0.2,0-0.4,0-0.6,0
			c-0.1,0-0.3,0.2-0.3,0.6c-0.1,0.4-0.2,0.8-0.3,1.2c0,0.1-0.1,0.3-0.1,0.5c0.1,0.6,0.2,1.2,0.4,1.8c0.1,0.4,0.2,0.6,0.3,0.5
			c0.2,0,0.4,0,0.6,0c0.1,0,0.3,0,0.4,0c0.3,0.1,0.5,0.4,0.7,1.1c0.1,0.2,0.1,0.5,0.2,0.7c0.1,0.4,0.2,0.9,0.3,1.3
			c0.1,0.3,0.1,0.4,0.2,0.4c0.1,0,0.3,0.1,0.4,0.1c0.2,0,0.4,0,0.6,0c0.2,0,0.3,0.1,0.4,0.5c0,0.1,0,0.2,0.1,0.3
			c0.1,0.7,0.1,1.6-0.1,2c-0.1,0.1-0.1,0.2-0.2,0.3c0,0.1-0.1,0.1-0.1,0.1c-0.3,0-0.6,0-1,0c-0.1,0-0.1,0-0.2,0.1
			c-0.1,0.1-0.2,0.1-0.2,0.4c-0.1,0.1-0.1,0.2-0.1,0.4c0,0.1-0.1,0.1-0.1,0.2c-0.1,0.6-0.2,1-0.3,1.5c-0.1,0.5-0.2,0.8-0.4,0.9
			c-0.1,0.1-0.3,0.1-0.4,0.1c-0.3,0-0.6,0-0.8,0c-0.1,0-0.2,0.1-0.2,0.4c-0.1,0.5-0.2,1-0.3,1.5c0,0.1-0.1,0.3-0.1,0.5
			c0.1,0.6,0.2,1.1,0.3,1.6c0.1,0.4,0.2,0.6,0.4,0.6s0.3,0,0.5,0s0.3,0,0.5,0.1c0.3,0.1,0.5,0.4,0.7,1.2c0.1,0.6,0.3,1.2,0.4,1.9
			c0.1,0.4,0.2,0.6,0.3,0.6c0.1,0,0.1,0,0.2,0c0.2,0,0.4,0,0.6,0c0.1,0,0.2,0,0.3,0.1c0.1,0,0.2,0.1,0.2,0.4
			c0.1,0.2,0.1,0.5,0.1,0.7c0.1,0.4,0.1,0.8,0,1.1c-0.1,0.5-0.2,0.9-0.4,0.9c-0.1,0-0.1,0-0.2,0c-0.3,0-0.5,0-0.8,0
			c-0.2,0-0.3,0.2-0.4,0.7c-0.1,0.6-0.2,1.1-0.3,1.6c-0.2,0.8-0.4,1.3-0.7,1.4c-0.2,0.1-0.4,0-0.6,0.1c-0.1,0-0.2,0-0.3,0
			c-0.2,0-0.3,0.2-0.4,0.6c-0.1,0.6-0.3,1.2-0.4,1.6c-0.2,0-0.4,0-0.7,0c-0.4,0-0.7-0.1-1.1-0.1c-0.2,0-0.4,0.1-0.5,0
			c0,0-0.1,0-0.2,0c0-0.1,0-0.2,0-0.3c0-0.5,0.1-0.8,0.2-1c0.1-0.1,0.1-0.1,0.2-0.1c0.3,0,0.6,0,0.9,0c0.1,0,0.2,0,0.2,0
			c0.1,0,0.2-0.1,0.3-0.5c0.1-0.5,0.2-0.9,0.3-1.4c0.1-0.2,0.1-0.5,0.2-0.8c0.2-0.7,0.4-1,0.6-1.1c0.1,0,0.3,0,0.4-0.1
			c0.3,0,0.5-0.1,0.8-0.1c0.1,0,0.2-0.1,0.2-0.4c0.1-0.6,0.2-1.1,0.3-1.5c0.1-0.2,0.1-0.4,0-0.6c-0.1-0.6-0.3-1.2-0.4-1.8
			c-0.1-0.3-0.1-0.4-0.2-0.4c-0.3,0-0.6,0-0.9,0c-0.1,0-0.2,0-0.2,0c-0.2-0.1-0.4-0.3-0.5-0.9c-0.1-0.4-0.2-0.8-0.3-1.2
			c-0.1-0.4-0.2-0.8-0.2-1.2c-0.1-0.2-0.1-0.4-0.2-0.4c-0.1,0-0.2,0-0.3,0c-0.2,0-0.5,0-0.7,0c-0.1,0-0.2-0.1-0.3-0.1
			c0,0-0.1-0.1-0.1-0.2c-0.2-0.3-0.3-0.7-0.3-1.3c0-0.6,0.1-1.1,0.2-1.4c0-0.1,0.1-0.2,0.2-0.2c0.2,0,0.4-0.1,0.5-0.1
			c0.2,0,0.4,0,0.6,0c0.2,0,0.3-0.2,0.4-0.8c0.1-0.6,0.2-1.1,0.3-1.6c0.1-0.5,0.3-0.9,0.5-1.1c0.1-0.1,0.2-0.1,0.3-0.2
			c0.2,0,0.4,0,0.6,0c0.2,0,0.4-0.1,0.6-0.1h0v-0.1c0.2-0.7,0.3-1.4,0.5-2.1c0-0.3-0.1-0.6-0.2-0.9c-0.1-0.4-0.2-0.7-0.2-1
			c-0.1-0.4-0.2-0.5-0.3-0.5c-0.3,0-0.5,0-0.8,0c-0.1,0-0.3-0.1-0.4-0.1c-0.2-0.1-0.3-0.4-0.4-0.8c-0.1-0.2-0.1-0.5-0.2-0.8
			c-0.1-0.5-0.2-1-0.3-1.5c-0.1-0.4-0.2-0.5-0.3-0.5c-0.3,0-0.6,0-1,0c0,0-0.1,0-0.2,0c-0.2-0.1-0.4-0.7-0.5-1.4c0-0.1,0-0.1,0-0.2
			c0-0.6,0.2-1.2,0.3-1.4c0.1-0.1,0.2-0.1,0.3-0.1c0.3,0,0.6,0,0.9,0c0.3,0,0.2,0.1,0.4-0.7c0.1-0.4,0.2-0.9,0.3-1.3
			c0-0.1,0-0.2,0.1-0.4c0.2-0.8,0.4-1.3,0.8-1.4c0.1,0,0.1,0,0.2,0c0.2,0,0.5,0,0.7,0c0.2,0,0.3-0.2,0.4-0.7
			c0.1-0.5,0.2-0.9,0.3-1.4c0-0.1,0-0.3,0-0.4c-0.1-0.6-0.3-1.1-0.4-1.7c-0.1-0.2-0.1-0.4-0.2-0.4c-0.1,0-0.1-0.1-0.2-0.1
			c-0.2,0-0.5,0-0.7,0c-0.3,0-0.6-0.2-0.8-0.9c-0.2-0.8-0.3-1.6-0.5-2.4c-0.1-0.3-0.2-0.5-0.3-0.5c-0.3,0-0.6,0-0.8,0
			c-0.1,0-0.2,0-0.3-0.1c-0.2-0.1-0.3-0.4-0.4-0.9c-0.1-0.5-0.1-1.2,0-1.6c0.1-0.3,0.2-0.5,0.3-0.5c0.1,0,0.2-0.1,0.4-0.1
			c0.3,0,0.5,0,0.8,0c0.1,0,0.2-0.2,0.3-0.6c0.1-0.2,0.1-0.5,0.1-0.7c0.1-0.4,0.2-0.8,0.2-1.1c0.2-0.9,0.5-1.4,0.8-1.4
			c0.3,0,0.6,0,0.8,0c0.1,0,0.2,0,0.3,0c0.1-0.4,0.2-0.7,0.2-1.1c0.1-0.4,0.2-0.7,0.2-1.1c0-0.1,0-0.2-0.1-0.4
			c-0.1-0.5-0.2-1-0.3-1.5c-0.1-0.4-0.2-0.5-0.3-0.5c-0.2,0-0.4,0-0.6,0c-0.1,0-0.2,0-0.3,0c-0.3,0-0.6-0.5-0.8-1.4
			c-0.1-0.5-0.2-1-0.3-1.5c0-0.1-0.1-0.3-0.1-0.4c0-0.2-0.1-0.3-0.2-0.3c-0.2,0-0.4,0-0.5,0c-0.2,0-0.4,0-0.6-0.1
			c-0.3-0.1-0.4-0.7-0.5-1.5c0-0.3,0-0.5,0-0.8c0.1-0.4,0.2-0.7,0.4-0.8c0.1-0.1,0.2-0.1,0.3-0.1c0.2,0,0.4,0,0.6,0c0,0,0.1,0,0.2,0
			c0.2,0.1,0.3-0.2,0.4-0.7c0.1-0.6,0.2-1.1,0.3-1.7c0.2-0.8,0.4-1.2,0.7-1.3c0.3,0,0.6,0,1,0c0.2,0,0.3-0.2,0.4-0.7
			c0.1-0.5,0.2-1,0.4-1.5c0-0.2,0-0.4-0.1-0.5c-0.1-0.5-0.2-0.9-0.3-1.4c-0.1-0.4-0.2-0.6-0.3-0.6c-0.3,0-0.5,0-0.8,0
			c-0.1,0-0.2,0-0.3-0.1c-0.2-0.1-0.4-0.4-0.6-1c-0.1-0.4-0.1-0.7-0.2-1.1c-0.1-0.4-0.2-0.9-0.3-1.3c0-0.2-0.1-0.3-0.2-0.3
			c-0.1,0-0.2-0.1-0.3-0.1c-0.3,0-0.6,0-0.8,0c-0.2,0-0.4-0.4-0.5-1c-0.1-0.4-0.1-0.7,0-1.1c0.1-0.6,0.2-1,0.5-1.1
			c0.2,0,0.4,0,0.6,0c0.2,0,0.4,0,0.5,0c0.1,0,0.2-0.1,0.2-0.4c0.1-0.3,0.1-0.6,0.2-0.9c0.1-0.6,0.2-1.2,0.4-1.6
			c0-0.1,0.1-0.3,0.1-0.4c0,0,0.1,0,0.1,0c0.1-0.2,0.3-0.3,0.4-0.3c0.2,0,0.4,0,0.6,0c0.1,0,0.3,0,0.4,0c0.1,0,0.2-0.1,0.3-0.4
			c0.1-0.6,0.2-1.1,0.3-1.6c0-0.1,0-0.2,0-0.3c-0.1-0.7-0.3-1.2-0.4-1.9c-0.1-0.3-0.1-0.4-0.2-0.4c-0.1,0-0.2,0-0.3,0
			c-0.3,0-0.5,0-0.8,0c-0.2,0-0.3-0.2-0.5-0.5c-0.2-0.6-0.3-1.4-0.5-2.1c-0.2-0.9-0.2-1-0.6-1c-0.2,0-0.4,0-0.6,0
			c-0.1,0-0.3-0.1-0.4-0.1c-0.2-0.1-0.3-0.6-0.3-1.2c0-0.4,0.1-1.3,0.2-1.6c0.1-0.2,0.2-0.3,0.3-0.3c0.2,0,0.4,0,0.6,0
			c0.2,0,0.4,0,0.6-0.1c0.1,0,0.2-0.1,0.2-0.4c0.1-0.4,0.2-0.8,0.3-1.2c0.1-0.4,0.2-0.8,0.3-1.2c0.1-0.4,0.2-0.6,0.4-0.7
			c0.1-0.1,0.2-0.1,0.4-0.1c0.3,0,0.5,0,0.8,0c0.2,0,0.3-0.2,0.4-0.6c0.1-0.6,0.2-1.1,0.4-1.6c0-0.2-0.1-0.4-0.1-0.5
			c-0.1-0.4-0.2-0.8-0.3-1.3c-0.1-0.5-0.2-0.7-0.4-0.7H5.9c-0.2,0-0.3,0-0.5,0c-0.3,0-0.6-0.5-0.8-1.4c-0.1-0.5-0.2-1-0.3-1.6
			c0-0.2-0.1-0.3-0.1-0.4C4.1,114.1,4,114,3.9,114H3.6c-0.2,0-0.5,0-0.8,0s-0.4-0.5-0.5-1.2c0-0.3,0-0.5,0-0.8
			c0.1-0.8,0.3-1.2,0.6-1.1c0.3,0.1,0.6,0.1,1,0c0.1,0,0.2-0.2,0.3-0.5c0.1-0.6,0.2-1.2,0.4-1.8c0.1-0.3,0.1-0.7,0.2-0.9
			c0.1,0,0.2,0,0.2-0.3c0.1,0,0.2-0.1,0.3-0.1c0,0.2,0.1,0.2,0.1,0c0.2,0,0.3-0.1,0.4-0.1c0.2,0,0.3,0,0.5,0c0.1,0,0.2-0.1,0.2-0.3
			c0.1-0.6,0.3-1.2,0.4-1.8c0-0.1,0-0.1,0-0.2c-0.1-0.4-0.2-0.8-0.3-1.2c-0.1-0.2-0.1-0.5-0.2-0.7c-0.1-0.3-0.2-0.4-0.3-0.4
			c-0.3,0-0.6,0-0.9,0c-0.1,0-0.1,0-0.2,0c-0.3,0-0.5-0.4-0.7-1.2c-0.1-0.7-0.3-1.3-0.4-1.9c-0.1-0.4-0.2-0.6-0.3-0.6
			c-0.3,0-0.5,0-0.8,0c-0.1,0-0.2,0-0.3-0.1c-0.2-0.1-0.4-0.5-0.5-1.2c0-0.4,0-0.8,0-1.1c0.1-0.5,0.2-0.7,0.4-0.8
			c0.1,0,0.1-0.1,0.2-0.1c0.2,0,0.3,0.1,0.5,0c0.2,0,0.4-0.1,0.5-0.1c0.1,0,0.2-0.1,0.2-0.4c0-0.1,0-0.2,0.1-0.2
			c0.1-0.6,0.3-1.2,0.4-1.9c0.1-0.7,0.3-1,0.6-1.1c0.1,0,0.3-0.1,0.4-0.1c0.2,0,0.5,0,0.7,0c0.1,0,0.2-0.1,0.3-0.4
			c0.1-0.4,0.2-0.7,0.3-1.1C6.9,90.2,7,89.9,7,89.6c-0.1-0.6-0.3-1.2-0.4-1.8c-0.1-0.3-0.2-0.4-0.3-0.4c-0.1,0-0.1,0-0.2,0
			c-0.3,0-0.6,0.1-0.9-0.1c0-0.1-0.1-0.1-0.1-0.1c-0.2-0.2-0.4-0.8-0.6-1.4c0-0.1,0-0.2-0.1-0.2c-0.1-0.4-0.2-0.9-0.3-1.3
			c0-0.3-0.1-0.5-0.2-0.6l0,0.1c-0.3,0-0.6,0-0.9,0c-0.1,0-0.3,0-0.4-0.1c-0.1,0-0.2-0.2-0.2-0.3c-0.3-0.7-0.2-2.1,0.1-2.5
			c0.1-0.1,0.2-0.2,0.2-0.2c0.1,0,0.3,0,0.4-0.1c0.2,0,0.5,0,0.7-0.1c0.1,0,0.3-0.2,0.3-0.7s0.2-0.8,0.3-1.2c0-0.2,0.1-0.3,0.1-0.5
			c0.2-0.8,0.4-1.2,0.8-1.2c0.3,0,0.6,0,0.8,0c0.1,0,0.2,0,0.2-0.1c0,0.1,0.1,0,0.1-0.1c0.2-0.6,0.4-1.6,0.5-2.2
			c0-0.3-0.1-0.5-0.2-0.8c-0.1-0.4-0.2-0.8-0.3-1.2C6.5,72.1,6.4,72,6.3,72c-0.2,0-0.3,0-0.4,0c-0.2,0-0.4,0-0.6,0
			c-0.3,0-0.5-0.5-0.7-1.2c-0.2-0.6-0.3-1.3-0.4-2C4.1,68.5,4,68.3,4,68.3c-0.2,0-0.4,0-0.6,0c-0.2,0-0.3,0-0.5,0
			c-0.2,0-0.4-0.5-0.5-1.2c-0.1-0.5,0-1,0.1-1.4c0.1-0.3,0.2-0.5,0.4-0.6c0.2,0,0.3,0,0.5,0c0.2,0,0.4,0,0.7,0
			c0.1,0,0.2-0.1,0.2-0.4c0.1-0.4,0.2-0.8,0.3-1.2c0.1-0.3,0.2-0.7,0.2-1c0.2-0.7,0.4-1,0.7-1c0.3,0,0.6,0,0.8,0
			c0.4,0,0.4-0.2,0.5-0.9c0-0.2,0.1-0.5,0.1-0.7c0.1-0.2,0.1-0.5,0.2-0.7c-0.1-0.3-0.1-0.5-0.2-0.8c-0.1-0.3-0.1-0.6-0.2-0.9
			c-0.1-0.4-0.2-0.6-0.3-0.6c-0.1,0-0.2,0-0.3,0c-0.2,0-0.5,0-0.7,0c-0.3,0-0.6-0.5-0.8-1.4c-0.1-0.3-0.1-0.7-0.2-1
			s-0.1-0.6-0.2-0.9C4.1,53.2,4,53,3.9,53c-0.3,0-0.6,0-0.9,0c-0.1,0-0.2,0-0.3,0c-0.2-0.1-0.4-0.6-0.5-1.3c0-0.3,0-0.6,0-0.8
			C2.4,50.4,2.5,50,2.7,50c0.1,0,0.3-0.1,0.4-0.1c0.2,0,0.4,0,0.7,0c0.1,0,0.1,0,0.2,0c0.1,0,0.1-0.1,0.1-0.2
			c0.1-0.2,0.1-0.5,0.2-0.7c0.1-0.5,0.2-1.1,0.3-1.6c0.2-0.7,0.4-1.1,0.6-1.1c0.1,0,0.3,0,0.4,0c0.2,0,0.5,0,0.7,0
			c0.1,0,0.2-0.1,0.3-0.5C6.8,45.1,6.9,44.6,7,44c0-0.1,0-0.2,0-0.3c-0.1-0.5-0.2-1.1-0.3-1.6c-0.1-0.4-0.2-0.6-0.4-0.6
			c-0.3,0-0.6,0-0.9,0c-0.1,0-0.1,0-0.2,0c-0.2-0.1-0.4-0.4-0.6-1c0-0.2-0.1-0.3-0.1-0.5c-0.1-0.6-0.3-1.2-0.4-1.8
			c-0.1-0.3-0.2-0.4-0.2-0.4c-0.3,0-0.6,0-0.9,0c-0.1,0-0.2,0-0.2,0c-0.2-0.1-0.3-0.4-0.4-0.9c-0.1-0.4-0.1-0.8,0-1.3
			c0.1-0.5,0.2-0.8,0.4-0.8c0.1,0,0.2,0,0.4,0c0.3,0,0.5,0,0.8,0c0.1,0,0.2-0.1,0.2-0.3c0.1-0.5,0.2-1,0.3-1.5
			c0.1-0.7,0.3-1.2,0.5-1.6c0.3-0.2,0.6-0.3,1-0.3c0.1,0,0.3,0,0.4,0c0.1,0,0.2-0.1,0.3-0.5c0.1-0.5,0.2-1,0.3-1.4
			c0-0.1,0-0.2,0.1-0.4c-0.1-0.6-0.3-1.2-0.4-1.8c-0.1-0.4-0.2-0.5-0.3-0.5c-0.3,0-0.7,0-1,0c0,0-0.1-0.1-0.1-0.1
			c-0.3-0.2-0.4-0.7-0.6-1.4c-0.1-0.5-0.2-1.1-0.4-1.6c-0.1-0.4-0.2-0.6-0.3-0.6c-0.2,0-0.4,0-0.7,0c-0.1,0-0.2,0-0.4,0
			c-0.2,0-0.3-0.3-0.5-0.7c-0.1-0.5-0.1-0.9,0-1.5c0.1-0.5,0.2-0.9,0.4-0.9c0.1,0,0.3-0.1,0.4-0.1c0.3,0,0.5,0,0.8,0
			c0.1,0,0.2-0.1,0.3-0.5c0.1-0.4,0.2-0.7,0.2-1c0.1-0.4,0.2-0.9,0.3-1.2c0.1-0.5,0.3-0.8,0.5-0.8c0.1,0,0.2-0.1,0.4-0.1
			c0.2,0,0.5,0,0.7,0c0.1,0,0.1,0,0.2,0c0.1,0,0.2-0.2,0.2-0.5c0.1-0.6,0.2-1.1,0.4-1.7c0,0,0-0.1,0-0.2C7,13.2,7,13,6.9,13
			c0-0.2-0.1-0.3-0.1-0.5c0-0.2,0-0.2-0.1-0.2c0-0.1,0-0.1,0-0.2c0-0.4-0.1-0.7-0.2-0.8c-0.1-0.2-0.2-0.2-0.2-0.2
			c-0.3,0-0.6,0-0.9,0C5.3,10.9,5.2,11,5.1,11c-0.3-0.2-0.4-0.8-0.6-1.5C4.4,9,4.4,8.6,4.3,8.1c0-0.2-0.1-0.3-0.1-0.5
			C4.1,7.4,4.1,7.4,4,7.3c-0.2,0-0.4,0-0.6-0.1c-0.2,0-0.4,0-0.6,0c-0.2,0-0.4-0.5-0.5-1.2c0-0.2,0-0.5,0-0.7
			c0.1-0.7,0.3-1.2,0.5-1.2c0.2,0,0.3,0,0.5,0c0.2,0,0.5,0,0.7,0c0.1,0,0.2-0.2,0.3-0.5c0.1-0.6,0.2-1.1,0.3-1.7
			c0-0.1,0-0.1,0.1-0.2C4.8,0.8,5,0.5,5.3,0.4c0.2,0,0.3,0,0.5,0c0.2,0,0.3,0,0.5,0c0.1,0,0.2-0.1,0.3-0.5h1.2
			C7.8,0,7.7,0.2,7.7,0.4C7.6,1,7.4,1.5,7.3,2.1C7.2,2.8,7,3.2,6.8,3.3c-0.1,0-0.2,0.1-0.3,0.1c-0.2,0-0.4,0-0.6,0
			c-0.1,0-0.2,0-0.4,0c-0.1,0-0.1,0.1-0.2,0.3c-0.1,0.5-0.2,1-0.4,1.6C4.9,5.6,4.9,5.8,4.9,6c0.1,0.6,0.3,1.2,0.4,1.8
			c0,0.1,0,0.2,0.1,0.1C5.5,8,5.6,8,5.8,8C6,8,6.2,8,6.4,8c0.1,0,0.2,0.1,0.4,0.1c0,0.1,0.1,0.1,0.1,0.1C7,8.3,7.1,8.6,7.2,8.9
			c0,0.1,0.1,0.3,0.1,0.5c0,0.2,0.1,0.4,0.1,0.5c0,0.1,0,0.3,0.1,0.4c0,0.2,0,0.4,0.1,0.4c0,0.2,0.1,0.4,0.1,0.5
			c0,0.1,0,0.2,0.1,0.2c0,0.1,0.1,0.1,0.1,0.2c0,0.2,0.1,0.2,0.1,0.1c0.2,0.1,0.4,0.1,0.6,0.1c0.2,0,0.3,0,0.5,0
			c0.3,0.1,0.4,0.5,0.5,1.3c0,0.4,0,0.7-0.1,1C9.4,14.6,9.2,15,9,14.9c-0.2,0-0.4,0-0.6,0c-0.1,0-0.3,0-0.4,0
			c-0.1,0-0.2,0.1-0.2,0.4c0,0.1-0.1,0.2-0.1,0.4c-0.1,0.5-0.2,0.9-0.3,1.4c-0.2,0.9-0.4,1.5-0.8,1.5c-0.3,0-0.5,0-0.8,0.1
			c-0.1,0-0.2,0-0.3,0s-0.2,0.1-0.2,0.4c-0.1,0.3-0.3,1.5-0.4,2c0.1,0.7,0.3,1.4,0.4,2c0.1,0.2,0.1,0.3,0.2,0.3c0.1,0,0.2,0,0.3,0
			c0.3,0,0.5,0,0.8,0c0.2,0,0.4,0.3,0.5,0.8c0.1,0.2,0.1,0.4,0.1,0.5c0.1,0.5,0.2,1.1,0.4,1.6c0.1,0.4,0.2,0.6,0.3,0.6
			c0.1,0,0.2,0,0.3,0c0.2,0,0.4,0,0.6,0c0.2,0,0.4,0.1,0.6,0.4c0,0.2,0.1,0.5,0.1,0.7c0.1,0.3,0.1,0.7,0,1c-0.1,0.6-0.2,0.9-0.4,1
			c-0.3,0.1-0.5,0.1-0.8,0.1c-0.1,0-0.2,0-0.3,0c-0.2,0-0.3,0.3-0.4,0.7c-0.1,0.5-0.2,0.9-0.3,1.4c0,0.1-0.1,0.2-0.1,0.3
			c-0.2,0.8-0.4,1.2-0.7,1.2c-0.3,0-0.5,0-0.8,0c-0.4,0-0.4,0-0.7,1c-0.1,0.3-0.1,0.7-0.2,1c-0.1,0.2-0.1,0.4,0,0.6
			C5,37,5.2,37.6,5.3,38.1c0.1,0.2,0.2,0.4,0.2,0.4c0.1,0,0.1,0,0.2,0c0.2,0,0.4,0,0.6,0c0.2,0,0.4,0.1,0.7,0.2
			c0.2,0.4,0.3,0.9,0.5,1.5c0.1,0.4,0.2,0.8,0.3,1.3c0.1,0.4,0.2,0.6,0.3,0.6c0.2,0,0.4,0,0.5,0.1c0.2,0,0.4,0,0.6,0
			c0.2,0,0.4,0.5,0.5,1.2c0,0.1,0,0.2,0,0.3c0,0.3-0.1,0.5-0.1,0.8l0,0.1c-0.1,0.5-0.3,0.7-0.5,0.7c-0.2,0-0.4,0-0.7,0
			c-0.2,0-0.3,0-0.5,0.1c-0.1,0.1-0.2,0.2-0.2,0.5c-0.1,0.4-0.2,0.8-0.3,1.2c-0.1,0.4-0.2,0.8-0.3,1.2C7,48.7,6.9,48.9,6.8,49
			c-0.1,0-0.2,0.1-0.3,0.1c-0.2,0-0.5,0-0.7,0c-0.1,0-0.2,0-0.2,0c-0.1,0-0.1,0.1-0.2,0.3c-0.1,0.5-0.3,1.1-0.4,1.6
			c0,0.1,0,0.2,0,0.4c0,0.1,0,0.2,0,0.2c0.1,0.5,0.2,1.1,0.4,1.6c0.1,0.2,0.1,0.4,0.2,0.4c0.1,0,0.1,0,0.2,0c0.3,0,0.6,0,0.8,0
			c0.3,0,0.5,0.4,0.7,1.1c0.2,0.6,0.3,1.2,0.4,1.9c0,0.4,0.1,0.6,0.2,0.6c0.2,0.2,0.5,0.2,0.7,0.2c0.2,0,0.3,0,0.5,0
			c0.2,0,0.4,0.3,0.5,0.8c0.1,0.6,0.1,1.2-0.1,1.8c-0.1,0.4-0.3,0.6-0.4,0.6c-0.3,0-0.6,0-0.8,0c-0.1,0-0.2,0-0.3,0.1
			c-0.1,0-0.2,0.1-0.2,0.5c-0.1,0.5-0.2,0.9-0.3,1.3c-0.1,0.3-0.2,0.6-0.2,0.9c-0.1,0.4-0.3,0.7-0.4,0.8c-0.1,0.1-0.2,0.1-0.3,0.1
			c-0.3,0-0.6,0-0.8,0c-0.1,0-0.2,0.2-0.3,0.6c-0.1,0.5-0.2,1-0.3,1.5c0,0.1,0,0.2,0,0.2c0,0.1,0,0.2,0.1,0.3c0.1,0.5,0.2,1,0.3,1.6
			C5.3,68.8,5.4,69,5.5,69c0,0,0.1,0,0.1,0c0.2,0,0.4,0,0.6,0s0.4,0,0.6,0.2c0,0.2,0.1,0.2,0.1,0.1c0.1,0.1,0.2,0.2,0.2,0.5
			c0.2,0.5,0.3,1,0.4,1.6c0.1,0.3,0.1,0.6,0.2,0.9c0.1,0.3,0.2,0.5,0.3,0.6c0.1,0,0.2,0.1,0.3,0.1c0.3,0,0.5,0,0.8,0
			c0.2,0,0.4,0.2,0.5,0.7v0.1c0.1,0.6,0.1,1.1,0,1.6l0,0.1c-0.2,0.6-0.4,0.6-0.6,0.6c0,0-0.1,0-0.1,0c-0.2,0-0.5,0-0.8,0.1
			c-0.1,0-0.2,0.2-0.3,0.5c-0.1,0.4-0.2,0.8-0.2,1.2c-0.1,0.5-0.2,0.9-0.3,1.4c-0.1,0.2-0.2,0.4-0.3,0.5c-0.2,0.2-0.4,0.2-0.6,0.2
			c-0.2,0-0.4,0-0.7,0c-0.1,0-0.2,0.1-0.3,0.4c-0.1,0.6-0.3,1.2-0.4,1.8c0,0.1,0,0.2,0,0.2c0,0.1,0.1,0.2,0.1,0.3
			c0,0.2,0,0.2,0.1,0.2c0,0.1,0.1,0.2,0.1,0.3c0,0.2,0,0.2,0.1,0.2c0.1,0.2,0.1,0.4,0.1,0.6c0.1,0.3,0.2,0.4,0.3,0.4
			c0.1,0,0.1,0,0.2,0c0.3,0,0.6,0,0.9,0c0,0,0.1,0,0.1,0c0.2,0.1,0.3,0.4,0.4,0.8c0.1,0.3,0.2,0.7,0.2,1c0.1,0.3,0.1,0.7,0.2,1.1
			C7.7,87.7,7.8,87.9,8,88C8.1,88,8.2,88,8.4,88c0.2,0,0.4,0,0.7,0c0.3,0,0.4,0.5,0.5,1.3c0,0.3,0,0.7,0,1c-0.1,0.5-0.2,0.8-0.4,0.9
			c-0.1,0.1-0.2,0.1-0.3,0.1c-0.2,0-0.5,0-0.7,0c-0.1,0-0.2,0-0.3,0.1c-0.1,0.1-0.2,0.2-0.2,0.5c0,0.2-0.1,0.3-0.1,0.4
			c-0.1,0.7-0.3,1.3-0.5,1.9c-0.1,0.3-0.2,0.5-0.3,0.6c-0.2,0.1-0.3,0.2-0.4,0.2c-0.3,0-0.5,0-0.8,0c-0.1,0-0.2,0.2-0.3,0.6
			C5.1,96,5,96.5,4.9,97c0,0.1,0,0.2,0,0.3c0.1,0.6,0.3,1.2,0.4,1.8c0.1,0.3,0.2,0.5,0.3,0.5c0.2,0,0.4,0,0.7,0
			c0.2,0,0.4,0.1,0.6,0.2c0.1,0.1,0.2,0.3,0.3,0.6c0.1,0.6,0.3,1.2,0.4,1.8c0,0.2,0.1,0.3,0.1,0.5c0.1,0.3,0.2,0.5,0.3,0.6
			c0.1,0,0.2,0,0.4,0c0.2,0,0.4-0.1,0.6,0c0.4,0.1,0.4,0.2,0.6,1.1c0.1,0.6,0,1-0.1,1.4c-0.1,0.4-0.2,0.6-0.4,0.6s-0.3,0-0.5,0
			c-0.1,0-0.1,0-0.2,0c-0.1,0-0.3,0-0.4,0c-0.1,0-0.2,0.2-0.2,0.4c-0.1,0.6-0.3,1.2-0.4,1.9c-0.2,0.9-0.4,1.3-0.8,1.4
			c-0.1,0-0.2,0-0.3,0c-0.2,0-0.4,0-0.6,0c-0.1,0-0.2,0.2-0.3,0.5c-0.1,0.5-0.2,0.9-0.3,1.4c-0.1,0.3-0.1,0.4,0,0.7
			c0.1,0.4,0.2,0.8,0.3,1.2c0.1,0.5,0.2,0.7,0.4,0.7c0.2,0,0.5,0,0.7,0c0.1,0,0.3,0.1,0.4,0.1c0.2,0.1,0.4,0.4,0.5,0.9
			c0.1,0.2,0.1,0.4,0.2,0.7c0.1,0.5,0.2,1,0.3,1.5c0.1,0.2,0.1,0.4,0.2,0.4c0.1,0.1,0.2,0.1,0.3,0.1c0.2,0,0.5,0,0.7,0
			c0.1,0,0.3,0.1,0.4,0.3c0.1,0.3,0.1,0.6,0.2,0.8c0.1,0.3,0.1,0.6,0,0.9c-0.1,0.7-0.3,1.1-0.5,1.1c-0.2,0-0.5,0-0.7,0
			c-0.1,0-0.2,0-0.3,0c-0.1,0-0.2,0.3-0.3,0.7c-0.1,0.4-0.1,0.7-0.2,1.1c-0.1,0.5-0.2,0.9-0.3,1.3c-0.1,0.3-0.2,0.4-0.3,0.5
			c-0.1,0.1-0.3,0.2-0.4,0.2c-0.2,0-0.4,0-0.7,0c-0.1,0-0.2,0-0.2,0.1c-0.1,0-0.1,0.1-0.2,0.3c-0.1,0.5-0.3,1.1-0.4,1.6
			c-0.1,0.2-0.1,0.4,0,0.6c0.1,0.6,0.2,1.1,0.4,1.6c0,0.1,0.1,0.2,0.1,0.2c0.1,0.1,0.2,0.1,0.2,0.1c0.2,0,0.5,0,0.7,0
			c0.2,0,0.3,0.1,0.4,0.1c0.1,0.1,0.2,0.1,0.2,0.2c0,0.1,0.1,0.1,0.1,0.2c0.2,0.8,0.4,1.6,0.6,2.4c0.1,0.5,0.2,0.7,0.4,0.8
			c0.1,0.1,0.2,0.2,0.4,0.2c0.1,0,0.2-0.1,0.3-0.2c0.1,0,0.3,0,0.4,0c0.1,0,0.2,0.2,0.3,0.4c0,0.1,0.1,0.2,0.1,0.4v0.1
			c0.1,0.4,0.1,0.9,0,1.3c-0.1,0.5-0.3,0.9-0.5,1.1c-0.3,0.2-0.1,0-0.1,0c-0.2,0-0.4,0-0.6,0H8.3c-0.1,0-0.1,0-0.2,0
			c-0.2,0-0.4,0.2-0.5,0.9c-0.1,0.6-0.2,1.1-0.4,1.7c-0.2,0.7-0.3,1.1-0.6,1.1c-0.1,0-0.2,0-0.4,0.1c-0.2,0-0.5,0-0.7,0
			c-0.1,0-0.2,0.1-0.3,0.5c-0.1,0.5-0.2,0.9-0.3,1.4c-0.1,0.3-0.1,0.4,0,0.8c0.1,0.4,0.2,0.8,0.2,1.1c0.1,0.5,0.3,0.8,0.4,0.8
			c0,0,0.1,0,0.1,0c0.2,0,0.4,0,0.7,0c0.1,0,0.3,0.1,0.4,0.2c0.2,0.1,0.3,0.4,0.4,0.9c0.1,0.6,0.3,1.2,0.4,1.9
			c0.1,0.5,0.2,0.8,0.4,0.7c0.1,0,0.2,0.1,0.3,0.1c0.2,0,0.3,0,0.5,0c0.1,0,0.2,0,0.3,0c0.2,0.1,0.4,0.6,0.4,1.4
			c0,0.3,0,0.6-0.1,0.8c-0.1,0.5-0.3,0.9-0.5,0.9c-0.3,0-0.6,0-0.9,0c-0.1,0-0.2,0.1-0.4,0.1c-0.1,0.6-0.2,1.1-0.3,1.7
			c-0.1,0.3-0.1,0.6-0.2,0.9c-0.2,0.7-0.4,1.1-0.7,1.1c-0.3,0-0.6,0-0.9,0c-0.1,0-0.1,0-0.2,0c-0.1,0-0.2,0.1-0.2,0.4
			c-0.1,0.6-0.2,1.1-0.4,1.7c0,0.2,0,0.4,0,0.6c0.1,0.5,0.3,1.1,0.4,1.6c0.1,0.2,0.1,0.3,0.2,0.3c0.1,0,0.2,0.1,0.3,0.1
			c0.3,0,0.6,0,0.8,0.1c0.3,0,0.5,0.4,0.6,1c0.1,0.6,0.3,1.1,0.4,1.7c0,0.1,0.1,0.2,0.1,0.4c0.1,0.3,0.2,0.5,0.3,0.5
			c0.2,0,0.4,0,0.6,0c0.1,0,0.3,0,0.4,0c0.3,0,0.4,0.5,0.5,1.3c0,0.2,0,0.4,0,0.6c0,0.6-0.3,1.4-0.5,1.4c-0.2-0.1-0.5,0-0.7,0
			c-0.1,0-0.3,0-0.4,0c-0.1,0-0.2,0.2-0.3,0.6c-0.1,0.7-0.3,1.3-0.4,2c-0.2,0.7-0.4,1-0.6,1.1c-0.1,0-0.3,0-0.4,0
			c-0.2,0-0.4,0-0.6,0C5.5,171.1,5.4,171.3,5.2,171.8"/>
		<path class="st1" d="M28.1,541.2v-94.7c0-22.4,0-44.7,0-67.1c0-12.4,0-24.9,0-37.3v-55.5c0-0.3,0-0.6,0-0.9v-44.5c0-1.6,0-3.3,0-5
			c0-0.2,0-0.5,0-0.7h0.3v305.7H28.1z"/>
		<path class="st1" d="M5,539.9l0-0.2c0-0.1-0.1-0.3-0.1-0.5c0.1-0.8,0.3-1.4,0.5-2.1c0.1-0.2,0.1-0.2,0.2-0.2c0.1,0,0.1,0,0.2,0
			c0.3,0,0.6,0,0.9,0c0.3,0,0.5-0.4,0.6-1.1c0.2-0.7,0.3-1.4,0.5-2.1c0.1-0.3,0.1-0.5,0.2-0.5c0.1,0,0.2,0,0.4-0.1
			c0.2,0,0.4,0,0.6,0c0.1,0,0.2,0,0.3,0c0.2-0.1,0.4-0.5,0.4-1.2c0-0.3,0-0.5,0-0.8c-0.1-0.6-0.2-1-0.4-1.1s-0.4,0-0.6,0
			c-0.1,0-0.2,0-0.4,0c-0.1,0-0.1,0-0.1,0c-0.2,0-0.3-0.2-0.3-0.7c-0.1-0.5-0.2-1-0.3-1.5c-0.1-0.2-0.1-0.5-0.2-0.7
			c-0.2-0.5-0.3-0.8-0.6-0.8c-0.2,0-0.5,0-0.7-0.1c-0.1,0-0.3,0-0.4-0.1c-0.1,0-0.2-0.1-0.2-0.3c-0.1-0.5-0.3-1.1-0.4-1.6
			c-0.1-0.2-0.1-0.4,0-0.6c0.1-0.3,0.1-0.6,0.2-0.8c0.1-0.3,0.2-0.7,0.3-1.1c0.1,0,0.2,0,0.4,0c0.2,0,0.4,0,0.7,0
			c0.2,0,0.3-0.1,0.5-0.2c0.1-0.1,0.2-0.4,0.3-0.7c0.1-0.4,0.2-0.8,0.3-1.2c0-0.1,0-0.2,0.1-0.2l0-0.2c0-0.2,0-0.4,0.1-0.5
			c0-0.1,0.1-0.2,0.1-0.3c0-0.1,0-0.1,0.1-0.1c0.1-0.2,0.2-0.2,0.4-0.2c0.3,0,0.5,0,0.8,0c0.1,0,0.2-0.1,0.4-0.3
			c0.1-0.2,0.1-0.3,0.2-0.6c0.1-0.5,0.1-1.1,0-1.6c-0.1-0.5-0.3-0.8-0.5-0.8c-0.3,0-0.6,0-0.9,0c-0.3,0-0.3,0-0.6-1
			c-0.1-0.5-0.2-1-0.3-1.4c-0.2-0.8-0.4-1.2-0.7-1.2c-0.1,0-0.2,0-0.4,0c-0.2,0-0.4,0-0.6,0c-0.1,0-0.2-0.2-0.3-0.6
			c-0.1-0.4-0.2-0.8-0.3-1.2c0-0.2-0.1-0.3-0.1-0.5c0-0.1,0-0.2,0-0.2c0.1-0.5,0.2-1,0.3-1.5c0.1-0.4,0.2-0.6,0.4-0.6
			c0.3,0,0.6,0,0.9,0c0.1,0,0.2-0.1,0.4-0.1c0.2-0.1,0.3-0.5,0.4-1c0.1-0.7,0.3-1.3,0.4-2c0.1-0.5,0.2-0.7,0.3-0.7
			c0.2,0,0.4,0,0.5,0c0.2,0,0.4,0,0.6-0.1c0.2-0.1,0.4-0.7,0.4-1.4c0-0.1,0-0.2,0-0.4c0-0.2,0-0.3-0.1-0.5c0-0.1,0-0.1-0.1-0.2
			c-0.1-0.5-0.3-0.6-0.5-0.7H8.8c-0.2,0-0.5,0-0.7,0c-0.2,0-0.3-0.2-0.4-0.7c-0.1-0.6-0.2-1.1-0.3-1.7c-0.2-0.7-0.3-1.2-0.6-1.3
			c-0.1,0-0.2-0.1-0.3-0.1c-0.2,0-0.4,0-0.6,0c-0.1,0-0.1,0-0.2,0c-0.1,0-0.2-0.1-0.2-0.4c-0.1-0.5-0.2-1-0.3-1.5
			c0-0.2-0.1-0.4-0.1-0.6c0.1-0.5,0.2-1,0.3-1.5c0.1-0.5,0.2-0.7,0.3-0.6c0.2,0,0.4,0,0.7,0c0.1,0,0.2,0,0.3,0
			c0.3,0,0.6-0.4,0.8-1.4c0-0.1,0.1-0.2,0.1-0.3c0.1-0.4,0.2-0.8,0.3-1.3c0.1-0.5,0.2-0.8,0.4-0.8c0.1,0,0.3,0,0.4,0
			c0.1,0,0.3,0,0.4,0c0.2,0,0.4-0.1,0.5-0.4c0.1-0.2,0.1-0.5,0.2-0.8c0.1-0.4,0.1-0.8,0-1.1c-0.1-0.4-0.2-0.6-0.3-0.8
			c0-0.1-0.1-0.1-0.1-0.1c-0.1,0-0.1,0-0.2,0H8.4c-0.1,0-0.1,0-0.2,0c-0.2,0-0.3-0.2-0.4-0.6c-0.1-0.3-0.2-0.6-0.2-1
			c-0.1-0.4-0.2-0.8-0.3-1.2c-0.1-0.5-0.3-0.7-0.5-0.8c-0.1,0-0.2,0-0.3,0c-0.3,0-0.5,0-0.8,0c0,0-0.1,0-0.1,0s-0.1-0.1-0.1-0.2
			c-0.1-0.6-0.3-1.2-0.4-1.8c-0.1-0.2,0-0.4,0-0.6c0.1-0.4,0.2-0.8,0.2-1.1c0-0.2,0.1-0.3,0.1-0.5c0.1-0.2,0.1-0.4,0.2-0.4
			c0.2,0,0.4,0,0.6,0c0.2,0,0.4,0,0.6-0.1c0.3-0.1,0.5-0.5,0.7-1.3c0.1-0.6,0.2-1.2,0.4-1.8c0.1-0.4,0.2-0.6,0.3-0.6
			c0.1,0,0.1,0,0.2,0c0.2,0,0.5,0,0.7,0c0.1,0,0.1,0,0.2,0c0.1,0,0.2-0.2,0.3-0.4c0.1-0.3,0.1-0.6,0.2-0.9c0-0.2,0-0.4,0-0.5
			c-0.1-0.8-0.3-1.3-0.6-1.2c-0.3,0-0.6,0-0.9,0H7.9c-0.1-0.3-0.1-0.5-0.2-0.8c-0.1-0.6-0.2-1.1-0.4-1.7c-0.2-0.8-0.4-1.2-0.7-1.2
			c-0.1,0-0.2,0-0.2,0c-0.2,0-0.4,0-0.6,0c-0.1,0-0.2,0-0.2-0.1c-0.1,0-0.1-0.2-0.2-0.4c-0.1-0.5-0.2-1-0.3-1.5
			c-0.1-0.2-0.1-0.4,0-0.6c0.1-0.5,0.2-0.9,0.3-1.4c0-0.1,0.1-0.2,0.1-0.3c0.1-0.2,0.1-0.4,0.2-0.4c0.1,0,0.2,0,0.3,0
			c0.2,0,0.4,0,0.6,0c0.1,0,0.2,0,0.3-0.1c0.2-0.1,0.4-0.4,0.6-1c0.1-0.2,0.1-0.4,0.1-0.6c0.1-0.3,0.1-0.7,0.2-1
			c0.1-0.7,0.3-1,0.5-1c0.2,0,0.5,0,0.7,0c0.2,0,0.3,0,0.5-0.3c0.1-0.3,0.1-0.5,0.2-0.8c0.1-0.6,0.1-1-0.1-1.4
			c-0.1-0.4-0.2-0.5-0.4-0.6c-0.2,0-0.3,0-0.5,0c-0.1,0-0.3,0-0.4,0c-0.2,0-0.4-0.3-0.5-0.9c-0.1-0.6-0.3-1.1-0.4-1.7
			c-0.2-0.8-0.4-1.1-0.7-1.2c-0.3,0-0.6,0-0.9,0c-0.1,0-0.2,0-0.3-0.1c-0.1,0-0.1-0.1-0.1-0.3c-0.1-0.6-0.2-1.1-0.4-1.6
			c0,0,0-0.1,0-0.2c0.1-0.5,0.2-1,0.3-1.4c0-0.1,0-0.2,0-0.2c0.2-0.9,0.2-0.8,0.4-0.8c0.2,0,0.5,0,0.7,0c0.1,0,0.2,0,0.4-0.1
			c0.2-0.1,0.3-0.3,0.4-0.8c0-0.1,0.1-0.3,0.1-0.4c0.1-0.6,0.3-1.1,0.4-1.7c0.1-0.4,0.2-0.6,0.3-0.6h0.1c0.2,0,0.5,0,0.7,0
			c0.1,0,0.2,0,0.3,0c0.1,0,0.3-0.3,0.4-0.7c0-0.4,0-0.8,0.1-1.2c0-0.5-0.1-0.9-0.3-1.1c-0.1-0.1-0.1-0.1-0.2-0.2
			c-0.1,0-0.1,0-0.2,0c-0.3,0-0.5,0-0.8,0c-0.2,0-0.3-0.1-0.4-0.7c-0.1-0.6-0.2-1.1-0.4-1.7c-0.1-0.6-0.3-1.1-0.6-1.2
			c-0.1,0-0.2-0.1-0.3-0.1c-0.2,0-0.4,0-0.6,0c-0.1,0-0.2,0-0.4-0.1c-0.1,0-0.1-0.1-0.2-0.3C5.2,434,5.1,433.5,5,433
			c-0.1-0.2-0.1-0.5,0-0.7c0.1-0.6,0.3-1.2,0.4-1.8c0-0.1,0-0.2,0.1-0.1c0.1,0,0.2-0.1,0.3-0.1c0.2,0,0.4,0,0.7,0
			c0.1,0,0.2-0.1,0.4-0.1c0-0.1,0.1-0.1,0.1,0c0.1-0.1,0.2-0.3,0.3-0.6c0-0.1,0.1-0.3,0.1-0.5c0-0.2,0.1-0.4,0.1-0.5
			c0-0.1,0-0.2,0.1-0.4c0-0.2,0-0.4,0.1-0.4c0-0.2,0.1-0.4,0.1-0.5c0-0.1,0-0.2,0.1-0.2c0-0.1,0.1-0.1,0.1-0.2
			c0-0.2,0.1-0.2,0.1-0.1c0.2-0.1,0.4,0,0.6,0c0.2,0,0.3,0,0.5,0c0.3,0,0.4-0.5,0.5-1.3c0-0.4,0-0.7-0.1-1c-0.1-0.5-0.3-0.9-0.5-0.8
			c-0.2,0-0.4,0-0.6,0c-0.1,0-0.3,0-0.4,0c-0.1,0-0.2-0.1-0.2-0.4c0-0.1-0.1-0.2-0.1-0.4c-0.1-0.5-0.2-0.9-0.3-1.4
			c-0.2-0.9-0.5-1.5-0.8-1.5c-0.3,0-0.5,0-0.8-0.1c-0.1,0-0.2,0-0.2,0c-0.1,0-0.2-0.1-0.2-0.4c-0.1-0.3-0.3-1.5-0.4-2
			c0.1-0.7,0.3-1.4,0.4-2c0.1-0.2,0.1-0.3,0.2-0.3c0.1,0,0.2,0,0.3,0c0.3,0,0.5,0,0.8,0c0.2,0,0.4-0.3,0.5-0.8
			c0.1-0.2,0.1-0.4,0.1-0.5c0.1-0.5,0.3-1.1,0.4-1.6c0.1-0.4,0.2-0.6,0.3-0.6c0.1,0,0.2,0,0.3,0c0.2,0,0.4,0,0.6,0.1
			c0.2,0,0.4-0.1,0.6-0.5c0.1-0.2,0.1-0.5,0.1-0.7c0.1-0.4,0.1-0.7,0-1c-0.1-0.6-0.2-0.9-0.4-1c-0.3-0.1-0.5-0.1-0.8-0.1
			c-0.1,0-0.2,0-0.3,0c-0.2,0-0.3-0.3-0.4-0.7c-0.1-0.5-0.2-0.9-0.3-1.4c0-0.1-0.1-0.2-0.1-0.4c-0.2-0.8-0.4-1.2-0.7-1.2
			c-0.3,0-0.5,0-0.8,0c-0.4,0-0.4,0-0.7-1c-0.1-0.3-0.1-0.6-0.2-1c-0.1-0.2-0.1-0.4,0-0.6c0.1-0.5,0.2-1.1,0.4-1.6
			c0.1-0.2,0.2-0.4,0.2-0.4c0.1,0,0.1,0,0.2,0c0.2,0,0.4,0,0.6,0c0.2,0,0.4-0.1,0.7-0.2c0.2-0.4,0.3-0.9,0.5-1.5
			c0.1-0.4,0.2-0.9,0.3-1.3c0.1-0.4,0.2-0.6,0.3-0.6c0.2,0,0.4,0,0.5,0c0.2,0,0.4,0,0.6,0c0.2,0,0.4-0.5,0.5-1.3c0-0.1,0-0.2,0-0.3
			c0-0.3-0.1-0.5-0.1-0.8l0-0.1c-0.1-0.5-0.3-0.7-0.5-0.7c-0.2,0-0.4,0-0.7,0c-0.2,0-0.3,0-0.5-0.1c-0.1-0.1-0.2-0.2-0.2-0.5
			c-0.1-0.4-0.2-0.8-0.3-1.2c-0.1-0.4-0.2-0.8-0.3-1.2c-0.1-0.3-0.2-0.5-0.3-0.6c-0.1-0.1-0.2-0.1-0.3-0.1c-0.2,0-0.5,0-0.7,0
			c-0.1,0-0.2,0-0.2-0.1c-0.1,0-0.1-0.1-0.2-0.3c-0.1-0.5-0.2-1.1-0.4-1.6c0-0.1,0-0.2,0-0.4c0-0.1,0-0.2,0-0.2
			c0.1-0.5,0.2-1.1,0.4-1.6c0.1-0.2,0.1-0.4,0.2-0.4c0.1,0,0.1,0,0.2,0c0.3,0,0.6,0,0.8,0c0.3,0,0.5-0.4,0.7-1.1
			c0.2-0.6,0.3-1.2,0.4-1.9c0-0.4,0.1-0.6,0.2-0.6c0.2-0.2,0.5-0.2,0.7-0.1c0.2,0,0.3,0,0.5,0c0.2,0,0.4-0.3,0.5-0.8
			c0.1-0.6,0.1-1.1-0.1-1.8c-0.1-0.4-0.3-0.6-0.4-0.6c-0.3,0-0.6,0-0.8,0c-0.1,0-0.2,0-0.3-0.1c-0.1,0-0.2-0.1-0.2-0.5
			c-0.1-0.5-0.2-0.9-0.3-1.3c-0.1-0.3-0.2-0.6-0.2-0.9c-0.1-0.4-0.3-0.7-0.4-0.8c-0.1-0.1-0.2-0.1-0.3-0.1c-0.3,0-0.6,0-0.8,0
			c-0.1,0-0.2-0.2-0.3-0.6c-0.1-0.5-0.2-1-0.3-1.5c0-0.1,0-0.2,0-0.2c0-0.1,0-0.2,0.1-0.2c0.1-0.5,0.2-1,0.3-1.6
			c0.1-0.3,0.2-0.5,0.3-0.5c0,0,0.1,0,0.1,0c0.2,0,0.4,0,0.6,0c0.2,0,0.4,0,0.6-0.1c0-0.2,0.1-0.2,0.1-0.1c0.1,0,0.2-0.2,0.2-0.5
			c0.1-0.5,0.3-1,0.4-1.6c0.1-0.3,0.1-0.6,0.2-0.9c0.1-0.4,0.2-0.5,0.3-0.6c0.1,0,0.2,0,0.3,0c0.3,0,0.5,0,0.8,0
			c0.2,0,0.4-0.2,0.5-0.7v-0.1c0.1-0.5,0.1-1.1,0-1.6l0-0.1c-0.2-0.6-0.4-0.6-0.6-0.6c0,0-0.1,0-0.1,0c-0.2,0-0.5,0-0.8,0
			c-0.1,0-0.2-0.2-0.3-0.5c-0.1-0.4-0.2-0.8-0.2-1.2c-0.1-0.5-0.2-1-0.3-1.4c-0.1-0.2-0.2-0.4-0.3-0.5c-0.2-0.1-0.4-0.2-0.6-0.2
			c-0.2,0-0.4,0-0.7,0c-0.1,0-0.2-0.1-0.3-0.4c-0.1-0.6-0.3-1.2-0.4-1.8c0-0.1,0-0.2,0-0.2c0-0.1,0.1-0.2,0.1-0.3
			c0-0.1,0-0.2,0.1-0.2c0-0.1,0.1-0.2,0.1-0.4c0-0.1,0-0.2,0.1-0.2c0.1-0.2,0.1-0.4,0.1-0.6c0.1-0.3,0.2-0.4,0.3-0.4
			c0.1,0,0.1,0,0.2,0c0.3,0,0.6,0,0.9,0c0,0,0.1,0,0.1,0c0.2-0.1,0.3-0.4,0.4-0.8c0.1-0.3,0.2-0.7,0.2-1s0.1-0.7,0.2-1.1
			c0.1-0.4,0.2-0.7,0.3-0.7c0.1,0,0.2,0,0.4,0c0.2,0,0.4,0,0.7,0c0.3,0,0.4-0.5,0.5-1.3c0.1-0.3,0-0.6,0-1c-0.1-0.5-0.2-0.8-0.4-0.9
			c-0.1,0-0.2-0.1-0.3-0.1c-0.2,0-0.5,0-0.7,0c-0.1,0-0.2,0-0.3-0.1s-0.2-0.2-0.2-0.5c0-0.1-0.1-0.3-0.1-0.4
			c-0.1-0.7-0.3-1.4-0.5-1.9c-0.1-0.3-0.2-0.5-0.3-0.6c-0.2-0.1-0.3-0.1-0.4-0.2c-0.3,0-0.5,0-0.8,0c-0.1,0-0.2-0.1-0.3-0.5
			c-0.1-0.5-0.2-1-0.3-1.5c0-0.1,0-0.2,0-0.3c0.1-0.6,0.3-1.2,0.4-1.8c0.1-0.4,0.2-0.5,0.3-0.5c0.2,0,0.4,0,0.7,0
			c0.2,0,0.4-0.1,0.6-0.2c0.1-0.1,0.2-0.3,0.3-0.6c0.1-0.6,0.3-1.2,0.4-1.8c0-0.2,0.1-0.4,0.1-0.5c0.1-0.4,0.2-0.5,0.3-0.6
			c0.1,0,0.2,0,0.4,0c0.2,0,0.4,0,0.6,0c0.4-0.1,0.4-0.2,0.6-1.1c0.1-0.6,0-1-0.1-1.4c-0.1-0.4-0.2-0.6-0.4-0.6s-0.3,0-0.5,0
			c-0.1,0-0.1,0-0.2,0c-0.1,0-0.3,0-0.4,0c-0.1,0-0.2-0.1-0.2-0.4c-0.1-0.6-0.3-1.3-0.4-1.9c-0.2-0.9-0.4-1.3-0.8-1.4
			c-0.1,0-0.2,0-0.3,0c-0.2,0-0.4,0-0.6,0c-0.1,0-0.2-0.2-0.3-0.5c-0.1-0.5-0.2-0.9-0.3-1.4c-0.1-0.3-0.1-0.4,0-0.7
			c0.1-0.4,0.2-0.8,0.3-1.2c0.1-0.5,0.2-0.7,0.4-0.7c0.2,0,0.5,0,0.7,0c0.1,0,0.3,0,0.4-0.1c0.2-0.1,0.4-0.4,0.5-0.9
			c0.1-0.2,0.1-0.5,0.2-0.7c0.1-0.5,0.2-1,0.3-1.5c0.1-0.3,0.1-0.4,0.2-0.5c0.1,0,0.2-0.1,0.3-0.1c0.2,0,0.5,0,0.7,0
			c0.1,0,0.3-0.1,0.4-0.3c0.1-0.3,0.1-0.5,0.2-0.8c0.1-0.3,0.1-0.6,0-1c-0.1-0.7-0.3-1.1-0.5-1.1c-0.2,0-0.5,0-0.7,0
			c-0.1,0-0.2,0-0.3,0c-0.1,0-0.2-0.3-0.3-0.7c-0.1-0.4-0.1-0.7-0.2-1.1c-0.1-0.5-0.2-0.9-0.3-1.3c-0.1-0.3-0.2-0.4-0.3-0.5
			c-0.1-0.1-0.3-0.2-0.4-0.2c-0.2,0-0.4,0-0.7,0c-0.1,0-0.2,0-0.2,0c-0.1,0-0.1-0.1-0.2-0.3c-0.1-0.5-0.3-1-0.4-1.6
			c-0.1-0.2-0.1-0.4,0-0.6c0.1-0.6,0.2-1.1,0.4-1.7c0-0.1,0.1-0.2,0.1-0.2c0.1-0.1,0.2-0.1,0.2-0.1c0.2,0,0.5,0,0.7,0
			c0.2,0,0.3-0.1,0.4-0.1c0.1-0.1,0.2-0.1,0.2-0.2c0,0,0.1-0.1,0.1-0.2c0.2-0.8,0.4-1.6,0.6-2.4c0.1-0.5,0.2-0.7,0.4-0.8
			c0.1-0.1,0.2-0.2,0.4-0.2c0.1,0,0.2,0.1,0.3,0.2c0.1,0,0.3,0,0.4,0c0.1,0,0.2-0.2,0.3-0.4c0-0.1,0.1-0.2,0.1-0.4v-0.1
			c0.1-0.4,0.1-0.9,0-1.3c-0.1-0.5-0.3-0.9-0.5-1.1c-0.3-0.2-0.1,0-0.1,0c-0.2,0-0.4,0-0.6,0H8.3c-0.1,0-0.1,0-0.2,0
			c-0.2,0-0.4-0.2-0.5-0.9c-0.1-0.6-0.2-1.1-0.4-1.7c-0.2-0.7-0.3-1-0.6-1.1c-0.1,0-0.2,0-0.4,0c-0.2,0-0.5,0-0.7,0
			c-0.1,0-0.2-0.1-0.3-0.5c-0.1-0.5-0.2-0.9-0.3-1.4c-0.1-0.3-0.1-0.4,0-0.8c0.1-0.4,0.2-0.8,0.2-1.1c0.1-0.5,0.3-0.8,0.4-0.8h0.1
			c0.2,0,0.4,0,0.7,0c0.1,0,0.3-0.1,0.4-0.2c0.2-0.1,0.3-0.4,0.4-0.9c0.1-0.6,0.3-1.2,0.4-1.9c0.1-0.5,0.2-0.8,0.4-0.7
			c0.1,0,0.2-0.1,0.3-0.1c0.2,0,0.3,0,0.5,0c0.1,0,0.2,0,0.3,0c0.2-0.1,0.4-0.6,0.4-1.4c0-0.3,0-0.6-0.1-0.8
			c-0.1-0.5-0.3-0.9-0.5-0.9c-0.3,0-0.6,0-0.9,0c-0.1,0-0.2,0-0.4-0.1c-0.1-0.6-0.2-1.1-0.3-1.7c-0.1-0.3-0.1-0.6-0.2-0.9
			c-0.2-0.7-0.4-1.1-0.7-1.1c-0.3,0-0.6,0-0.9,0c-0.1,0-0.1,0-0.2,0c-0.1,0-0.2-0.1-0.2-0.4c-0.1-0.5-0.2-1.1-0.4-1.7
			c-0.1-0.2,0-0.4,0-0.6c0.1-0.5,0.3-1.1,0.4-1.6c0.1-0.2,0.1-0.3,0.2-0.3c0.1,0,0.2,0,0.3,0c0.3,0,0.6,0,0.8,0c0.3,0,0.5-0.4,0.6-1
			c0.1-0.6,0.3-1.1,0.4-1.7c0-0.1,0.1-0.2,0.1-0.4c0.1-0.3,0.2-0.5,0.3-0.5c0.2,0,0.4,0,0.6,0c0.1,0,0.3,0,0.4,0
			c0.3,0,0.4-0.5,0.5-1.3c0-0.1,0-0.4,0-0.5c-0.1-0.6-0.3-1.4-0.5-1.4c-0.2,0-0.5,0-0.7,0c-0.1,0-0.2,0-0.4,0
			c-0.1,0-0.2-0.2-0.3-0.6c-0.1-0.7-0.3-1.3-0.4-2c-0.2-0.7-0.4-1-0.6-1.1c-0.1,0-0.3,0-0.4,0c-0.2,0-0.4,0-0.6,0
			c-0.2,0-0.3-0.2-0.4-0.7c-0.1-0.5-0.2-1.1-0.3-1.6c0-0.1,0-0.2,0-0.3c0.1-0.5,0.2-1,0.3-1.5c0.1-0.4,0.2-0.5,0.3-0.5
			c0.1,0,0.2,0,0.4,0c0.2,0,0.3,0,0.5,0c0.2,0,0.3-0.1,0.4-0.1l0-0.1c0-0.2,0.1-0.2,0.1-0.2l0.1,0c0.1-0.4,0.2-0.8,0.3-1.1V261
			c0-0.2,0.1-0.4,0.1-0.6c0-0.1,0-0.2,0.1-0.2c0.1-0.2,0.1-0.4,0.1-0.6c0-0.1,0-0.4,0.1-0.4c0-0.1,0-0.2,0.1-0.1c0,0,0.1,0,0.1-0.1
			c0,0,0.1,0,0.1,0h0.1c0.1,0,0.3,0,0.4,0c0.2,0,0.3,0,0.5,0c0.2,0,0.3-0.3,0.4-0.8c0-0.1,0-0.1,0.1-0.2c0.1-0.5,0.1-0.9-0.1-1.4
			l0-0.2l-0.1-0.1c-0.1-0.4-0.3-0.5-0.4-0.5c-0.1,0-0.1,0-0.2,0c-0.2,0-0.4,0-0.6,0c-0.1,0-0.2,0-0.3-0.1c-0.1,0-0.1-0.2-0.2-0.4
			c-0.1-0.3-0.1-0.6-0.2-0.8c0,0-0.1-0.1-0.1-0.2c-0.1-0.7-0.3-1.4-0.5-1.8c0-0.1-0.1-0.1-0.1-0.1c-0.1-0.1-0.1-0.1-0.2-0.1
			c-0.1,0.3-0.2,0.2-0.3,0.1l0-0.1c-0.1,0-0.1-0.1-0.2-0.1c-0.2,0-0.4,0-0.6,0c-0.2,0-0.3-0.2-0.3-0.6c-0.1-0.4-0.2-0.8-0.3-1.2
			c0-0.1-0.1-0.3-0.1-0.5c0.1-0.6,0.2-1.2,0.4-1.8c0.1-0.4,0.2-0.5,0.3-0.5c0.2,0,0.4,0,0.6,0c0.1,0,0.3,0,0.4,0
			c0.3-0.1,0.5-0.4,0.7-1.1c0.1-0.2,0.1-0.5,0.2-0.7c0.1-0.4,0.2-0.9,0.3-1.3c0.1-0.3,0.1-0.4,0.2-0.4c0.1,0,0.3-0.1,0.4-0.1
			c0.2,0,0.4,0,0.6,0c0.2,0,0.3-0.1,0.4-0.4c0-0.1,0-0.2,0.1-0.3c0.1-0.7,0.1-1.6-0.1-2c-0.1-0.1-0.1-0.2-0.2-0.3
			c0-0.1-0.1-0.1-0.1-0.1c-0.3,0-0.6,0-1,0c-0.1,0-0.1,0-0.2,0c-0.1-0.1-0.2-0.1-0.2-0.4c-0.1-0.1-0.1-0.2-0.1-0.4
			c0-0.1-0.1-0.1-0.1-0.2c-0.1-0.6-0.2-1-0.3-1.5c-0.1-0.5-0.2-0.8-0.4-0.9c-0.1-0.1-0.3-0.1-0.4-0.1c-0.3,0-0.6,0-0.8,0
			c-0.1,0-0.2-0.1-0.2-0.4c-0.1-0.5-0.2-1-0.3-1.5c0-0.1-0.1-0.3-0.1-0.5c0.1-0.6,0.2-1.1,0.3-1.6c0.1-0.4,0.2-0.7,0.4-0.6
			c0.2,0,0.3,0,0.5,0c0.2,0,0.3,0,0.5-0.1c0.3-0.1,0.5-0.4,0.7-1.2c0.1-0.6,0.3-1.2,0.4-1.9c0.1-0.4,0.2-0.6,0.3-0.6
			c0.1,0,0.1,0,0.2,0c0.2,0,0.4,0,0.6,0c0.1,0,0.2,0,0.3-0.1c0.1,0,0.2-0.2,0.2-0.4c0.1-0.2,0.1-0.4,0.1-0.7c0.1-0.4,0.1-0.8,0-1.1
			c-0.1-0.5-0.2-0.9-0.4-0.9c-0.1,0-0.1,0-0.2,0c-0.3,0-0.5,0-0.8,0c-0.2,0-0.3-0.2-0.4-0.7c-0.1-0.6-0.2-1.1-0.3-1.6
			c-0.2-0.8-0.4-1.3-0.7-1.4c-0.2-0.1-0.4,0-0.6-0.1c-0.1,0-0.2,0-0.3,0c-0.2,0-0.3-0.2-0.4-0.6c-0.1-0.6-0.3-1.2-0.4-1.6
			c-0.2,0-0.4,0-0.7,0c-0.4,0-0.7,0.1-1.1,0.1c-0.2,0-0.4-0.1-0.5,0c0,0-0.1,0-0.2,0c0,0.1,0,0.2,0,0.3c0,0.5,0.1,0.8,0.2,1
			c0.1,0.1,0.1,0.1,0.2,0.1c0.3,0,0.6,0,0.9,0c0.1,0,0.2,0,0.2,0c0.1,0,0.2,0.1,0.3,0.5c0.1,0.5,0.2,0.9,0.3,1.4
			c0.1,0.2,0.1,0.5,0.2,0.7c0.2,0.7,0.4,1,0.6,1.1c0.1,0,0.3,0,0.4,0.1c0.2,0,0.5,0.1,0.8,0.1c0.1,0,0.2,0.1,0.2,0.4
			c0.1,0.6,0.2,1.1,0.3,1.5c0.1,0.2,0.1,0.4,0,0.6c-0.1,0.6-0.3,1.2-0.4,1.8c-0.1,0.3-0.1,0.4-0.2,0.4c-0.3,0-0.6,0-0.9,0
			c-0.1,0-0.2,0-0.2,0c-0.2,0.1-0.4,0.3-0.5,0.9c-0.1,0.4-0.2,0.8-0.3,1.2c-0.1,0.4-0.2,0.8-0.2,1.2c-0.1,0.2-0.1,0.4-0.2,0.4
			c-0.1,0-0.2,0-0.2,0c-0.2,0-0.5,0-0.7,0c-0.1,0-0.2,0.1-0.3,0.1c0,0-0.1,0.1-0.1,0.2c-0.2,0.3-0.3,0.7-0.3,1.3
			c0,0.6,0.1,1.1,0.2,1.4c0,0.1,0.1,0.2,0.2,0.2c0.2,0,0.4,0.1,0.5,0.1c0.2,0,0.4,0,0.6,0c0.2,0,0.3,0.2,0.4,0.8
			c0.1,0.6,0.2,1.1,0.3,1.6c0.1,0.5,0.3,0.9,0.5,1.1c0.1,0.1,0.2,0.1,0.3,0.2c0.2,0,0.4,0,0.6,0c0.2,0,0.4,0.1,0.6,0.1h0v0.1
			c0.2,0.7,0.3,1.4,0.5,2.1c0,0.3-0.1,0.6-0.2,0.9c-0.1,0.3-0.2,0.7-0.2,1c-0.1,0.4-0.2,0.5-0.3,0.5c-0.3,0-0.5,0-0.8,0
			c-0.1,0-0.3,0.1-0.4,0.1c-0.2,0.1-0.3,0.4-0.4,0.8c-0.1,0.2-0.1,0.5-0.2,0.8c-0.1,0.5-0.2,1-0.3,1.5C4.1,247.8,4,248,3.9,248
			c-0.3,0-0.6,0-1,0c-0.1,0-0.1,0-0.2,0c-0.2,0.1-0.4,0.7-0.5,1.4c0,0.1,0,0.1,0,0.2c0,0.5,0.2,1.2,0.3,1.4c0.1,0.1,0.2,0.1,0.3,0.1
			c0.3,0,0.6,0,0.9,0c0.2,0,0.2-0.1,0.4,0.7c0.1,0.4,0.2,0.9,0.3,1.3c0,0.1,0,0.2,0.1,0.4c0.2,0.8,0.4,1.3,0.8,1.4
			c0.1,0,0.1,0,0.2,0c0.2,0,0.5,0,0.7,0c0.2,0,0.3,0.2,0.4,0.7c0.1,0.5,0.2,0.9,0.3,1.4c0,0.1,0,0.2,0,0.4c-0.1,0.6-0.3,1.1-0.4,1.7
			c-0.1,0.2-0.1,0.4-0.2,0.4c-0.1,0-0.1,0-0.2,0c-0.2,0-0.5,0-0.7,0c-0.3,0-0.6,0.2-0.8,0.9c-0.2,0.8-0.3,1.6-0.5,2.4
			c-0.1,0.3-0.2,0.5-0.3,0.5c-0.3,0-0.6,0-0.8,0c-0.1,0-0.2,0-0.3,0.1c-0.2,0.1-0.3,0.4-0.4,0.9c-0.1,0.5-0.1,1.2,0,1.6
			c0.1,0.3,0.2,0.5,0.3,0.5c0.1,0,0.3,0.1,0.4,0.1c0.3,0,0.5,0,0.8,0c0.1,0,0.2,0.2,0.3,0.6c0.1,0.2,0.1,0.5,0.2,0.7
			c0.1,0.4,0.2,0.8,0.2,1.1c0.2,0.9,0.5,1.4,0.8,1.4c0.3,0,0.6,0,0.8,0c0.1,0,0.2,0,0.3,0c0.1,0.4,0.2,0.7,0.2,1.1
			c0.1,0.4,0.2,0.7,0.2,1.1c0,0.1,0,0.2-0.1,0.4c-0.1,0.5-0.2,1-0.3,1.5c-0.1,0.4-0.2,0.5-0.3,0.5c-0.2,0-0.4,0-0.6,0
			c-0.1,0-0.2,0-0.3,0c-0.3,0-0.6,0.5-0.8,1.4c-0.1,0.5-0.2,1-0.3,1.5c0,0.1-0.1,0.3-0.1,0.4c0,0.2-0.1,0.3-0.2,0.3
			c-0.2,0-0.4,0-0.5,0c-0.2,0-0.4,0-0.6,0.1c-0.3,0.1-0.4,0.7-0.5,1.5c0,0.3,0,0.5,0,0.8c0.1,0.4,0.2,0.7,0.4,0.8
			c0.1,0.1,0.2,0.1,0.3,0.1c0.2,0,0.4,0,0.6,0c0.1,0,0.1,0,0.2,0c0.2,0,0.3,0.2,0.4,0.7c0.1,0.6,0.2,1.1,0.3,1.7
			c0.2,0.8,0.4,1.2,0.7,1.3c0.3,0,0.6,0,1,0c0.2,0,0.3,0.2,0.4,0.7c0.1,0.5,0.2,1,0.4,1.5c0,0.2,0,0.4-0.1,0.5
			c-0.1,0.5-0.2,0.9-0.3,1.4c-0.1,0.4-0.2,0.5-0.3,0.5c-0.3,0-0.5,0-0.8,0c-0.1,0-0.2,0-0.3,0c-0.2,0.1-0.4,0.4-0.6,1
			c-0.1,0.4-0.1,0.7-0.2,1.1c-0.1,0.4-0.2,0.9-0.3,1.3c0,0.2-0.1,0.3-0.2,0.3c-0.1,0-0.2,0-0.3,0H2.8c-0.2,0-0.4,0.3-0.5,1
			c-0.1,0.4-0.1,0.7,0,1.1c0.1,0.6,0.2,1,0.5,1c0.2,0,0.4,0,0.6,0c0.2,0,0.3,0,0.5,0c0.1,0,0.2,0.1,0.2,0.4c0.1,0.3,0.1,0.6,0.2,0.9
			c0.1,0.6,0.2,1.2,0.4,1.6c0,0.1,0.1,0.3,0.1,0.5c0,0,0.1,0,0.1,0c0.1,0.2,0.3,0.3,0.4,0.3c0.2,0,0.4,0,0.6,0c0.1,0,0.3,0,0.4,0
			c0.1,0,0.2,0.1,0.2,0.4c0.1,0.5,0.2,1.1,0.3,1.6c0,0.1,0,0.2,0,0.3c-0.1,0.7-0.3,1.2-0.4,1.9c-0.1,0.3-0.2,0.4-0.2,0.4
			c-0.1,0-0.2,0-0.3,0c-0.3,0-0.5,0-0.8,0c-0.2,0-0.3,0.2-0.5,0.5c-0.2,0.6-0.3,1.4-0.5,2.1c-0.2,0.9-0.2,1-0.6,1
			c-0.2,0-0.4,0-0.6,0c-0.1,0-0.3,0.1-0.4,0.1c-0.2,0.1-0.3,0.6-0.3,1.2c0,0.4,0.1,1.3,0.2,1.5c0.1,0.1,0.2,0.3,0.3,0.3
			c0.2,0,0.4,0,0.6,0c0.2,0,0.4,0,0.6,0c0.1,0,0.2,0.1,0.2,0.4c0.1,0.4,0.2,0.8,0.3,1.2c0.1,0.4,0.2,0.8,0.3,1.2
			c0.1,0.4,0.2,0.6,0.4,0.7c0.1,0,0.3,0.1,0.4,0.1c0.3,0,0.5,0,0.8,0c0.2,0,0.3,0.2,0.4,0.6c0.1,0.5,0.2,1,0.4,1.6
			c0,0.2,0,0.4-0.1,0.5c-0.1,0.4-0.2,0.8-0.3,1.3c-0.1,0.5-0.2,0.7-0.4,0.7c-0.1,0-0.3,0-0.4,0H5.3c-0.3,0-0.6,0.5-0.8,1.4
			c-0.1,0.5-0.2,1-0.3,1.5c0,0.1-0.1,0.3-0.1,0.5c-0.1,0.2-0.1,0.3-0.2,0.3c-0.1,0-0.2,0-0.3,0c-0.2,0-0.5,0-0.8,0s-0.4,0.5-0.5,1.2
			c0,0.3,0,0.5,0,0.8c0.1,0.8,0.3,1.2,0.6,1.1c0.3-0.1,0.6,0,1,0c0.1,0,0.2,0.2,0.3,0.5c0.1,0.6,0.2,1.2,0.4,1.8
			c0.1,0.3,0.1,0.7,0.2,0.9c0.1,0,0.2,0,0.2,0.4c0.1,0,0.2,0,0.3,0.1c0-0.2,0.1-0.2,0.1,0c0.2,0,0.3,0,0.4,0c0.2,0,0.3,0,0.5,0
			c0.1,0,0.2,0.1,0.2,0.3c0.1,0.6,0.3,1.2,0.4,1.8c0,0,0,0.1,0,0.2c-0.1,0.4-0.2,0.8-0.3,1.2c-0.1,0.2-0.1,0.5-0.2,0.7
			c-0.1,0.3-0.2,0.4-0.3,0.4c-0.3,0-0.6,0-0.9,0c-0.1,0-0.1,0-0.2,0c-0.3,0-0.5,0.4-0.7,1.2c-0.1,0.6-0.3,1.3-0.4,1.9
			c-0.1,0.4-0.2,0.5-0.3,0.5c-0.3,0-0.5,0-0.8,0c-0.1,0-0.2,0-0.3,0c-0.2,0.1-0.4,0.5-0.5,1.2c0,0.4,0,0.8,0,1.1
			c0.1,0.5,0.2,0.8,0.4,0.8c0.1,0,0.1,0,0.2,0.1c0.2,0,0.3,0,0.5,0c0.2,0,0.4,0,0.5,0.1c0.1,0,0.2,0.1,0.2,0.4c0,0.1,0,0.2,0.1,0.2
			c0.1,0.6,0.3,1.2,0.4,1.9c0.1,0.6,0.3,1,0.6,1.1c0.1,0,0.3,0,0.4,0c0.2,0,0.5,0,0.7,0c0.1,0,0.2,0.1,0.3,0.4
			c0.1,0.4,0.2,0.7,0.3,1.1c0.1,0.2,0.1,0.5,0.2,0.8c-0.1,0.6-0.3,1.2-0.4,1.8c-0.1,0.3-0.2,0.5-0.3,0.5c-0.1,0-0.1,0-0.2,0
			c-0.3,0-0.6-0.1-0.9,0.1c0,0.1-0.1,0.1-0.1,0c-0.2,0.2-0.4,0.8-0.6,1.4c0,0.1,0,0.2-0.1,0.2c-0.1,0.5-0.2,0.9-0.3,1.3
			c0,0.3-0.1,0.5-0.2,0.6l0,0c-0.3,0-0.6,0-0.9,0c-0.1,0-0.3,0-0.4,0.1c-0.1,0-0.2,0.1-0.2,0.3c-0.3,0.7-0.2,2.1,0.1,2.5
			c0.1,0.1,0.2,0.2,0.2,0.2c0.1,0,0.2,0,0.4,0c0.2,0,0.5,0,0.7,0.1c0.1,0,0.3,0.2,0.3,0.7s0.2,0.8,0.3,1.2c0,0.2,0.1,0.4,0.1,0.5
			c0.2,0.8,0.4,1.2,0.8,1.2c0.3,0,0.6,0,0.8,0c0.1,0,0.2,0,0.2,0.1c0-0.1,0.1,0,0.1,0.1c0.2,0.6,0.4,1.5,0.5,2.2
			c0,0.3-0.1,0.5-0.2,0.7c-0.1,0.4-0.2,0.8-0.3,1.1c-0.1,0.2-0.1,0.4-0.2,0.4c-0.2,0-0.3,0-0.4,0c-0.2,0-0.4,0-0.6,0
			c-0.3,0-0.5,0.5-0.7,1.2c-0.2,0.6-0.3,1.3-0.4,2c-0.1,0.3-0.1,0.4-0.2,0.4c-0.2,0-0.4,0-0.6,0c-0.2,0-0.3,0-0.5,0
			c-0.2,0-0.4,0.5-0.5,1.2c-0.1,0.5,0,1,0.1,1.4c0.1,0.3,0.2,0.5,0.4,0.5c0.2,0,0.3,0,0.4,0c0.2,0,0.4,0,0.7,0
			c0.1,0,0.2,0.1,0.3,0.4c0.1,0.4,0.2,0.8,0.3,1.2c0.1,0.4,0.2,0.7,0.2,1c0.2,0.7,0.4,1,0.7,1c0.3,0,0.6,0,0.8,0
			c0.4,0,0.4,0.2,0.5,0.9c0.1,0.2,0.1,0.5,0.1,0.7c0.1,0.2,0.1,0.5,0.2,0.7c-0.1,0.3-0.1,0.5-0.2,0.8c-0.1,0.3-0.1,0.6-0.2,0.9
			c-0.1,0.4-0.2,0.6-0.3,0.6c-0.1,0-0.2,0-0.3,0c-0.2,0-0.5,0-0.7,0c-0.3,0-0.6,0.5-0.8,1.4c-0.1,0.3-0.1,0.6-0.2,1
			c-0.1,0.3-0.1,0.6-0.2,0.9c-0.1,0.3-0.2,0.4-0.3,0.4c-0.3,0-0.6,0-0.9,0c-0.1,0-0.2,0-0.3,0c-0.2,0.1-0.4,0.6-0.5,1.3
			c0,0.3,0,0.6,0,0.8c0.1,0.5,0.2,0.8,0.4,0.9c0.1,0.1,0.3,0.1,0.4,0.1c0.2,0,0.4,0,0.7,0c0.1,0,0.1,0,0.2,0c0.1,0,0.1,0.1,0.1,0.2
			c0.1,0.2,0.1,0.5,0.2,0.7c0.1,0.5,0.2,1.1,0.3,1.6c0.2,0.7,0.4,1.1,0.6,1.1c0.1,0,0.3,0,0.4,0c0.2,0,0.5,0,0.7,0
			c0.1,0,0.2,0.1,0.3,0.5c0.1,0.5,0.2,1.1,0.4,1.6c0,0.1,0,0.2,0,0.3c-0.1,0.5-0.2,1.1-0.3,1.6c-0.1,0.4-0.2,0.6-0.4,0.6
			c-0.3,0-0.6,0-0.9,0c-0.1,0-0.1,0-0.2,0c-0.2,0.1-0.4,0.4-0.6,1c0,0.1-0.1,0.3-0.1,0.5c-0.1,0.6-0.3,1.2-0.4,1.8
			c-0.1,0.3-0.1,0.4-0.2,0.4c-0.3,0-0.6,0-0.9,0c-0.1,0-0.2,0-0.2,0c-0.2,0.1-0.3,0.4-0.4,0.9c-0.1,0.4-0.1,0.8,0,1.3
			c0.1,0.5,0.2,0.8,0.4,0.8c0.1,0,0.2,0,0.4,0c0.3,0,0.5,0,0.8,0c0.1,0,0.2,0.1,0.2,0.4c0.1,0.5,0.2,1,0.3,1.5
			c0.1,0.7,0.3,1.2,0.5,1.6c0.3,0.2,0.7,0.3,1,0.3c0.1,0,0.3,0,0.4,0c0.1,0,0.2,0.1,0.3,0.5c0.1,0.5,0.2,1,0.3,1.4
			c0,0.1,0,0.2,0.1,0.4c-0.1,0.6-0.3,1.2-0.4,1.8c-0.1,0.4-0.2,0.5-0.3,0.5c-0.3,0-0.7,0-1,0c0,0-0.1,0-0.1,0.1
			c-0.2,0.2-0.4,0.7-0.6,1.4c-0.1,0.5-0.2,1.1-0.4,1.6c-0.1,0.4-0.2,0.6-0.3,0.6c-0.2,0-0.4,0-0.7,0c-0.1,0-0.2,0-0.4,0
			c-0.2,0-0.3,0.3-0.4,0.7c-0.1,0.5-0.1,0.9,0,1.5c0.1,0.5,0.2,0.9,0.4,0.9c0.1,0,0.3,0.1,0.4,0.1c0.2,0,0.5,0,0.8,0
			c0.1,0,0.2,0.1,0.3,0.5c0.1,0.4,0.2,0.7,0.2,1c0.1,0.4,0.2,0.8,0.3,1.2c0.1,0.5,0.3,0.8,0.5,0.8c0.1,0,0.2,0.1,0.4,0.1
			c0.2,0,0.5,0,0.7,0c0.1,0,0.1,0,0.2,0c0.1,0,0.2,0.2,0.2,0.5c0.1,0.6,0.2,1.1,0.4,1.6c0,0,0,0.1,0,0.2c0,0.1,0,0.3-0.1,0.3
			c0,0.2-0.1,0.3-0.1,0.5c0,0.2,0,0.2-0.1,0.2l0,0.2c0,0.4-0.1,0.7-0.2,0.8c-0.1,0.2-0.2,0.2-0.2,0.2c-0.3,0-0.6,0-0.9,0
			c-0.1,0.1-0.2,0.1-0.3,0.1c-0.3,0.2-0.4,0.8-0.6,1.5c-0.1,0.5-0.2,0.9-0.3,1.4c0,0.2-0.1,0.3-0.1,0.5c-0.1,0.2-0.1,0.3-0.2,0.3
			c-0.2,0-0.4,0-0.6,0c-0.2,0-0.4,0-0.6,0c-0.2,0-0.4,0.5-0.5,1.2c0,0.2,0,0.5,0,0.7c0.1,0.7,0.2,1.1,0.5,1.2c0.2,0,0.3,0,0.4,0
			c0.2,0,0.5,0,0.7,0c0.1,0,0.2,0.2,0.3,0.5c0.1,0.6,0.2,1.1,0.3,1.7c0,0.1,0,0.1,0.1,0.2c0.2,0.9,0.4,1.2,0.7,1.2
			c0.2,0,0.3,0,0.5,0c0.2,0,0.3,0,0.5,0c0.1,0,0.2,0.1,0.3,0.5c0.1,0.5,0.2,1,0.3,1.4c0,0.1,0,0.2,0.1,0.4c-0.1,0.7-0.3,1.3-0.4,2
			c-0.1,0.2-0.1,0.3-0.2,0.3c-0.3,0-0.5,0-0.8,0c-0.1,0-0.2,0-0.4,0c-0.2,0.1-0.4,0.4-0.5,0.9c-0.1,0.4-0.2,0.8-0.3,1.2
			c-0.1,0.4-0.2,0.7-0.2,1.1C4.1,445.9,4,446,4,446.1c0,0-0.1,0-0.2,0c-0.3,0-0.6,0-0.9,0c-0.1,0-0.2,0-0.3,0.2
			c-0.3,0.5-0.4,1.7-0.1,2.5c0.1,0.2,0.1,0.3,0.2,0.4c0.1,0,0.3,0.1,0.4,0.1c0.2,0,0.4,0,0.7,0c0.1,0,0.1,0,0.2,0
			c0.1,0,0.2,0.1,0.2,0.4c0.1,0.5,0.2,1,0.3,1.5c0.1,0.4,0.2,0.7,0.3,1c0.1,0.5,0.3,0.7,0.5,0.7c0.2,0,0.5,0,0.8,0
			c0.1,0,0.2,0,0.3,0c0.1,0,0.2,0.1,0.3,0.4c0.1,0.6,0.3,1.1,0.4,1.7c0,0.2,0,0.4,0,0.5c-0.1,0.5-0.2,1.1-0.4,1.6
			c-0.1,0.2-0.1,0.3-0.2,0.3c-0.1,0-0.2,0.1-0.2,0.1c-0.2,0-0.3,0-0.5,0c-0.1,0-0.2,0-0.3,0c-0.4,0-0.7,0.5-0.9,1.5
			c-0.1,0.5-0.2,0.9-0.3,1.4c-0.2,0.9-0.2,0.8-0.5,0.8c-0.2,0-0.5,0-0.8,0c-0.1,0-0.2,0-0.2,0c-0.2,0-0.4,0.6-0.5,1.3
			c0,0.2,0,0.4,0,0.6c0.1,0.7,0.2,1.2,0.5,1.2c0.1,0,0.2,0,0.3,0c0.2,0,0.5,0,0.7,0c0.1,0,0.3,0.2,0.4,0.6c0.1,0.6,0.2,1.1,0.3,1.6
			c0.2,0.9,0.4,1.3,0.7,1.4c0.2,0,0.4,0,0.6,0c0.2,0,0.3,0,0.5,0c0.1,0,0.2,0.1,0.3,0.4c0.1,0.5,0.2,1,0.3,1.5
			c0.1,0.3,0.1,0.6,0,0.9c-0.1,0.5-0.2,1.1-0.4,1.7c0,0.1-0.1,0.2-0.1,0.2c-0.1,0-0.1,0-0.2,0c-0.3,0-0.6,0-0.9,0
			c-0.3,0-0.6,0.5-0.8,1.4c-0.1,0.3-0.1,0.5-0.2,0.8c-0.1,0.3-0.1,0.6-0.2,1c-0.1,0.4-0.2,0.5-0.3,0.5c-0.1,0-0.3,0-0.4,0
			c-0.2,0-0.3,0-0.5,0c-0.1,0-0.2,0-0.3,0.1c-0.1,0-0.1,0.1-0.2,0.3c-0.1,0.3-0.2,0.8-0.2,1.4c0,0.6,0.1,0.9,0.3,1.1
			c0.1,0.1,0.2,0.2,0.2,0.2c0.1,0,0.3,0,0.4,0c0.2,0,0.4,0,0.6,0c0.2,0,0.3,0.2,0.4,0.7c0.1,0.3,0.1,0.5,0.2,0.8
			c0.1,0.2,0.1,0.5,0.2,0.8c0.2,0.9,0.5,1.5,0.8,1.4c0.3,0,0.5,0,0.8,0c0.3,0,0.3,0,0.5,0.9c0.1,0.3,0.1,0.5,0.2,0.8
			c0,0.2,0.1,0.4,0.1,0.6c0,0.1,0,0.2,0,0.2c-0.1,0.6-0.3,1.2-0.4,1.8C6.5,488,6.4,488,6.3,488c-0.2,0-0.5,0-0.7,0
			c-0.1,0-0.2,0-0.2,0c-0.3,0.1-0.6,0.5-0.7,1.5c-0.1,0.4-0.2,0.9-0.3,1.3c0,0.2-0.1,0.4-0.1,0.5c-0.1,0.3-0.2,0.5-0.3,0.4
			c-0.3,0-0.6,0-0.9,0c-0.1,0-0.1,0-0.2,0c-0.2,0.1-0.5,0.8-0.5,1.6c0,0.1,0,0.1,0,0.2c0.1,0.6,0.2,1.1,0.4,1.3c0.1,0,0.2,0,0.2,0
			c0.3,0,0.5,0,0.8,0c0.1,0,0.1,0,0.2,0c0.1,0,0.2,0.2,0.3,0.6c0.1,0.5,0.2,0.9,0.3,1.4c0.1,0.4,0.2,0.7,0.2,1
			c0.1,0.4,0.2,0.6,0.4,0.6c0.1,0.1,0.2,0.1,0.4,0.1c0.3,0,0.6,0,0.8,0c0.1,0,0.2,0.1,0.3,0.4c0.1,0.5,0.2,1,0.4,1.5
			c0.1,0.4,0.1,0.6,0,1c-0.1,0.5-0.2,0.9-0.3,1.3c-0.1,0.3-0.2,0.5-0.3,0.5c-0.3,0-0.5,0-0.8,0c-0.1,0-0.3,0-0.4,0.1
			c-0.2,0.1-0.3,0.3-0.4,0.7c-0.1,0.4-0.2,0.9-0.3,1.3c-0.1,0.4-0.2,0.7-0.2,1.1C4.1,506.9,4,507,3.9,507c-0.2,0-0.4,0-0.7,0
			c-0.2,0-0.3,0.1-0.5,0.1c-0.1,0-0.2,0.3-0.3,0.6c-0.2,0.8-0.1,2,0.2,2.2c0.1,0.1,0.2,0.1,0.2,0.1c0.2,0,0.5,0,0.7,0
			c0.1,0,0.2,0,0.3,0c0.1,0,0.2,0.1,0.3,0.5c0.1,0.5,0.2,1,0.3,1.5c0.1,0.2,0.1,0.4,0.2,0.6c0.1,0.5,0.3,0.9,0.5,1
			c0.1,0.1,0.3,0.1,0.4,0.1c0.2,0,0.5,0,0.7,0c0.1,0,0.2,0,0.3,0c0.1,0.4,0.2,0.8,0.2,1.1c0.1,0.3,0.2,0.7,0.2,1.1
			c-0.1,0.7-0.3,1.3-0.4,2c-0.1,0.3-0.2,0.4-0.3,0.4c-0.3,0-0.6,0-0.8,0c-0.1,0-0.2,0-0.2,0c-0.2,0.1-0.4,0.4-0.6,1
			c-0.1,0.3-0.1,0.7-0.2,1c-0.1,0.4-0.1,0.8-0.2,1.2c-0.1,0.4-0.2,0.5-0.3,0.6c-0.1,0-0.1,0-0.2,0c-0.3,0-0.6,0-0.9,0
			c-0.2,0-0.3,0.2-0.4,0.6c-0.2,0.8-0.1,1.6,0.1,2.1c0.1,0.2,0.2,0.3,0.2,0.3c0.1,0.1,0.2,0.1,0.3,0.1c0.3,0,0.5,0,0.8,0
			c0.1,0,0.2,0.1,0.2,0.4c0.1,0.6,0.3,1.2,0.4,1.8c0.2,0.9,0.4,1.4,0.8,1.4c0.3,0,0.6,0,0.8,0c0.1,0,0.1,0,0.2,0
			c0.1,0,0.2,0.2,0.3,0.5c0.1,0.5,0.2,1,0.3,1.4c0.1,0.2,0.1,0.4,0,0.6c-0.1,0.5-0.2,1.1-0.4,1.6c-0.1,0.3-0.2,0.5-0.3,0.5
			c-0.1,0-0.2,0-0.3,0c-0.2,0-0.5,0-0.7,0c-0.3,0-0.5,0.3-0.6,1.1c-0.1,0.5-0.2,1-0.3,1.5l0,0.2c-0.1,0.7-0.2,1-0.5,0.9
			c-0.3,0-0.6,0-0.9,0.1c-0.2,0-0.3,0.2-0.4,0.6c-0.1,0.4-0.2,1.1-0.1,1.6H5L5,539.9z"/>
		<path class="st1" d="M10.6,72.1l-0.7-3.7c-0.4-0.6-0.9-0.7-1.6-0.6c-0.3-1.1-0.3-2,0-2.7c-0.1,0.2,1.1,0.2,1.5-0.6
			c0.1-0.2,0.6-2.3,0.7-3.2C10.6,60.3,10.6,72.1,10.6,72.1"/>
		<path class="st1" d="M10.6,102.3l-0.7-3.7C9.4,98,8.9,97.9,8.3,98c-0.3-1.1-0.3-2,0-2.7c-0.1,0.2,1.1,0.2,1.5-0.6
			c0.1-0.2,0.6-2.3,0.7-3.2C10.6,90.5,10.6,102.3,10.6,102.3"/>
		<path class="st1" d="M10.6,86.8L9.8,83c-0.4-0.6-0.9-0.7-1.6-0.6c-0.3-1.1-0.3-2,0-2.7c-0.1,0.2,1.1,0.2,1.5-0.6
			c0.1-0.2,0.6-2.3,0.7-3.2C10.6,74.9,10.6,86.8,10.6,86.8"/>
		<path class="st1" d="M10.6,117.5l-0.7-3.7c-0.4-0.6-0.9-0.7-1.6-0.6c-0.3-1.1-0.3-2,0-2.7c-0.1,0.2,1.1,0.2,1.5-0.6
			c0.1-0.2,0.6-2.3,0.7-3.2C10.6,105.7,10.6,117.5,10.6,117.5"/>
		<path class="st1" d="M10.6,147.8L9.8,144c-0.4-0.6-0.9-0.7-1.6-0.6c-0.3-1.1-0.3-2,0-2.7c-0.1,0.2,1.1,0.2,1.5-0.6
			c0.1-0.2,0.6-2.3,0.7-3.2C10.6,135.9,10.6,147.7,10.6,147.8"/>
		<path class="st1" d="M10.6,132.2l-0.7-3.7c-0.4-0.6-0.9-0.7-1.6-0.6c-0.3-1.1-0.3-2,0-2.7c-0.1,0.2,1.1,0.2,1.5-0.6
			c0.1-0.2,0.6-2.3,0.7-3.2C10.6,120.3,10.6,132.2,10.6,132.2"/>
		<path class="st1" d="M10.6,162.9l-0.7-3.7c-0.4-0.6-0.9-0.7-1.6-0.6c-0.3-1.1-0.3-2,0-2.7c-0.1,0.2,1.1,0.2,1.5-0.6
			c0.1-0.2,0.6-2.3,0.7-3.2C10.6,151.1,10.6,162.9,10.6,162.9"/>
		<path class="st1" d="M10.6,193.2l-0.7-3.7c-0.4-0.6-0.9-0.7-1.6-0.6c-0.3-1.1-0.3-2,0-2.7c-0.1,0.2,1.1,0.2,1.5-0.6
			c0.1-0.2,0.6-2.3,0.7-3.2C10.6,181.3,10.6,193.1,10.6,193.2"/>
		<path class="st1" d="M10.6,177.6l-0.7-3.7c-0.4-0.6-0.9-0.7-1.6-0.6c-0.3-1.1-0.3-2,0-2.7c-0.1,0.2,1.1,0.2,1.5-0.6
			c0.1-0.2,0.6-2.3,0.7-3.2C10.6,165.7,10.6,177.6,10.6,177.6"/>
		<path class="st1" d="M10.6,208.4l-0.7-3.7c-0.4-0.6-0.9-0.7-1.6-0.6c-0.3-1.1-0.3-2,0-2.7c-0.1,0.2,1.1,0.2,1.5-0.6
			c0.1-0.2,0.6-2.3,0.7-3.2C10.6,196.5,10.6,208.4,10.6,208.4"/>
		<path class="st1" d="M10.6,239.3l-0.7-3.7c-0.4-0.6-0.9-0.7-1.6-0.6c-0.3-1.1-0.3-2,0-2.7c-0.1,0.2,1.1,0.2,1.5-0.6
			c0.1-0.2,0.6-2.3,0.7-3.2C10.6,227.5,10.6,239.3,10.6,239.3"/>
		<path class="st1" d="M10.6,223.8L9.8,220c-0.4-0.6-0.9-0.7-1.6-0.6c-0.3-1.1-0.3-2,0-2.7c-0.1,0.2,1.1,0.2,1.5-0.6
			c0.1-0.2,0.6-2.3,0.7-3.2C10.6,211.9,10.6,223.7,10.6,223.8"/>
		<path class="st1" d="M10.6,254.5l-0.7-3.7c-0.4-0.6-0.9-0.7-1.6-0.6c-0.3-1.1-0.3-2,0-2.7c-0.1,0.2,1.1,0.2,1.5-0.6
			c0.1-0.2,0.6-2.3,0.7-3.2C10.6,242.7,10.6,254.5,10.6,254.5"/>
		<path class="st1" d="M10.6,284.7L9.8,281c-0.4-0.6-0.9-0.7-1.6-0.6c-0.3-1.1-0.3-2,0-2.7c-0.1,0.2,1.1,0.2,1.5-0.6
			c0.1-0.2,0.6-2.3,0.7-3.2C10.6,272.9,10.6,284.7,10.6,284.7"/>
		<path class="st1" d="M10.6,269.1l-0.7-3.7c-0.4-0.6-0.9-0.7-1.6-0.6c-0.3-1.1-0.3-2,0-2.7c-0.1,0.2,1.1,0.2,1.5-0.6
			c0.1-0.2,0.6-2.3,0.7-3.2C10.6,257.3,10.6,269.1,10.6,269.1"/>
		<path class="st1" d="M10.6,299.9l-0.7-3.7c-0.4-0.6-0.9-0.7-1.6-0.6c-0.3-1.1-0.3-2,0-2.7c-0.1,0.2,1.1,0.2,1.5-0.6
			c0.1-0.2,0.6-2.3,0.7-3.2C10.6,288.1,10.6,299.9,10.6,299.9"/>
		<path class="st1" d="M10.6,330.9l-0.7-3.7c-0.4-0.6-0.9-0.7-1.6-0.6c-0.3-1.1-0.3-2,0-2.7c-0.1,0.2,1.1,0.2,1.5-0.6
			c0.1-0.2,0.6-2.3,0.7-3.2C10.6,319,10.6,330.9,10.6,330.9"/>
		<path class="st1" d="M10.6,315.3l-0.7-3.7c-0.4-0.6-0.9-0.7-1.6-0.6c-0.3-1.1-0.3-2,0-2.7c-0.1,0.2,1.1,0.2,1.5-0.6
			c0.1-0.2,0.6-2.3,0.7-3.2C10.6,303.5,10.6,315.3,10.6,315.3"/>
		<path class="st1" d="M10.6,346.1l-0.7-3.7c-0.4-0.6-0.9-0.7-1.6-0.6c-0.3-1.1-0.3-2,0-2.7c-0.1,0.2,1.1,0.2,1.5-0.6
			c0.1-0.2,0.6-2.3,0.7-3.2C10.6,334.2,10.6,346.1,10.6,346.1"/>
		<path class="st1" d="M10.6,376.3l-0.7-3.7c-0.4-0.6-0.9-0.7-1.6-0.6c-0.3-1.1-0.3-2,0-2.7c-0.1,0.2,1.1,0.2,1.5-0.6
			c0.1-0.2,0.6-2.3,0.7-3.2C10.6,364.5,10.6,376.3,10.6,376.3"/>
		<path class="st1" d="M10.6,360.7L9.8,357c-0.4-0.6-0.9-0.7-1.6-0.6c-0.3-1.1-0.3-2,0-2.7c-0.1,0.2,1.1,0.2,1.5-0.6
			c0.1-0.2,0.6-2.3,0.7-3.2C10.6,348.9,10.6,360.7,10.6,360.7"/>
		<path class="st1" d="M10.6,391.5l-0.7-3.7c-0.4-0.6-0.9-0.7-1.6-0.6c-0.3-1.1-0.3-2,0-2.7c-0.1,0.2,1.1,0.2,1.5-0.6
			c0.1-0.2,0.6-2.3,0.7-3.2C10.6,379.6,10.6,391.5,10.6,391.5"/>
		<path class="st1" d="M10.6,421.7L9.8,418c-0.4-0.6-0.9-0.7-1.6-0.6c-0.3-1.1-0.3-2,0-2.7c-0.1,0.2,1.1,0.2,1.5-0.6
			c0.1-0.2,0.6-2.3,0.7-3.2C10.6,409.9,10.6,421.7,10.6,421.7"/>
		<path class="st1" d="M10.6,406.1l-0.7-3.7c-0.4-0.6-0.9-0.7-1.6-0.6c-0.3-1.1-0.3-2,0-2.7c-0.1,0.2,1.1,0.2,1.5-0.6
			c0.1-0.2,0.6-2.3,0.7-3.2C10.6,394.3,10.6,406.1,10.6,406.1"/>
		<path class="st1" d="M10.6,436.9l-0.7-3.7c-0.4-0.6-0.9-0.7-1.6-0.6c-0.3-1.1-0.3-2,0-2.7c-0.1,0.2,1.1,0.2,1.5-0.6
			c0.1-0.2,0.6-2.3,0.7-3.2C10.6,425.1,10.6,436.9,10.6,436.9"/>
		<path class="st1" d="M10.6,468.7L9.8,465c-0.4-0.6-0.9-0.7-1.6-0.6c-0.3-1.1-0.3-2,0-2.7c-0.1,0.2,1.1,0.2,1.5-0.6
			c0.1-0.2,0.6-2.3,0.7-3.2C10.6,456.8,10.6,468.7,10.6,468.7"/>
		<path class="st1" d="M10.6,453.1l-0.7-3.7c-0.4-0.6-0.9-0.7-1.6-0.6c-0.3-1.1-0.3-2,0-2.7c-0.1,0.2,1.1,0.2,1.5-0.6
			c0.1-0.2,0.6-2.3,0.7-3.2C10.6,441.2,10.6,453.1,10.6,453.1"/>
		<path class="st1" d="M10.6,483.9l-0.7-3.7c-0.4-0.6-0.9-0.7-1.6-0.6c-0.3-1.1-0.3-2,0-2.7c-0.1,0.2,1.1,0.2,1.5-0.6
			c0.1-0.2,0.6-2.3,0.7-3.2C10.6,472,10.6,483.9,10.6,483.9"/>
		<path class="st1" d="M10.6,514.1l-0.7-3.7c-0.4-0.6-0.9-0.7-1.6-0.6c-0.3-1.1-0.3-2,0-2.7c-0.1,0.2,1.1,0.2,1.5-0.6
			c0.1-0.2,0.6-2.3,0.7-3.2C10.6,502.2,10.6,514.1,10.6,514.1"/>
		<path class="st1" d="M10.6,498.5l-0.7-3.7c-0.4-0.6-0.9-0.7-1.6-0.6c-0.3-1.1-0.3-2,0-2.7c-0.1,0.2,1.1,0.2,1.5-0.6
			c0.1-0.2,0.6-2.3,0.7-3.2C10.6,486.6,10.6,498.5,10.6,498.5"/>
		<path class="st1" d="M10.6,529.3l-0.7-3.7c-0.4-0.6-0.9-0.7-1.6-0.6c-0.3-1.1-0.3-2,0-2.7c-0.1,0.2,1.1,0.2,1.5-0.6
			c0.1-0.2,0.6-2.3,0.7-3.2C10.6,517.4,10.6,529.3,10.6,529.3"/>
		<path class="st1" d="M9.6,539.9c-0.4-0.3-0.8-0.4-1.3-0.3c-0.3-1.1-0.3-2,0-2.7c-0.1,0.2,1.1,0.2,1.5-0.6c0.1-0.2,0.6-2.3,0.7-3.2
			c0-0.6,0.1,3.5,0.1,6.9H9.6L9.6,539.9z"/>
	</g>
</g>
<g>
	<defs>
		<rect id="SVGID_00000022544193909552588000000009376334526632260993_" x="-0.2" y="-0.5" width="12.6" height="541"/>
	</defs>
	<clipPath id="SVGID_00000170249472938147056550000004919392711099966116_">
		<use xlink:href="#SVGID_00000022544193909552588000000009376334526632260993_"  style="overflow:visible;"/>
	</clipPath>
	<g style="clip-path:url(#SVGID_00000170249472938147056550000004919392711099966116_);">
		<path class="st2" d="M1.3,524.5l0.7,3.7c0.4,0.6,0.9,0.7,1.6,0.6c0.3,1.1,0.3,2,0,2.7c0.1-0.2-1.1-0.2-1.5,0.6
			c-0.1,0.2-0.6,2.3-0.7,3.2C1.2,536.3,1.2,524.5,1.3,524.5"/>
		<path class="st2" d="M1.3,493.5l0.7,3.7c0.4,0.6,0.9,0.7,1.6,0.6c0.3,1.1,0.3,2,0,2.7c0.1-0.2-1.1-0.2-1.5,0.6
			c-0.1,0.2-0.6,2.3-0.7,3.2C1.2,505.4,1.2,493.5,1.3,493.5"/>
		<path class="st2" d="M1.3,509.1l0.7,3.7c0.4,0.6,0.9,0.7,1.6,0.6c0.3,1.1,0.3,2,0,2.7c0.1-0.2-1.1-0.2-1.5,0.6
			C1.9,517,1.4,519,1.3,520C1.2,520.9,1.2,509.1,1.3,509.1"/>
		<path class="st2" d="M1.3,478.3L2,482c0.4,0.6,0.9,0.7,1.6,0.6c0.3,1.1,0.3,2,0,2.7c0.1-0.2-1.1-0.2-1.5,0.6
			c-0.1,0.2-0.6,2.3-0.7,3.2C1.2,490.2,1.2,478.3,1.3,478.3"/>
		<path class="st2" d="M1.3,448.1l0.7,3.7c0.4,0.6,0.9,0.7,1.6,0.6c0.3,1.1,0.3,2,0,2.7c0.1-0.2-1.1-0.2-1.5,0.6
			C1.9,456,1.4,458,1.3,459C1.2,459.9,1.2,448.1,1.3,448.1"/>
		<path class="st2" d="M1.3,463.7l0.7,3.7c0.4,0.6,0.9,0.7,1.6,0.6c0.3,1.1,0.3,2,0,2.7c0.1-0.2-1.1-0.2-1.5,0.6
			c-0.1,0.2-0.6,2.3-0.7,3.2C1.2,475.5,1.2,463.7,1.3,463.7"/>
		<path class="st2" d="M1.3,432.9l0.7,3.7c0.4,0.6,0.9,0.7,1.6,0.6c0.3,1.1,0.3,2,0,2.7c0.1-0.2-1.1-0.2-1.5,0.6
			c-0.1,0.2-0.6,2.3-0.7,3.2C1.2,444.7,1.2,432.9,1.3,432.9"/>
		<path class="st2" d="M1.3,401.9l0.7,3.7c0.4,0.6,0.9,0.7,1.6,0.6c0.3,1.1,0.3,2,0,2.7c0.1-0.2-1.1-0.2-1.5,0.6
			c-0.1,0.2-0.6,2.3-0.7,3.2C1.2,413.8,1.2,401.9,1.3,401.9"/>
		<path class="st2" d="M1.3,417.5l0.7,3.7c0.4,0.6,0.9,0.7,1.6,0.6c0.3,1.1,0.3,2,0,2.7c0.1-0.2-1.1-0.2-1.5,0.6
			c-0.1,0.2-0.6,2.3-0.7,3.2C1.2,429.4,1.2,417.5,1.3,417.5"/>
		<path class="st2" d="M1.3,386.7l0.7,3.7c0.4,0.6,0.9,0.7,1.6,0.6c0.3,1.1,0.3,2,0,2.7c0.1-0.2-1.1-0.2-1.5,0.6
			c-0.1,0.2-0.6,2.3-0.7,3.2C1.2,398.6,1.2,386.7,1.3,386.7"/>
		<path class="st2" d="M1.3,356.5l0.7,3.7c0.4,0.6,0.9,0.7,1.6,0.6c0.3,1.1,0.3,2,0,2.7c0.1-0.2-1.1-0.2-1.5,0.6
			c-0.1,0.2-0.6,2.3-0.7,3.2C1.2,368.4,1.2,356.5,1.3,356.5"/>
		<path class="st2" d="M1.3,372.1l0.7,3.7c0.4,0.6,0.9,0.7,1.6,0.6c0.3,1.1,0.3,2,0,2.7c0.1-0.2-1.1-0.2-1.5,0.6
			C1.9,380,1.4,382,1.3,383C1.2,383.9,1.2,372.1,1.3,372.1"/>
		<path class="st2" d="M1.3,341.3L2,345c0.4,0.6,0.9,0.7,1.6,0.6c0.3,1.1,0.3,2,0,2.7c0.1-0.2-1.1-0.2-1.5,0.6
			c-0.1,0.2-0.6,2.3-0.7,3.2C1.2,353.2,1.2,341.3,1.3,341.3"/>
		<path class="st2" d="M1.3,311.1l0.7,3.7c0.4,0.6,0.9,0.7,1.6,0.6c0.3,1.1,0.3,2,0,2.7c0.1-0.2-1.1-0.2-1.5,0.6
			C1.9,319,1.4,321,1.3,322C1.2,323,1.2,311.1,1.3,311.1"/>
		<path class="st2" d="M1.3,326.7l0.7,3.7c0.4,0.6,0.9,0.7,1.6,0.6c0.3,1.1,0.3,2,0,2.7c0.1-0.2-1.1-0.2-1.5,0.6
			c-0.1,0.2-0.6,2.3-0.7,3.2C1.2,338.5,1.2,326.7,1.3,326.7"/>
		<path class="st2" d="M1.3,295.9l0.7,3.7c0.4,0.6,0.9,0.7,1.6,0.6c0.3,1.1,0.3,2,0,2.7c0.1-0.2-1.1-0.2-1.5,0.6
			c-0.1,0.2-0.6,2.3-0.7,3.2C1.2,307.8,1.2,295.9,1.3,295.9"/>
		<path class="st2" d="M1.3,264.1l0.7,3.7c0.4,0.6,0.9,0.7,1.6,0.6c0.3,1.1,0.3,2,0,2.7c0.1-0.2-1.1-0.2-1.5,0.6
			c-0.1,0.2-0.6,2.3-0.7,3.2C1.2,276,1.2,264.1,1.3,264.1"/>
		<path class="st2" d="M1.3,279.7l0.7,3.7c0.4,0.6,0.9,0.7,1.6,0.6c0.3,1.1,0.3,2,0,2.7c0.1-0.2-1.1-0.2-1.5,0.6
			c-0.1,0.2-0.6,2.3-0.7,3.2C1.2,291.6,1.2,279.7,1.3,279.7"/>
		<path class="st2" d="M1.3,248.9l0.7,3.7c0.4,0.6,0.9,0.7,1.6,0.6c0.3,1.1,0.3,2,0,2.7c0.1-0.2-1.1-0.2-1.5,0.6
			c-0.1,0.2-0.6,2.3-0.7,3.2C1.2,260.8,1.2,249,1.3,248.9"/>
		<path class="st2" d="M1.3,218.7l0.7,3.7c0.4,0.6,0.9,0.7,1.6,0.6c0.3,1.1,0.3,2,0,2.7c0.1-0.2-1.1-0.2-1.5,0.6
			c-0.1,0.2-0.6,2.3-0.7,3.2C1.2,230.6,1.2,218.8,1.3,218.7"/>
		<path class="st2" d="M1.3,234.3l0.7,3.7c0.4,0.6,0.9,0.7,1.6,0.6c0.3,1.1,0.3,2,0,2.7c0.1-0.2-1.1-0.2-1.5,0.6
			c-0.1,0.2-0.6,2.3-0.7,3.2C1.2,246.2,1.2,234.3,1.3,234.3"/>
		<path class="st2" d="M1.3,203.5l0.7,3.7c0.4,0.6,0.9,0.7,1.6,0.6c0.3,1.1,0.3,2,0,2.7c0.1-0.2-1.1-0.2-1.5,0.6
			c-0.1,0.2-0.6,2.3-0.7,3.2C1.2,215.4,1.2,203.6,1.3,203.5"/>
		<path class="st2" d="M1.3,173.3l0.7,3.7c0.4,0.6,0.9,0.7,1.6,0.6c0.3,1.1,0.3,2,0,2.7c0.1-0.2-1.1-0.2-1.5,0.6
			c-0.1,0.2-0.6,2.3-0.7,3.2C1.2,185.2,1.2,173.4,1.3,173.3"/>
		<path class="st2" d="M1.3,188.9l0.7,3.7c0.4,0.6,0.9,0.7,1.6,0.6c0.3,1.1,0.3,2,0,2.7c0.1-0.2-1.1-0.2-1.5,0.6
			c-0.1,0.2-0.6,2.3-0.7,3.2C1.2,200.8,1.2,188.9,1.3,188.9"/>
		<path class="st2" d="M1.3,158.1l0.7,3.7c0.4,0.6,0.9,0.7,1.6,0.6c0.3,1.1,0.3,2,0,2.7c0.1-0.2-1.1-0.2-1.5,0.6
			c-0.1,0.2-0.6,2.3-0.7,3.2C1.2,170,1.2,158.2,1.3,158.1"/>
		<path class="st2" d="M1.3,143.5l0.7,3.7c0.4,0.6,0.9,0.7,1.6,0.6c0.3,1.1,0.3,2,0,2.7c0.1-0.2-1.1-0.2-1.5,0.6
			c-0.1,0.2-0.6,2.3-0.7,3.2C1.2,155.4,1.2,143.5,1.3,143.5"/>
		<path class="st2" d="M1.3,113.3L2,117c0.4,0.6,0.9,0.7,1.6,0.6c0.3,1.1,0.3,2,0,2.7c0.1-0.2-1.1-0.2-1.5,0.6
			c-0.1,0.2-0.6,2.3-0.7,3.2C1.2,125.2,1.2,113.3,1.3,113.3"/>
		<path class="st2" d="M1.3,128.9l0.7,3.7c0.4,0.6,0.9,0.7,1.6,0.6c0.3,1.1,0.3,2,0,2.7c0.1-0.2-1.1-0.2-1.5,0.6
			c-0.1,0.2-0.6,2.3-0.7,3.2C1.2,140.8,1.2,128.9,1.3,128.9"/>
		<path class="st2" d="M1.3,98.1l0.7,3.7c0.4,0.6,0.9,0.7,1.6,0.6c0.3,1.1,0.3,2,0,2.7c0.1-0.2-1.1-0.2-1.5,0.6
			c-0.1,0.2-0.6,2.3-0.7,3.2C1.2,110,1.2,98.1,1.3,98.1"/>
		<path class="st2" d="M1.3,67.1L2,70.8c0.4,0.6,0.9,0.7,1.6,0.6c0.3,1.1,0.3,2,0,2.7C3.6,74,2.4,74,2,74.8C1.9,75,1.4,77.1,1.3,78
			C1.2,79,1.2,67.1,1.3,67.1"/>
		<path class="st2" d="M1.3,82.7L2,86.4c0.4,0.6,0.9,0.7,1.6,0.6c0.3,1.1,0.3,2,0,2.7c0.1-0.2-1.1-0.2-1.5,0.6
			c-0.1,0.2-0.6,2.3-0.7,3.2C1.2,94.6,1.2,82.7,1.3,82.7"/>
	</g>
</g>
<rect x="2.4" y="218.8" class="st1" width="2.4" height="0.7"/>
</svg>
