<?xml version="1.0" encoding="UTF-8"?>
<svg id="Layer_1" data-name="Layer 1" xmlns="http://www.w3.org/2000/svg" xmlns:xlink="http://www.w3.org/1999/xlink" viewBox="0 0 12.38 539.76">
  <defs>
    <style>
      .cls-1 {
        fill: #f5914d;
      }

      .cls-2, .cls-3, .cls-4 {
        fill: none;
      }

      .cls-5 {
        fill: #242429;
      }

      .cls-6 {
        fill: #053838;
      }

      .cls-3 {
        clip-path: url(#clippath);
      }

      .cls-4 {
        clip-path: url(#clippath-1);
      }

      .cls-7 {
        fill: #212426;
      }

      .cls-8 {
        fill: #f2f2f2;
      }

      .cls-9 {
        fill: #2e4529;
      }
    </style>
    <clipPath id="clippath">
      <rect class="cls-2" x="-.23" y="-.53" width="12.59" height="541"/>
    </clipPath>
    <clipPath id="clippath-1">
      <rect class="cls-2" x="-.23" y="-.53" width="12.59" height="541"/>
    </clipPath>
  </defs>
  <rect class="cls-8" x="-.23" y="-.2" width="12.52" height="540.08"/>
  <g class="cls-3">
    <path class="cls-6" d="m10.58,10.76l-.74-3.72c-.39-.59-.94-.71-1.56-.63-.31-1.08-.26-1.97.04-2.74-.09.2,1.13.17,1.52-.6.11-.21.6-2.27.67-3.24.07-.94.07,10.92.07,10.92"/>
    <path class="cls-6" d="m10.58,25.96l-.74-3.72c-.39-.59-.94-.71-1.56-.63-.31-1.08-.26-1.97.04-2.74-.09.2,1.13.17,1.52-.6.11-.22.6-2.27.67-3.24.07-.94.07,10.92.07,10.92"/>
    <path class="cls-6" d="m10.58,56.94l-.74-3.72c-.39-.59-.94-.71-1.56-.63-.31-1.08-.26-1.97.04-2.74-.09.2,1.13.17,1.52-.6.11-.21.6-2.27.67-3.24.07-.94.07,10.92.07,10.92"/>
    <path class="cls-6" d="m10.58,41.35l-.74-3.72c-.39-.59-.94-.71-1.56-.63-.31-1.08-.26-1.97.04-2.74-.09.2,1.13.17,1.52-.6.11-.21.6-2.27.67-3.24.07-.94.07,10.92.07,10.92"/>
    <path class="cls-1" d="m1.26,51.93l.73,3.72c.39.59.94.71,1.56.63.31,1.08.26,1.97-.04,2.74.09-.2-1.13-.17-1.53.6-.11.21-.6,2.27-.67,3.24-.07.94-.07-10.92-.07-10.92"/>
    <path class="cls-1" d="m1.26,21.73l.73,3.72c.39.59.94.71,1.56.63.31,1.08.26,1.97-.04,2.74.09-.2-1.13-.17-1.53.6-.11.21-.6,2.27-.67,3.24-.07.94-.07-10.92-.07-10.92"/>
    <path class="cls-1" d="m1.26,37.31l.73,3.72c.39.59.94.71,1.56.63.31,1.08.26,1.97-.04,2.74.09-.2-1.13-.17-1.53.6-.11.21-.6,2.27-.67,3.24-.07.94-.07-10.92-.07-10.92"/>
    <path class="cls-1" d="m1.26,6.53l.73,3.72c.39.59.94.71,1.56.63.31,1.08.26,1.97-.04,2.74.09-.2-1.13-.17-1.53.6-.11.21-.6,2.27-.67,3.24-.07.94-.07-10.92-.07-10.92"/>
    <path class="cls-9" d="m5.24,171.82c-.1.54-.22,1.05-.33,1.59.02.11.03.2.04.27.11.5.23.98.33,1.49.08.37.17.55.31.55h.36c.16,0,.33-.04.49-.02.15.02.3.09.44.15l.04.09c.03.17.07.21.12.17l.05.04c.11.37.22.75.33,1.12l.02.07c.03.19.06.39.09.58,0,.14.01.22.05.24.05.2.09.4.14.6.02.16.03.35.09.42.02.12.05.17.09.15.03.03.05.06.08.09.05.01.09.02.14.03.03,0,.06,0,.09,0,.15,0,.3.02.45.03.16,0,.32,0,.49.01.18,0,.31.28.4.78.01.08.03.15.05.23.07.49.04.95-.06,1.36l-.03.18-.05.11c-.11.37-.26.49-.41.49-.08,0-.15,0-.23,0-.2,0-.39-.02-.59-.01-.09,0-.18.03-.28.07-.08.03-.14.16-.18.41-.05.29-.11.56-.17.84-.04.02-.06.11-.06.25-.13.68-.27,1.35-.48,1.82-.03.04-.06.09-.09.12-.07.05-.14.09-.21.14-.09-.27-.19-.21-.29-.05v.13c-.09,0-.16.04-.23.04-.2,0-.39,0-.59-.01-.14,0-.26.16-.35.57-.09.42-.2.82-.29,1.24-.03.15-.06.32-.09.49.11.65.24,1.21.38,1.77.09.37.19.55.33.53.2-.01.4,0,.59,0,.13,0,.27,0,.4.04.27.05.49.39.66,1.12.06.25.12.49.17.73.1.44.2.88.29,1.33.06.27.13.42.23.44.14.02.28.08.42.08.21,0,.43,0,.64-.02.16-.02.31.09.43.46.02.09.04.19.06.29.15.72.1,1.55-.11,2.04-.05.13-.12.2-.19.29-.03.05-.07.09-.1.13-.33,0-.65,0-.98-.02-.06,0-.11,0-.17.05-.08.06-.17.11-.22.38-.05.09-.09.23-.09.45-.03.08-.06.14-.08.24-.1.55-.23,1.02-.35,1.52-.11.5-.25.84-.44.92-.13.06-.26.1-.38.11-.28.01-.57.01-.85,0-.11,0-.19.12-.25.41-.11.51-.22,1-.33,1.5-.03.15-.06.33-.08.49.12.55.23,1.06.34,1.59.09.45.21.65.38.62.17-.03.34-.02.51,0,.17.02.34.04.51.08.27.06.5.43.67,1.22.13.63.27,1.24.39,1.88.07.38.16.59.29.61.07.02.14.03.21.03.21,0,.42-.02.64-.02.11,0,.23.02.34.05.1.01.18.15.24.41.05.22.1.46.14.71.06.38.05.75-.03,1.08-.11.5-.25.87-.44.88-.06,0-.11.01-.17.01-.27,0-.54.02-.81-.04-.19-.03-.33.22-.43.73-.11.55-.23,1.08-.35,1.62-.18.82-.42,1.3-.72,1.37-.21.05-.42.04-.64.05-.12,0-.23,0-.34,0-.16,0-.28.17-.38.62-.14.58-.27,1.18-.44,1.64-.22,0-.44,0-.65-.01-.36-.02-.72-.07-1.08-.05-.18,0-.37.06-.55-.03-.05,0-.11-.02-.16-.02,0-.1,0-.19,0-.29,0-.54.11-.82.24-.97.06-.07.12-.1.19-.11.28-.02.57-.02.85-.03.08,0,.16,0,.23.02.13.03.23-.14.31-.5.1-.47.2-.92.31-1.39.06-.25.11-.49.17-.75.15-.68.36-.99.6-1.05.13-.03.26-.04.38-.05.26-.03.51-.05.77-.07.09,0,.16-.09.21-.37.1-.55.22-1.06.35-1.52.07-.22.07-.36,0-.63-.13-.59-.27-1.17-.4-1.76-.06-.27-.14-.35-.24-.35-.29.02-.58.02-.87.02-.08,0-.15,0-.23-.03-.21-.05-.4-.34-.54-.87-.1-.37-.19-.78-.28-1.18-.09-.38-.16-.78-.25-1.18-.05-.25-.12-.38-.22-.39-.09,0-.17-.03-.26-.03-.23,0-.47,0-.7,0-.09,0-.18-.05-.27-.1-.05-.03-.1-.09-.14-.17-.15-.27-.27-.67-.28-1.27-.01-.62.1-1.08.25-1.42.05-.12.12-.16.18-.18.18-.03.37-.05.55-.05.19,0,.38,0,.57,0,.18,0,.31-.24.4-.76.1-.57.22-1.11.34-1.64.12-.53.27-.94.46-1.11.11-.09.22-.14.34-.16.19-.03.38,0,.57-.03.18-.02.37-.08.55-.12h.02v-.05c.16-.69.31-1.38.47-2.08-.03-.32-.09-.59-.15-.85-.08-.35-.16-.67-.24-1.02-.08-.37-.19-.53-.33-.51-.27.03-.54.03-.81.02-.13,0-.27-.08-.4-.15-.16-.1-.3-.38-.41-.83-.05-.25-.11-.5-.16-.75-.1-.48-.2-.98-.31-1.48-.07-.36-.17-.54-.3-.54-.32.02-.64,0-.96-.01-.05,0-.11,0-.17-.02-.23-.08-.43-.7-.48-1.43,0-.07,0-.15,0-.21.01-.55.17-1.23.34-1.35.11-.08.23-.13.34-.13.28,0,.57.02.85.02.26,0,.24.08.4-.68.09-.42.19-.85.28-1.28.02-.11.03-.25.05-.38.19-.82.44-1.32.76-1.38.07,0,.13-.02.19-.02.25,0,.5-.02.74.02.18.03.31-.19.42-.68.1-.46.21-.91.31-1.37.03-.11.03-.26.04-.42-.13-.58-.26-1.15-.38-1.73-.05-.25-.13-.37-.21-.42-.07-.04-.14-.05-.21-.05-.24,0-.48-.02-.72,0-.28.02-.55-.18-.76-.85-.17-.79-.35-1.57-.51-2.38-.07-.33-.15-.47-.27-.46-.28,0-.57,0-.85,0-.1,0-.2-.02-.3-.06-.17-.07-.3-.38-.4-.87-.1-.54-.09-1.19.05-1.64.08-.28.18-.48.3-.52.13-.04.25-.09.38-.1.26-.02.52-.02.78,0,.14.02.24-.19.32-.57.05-.24.1-.48.14-.71.08-.37.16-.75.24-1.11.21-.92.49-1.37.83-1.35.28,0,.55,0,.83,0,.09,0,.18-.02.27-.04.08-.38.17-.73.25-1.1.08-.36.18-.67.23-1.14-.02-.11-.04-.24-.06-.35-.11-.49-.23-.98-.34-1.48-.08-.37-.18-.51-.31-.5-.21.01-.41,0-.62,0-.11,0-.23-.03-.34-.04-.33,0-.58-.51-.77-1.4-.11-.51-.21-1.02-.32-1.52-.03-.14-.06-.27-.09-.41-.04-.22-.1-.32-.18-.32-.18,0-.37-.02-.55,0-.21.02-.42-.02-.64-.08-.29-.1-.41-.72-.47-1.51-.02-.28,0-.51.05-.75.09-.44.22-.69.37-.78.11-.07.22-.1.34-.11.21-.02.41,0,.62,0,.05,0,.11-.02.17,0,.18.05.29-.25.39-.71.11-.56.22-1.12.33-1.68.16-.82.39-1.25.67-1.26.32-.02.64-.02.96-.02q.27,0,.44-.71c.12-.48.23-.96.36-1.48-.03-.17-.04-.35-.07-.5-.11-.49-.22-.95-.32-1.44-.08-.41-.19-.55-.32-.55-.27,0-.54,0-.81-.01-.1,0-.2,0-.3-.05-.23-.07-.42-.38-.56-1.02-.07-.35-.14-.72-.22-1.06-.09-.43-.19-.85-.28-1.28-.04-.18-.09-.28-.16-.29-.1,0-.2-.05-.3-.05-.28,0-.57,0-.85,0-.21,0-.36-.35-.46-.96-.06-.36-.07-.73,0-1.09.09-.62.23-1.03.45-1.05.21,0,.41,0,.62,0,.18,0,.36-.03.53-.03.09,0,.16-.12.22-.36.07-.31.14-.61.2-.93.11-.58.23-1.16.38-1.65.04-.12.07-.3.1-.45.03-.02.06,0,.08-.04.13-.22.27-.27.41-.28.2,0,.41-.02.61-.02.14,0,.28,0,.42,0,.1,0,.19-.14.26-.44.11-.55.23-1.08.35-1.62.02-.09.03-.22.04-.31-.12-.69-.27-1.25-.41-1.87-.06-.3-.14-.43-.25-.43-.09,0-.18-.02-.27-.02-.27,0-.54,0-.81,0-.19,0-.34-.18-.48-.51-.2-.64-.35-1.38-.51-2.12-.2-.95-.24-1.01-.58-1.02-.21,0-.42.03-.64,0-.14,0-.28-.05-.42-.13-.2-.11-.3-.61-.35-1.22-.04-.45.07-1.32.21-1.55.09-.16.18-.28.28-.29.19-.02.38-.02.58-.03.2-.02.39-.04.59-.05.09,0,.16-.12.21-.38.09-.41.17-.82.26-1.22.09-.42.2-.82.3-1.22.11-.4.25-.63.41-.69.13-.05.25-.08.38-.09.26-.02.51-.02.76,0,.16.01.27-.18.36-.61.12-.55.25-1.05.38-1.59-.02-.18-.05-.36-.07-.51-.09-.43-.19-.84-.28-1.28-.1-.48-.24-.67-.4-.67h-.41c-.18,0-.35,0-.53,0-.34,0-.6-.48-.79-1.42-.1-.52-.21-1.03-.31-1.55-.03-.15-.07-.31-.11-.45-.05-.21-.12-.32-.21-.32h-.34c-.25,0-.51,0-.76-.02-.25-.02-.43-.47-.52-1.25-.03-.26-.02-.49.02-.75.13-.79.31-1.19.59-1.14.32.06.65.05.98,0,.13-.01.23-.17.3-.54.12-.62.25-1.22.38-1.83.07-.33.14-.67.25-.86.09-.04.18-.02.23-.35.1-.03.19-.06.29-.09.04.19.05.19.09-.01.15-.02.3-.05.44-.06.16,0,.33,0,.49,0,.08,0,.15-.08.2-.31.14-.6.28-1.2.42-1.81.01-.05.01-.13.02-.23-.07-.43-.16-.82-.26-1.21-.06-.25-.12-.47-.18-.71-.07-.28-.15-.39-.26-.39-.3.02-.59.02-.89.02-.05,0-.1,0-.15,0-.28-.04-.51-.39-.67-1.18-.14-.65-.28-1.27-.4-1.94-.08-.42-.18-.55-.32-.55-.27,0-.54,0-.81-.01-.1,0-.2-.02-.3-.05-.22-.06-.36-.5-.45-1.16-.05-.38-.03-.75.03-1.09.1-.46.22-.74.39-.78.07-.02.14-.05.21-.08.16,0,.31.05.47.04.18,0,.37-.06.55-.08.09,0,.16-.14.21-.42.01-.08.03-.16.05-.24.13-.62.26-1.25.4-1.87.14-.65.34-1.01.57-1.07.13-.04.26-.05.38-.06.24,0,.48-.01.72,0,.11,0,.2-.13.28-.43.09-.38.18-.74.27-1.12.05-.24.11-.48.15-.82-.14-.6-.27-1.21-.42-1.8-.07-.29-.16-.45-.28-.45-.07,0-.14,0-.21-.02-.31-.04-.62.08-.93-.08-.02-.09-.05-.12-.08-.05-.25-.17-.42-.75-.56-1.43,0-.14-.01-.23-.06-.25-.09-.45-.19-.88-.29-1.33,0-.32-.07-.48-.15-.62l-.04.05c-.29-.01-.58-.01-.87-.04-.14-.02-.28-.04-.42-.11-.08-.04-.15-.15-.21-.3-.27-.7-.22-2.06.1-2.52.08-.11.16-.17.25-.2.13-.04.26-.04.38-.05.23-.02.47-.04.7-.06.14-.02.25-.25.33-.67s.17-.82.26-1.24c.04-.18.07-.35.11-.52.19-.82.44-1.23.76-1.23.28,0,.57,0,.85-.02.08,0,.16-.04.23-.06.04.06.07.02.08-.12.17-.58.4-1.56.49-2.16-.02-.32-.1-.5-.16-.75-.09-.39-.19-.77-.29-1.15-.06-.25-.14-.39-.24-.39-.15,0-.3-.04-.45-.04-.21,0-.42,0-.64,0-.29,0-.5-.5-.67-1.22-.15-.64-.29-1.31-.42-1.99-.05-.28-.11-.42-.2-.42-.21,0-.42,0-.64-.02-.16,0-.33,0-.49-.01-.25-.02-.41-.51-.5-1.24-.07-.5-.02-1.02.09-1.38.11-.33.24-.53.38-.55.15-.02.3-.03.45-.04.22,0,.44-.01.66,0,.11,0,.19-.12.25-.42.09-.42.17-.82.26-1.22.08-.35.15-.68.24-1.01.19-.7.42-1.03.7-1.02.28.01.57,0,.85,0,.38,0,.36-.2.5-.92.04-.25.09-.49.14-.72.05-.24.1-.46.16-.71-.07-.29-.13-.55-.19-.82-.06-.28-.13-.58-.18-.88-.07-.39-.17-.56-.3-.58-.09-.02-.18-.03-.28-.03-.24,0-.48,0-.72,0-.33-.02-.6-.45-.79-1.4-.06-.32-.12-.65-.18-.97-.06-.32-.13-.62-.19-.94-.06-.3-.15-.42-.26-.42-.29,0-.58,0-.87-.02-.09,0-.19.02-.28-.01-.22-.06-.39-.59-.45-1.32-.02-.3-.01-.58.03-.83.08-.47.2-.82.37-.89.13-.05.27-.09.4-.1.22,0,.44.02.66.02.06,0,.13-.02.19-.03.06,0,.11-.09.15-.25.05-.22.11-.45.16-.68.12-.54.24-1.09.35-1.62.15-.69.36-1.08.62-1.11.13,0,.27-.04.4-.05.24,0,.47-.01.7,0,.13,0,.22-.12.3-.51.11-.55.24-1.06.37-1.61,0-.1-.01-.23-.03-.32-.11-.54-.22-1.07-.33-1.59-.09-.44-.22-.63-.38-.62-.29.03-.58,0-.87,0-.06,0-.13,0-.19-.03-.23-.08-.42-.42-.56-1.04-.03-.15-.07-.31-.1-.45-.13-.59-.27-1.18-.4-1.78-.07-.32-.15-.42-.25-.41-.29,0-.58,0-.87,0-.09,0-.17,0-.25-.05-.18-.09-.31-.42-.41-.92-.08-.4-.09-.83.01-1.34.1-.49.24-.81.43-.82.13,0,.25,0,.38-.02.26,0,.52,0,.79,0,.09,0,.15-.12.2-.35.11-.51.22-1,.32-1.52.13-.68.29-1.25.5-1.62.32-.24.64-.3.97-.27.14,0,.27-.01.4,0,.12.02.21-.13.28-.5.1-.5.22-.95.32-1.42.03-.11.04-.23.07-.38-.14-.6-.27-1.18-.4-1.79-.08-.38-.18-.55-.32-.53-.35.03-.69.01-1.04.01-.03-.03-.07-.06-.1-.08-.26-.18-.45-.67-.6-1.38-.12-.54-.24-1.06-.36-1.61-.09-.42-.2-.59-.34-.59-.22,0-.44,0-.66-.02-.12,0-.24,0-.36-.02-.18-.02-.33-.3-.45-.74-.12-.45-.13-.92-.05-1.45.09-.52.21-.85.38-.92.14-.05.28-.1.42-.11.26-.02.51-.03.76,0,.12.02.2-.13.27-.45.08-.35.15-.71.22-1.05.09-.42.19-.85.29-1.24.12-.46.27-.76.46-.82.12-.04.24-.08.36-.09.23-.02.47-.02.7-.02.06,0,.11,0,.17-.02.09-.04.17-.18.23-.46.12-.57.25-1.11.37-1.66.04-.03.04-.13.03-.22-.01-.15-.03-.32-.08-.34-.04-.16-.08-.32-.11-.48,0-.18-.03-.18-.07-.21,0-.06-.02-.12-.03-.19-.02-.38-.07-.68-.19-.82-.07-.16-.15-.23-.24-.22-.3,0-.61,0-.91,0-.08-.15-.17-.1-.26-.07-.26-.21-.45-.75-.6-1.5-.09-.46-.18-.91-.27-1.38-.03-.15-.06-.31-.1-.46-.05-.2-.11-.29-.18-.3-.21,0-.41-.04-.62-.05-.19,0-.38.02-.57,0-.22-.02-.41-.52-.48-1.23-.02-.24-.02-.46,0-.7.09-.74.26-1.15.49-1.2.15-.04.3,0,.45,0,.22,0,.45-.02.68,0,.13.02.21-.18.28-.53.11-.58.23-1.15.35-1.72.02-.08.03-.15.05-.24.16-.86.39-1.2.68-1.25.17-.02.34,0,.51-.02.18,0,.35-.02.53,0,.13,0,.22-.13.3-.49h1.21c-.06.11-.11.28-.16.52-.11.58-.25,1.11-.37,1.68-.14.65-.32,1.08-.56,1.2-.11.05-.22.11-.34.12-.19,0-.38-.02-.57-.02-.12,0-.24.02-.36.05-.07.02-.14.08-.19.28-.12.52-.24,1.05-.37,1.58-.06.25-.05.49,0,.72.14.6.28,1.19.43,1.79.01.13.04.2.08.1.11.02.21.06.32.07.22.02.45,0,.67.03.13.02.25.09.38.14.03.09.06.14.09.05.12.1.21.34.3.65.04.15.09.31.13.46,0,.23.05.38.11.49.02.13.04.26.06.39,0,.22.04.35.09.42.03.18.07.35.11.52,0,.14,0,.21.05.22.03.08.05.15.08.23.02.18.07.2.11.12.21.12.42.05.63.05.17,0,.34-.02.51.02.27.06.41.46.49,1.32.04.38.02.72-.06,1-.14.52-.3.85-.52.82-.21-.04-.43-.03-.64-.03-.14,0-.27.02-.4.04-.09.02-.16.15-.21.4-.03.11-.05.23-.07.35-.1.47-.2.95-.3,1.4-.2.89-.45,1.49-.8,1.51-.26,0-.52.05-.79.08-.09,0-.17.02-.26.02-.09,0-.16.13-.22.35-.09.28-.34,1.49-.41,1.95.13.69.28,1.36.45,1.98.06.22.14.32.23.33.1.02.2,0,.3,0,.26,0,.52,0,.78,0,.21.02.39.28.52.82.05.18.1.35.14.54.13.55.25,1.09.37,1.65.08.39.18.6.32.62.11.02.21.05.32.05.19,0,.38-.04.57-.05.2-.02.38.1.55.44.04.25.09.48.13.73.06.34.05.69,0,1.02-.09.56-.23.89-.42.98-.27.14-.53.08-.8.06-.11,0-.21.03-.32.04-.15.02-.27.27-.36.68-.1.46-.2.92-.31,1.39-.02.11-.05.23-.08.35-.17.78-.39,1.21-.69,1.22-.27,0-.54.03-.81.04-.39.01-.4.03-.65,1.04-.08.31-.14.66-.21.98-.05.19-.05.4,0,.59.12.53.24,1.07.36,1.58.06.25.15.37.24.39.06,0,.11.01.17.02.19,0,.38,0,.57,0,.23-.01.45.07.67.24.19.41.34.93.47,1.55.09.43.18.85.26,1.31.07.39.16.59.29.61.18.02.35.05.53.06.21,0,.41-.02.62.02.24.04.39.52.47,1.25.01.09.02.18.03.27-.03.27-.05.54-.08.81l-.03.08c-.12.49-.28.7-.47.69-.22-.02-.44-.02-.66-.03-.16,0-.31,0-.46.14-.09.07-.15.2-.2.46-.09.42-.17.82-.26,1.22-.1.41-.19.83-.3,1.22-.09.33-.2.55-.33.62-.11.05-.22.12-.34.14-.24.03-.48.02-.72.05-.09,0-.17.03-.25.05-.07.02-.13.1-.17.28-.13.54-.26,1.09-.38,1.64-.02.11-.03.25-.04.36.01.11.02.18.03.23.12.54.24,1.07.36,1.61.05.25.12.38.22.38.07,0,.14,0,.21,0,.28,0,.55,0,.83.02.28,0,.51.36.69,1.06.15.59.3,1.21.41,1.92,0,.37.06.57.17.59.24.18.49.17.74.15.16,0,.31-.02.47-.03.2-.02.35.32.47.84.14.6.14,1.15-.05,1.79-.12.41-.27.62-.44.62-.28-.02-.55-.02-.83-.02-.1,0-.2.05-.3.08-.1-.03-.17.12-.19.45-.1.45-.19.9-.29,1.34-.07.32-.15.63-.23.93-.11.42-.26.69-.42.79-.11.07-.22.11-.34.11-.28,0-.57,0-.85-.02-.14,0-.24.18-.32.58-.1.52-.21,1.02-.34,1.47-.02.06-.03.16-.04.25.02.1.03.18.05.26.11.52.23,1.02.34,1.55.07.33.15.48.26.51.03,0,.07.01.11,0,.19,0,.38-.02.57-.02s.4,0,.59.15c.03.18.07.2.12.11.09.06.17.24.23.47.15.5.27,1.04.38,1.63.05.29.11.56.16.86.06.34.15.52.26.55.09.04.18.05.28.05.26,0,.51-.02.77-.02.2,0,.39.17.53.74v.07c.1.55.09,1.09-.02,1.61l-.02.13c-.18.57-.39.58-.61.57-.04,0-.07-.03-.11-.02-.25.01-.51.03-.76.05-.11,0-.2.19-.27.51-.08.39-.17.77-.25,1.17-.1.51-.21.95-.34,1.39-.07.25-.16.39-.26.47-.21.15-.42.22-.63.22-.22,0-.45.01-.68.01-.11,0-.21.11-.28.41-.14.58-.26,1.18-.39,1.78-.03.11-.03.21.02.25.03.12.05.22.08.33,0,.15,0,.23.05.25.02.12.05.23.07.34,0,.15.01.23.06.25.05.21.09.42.14.62.07.28.16.41.26.38.07-.01.14-.02.21-.02.31,0,.62.02.93.03.03.02.06.03.09.04.16.14.29.42.39.82.08.32.16.66.24,1.01.07.35.14.72.21,1.08.08.41.19.66.33.7.13.03.25.05.38.05.22,0,.44-.03.66-.03.27,0,.44.48.54,1.28.04.32.03.65-.02.96-.09.5-.22.79-.39.88-.09.05-.18.08-.27.09-.23.02-.47.02-.7.04-.09,0-.18.02-.28.07-.09.05-.16.19-.2.48-.02.15-.05.29-.08.43-.13.72-.29,1.35-.47,1.94-.09.3-.2.53-.33.59-.15.07-.29.15-.44.17-.27.02-.54.03-.81,0-.14-.01-.24.15-.32.55-.1.52-.21,1.01-.32,1.52-.01.07-.02.17-.03.29.13.6.26,1.19.39,1.79.07.35.17.48.29.46.22-.02.45-.04.68,0,.2.04.39.14.59.22.13.06.24.29.32.63.14.58.29,1.18.43,1.78.04.17.08.35.11.52.08.35.18.53.31.56.12.03.24.04.36.04.21,0,.41-.05.62,0,.4.06.41.21.59,1.11.06.57-.03,1.01-.12,1.43-.09.41-.21.62-.36.62s-.31,0-.46,0c-.07,0-.14.02-.21.04-.15-.02-.29-.03-.44-.04-.1,0-.17.15-.23.43-.14.64-.28,1.25-.42,1.89-.19.87-.45,1.3-.76,1.37-.11.02-.22.02-.34.02-.21,0-.42.02-.64.02-.14,0-.24.16-.33.54-.11.48-.22.93-.33,1.41-.07.29-.06.42,0,.71.09.42.2.81.28,1.25.1.52.23.71.41.7.24-.02.48,0,.72.01.13.02.26.05.38.09.2.07.36.38.49.89.06.22.11.44.16.67.11.51.21,1.02.31,1.54.05.25.11.42.2.45.1.05.2.07.3.08.24,0,.48,0,.72,0,.15,0,.29.06.43.3.07.28.14.55.2.84.06.3.05.62,0,.95-.11.69-.27,1.08-.51,1.07-.25,0-.49-.03-.74-.04-.11,0-.21.02-.32.04-.14.04-.24.28-.31.66-.07.36-.14.71-.21,1.08-.1.51-.22.94-.35,1.35-.09.27-.18.44-.3.53-.14.11-.28.17-.42.16-.22,0-.44,0-.66,0-.08,0-.16.02-.23.05-.06.02-.12.12-.16.29-.13.53-.27,1.05-.4,1.59-.06.25-.06.39,0,.65.12.56.25,1.12.37,1.65.03.12.08.21.12.25.07.06.15.1.23.11.24,0,.47,0,.7,0,.15,0,.3.05.44.08.07.07.15.14.22.21.03.06.06.11.08.17.19.82.38,1.61.55,2.45.1.46.22.7.37.75.11.14.23.23.37.23.13,0,.24-.08.34-.19.14,0,.28.02.42.04.1.02.19.17.27.39.04.12.07.23.11.35v.06c.1.41.11.85.04,1.31q-.2.82-.46,1.07s-.06.02-.09.02c-.18,0-.37,0-.55,0h-.17c-.06,0-.11,0-.17-.02-.22-.04-.38.24-.49.88-.11.59-.24,1.13-.36,1.68-.15.67-.34,1.05-.59,1.09-.12.01-.24.04-.36.05-.25.01-.5.03-.74.02-.13,0-.23.11-.31.48-.1.49-.22.95-.32,1.42-.07.32-.07.44,0,.77.08.39.17.76.25,1.15.11.53.26.81.45.78.04,0,.07,0,.11,0,.23,0,.45,0,.68-.01.13,0,.27.07.4.16.18.12.32.42.42.89.14.63.29,1.25.41,1.92.09.51.2.79.38.71.1.04.21.09.31.1.16,0,.33-.02.49-.02.1,0,.2,0,.3.04.24.08.41.61.45,1.39.02.3,0,.58-.05.81-.13.49-.27.88-.49.86-.29-.02-.58,0-.87.02-.13,0-.25.05-.38.08-.12.59-.23,1.14-.35,1.68-.07.31-.13.62-.2.92-.18.7-.41,1.08-.69,1.07-.29-.02-.58,0-.87,0-.06,0-.11,0-.17.02-.09.04-.17.14-.22.39-.12.55-.25,1.11-.37,1.66-.04.2-.04.39,0,.59.13.54.26,1.08.39,1.62.05.2.11.3.18.32.1.02.2.05.3.05.28.02.55.04.83.05.26,0,.47.35.62,1.04.13.57.26,1.15.39,1.72.03.11.05.23.07.35.07.34.17.51.29.51.21,0,.43.02.64.02.15,0,.3,0,.45,0,.26,0,.41.54.52,1.27.02.16.02.39,0,.56-.04.63-.29,1.4-.49,1.36-.24-.05-.48-.02-.72-.02-.13,0-.26.02-.38.02-.14,0-.23.22-.31.61-.14.68-.31,1.32-.45,1.99-.16.74-.39,1.02-.64,1.07-.13.03-.27.02-.4.03-.19,0-.38,0-.57,0-.17,0-.31.21-.41.73"/>
    <path class="cls-7" d="m.62,98.07c0,10.94,0,21.88,0,32.81,0,6.8,0,13.59,0,20.39v62.52c0,4.31,0,8.63,0,12.94,0,2.26,0,4.53,0,6.79,0,.24-.01.48-.02.72-.04,0-.08.02-.12.03-.22,0-.45,0-.67,0,0-.21-.02-.42-.02-.63,0-.84,0-1.69,0-2.53C-.22,154.08-.22,77.04-.22,0h.83v2.86c0,7.81,0,15.62,0,23.42,0,7.04,0,14.08,0,21.11,0,6.17,0,12.34,0,18.51,0,5.6,0,11.18,0,16.77,0,5.13,0,10.26,0,15.4"/>
    <path class="cls-5" d="m12.35-.53v234.32l-.04.08c-.06.03-.12.06-.19.08-.04-.02-.07-.04-.11-.06-.05-.17-.04-.37-.04-.55,0-1.5,0-3.01,0-4.51v-77.24c0-16.12,0-32.24,0-48.36,0-8.96,0-17.94,0-26.9v-40.04c0-.22,0-.45,0-.67V3.56c0-1.19,0-2.38,0-3.58,0-.17,0-.34,0-.52h.38Z"/>
    <path class="cls-7" d="m.59,424.24c0,10.88,0,21.76,0,32.64,0,6.76,0,13.51,0,20.27v62.73H-.22c0-101.54,0-203.1,0-304.64,0-.17,0-.34-.01-.5v-.15h.81c0,.19,0,.38,0,.58,0,4.41,0,8.82,0,13.22,0,6.26,0,12.51,0,18.77,0,5.63,0,11.26,0,16.89,0,8.55,0,17.1,0,25.66,0,6.62,0,13.23,0,19.84,0,7.76,0,15.53,0,23.29,0,7,0,14,0,21,0,6.13,0,12.27,0,18.4,0,5.57,0,11.12,0,16.68,0,5.1,0,10.2,0,15.31"/>
    <path class="cls-5" d="m11.97,539.88v-94.73c0-22.35,0-44.71,0-67.06,0-12.44,0-24.87,0-37.31v-55.53c0-.31,0-.62,0-.93v-44.47c0-1.65,0-3.3,0-4.96,0-.24,0-.48,0-.71h.34v305.7h-.34Z"/>
    <path class="cls-9" d="m4.98,539.88l-.04-.19c-.03-.13-.05-.29-.07-.45.13-.76.29-1.44.46-2.08.05-.18.11-.23.17-.24.06,0,.13.01.19.01.3-.01.59-.02.89-.04.26,0,.47-.37.64-1.07.17-.68.34-1.36.47-2.13.05-.29.12-.47.22-.48.12-.01.24-.05.36-.06.18,0,.37.02.55,0,.1,0,.2,0,.3-.05.21-.11.37-.47.44-1.17.03-.27.03-.52,0-.77-.09-.62-.24-1.02-.44-1.07-.2-.05-.4-.03-.6-.04-.12,0-.24,0-.36,0-.05,0-.1.01-.15,0-.15-.05-.27-.22-.35-.68-.09-.54-.21-1.03-.31-1.52-.05-.23-.11-.45-.17-.65-.16-.55-.35-.81-.57-.84-.23-.03-.47-.04-.7-.07-.13-.02-.27-.05-.4-.07-.08-.02-.15-.12-.2-.34-.13-.54-.26-1.07-.39-1.61-.05-.19-.05-.39,0-.59.06-.28.13-.58.19-.85.08-.35.17-.7.27-1.09.11-.02.24-.05.37-.05.22,0,.44,0,.66.02.16,0,.32-.09.48-.25.13-.13.25-.37.33-.73.09-.39.19-.78.28-1.18,0-.14.01-.22.05-.25l.04-.19c0-.23.03-.42.09-.55.03-.1.07-.21.1-.32,0-.1.02-.14.05-.11.11-.15.23-.18.35-.18.27,0,.54,0,.81.03.13,0,.25-.08.37-.31.08-.15.14-.35.18-.6.1-.55.08-1.11-.04-1.59-.13-.52-.28-.77-.48-.75-.28.03-.57.02-.85.01-.35,0-.35-.01-.56-1-.1-.49-.21-.95-.32-1.43-.18-.78-.42-1.19-.71-1.23-.12-.02-.24-.03-.36-.03-.21-.01-.43-.02-.64-.02-.14,0-.24-.16-.32-.56-.08-.42-.18-.79-.28-1.19-.04-.16-.07-.34-.1-.5.01-.11.01-.18.03-.24.11-.5.22-.99.33-1.5.09-.42.21-.61.36-.61.29.01.58.02.87,0,.12,0,.24-.07.36-.14.18-.11.33-.45.43-.95.14-.66.29-1.31.42-1.99.09-.46.19-.68.35-.68.18,0,.35,0,.53,0,.21,0,.42.05.63-.09.2-.15.37-.69.41-1.39,0-.11,0-.24,0-.35-.01-.16-.04-.31-.06-.46-.02-.06-.04-.12-.06-.19-.12-.45-.28-.65-.46-.66h-.23c-.24,0-.48,0-.72.01-.16,0-.28-.18-.37-.66-.11-.59-.24-1.13-.35-1.7-.16-.74-.35-1.25-.63-1.31-.11-.02-.22-.08-.34-.09-.2-.01-.4,0-.59,0-.07,0-.14,0-.21-.01-.09-.02-.18-.12-.24-.39-.12-.49-.23-.98-.34-1.47-.04-.17-.08-.35-.07-.58.11-.5.23-.98.33-1.5.09-.49.2-.66.35-.65.22,0,.44,0,.66,0,.1,0,.21,0,.32-.01.31-.05.58-.42.76-1.35.02-.1.05-.18.07-.28.09-.42.19-.84.28-1.27.1-.49.24-.75.41-.78.13-.01.26,0,.38,0,.15,0,.3.02.45.05.18.04.35-.08.5-.42.06-.25.11-.49.16-.75.07-.38.07-.75-.01-1.13-.07-.35-.16-.64-.28-.81-.04-.06-.08-.11-.12-.15-.07,0-.14-.01-.21-.02h-.59c-.07,0-.14.02-.21.03-.17.03-.32-.19-.43-.62-.08-.31-.15-.64-.22-.95-.1-.41-.19-.83-.29-1.23-.13-.5-.3-.74-.48-.8-.1-.03-.2-.05-.3-.05-.27,0-.54,0-.81,0-.04,0-.08,0-.13,0-.05,0-.1-.07-.13-.22-.14-.61-.27-1.22-.41-1.83-.05-.2-.03-.39,0-.59.08-.37.15-.75.23-1.12.04-.18.08-.34.12-.49.06-.25.14-.36.24-.36.2,0,.4.02.59,0,.18-.01.37-.05.55-.1.28-.08.5-.52.66-1.29.12-.6.25-1.17.36-1.78.08-.4.18-.6.31-.63.06-.01.11-.02.17-.02.25,0,.5.02.74.03.07,0,.15,0,.23,0,.11-.01.19-.16.26-.42.08-.28.14-.6.2-.93,0-.18-.02-.37-.03-.55-.13-.82-.32-1.28-.62-1.23-.31.04-.62,0-.93,0h-.21c-.06-.29-.11-.54-.17-.79-.12-.57-.25-1.15-.38-1.72-.18-.78-.41-1.23-.71-1.22-.08,0-.15-.01-.23-.01-.21,0-.41,0-.62,0-.08,0-.17-.05-.25-.06-.08-.02-.14-.16-.19-.39-.11-.51-.22-1-.33-1.49-.06-.25-.06-.38,0-.65.09-.45.18-.91.28-1.36.02-.1.05-.18.07-.29.05-.23.11-.35.2-.36.09,0,.18-.03.27-.04.2,0,.4.02.6,0,.11,0,.23-.03.34-.07.23-.08.44-.38.58-1.04.05-.22.1-.41.14-.62.07-.33.14-.66.2-1.01.13-.71.3-1.04.55-.99.23.05.47,0,.7.01.17.01.34-.05.49-.28.07-.26.15-.49.2-.83.07-.57.05-1.02-.08-1.44-.11-.36-.25-.55-.4-.57-.16-.02-.33-.02-.49-.03-.15,0-.3,0-.45,0-.2,0-.36-.28-.49-.85-.12-.58-.26-1.13-.39-1.71-.17-.79-.4-1.14-.67-1.18-.29-.04-.58-.01-.87-.03-.1,0-.2-.04-.3-.07-.06-.02-.11-.13-.14-.31-.11-.59-.23-1.14-.38-1.62-.01-.05-.02-.13-.03-.22.08-.49.18-.95.3-1.36.01-.08.03-.17.04-.25.2-.9.2-.75.44-.77.24-.02.48,0,.72-.02.12,0,.25-.05.38-.11.17-.09.32-.34.44-.82.03-.15.08-.29.11-.44.13-.58.26-1.15.38-1.72.09-.41.19-.61.34-.61h.15c.23,0,.47.03.7.03.09,0,.18,0,.27-.03.14-.05.26-.32.35-.69,0-.42.03-.82.08-1.2-.04-.45-.15-.89-.3-1.1-.07-.09-.14-.15-.2-.18-.06-.03-.13-.02-.19-.03-.26,0-.51-.01-.77,0-.18.02-.33-.15-.43-.71-.11-.58-.24-1.11-.37-1.68-.14-.65-.32-1.08-.56-1.19-.11-.05-.23-.11-.34-.11-.19-.02-.38.01-.57.01-.12,0-.24-.02-.36-.06-.07-.02-.14-.08-.19-.28-.12-.53-.25-1.06-.37-1.59-.06-.25-.05-.49,0-.72.14-.6.28-1.19.43-1.79.01-.14.03-.2.07-.11.11-.02.21-.06.32-.07.22-.01.45,0,.68-.02.12-.02.25-.09.38-.15.03-.09.06-.13.09-.05.12-.09.21-.34.3-.65.04-.15.09-.3.13-.45.01-.23.05-.39.11-.5.02-.13.04-.25.06-.38,0-.21.04-.35.09-.42.04-.17.07-.35.11-.51-.01-.15,0-.22.05-.23.02-.08.05-.15.07-.23.03-.18.07-.2.12-.11.21-.12.42-.05.64-.05.17,0,.34.02.51-.02.27-.05.41-.45.49-1.32.04-.38.02-.71-.06-1-.14-.51-.3-.85-.52-.82-.21.03-.42.03-.64.03-.13,0-.27-.03-.4-.05-.09-.01-.16-.15-.22-.4-.03-.12-.05-.23-.08-.35-.1-.46-.2-.94-.3-1.39-.2-.9-.46-1.5-.8-1.52-.26,0-.52-.05-.79-.08-.08,0-.17-.01-.25-.01-.09,0-.16-.14-.22-.35-.09-.29-.34-1.5-.41-1.96.13-.69.28-1.35.45-1.98.06-.22.14-.32.23-.33.1,0,.2,0,.3,0,.26,0,.52.01.78,0,.21,0,.39-.28.53-.81.05-.18.09-.35.14-.55.13-.55.26-1.08.37-1.65.08-.38.18-.6.32-.62.11-.01.21-.05.32-.05.19,0,.38.04.57.06.2.01.38-.11.55-.45.05-.24.09-.48.13-.72.06-.35.05-.69-.01-1.03-.09-.56-.23-.88-.42-.98-.27-.14-.54-.07-.8-.06-.11,0-.21-.02-.32-.04-.15-.01-.27-.27-.36-.68-.1-.47-.2-.92-.3-1.38-.02-.12-.05-.23-.08-.35-.17-.79-.4-1.21-.69-1.22-.27,0-.54-.03-.81-.04-.39-.01-.4-.02-.65-1.04-.08-.31-.14-.65-.22-.98-.05-.2-.05-.4,0-.6.12-.53.24-1.06.37-1.59.06-.25.15-.36.24-.38.06-.02.12-.03.17-.03.19,0,.38-.02.57,0,.23.01.45-.06.67-.22.18-.41.34-.94.46-1.55.09-.43.18-.86.26-1.32.07-.38.16-.58.29-.61.18-.02.35-.05.53-.05.2-.02.41,0,.61-.02.24-.04.39-.52.47-1.26.01-.08.02-.18.03-.26-.03-.27-.05-.54-.08-.82l-.03-.09c-.12-.49-.28-.7-.47-.68-.22.02-.44,0-.66.02-.16.01-.31,0-.46-.13-.09-.08-.15-.21-.21-.46-.08-.41-.17-.82-.26-1.22-.09-.42-.19-.83-.29-1.22-.09-.34-.2-.55-.33-.62-.11-.06-.22-.12-.34-.14-.24-.03-.48-.03-.72-.05-.08,0-.17-.04-.25-.06-.07-.01-.13-.1-.17-.27-.13-.55-.25-1.09-.38-1.65-.03-.11-.03-.25-.04-.35.01-.11.02-.18.03-.24.12-.54.24-1.06.36-1.6.05-.25.12-.38.22-.39.07,0,.14,0,.21,0,.28,0,.55,0,.83,0,.28,0,.51-.37.69-1.07.15-.59.3-1.21.41-1.91,0-.37.06-.57.17-.59.25-.17.49-.16.74-.15.16.01.31.02.47.03.2.02.35-.32.47-.83.14-.6.14-1.15-.05-1.8-.12-.41-.27-.62-.44-.61-.27.02-.55.02-.83,0-.1,0-.2-.05-.3-.08-.1.04-.17-.11-.19-.45-.09-.45-.19-.9-.29-1.34-.07-.32-.15-.62-.23-.93-.11-.42-.26-.68-.42-.79-.11-.07-.22-.11-.34-.11-.28,0-.57,0-.85.02-.14,0-.24-.18-.32-.58-.1-.53-.21-1.03-.34-1.47-.02-.07-.03-.16-.04-.25.02-.09.03-.18.05-.25.11-.52.23-1.02.34-1.56.07-.33.15-.48.26-.51.04,0,.07,0,.11,0,.19,0,.38.02.57.02.2,0,.4.01.59-.15.03-.17.07-.19.12-.11.09-.05.16-.24.23-.47.14-.49.27-1.04.38-1.62.05-.29.11-.57.15-.85.06-.35.15-.51.26-.56.09-.03.18-.05.28-.05.26,0,.51.02.76.02.2,0,.39-.17.53-.74v-.07c.1-.55.1-1.08-.02-1.61l-.02-.12c-.17-.57-.39-.59-.61-.57-.04,0-.07.02-.11.02-.25-.01-.51-.04-.77-.05-.12,0-.2-.19-.27-.5-.08-.39-.17-.77-.25-1.17-.1-.51-.22-.96-.34-1.39-.07-.25-.16-.4-.26-.47-.21-.15-.42-.22-.63-.23-.23,0-.45-.01-.68,0-.11,0-.21-.11-.28-.41-.14-.58-.26-1.19-.39-1.77-.03-.12-.03-.21.02-.25.03-.11.05-.22.08-.33,0-.15,0-.23.05-.24.03-.11.05-.23.07-.35,0-.14.01-.23.05-.25.05-.21.1-.42.14-.62.07-.28.15-.4.26-.38.07.02.14.02.21.02.31,0,.62-.02.93-.02.03-.01.06-.03.09-.05.15-.13.28-.41.39-.82.08-.32.16-.66.24-1.01.08-.35.14-.71.21-1.08.08-.41.18-.66.33-.7.13-.03.25-.05.38-.05.22,0,.44.03.66.03.27,0,.44-.48.54-1.27.05-.33.03-.65-.02-.96-.09-.51-.22-.79-.4-.89-.09-.05-.18-.08-.27-.08-.24-.02-.47-.01-.7-.03-.09,0-.18-.03-.27-.08-.09-.05-.16-.18-.2-.48-.02-.15-.05-.28-.08-.42-.13-.73-.29-1.36-.47-1.94-.1-.31-.2-.54-.33-.59-.15-.06-.29-.15-.44-.16-.27-.03-.54-.03-.81,0-.14.02-.24-.15-.32-.55-.1-.51-.22-1.02-.32-1.52-.01-.08-.02-.18-.03-.29.13-.6.26-1.19.39-1.8.07-.35.16-.47.29-.46.23.02.45.04.68,0,.2-.03.39-.13.59-.22.13-.06.24-.29.33-.63.14-.59.29-1.19.43-1.78.04-.17.08-.35.12-.52.07-.35.18-.53.31-.57.12-.03.24-.04.36-.04.2,0,.41.05.61.01.4-.06.41-.21.59-1.11.06-.58-.02-1.02-.12-1.44-.09-.41-.21-.62-.36-.62-.15,0-.31,0-.46,0-.07,0-.14-.03-.21-.05-.15.02-.3.03-.44.04-.1,0-.17-.15-.23-.42-.14-.64-.28-1.26-.42-1.9-.19-.86-.45-1.3-.76-1.36-.11-.02-.23-.01-.34-.02-.21,0-.42-.02-.64-.01-.14,0-.25-.16-.33-.54-.11-.48-.22-.93-.33-1.41-.06-.29-.06-.42,0-.71.09-.42.2-.81.28-1.25.1-.53.24-.72.41-.7.24.01.48,0,.72-.02.13,0,.26-.04.38-.09.2-.07.36-.38.49-.89.05-.22.11-.45.16-.68.11-.51.21-1.02.32-1.53.05-.26.12-.42.2-.46.1-.04.2-.07.3-.07.24-.02.48,0,.72,0,.15,0,.3-.06.43-.3.07-.28.14-.54.19-.84.06-.3.06-.62,0-.95-.11-.69-.28-1.08-.51-1.07-.25.02-.5.04-.74.05-.11,0-.21-.01-.32-.05-.14-.03-.24-.27-.31-.66-.07-.36-.14-.71-.21-1.08-.1-.5-.22-.92-.35-1.34-.08-.27-.18-.44-.3-.52-.14-.12-.28-.18-.42-.17-.22,0-.44,0-.66,0-.08,0-.16-.01-.23-.05-.07-.02-.12-.12-.17-.29-.13-.53-.26-1.05-.4-1.59-.06-.24-.06-.39,0-.65.12-.56.24-1.12.37-1.66.03-.12.08-.21.12-.25.07-.06.15-.1.23-.1.23-.01.47,0,.7,0,.15-.02.3-.06.45-.09.07-.07.15-.14.22-.21.03-.05.05-.12.08-.17.19-.81.38-1.6.55-2.44.1-.46.21-.7.37-.75.11-.15.23-.24.38-.24.12,0,.23.08.34.19.14,0,.28-.01.42-.04.11,0,.19-.16.27-.39.04-.11.07-.23.1-.35v-.07c.1-.42.11-.85.04-1.31q-.2-.82-.46-1.07s-.05,0-.09-.02c-.18,0-.36,0-.55,0h-.17c-.06,0-.11.01-.17.02-.21.04-.38-.23-.49-.89-.11-.58-.24-1.13-.36-1.68-.15-.66-.35-1.05-.59-1.09-.12-.01-.24-.04-.36-.05-.25,0-.49-.03-.74-.02-.13,0-.23-.12-.31-.49-.1-.49-.22-.94-.32-1.42-.07-.32-.07-.44,0-.77.08-.39.17-.76.25-1.15.11-.53.26-.81.45-.78h.11c.22,0,.45.02.68.02.14,0,.27-.08.4-.17.18-.12.32-.41.42-.88.14-.63.29-1.25.41-1.92.1-.51.2-.78.38-.71.1-.03.21-.09.31-.1.16,0,.32.02.49.02.1,0,.2,0,.3-.04.23-.08.4-.62.45-1.39.02-.31,0-.58-.06-.81-.13-.5-.27-.88-.49-.87-.29.01-.58,0-.87,0-.13,0-.25-.05-.37-.08-.12-.59-.24-1.14-.35-1.68-.07-.32-.13-.63-.21-.92-.18-.71-.41-1.09-.69-1.07-.29.02-.58,0-.87,0-.06,0-.12,0-.17-.02-.09-.04-.16-.15-.22-.4-.12-.55-.25-1.11-.37-1.66-.05-.2-.04-.39,0-.58.13-.55.26-1.08.39-1.63.05-.2.11-.3.18-.32.1-.02.2-.05.3-.05.28-.02.55-.05.83-.05.26,0,.47-.35.62-1.04.13-.57.26-1.15.39-1.72.02-.12.05-.23.07-.35.07-.34.17-.51.29-.52.21,0,.42,0,.64-.02.15,0,.3,0,.45,0,.26,0,.41-.55.52-1.28.02-.15.02-.38,0-.55-.05-.63-.3-1.39-.5-1.36-.24.05-.48.02-.72.02-.13,0-.25-.02-.38-.02-.14,0-.23-.22-.31-.62-.14-.68-.3-1.32-.45-1.99-.16-.74-.39-1.01-.64-1.07-.14-.02-.27-.02-.4-.02-.19,0-.38,0-.57,0-.17,0-.31-.21-.41-.72-.1-.55-.22-1.06-.33-1.59.02-.11.03-.19.04-.27.11-.49.23-.98.34-1.49.07-.36.17-.55.3-.55.12,0,.24,0,.36,0,.16,0,.33.04.49.02.15-.02.29-.09.44-.14l.04-.09c.03-.17.07-.22.12-.18l.05-.03c.11-.38.22-.75.33-1.12v-.07c.04-.19.07-.38.1-.58,0-.14.02-.22.06-.25.05-.2.09-.4.14-.6.03-.15.03-.35.09-.42.02-.11.04-.16.08-.15.03-.03.05-.05.08-.08.04,0,.09-.02.13-.03h.08c.15-.01.3-.03.44-.04.16,0,.32,0,.49-.02.18,0,.31-.27.4-.78.02-.08.03-.15.05-.23.07-.49.05-.94-.05-1.35l-.03-.19-.05-.11c-.12-.36-.26-.49-.41-.48-.08,0-.15,0-.23,0-.2,0-.4.01-.59.01-.09,0-.18-.04-.27-.07-.08-.03-.14-.17-.19-.42-.05-.29-.11-.55-.17-.83-.04-.03-.06-.12-.06-.25-.13-.68-.27-1.36-.48-1.81-.03-.05-.06-.08-.09-.13-.07-.05-.14-.09-.21-.14-.09.27-.19.21-.28.05l-.02-.12c-.07-.02-.14-.05-.21-.05-.2,0-.4,0-.59.01-.15,0-.26-.16-.35-.56-.1-.43-.2-.82-.29-1.24-.03-.15-.06-.32-.09-.5.11-.65.24-1.21.38-1.77.08-.37.19-.54.33-.53.2.02.4.01.6,0,.13,0,.27,0,.4-.03.27-.06.49-.39.66-1.13.06-.25.12-.49.17-.73.1-.44.2-.88.29-1.32.06-.27.13-.43.23-.45.14-.01.28-.08.42-.08.21,0,.42,0,.64.02.16.02.31-.08.43-.45.02-.1.04-.2.06-.3.15-.72.11-1.55-.11-2.04-.06-.13-.12-.2-.19-.29-.03-.05-.06-.08-.1-.13-.32,0-.65.01-.98.01-.06,0-.11,0-.17-.04-.08-.06-.17-.11-.22-.39-.06-.09-.09-.23-.09-.44-.03-.08-.06-.15-.08-.24-.1-.55-.23-1.02-.35-1.53-.12-.5-.25-.84-.44-.92-.13-.05-.26-.1-.38-.1-.28-.02-.57-.02-.85,0-.11,0-.19-.12-.25-.42-.11-.5-.22-.99-.33-1.5-.03-.15-.05-.32-.08-.49.12-.55.23-1.05.35-1.58.09-.45.21-.66.38-.62.17.03.34.02.51,0,.17,0,.34-.04.51-.08.28-.07.5-.44.67-1.22.13-.63.27-1.24.39-1.88.07-.38.16-.59.29-.61.07-.02.14-.03.21-.02.21,0,.42.02.64.02.11,0,.23-.02.34-.05.1-.02.18-.16.24-.42.05-.21.1-.45.14-.71.06-.37.05-.75-.03-1.08-.11-.5-.24-.87-.44-.88-.06,0-.11-.02-.17-.02-.27,0-.54-.02-.8.03-.19.04-.32-.21-.43-.73-.11-.55-.24-1.08-.35-1.62-.18-.82-.41-1.3-.72-1.37-.21-.05-.42-.04-.64-.05-.11,0-.23,0-.34,0-.16,0-.28-.17-.38-.62-.13-.58-.26-1.19-.44-1.65-.22,0-.44,0-.65.02-.36.02-.72.07-1.08.05-.18-.02-.37-.06-.55.03-.05,0-.1.02-.16.02,0,.09,0,.19,0,.29,0,.54.1.82.24.98.06.07.12.1.19.1.28.02.57.03.85.04.08,0,.16,0,.23-.03.13-.03.23.15.31.51.1.46.2.92.3,1.38.05.25.11.49.17.74.15.68.36.99.6,1.05.13.04.26.04.38.05.25.02.51.05.76.06.09,0,.16.1.21.38.1.55.22,1.05.35,1.52.07.23.07.36.01.63-.13.59-.27,1.18-.41,1.76-.06.27-.14.35-.24.35-.29-.02-.58-.02-.87-.02-.08,0-.16.01-.23.03-.22.06-.4.34-.54.88-.1.37-.19.78-.28,1.18-.08.38-.16.79-.25,1.18-.05.25-.12.39-.22.39-.09,0-.17.02-.25.02-.23,0-.47,0-.7,0-.09,0-.18.05-.27.1-.05.02-.09.09-.14.16-.15.27-.27.68-.28,1.27-.01.63.1,1.09.24,1.42.05.11.12.16.18.18.18.04.37.05.55.05.19,0,.38,0,.57,0,.18,0,.31.24.4.76.11.57.23,1.11.34,1.65.12.52.27.94.46,1.11.11.09.22.15.33.16.19.03.38,0,.57.03.18.02.37.08.55.13h.02s0,.05,0,.05c.15.68.31,1.37.47,2.08-.03.32-.09.59-.15.86-.07.34-.16.66-.24,1.01-.08.38-.19.53-.33.52-.27-.04-.54-.04-.81-.02-.13,0-.27.08-.4.15-.16.09-.3.38-.41.83-.06.24-.11.49-.17.75-.1.49-.2.98-.3,1.48-.07.36-.17.55-.3.54-.32,0-.64.01-.96.02-.06,0-.12,0-.17,0-.23.08-.43.7-.48,1.44,0,.07,0,.14,0,.21.01.54.17,1.22.34,1.35.11.09.22.13.34.13.28.01.57-.02.85-.02.25,0,.24-.08.4.68.09.42.19.85.28,1.28.02.11.03.25.05.38.19.83.44,1.33.76,1.38.06.01.13.02.19.02.25,0,.5.03.74,0,.18-.03.31.18.42.67.1.47.21.91.31,1.38.02.1.03.25.04.41-.13.58-.26,1.15-.39,1.73-.05.25-.13.38-.21.42-.07.04-.14.05-.21.05-.24,0-.48.03-.72,0-.29-.02-.55.18-.76.85-.17.79-.35,1.58-.51,2.38-.07.34-.15.47-.27.47-.28-.02-.57,0-.85,0-.1,0-.2.02-.3.06-.17.08-.3.39-.4.87-.11.55-.09,1.19.05,1.64.08.28.18.49.29.52.13.04.26.08.38.09.26.02.53.02.79,0,.14-.02.24.19.32.57.05.23.1.47.15.71.08.37.15.75.24,1.11.21.92.49,1.36.83,1.35.28,0,.55,0,.83,0,.09,0,.18.02.27.04.09.38.17.74.25,1.09.08.36.18.67.23,1.14-.02.12-.04.25-.06.35-.11.5-.23.98-.34,1.49-.08.36-.18.5-.31.49-.2,0-.41,0-.61,0-.12,0-.23.04-.34.04-.33.01-.58.51-.77,1.41-.11.51-.21,1.02-.32,1.52-.03.13-.06.26-.09.4-.04.22-.1.32-.18.32-.18,0-.37.01-.55,0-.21-.02-.42.01-.63.09-.3.1-.41.72-.47,1.51-.02.28,0,.52.05.75.09.43.22.68.37.77.11.07.23.1.34.12.2.01.41,0,.62,0,.06,0,.11.02.17,0,.18-.05.3.24.39.71.11.56.22,1.11.33,1.67.16.83.39,1.25.68,1.26.32.02.64.02.96.02q.27,0,.44.72c.12.48.23.96.36,1.48-.03.18-.04.36-.07.51-.11.49-.22.94-.32,1.44-.08.4-.19.54-.33.54-.27,0-.54,0-.81.01-.1,0-.2.02-.3.05-.23.07-.42.39-.56,1.03-.07.35-.14.71-.22,1.06-.09.42-.19.85-.28,1.27-.04.18-.1.28-.16.28-.1.02-.2.05-.3.05h-.85c-.21,0-.36.34-.46.95-.06.36-.07.73-.01,1.1.1.61.23,1.03.45,1.04.21,0,.41,0,.62,0,.18,0,.35.02.53.02.09,0,.16.12.22.37.07.3.14.61.2.92.12.59.22,1.16.38,1.65.04.12.07.3.1.45.03,0,.06,0,.08.04.13.22.27.26.41.27.2.02.41.02.61.02.14,0,.28,0,.43,0,.1,0,.19.13.25.43.12.55.24,1.08.35,1.62.02.09.03.22.04.32-.12.69-.27,1.25-.41,1.86-.07.31-.15.43-.25.44-.09,0-.18,0-.28.01-.27,0-.54,0-.8,0-.19,0-.34.18-.48.52-.19.63-.35,1.37-.51,2.12-.2.94-.24,1.01-.58,1.01-.21,0-.43-.02-.64,0-.14.01-.28.06-.42.14-.2.11-.3.6-.35,1.22-.04.44.07,1.32.21,1.55.09.15.18.28.28.28.19,0,.38.02.57.02.2.02.4.05.6.05.09,0,.16.13.21.38.09.42.17.82.26,1.22.1.41.19.82.3,1.21.11.41.25.63.41.69.13.05.26.09.38.1.26.01.51.02.77,0,.16,0,.27.18.36.62.12.54.25,1.04.38,1.59-.03.18-.04.36-.08.52-.09.43-.19.84-.28,1.27-.1.49-.23.67-.4.67-.14,0-.27,0-.4,0h-.53c-.34,0-.6.48-.79,1.42-.1.51-.21,1.02-.31,1.54-.03.15-.07.31-.1.45-.06.21-.12.32-.21.32-.11,0-.22,0-.34,0-.25,0-.51,0-.76.02-.25.02-.43.47-.52,1.25-.03.27-.02.49.02.75.13.79.31,1.19.59,1.14.33-.06.65-.05.98,0,.13.02.23.17.3.54.12.62.25,1.22.38,1.83.07.34.14.67.25.85.09.04.18.01.23.36.1.02.2.05.29.08.04-.18.05-.18.09.02.15.01.29.05.44.05.16,0,.33.02.49,0,.08,0,.15.08.21.31.14.6.28,1.21.42,1.82.01.05.01.13.02.23-.07.42-.17.81-.26,1.2-.06.25-.12.47-.18.71-.07.28-.15.4-.26.39-.3-.02-.59-.02-.89-.02-.05,0-.1,0-.15,0-.28.04-.51.39-.67,1.18-.13.65-.28,1.28-.4,1.94-.08.42-.18.55-.32.55-.27,0-.54,0-.81.01-.1,0-.2.02-.3.05-.22.07-.36.5-.45,1.16-.05.38-.03.75.04,1.09.09.47.22.75.38.78.07.01.14.05.21.08.15-.02.31-.05.46-.04.18,0,.37.05.55.07.1,0,.16.14.21.42.01.08.03.16.05.24.13.62.26,1.25.4,1.87.14.65.34,1.02.57,1.08.13.03.26.05.38.05.24,0,.48.02.72,0,.12,0,.2.14.28.44.09.37.18.73.27,1.11.05.24.12.48.15.83-.14.59-.28,1.2-.42,1.79-.07.29-.17.45-.28.45-.07,0-.14,0-.21.02-.31.04-.62-.08-.93.08-.02.09-.05.11-.08.05-.25.17-.42.75-.56,1.42,0,.14-.01.23-.05.25-.1.45-.19.89-.29,1.34,0,.32-.07.48-.15.61l-.03-.05c-.29,0-.58.02-.87.04-.14,0-.29.03-.42.11-.07.04-.15.14-.21.29-.27.7-.22,2.06.1,2.52.07.12.16.18.24.2.13.05.25.04.38.05.23.02.46.04.7.06.14.02.25.25.33.67.08.42.17.83.26,1.24.04.18.08.35.11.52.19.82.45,1.24.76,1.23.28,0,.56,0,.85.01.07,0,.15.04.23.06.04-.06.07-.02.08.13.18.57.4,1.55.5,2.16-.02.32-.1.5-.16.74-.09.4-.19.77-.29,1.15-.06.25-.14.38-.24.39-.15,0-.3.03-.45.04-.21,0-.42,0-.64,0-.29,0-.5.49-.67,1.22-.15.64-.29,1.31-.42,1.99-.05.27-.11.41-.2.41-.21,0-.42,0-.64.02-.16,0-.33,0-.49.02-.25.02-.41.51-.5,1.23-.07.51-.02,1.02.09,1.38.11.33.24.53.38.55.15.02.3.02.44.03.22,0,.44.01.66,0,.11,0,.19.12.25.43.08.41.17.82.26,1.22.08.35.15.69.24,1.01.19.71.42,1.03.7,1.02.29-.02.57,0,.85,0,.38,0,.36.2.49.93.05.24.09.48.14.72.05.23.1.45.16.71-.07.29-.13.54-.19.81-.06.29-.13.58-.18.88-.07.39-.17.56-.3.58-.09,0-.18.02-.27.02-.24,0-.48,0-.72,0-.34.02-.6.45-.79,1.4-.06.32-.12.65-.18.98-.06.32-.13.62-.2.93-.06.31-.15.42-.26.42-.29,0-.58,0-.87.01-.09,0-.19,0-.27.02-.22.07-.39.59-.45,1.32-.02.3-.01.58.03.83.09.46.21.81.37.88.13.06.27.09.4.1.22.02.44,0,.66,0,.06,0,.13.02.19.03.06,0,.11.08.15.24.05.22.1.45.16.69.12.54.23,1.08.35,1.62.16.68.36,1.07.62,1.1.13.01.27.05.4.05.23.01.47.02.7,0,.13,0,.23.12.3.51.11.55.24,1.06.37,1.61,0,.11-.01.24-.03.33-.11.53-.22,1.07-.33,1.59-.09.44-.22.63-.38.62-.29-.02-.58,0-.87,0-.07,0-.13,0-.19.03-.23.09-.42.42-.56,1.04-.04.15-.07.31-.11.46-.13.59-.27,1.17-.4,1.77-.06.31-.14.42-.25.41-.29-.01-.58,0-.87,0-.08,0-.17,0-.25.05-.18.09-.32.42-.42.92-.08.39-.09.82.02,1.34.1.49.24.8.43.82.12.01.25.01.38.01.26,0,.52.01.79,0,.09,0,.15.13.2.35.11.51.22,1.01.32,1.53.13.68.29,1.24.5,1.62.32.25.65.3.97.28.13,0,.27,0,.4,0,.12,0,.21.14.28.5.1.5.22.95.32,1.42.02.11.04.23.07.39-.14.61-.27,1.18-.4,1.78-.08.38-.18.55-.33.54-.35-.03-.69-.02-1.04-.02-.03.02-.07.05-.1.08-.25.18-.45.68-.6,1.38-.12.54-.24,1.06-.36,1.62-.08.41-.2.58-.34.58-.22,0-.44.01-.66.02-.12,0-.24,0-.36.02-.18.02-.33.29-.44.74-.12.45-.13.91-.05,1.45.09.52.21.85.38.92.14.05.28.1.42.12.25.01.51.02.77,0,.12-.01.2.14.27.45.07.35.15.71.22,1.05.1.42.19.84.29,1.24.12.46.27.75.46.82.12.04.24.08.36.1.23.01.47,0,.7.01.06,0,.11,0,.17.03.09.04.17.18.23.46.12.56.25,1.11.37,1.65.04.03.04.13.03.22-.01.15-.03.32-.08.34-.04.16-.08.32-.12.48,0,.18-.03.19-.07.21l-.03.19c-.02.38-.07.68-.18.82-.07.17-.15.23-.24.23-.3,0-.61,0-.91-.02-.08.15-.17.11-.26.08-.26.21-.45.75-.6,1.5-.09.45-.18.92-.27,1.37-.03.16-.07.32-.1.46-.05.21-.11.3-.18.3-.21.02-.41.05-.61.05-.19,0-.38-.02-.57,0-.22.02-.41.52-.48,1.22-.02.24-.02.46,0,.7.09.74.25,1.15.49,1.2.15.04.29.02.44.02.23,0,.45.02.68,0,.13-.01.21.18.28.53.11.58.23,1.15.35,1.72.02.08.03.15.05.23.15.87.39,1.21.68,1.25.17.03.34.01.51.01.18,0,.35.01.53,0,.13,0,.23.14.31.51.1.49.21.96.32,1.44.02.1.03.22.05.35-.12.7-.27,1.34-.42,1.96-.06.23-.14.34-.23.34-.27.01-.54.02-.81.04-.12.02-.24.02-.36.05-.2.06-.37.37-.5.87-.1.39-.19.83-.29,1.25-.08.36-.16.73-.24,1.11-.05.24-.12.34-.2.38-.05.01-.1.01-.15.01-.3,0-.61.02-.91.02-.11,0-.23.03-.33.19-.3.45-.37,1.72-.14,2.51.06.2.13.31.21.35.14.05.28.13.42.14.22.02.44,0,.66-.02.07,0,.14.02.21.02.1,0,.18.15.23.42.1.49.2.99.31,1.45.08.36.17.72.26,1.03.14.47.32.72.52.72.25,0,.51.01.77.01.09,0,.19.02.28,0,.12-.03.22.12.3.44.13.56.26,1.14.39,1.71.04.18.03.38,0,.54-.12.54-.24,1.07-.36,1.6-.05.2-.11.31-.18.33-.08.03-.15.07-.23.07-.17.01-.34,0-.51,0-.1,0-.2,0-.3,0-.37-.04-.65.54-.87,1.53-.09.45-.18.91-.28,1.36-.18.88-.17.78-.45.82-.25.02-.5.02-.75.03-.08,0-.17,0-.25.01-.24.05-.43.56-.5,1.32-.02.19-.02.37,0,.56.1.73.25,1.22.5,1.25.11.02.23,0,.34,0,.24,0,.48,0,.72,0,.15,0,.27.18.35.65.1.57.24,1.08.34,1.65.17.88.41,1.29.71,1.37.19.04.38.04.57.05.16,0,.33.01.49,0,.11,0,.19.12.26.4.11.5.23.99.34,1.49.06.28.06.58,0,.86-.13.55-.25,1.12-.37,1.66-.03.12-.08.19-.13.22-.06.04-.13.03-.19.04-.29,0-.58.03-.87.01-.34-.01-.6.49-.79,1.4-.06.27-.11.55-.17.83-.06.32-.13.62-.19.95-.07.39-.16.51-.28.49-.14-.02-.28-.01-.43-.02-.17,0-.34-.02-.51,0-.09,0-.18.05-.27.13-.07.05-.13.15-.19.28-.14.33-.22.81-.21,1.41.02.58.13.91.27,1.12.08.12.16.17.25.2.13.04.27.04.4.05.21,0,.41,0,.62,0,.16,0,.29.17.37.66.05.28.12.55.17.81.06.25.11.51.16.76.2.92.47,1.46.81,1.44.27,0,.54.02.81,0,.35,0,.32-.02.51.85.06.27.12.53.18.8.04.21.08.44.12.64,0,.12,0,.19-.02.25-.14.6-.28,1.2-.43,1.78-.07.27-.17.32-.27.32-.24,0-.48,0-.72,0-.08,0-.17,0-.25.02-.32.08-.57.54-.74,1.45-.08.44-.17.88-.26,1.32-.04.18-.08.35-.12.51-.07.3-.16.45-.27.44-.31-.02-.61,0-.91,0-.07,0-.14-.02-.21,0-.24.08-.45.81-.47,1.62,0,.07,0,.15,0,.22.07.65.18,1.14.39,1.26.08.05.16.05.24.05.27,0,.54,0,.81.01.06,0,.11,0,.17,0,.13,0,.23.2.3.56.09.45.18.92.28,1.35.07.35.16.67.25.99.1.38.22.58.37.65.12.07.24.12.36.13.28.01.57.02.85,0,.12-.01.21.08.28.39.12.5.24.99.36,1.52.08.39.08.57-.01.96-.11.45-.22.89-.33,1.33-.08.3-.18.46-.3.46-.26,0-.53-.02-.79,0-.13,0-.27.05-.4.12-.15.07-.28.3-.39.68-.11.41-.21.85-.31,1.27-.08.35-.18.7-.24,1.08-.08.45-.2.55-.35.53-.22-.03-.44-.02-.66,0-.16.02-.32.08-.49.15-.12.05-.22.31-.29.65-.18.83-.07,1.95.22,2.25.08.08.17.12.25.12.24.01.48,0,.72,0,.12,0,.23.03.34.02.11-.02.19.14.25.45.1.51.21,1.02.32,1.52.05.21.09.42.15.62.14.54.32.87.52.99.13.07.26.1.38.11.24.02.47,0,.7,0,.09,0,.18.04.27.05.09.39.17.75.25,1.12.07.35.16.68.21,1.12-.13.68-.27,1.33-.42,1.96-.08.3-.18.37-.29.36-.28,0-.57,0-.85,0-.08,0-.16,0-.24.04-.22.09-.41.39-.55.98-.07.32-.14.66-.21.99-.07.38-.14.76-.22,1.15-.07.37-.17.55-.3.57-.06,0-.12,0-.17,0-.3,0-.6.01-.89,0-.16,0-.31.21-.41.61-.22.82-.13,1.64.07,2.1.07.17.16.28.25.35.11.08.22.1.34.1.28.02.55.02.83,0,.11,0,.18.12.25.42.13.61.27,1.19.39,1.8.18.93.44,1.39.77,1.42.29.03.57.02.85.02.06,0,.13,0,.19.02.12.02.21.2.28.55.1.49.21.96.33,1.42.05.2.06.43.02.58-.12.54-.24,1.06-.37,1.59-.08.34-.19.5-.32.51-.1,0-.2.03-.29.03-.24.02-.48.02-.72.03-.26.02-.48.35-.64,1.09-.1.48-.21.97-.31,1.45l-.03.18c-.11.65-.25.96-.48.93-.31-.04-.62.05-.93.07-.17.02-.32.18-.44.6-.13.43-.16,1.07-.08,1.58h2.62Z"/>
    <path class="cls-6" d="m10.58,72.14l-.74-3.72c-.39-.59-.94-.71-1.56-.63-.31-1.08-.26-1.97.04-2.74-.09.2,1.13.17,1.52-.6.11-.21.6-2.27.67-3.24.07-.94.07,10.92.07,10.92"/>
    <path class="cls-6" d="m10.58,102.34l-.74-3.72c-.39-.59-.94-.71-1.56-.63-.31-1.08-.26-1.97.04-2.74-.09.2,1.13.17,1.52-.6.11-.21.6-2.27.67-3.24.07-.94.07,10.92.07,10.92"/>
    <path class="cls-6" d="m10.58,86.76l-.74-3.72c-.39-.59-.94-.71-1.56-.63-.31-1.08-.26-1.97.04-2.74-.09.2,1.13.17,1.52-.6.11-.21.6-2.27.67-3.24.07-.94.07,10.92.07,10.92"/>
    <path class="cls-6" d="m10.58,117.54l-.74-3.72c-.39-.59-.94-.71-1.56-.63-.31-1.08-.26-1.97.04-2.74-.09.2,1.13.17,1.52-.6.11-.21.6-2.27.67-3.24.07-.94.07,10.92.07,10.92"/>
    <path class="cls-6" d="m10.58,147.75l-.74-3.72c-.39-.59-.94-.71-1.56-.63-.31-1.08-.26-1.97.04-2.74-.09.2,1.13.17,1.52-.6.11-.21.6-2.27.67-3.24.07-.94.07,10.92.07,10.92"/>
    <path class="cls-6" d="m10.58,132.17l-.74-3.72c-.39-.59-.94-.71-1.56-.63-.31-1.08-.26-1.97.04-2.74-.09.2,1.13.17,1.52-.6.11-.21.6-2.27.67-3.23.07-.94.07,10.92.07,10.92"/>
    <path class="cls-6" d="m10.58,162.95l-.74-3.72c-.39-.59-.94-.71-1.56-.63-.31-1.08-.26-1.97.04-2.74-.09.2,1.13.17,1.52-.6.11-.21.6-2.27.67-3.24.07-.94.07,10.92.07,10.92"/>
    <path class="cls-6" d="m10.58,193.16l-.74-3.72c-.39-.59-.94-.71-1.56-.63-.31-1.08-.26-1.97.04-2.74-.09.2,1.13.17,1.52-.6.11-.21.6-2.27.67-3.24.07-.94.07,10.92.07,10.92"/>
    <path class="cls-6" d="m10.58,177.57l-.74-3.72c-.39-.59-.94-.71-1.56-.63-.31-1.08-.26-1.97.04-2.74-.09.2,1.13.17,1.52-.6.11-.21.6-2.27.67-3.23.07-.94.07,10.92.07,10.92"/>
    <path class="cls-6" d="m10.58,208.36l-.74-3.72c-.39-.59-.94-.71-1.56-.63-.31-1.08-.26-1.97.04-2.74-.09.2,1.13.17,1.52-.6.11-.21.6-2.27.67-3.23.07-.94.07,10.92.07,10.92"/>
    <path class="cls-6" d="m10.58,239.33l-.74-3.72c-.39-.59-.94-.71-1.56-.63-.31-1.08-.26-1.97.04-2.74-.09.2,1.13.17,1.52-.6.11-.21.6-2.27.67-3.24.07-.94.07,10.92.07,10.92"/>
    <path class="cls-6" d="m10.58,223.75l-.74-3.72c-.39-.59-.94-.71-1.56-.63-.31-1.08-.26-1.97.04-2.74-.09.2,1.13.17,1.52-.6.11-.21.6-2.27.67-3.24.07-.94.07,10.92.07,10.92"/>
    <path class="cls-6" d="m10.58,254.53l-.74-3.72c-.39-.59-.94-.71-1.56-.63-.31-1.08-.26-1.97.04-2.74-.09.2,1.13.17,1.52-.6.11-.21.6-2.27.67-3.24.07-.94.07,10.92.07,10.92"/>
    <path class="cls-6" d="m10.58,284.74l-.74-3.72c-.39-.59-.94-.71-1.56-.63-.31-1.08-.26-1.97.04-2.74-.09.2,1.13.17,1.52-.6.11-.21.6-2.27.67-3.23.07-.94.07,10.92.07,10.92"/>
    <path class="cls-6" d="m10.58,269.15l-.74-3.72c-.39-.59-.94-.71-1.56-.63-.31-1.08-.26-1.98.04-2.74-.09.2,1.13.17,1.52-.6.11-.21.6-2.27.67-3.24.07-.94.07,10.92.07,10.92"/>
    <path class="cls-6" d="m10.58,299.94l-.74-3.72c-.39-.59-.94-.71-1.56-.63-.31-1.08-.26-1.98.04-2.74-.09.2,1.13.17,1.52-.6.11-.21.6-2.27.67-3.24.07-.94.07,10.92.07,10.92"/>
    <path class="cls-6" d="m10.58,330.91l-.74-3.72c-.39-.59-.94-.71-1.56-.63-.31-1.08-.26-1.97.04-2.74-.09.2,1.13.17,1.52-.6.11-.21.6-2.27.67-3.24.07-.94.07,10.92.07,10.92"/>
    <path class="cls-6" d="m10.58,315.33l-.74-3.72c-.39-.59-.94-.71-1.56-.63-.31-1.08-.26-1.97.04-2.74-.09.2,1.13.17,1.52-.6.11-.21.6-2.27.67-3.24.07-.94.07,10.92.07,10.92"/>
    <path class="cls-6" d="m10.58,346.11l-.74-3.72c-.39-.59-.94-.71-1.56-.63-.31-1.08-.26-1.97.04-2.74-.09.2,1.13.17,1.52-.6.11-.21.6-2.27.67-3.24.07-.94.07,10.92.07,10.92"/>
    <path class="cls-6" d="m10.58,376.32l-.74-3.72c-.39-.59-.94-.71-1.56-.63-.31-1.08-.26-1.97.04-2.74-.09.2,1.13.17,1.52-.6.11-.21.6-2.27.67-3.24.07-.94.07,10.92.07,10.92"/>
    <path class="cls-6" d="m10.58,360.73l-.74-3.72c-.39-.59-.94-.71-1.56-.63-.31-1.08-.26-1.97.04-2.74-.09.2,1.13.17,1.52-.6.11-.21.6-2.27.67-3.24.07-.94.07,10.92.07,10.92"/>
    <path class="cls-6" d="m10.58,391.52l-.74-3.72c-.39-.59-.94-.71-1.56-.63-.31-1.08-.26-1.97.04-2.74-.09.2,1.13.17,1.52-.6.11-.21.6-2.27.67-3.24.07-.94.07,10.92.07,10.92"/>
    <path class="cls-6" d="m10.58,421.72l-.74-3.72c-.39-.59-.94-.71-1.56-.63-.31-1.08-.26-1.97.04-2.74-.09.2,1.13.17,1.52-.6.11-.21.6-2.27.67-3.23.07-.94.07,10.92.07,10.92"/>
    <path class="cls-6" d="m10.58,406.14l-.74-3.72c-.39-.59-.94-.71-1.56-.63-.31-1.08-.26-1.97.04-2.74-.09.2,1.13.17,1.52-.6.11-.21.6-2.27.67-3.24.07-.94.07,10.92.07,10.92"/>
    <path class="cls-6" d="m10.58,436.92l-.74-3.72c-.39-.59-.94-.71-1.56-.63-.31-1.08-.26-1.97.04-2.74-.09.2,1.13.17,1.52-.6.11-.21.6-2.27.67-3.24.07-.94.07,10.92.07,10.92"/>
    <path class="cls-6" d="m10.58,468.67l-.74-3.72c-.39-.59-.94-.71-1.56-.63-.31-1.08-.26-1.97.04-2.74-.09.2,1.13.17,1.52-.6.11-.21.6-2.27.67-3.24.07-.94.07,10.92.07,10.92"/>
    <path class="cls-6" d="m10.58,453.08l-.74-3.72c-.39-.59-.94-.71-1.56-.63-.31-1.08-.26-1.97.04-2.74-.09.2,1.13.17,1.52-.6.11-.21.6-2.27.67-3.24.07-.94.07,10.92.07,10.92"/>
    <path class="cls-6" d="m10.58,483.87l-.74-3.72c-.39-.59-.94-.71-1.56-.63-.31-1.08-.26-1.97.04-2.74-.09.2,1.13.17,1.52-.6.11-.21.6-2.27.67-3.23.07-.94.07,10.92.07,10.92"/>
    <path class="cls-6" d="m10.58,514.07l-.74-3.72c-.39-.59-.94-.71-1.56-.63-.31-1.08-.26-1.97.04-2.74-.09.2,1.13.17,1.52-.6.11-.21.6-2.27.67-3.24.07-.94.07,10.92.07,10.92"/>
    <path class="cls-6" d="m10.58,498.49l-.74-3.72c-.39-.59-.94-.71-1.56-.63-.31-1.08-.26-1.97.04-2.74-.09.2,1.13.17,1.52-.6.11-.21.6-2.27.67-3.24.07-.94.07,10.92.07,10.92"/>
    <path class="cls-6" d="m10.58,529.27l-.74-3.72c-.39-.59-.94-.71-1.56-.63-.31-1.08-.26-1.97.04-2.74-.09.2,1.13.17,1.52-.6.11-.21.6-2.27.67-3.23.07-.94.07,10.92.07,10.92"/>
    <path class="cls-6" d="m9.59,539.88c-.36-.33-.81-.39-1.31-.33-.31-1.08-.26-1.97.04-2.74-.09.2,1.13.18,1.53-.59.11-.22.6-2.28.67-3.24.04-.57.06,3.55.06,6.9h-.98Z"/>
  </g>
  <polygon class="cls-1" points="1.26 540.47 1.42 540.47 1.26 539.67 1.26 540.47"/>
  <g class="cls-4">
    <path class="cls-1" d="m1.26,524.46l.73,3.72c.39.59.94.71,1.56.63.31,1.08.26,1.97-.04,2.74.09-.2-1.13-.17-1.53.6-.11.21-.6,2.27-.67,3.23-.07.94-.07-10.92-.07-10.92"/>
    <path class="cls-1" d="m1.26,493.49l.73,3.72c.39.59.94.71,1.56.63.31,1.08.26,1.97-.04,2.74.09-.2-1.13-.17-1.53.6-.11.21-.6,2.27-.67,3.23-.07.94-.07-10.92-.07-10.92"/>
    <path class="cls-1" d="m1.26,509.07l.73,3.72c.39.59.94.71,1.56.63.31,1.08.26,1.97-.04,2.74.09-.2-1.13-.17-1.53.6-.11.21-.6,2.27-.67,3.23-.07.94-.07-10.92-.07-10.92"/>
    <path class="cls-1" d="m1.26,478.29l.73,3.72c.39.59.94.71,1.56.63.31,1.08.26,1.97-.04,2.74.09-.2-1.13-.17-1.53.6-.11.21-.6,2.27-.67,3.23-.07.94-.07-10.92-.07-10.92"/>
    <path class="cls-1" d="m1.26,448.08l.73,3.72c.39.59.94.71,1.56.63.31,1.08.26,1.97-.04,2.74.09-.2-1.13-.17-1.53.6-.11.21-.6,2.27-.67,3.23-.07.94-.07-10.92-.07-10.92"/>
    <path class="cls-1" d="m1.26,463.66l.73,3.72c.39.59.94.71,1.56.63.31,1.08.26,1.97-.04,2.74.09-.2-1.13-.17-1.53.6-.11.21-.6,2.27-.67,3.23-.07.94-.07-10.92-.07-10.92"/>
    <path class="cls-1" d="m1.26,432.88l.73,3.72c.39.59.94.71,1.56.63.31,1.08.26,1.97-.04,2.74.09-.2-1.13-.17-1.53.6-.11.21-.6,2.27-.67,3.23-.07.94-.07-10.92-.07-10.92"/>
    <path class="cls-1" d="m1.26,401.91l.73,3.72c.39.59.94.71,1.56.63.31,1.08.26,1.97-.04,2.74.09-.2-1.13-.17-1.53.6-.11.21-.6,2.27-.67,3.23-.07.94-.07-10.92-.07-10.92"/>
    <path class="cls-1" d="m1.26,417.49l.73,3.72c.39.59.94.71,1.56.63.31,1.08.26,1.97-.04,2.74.09-.2-1.13-.17-1.53.6-.11.21-.6,2.27-.67,3.23-.07.94-.07-10.92-.07-10.92"/>
    <path class="cls-1" d="m1.26,386.71l.73,3.72c.39.59.94.71,1.56.63.31,1.08.26,1.97-.04,2.74.09-.2-1.13-.17-1.53.6-.11.21-.6,2.27-.67,3.24-.07.94-.07-10.92-.07-10.92"/>
    <path class="cls-1" d="m1.26,356.5l.73,3.72c.39.59.94.71,1.56.63.31,1.08.26,1.97-.04,2.74.09-.2-1.13-.17-1.53.6-.11.21-.6,2.27-.67,3.24-.07.94-.07-10.92-.07-10.92"/>
    <path class="cls-1" d="m1.26,372.08l.73,3.72c.39.59.94.71,1.56.63.31,1.08.26,1.97-.04,2.74.09-.2-1.13-.17-1.53.6-.11.21-.6,2.27-.67,3.24-.07.94-.07-10.92-.07-10.92"/>
    <path class="cls-1" d="m1.26,341.3l.73,3.72c.39.59.94.71,1.56.63.31,1.08.26,1.97-.04,2.74.09-.2-1.13-.17-1.53.6-.11.21-.6,2.27-.67,3.24-.07.94-.07-10.92-.07-10.92"/>
    <path class="cls-1" d="m1.26,311.09l.73,3.72c.39.59.94.71,1.56.63.31,1.08.26,1.97-.04,2.74.09-.2-1.13-.17-1.53.6-.11.21-.6,2.27-.67,3.24-.07.94-.07-10.92-.07-10.92"/>
    <path class="cls-1" d="m1.26,326.68l.73,3.72c.39.59.94.71,1.56.63.31,1.08.26,1.97-.04,2.74.09-.2-1.13-.17-1.53.6-.11.21-.6,2.27-.67,3.24-.07.94-.07-10.92-.07-10.92"/>
    <path class="cls-1" d="m1.26,295.89l.73,3.72c.39.59.94.71,1.56.63.31,1.08.26,1.97-.04,2.74.09-.2-1.13-.17-1.53.6-.11.21-.6,2.27-.67,3.24-.07.94-.07-10.92-.07-10.92"/>
    <path class="cls-1" d="m1.26,264.15l.73,3.72c.39.59.94.71,1.56.63.31,1.08.26,1.97-.04,2.74.09-.2-1.13-.17-1.53.6-.11.21-.6,2.27-.67,3.23-.07.94-.07-10.92-.07-10.92"/>
    <path class="cls-1" d="m1.26,279.73l.73,3.72c.39.59.94.71,1.56.63.31,1.08.26,1.97-.04,2.74.09-.2-1.13-.17-1.53.6-.11.21-.6,2.27-.67,3.24-.07.94-.07-10.92-.07-10.92"/>
    <path class="cls-1" d="m1.26,248.95l.73,3.72c.39.59.94.71,1.56.63.31,1.08.26,1.97-.04,2.74.09-.2-1.13-.17-1.53.6-.11.21-.6,2.27-.67,3.24-.07.94-.07-10.92-.07-10.92"/>
    <path class="cls-1" d="m1.26,218.74l.73,3.72c.39.59.94.71,1.56.63.31,1.08.26,1.97-.04,2.74.09-.2-1.13-.17-1.53.6-.11.21-.6,2.27-.67,3.24-.07.94-.07-10.92-.07-10.92"/>
    <path class="cls-1" d="m1.26,234.33l.73,3.72c.39.59.94.71,1.56.63.31,1.08.26,1.97-.04,2.74.09-.2-1.13-.17-1.53.6-.11.21-.6,2.27-.67,3.24-.07.94-.07-10.92-.07-10.92"/>
    <path class="cls-1" d="m1.26,203.54l.73,3.72c.39.59.94.71,1.56.63.31,1.08.26,1.97-.04,2.74.09-.2-1.13-.17-1.53.6-.11.21-.6,2.27-.67,3.24-.07.94-.07-10.92-.07-10.92"/>
    <path class="cls-1" d="m1.26,173.34l.73,3.72c.39.59.94.71,1.56.63.31,1.08.26,1.97-.04,2.74.09-.2-1.13-.17-1.53.6-.11.21-.6,2.27-.67,3.24-.07.94-.07-10.92-.07-10.92"/>
    <path class="cls-1" d="m1.26,188.92l.73,3.72c.39.59.94.71,1.56.63.31,1.08.26,1.97-.04,2.74.09-.2-1.13-.17-1.53.6-.11.21-.6,2.27-.67,3.24-.07.94-.07-10.92-.07-10.92"/>
    <path class="cls-1" d="m1.26,158.14l.73,3.72c.39.59.94.71,1.56.63.31,1.08.26,1.97-.04,2.74.09-.2-1.13-.17-1.53.6-.11.21-.6,2.27-.67,3.24-.07.94-.07-10.92-.07-10.92"/>
    <path class="cls-1" d="m1.26,143.52l.73,3.72c.39.59.94.71,1.56.63.31,1.08.26,1.97-.04,2.74.09-.2-1.13-.17-1.53.6-.11.21-.6,2.27-.67,3.24-.07.94-.07-10.92-.07-10.92"/>
    <path class="cls-1" d="m1.26,113.31l.73,3.72c.39.59.94.71,1.56.63.31,1.08.26,1.97-.04,2.74.09-.2-1.13-.17-1.53.6-.11.21-.6,2.27-.67,3.24-.07.94-.07-10.92-.07-10.92"/>
    <path class="cls-1" d="m1.26,128.89l.73,3.72c.39.59.94.71,1.56.63.31,1.08.26,1.97-.04,2.74.09-.2-1.13-.17-1.53.6-.11.21-.6,2.27-.67,3.24-.07.94-.07-10.92-.07-10.92"/>
    <path class="cls-1" d="m1.26,98.11l.73,3.72c.39.59.94.71,1.56.63.31,1.08.26,1.97-.04,2.74.09-.2-1.13-.17-1.53.6-.11.21-.6,2.27-.67,3.24-.07.94-.07-10.92-.07-10.92"/>
    <path class="cls-1" d="m1.26,67.13l.73,3.72c.39.59.94.71,1.56.63.31,1.08.26,1.97-.04,2.74.09-.2-1.13-.17-1.53.6-.11.21-.6,2.27-.67,3.23-.07.94-.07-10.92-.07-10.92"/>
    <path class="cls-1" d="m1.26,82.72l.73,3.72c.39.59.94.71,1.56.63.31,1.08.26,1.97-.04,2.74.09-.2-1.13-.17-1.53.6-.11.21-.6,2.27-.67,3.24-.07.94-.07-10.92-.07-10.92"/>
  </g>
</svg>