<?xml version="1.0" encoding="UTF-8"?>
<svg id="Layer_1" data-name="Layer 1" xmlns="http://www.w3.org/2000/svg" viewBox="0 0 237.13 138.36">
  <defs>
    <style>
      .cls-1 {
        fill: #fff;
      }

      .cls-2 {
        fill: #dbdfde;
      }

      .cls-3 {
        fill-rule: evenodd;
      }
    </style>
  </defs>
  <g id="LogoCentralBW">
    <rect class="cls-1" x="31.37" y="20.37" width="174.39" height="97.63"/>
    <path d="m172.04,41.6h2.17c.07.18.13.4.17.67.04.27.06.5.06.69,0,.44-.07.83-.21,1.17-.14.34-.37.67-.69,1.01-.54-.44-.94-.75-1.2-.93-.25-.18-.48-.36-.69-.53l-1.15-1.07c-.43-.39-.87-.79-1.32-1.21-.45-.42-.89-.86-1.32-1.32-.9-.92-1.75-1.86-2.53-2.8-.24.39-.46.75-.65,1.08-.19.33-.36.63-.51.89-.08.28-.22.59-.42.91-.09.18-.16.33-.21.45-.05.12-.09.22-.13.29.23.27.44.51.63.73.2.22.4.45.62.68.22.23.45.47.72.72.26.25.56.52.9.83-.39.48-.71.95-.94,1.43-.23.47-.42.93-.55,1.37-.13.44-.22.87-.27,1.27-.05.4-.07.76-.07,1.08,0,.53.09.97.28,1.3.19.41.4.78.65,1.11.24.33.52.62.82.87l.39-.59c.73-1.08,1.46-2.07,2.2-2.96-.34-.18-.54-.39-.59-.63-.06-.24-.08-.59-.08-1.05s.13-.87.39-1.23c1.24,1.17,2.49,2.28,3.76,3.32,1.27,1.04,2.55,2.01,3.84,2.92.49-.6.92-1.19,1.31-1.77.38-.58.73-1.14,1.03-1.69-.26-.16-.51-.31-.73-.47-.23-.15-.44-.3-.65-.45-.21-.15-.42-.31-.65-.49s-.48-.37-.76-.59c.66-1.01,1.11-2.04,1.37-3.08s.38-1.97.38-2.78v-.45c0-.2,0-.3-.03-.32l.99-1.94h-4.93l-1.38,3.57Z"/>
    <path d="m112.92,47.9c-.25,0-.47,0-.67-.01-.2,0-.36-.02-.51-.04-.46-.04-.75-.26-.85-.68-.04-.22-.07-.48-.11-.8-.04-.32-.07-.68-.11-1.1.35-1.76,1.03-2.64,2.02-2.66h5.78c-.76-2.19-1.91-4.18-3.43-5.97,0,.81-.1,1.5-.29,2.06h-3.17c-.55.05-1.09.18-1.62.38-.44.22-.85.54-1.22.98-.87,1.27-1.3,2.64-1.3,4.13,0,2.14.93,4.68,2.8,7.63h8.54l-1.78-3.88-4.07-.03Z"/>
    <path d="m97.67,36.59c-.44.31-.85.62-1.21.95-.36.33-.7.66-1,1h-2.74c-.09-.25-.16-.54-.23-.87-.06-.33-.1-.69-.12-1.09-1.77,2.03-2.93,3.98-3.46,5.86h5.83v6.08l-.05,3.96c.62-.45,1.17-.96,1.64-1.52.47-.56.87-1.18,1.21-1.85v-6.68h1.86l1.52-3.91h-3.25v-1.95Z"/>
    <path d="m85.15,93.64c-.48-.54-.99-1.04-1.53-1.51-.18.42-.35.81-.51,1.15-.16.34-.33.66-.5.97-.17.3-.37.6-.59.88-.22.29-.48.59-.8.93,1.2.87,2.17,1.8,2.9,2.82.15.29.25.63.3.99.05.37.08.85.08,1.44,0,.31,0,.58.01.8,0,.22.02.41.04.55v5.19c1.12-1.12,1.98-2.39,2.58-3.81l.05-3.92v-1.49c0-1.36-.21-2.44-.63-3.23-.45-.63-.92-1.21-1.4-1.75Z"/>
    <path d="m137.79,38.8c-.54-.48-1.21-.72-1.98-.74l-6.41-.03c-.02-.15-.05-.44-.09-.87-.04-.43-.07-.89-.1-1.39-.03-.5-.05-.97-.07-1.42-.02-.45-.03-.77-.03-.96-.33.38-.61.77-.85,1.16-.23.39-.45.78-.64,1.17-.19.39-.38.79-.57,1.2-.19.41-.39.83-.63,1.24-.12.19-.26.47-.44.84-.17.37-.35.76-.52,1.16-.18.4-.35.78-.52,1.14-.18.36-.32.64-.44.83h9.86c.43.08.76.22.99.43.21.21.35.52.41.94.02.19.03.36.04.51,0,.15.01.28.01.37l.12,3.66c0,.4,0,.61.03.63l.15,4c1.15-.86,2.1-1.81,2.86-2.86l.09-2.55c.02-.06.03-.19.03-.4v-1.66c0-1.32-.06-2.85-.17-4.61-.21-.78-.58-1.39-1.11-1.83Z"/>
    <path d="m153.53,46.77h.03s.03,0,.03-.03l.9-.51c.3-.18.56-.36.8-.55.23-.19.45-.38.66-.58.58-.54.87-1.26.87-2.17-.21-1.21-.71-2.4-1.51-3.57-.74-1.02-1.54-1.85-2.39-2.51-2.45.68-4.9,2.09-7.34,4.27-.28,1.31-.42,2.72-.42,4.23,0,.79.06,2.01.17,3.63.07.46.18.9.32,1.33.05.16.12.33.19.52.06.13.12.27.19.42.1.22.2.46.3.69,0,0,0,.02.01.02,0,0,0,0,0,.02.04.11.09.2.13.31h11.1l-.79-1.61c-.04-.1-.07-.18-.1-.25s-.08-.16-.15-.28l-.84-1.85h-6.98v.3l-.56-.6h-.28c0-.1,0-.2,0-.3h0s0,0,0,0c0-.42,0-.82.01-1.19,0-.46.02-.87.04-1.25.02-.73.1-1.46.25-2.17,1.48-1.09,3.12-1.91,4.93-2.44.26.24.43.49.51.75l.14.15s-.07.03-.08.03c0,0-.01,0-.02,0,0,.03.01.06.01.09.19.25.29.47.29.65,0,.16-.02.35-.06.57-.04.22-.09.43-.15.64-.07.21-.15.39-.27.54-.11.15-.24.22-.39.22l-2.33.27-.72,2.44h2.21l1.29-.21Z"/>
    <path d="m126.35,46.32v5.64c.78-.45,1.5-.91,2.15-1.38.65-.47,1.25-.97,1.78-1.49v-5.94c-1.54,1.03-2.85,2.09-3.93,3.17Z"/>
    <path d="m72.07,91.84c-.57-.73-1.18-1.39-1.85-1.97-.42.57-.82,1.19-1.2,1.85-.38.66-.77,1.38-1.15,2.15.98.68,1.85,1.52,2.6,2.51.07.09.13.19.19.3.06.11.1.23.14.36.03.09.06.21.08.34.02.14.03.31.05.51.07.64.12,1.26.15,1.84.03.58.05,1.14.05,1.67v3.45c0,.22,0,.36-.03.41v.63l-.03,3.78c.48-.55.93-1.12,1.34-1.7.41-.58.78-1.17,1.11-1.78l.2-4.97c.05-.96.08-1.91.08-2.84,0-1.44-.05-2.84-.15-4.2-.48-.85-1.01-1.63-1.58-2.36Z"/>
    <path d="m142.59,95.77c-.22.63-.41,1.26-.58,1.91.13,1.84.46,3.68.98,5.52h-3.73c-.37-.04-.63-.17-.8-.41-.17-.24-.28-.57-.35-.99-.03-.2-.06-.41-.09-.62-.03-.21-.05-.42-.09-.62l-.33-4.61c-.05-.64-.09-1.22-.11-1.71-.02-.5-.05-.92-.06-1.27-1.17,1.18-2.01,2.55-2.53,4.12l.33,5.99c.02.15.03.31.04.5s.03.4.06.64c.02.22.04.44.06.66.02.22.07.43.14.63.1.39.27.74.5,1.05.22.28.53.46.93.55.08.02.17.03.25.04.08,0,.17.01.25.01h.3c.13,0,.22,0,.25.03l6.38.03c.13.31.26.64.39.98.12.34.25.69.36,1.06,1.57-2.12,2.62-4.11,3.15-5.97h-2.15c-.33-.96-.61-1.88-.83-2.78-.22-.89-.38-1.76-.5-2.61h2.38l.98-2.6.15-.33c.07-.11.11-.2.12-.28l.33-.8h-5.43c-.28.63-.53,1.25-.75,1.88Z"/>
    <path d="m167.94,103.43c-.25-.39-.41-.8-.48-1.24l-.8-3.45c-.03-.24-.07-.45-.12-.63s-.09-.34-.12-.47l-.17-.83c-.08-.46-.17-.86-.25-1.2-.08-.34-.16-.62-.23-.84-.13-.4-.38-.82-.75-1.24-.38-.39-.92-.58-1.6-.58-1.3.04-2.53.42-3.7,1.16-1.22.7-2.11,1.67-2.68,2.9-1.07,2.17-1.6,4.07-1.6,5.69,0,.96.17,1.88.53,2.76.52,1.33,1.57,1.99,3.15,1.99,1.17,0,2.19-.35,3.08-1.05.67-1.23,1.03-2.57,1.08-4-.32.15-.61.29-.88.43-.27.14-.52.25-.75.35-.43.17-.86.25-1.28.25-.78,0-1.31-.42-1.58-1.27-.18-.72-.28-1.27-.28-1.66,0-.48.12-1.1.35-1.88,1.13-1.14,2.25-1.71,3.35-1.71.27,0,.54.03.83.08.2.07.35.17.45.28.1.11.16.3.17.55.08.26.13.49.15.69l.73,4.72c.22,1.73.67,3.54,1.35,5.41l1.43-1.99s.08-.09.13-.15c.05-.06.1-.13.15-.21l1.33-1.82c-.47-.42-.79-.76-.98-1.02Z"/>
    <path d="m102.28,97.01h1.93c.07.18.12.41.15.69.03.28.05.52.05.72,0,.46-.06.87-.19,1.22s-.33.7-.61,1.05c-.48-.46-.84-.78-1.06-.97-.23-.18-.43-.37-.61-.55l-1.03-1.11c-.38-.4-.78-.82-1.17-1.26-.4-.43-.79-.89-1.18-1.37-.8-.96-1.55-1.92-2.25-2.9-.22.41-.41.78-.57,1.12-.17.34-.32.65-.45.93-.07.29-.19.61-.38.94-.08.18-.15.34-.19.47-.04.13-.08.23-.11.3.2.28.39.53.56.76.17.23.36.47.55.7.19.24.4.49.64.75.23.26.5.54.8.86-.35.5-.63.99-.84,1.48s-.37.96-.49,1.42c-.12.46-.2.9-.24,1.31-.04.41-.06.79-.06,1.12,0,.55.08,1,.25,1.35.17.42.36.81.58,1.15.22.34.46.64.72.9l.35-.61c.65-1.12,1.3-2.14,1.95-3.07-.3-.18-.47-.4-.52-.65-.05-.25-.08-.61-.08-1.09s.12-.9.35-1.27c1.1,1.22,2.21,2.36,3.34,3.44,1.13,1.08,2.26,2.09,3.41,3.02.43-.63.82-1.24,1.16-1.84.34-.6.65-1.18.91-1.75-.23-.17-.45-.33-.65-.48-.2-.16-.39-.31-.57-.47-.18-.16-.37-.33-.57-.51s-.43-.39-.68-.61c.58-1.05.99-2.11,1.21-3.19.23-1.08.34-2.04.34-2.89v-.47c0-.2,0-.31-.02-.33l.88-2.02h-4.38l-1.23,3.7Z"/>
    <path d="m68.4,49.26c-.23-.63-.48-1.27-.76-1.91-.28-.64-.57-1.28-.89-1.91.18-.23.35-.46.52-.66.17-.21.32-.41.47-.61.3-.4.58-.79.83-1.18.25-.39.44-.81.59-1.26.16-.45.24-.93.24-1.44,0-.2-.03-.45-.08-.76-.12-.56-.28-1.09-.47-1.6-.19-.51-.42-.99-.71-1.47l-2.69,3.61c.05.09.16.27.33.54.17.27.32.51.47.71.12.22.2.43.24.65.02.09.03.17.04.24,0,.07.01.13.01.16,0,.63-.22,1.12-.67,1.47-.8-.07-1.35.03-1.65.3v-1.03c0-1.39-.22-2.48-.67-3.26-.48-.63-.98-1.23-1.49-1.78-.51-.55-1.06-1.05-1.62-1.51-.51.63-.98,1.28-1.41,1.94-.43.66-.81,1.33-1.14,2,.66.45,1.24.91,1.74,1.38.51.47.95.96,1.34,1.47.16.29.27.62.32,1,.05.38.08.86.08,1.44,0,.31,0,.57.01.8,0,.23.02.41.04.56v5.24c1.19-1.16,2.1-2.43,2.74-3.83l.03-2.09c.21.69.51,1.45.88,2.29.37.84.71,1.72,1.01,2.65.3.83.57,1.67.81,2.52.24.85.43,1.71.57,2.58.12-.18.28-.42.48-.72.19-.3.43-.66.69-1.07.18-.27.34-.53.48-.79.14-.25.28-.5.43-.73-.14-.67-.31-1.33-.49-2s-.4-1.31-.65-1.94Z"/>
    <path d="m80.46,38.63c-.51-.53-1.06-1.03-1.62-1.48-.2.42-.38.79-.55,1.13-.17.34-.35.65-.53.95-.19.3-.39.59-.63.87-.23.28-.51.58-.85.91,1.28.85,2.31,1.77,3.09,2.77.16.29.27.62.32.98.05.36.08.83.08,1.41,0,.31,0,.57.01.79,0,.22.02.4.04.54v5.1c1.19-1.1,2.1-2.35,2.74-3.75l.05-3.85v-1.47c0-1.34-.22-2.4-.67-3.18-.48-.62-.98-1.19-1.49-1.72Z"/>
    <path d="m122.48,99.21l-.73,2.57h2.35c.13.41.2.78.2,1.13v.25h-3.55c-.95-.04-1.58-.94-1.9-2.71.03-.42.07-.8.1-1.12.03-.32.07-.59.1-.81.1-.42.37-.65.8-.69.13-.02.29-.03.48-.04.18,0,.39-.01.63-.01l3.83-.03,1.68-3.95h-8.03c-1.75,3.02-2.63,5.61-2.63,7.76,0,1.51.41,2.91,1.23,4.2.35.44.73.77,1.15.99.53.2,1.04.33,1.53.39h2.98c.18.61.28,1.31.28,2.1,1.43-1.82,2.51-3.85,3.23-6.08h-.2c.05-.26.08-.53.1-.81.02-.28.02-.59.02-.92v-.47c0-.2,0-.31-.02-.33l.78-1.41h-4.38Z"/>
    <path class="cls-3" d="m187.83,64.79v-1.59H53.4v1.59h0s-6.06,16.5-6.06,16.5c12.49,1.54,24.97,1.98,37.46,0,13.57-1.66,26.92-1.86,39.98,0,16.3,1.99,32.05,1.88,47.33,0,8.1-.85,14.76-.2,20.83,1.06l-5.11-17.56Zm-123.48,1.72l-2.99,15.44c-2.2-1.38-5.39-1.92-10.08-1.19l13.07-14.26h0Zm15.43,14.23c2.62-5.89,7.14-11.25,15.01-15.68h0c6.22,3.63,9.81,8.39,11.22,14.09-2.39-1.24-21.57.58-26.23,1.59Zm56.43.28c-2.02-1.55-15.59-3.18-20.43-2.8,4.16-5.43,4.91-7.29,13.82-10.59h0c5.13,4.41,6.78,7.61,6.62,13.39Zm26.16-1.42c2.61-5.89-2.37-9.8,5.49-14.23h0c6.22,3.64,18.58,8.53,19.99,14.23-2.39-1.24-20.83-1.02-25.48,0Z"/>
    <path class="cls-2" d="m44.87,95.32c.07.06.12.11.18.17l-.3-.32c.03.06.07.11.12.15Z"/>
    <path class="cls-2" d="m44.61,95.01l.14.15s-.02-.03-.03-.04c-.06-.02-.09-.06-.11-.11Z"/>
  </g>
</svg>