<?xml version="1.0" encoding="UTF-8"?>
<svg id="Layer_1" data-name="Layer 1" xmlns="http://www.w3.org/2000/svg" viewBox="0 0 263.39 158.03">
  <defs>
    <style>
      .cls-1 {
        fill: #fff;
        fill-rule: evenodd;
        stroke: #dbdfde;
        stroke-linecap: round;
        stroke-linejoin: round;
        stroke-width: .24px;
      }

      .cls-2 {
        fill: #dbdfde;
      }
    </style>
  </defs>
  <g id="LogoStandardBWInvert">
    <rect x="18.23" y="43.98" width="226.94" height="70.07"/>
    <path class="cls-2" d="m129.17,60.34h2.26c.08.2.14.44.18.73.04.29.06.55.06.76,0,.49-.07.92-.22,1.29-.15.37-.39.74-.72,1.11-.57-.49-.98-.83-1.25-1.03-.26-.19-.5-.39-.72-.59l-1.2-1.17c-.45-.43-.91-.87-1.38-1.33-.47-.46-.93-.94-1.38-1.45-.94-1.02-1.82-2.04-2.64-3.08-.25.43-.48.83-.67,1.19-.2.36-.37.69-.53.98-.08.31-.23.65-.44,1-.1.2-.17.36-.22.5-.05.14-.09.24-.13.32.23.29.45.56.66.81.21.24.42.49.65.75.22.25.47.52.75.79.27.27.59.58.94.91-.41.53-.74,1.05-.98,1.57-.24.52-.44,1.02-.57,1.51-.14.49-.23.95-.28,1.39-.05.44-.07.84-.07,1.19,0,.59.1,1.07.29,1.44.2.45.42.86.67,1.22.25.36.54.68.85.95l.41-.65c.76-1.19,1.52-2.28,2.29-3.25-.35-.19-.56-.42-.62-.69-.06-.26-.09-.65-.09-1.16s.14-.96.41-1.35c1.29,1.29,2.6,2.51,3.91,3.65,1.32,1.14,2.65,2.21,4,3.21.51-.66.96-1.31,1.36-1.95.4-.63.76-1.26,1.07-1.86-.27-.18-.53-.35-.76-.51-.23-.17-.46-.33-.67-.5-.22-.17-.44-.35-.67-.54s-.5-.41-.79-.65c.68-1.11,1.16-2.24,1.42-3.39.26-1.14.4-2.16.4-3.06v-.5c0-.21,0-.33-.03-.35l1.03-2.14h-5.13l-1.44,3.93Z"/>
    <path class="cls-2" d="m78.74,67c-.27,0-.52,0-.73-.01-.22,0-.4-.02-.56-.04-.51-.04-.82-.28-.94-.73-.04-.23-.08-.52-.12-.87-.04-.34-.08-.74-.12-1.19.39-1.9,1.13-2.85,2.23-2.87h6.36c-.84-2.37-2.1-4.52-3.78-6.45,0,.88-.11,1.62-.32,2.23h-3.49c-.61.06-1.2.2-1.79.41-.49.23-.94.59-1.35,1.06-.96,1.37-1.44,2.85-1.44,4.46,0,2.31,1.03,5.05,3.08,8.24h9.41l-1.96-4.19-4.49-.03Z"/>
    <path class="cls-2" d="m66.77,55c-.49.33-.93.67-1.33,1.03-.4.35-.77.71-1.1,1.08h-3.02c-.1-.27-.18-.59-.25-.94-.07-.35-.11-.74-.13-1.17-1.96,2.19-3.23,4.3-3.81,6.33h6.42v6.57l-.06,4.28c.68-.49,1.29-1.04,1.8-1.64.52-.61.96-1.27,1.33-1.99v-7.21h2.05l1.67-4.22h-3.58v-2.11Z"/>
    <path class="cls-2" d="m161.17,56.98c-.57-.58-1.16-1.11-1.79-1.6-.22.45-.42.86-.6,1.22-.19.36-.38.7-.59,1.03-.21.32-.44.64-.69.94-.25.3-.57.63-.94.98,1.41.92,2.54,1.92,3.4,2.99.18.31.29.66.35,1.06.06.39.09.9.09,1.52,0,.33,0,.62.01.85,0,.23.02.43.04.59v5.51c1.31-1.19,2.32-2.54,3.02-4.05l.06-4.16v-1.58c0-1.45-.24-2.59-.73-3.43-.53-.66-1.08-1.29-1.64-1.86Z"/>
    <path class="cls-2" d="m168.13,62.57c.07.06.13.12.19.18l-.32-.34c.04.06.07.12.13.16Z"/>
    <path class="cls-2" d="m100.91,57.85c-.55-.49-1.21-.74-1.99-.76l-6.45-.03c-.02-.16-.05-.46-.09-.89-.04-.44-.07-.91-.1-1.42-.03-.51-.05-.99-.07-1.45-.02-.46-.03-.79-.03-.98-.33.39-.62.79-.85,1.19-.23.4-.45.8-.65,1.2-.2.4-.39.81-.57,1.23-.19.42-.4.85-.63,1.28-.12.2-.26.48-.44.86-.18.38-.35.78-.53,1.19-.18.41-.35.8-.53,1.17-.18.37-.32.66-.44.85h9.91c.43.08.76.23,1,.44.22.22.35.54.41.97.02.2.03.37.04.53,0,.16.01.28.01.38l.12,3.75c0,.41,0,.63.03.65l.15,4.11c1.15-.88,2.11-1.86,2.87-2.93l.09-2.61c.02-.06.03-.2.03-.41v-1.7c0-1.35-.06-2.92-.18-4.72-.22-.8-.59-1.43-1.11-1.88Z"/>
    <path class="cls-2" d="m113.6,65.8h.03s.03,0,.03-.03l.94-.5c.31-.18.59-.36.84-.54.24-.19.47-.38.69-.57.61-.53.91-1.24.91-2.14-.22-1.19-.74-2.36-1.58-3.52-.77-1.01-1.61-1.82-2.49-2.47-2.56.66-5.12,2.06-7.68,4.2-.29,1.29-.44,2.68-.44,4.16,0,.78.06,1.98.18,3.58.08.45.19.88.34,1.3.05.15.12.33.2.51.06.13.13.27.2.41.1.22.21.45.31.68,0,0,0,.02.01.02,0,0,0,0,0,.02.05.1.09.2.14.31h11.61l-.82-1.58c-.04-.1-.07-.18-.1-.25s-.08-.16-.16-.28l-.88-1.82h-7.3v.29l-.59-.59h-.29c0-.1,0-.19,0-.29h0s0,0,0,0c0-.41,0-.81.01-1.17,0-.45.02-.86.04-1.23.02-.72.11-1.44.26-2.14,1.54-1.08,3.26-1.88,5.16-2.4.28.24.45.48.53.74l.14.14s-.07.03-.09.03c0,0-.01,0-.02,0,0,.03.01.06.01.09.2.24.3.46.3.64,0,.16-.02.34-.06.56-.04.22-.09.43-.16.63-.07.21-.16.38-.28.53-.12.15-.25.22-.41.22l-2.43.26-.76,2.4h2.31l1.35-.21Z"/>
    <path class="cls-2" d="m89.67,65.94v6.1c.61-.49,1.16-.99,1.67-1.5.51-.51.97-1.05,1.38-1.61v-6.42c-1.19,1.11-2.21,2.26-3.05,3.43Z"/>
    <path class="cls-2" d="m152.19,54.4c-.67-.77-1.39-1.47-2.17-2.1-.49.61-.96,1.26-1.41,1.96-.45.7-.9,1.47-1.35,2.29,1.15.72,2.17,1.61,3.05,2.67.08.1.15.21.22.32.07.12.12.24.16.38.04.1.07.22.09.37.02.15.04.33.06.54.08.68.14,1.33.18,1.95.04.62.06,1.21.06,1.77v3.67c0,.23-.01.38-.03.44v.67l-.03,4.02c.57-.59,1.09-1.19,1.57-1.8.48-.62.91-1.25,1.3-1.89l.23-5.28c.06-1.02.09-2.02.09-3.02,0-1.52-.06-3.01-.18-4.46-.57-.9-1.18-1.73-1.85-2.51Z"/>
    <path class="cls-2" d="m208.2,59.02c-.25.67-.48,1.34-.67,2.02.16,1.96.54,3.91,1.14,5.86h-4.37c-.43-.04-.74-.19-.94-.44-.2-.25-.33-.61-.41-1.06-.04-.22-.07-.44-.1-.66-.03-.22-.06-.44-.1-.66l-.38-4.9c-.06-.68-.1-1.29-.13-1.82-.03-.53-.05-.98-.07-1.35-1.37,1.25-2.36,2.71-2.96,4.37l.38,6.36c.02.16.03.33.04.53s.03.42.07.67c.02.23.04.47.07.7.03.23.08.46.16.67.12.41.31.78.59,1.11.25.29.62.49,1.08.59.1.02.2.03.29.04.1,0,.19.01.29.01h.35c.16,0,.25,0,.29.03l7.48.03c.16.33.31.68.45,1.04.15.36.29.74.43,1.13,1.84-2.25,3.07-4.36,3.69-6.33h-2.52c-.39-1.02-.71-2-.97-2.95-.25-.95-.45-1.87-.59-2.77h2.79l1.14-2.76.18-.35c.08-.12.13-.21.15-.29l.38-.85h-6.36c-.33.67-.63,1.33-.88,1.99Z"/>
    <path class="cls-2" d="m233.6,68.02l-.15-.12s.06.04.07.06.03.04.07.06Z"/>
    <path class="cls-2" d="m232.54,67.38c-.29-.41-.48-.85-.56-1.32l-.94-3.67c-.04-.25-.09-.48-.15-.67s-.11-.36-.15-.5l-.21-.88c-.1-.49-.2-.91-.29-1.28-.1-.36-.19-.66-.26-.89-.16-.43-.45-.87-.88-1.32-.45-.41-1.08-.62-1.88-.62-1.52.04-2.97.45-4.34,1.23-1.43.74-2.47,1.77-3.14,3.08-1.25,2.31-1.88,4.32-1.88,6.04,0,1.02.21,1.99.62,2.93.61,1.41,1.84,2.11,3.69,2.11,1.37,0,2.57-.37,3.61-1.11.78-1.31,1.2-2.73,1.26-4.25-.37.16-.71.31-1.03.45-.31.15-.61.27-.88.37-.51.18-1.01.26-1.5.26-.92,0-1.54-.45-1.85-1.35-.22-.76-.32-1.35-.32-1.76,0-.51.14-1.17.41-1.99,1.33-1.21,2.64-1.82,3.93-1.82.31,0,.63.03.97.09.23.08.41.18.53.29.12.12.19.31.21.59.1.27.16.52.18.73l.85,5.01c.25,1.84.78,3.75,1.58,5.75l1.67-2.11s.09-.09.15-.16c.06-.07.12-.14.18-.22l1.55-1.94c-.55-.45-.93-.81-1.14-1.08Z"/>
    <path class="cls-2" d="m174.89,60.34h2.26c.08.2.14.44.18.73.04.29.06.55.06.76,0,.49-.07.92-.22,1.29s-.39.74-.72,1.11c-.57-.49-.98-.83-1.25-1.03-.27-.19-.5-.39-.72-.59l-1.2-1.17c-.45-.43-.91-.87-1.38-1.33-.47-.46-.93-.94-1.38-1.45-.94-1.02-1.82-2.04-2.64-3.08-.25.43-.48.83-.67,1.19-.2.36-.37.69-.53.98-.08.31-.23.65-.44,1-.1.2-.17.36-.22.5-.05.14-.09.24-.13.32.23.29.45.56.66.81.21.24.42.49.65.75.22.25.47.52.75.79.27.27.59.58.94.91-.41.53-.74,1.05-.98,1.57s-.43,1.02-.57,1.51c-.14.49-.23.95-.28,1.39-.05.44-.07.84-.07,1.19,0,.59.1,1.07.29,1.44.2.45.42.86.68,1.22.25.36.54.68.85.95l.41-.65c.76-1.19,1.52-2.28,2.29-3.25-.35-.19-.56-.42-.61-.69-.06-.26-.09-.65-.09-1.16s.14-.96.41-1.35c1.29,1.29,2.6,2.51,3.92,3.65s2.65,2.21,4,3.21c.51-.66.96-1.31,1.36-1.95.4-.63.76-1.26,1.07-1.86-.27-.18-.53-.35-.76-.51-.23-.17-.46-.33-.67-.5-.22-.17-.44-.35-.67-.54s-.5-.41-.79-.65c.68-1.11,1.16-2.24,1.42-3.39s.4-2.16.4-3.06v-.5c0-.21-.01-.33-.03-.35l1.03-2.14h-5.13l-1.44,3.93Z"/>
    <path class="cls-2" d="m44.19,68.7c-.25-.68-.53-1.37-.84-2.07-.3-.69-.63-1.38-.98-2.07.2-.25.39-.49.57-.72.19-.22.36-.44.51-.66.33-.43.64-.86.91-1.28.27-.42.49-.87.65-1.36.18-.49.26-1.01.26-1.55,0-.21-.03-.49-.09-.82-.14-.61-.31-1.18-.51-1.73-.21-.55-.46-1.07-.78-1.58l-2.96,3.9c.06.1.18.29.37.59.19.29.36.55.51.76.14.23.22.47.26.7.02.1.03.19.04.26,0,.08.01.14.01.18,0,.68-.24,1.21-.73,1.58-.88-.08-1.49.03-1.82.32v-1.11c0-1.51-.24-2.68-.73-3.52-.53-.68-1.08-1.32-1.64-1.92-.57-.6-1.16-1.14-1.79-1.63-.57.68-1.08,1.38-1.55,2.1-.47.71-.89,1.43-1.26,2.16.72.49,1.36.99,1.92,1.5.56.51,1.05,1.04,1.48,1.58.18.31.29.67.35,1.08.06.41.09.93.09,1.55,0,.33,0,.62.01.87,0,.24.02.44.04.6v5.66c1.31-1.25,2.32-2.63,3.02-4.13l.03-2.26c.23.74.56,1.57.97,2.48.41.91.78,1.86,1.11,2.86.33.9.63,1.81.89,2.73.26.92.47,1.85.63,2.79.14-.2.31-.45.53-.78.21-.32.47-.71.76-1.16.2-.29.37-.58.53-.85.16-.27.31-.54.47-.79-.16-.72-.34-1.44-.54-2.16s-.44-1.41-.72-2.1Z"/>
    <path class="cls-2" d="m52.4,56.98c-.57-.58-1.16-1.11-1.79-1.6-.22.45-.42.86-.6,1.22-.19.36-.38.7-.59,1.03-.21.32-.44.64-.69.94-.25.3-.57.63-.94.98,1.41.92,2.54,1.92,3.4,2.99.18.31.29.66.35,1.06.06.39.09.9.09,1.52,0,.33,0,.62.01.85,0,.23.02.43.04.59v5.51c1.31-1.19,2.32-2.54,3.02-4.05l.06-4.16v-1.58c0-1.45-.24-2.59-.73-3.43-.53-.66-1.08-1.29-1.64-1.86Z"/>
    <path class="cls-2" d="m191.72,62.89l-.85,2.73h2.76c.16.43.23.83.23,1.2v.26h-4.16c-1.11-.04-1.86-1-2.23-2.87.04-.45.08-.85.12-1.19.04-.34.08-.63.12-.86.12-.45.43-.69.94-.73.16-.02.34-.03.56-.04.21,0,.46-.01.73-.01l4.49-.03,1.96-4.19h-9.41c-2.05,3.21-3.08,5.95-3.08,8.24,0,1.6.48,3.09,1.44,4.46.41.47.86.82,1.35,1.06.63.21,1.22.35,1.79.41h3.49c.21.65.32,1.39.32,2.23,1.68-1.94,2.94-4.09,3.78-6.45h-.23c.06-.27.1-.56.12-.87.02-.3.03-.63.03-.98v-.5c0-.21-.01-.33-.03-.35l.91-1.5h-5.13Z"/>
    <polygon class="cls-2" points="107.68 66.71 107.68 66.7 107.68 66.7 107.68 66.71"/>
    <path class="cls-2" d="m167.85,62.25l.15.16s-.03-.03-.03-.04c-.06-.02-.1-.06-.12-.12Z"/>
    <path class="cls-1" d="m221.04,83.07v-1.99H52.55v1.99h0s-7.59,20.69-7.59,20.69c15.65,1.93,31.3,2.49,46.94,0,17-2.08,33.74-2.33,50.11,0,20.43,2.5,40.17,2.35,59.32,0,10.15-1.07,18.49-.25,26.1,1.32l-6.41-22.01Zm-154.76,2.15l-3.74,19.36c-2.76-1.73-6.76-2.41-12.63-1.49l16.38-17.87h0Zm19.34,17.84c3.28-7.38,8.95-14.1,18.81-19.66h0c7.8,4.55,12.3,10.52,14.06,17.66-2.99-1.56-27.04.72-32.87,2Zm70.72.35c-2.53-1.94-19.54-3.99-25.61-3.51,5.21-6.81,6.15-9.14,17.32-13.27h0c6.43,5.53,8.49,9.53,8.29,16.78Zm32.79-1.78c3.27-7.38-2.97-12.28,6.88-17.84h0c7.8,4.56,23.29,10.7,25.05,17.84-2.99-1.56-26.1-1.28-31.93,0Z"/>
  </g>
</svg>