<?xml version="1.0" encoding="utf-8"?>
<!-- Generator: Adobe Illustrator 27.7.0, SVG Export Plug-In . SVG Version: 6.00 Build 0)  -->
<svg version="1.1" id="Layer_1" xmlns="http://www.w3.org/2000/svg" xmlns:xlink="http://www.w3.org/1999/xlink" x="0px" y="0px"
	 viewBox="0 0 447.6 115.5" style="enable-background:new 0 0 447.6 115.5;" xml:space="preserve">
<style type="text/css">
	.st0{fill:#FFFFFF;}
	.st1{fill:#FFFFFF;stroke:#DBDFDE;stroke-width:0.24;stroke-linecap:round;stroke-linejoin:round;}
</style>
<g id="LogoLongateBWInvert">
	<rect x="41.9" y="33.2" width="369.8" height="51.1"/>
	<path class="st0" d="M130.8,55.8h1.9c0.1,0.2,0.1,0.4,0.1,0.6c0,0.2,0.1,0.5,0.1,0.6c0,0.4-0.1,0.8-0.2,1.1s-0.3,0.6-0.6,0.9
		c-0.5-0.4-0.8-0.7-1-0.8c-0.2-0.2-0.4-0.3-0.6-0.5l-1-1c-0.4-0.4-0.8-0.7-1.1-1.1c-0.4-0.4-0.8-0.8-1.1-1.2
		c-0.8-0.8-1.5-1.7-2.2-2.6c-0.2,0.4-0.4,0.7-0.6,1c-0.2,0.3-0.3,0.6-0.4,0.8c-0.1,0.3-0.2,0.5-0.4,0.8c-0.1,0.2-0.1,0.3-0.2,0.4
		s-0.1,0.2-0.1,0.3c0.2,0.2,0.4,0.5,0.6,0.7c0.2,0.2,0.3,0.4,0.5,0.6s0.4,0.4,0.6,0.7s0.5,0.5,0.8,0.8c-0.3,0.4-0.6,0.9-0.8,1.3
		c-0.2,0.4-0.4,0.8-0.5,1.2c-0.1,0.4-0.2,0.8-0.2,1.2s-0.1,0.7-0.1,1c0,0.5,0.1,0.9,0.2,1.2c0.2,0.4,0.3,0.7,0.6,1
		c0.2,0.3,0.4,0.6,0.7,0.8l0.3-0.5c0.6-1,1.3-1.9,1.9-2.7c-0.3-0.2-0.5-0.3-0.5-0.6s-0.1-0.5-0.1-1s0.1-0.8,0.3-1.1
		c1.1,1.1,2.2,2.1,3.3,3c1.1,1,2.2,1.8,3.3,2.7c0.4-0.5,0.8-1.1,1.1-1.6c0.3-0.5,0.6-1,0.9-1.5c-0.2-0.2-0.4-0.3-0.6-0.4
		s-0.4-0.3-0.6-0.4c-0.2-0.1-0.4-0.3-0.6-0.5s-0.4-0.3-0.7-0.5c0.6-0.9,1-1.9,1.2-2.8s0.3-1.8,0.3-2.5v-0.4c0-0.2,0-0.3,0-0.3
		l0.9-1.8h-4.3L130.8,55.8L130.8,55.8z"/>
	<path class="st0" d="M88.9,62c-0.2,0-0.4,0-0.6,0c-0.2,0-0.3,0-0.5,0c-0.4,0-0.7-0.2-0.8-0.6c0-0.2-0.1-0.4-0.1-0.7
		c0-0.3-0.1-0.6-0.1-1c0.3-1.6,0.9-2.4,1.8-2.4H94c-0.7-2-1.8-3.8-3.1-5.4c0,0.7-0.1,1.3-0.3,1.8h-2.9c-0.5,0-1,0.2-1.5,0.3
		c-0.4,0.2-0.8,0.5-1.1,0.9c-0.8,1.1-1.2,2.4-1.2,3.7c0,1.9,0.8,4.2,2.6,6.8h7.8l-1.6-3.5C92.7,62.1,88.9,62,88.9,62z"/>
	<path class="st0" d="M79,51.6c-0.4,0.3-0.8,0.6-1.1,0.8c-0.3,0.3-0.6,0.6-0.9,0.9h-2.5c-0.1-0.2-0.2-0.5-0.2-0.8
		c-0.1-0.3-0.1-0.6-0.1-1c-1.6,1.8-2.7,3.6-3.2,5.3h5.3v5.5l-0.1,3.6c0.6-0.4,1.1-0.9,1.5-1.4s0.8-1.1,1.1-1.7v-6h1.7l1.4-3.5h-3
		L79,51.6L79,51.6z"/>
	<path class="st0" d="M343.8,53.2c-0.5-0.5-1-0.9-1.5-1.3c-0.2,0.4-0.4,0.7-0.5,1s-0.3,0.6-0.5,0.8c-0.2,0.3-0.4,0.5-0.6,0.8
		c-0.2,0.2-0.5,0.5-0.8,0.8c1.2,0.8,2.1,1.6,2.8,2.5c0.1,0.3,0.2,0.5,0.3,0.9c0,0.3,0.1,0.8,0.1,1.3c0,0.3,0,0.5,0,0.7
		c0,0.2,0,0.4,0,0.5v4.6c1.1-1,1.9-2.1,2.5-3.4l0-3.5v-1.3c0-1.2-0.2-2.2-0.6-2.8C344.7,54.1,344.3,53.6,343.8,53.2L343.8,53.2z"/>
	<path class="st0" d="M349.6,58.7c0.1,0,0.1,0.1,0.2,0.2l-0.3-0.3C349.5,58.6,349.5,58.7,349.6,58.7L349.6,58.7z"/>
	<path class="st0" d="M107.3,55.1c-0.4-0.4-1-0.6-1.7-0.6l-5.4,0c0-0.1,0-0.4-0.1-0.7s-0.1-0.8-0.1-1.2c0-0.4,0-0.8-0.1-1.2
		c0-0.4,0-0.7,0-0.8c-0.3,0.3-0.5,0.7-0.7,1c-0.2,0.3-0.4,0.7-0.5,1c-0.2,0.3-0.3,0.7-0.5,1c-0.2,0.3-0.3,0.7-0.5,1.1
		c-0.1,0.2-0.2,0.4-0.4,0.7s-0.3,0.7-0.4,1s-0.3,0.7-0.4,1c-0.2,0.3-0.3,0.5-0.4,0.7h8.2c0.4,0.1,0.6,0.2,0.8,0.4
		c0.2,0.2,0.3,0.5,0.3,0.8c0,0.2,0,0.3,0,0.4c0,0.1,0,0.2,0,0.3l0.1,3.1c0,0.3,0,0.5,0,0.5l0.1,3.4c1-0.7,1.8-1.5,2.4-2.4l0.1-2.2
		c0,0,0-0.2,0-0.3v-1.4c0-1.1-0.1-2.4-0.2-3.9C108.1,56,107.7,55.5,107.3,55.1L107.3,55.1z"/>
	<path class="st0" d="M117.9,60.6L117.9,60.6C117.9,60.6,117.9,60.6,117.9,60.6l0.8-0.4c0.3-0.2,0.5-0.3,0.7-0.5
		c0.2-0.2,0.4-0.3,0.6-0.5c0.5-0.4,0.8-1,0.8-1.8c-0.2-1-0.6-2-1.3-2.9c-0.6-0.8-1.3-1.5-2.1-2c-2.1,0.5-4.2,1.7-6.4,3.5
		c-0.2,1.1-0.4,2.2-0.4,3.5c0,0.7,0.1,1.6,0.2,3c0.1,0.4,0.2,0.7,0.3,1.1c0,0.1,0.1,0.3,0.2,0.4c0.1,0.1,0.1,0.2,0.2,0.3
		c0.1,0.2,0.2,0.4,0.3,0.6c0,0,0,0,0,0c0,0,0,0,0,0c0,0.1,0.1,0.2,0.1,0.2h9.7l-0.7-1.3c0-0.1-0.1-0.2-0.1-0.2s-0.1-0.1-0.1-0.2
		l-0.7-1.5h-6.1V62l-0.5-0.5H113c0-0.1,0-0.2,0-0.2l0,0l0,0c0-0.3,0-0.7,0-1c0-0.4,0-0.7,0-1c0-0.6,0.1-1.2,0.2-1.8
		c1.3-0.9,2.7-1.6,4.3-2c0.2,0.2,0.4,0.4,0.4,0.6l0.1,0.1c0,0-0.1,0-0.1,0c0,0,0,0,0,0c0,0,0,0,0,0.1c0.2,0.2,0.2,0.4,0.2,0.5
		c0,0.1,0,0.3-0.1,0.5c0,0.2-0.1,0.3-0.1,0.5c-0.1,0.2-0.1,0.3-0.2,0.4c-0.1,0.1-0.2,0.2-0.3,0.2l-2,0.2l-0.6,2h1.9L117.9,60.6
		L117.9,60.6z"/>
	<path class="st0" d="M98,57.6v5.1c0.5-0.4,1-0.8,1.4-1.2c0.4-0.4,0.8-0.9,1.1-1.3v-5.3C99.6,55.7,98.7,56.7,98,57.6z"/>
	<path class="st0" d="M336.4,51.8c-0.5-0.6-1.1-1.2-1.8-1.7c-0.4,0.5-0.8,1-1.2,1.6c-0.4,0.6-0.8,1.2-1.1,1.9c1,0.6,1.8,1.3,2.5,2.2
		c0.1,0.1,0.1,0.2,0.2,0.3c0.1,0.1,0.1,0.2,0.1,0.3c0,0.1,0.1,0.2,0.1,0.3c0,0.1,0,0.3,0,0.5c0.1,0.6,0.1,1.1,0.1,1.6
		c0,0.5,0,1,0,1.5v3c0,0.2,0,0.3,0,0.4v0.6l0,3.3c0.5-0.5,0.9-1,1.3-1.5c0.4-0.5,0.8-1,1.1-1.6l0.2-4.4c0-0.8,0.1-1.7,0.1-2.5
		c0-1.3,0-2.5-0.1-3.7C337.4,53.1,336.9,52.4,336.4,51.8L336.4,51.8z"/>
	<path class="st0" d="M382.9,54c-0.2,0.5-0.4,1.1-0.6,1.7c0.1,1.6,0.5,3.2,1,4.9h-3.6c-0.4,0-0.6-0.2-0.8-0.4
		c-0.2-0.2-0.3-0.5-0.3-0.9c0-0.2-0.1-0.4-0.1-0.5s0-0.4-0.1-0.5l-0.3-4.1c0-0.6-0.1-1.1-0.1-1.5c0-0.4,0-0.8-0.1-1.1
		c-1.1,1-2,2.2-2.5,3.6l0.3,5.3c0,0.1,0,0.3,0,0.4s0,0.3,0.1,0.6c0,0.2,0,0.4,0.1,0.6c0,0.2,0.1,0.4,0.1,0.6
		c0.1,0.3,0.3,0.7,0.5,0.9c0.2,0.2,0.5,0.4,0.9,0.5c0.1,0,0.2,0,0.2,0c0.1,0,0.2,0,0.2,0h0.3c0.1,0,0.2,0,0.2,0l6.2,0
		c0.1,0.3,0.3,0.6,0.4,0.9s0.2,0.6,0.4,0.9c1.5-1.9,2.5-3.6,3.1-5.3h-2.1c-0.3-0.8-0.6-1.7-0.8-2.5s-0.4-1.5-0.5-2.3h2.3l1-2.3
		l0.1-0.3c0.1-0.1,0.1-0.2,0.1-0.2l0.3-0.7h-5.3C383.3,52.9,383.1,53.5,382.9,54L382.9,54z"/>
	<path class="st0" d="M404,58.8l-0.1-0.1C403.9,58.7,403.9,58.7,404,58.8C403.9,58.8,404,58.8,404,58.8z"/>
	<path class="st0" d="M403.1,61.1c-0.2-0.3-0.4-0.7-0.5-1.1l-0.8-3c0-0.2-0.1-0.4-0.1-0.6s-0.1-0.3-0.1-0.4l-0.2-0.7
		c-0.1-0.4-0.2-0.8-0.2-1.1c-0.1-0.3-0.1-0.5-0.2-0.7c-0.1-0.4-0.4-0.7-0.7-1.1c-0.4-0.3-0.9-0.5-1.6-0.5c-1.3,0-2.5,0.4-3.6,1
		c-1.2,0.6-2.1,1.5-2.6,2.6c-1,1.9-1.6,3.6-1.6,5c0,0.8,0.2,1.7,0.5,2.4c0.5,1.2,1.5,1.8,3.1,1.8c1.1,0,2.1-0.3,3-0.9
		c0.6-1.1,1-2.3,1-3.5c-0.3,0.1-0.6,0.3-0.9,0.4c-0.3,0.1-0.5,0.2-0.7,0.3c-0.4,0.2-0.8,0.2-1.2,0.2c-0.8,0-1.3-0.4-1.5-1.1
		c-0.2-0.6-0.3-1.1-0.3-1.5c0-0.4,0.1-1,0.3-1.7c1.1-1,2.2-1.5,3.3-1.5c0.3,0,0.5,0,0.8,0.1c0.2,0.1,0.3,0.2,0.4,0.2
		c0.1,0.1,0.1,0.3,0.2,0.5c0.1,0.2,0.1,0.4,0.1,0.6l0.7,4.2c0.2,1.5,0.6,3.1,1.3,4.8l1.4-1.8c0,0,0.1-0.1,0.1-0.1
		c0-0.1,0.1-0.1,0.1-0.2l1.3-1.6C403.6,61.6,403.3,61.3,403.1,61.1L403.1,61.1z"/>
	<path class="st0" d="M355.2,55.8h1.9c0.1,0.2,0.1,0.4,0.1,0.6c0,0.2,0,0.5,0,0.6c0,0.4-0.1,0.8-0.2,1.1s-0.3,0.6-0.6,0.9
		c-0.5-0.4-0.8-0.7-1-0.8c-0.2-0.2-0.4-0.3-0.6-0.5l-1-1c-0.4-0.4-0.8-0.7-1.1-1.1c-0.4-0.4-0.8-0.8-1.1-1.2
		c-0.8-0.8-1.5-1.7-2.2-2.6c-0.2,0.4-0.4,0.7-0.6,1c-0.2,0.3-0.3,0.6-0.4,0.8c-0.1,0.3-0.2,0.5-0.4,0.8c-0.1,0.2-0.1,0.3-0.2,0.4
		c0,0.1-0.1,0.2-0.1,0.3c0.2,0.2,0.4,0.5,0.5,0.7c0.2,0.2,0.4,0.4,0.5,0.6s0.4,0.4,0.6,0.7c0.2,0.2,0.5,0.5,0.8,0.8
		c-0.3,0.4-0.6,0.9-0.8,1.3s-0.4,0.8-0.5,1.2c-0.1,0.4-0.2,0.8-0.2,1.2s-0.1,0.7-0.1,1c0,0.5,0.1,0.9,0.2,1.2c0.2,0.4,0.4,0.7,0.6,1
		c0.2,0.3,0.5,0.6,0.7,0.8l0.3-0.5c0.6-1,1.3-1.9,1.9-2.7c-0.3-0.2-0.5-0.3-0.5-0.6c0-0.2-0.1-0.5-0.1-1s0.1-0.8,0.3-1.1
		c1.1,1.1,2.2,2.1,3.2,3s2.2,1.8,3.3,2.7c0.4-0.5,0.8-1.1,1.1-1.6c0.3-0.5,0.6-1,0.9-1.5c-0.2-0.2-0.4-0.3-0.6-0.4s-0.4-0.3-0.6-0.4
		c-0.2-0.1-0.4-0.3-0.6-0.5s-0.4-0.3-0.7-0.5c0.6-0.9,1-1.9,1.2-2.8s0.3-1.8,0.3-2.5v-0.4c0-0.2,0-0.3,0-0.3l0.9-1.8h-4.3
		L355.2,55.8L355.2,55.8z"/>
	<path class="st0" d="M60.2,61.2c-0.2-0.6-0.4-1.1-0.7-1.7s-0.5-1.2-0.8-1.7c0.2-0.2,0.3-0.4,0.5-0.6c0.2-0.2,0.3-0.4,0.4-0.5
		c0.3-0.4,0.5-0.7,0.8-1.1c0.2-0.3,0.4-0.7,0.5-1.1c0.2-0.4,0.2-0.8,0.2-1.3c0-0.2,0-0.4-0.1-0.7c-0.1-0.5-0.3-1-0.4-1.4
		c-0.2-0.5-0.4-0.9-0.7-1.3L57.6,53c0,0.1,0.2,0.2,0.3,0.5c0.2,0.2,0.3,0.5,0.4,0.6c0.1,0.2,0.2,0.4,0.2,0.6c0,0.1,0,0.2,0,0.2
		c0,0.1,0,0.1,0,0.2c0,0.6-0.2,1-0.6,1.3c-0.7-0.1-1.2,0-1.5,0.3v-0.9c0-1.2-0.2-2.2-0.6-2.9c-0.4-0.6-0.9-1.1-1.4-1.6s-1-1-1.5-1.3
		c-0.5,0.6-0.9,1.2-1.3,1.7s-0.7,1.2-1,1.8c0.6,0.4,1.1,0.8,1.6,1.2c0.5,0.4,0.9,0.9,1.2,1.3c0.2,0.3,0.2,0.6,0.3,0.9
		s0.1,0.8,0.1,1.3c0,0.3,0,0.5,0,0.7c0,0.2,0,0.4,0,0.5V64c1.1-1,1.9-2.2,2.5-3.4l0-1.9c0.2,0.6,0.5,1.3,0.8,2.1
		c0.3,0.8,0.7,1.5,0.9,2.4c0.3,0.8,0.5,1.5,0.7,2.3c0.2,0.8,0.4,1.5,0.5,2.3c0.1-0.2,0.3-0.4,0.4-0.7c0.2-0.3,0.4-0.6,0.6-1
		c0.2-0.2,0.3-0.5,0.4-0.7c0.1-0.2,0.3-0.4,0.4-0.7c-0.1-0.6-0.3-1.2-0.5-1.8S60.5,61.8,60.2,61.2L60.2,61.2z"/>
	<path class="st0" d="M67.1,53.2c-0.5-0.5-1-0.9-1.5-1.3c-0.2,0.4-0.3,0.7-0.5,1c-0.1,0.3-0.3,0.6-0.5,0.8c-0.2,0.3-0.4,0.5-0.6,0.8
		s-0.5,0.5-0.8,0.8c1.2,0.8,2.1,1.6,2.8,2.5c0.2,0.3,0.2,0.5,0.3,0.9s0.1,0.8,0.1,1.3c0,0.3,0,0.5,0,0.7c0,0.2,0,0.4,0,0.5v4.6
		c1.1-1,1.9-2.1,2.5-3.4l0.1-3.5v-1.3c0-1.2-0.2-2.2-0.6-2.8C68,54.1,67.5,53.6,67.1,53.2z"/>
	<path class="st0" d="M369.2,56.7l-0.7,2.3h2.3c0.1,0.4,0.2,0.7,0.2,1v0.2h-3.5c-0.9,0-1.5-0.8-1.9-2.4c0-0.4,0.1-0.7,0.1-1
		c0-0.3,0.1-0.5,0.1-0.7c0.1-0.4,0.4-0.6,0.8-0.6c0.1,0,0.3,0,0.5,0c0.2,0,0.4,0,0.6,0l3.7,0l1.6-3.5h-7.8c-1.7,2.7-2.6,5-2.6,6.8
		c0,1.3,0.4,2.6,1.2,3.7c0.3,0.4,0.7,0.7,1.1,0.9c0.5,0.2,1,0.3,1.5,0.3h2.9c0.2,0.5,0.3,1.2,0.3,1.8c1.4-1.6,2.4-3.4,3.1-5.4h-0.2
		c0-0.2,0.1-0.5,0.1-0.7c0-0.2,0-0.5,0-0.8v-0.4c0-0.2,0-0.3,0-0.3l0.8-1.2L369.2,56.7L369.2,56.7z"/>
	<polygon class="st0" points="113,58.8 113,58.8 113,58.8 	"/>
	<path class="st0" d="M349.4,58.7l0.1,0.1c0,0,0,0,0,0C349.4,58.8,349.4,58.7,349.4,58.7L349.4,58.7z"/>
	<g>
		<path class="st1" d="M314.6,49.1v-1.9H155.4v1.9l-7.2,19.5c14.8,1.8,29.6,2.3,44.3,0c16.1-2,31.9-2.2,47.3,0c19.3,2.4,38,2.2,56,0
			c9.6-1,17.5-0.2,24.7,1.2L314.6,49.1L314.6,49.1z M164.8,69.4c-2.6-1.6-6.4-2.3-11.9-1.4l15.5-16.9L164.8,69.4L164.8,69.4
			L164.8,69.4z M186.6,68c3.1-7,8.5-13.3,17.8-18.6c7.4,4.3,11.6,9.9,13.3,16.7C214.9,64.6,192.1,66.8,186.6,68L186.6,68L186.6,68z
			 M253.5,68.3c-2.4-1.8-18.5-3.8-24.2-3.3c4.9-6.4,5.8-8.6,16.4-12.5C251.7,57.6,253.7,61.4,253.5,68.3L253.5,68.3L253.5,68.3z
			 M284.4,66.6c3.1-7-2.8-11.6,6.5-16.8c7.4,4.3,22,10.1,23.7,16.8C311.8,65.1,289.9,65.4,284.4,66.6L284.4,66.6z"/>
		<path d="M164.8,69.4l3.5-18.3L152.9,68C158.4,67.1,162.2,67.7,164.8,69.4L164.8,69.4L164.8,69.4z"/>
		<path d="M204.4,49.4c-9.3,5.2-14.7,11.6-17.8,18.6c5.5-1.2,28.2-3.4,31.1-1.9C216,59.3,211.8,53.7,204.4,49.4L204.4,49.4
			L204.4,49.4z"/>
		<path d="M245.6,52.4c-10.6,3.9-11.4,6.1-16.4,12.5c5.7-0.5,21.8,1.5,24.2,3.3C253.6,61.4,251.7,57.6,245.6,52.4L245.6,52.4
			L245.6,52.4z"/>
		<path d="M290.9,49.8c-9.3,5.2-3.4,9.9-6.5,16.8c5.5-1.2,27.3-1.5,30.2,0C312.9,59.8,298.3,54,290.9,49.8L290.9,49.8z"/>
	</g>
</g>
</svg>
