<?xml version="1.0" encoding="utf-8"?>
<!-- Generator: Adobe Illustrator 27.7.0, SVG Export Plug-In . SVG Version: 6.00 Build 0)  -->
<svg version="1.1" id="Layer_1" xmlns="http://www.w3.org/2000/svg" xmlns:xlink="http://www.w3.org/1999/xlink" x="0px" y="0px"
	 viewBox="0 0 261 153" style="enable-background:new 0 0 261 153;" xml:space="preserve">
<style type="text/css">
	.st0{fill:#231F20;stroke:#231F20;stroke-miterlimit:10;}
	.st1{enable-background:new    ;}
	.st2{fill:#FFFFFF;}
	
		.st3{fill-rule:evenodd;clip-rule:evenodd;fill:#FFFFFF;stroke:#FFFFFF;stroke-width:0.46;stroke-linecap:round;stroke-linejoin:round;}
	.st4{fill:#FFFFFF;stroke:#FFFFFF;stroke-width:0.28;stroke-linecap:round;stroke-linejoin:round;}
	.st5{fill:#231F20;}
</style>
<rect x="0.4" y="78.1" class="st0" width="260.6" height="76"/>
<g class="st1">
	<path class="st2" d="M107.1,95v-8.4h1.1V95H107.1z M107.7,95v-1.1h4.6V95H107.7z"/>
	<path class="st2" d="M115.4,95.1c-0.7,0-1.2-0.2-1.6-0.5s-0.5-0.8-0.5-1.4c0-0.6,0.2-1,0.5-1.3c0.3-0.3,0.8-0.4,1.5-0.4h1.6
		l0.1,0.9h-1.7c-0.3,0-0.5,0.1-0.7,0.2c-0.1,0.1-0.2,0.3-0.2,0.6c0,0.3,0.1,0.5,0.3,0.7c0.2,0.1,0.5,0.2,0.9,0.2c0.4,0,0.8,0,1-0.1
		c0.2-0.1,0.3-0.2,0.3-0.4l0.1,0.8c-0.1,0.2-0.2,0.3-0.4,0.4c-0.1,0.1-0.3,0.2-0.5,0.2C115.9,95.1,115.6,95.1,115.4,95.1z M116.8,95
		v-3.8c0-0.4-0.1-0.7-0.3-0.9c-0.2-0.2-0.5-0.3-0.9-0.3c-0.2,0-0.5,0-0.7,0.1c-0.2,0.1-0.4,0.2-0.6,0.3l-0.8-0.6
		c0.2-0.3,0.5-0.5,0.9-0.6c0.4-0.2,0.8-0.2,1.2-0.2c0.7,0,1.3,0.2,1.7,0.6c0.4,0.4,0.6,0.9,0.6,1.6V95H116.8z"/>
	<path class="st2" d="M121.5,95.1c-0.6,0-1.1-0.2-1.5-0.6c-0.3-0.4-0.5-1-0.5-1.8v-1.3c0-0.8,0.2-1.4,0.5-1.8
		c0.3-0.4,0.8-0.6,1.4-0.6c0.3,0,0.7,0.1,0.9,0.3c0.3,0.2,0.5,0.4,0.7,0.8l-0.1,1.2c0-0.3,0-0.5-0.1-0.6c-0.1-0.2-0.2-0.3-0.4-0.4
		c-0.2-0.1-0.4-0.1-0.6-0.1c-0.4,0-0.7,0.1-0.9,0.4c-0.2,0.2-0.3,0.6-0.3,1v1.3c0,0.4,0.1,0.8,0.3,1c0.2,0.2,0.5,0.4,0.9,0.4
		c0.2,0,0.4,0,0.6-0.1s0.3-0.2,0.4-0.4c0.1-0.2,0.1-0.4,0.1-0.7l0.1,1.3c-0.1,0.3-0.3,0.5-0.5,0.7C122.2,95,121.9,95.1,121.5,95.1z
		 M122.9,95v-8.4h1.1V95H122.9z"/>
	<path class="st2" d="M125.8,87.8v-1.2h1.1v1.2H125.8z M125.8,95v-6h1.1v6H125.8z"/>
	<path class="st2" d="M128.6,95v-6h1.1v6H128.6z M132.2,95v-3.6c0-0.4-0.1-0.7-0.3-1c-0.2-0.2-0.5-0.3-0.9-0.3
		c-0.4,0-0.7,0.1-0.9,0.3c-0.2,0.2-0.3,0.5-0.3,0.9l-0.1-1.1c0.2-0.4,0.4-0.6,0.7-0.8s0.6-0.3,1-0.3c0.6,0,1.1,0.2,1.5,0.6
		s0.5,1,0.5,1.8V95H132.2z"/>
	<path class="st2" d="M137.2,95.1c-0.8,0-1.3-0.2-1.8-0.7c-0.4-0.5-0.6-1.1-0.6-1.9v-1c0-0.8,0.2-1.4,0.6-1.9s1-0.7,1.8-0.7
		s1.3,0.2,1.8,0.7s0.6,1.1,0.6,1.9v1c0,0.8-0.2,1.5-0.6,1.9C138.6,94.9,138,95.1,137.2,95.1z M137.2,94c0.4,0,0.7-0.1,0.9-0.4
		s0.3-0.6,0.3-1.1v-1c0-0.5-0.1-0.8-0.3-1.1c-0.2-0.3-0.5-0.4-0.9-0.4c-0.4,0-0.7,0.1-0.9,0.4c-0.2,0.3-0.3,0.6-0.3,1.1v1
		c0,0.5,0.1,0.8,0.3,1.1C136.5,93.9,136.8,94,137.2,94z"/>
	<path class="st2" d="M144.4,95v-8.4h1.1V95H144.4z M145,87.8v-1.1h4.7v1.1H145z M145,91.4v-1.1h4v1.1H145z M145,95v-1.1h4.7V95H145
		z"/>
	<path class="st2" d="M151.1,95v-6h1.1v6H151.1z M154.6,95v-3.6c0-0.4-0.1-0.7-0.3-1c-0.2-0.2-0.5-0.3-0.9-0.3
		c-0.4,0-0.7,0.1-0.9,0.3c-0.2,0.2-0.3,0.5-0.3,0.9l-0.1-1.1c0.2-0.4,0.4-0.6,0.7-0.8s0.6-0.3,1-0.3c0.6,0,1.1,0.2,1.5,0.6
		s0.5,1,0.5,1.8V95H154.6z"/>
	<path class="st2" d="M157.1,90.1v-1.1h2.6v1.1H157.1z M159,95.1c-0.5,0-0.8-0.1-1-0.4c-0.2-0.3-0.3-0.7-0.3-1.2v-6.2h1.1v6.2
		c0,0.1,0,0.3,0.1,0.3c0.1,0.1,0.1,0.1,0.2,0.1h0.5v1.1H159z"/>
	<path class="st2" d="M161.2,95v-8.4h1.1V95H161.2z M164.7,95v-3.6c0-0.4-0.1-0.7-0.3-1c-0.2-0.2-0.5-0.3-0.9-0.3
		c-0.4,0-0.7,0.1-0.9,0.3s-0.3,0.5-0.3,0.8l-0.1-1.1c0.2-0.4,0.4-0.6,0.7-0.8c0.3-0.2,0.6-0.3,1-0.3c0.6,0,1.1,0.2,1.5,0.6
		s0.5,1,0.5,1.8V95H164.7z"/>
	<path class="st2" d="M168.7,89.1v3.6c0,0.4,0.1,0.7,0.3,1s0.5,0.3,0.9,0.3c0.4,0,0.7-0.1,0.9-0.3c0.2-0.2,0.3-0.5,0.3-0.9l0.1,1.2
		c-0.1,0.3-0.3,0.5-0.5,0.7s-0.6,0.3-1,0.3c-0.6,0-1.1-0.2-1.5-0.6c-0.3-0.4-0.5-1-0.5-1.8v-3.6H168.7z M171.1,95v-6h1.1v6H171.1z"
		/>
	<path class="st2" d="M176,95.1c-0.5,0-1-0.1-1.4-0.2c-0.4-0.2-0.8-0.4-1.1-0.7l0.7-0.9c0.3,0.2,0.6,0.4,0.9,0.6
		c0.3,0.1,0.6,0.2,0.9,0.2c0.5,0,0.8-0.1,1-0.2c0.2-0.1,0.3-0.4,0.3-0.6c0-0.2-0.1-0.4-0.2-0.5s-0.3-0.2-0.6-0.2
		c-0.2,0-0.5-0.1-0.8-0.1c-0.2,0-0.5,0-0.7-0.1c-0.2,0-0.4-0.1-0.6-0.2c-0.2-0.1-0.3-0.3-0.5-0.5s-0.2-0.5-0.2-0.8
		c0-0.6,0.2-1.1,0.6-1.4c0.4-0.3,0.9-0.5,1.7-0.5c0.5,0,0.9,0.1,1.3,0.2c0.4,0.1,0.8,0.3,1.1,0.6l-0.7,0.9c-0.3-0.2-0.6-0.3-0.9-0.4
		S176.3,90,176,90c-0.4,0-0.7,0.1-0.9,0.2c-0.2,0.1-0.3,0.3-0.3,0.6c0,0.2,0.1,0.3,0.2,0.4c0.1,0.1,0.3,0.1,0.5,0.2
		c0.2,0,0.5,0,0.7,0.1c0.2,0,0.5,0,0.7,0.1c0.2,0,0.5,0.1,0.7,0.2c0.2,0.1,0.4,0.3,0.5,0.5c0.1,0.2,0.2,0.5,0.2,0.9
		c0,0.6-0.2,1.1-0.6,1.4C177.4,95,176.8,95.1,176,95.1z"/>
	<path class="st2" d="M179.9,87.8v-1.2h1.1v1.2H179.9z M179.9,95v-6h1.1v6H179.9z"/>
	<path class="st2" d="M184.6,95.1c-0.7,0-1.2-0.2-1.6-0.5s-0.5-0.8-0.5-1.4c0-0.6,0.2-1,0.5-1.3c0.3-0.3,0.8-0.4,1.5-0.4h1.6
		l0.1,0.9h-1.7c-0.3,0-0.5,0.1-0.7,0.2c-0.1,0.1-0.2,0.3-0.2,0.6c0,0.3,0.1,0.5,0.3,0.7c0.2,0.1,0.5,0.2,0.9,0.2c0.4,0,0.8,0,1-0.1
		c0.2-0.1,0.3-0.2,0.3-0.4l0.1,0.8c-0.1,0.2-0.2,0.3-0.4,0.4c-0.1,0.1-0.3,0.2-0.5,0.2C185.1,95.1,184.8,95.1,184.6,95.1z M186,95
		v-3.8c0-0.4-0.1-0.7-0.3-0.9c-0.2-0.2-0.5-0.3-0.9-0.3c-0.2,0-0.5,0-0.7,0.1c-0.2,0.1-0.4,0.2-0.6,0.3l-0.8-0.6
		c0.2-0.3,0.5-0.5,0.9-0.6c0.4-0.2,0.8-0.2,1.2-0.2c0.7,0,1.3,0.2,1.7,0.6c0.4,0.4,0.6,0.9,0.6,1.6V95H186z"/>
	<path class="st2" d="M190.9,95.1c-0.5,0-1-0.1-1.4-0.2c-0.4-0.2-0.8-0.4-1.1-0.7l0.7-0.9c0.3,0.2,0.6,0.4,0.9,0.6
		c0.3,0.1,0.6,0.2,0.9,0.2c0.4,0,0.8-0.1,1-0.2s0.3-0.4,0.3-0.6c0-0.2-0.1-0.4-0.2-0.5s-0.3-0.2-0.6-0.2s-0.5-0.1-0.8-0.1
		c-0.2,0-0.5,0-0.7-0.1c-0.2,0-0.4-0.1-0.6-0.2c-0.2-0.1-0.3-0.3-0.5-0.5s-0.2-0.5-0.2-0.8c0-0.6,0.2-1.1,0.6-1.4
		c0.4-0.3,0.9-0.5,1.7-0.5c0.5,0,0.9,0.1,1.3,0.2c0.4,0.1,0.8,0.3,1.1,0.6l-0.7,0.9c-0.3-0.2-0.6-0.3-0.9-0.4
		c-0.3-0.1-0.6-0.1-0.8-0.1c-0.4,0-0.7,0.1-0.9,0.2c-0.2,0.1-0.3,0.3-0.3,0.6c0,0.2,0.1,0.3,0.2,0.4c0.1,0.1,0.3,0.1,0.5,0.2
		c0.2,0,0.5,0,0.7,0.1c0.2,0,0.5,0,0.7,0.1c0.2,0,0.5,0.1,0.7,0.2s0.4,0.3,0.5,0.5c0.1,0.2,0.2,0.5,0.2,0.9c0,0.6-0.2,1.1-0.6,1.4
		C192.3,95,191.7,95.1,190.9,95.1z"/>
	<path class="st2" d="M194.3,90.1v-1.1h2.6v1.1H194.3z M196.2,95.1c-0.5,0-0.8-0.1-1-0.4s-0.3-0.7-0.3-1.2v-6.2h1.1v6.2
		c0,0.1,0,0.3,0.1,0.3c0.1,0.1,0.1,0.1,0.2,0.1h0.5v1.1H196.2z"/>
</g>
<g class="st1">
	<path class="st2" d="M109.1,110.9c-0.7-0.7-1.2-1.6-1.5-2.5c-0.3-0.9-0.5-1.9-0.5-3s0.2-2.1,0.5-3c0.3-0.9,0.8-1.7,1.5-2.5l0.8,0.7
		c-0.6,0.6-1,1.4-1.3,2.2c-0.3,0.8-0.4,1.7-0.4,2.6s0.1,1.8,0.4,2.6s0.7,1.5,1.3,2.2L109.1,110.9z"/>
	<path class="st2" d="M112.9,109.2c-0.7,0-1.3-0.2-1.7-0.7s-0.6-1.1-0.6-1.9v0c0-0.4,0-0.7,0.1-1.1s0.2-0.8,0.4-1.2l1.8-3.6h1.2
		l-2.1,4.2l0-0.2c0.2-0.4,0.5-0.6,1-0.6c0.6,0,1.1,0.2,1.5,0.7c0.3,0.4,0.5,1,0.5,1.8v0c0,0.8-0.2,1.4-0.6,1.9
		C114.2,109,113.6,109.2,112.9,109.2z M112.9,108.1c0.4,0,0.6-0.1,0.8-0.3c0.2-0.2,0.3-0.6,0.3-1v0c0-0.5-0.1-0.8-0.3-1.1
		c-0.2-0.3-0.5-0.4-0.9-0.4c-0.3,0-0.6,0.1-0.8,0.4c-0.2,0.3-0.3,0.6-0.3,1.1v0c0,0.4,0.1,0.8,0.3,1
		C112.3,108,112.6,108.1,112.9,108.1z"/>
	<path class="st2" d="M118.6,100.8v8.4h-1.1v-7.1l-1.2,0.7v-1.2l1.2-0.8H118.6z"/>
	<path class="st2" d="M122.7,109.2c-0.6,0-1.1-0.2-1.5-0.5c-0.4-0.4-0.6-0.9-0.7-1.5v0h1.1v0c0,0.3,0.2,0.5,0.4,0.7
		c0.2,0.2,0.5,0.3,0.8,0.3c0.4,0,0.6-0.1,0.8-0.4c0.2-0.3,0.3-0.6,0.3-1.1V106c0-0.5-0.1-0.8-0.3-1.1c-0.2-0.2-0.5-0.4-0.8-0.4
		c-0.2,0-0.4,0.1-0.6,0.2s-0.3,0.3-0.5,0.5h-1v-4.4h4.1v1.1h-3v1.9c0.1-0.1,0.3-0.2,0.5-0.3c0.2-0.1,0.4-0.1,0.5-0.1
		c0.7,0,1.3,0.2,1.6,0.7c0.4,0.4,0.6,1.1,0.6,1.9v0.7c0,0.8-0.2,1.4-0.6,1.9C124,109,123.5,109.2,122.7,109.2z"/>
	<path class="st2" d="M126.7,110.9l-0.8-0.7c0.6-0.6,1-1.4,1.3-2.2c0.3-0.8,0.4-1.7,0.4-2.6s-0.1-1.8-0.4-2.6
		c-0.3-0.8-0.7-1.5-1.3-2.2l0.8-0.7c0.7,0.7,1.2,1.6,1.5,2.5c0.3,0.9,0.5,1.9,0.5,3s-0.2,2.1-0.5,3
		C127.9,109.4,127.4,110.2,126.7,110.9z"/>
	<path class="st2" d="M135.9,109.2c-0.6,0-1.1-0.2-1.5-0.5c-0.4-0.4-0.6-0.9-0.7-1.5v0h1.1v0c0,0.3,0.2,0.5,0.4,0.7
		c0.2,0.2,0.5,0.3,0.8,0.3c0.4,0,0.6-0.1,0.8-0.4s0.3-0.6,0.3-1.1V106c0-0.5-0.1-0.8-0.3-1.1c-0.2-0.2-0.5-0.4-0.8-0.4
		c-0.2,0-0.4,0.1-0.6,0.2c-0.2,0.1-0.3,0.3-0.5,0.5h-1v-4.4h4.1v1.1h-3v1.9c0.1-0.1,0.3-0.2,0.5-0.3c0.2-0.1,0.4-0.1,0.5-0.1
		c0.7,0,1.3,0.2,1.6,0.7s0.6,1.1,0.6,1.9v0.7c0,0.8-0.2,1.4-0.6,1.9C137.2,109,136.6,109.2,135.9,109.2z"/>
	<path class="st2" d="M142.2,109.2c-0.8,0-1.4-0.2-1.7-0.6c-0.4-0.4-0.6-1-0.6-1.7v-3.8c0-0.7,0.2-1.3,0.6-1.7s1-0.6,1.7-0.6
		c0.8,0,1.3,0.2,1.7,0.6c0.4,0.4,0.6,1,0.6,1.7v3.8c0,0.7-0.2,1.3-0.6,1.7C143.5,109,142.9,109.2,142.2,109.2z M142.2,108.1
		c0.4,0,0.7-0.1,0.9-0.3c0.2-0.2,0.3-0.5,0.3-0.9v-3.8c0-0.4-0.1-0.7-0.3-0.9c-0.2-0.2-0.5-0.3-0.9-0.3c-0.4,0-0.7,0.1-0.9,0.3
		c-0.2,0.2-0.3,0.5-0.3,0.9v3.8c0,0.4,0.1,0.7,0.3,0.9C141.4,108,141.7,108.1,142.2,108.1z"/>
	<path class="st2" d="M146,109.2v-1l2.8-3.9c0.2-0.2,0.3-0.5,0.4-0.7c0.1-0.2,0.1-0.5,0.1-0.7v0c0-0.3-0.1-0.6-0.3-0.8
		c-0.2-0.2-0.5-0.3-0.8-0.3c-0.3,0-0.6,0.1-0.8,0.3c-0.2,0.2-0.3,0.5-0.4,0.9v0h-1.2v0c0.1-0.7,0.4-1.3,0.8-1.7
		c0.4-0.4,0.9-0.6,1.6-0.6c0.7,0,1.3,0.2,1.7,0.6c0.4,0.4,0.6,0.9,0.6,1.6v0c0,0.3-0.1,0.6-0.2,0.9s-0.3,0.6-0.5,0.9l-2.3,3.3h3.1
		v1.1H146z"/>
	<path class="st2" d="M152.1,105.6h3.7v1.1h-3.7V105.6z"/>
	<path class="st2" d="M159.8,109.2c-0.8,0-1.4-0.2-1.7-0.6c-0.4-0.4-0.6-1-0.6-1.7v-3.8c0-0.7,0.2-1.3,0.6-1.7s1-0.6,1.7-0.6
		c0.8,0,1.3,0.2,1.7,0.6c0.4,0.4,0.6,1,0.6,1.7v3.8c0,0.7-0.2,1.3-0.6,1.7C161.2,109,160.6,109.2,159.8,109.2z M159.8,108.1
		c0.4,0,0.7-0.1,0.9-0.3c0.2-0.2,0.3-0.5,0.3-0.9v-3.8c0-0.4-0.1-0.7-0.3-0.9c-0.2-0.2-0.5-0.3-0.9-0.3c-0.4,0-0.7,0.1-0.9,0.3
		c-0.2,0.2-0.3,0.5-0.3,0.9v3.8c0,0.4,0.1,0.7,0.3,0.9C159.1,108,159.4,108.1,159.8,108.1z"/>
	<path class="st2" d="M165.9,109.2c-0.5,0-0.9-0.1-1.2-0.3s-0.6-0.4-0.8-0.7c-0.2-0.3-0.3-0.7-0.4-1.2h1.2c0.1,0.4,0.2,0.6,0.4,0.8
		c0.2,0.2,0.5,0.2,0.9,0.2c0.4,0,0.7-0.1,0.9-0.3c0.2-0.2,0.3-0.5,0.3-0.9v-0.3c0-0.4-0.1-0.7-0.3-1c-0.2-0.2-0.5-0.3-0.8-0.3h-0.6
		v-1.1h0.6c0.3,0,0.6-0.1,0.7-0.3s0.3-0.5,0.3-0.8v-0.3c0-0.3-0.1-0.6-0.3-0.8c-0.2-0.2-0.4-0.3-0.8-0.3c-0.3,0-0.5,0.1-0.7,0.2
		c-0.2,0.2-0.3,0.4-0.4,0.8h-1.2c0.1-0.7,0.4-1.2,0.8-1.6c0.4-0.4,0.9-0.6,1.5-0.6c0.7,0,1.2,0.2,1.6,0.6s0.6,0.9,0.6,1.6v0.1
		c0,0.4-0.1,0.8-0.3,1.1c-0.2,0.3-0.5,0.5-0.9,0.7c0.4,0.1,0.8,0.3,1,0.7c0.2,0.4,0.4,0.8,0.4,1.3v0.1c0,0.7-0.2,1.3-0.6,1.7
		C167.2,109,166.6,109.2,165.9,109.2z"/>
	<path class="st2" d="M172.2,109.2c-0.5,0-0.9-0.1-1.3-0.3c-0.4-0.2-0.7-0.5-0.9-0.8c-0.2-0.3-0.3-0.8-0.3-1.2v-0.1
		c0-0.4,0.1-0.8,0.3-1.2c0.2-0.4,0.5-0.6,0.8-0.8c-0.3-0.2-0.5-0.4-0.7-0.7s-0.3-0.6-0.3-1v-0.2c0-0.7,0.2-1.2,0.6-1.6
		s1-0.6,1.7-0.6s1.2,0.2,1.7,0.6s0.6,0.9,0.6,1.6v0.2c0,0.3-0.1,0.7-0.3,1c-0.2,0.3-0.4,0.5-0.7,0.7c0.3,0.2,0.6,0.5,0.8,0.8
		c0.2,0.4,0.3,0.8,0.3,1.2v0.1c0,0.5-0.1,0.9-0.3,1.2c-0.2,0.3-0.5,0.6-0.9,0.8C173.1,109.1,172.7,109.2,172.2,109.2z M172.2,108.1
		c0.4,0,0.7-0.1,1-0.4c0.2-0.2,0.4-0.5,0.4-0.9v-0.1c0-0.4-0.1-0.7-0.4-0.9c-0.2-0.2-0.6-0.4-1-0.4s-0.7,0.1-1,0.4
		c-0.2,0.2-0.4,0.5-0.4,0.9v0.1c0,0.4,0.1,0.7,0.4,0.9C171.5,108,171.8,108.1,172.2,108.1z M172.2,104.3c0.3,0,0.6-0.1,0.8-0.3
		c0.2-0.2,0.3-0.5,0.3-0.9V103c0-0.4-0.1-0.6-0.3-0.9c-0.2-0.2-0.5-0.3-0.8-0.3s-0.6,0.1-0.8,0.3c-0.2,0.2-0.3,0.5-0.3,0.9v0.1
		c0,0.4,0.1,0.7,0.3,0.9C171.6,104.2,171.8,104.3,172.2,104.3z"/>
	<path class="st2" d="M176.1,107.9v-1l2.7-6.1h1.2l-2.7,6h4v1.1H176.1z M179.6,109.2v-4.9h1.1v4.9H179.6z"/>
</g>
<g class="st1">
	<path class="st2" d="M106.3,123.3l3-8.4h1l3,8.4h-1.2l-2.2-6.7l-2.2,6.7H106.3z M107.7,121.4v-1.1h4.3v1.1H107.7z"/>
	<path class="st2" d="M114.4,125.7v-8.4h1.1v8.4H114.4z M117,123.4c-0.4,0-0.7-0.1-0.9-0.3s-0.5-0.4-0.6-0.8l0.1-1.2
		c0,0.3,0,0.5,0.1,0.7c0.1,0.2,0.2,0.3,0.4,0.4s0.4,0.1,0.6,0.1c0.4,0,0.7-0.1,0.9-0.4c0.2-0.2,0.3-0.6,0.3-1v-1.3
		c0-0.4-0.1-0.8-0.3-1c-0.2-0.2-0.5-0.4-0.9-0.4c-0.2,0-0.4,0-0.6,0.1s-0.3,0.2-0.4,0.4c-0.1,0.2-0.1,0.4-0.1,0.6l-0.1-1.1
		c0.2-0.3,0.4-0.6,0.7-0.8c0.3-0.2,0.6-0.3,0.9-0.3c0.6,0,1.1,0.2,1.4,0.6c0.3,0.4,0.5,1,0.5,1.8v1.3c0,0.8-0.2,1.4-0.5,1.8
		C118.1,123.2,117.6,123.4,117,123.4z"/>
	<path class="st2" d="M120.6,123.3v-6h1.1v6H120.6z M123.8,118.7c-0.1-0.1-0.2-0.2-0.4-0.3c-0.2-0.1-0.3-0.1-0.5-0.1
		c-0.4,0-0.6,0.1-0.8,0.3c-0.2,0.2-0.3,0.5-0.3,0.9l-0.1-1.1c0.2-0.4,0.4-0.6,0.7-0.8s0.6-0.3,0.9-0.3c0.3,0,0.5,0,0.7,0.1
		c0.2,0.1,0.4,0.2,0.6,0.3L123.8,118.7z"/>
	<path class="st2" d="M125.5,116.1v-1.2h1.1v1.2H125.5z M125.5,123.3v-6h1.1v6H125.5z"/>
	<path class="st2" d="M129.5,114.9v6.8c0,0.1,0,0.3,0.1,0.3c0.1,0.1,0.1,0.1,0.3,0.1h0.5v1.1h-0.7c-0.4,0-0.8-0.1-1-0.4
		s-0.4-0.7-0.4-1.2v-6.8H129.5z"/>
	<path class="st2" d="M135.9,125.5c-1.4,0-2.5-0.4-3.2-1.1c-0.7-0.7-1.1-1.8-1.1-3.2c0-0.3,0-0.5,0-0.8s0-0.5,0-0.8
		c0-1.6,0.4-2.7,1.1-3.5s1.8-1.2,3.2-1.2c1.4,0,2.4,0.4,3.2,1.2c0.7,0.8,1.1,1.9,1.1,3.5c0,0.3,0,0.6,0,0.9c0,0.3,0,0.6,0,0.9
		c0,0.7-0.1,1.2-0.4,1.5c-0.3,0.3-0.7,0.5-1.2,0.5c-0.5,0-0.9-0.2-1.2-0.5s-0.4-0.8-0.4-1.4l1.2,0c0,0.3,0,0.5,0.1,0.6
		c0.1,0.1,0.2,0.2,0.4,0.2c0.2,0,0.3-0.1,0.4-0.2c0.1-0.1,0.1-0.3,0.1-0.6c0-0.3,0-0.6,0-1c0-0.3,0-0.6,0-1c0-1.2-0.3-2.1-0.8-2.7
		s-1.3-0.9-2.4-0.9c-1.1,0-1.9,0.3-2.4,0.9s-0.8,1.5-0.8,2.7c0,0.3,0,0.5,0,0.8c0,0.3,0,0.5,0,0.8c0,1.1,0.3,1.9,0.8,2.4
		c0.5,0.5,1.3,0.8,2.4,0.8h1.7v1H135.9z M135.6,123.4c-1.3,0-2-0.9-2-2.6v-1c0-1.7,0.7-2.6,2.2-2.6c1.5,0,2.2,0.9,2.2,2.6v1.9
		l-0.8,0.3c-0.1,0.5-0.2,0.8-0.5,1C136.4,123.3,136.1,123.4,135.6,123.4z M135.8,122.3c0.8,0,1.1-0.5,1.1-1.5v-1.1
		c0-1-0.4-1.5-1.1-1.5c-0.8,0-1.1,0.5-1.1,1.5v1.1C134.7,121.8,135.1,122.3,135.8,122.3z"/>
	<path class="st2" d="M143.7,123.4c-0.7,0-1.2-0.2-1.6-0.5s-0.5-0.8-0.5-1.4c0-0.6,0.2-1,0.5-1.3c0.3-0.3,0.8-0.4,1.5-0.4h1.6
		l0.1,0.9h-1.7c-0.3,0-0.5,0.1-0.7,0.2s-0.2,0.3-0.2,0.6c0,0.3,0.1,0.5,0.3,0.7c0.2,0.1,0.5,0.2,0.9,0.2c0.4,0,0.8,0,1-0.1
		c0.2-0.1,0.3-0.2,0.3-0.4l0.1,0.8c-0.1,0.2-0.2,0.3-0.4,0.4s-0.3,0.2-0.5,0.2C144.1,123.3,143.9,123.4,143.7,123.4z M145.1,123.3
		v-3.8c0-0.4-0.1-0.7-0.3-0.9c-0.2-0.2-0.5-0.3-0.9-0.3c-0.2,0-0.5,0-0.7,0.1c-0.2,0.1-0.4,0.2-0.6,0.3l-0.8-0.6
		c0.2-0.3,0.5-0.5,0.9-0.6c0.4-0.2,0.8-0.2,1.2-0.2c0.7,0,1.3,0.2,1.7,0.6s0.6,0.9,0.6,1.6v3.8H145.1z"/>
	<path class="st2" d="M149.7,123.4c-0.7,0-1.2-0.2-1.6-0.5s-0.5-0.8-0.5-1.4c0-0.6,0.2-1,0.5-1.3c0.3-0.3,0.8-0.4,1.5-0.4h1.6
		l0.1,0.9h-1.7c-0.3,0-0.5,0.1-0.7,0.2s-0.2,0.3-0.2,0.6c0,0.3,0.1,0.5,0.3,0.7c0.2,0.1,0.5,0.2,0.9,0.2c0.4,0,0.8,0,1-0.1
		c0.2-0.1,0.3-0.2,0.3-0.4l0.1,0.8c-0.1,0.2-0.2,0.3-0.4,0.4s-0.3,0.2-0.5,0.2C150.2,123.3,150,123.4,149.7,123.4z M151.2,123.3
		v-3.8c0-0.4-0.1-0.7-0.3-0.9c-0.2-0.2-0.5-0.3-0.9-0.3c-0.2,0-0.5,0-0.7,0.1c-0.2,0.1-0.4,0.2-0.6,0.3l-0.8-0.6
		c0.2-0.3,0.5-0.5,0.9-0.6c0.4-0.2,0.8-0.2,1.2-0.2c0.7,0,1.3,0.2,1.7,0.6s0.6,0.9,0.6,1.6v3.8H151.2z"/>
	<path class="st2" d="M156.3,123.4c-0.8,0-1.4-0.2-1.8-0.7c-0.4-0.5-0.7-1.1-0.7-1.9v-1c0-0.8,0.2-1.4,0.7-1.9
		c0.4-0.4,1.1-0.7,1.8-0.7c0.5,0,0.9,0.1,1.2,0.2c0.4,0.2,0.7,0.4,0.9,0.7l-0.8,0.8c-0.2-0.2-0.3-0.3-0.6-0.4
		c-0.2-0.1-0.4-0.2-0.7-0.2c-0.4,0-0.8,0.1-1,0.4c-0.2,0.3-0.4,0.6-0.4,1.1v1c0,0.5,0.1,0.8,0.4,1.1s0.6,0.4,1,0.4
		c0.2,0,0.5-0.1,0.7-0.2c0.2-0.1,0.4-0.3,0.6-0.5l0.8,0.8c-0.2,0.3-0.5,0.5-0.9,0.7C157.2,123.3,156.7,123.4,156.3,123.4z"/>
	<path class="st2" d="M159.6,123.3v-8.4h1.1v8.4H159.6z M163.2,123.3v-3.6c0-0.4-0.1-0.7-0.3-1c-0.2-0.2-0.5-0.3-0.9-0.3
		c-0.4,0-0.7,0.1-0.9,0.3s-0.3,0.5-0.3,0.8l-0.1-1.1c0.2-0.4,0.4-0.6,0.7-0.8c0.3-0.2,0.6-0.3,1-0.3c0.6,0,1.1,0.2,1.5,0.6
		s0.5,1,0.5,1.8v3.6H163.2z"/>
	<path class="st2" d="M166,116.1v-1.2h1.1v1.2H166z M166,123.3v-6h1.1v6H166z"/>
	<path class="st2" d="M168.9,125.7v-8.4h1.1v8.4H168.9z M171.5,123.4c-0.4,0-0.7-0.1-0.9-0.3s-0.5-0.4-0.6-0.8l0.1-1.2
		c0,0.3,0,0.5,0.1,0.7c0.1,0.2,0.2,0.3,0.4,0.4s0.4,0.1,0.6,0.1c0.4,0,0.7-0.1,0.9-0.4c0.2-0.2,0.3-0.6,0.3-1v-1.3
		c0-0.4-0.1-0.8-0.3-1c-0.2-0.2-0.5-0.4-0.9-0.4c-0.2,0-0.4,0-0.6,0.1s-0.3,0.2-0.4,0.4c-0.1,0.2-0.1,0.4-0.1,0.6l-0.1-1.1
		c0.2-0.3,0.4-0.6,0.7-0.8c0.3-0.2,0.6-0.3,0.9-0.3c0.6,0,1.1,0.2,1.4,0.6c0.3,0.4,0.5,1,0.5,1.8v1.3c0,0.8-0.2,1.4-0.5,1.8
		C172.6,123.2,172.1,123.4,171.5,123.4z"/>
	<path class="st2" d="M177.1,123.4c-0.5,0-1-0.1-1.4-0.2c-0.4-0.2-0.8-0.4-1.1-0.7l0.7-0.9c0.3,0.2,0.6,0.4,0.9,0.6
		c0.3,0.1,0.6,0.2,0.9,0.2c0.4,0,0.8-0.1,1-0.2c0.2-0.1,0.3-0.4,0.3-0.6c0-0.2-0.1-0.4-0.2-0.5s-0.3-0.2-0.6-0.2
		c-0.2,0-0.5-0.1-0.8-0.1c-0.2,0-0.5,0-0.7-0.1c-0.2,0-0.4-0.1-0.6-0.2c-0.2-0.1-0.3-0.3-0.5-0.5s-0.2-0.5-0.2-0.8
		c0-0.6,0.2-1.1,0.6-1.4s0.9-0.5,1.7-0.5c0.5,0,0.9,0.1,1.3,0.2s0.8,0.3,1.1,0.6l-0.7,0.9c-0.3-0.2-0.6-0.3-0.9-0.4
		c-0.3-0.1-0.6-0.1-0.8-0.1c-0.4,0-0.7,0.1-0.9,0.2c-0.2,0.1-0.3,0.3-0.3,0.6c0,0.2,0.1,0.3,0.2,0.4c0.1,0.1,0.3,0.1,0.5,0.2
		c0.2,0,0.5,0,0.7,0.1c0.2,0,0.5,0,0.7,0.1c0.2,0,0.5,0.1,0.7,0.2c0.2,0.1,0.4,0.3,0.5,0.5c0.1,0.2,0.2,0.5,0.2,0.9
		c0,0.6-0.2,1.1-0.6,1.4S178,123.4,177.1,123.4z"/>
	<path class="st2" d="M180.8,123.3V122h1.2v1.2H180.8z"/>
	<path class="st2" d="M185.7,123.4c-0.8,0-1.4-0.2-1.8-0.7c-0.4-0.5-0.7-1.1-0.7-1.9v-1c0-0.8,0.2-1.4,0.7-1.9
		c0.4-0.4,1.1-0.7,1.8-0.7c0.5,0,0.9,0.1,1.2,0.2c0.4,0.2,0.7,0.4,0.9,0.7l-0.8,0.8c-0.2-0.2-0.3-0.3-0.6-0.4
		c-0.2-0.1-0.5-0.2-0.7-0.2c-0.4,0-0.8,0.1-1,0.4c-0.2,0.3-0.4,0.6-0.4,1.1v1c0,0.5,0.1,0.8,0.4,1.1s0.6,0.4,1,0.4
		c0.2,0,0.5-0.1,0.7-0.2c0.2-0.1,0.4-0.3,0.6-0.5l0.8,0.8c-0.2,0.3-0.5,0.5-0.9,0.7C186.6,123.3,186.2,123.4,185.7,123.4z"/>
	<path class="st2" d="M191.3,123.4c-0.8,0-1.3-0.2-1.8-0.7c-0.4-0.5-0.6-1.1-0.6-1.9v-1c0-0.8,0.2-1.4,0.6-1.9
		c0.4-0.4,1-0.7,1.8-0.7c0.8,0,1.3,0.2,1.8,0.7c0.4,0.4,0.6,1.1,0.6,1.9v1c0,0.8-0.2,1.5-0.6,1.9C192.6,123.1,192,123.4,191.3,123.4
		z M191.3,122.3c0.4,0,0.7-0.1,0.9-0.4s0.3-0.6,0.3-1.1v-1c0-0.5-0.1-0.8-0.3-1.1c-0.2-0.3-0.5-0.4-0.9-0.4c-0.4,0-0.7,0.1-0.9,0.4
		c-0.2,0.3-0.3,0.6-0.3,1.1v1c0,0.5,0.1,0.8,0.3,1.1C190.6,122.1,190.9,122.3,191.3,122.3z"/>
</g>
<g class="st1">
	<path class="st2" d="M108.3,137.4l-1.8-6h1.2l1,4.3l1.4-4.3h0.8l1.4,4.3l1-4.3h1.2l-1.8,6H112l-1.4-4.1l-1.4,4.1H108.3z"/>
	<path class="st2" d="M117.1,137.4l-1.8-6h1.2l1,4.3l1.4-4.3h0.8l1.4,4.3l1-4.3h1.2l-1.8,6h-0.9l-1.4-4.1l-1.4,4.1H117.1z"/>
	<path class="st2" d="M125.9,137.4l-1.8-6h1.2l1,4.3l1.4-4.3h0.8l1.4,4.3l1-4.3h1.2l-1.8,6h-0.9l-1.4-4.1l-1.4,4.1H125.9z"/>
	<path class="st2" d="M132.6,137.4v-1.2h1.2v1.2H132.6z"/>
	<path class="st2" d="M137.3,137.5c-0.7,0-1.2-0.2-1.6-0.5c-0.4-0.3-0.5-0.8-0.5-1.4c0-0.6,0.2-1,0.5-1.3s0.8-0.4,1.5-0.4h1.6
		l0.1,0.9h-1.7c-0.3,0-0.5,0.1-0.7,0.2c-0.1,0.1-0.2,0.3-0.2,0.6c0,0.3,0.1,0.5,0.3,0.7c0.2,0.1,0.5,0.2,0.9,0.2c0.4,0,0.8,0,1-0.1
		c0.2-0.1,0.3-0.2,0.3-0.4l0.1,0.8c-0.1,0.2-0.2,0.3-0.4,0.4s-0.3,0.2-0.5,0.2C137.7,137.5,137.5,137.5,137.3,137.5z M138.7,137.4
		v-3.8c0-0.4-0.1-0.7-0.3-0.9c-0.2-0.2-0.5-0.3-0.9-0.3c-0.2,0-0.5,0-0.7,0.1s-0.4,0.2-0.6,0.3l-0.8-0.6c0.2-0.3,0.5-0.5,0.9-0.6
		s0.8-0.2,1.2-0.2c0.7,0,1.3,0.2,1.7,0.6c0.4,0.4,0.6,0.9,0.6,1.6v3.8H138.7z"/>
	<path class="st2" d="M143.3,137.5c-0.7,0-1.2-0.2-1.6-0.5s-0.5-0.8-0.5-1.4c0-0.6,0.2-1,0.5-1.3c0.3-0.3,0.8-0.4,1.5-0.4h1.6
		l0.1,0.9h-1.7c-0.3,0-0.5,0.1-0.7,0.2c-0.1,0.1-0.2,0.3-0.2,0.6c0,0.3,0.1,0.5,0.3,0.7c0.2,0.1,0.5,0.2,0.9,0.2c0.4,0,0.8,0,1-0.1
		c0.2-0.1,0.3-0.2,0.3-0.4l0.1,0.8c-0.1,0.2-0.2,0.3-0.4,0.4c-0.1,0.1-0.3,0.2-0.5,0.2C143.8,137.5,143.6,137.5,143.3,137.5z
		 M144.8,137.4v-3.8c0-0.4-0.1-0.7-0.3-0.9c-0.2-0.2-0.5-0.3-0.9-0.3c-0.2,0-0.5,0-0.7,0.1c-0.2,0.1-0.4,0.2-0.6,0.3l-0.8-0.6
		c0.2-0.3,0.5-0.5,0.9-0.6c0.4-0.2,0.8-0.2,1.2-0.2c0.7,0,1.3,0.2,1.7,0.6c0.4,0.4,0.6,0.9,0.6,1.6v3.8H144.8z"/>
	<path class="st2" d="M149.9,137.5c-0.8,0-1.4-0.2-1.8-0.7c-0.4-0.5-0.7-1.1-0.7-1.9v-1c0-0.8,0.2-1.4,0.7-1.9
		c0.4-0.4,1.1-0.7,1.8-0.7c0.5,0,0.9,0.1,1.2,0.2c0.4,0.2,0.7,0.4,0.9,0.7l-0.8,0.8c-0.2-0.2-0.3-0.3-0.6-0.4
		c-0.2-0.1-0.5-0.2-0.7-0.2c-0.4,0-0.8,0.1-1,0.4c-0.2,0.3-0.4,0.6-0.4,1.1v1c0,0.5,0.1,0.8,0.4,1.1c0.2,0.3,0.6,0.4,1,0.4
		c0.2,0,0.5-0.1,0.7-0.2s0.4-0.3,0.6-0.5l0.8,0.8c-0.2,0.3-0.5,0.5-0.9,0.7C150.8,137.4,150.3,137.5,149.9,137.5z"/>
	<path class="st2" d="M153.2,137.4V129h1.1v8.4H153.2z M156.8,137.4v-3.6c0-0.4-0.1-0.7-0.3-1c-0.2-0.2-0.5-0.3-0.9-0.3
		c-0.4,0-0.7,0.1-0.9,0.3s-0.3,0.5-0.3,0.8l-0.1-1.2c0.2-0.4,0.4-0.6,0.7-0.8c0.3-0.2,0.6-0.3,1-0.3c0.6,0,1.1,0.2,1.5,0.6
		s0.5,1,0.5,1.8v3.6H156.8z"/>
	<path class="st2" d="M159.6,130.2V129h1.1v1.2H159.6z M159.6,137.4v-6h1.1v6H159.6z"/>
	<path class="st2" d="M162.5,139.8v-8.4h1.1v8.4H162.5z M165.1,137.5c-0.4,0-0.7-0.1-0.9-0.3s-0.5-0.4-0.6-0.8l0.1-1.2
		c0,0.3,0,0.5,0.1,0.7c0.1,0.2,0.2,0.3,0.4,0.4s0.4,0.1,0.6,0.1c0.4,0,0.7-0.1,0.9-0.4c0.2-0.2,0.3-0.6,0.3-1v-1.3
		c0-0.4-0.1-0.8-0.3-1c-0.2-0.2-0.5-0.4-0.9-0.4c-0.2,0-0.4,0-0.6,0.1c-0.2,0.1-0.3,0.2-0.4,0.4c-0.1,0.2-0.1,0.4-0.1,0.6l-0.1-1.2
		c0.2-0.3,0.4-0.6,0.7-0.8c0.3-0.2,0.6-0.3,0.9-0.3c0.6,0,1.1,0.2,1.4,0.6s0.5,1,0.5,1.8v1.3c0,0.8-0.2,1.4-0.5,1.8
		C166.2,137.3,165.7,137.5,165.1,137.5z"/>
	<path class="st2" d="M170.7,137.5c-0.5,0-1-0.1-1.4-0.2c-0.4-0.2-0.8-0.4-1.1-0.7l0.7-0.9c0.3,0.2,0.6,0.4,0.9,0.6
		c0.3,0.1,0.6,0.2,0.9,0.2c0.4,0,0.8-0.1,1-0.2c0.2-0.1,0.3-0.4,0.3-0.6c0-0.2-0.1-0.4-0.2-0.5s-0.3-0.2-0.6-0.2s-0.5-0.1-0.8-0.1
		c-0.2,0-0.5,0-0.7-0.1c-0.2,0-0.4-0.1-0.6-0.2s-0.3-0.3-0.5-0.5s-0.2-0.5-0.2-0.8c0-0.6,0.2-1.1,0.6-1.4c0.4-0.3,0.9-0.5,1.7-0.5
		c0.5,0,0.9,0.1,1.3,0.2c0.4,0.1,0.8,0.3,1.1,0.6l-0.7,0.9c-0.3-0.2-0.6-0.3-0.9-0.4c-0.3-0.1-0.6-0.1-0.8-0.1
		c-0.4,0-0.7,0.1-0.9,0.2c-0.2,0.1-0.3,0.3-0.3,0.6c0,0.2,0.1,0.3,0.2,0.4c0.1,0.1,0.3,0.1,0.5,0.2c0.2,0,0.5,0,0.7,0.1
		c0.2,0,0.5,0,0.7,0.1c0.2,0,0.5,0.1,0.7,0.2c0.2,0.1,0.4,0.3,0.5,0.5c0.1,0.2,0.2,0.5,0.2,0.9c0,0.6-0.2,1.1-0.6,1.4
		C172.2,137.3,171.6,137.5,170.7,137.5z"/>
	<path class="st2" d="M174.4,137.4v-1.2h1.2v1.2H174.4z"/>
	<path class="st2" d="M179.3,137.5c-0.8,0-1.4-0.2-1.8-0.7c-0.4-0.5-0.7-1.1-0.7-1.9v-1c0-0.8,0.2-1.4,0.7-1.9
		c0.4-0.4,1.1-0.7,1.8-0.7c0.5,0,0.9,0.1,1.2,0.2c0.4,0.2,0.7,0.4,0.9,0.7l-0.8,0.8c-0.2-0.2-0.3-0.3-0.6-0.4
		c-0.2-0.1-0.4-0.2-0.7-0.2c-0.4,0-0.8,0.1-1,0.4c-0.2,0.3-0.4,0.6-0.4,1.1v1c0,0.5,0.1,0.8,0.4,1.1c0.2,0.3,0.6,0.4,1,0.4
		c0.2,0,0.5-0.1,0.7-0.2c0.2-0.1,0.4-0.3,0.6-0.5l0.8,0.8c-0.2,0.3-0.5,0.5-0.9,0.7C180.2,137.4,179.8,137.5,179.3,137.5z"/>
	<path class="st2" d="M184.9,137.5c-0.8,0-1.3-0.2-1.8-0.7c-0.4-0.5-0.6-1.1-0.6-1.9v-1c0-0.8,0.2-1.4,0.6-1.9s1-0.7,1.8-0.7
		s1.3,0.2,1.8,0.7s0.6,1.1,0.6,1.9v1c0,0.8-0.2,1.5-0.6,1.9C186.2,137.3,185.6,137.5,184.9,137.5z M184.9,136.4
		c0.4,0,0.7-0.1,0.9-0.4c0.2-0.3,0.3-0.6,0.3-1.1v-1c0-0.5-0.1-0.8-0.3-1.1c-0.2-0.3-0.5-0.4-0.9-0.4c-0.4,0-0.7,0.1-0.9,0.4
		c-0.2,0.3-0.3,0.6-0.3,1.1v1c0,0.5,0.1,0.8,0.3,1.1C184.2,136.2,184.5,136.4,184.9,136.4z"/>
	<path class="st2" d="M192.8,128.1L189,139h-1.1l3.8-10.9H192.8z"/>
	<path class="st2" d="M193.3,137.4V129h1.1v8.4H193.3z M193.9,137.4v-1.1h4.6v1.1H193.9z"/>
	<path class="st2" d="M199.8,130.2V129h1.1v1.2H199.8z M199.8,137.4v-6h1.1v6H199.8z"/>
	<path class="st2" d="M202.6,137.4v-6h1.1v6H202.6z M206.1,137.4v-3.6c0-0.4-0.1-0.7-0.3-1c-0.2-0.2-0.5-0.3-0.9-0.3
		c-0.4,0-0.7,0.1-0.9,0.3c-0.2,0.2-0.3,0.5-0.3,0.9l-0.1-1.1c0.2-0.4,0.4-0.6,0.7-0.8c0.3-0.2,0.6-0.3,1-0.3c0.6,0,1.1,0.2,1.5,0.6
		s0.5,1,0.5,1.8v3.6H206.1z"/>
	<path class="st2" d="M210.8,137.5c-0.6,0-1.1-0.2-1.5-0.6s-0.5-1-0.5-1.8v-1.3c0-0.8,0.2-1.4,0.5-1.8c0.3-0.4,0.8-0.6,1.4-0.6
		c0.3,0,0.7,0.1,0.9,0.3c0.3,0.2,0.5,0.4,0.7,0.8l-0.1,1.2c0-0.3,0-0.5-0.1-0.7c-0.1-0.2-0.2-0.3-0.4-0.4c-0.2-0.1-0.4-0.1-0.6-0.1
		c-0.4,0-0.7,0.1-0.9,0.4c-0.2,0.2-0.3,0.6-0.3,1v1.3c0,0.4,0.1,0.8,0.3,1c0.2,0.2,0.5,0.4,0.9,0.4c0.2,0,0.4,0,0.6-0.1
		c0.2-0.1,0.3-0.2,0.4-0.4c0.1-0.2,0.1-0.4,0.1-0.7l0.1,1.3c-0.1,0.3-0.3,0.5-0.5,0.7C211.6,137.4,211.2,137.5,210.8,137.5z
		 M210.9,139.8c-0.4,0-0.8-0.1-1.2-0.2s-0.6-0.4-0.8-0.7l0.8-0.7c0.1,0.2,0.3,0.4,0.5,0.5c0.2,0.1,0.4,0.2,0.6,0.2
		c0.4,0,0.8-0.1,1-0.4c0.2-0.2,0.4-0.6,0.4-1v-6h1.1v5.8c0,0.8-0.2,1.5-0.6,1.9C212.3,139.6,211.7,139.8,210.9,139.8z"/>
	<path class="st2" d="M216.3,131.4v3.6c0,0.4,0.1,0.7,0.3,1c0.2,0.2,0.5,0.3,0.9,0.3s0.7-0.1,0.9-0.3c0.2-0.2,0.3-0.5,0.3-0.9
		l0.1,1.2c-0.1,0.3-0.3,0.5-0.5,0.7c-0.3,0.2-0.6,0.3-1,0.3c-0.6,0-1.1-0.2-1.5-0.6c-0.3-0.4-0.5-1-0.5-1.8v-3.6H216.3z
		 M218.6,137.4v-6h1.1v6H218.6z"/>
	<path class="st2" d="M223.4,137.5c-0.7,0-1.2-0.2-1.6-0.5s-0.5-0.8-0.5-1.4c0-0.6,0.2-1,0.5-1.3c0.3-0.3,0.8-0.4,1.5-0.4h1.6
		l0.1,0.9h-1.7c-0.3,0-0.5,0.1-0.7,0.2c-0.1,0.1-0.2,0.3-0.2,0.6c0,0.3,0.1,0.5,0.3,0.7s0.5,0.2,0.9,0.2c0.4,0,0.8,0,1-0.1
		c0.2-0.1,0.3-0.2,0.3-0.4l0.1,0.8c-0.1,0.2-0.2,0.3-0.4,0.4s-0.3,0.2-0.5,0.2C223.8,137.5,223.6,137.5,223.4,137.5z M224.8,137.4
		v-3.8c0-0.4-0.1-0.7-0.3-0.9c-0.2-0.2-0.5-0.3-0.9-0.3c-0.2,0-0.5,0-0.7,0.1c-0.2,0.1-0.4,0.2-0.6,0.3l-0.8-0.6
		c0.2-0.3,0.5-0.5,0.9-0.6c0.4-0.2,0.8-0.2,1.2-0.2c0.7,0,1.3,0.2,1.7,0.6c0.4,0.4,0.6,0.9,0.6,1.6v3.8H224.8z"/>
</g>
<path class="st3" d="M35.1,104.7c-0.1,14.8,2.9,22.5,12.6,22.5c12-2.5,15.5-11.4,11.2-24.5c5.3,1.2,10.8,5.7,15.4,11.7
	c-6.5,10-16.3,14-26.6,16.3c-11.6-1.9-19.8-7.8-25.4-16L35.1,104.7z"/>
<ellipse class="st4" cx="43.9" cy="106.3" rx="3" ry="3.7"/>
<g>
	<path d="M220.5,72.6L220.5,72.6c-0.1,0-0.2,0-0.2,0c-1.2-0.1-2.1-0.5-3-1.1c-1.1-0.7-1.9-1.5-2.6-2.4c-0.2-0.2-0.4-0.3-0.7-0.3
		c-1.2-0.1-2.4-0.3-3.6-0.6c-1.3-0.4-2.5-0.9-3.2-1.9c-0.4-0.5-0.6-1-0.8-1.5c-0.7-1.6-0.9-3.3-0.9-5c-0.1-2-0.1-3.9,0-5.9
		c0-0.8,0-1.5,0-2.3c0-0.2-0.1-0.2-0.3-0.2c-0.2,0-0.5,0-0.7,0c-1.8-0.2-3.4-0.7-4.9-1.4c-2.3-1.1-4.2-2.5-6.1-4
		c-0.2-0.2-0.1-0.2,0.1-0.3c1.2-0.7,2.5-1.3,3.7-2.1c0.8-0.5,1.6-1,2.1-1.8c1.4-1.9,2.5-4,2.9-6.2c0.5-2.9,1.2-5.8,2.2-8.6
		c0.8-2.4,1.7-4.8,3.3-6.9c0.6-0.9,1.3-1.7,2.3-2.3c2.5-1.6,5.3-2.6,8.5-2.8c1.8-0.1,3.6-0.2,5.3,0c2.4,0.3,4.7,0.9,6.7,2.1
		c0.5,0.3,1.1,0.6,1.5,1c1,1.1,1.9,2.3,2.9,3.4c0.6,0.6,0.9,1.3,1.2,2.1c1.5,4.2,2.6,8.5,3.6,12.8c0.2,1,0.4,2.1,1,3.1
		c0.4,0.6,0.6,1.2,1.1,1.8c0.5,0.5,1.1,1.1,1.7,1.5c1.3,1,2.7,1.8,4.3,2.6c0.2,0.1,0.2,0.2,0.1,0.4c-1,1.1-2.2,2.2-3.6,3.1
		c-2.3,1.5-4.8,2.5-7.8,2.7c-0.2,0-0.2,0.1-0.2,0.2c0,0.5-0.1,0.9-0.1,1.3c-0.1,2.1-0.3,4.1-0.4,6.2c-0.1,1.7-0.2,3.3-0.3,5
		c0,0.5-0.2,0.9-0.4,1.3c-0.9,1.4-2.2,2.6-4.1,3.3c-0.5,0.2-0.9,0.4-1.5,0.3c-0.7-0.1-1.4-0.2-2.1-0.3c-0.5-0.1-0.5-0.1-0.7,0.3
		c-0.6,1.2-1.4,2.1-2.8,2.8C222.8,72.2,221.7,72.5,220.5,72.6L220.5,72.6z"/>
	<g>
		<path class="st2" d="M226.4,67.8c0.3,0.1,3,0,3.2-0.1c0.7-0.2,1.3-0.4,1.9-0.7c1.6-0.8,2.6-1.9,3.4-3.2c0.1-0.1,0.1-0.2,0.1-0.3
			c0.1-1.2,0.2-2.4,0.2-3.6c0.1-1.7,0.2-3.4,0.3-5.1c0.1-1.2,0.2-2.4,0.2-3.7c0-0.2,0.1-0.2,0.3-0.3c1.5-0.1,2.9-0.4,4.3-0.9
			c2.7-1,4.9-2.5,6.7-4.5c0.1-0.2,0.1-0.2-0.1-0.3c-1.2-0.6-2.5-1.3-3.6-2c-1.3-0.9-2.4-1.9-3-3.2c-0.3-0.6-0.7-1.2-0.9-1.9
			c-0.7-2.8-1.4-5.5-2.1-8.2c-0.6-2-1.3-4-2-6c-0.1-0.3-0.2-0.5-0.5-0.8c-1.1-1.3-2.3-2.6-3.4-3.8c-0.1-0.1-0.2-0.2-0.3-0.2
			c-1.6-1.1-3.5-1.9-5.6-2.3c-2.1-0.5-4.2-0.5-6.4-0.4c-1.9,0.1-3.8,0.4-5.6,1c-1.4,0.5-2.6,1.1-3.7,1.9c-1.5,1-2.4,2.4-3.2,3.8
			c-1.5,2.8-2.4,5.7-3.2,8.6c-0.4,1.6-0.8,3.2-1.1,4.8c-0.3,1.6-1.1,3.1-2,4.5c-0.6,1-1.5,1.9-2.6,2.6c-1.1,0.7-2.4,1.4-3.6,2
			c-0.2,0.1-0.2,0.2-0.1,0.3c0.6,0.4,1.2,0.9,1.8,1.3c1.5,1,3,2,4.8,2.8c1.4,0.6,3,1,4.6,1c0.4,0,0.4,0.1,0.4,0.3c0,3-0.2,6,0,9
			c0.1,1.5,0.5,3,1.3,4.4c0.4,0.6,0.9,1.2,1.6,1.6c1.4,0.8,3,1,4.6,1.2c1.2,0.1,1.2,0.1,1.9,0.8c0.9,0.9,1.8,1.7,3,2.3
			c0.8,0.4,1.6,0.7,2.6,0.6c2.1-0.2,3.9-0.9,5-2.3c0.5-0.7,0.9-1.3,0.9-2.2c0-5.7,0-11.3,0-17c0-0.1,0-0.2,0-0.3
			c0-0.1,0-0.1-0.1-0.1c-0.4-0.1-0.6,0-0.6,0.3c0,5.8,0,11.6,0,17.4c0,0.1,0,0.2,0,0.3c0,0.1,0.1,0.3,0.2,0.3c0.2,0,0-0.1,0,0
			c-0.4,1-1.1,1.8-2.1,2.4c-0.9,0.6-2,0.9-3.2,1c-1.2,0.1-2.2-0.3-3.1-0.9c-1-0.7-1.8-1.5-2.6-2.4c-0.1-0.1-0.2-0.2-0.5-0.2
			c-1.1-0.1-2.3-0.3-3.4-0.6c-1.4-0.4-2.5-1-3.1-2.1c-0.5-0.8-0.8-1.7-1-2.6c-0.4-1.7-0.4-3.3-0.4-5c0-1.9,0.1-3.8,0.1-5.6
			c0-0.3-0.2-0.5-0.6-0.5c-0.1,0-0.1,0-0.2,0c-1.6-0.1-3.1-0.7-4.4-1.3c-2.1-1.1-3.9-2.4-5.6-3.9c-0.2-0.2,0-0.2,0.1-0.3
			c1-0.6,2.1-1.1,3-1.8c1-0.7,1.9-1.3,2.5-2.3c1.2-1.8,2-3.7,2.4-5.8c0.4-2.2,0.9-4.4,1.6-6.6c0.6-2.2,1.4-4.4,2.5-6.5
			c0.6-1,1.2-2.1,2.2-2.9c1.6-1.4,3.6-2.3,5.9-2.8c2.2-0.5,4.4-0.5,6.6-0.4c2.4,0.1,4.6,0.8,6.6,1.9c0.6,0.4,1.2,0.7,1.7,1.3
			c1,1.3,2.1,2.5,3.1,3.8c0.1,0.1,0.1,0.2,0.2,0.3c1.4,4.2,2.6,8.5,3.6,12.8c0.2,1.1,0.4,2.2,1,3.2c0.3,0.5,0.4,1,0.8,1.4
			c0.6,0.7,1.3,1.3,2,2c1.1,0.8,2.2,1.5,3.4,2.1c0.2,0.1,0.3,0.2,0.1,0.4c-0.5,0.6-1.1,1.2-1.8,1.7c-2.3,1.9-5,3.4-8.5,3.7
			c-0.2,0-0.3,0.1-0.3,0.2c0,0.4-0.1,0.8-0.1,1.2c-0.1,1.8-0.2,3.5-0.3,5.3c-0.1,1.8-0.2,3.5-0.3,5.3c0,0.4-0.1,0.8-0.4,1.2
			c-0.7,1.1-1.6,2-2.9,2.7C229.1,67.7,227.1,67.6,226.4,67.8L226.4,67.8z"/>
		<path class="st2" d="M215.2,58.6c0-2.9,0-5.9,0-8.8c0-0.2-0.1-0.3-0.4-0.3c-0.3,0-0.4,0.1-0.4,0.3c0,5.8,0,11.7,0,17.5
			c0,0.1,0,0.1,0,0.2c0,0.1,0,0.1,0.1,0.1c0.3,0.1,0.7,0,0.7-0.3C215.2,64.4,215.2,61.5,215.2,58.6L215.2,58.6z"/>
	</g>
</g>
<g class="st1">
	<path class="st5" d="M40.1,27.4c-1.7,0.1-3,0.1-3.8,0.1c-1.2,0-3,0-5.2-0.1c-0.5,0.5-1,1.1-1.7,1.9c-0.7,0.7-1.3,1.4-1.9,2
		c-0.6,0.6-1.1,1.1-1.5,1.5c-0.4,0.4-0.8,0.8-1.1,1.1c-1.6,1.6-2.7,2.7-3.1,3.2c-0.5,0.5-1,0.9-1.5,1.3c-0.5,0.4-1,0.6-1.5,0.6
		c-0.5,0-0.8-0.2-0.8-0.7c0-0.5,0.4-1.3,1.1-2.4c0.7-1.1,1.5-2.1,2.5-2.9c0.9-0.8,1.7-1.3,2.2-1.3c0.2,0,0.4,0.1,0.7,0.2l4.1-4.6
		c-0.5-0.1-1.2-0.1-2-0.1c-0.8,0-1.4-0.1-1.7-0.2c-0.3-0.1-0.4-0.4-0.4-0.8c0-0.6,0.7-1.7,2-3c0.7-0.8,1.4-1.3,2-1.5
		c0.6-0.2,1.9-0.3,3.7-0.3c-1.1,0.1-1.8,0.3-2.3,0.5c-0.4,0.2-0.7,0.5-0.7,0.9c0.4,0,0.8,0,1.2,0s0.8,0,1.4,0c0.6,0,1,0,1.3,0
		c2.4-2.4,4.5-4.5,6.5-6.3s4-3.5,6.2-5.1c2.2-1.6,4.5-3.1,6.9-4.4c0.5,0.6,0.7,1.3,0.7,2c0,0.6-0.2,1.3-0.6,2
		c-0.4,0.8-1.2,2.2-2.4,4.3c-1.2,2.1-2.4,4.3-3.6,6.7c0.4,0,0.7,0,1,0c0.3,0,0.6,0,0.9,0c0.8,0,1.3,0,1.5,0c0.2,0,0.3,0.2,0.3,0.4
		c0,0.1-0.1,0.3-0.3,0.6c-0.2,0.3-0.6,0.8-1.2,1.5c-0.6,0.7-1.1,1.4-1.7,2.2l-3.2,0.3c-1.7,3.3-2.5,5.2-2.5,5.6
		c0,0.6,0.3,0.9,0.9,0.9c0.3,0,1.6-0.7,3.8-2L45.9,33c-1.2,0.9-2.1,1.7-2.8,2.2c-0.7,0.5-1.2,1-1.7,1.3c-0.5,0.4-0.9,0.6-1.3,0.8
		s-0.8,0.3-1.2,0.3c-0.5,0-1-0.2-1.4-0.7c-0.5-0.5-0.7-1.1-0.7-1.9c0-0.3,0.1-0.8,0.4-1.5s0.5-1.2,0.8-1.8
		C38.2,31,38.9,29.6,40.1,27.4z M35.9,22.3l7.1-0.1c0.8-1.5,1.5-2.6,2-3.5s1.1-1.9,1.7-2.9c0.6-1.1,1.1-2,1.6-2.7
		c0.4-0.7,0.9-1.6,1.5-2.5c-1,0.7-2.1,1.4-3.2,2.2c-1.1,0.8-2.3,1.8-3.7,3c-1.4,1.2-2.6,2.2-3.6,3.2C38.2,20,37.1,21.1,35.9,22.3z"
		/>
	<path class="st5" d="M49.1,31.5v-1.6c2-2.3,3.8-4.4,5.3-6.4c1.5-2,2.6-3.6,3.5-4.8c0.9-1.2,1.6-2,2.3-2.5s1.5-0.7,2.5-0.7
		c0.5,0,0.7,0.2,0.7,0.6c0,0.3-0.2,0.8-0.6,1.4c-0.4,0.6-0.9,1.2-1.5,1.9c-0.8,0.8-1.6,1.9-2.4,3.2c-0.8,1.3-1.7,2.9-2.7,4.8
		c0.8-0.6,1.7-1.4,2.7-2.2c1-0.9,1.9-1.5,2.5-2c0.6-0.5,1.3-0.9,1.9-1.2c0.6-0.3,1.3-0.4,1.9-0.4c0.4,0,0.7,0.1,0.8,0.2
		c0.1,0.1,0.2,0.4,0.2,0.9c0,1.1-0.3,2.3-0.8,3.3c-0.5,1.1-1.3,2.2-2.3,3.4c-1,1.2-2.2,2.4-3.7,3.8c0.5,0.2,1,0.3,1.6,0.3
		c1.7,0,3.9-1.3,6.8-4v1.6c-1.1,1-2.2,2-3.2,2.9c-1.1,0.9-2,1.6-3,2.2s-1.8,0.8-2.6,0.8c-0.3,0-0.6,0-0.9-0.1
		c-0.3-0.1-0.6-0.1-0.9-0.2c-0.3-0.1-0.6-0.2-1.1-0.4c-0.4-0.2-0.8-0.3-1-0.4c-0.5,0.1-0.7,0.2-0.8,0.2c-0.5,0-1.1-0.2-1.8-0.6
		c-0.5,1-1,2.2-1.6,3.7c-0.6,1.5-1.1,2.7-1.4,3.6c-0.4,0.9-0.9,1.8-1.6,2.6c-0.4,0.4-0.6,0.6-0.8,0.6c-0.6,0-0.9-0.6-0.9-1.7
		c0-1,0.2-2,0.6-3.1s0.9-2.1,1.4-3c0.6-1,1.2-1.9,1.8-2.9c0.7-1,1.1-1.7,1.4-2.2c2.3-4.1,4.1-7.5,5.4-10.4
		C53.3,26.6,50.8,29.7,49.1,31.5z M57.9,32.6c1.4-1.6,2.5-2.9,3.2-4c0.7-1.1,1.1-1.9,1.1-2.5c0-0.6-0.3-0.8-0.8-0.8
		c-0.7,0-1.7,0.6-3.1,1.9c-1.3,1.2-2.7,2.9-4.1,5c1.1-0.1,1.8-0.2,2.2-0.1C56.8,32,57.3,32.2,57.9,32.6z"/>
	<path class="st5" d="M67.2,31.3v-1.5c0.8-1,1.4-1.8,1.8-2.4c-0.5-0.2-0.8-0.4-1-0.6c-0.2-0.2-0.3-0.6-0.3-1.1c0-0.5,0.2-1.2,0.7-2
		c0.4-0.8,1-1.6,1.6-2.3c0.6-0.7,1.2-1.2,1.7-1.4c0.2-0.1,0.4-0.2,0.6-0.2c0.3,0,0.4,0.1,0.4,0.4c0,0.3-0.2,0.8-0.7,1.5
		c3-0.5,4.9-0.7,5.7-0.7c0.3,0,0.5,0,0.6,0.1c0.2,0.1,0.5,0.4,0.6,0.9c0.2,0.5,0.2,1,0.2,1.5c0,0.3-0.1,0.7-0.4,1
		c-0.3,0.4-0.7,0.9-1.4,1.6C76.6,27.1,76,28,75.5,29s-0.8,1.8-0.8,2.3c0,0.7,0.4,1.1,1.3,1.1c0.9,0,2.4-0.9,4.6-2.8v1.5
		c-1.2,1.3-2.2,2.3-3,3.1s-1.5,1.3-2.2,1.8c-0.7,0.4-1.3,0.7-1.8,0.7c-0.6,0-1.1-0.3-1.5-0.9s-0.6-1.4-0.6-2.5
		c0-0.6,0.2-1.4,0.5-2.2c0.3-0.8,0.8-1.7,1.4-2.7c0.6-1,1.3-1.9,2.1-2.9c-0.4,0.1-0.9,0.2-1.4,0.3c-0.5,0.1-1,0.2-1.6,0.3
		c-0.6,0.1-1,0.2-1.3,0.2C70.2,28.1,68.9,29.8,67.2,31.3z"/>
	<path class="st5" d="M90.9,29.6v1.6c-1.4,1.9-2.7,3.3-3.9,4.2c-1.2,1-2.3,1.4-3.1,1.4c-1.2,0-2.1-0.6-2.7-1.9
		c-0.6-1.3-0.9-2.7-0.9-4.2c0-0.6,0.1-1.1,0.2-1.7s0.3-1,0.4-1.3c0.2-0.3,0.5-0.9,0.9-1.6c2.1-3.3,4-5,5.7-5c0.9,0,1.3,0.4,1.3,1.1
		c0,0.5-0.3,1.2-0.9,2.2c-0.6,1-1.1,1.7-1.5,2.2c-1.3,1.3-2.1,2.1-2.5,2.6c-0.4,0.5-0.6,1.1-0.6,1.7c0,0.5,0.2,1,0.6,1.3
		c0.4,0.4,0.9,0.5,1.5,0.5c0.7,0,1.4-0.3,2.3-0.8C88.5,31.6,89.6,30.7,90.9,29.6z M89.4,19.6c-0.4,0-0.7-0.1-1-0.4
		c-0.3-0.3-0.5-0.6-0.5-1.1c0-0.7,0.3-1.4,0.9-2.2c0.6-0.8,1.2-1.2,1.9-1.2c0.4,0,0.8,0.1,1.1,0.4c0.3,0.3,0.4,0.7,0.4,1.2
		c0,0.6-0.3,1.4-0.9,2.1C90.7,19.2,90.1,19.6,89.4,19.6z"/>
	<path class="st5" d="M101.1,29.3V31c-3,4.1-5.5,6.2-7.4,6.2c-1,0-1.8-0.6-2.4-1.7c-0.6-1.2-0.9-2.7-0.9-4.6c0-1.5,0.3-3.3,1-5.4
		c0.7-2.1,1.6-4.2,2.8-6.4c1.2-2.2,2.4-4.1,3.6-5.7c1.3-1.6,2.4-2.7,3.5-3.4c0.4-0.3,0.8-0.4,1-0.4c0.3,0,0.5,0.1,0.6,0.4
		c0.1,0.3,0.2,0.8,0.2,1.4c0,2.1-0.8,4.6-2.5,7.7c-1.6,3-3.9,6.1-6.9,9.3c-0.1,0.8-0.2,1.4-0.2,1.8c0,1,0.2,1.7,0.6,2.3
		c0.4,0.6,1,0.9,1.7,0.9c0.4,0,0.8-0.1,1.2-0.4c0.4-0.3,0.9-0.7,1.3-1.1C98.8,31.5,99.8,30.6,101.1,29.3z M94.6,25.3
		c0.8-0.8,1.5-1.6,2.2-2.6s1.4-2,2-3.1c0.6-1.1,1.1-2.1,1.5-3c0.4-0.9,0.5-1.6,0.5-2c0-0.3-0.1-0.5-0.3-0.5c-0.1,0-0.3,0.1-0.5,0.2
		c-0.9,0.7-1.9,2.2-3,4.4C95.8,20.9,95.1,23.1,94.6,25.3z"/>
	<path class="st5" d="M140.6,29.5V31c-2.4,2.8-4.7,5.1-6.7,6.9c-2,1.8-4,3.2-6,4.2c-1.9,1-3.8,1.5-5.6,1.5c-1.6,0-2.9-0.3-4-1
		c-1.1-0.6-2-1.6-2.5-2.8c-0.6-1.2-0.9-2.7-0.9-4.4c0-1.3,0.2-2.7,0.6-4.2s1-3,1.8-4.5s1.7-3.1,2.9-4.7c1.1-1.6,2.5-3.3,4-5.1
		c1.6-1.8,3.2-3.4,4.7-4.8c1.6-1.3,3-2.4,4.2-3.2c1.3-0.8,2.4-1.3,3.5-1.7c1.1-0.4,2-0.6,2.7-0.6c0.7,0,1.3,0.2,1.9,0.5
		c0.5,0.4,0.9,0.9,1.2,1.6s0.4,1.5,0.4,2.4c0,1.7-0.6,3.6-1.7,5.6c-1.1,2.1-2.5,4.1-4.2,6c-1.7,1.9-3.3,3.5-4.8,4.7
		c-1.5,1.2-2.6,1.8-3.3,1.8c-0.5,0-0.9-0.2-1.3-0.6c-0.4-0.4-0.6-0.8-0.6-1.2c0-0.9,0.4-1.9,1.3-3.1c0.9-1.2,1.8-2.3,2.9-3.3
		c1-1,1.7-1.5,1.9-1.5c0.1,0,0.2,0,0.2,0.1c0,0.1-0.1,0.4-0.2,0.7s-0.2,0.5-0.2,0.6c0,0.1,0,0.2,0.1,0.2c0.2,0,1-0.7,2.1-2
		c1.2-1.4,2.3-2.9,3.2-4.5c1-1.6,1.5-3,1.5-4c0-0.4-0.1-0.8-0.3-1c-0.2-0.2-0.5-0.3-0.8-0.3c-1,0-2.6,0.9-4.6,2.5
		c-2.1,1.7-4.2,3.9-6.4,6.5c-2.2,2.6-4,5.3-5.4,8.1c-1.5,2.8-2.2,5.3-2.2,7.4c0,1.2,0.2,2.3,0.5,3.1c0.4,0.8,0.9,1.5,1.6,1.9
		s1.5,0.7,2.5,0.7c2.1,0,4.5-0.8,7.2-2.5C134.4,35.3,137.4,32.8,140.6,29.5z"/>
	<path class="st5" d="M150.4,30.5l-3.9,3.4c-1.8,1.7-3.1,2.5-3.7,2.5c-0.6,0-1.2-0.7-1.8-2c-0.6-1.3-0.9-2.5-0.9-3.5
		c0-0.9,0.1-1.6,0.4-2.2c0.3-0.6,0.7-1.4,1.3-2.3c0.9-1.3,1.7-2.4,2.5-3.2s1.5-1.6,2.2-2.1c0.6-0.5,1.1-0.7,1.3-0.7
		c0.4,0,0.8,0.2,1.1,0.6c0.4,0.4,0.6,0.9,0.6,1.3c0,0.3-0.2,0.7-0.6,1.4s-1,1.4-1.9,2.4c-0.9,1-2.1,2.1-3.6,3.5l-0.4,1.2
		c-0.1,0.2-0.2,0.4-0.2,0.6c0,0.4,0.2,0.6,0.6,0.6c0.4,0,1.4-0.5,2.9-1.6c1.5-1.1,3.1-2.5,4.9-4.3c0.7-0.7,1.2-1.3,1.7-1.9
		c0.5-0.5,0.9-1,1.2-1.5s0.7-0.8,0.9-1.1c0.2-0.2,0.5-0.4,0.6-0.4c0.4,0,0.6,0.1,0.8,0.5c0.2,0.4,0.3,0.9,0.3,1.6
		c0,0.4-0.2,0.9-0.5,1.5c-0.3,0.6-1,1.6-2,3.1s-1.9,3-2.9,4.5c-1,1.6-1.9,3.3-2.9,5.3c0,0,0.5-0.5,1.3-1.3s1.7-1.7,2.7-2.7
		c0.9-0.9,1.7-1.7,2.3-2.2c0.6-0.6,1.4-1.2,2.3-2v1.5c-2,2.2-3.7,4.2-5.3,6.2c-1.6,1.9-2.8,3.5-3.7,4.7c-0.9,1.2-1.4,1.8-1.5,2
		c-0.4,0.5-0.7,1-1.1,1.5c-0.3,0.5-0.6,0.8-0.8,1.1c-0.2,0.2-0.4,0.4-0.5,0.4c-0.3,0-0.6-0.3-0.8-0.9c-0.2-0.6-0.4-1.2-0.4-1.7
		c0-0.4,0.1-0.8,0.2-1.1C144.4,40.7,146.8,36.5,150.4,30.5z"/>
	<path class="st5" d="M156.9,31.3v-1.5c0.8-1,1.4-1.8,1.8-2.4c-0.5-0.2-0.8-0.4-1-0.6s-0.3-0.6-0.3-1.1c0-0.5,0.2-1.2,0.7-2
		c0.4-0.8,1-1.6,1.6-2.3c0.6-0.7,1.2-1.2,1.7-1.4c0.2-0.1,0.4-0.2,0.6-0.2c0.3,0,0.4,0.1,0.4,0.4c0,0.3-0.2,0.8-0.7,1.5
		c3-0.5,4.9-0.7,5.7-0.7c0.3,0,0.5,0,0.6,0.1c0.2,0.1,0.5,0.4,0.6,0.9c0.2,0.5,0.2,1,0.2,1.5c0,0.3-0.1,0.7-0.4,1
		c-0.3,0.4-0.7,0.9-1.4,1.6c-0.8,0.9-1.4,1.8-1.9,2.8c-0.5,1-0.8,1.8-0.8,2.3c0,0.7,0.4,1.1,1.3,1.1c0.9,0,2.4-0.9,4.6-2.8v1.5
		c-1.2,1.3-2.2,2.3-3,3.1s-1.5,1.3-2.2,1.8s-1.3,0.7-1.8,0.7c-0.6,0-1.1-0.3-1.5-0.9c-0.4-0.6-0.6-1.4-0.6-2.5
		c0-0.6,0.2-1.4,0.5-2.2c0.3-0.8,0.8-1.7,1.4-2.7c0.6-1,1.3-1.9,2.1-2.9c-0.4,0.1-0.9,0.2-1.4,0.3c-0.5,0.1-1,0.2-1.6,0.3
		c-0.6,0.1-1,0.2-1.3,0.2C159.9,28.1,158.6,29.8,156.9,31.3z"/>
</g>
<path class="st5" d="M12.4,63c54-35.4,121.9,29.4,174.7-11.5c1.5-1.2-0.6-3.3-2.1-2.1c-26.4,20.4-61.2,12.3-90.9,5.7
	C66.7,49,35.9,44,10.9,60.4C9.3,61.4,10.8,64,12.4,63L12.4,63L12.4,63z"/>
</svg>
