<?xml version="1.0" encoding="UTF-8"?>
<svg id="Layer_1" data-name="Layer 1" xmlns="http://www.w3.org/2000/svg" viewBox="0 0 261 153">
  <defs>
    <style>
      .cls-1, .cls-2, .cls-3, .cls-4 {
        fill: #fff;
      }

      .cls-2 {
        font-family: MyriadPro-Regular, 'Myriad Pro';
        font-size: 11.77px;
      }

      .cls-5 {
        stroke: #231f20;
        stroke-miterlimit: 10;
      }

      .cls-5, .cls-6, .cls-7 {
        fill: #231f20;
      }

      .cls-3 {
        fill-rule: evenodd;
        stroke-width: .46px;
      }

      .cls-3, .cls-4 {
        stroke: #fff;
        stroke-linecap: round;
        stroke-linejoin: round;
      }

      .cls-6 {
        font-family: BrushScriptMT, 'Brush Script MT';
        font-size: 46.01px;
      }

      .cls-4 {
        stroke-width: .28px;
      }
    </style>
  </defs>
  <rect class="cls-5" x=".36" y="78.11" width="260.64" height="75.97"/>
  <text class="cls-2" transform="translate(106.11 95.03) scale(.97 1)"><tspan x="0" y="0">Ladino Enthusiast</tspan><tspan x="0" y="14.12">(615) 502-0384</tspan><tspan x="0" y="28.25">April@aachips.co</tspan><tspan x="0" y="42.37">www.aachips.co/Lingua.</tspan></text>
  <path class="cls-3" d="m35.13,104.66c-.13,14.82,2.86,22.54,12.59,22.49,12.05-2.5,15.45-11.42,11.19-24.47,5.34,1.21,10.82,5.65,15.41,11.66-6.53,9.96-16.27,14.04-26.6,16.32-11.62-1.95-19.84-7.8-25.39-15.98l12.8-10.02Z"/>
  <ellipse class="cls-4" cx="43.94" cy="106.35" rx="2.99" ry="3.66"/>
  <g>
    <path d="m220.47,72.58h-.07s-.09-.04-.13-.04c-1.17-.06-2.13-.5-3.01-1.06-1.05-.68-1.91-1.5-2.65-2.39-.17-.2-.38-.29-.67-.32-1.23-.12-2.44-.31-3.62-.63-1.33-.37-2.48-.92-3.22-1.9-.35-.47-.58-.98-.81-1.49-.72-1.61-.86-3.3-.92-4.98-.07-1.96-.05-3.93.02-5.89.03-.76.02-1.52.04-2.28,0-.19-.07-.25-.3-.25-.24,0-.48,0-.72-.03-1.77-.16-3.35-.71-4.85-1.44-2.29-1.11-4.21-2.55-6.08-4.04-.2-.16-.08-.21.08-.29,1.25-.66,2.51-1.3,3.67-2.07.78-.52,1.59-1.04,2.1-1.75,1.38-1.93,2.46-3.95,2.86-6.17.52-2.91,1.25-5.78,2.17-8.62.78-2.4,1.73-4.75,3.28-6.92.61-.85,1.31-1.67,2.28-2.29,2.49-1.6,5.29-2.63,8.54-2.82,1.78-.11,3.55-.18,5.33.01,2.44.27,4.68.93,6.68,2.07.53.3,1.09.58,1.48,1.03.97,1.13,1.93,2.27,2.93,3.38.57.63.94,1.31,1.21,2.06,1.48,4.21,2.6,8.49,3.64,12.78.25,1.04.39,2.1,1.01,3.06.38.59.58,1.24,1.07,1.79.5.55,1.05,1.06,1.66,1.54,1.28,1,2.74,1.81,4.26,2.58.22.11.25.19.09.37-1.03,1.14-2.22,2.17-3.6,3.06-2.27,1.45-4.79,2.45-7.75,2.65-.18.01-.22.06-.22.19-.02.45-.05.89-.08,1.34-.14,2.06-.28,4.13-.41,6.19-.11,1.68-.22,3.35-.31,5.03-.03.46-.16.89-.43,1.3-.95,1.44-2.22,2.61-4.14,3.28-.46.16-.92.38-1.47.31-.69-.09-1.37-.18-2.06-.27-.52-.07-.52-.06-.72.34-.58,1.15-1.45,2.11-2.83,2.75-1.02.48-2.13.73-3.3.84Z"/>
    <g>
      <path class="cls-1" d="m226.39,67.78c.31.08,3-.03,3.23-.08.68-.16,1.33-.38,1.94-.67,1.59-.77,2.62-1.9,3.38-3.21.06-.1.06-.2.07-.3.08-1.21.16-2.42.24-3.64.11-1.69.23-3.37.34-5.06.08-1.22.16-2.44.23-3.66.01-.17.07-.24.31-.26,1.5-.1,2.93-.41,4.29-.91,2.74-1.02,4.93-2.55,6.73-4.46.15-.16.14-.23-.08-.34-1.24-.62-2.47-1.26-3.56-2.03-1.27-.9-2.43-1.86-3.02-3.17-.29-.64-.7-1.24-.87-1.92-.69-2.76-1.36-5.51-2.15-8.25-.58-2.01-1.33-3.98-1.99-5.98-.1-.29-.25-.54-.47-.79-1.15-1.28-2.28-2.56-3.42-3.84-.08-.09-.18-.18-.29-.25-1.64-1.1-3.5-1.86-5.58-2.3-2.11-.45-4.25-.49-6.41-.39-1.94.09-3.81.38-5.59,1.01-1.35.49-2.63,1.08-3.74,1.86-1.49,1.05-2.4,2.41-3.18,3.82-1.53,2.76-2.41,5.68-3.18,8.62-.42,1.6-.78,3.21-1.1,4.83-.32,1.6-1.12,3.06-2.02,4.5-.65,1.03-1.53,1.87-2.65,2.58-1.14.73-2.37,1.36-3.61,1.99-.22.11-.25.17-.05.32.61.44,1.18.92,1.8,1.35,1.49,1.04,3.04,2.02,4.81,2.75,1.45.6,2.98,1.02,4.63,1.05.35,0,.4.09.4.34-.04,3.01-.25,6.01.02,9.02.13,1.51.47,2.98,1.27,4.37.36.63.87,1.16,1.59,1.55,1.39.75,2.97,1.04,4.6,1.23,1.17.13,1.16.11,1.86.84.85.89,1.79,1.71,3.02,2.29.79.37,1.64.65,2.57.55,2.07-.23,3.85-.9,5-2.35.52-.66.9-1.33.89-2.16-.04-5.67-.02-11.34-.02-17.02,0-.09,0-.17,0-.26,0-.06-.03-.1-.11-.12-.41-.1-.62.02-.62.35,0,5.8,0,11.59,0,17.39,0,.09,0,.17,0,.26,0,.06.1.31.2.31.23,0,.03-.07,0,0-.44.96-1.1,1.81-2.14,2.45-.93.57-2.02.9-3.17,1.01-1.21.11-2.21-.34-3.12-.93-1.03-.67-1.83-1.5-2.55-2.38-.11-.14-.24-.2-.46-.23-1.14-.12-2.28-.29-3.36-.61-1.35-.4-2.49-1-3.1-2.08-.48-.84-.83-1.71-1.03-2.62-.36-1.66-.39-3.34-.39-5.02,0-1.88.06-3.76.1-5.63q0-.5-.64-.54c-.07,0-.14-.01-.22-.02-1.61-.14-3.05-.65-4.4-1.33-2.12-1.07-3.89-2.44-5.6-3.87-.19-.16-.04-.2.09-.27,1.02-.57,2.06-1.12,3.02-1.76.97-.65,1.9-1.34,2.49-2.26,1.16-1.82,2.02-3.71,2.35-5.75.37-2.23.92-4.44,1.55-6.64.63-2.21,1.38-4.39,2.53-6.47.58-1.05,1.23-2.09,2.23-2.94,1.62-1.38,3.62-2.31,5.91-2.83,2.16-.5,4.39-.55,6.62-.41,2.42.15,4.62.79,6.58,1.91.63.36,1.25.73,1.68,1.27,1.01,1.27,2.07,2.51,3.11,3.77.08.1.15.19.18.31,1.43,4.24,2.58,8.53,3.56,12.85.24,1.07.39,2.16,1,3.15.28.46.43.97.77,1.4.57.72,1.27,1.35,2.04,1.95,1.05.8,2.23,1.47,3.44,2.12.21.11.26.18.1.36-.54.61-1.1,1.2-1.75,1.74-2.32,1.94-5.01,3.36-8.48,3.65-.21.02-.26.08-.26.22-.02.42-.05.83-.08,1.25-.11,1.77-.23,3.54-.34,5.31-.11,1.75-.21,3.5-.31,5.26-.02.44-.13.85-.39,1.25-.7,1.08-1.57,2.04-2.87,2.72-1.66.83-3.66.67-4.39.87Z"/>
      <path class="cls-1" d="m215.23,58.63c0-2.93,0-5.86,0-8.79,0-.23-.06-.31-.37-.31-.32,0-.4.07-.4.32,0,5.84,0,11.68,0,17.53,0,.06,0,.11,0,.17,0,.05.02.09.09.11.34.12.66-.03.66-.31,0-2.9,0-5.8,0-8.71Z"/>
    </g>
  </g>
  <text class="cls-6" transform="translate(20.65 36.67) scale(.97 1)"><tspan x="0" y="0">April Cyr</tspan></text>
  <path class="cls-7" d="m12.44,62.96c54.04-35.43,121.89,29.42,174.72-11.48,1.52-1.18-.61-3.29-2.12-2.12-26.35,20.4-61.25,12.34-90.91,5.74-27.45-6.11-58.19-11.12-83.21,5.28-1.61,1.05-.11,3.65,1.51,2.59h0Z"/>
</svg>