<?xml version="1.0" encoding="UTF-8"?>
<svg id="Layer_1" data-name="Layer 1" xmlns="http://www.w3.org/2000/svg" viewBox="0 0 447.61 115.5">
  <defs>
    <style>
      .cls-1, .cls-2 {
        fill: #fff;
      }

      .cls-2 {
        stroke: #dbdfde;
        stroke-linecap: round;
        stroke-linejoin: round;
        stroke-width: .24px;
      }
    </style>
  </defs>
  <g id="LogoLongateBWInvert">
    <rect x="38.89" y="32.18" width="369.83" height="51.13"/>
    <path class="cls-1" d="m127.84,54.84h1.88c.06.16.11.37.15.61.03.24.05.45.05.63,0,.41-.06.76-.18,1.07-.12.31-.32.62-.6.93-.47-.41-.82-.69-1.04-.85-.22-.16-.42-.32-.6-.49l-1-.97c-.37-.36-.76-.73-1.14-1.11-.39-.38-.77-.78-1.14-1.21-.78-.84-1.51-1.7-2.19-2.56-.21.36-.4.69-.56.99-.16.3-.31.57-.44.82-.07.26-.19.54-.37.83-.08.16-.14.3-.18.41-.04.11-.08.2-.11.27.2.24.38.47.55.67.17.2.35.41.54.62.19.21.39.43.62.66.23.23.49.48.78.76-.34.44-.61.87-.82,1.3-.2.43-.36.85-.48,1.25-.11.41-.19.79-.23,1.16-.04.37-.06.69-.06.99,0,.49.08.89.24,1.19.16.37.35.71.56,1.01.21.3.45.56.71.79l.34-.54c.63-.99,1.27-1.89,1.9-2.7-.29-.16-.46-.35-.51-.57-.05-.22-.07-.54-.07-.96s.11-.8.34-1.12c1.07,1.07,2.16,2.08,3.25,3.03,1.1.95,2.2,1.84,3.33,2.67.42-.55.8-1.09,1.13-1.62.33-.53.63-1.04.89-1.55-.23-.15-.44-.29-.63-.43-.19-.14-.38-.28-.56-.41-.18-.14-.37-.29-.56-.45s-.41-.34-.66-.54c.57-.93.96-1.86,1.18-2.81s.33-1.8.33-2.55v-.41c0-.18,0-.28-.02-.29l.85-1.78h-4.26l-1.19,3.26Z"/>
    <path class="cls-1" d="m85.94,61.05c-.23,0-.43,0-.61-.01-.18,0-.33-.02-.46-.04-.42-.03-.68-.23-.78-.61-.03-.2-.07-.43-.1-.72-.03-.28-.07-.61-.1-.99.32-1.58.94-2.37,1.85-2.39h5.29c-.7-1.97-1.75-3.75-3.14-5.36,0,.73-.09,1.35-.27,1.85h-2.9c-.5.05-1,.16-1.49.34-.41.2-.78.49-1.12.88-.8,1.14-1.19,2.37-1.19,3.7,0,1.92.85,4.2,2.56,6.85h7.82l-1.63-3.48-3.73-.02Z"/>
    <path class="cls-1" d="m76,50.61c-.41.28-.78.56-1.11.85-.33.29-.64.59-.91.9h-2.51c-.08-.23-.15-.49-.21-.78-.06-.29-.09-.62-.11-.97-1.62,1.82-2.68,3.57-3.17,5.26h5.34v5.46l-.05,3.56c.57-.41,1.07-.86,1.5-1.36.43-.5.8-1.06,1.11-1.66v-5.99h1.71l1.39-3.51h-2.97v-1.75Z"/>
    <path class="cls-1" d="m340.81,52.15c-.47-.48-.97-.92-1.49-1.33-.18.37-.35.71-.5,1.01-.15.3-.32.58-.49.85-.17.27-.36.53-.57.78-.21.25-.47.52-.78.82,1.17.76,2.11,1.59,2.83,2.48.15.26.24.55.29.88.05.33.07.75.07,1.27,0,.28,0,.51.01.71,0,.2.02.36.04.49v4.58c1.09-.99,1.92-2.11,2.51-3.36l.05-3.46v-1.32c0-1.2-.2-2.15-.61-2.85-.44-.55-.89-1.07-1.36-1.55Z"/>
    <path class="cls-1" d="m346.59,57.74c.06.05.11.1.16.15l-.26-.28s.06.1.11.13Z"/>
    <path class="cls-1" d="m104.35,54.13c-.45-.41-1.01-.62-1.66-.63l-5.36-.02c-.02-.13-.04-.38-.07-.74-.03-.36-.06-.76-.09-1.18-.02-.42-.04-.82-.06-1.21-.02-.38-.02-.65-.02-.82-.28.33-.51.65-.71.99-.2.33-.37.67-.54,1-.16.33-.32.67-.48,1.02-.15.35-.33.7-.52,1.06-.1.16-.22.4-.37.72-.15.32-.29.65-.44.99-.15.34-.29.67-.44.97-.15.31-.27.54-.37.71h8.23c.36.06.63.19.83.37.18.18.29.45.34.8.02.16.03.31.04.44,0,.13.01.24.01.32l.1,3.12c0,.34,0,.52.02.54l.12,3.41c.96-.73,1.75-1.54,2.39-2.44l.07-2.17s.02-.16.02-.34v-1.41c0-1.12-.05-2.43-.15-3.92-.18-.67-.49-1.19-.93-1.56Z"/>
    <path class="cls-1" d="m114.9,59.56h.02s.02,0,.02-.02l.78-.41c.26-.15.49-.3.69-.45.2-.15.39-.31.57-.48.5-.44.76-1.03.76-1.78-.18-.99-.62-1.96-1.32-2.92-.64-.84-1.33-1.52-2.07-2.05-2.13.55-4.25,1.71-6.38,3.49-.24,1.07-.37,2.23-.37,3.46,0,.65.05,1.64.15,2.97.06.37.16.73.28,1.08.04.13.1.27.17.43.05.11.1.22.16.34.09.18.17.37.26.56,0,0,0,.01,0,.02,0,0,0,0,0,.01.04.09.08.17.12.25h9.65l-.68-1.32c-.03-.08-.06-.15-.09-.21s-.07-.13-.13-.23l-.73-1.51h-6.06v.24l-.49-.49h-.24c0-.08,0-.16,0-.24h0s0,0,0,0c0-.34,0-.67.01-.97,0-.37.02-.71.04-1.02.02-.6.09-1.19.22-1.78,1.28-.89,2.71-1.56,4.29-2,.23.2.37.4.44.61l.12.12s-.06.02-.07.02c0,0-.01,0-.02,0,0,.02,0,.05.01.07.16.2.25.38.25.53,0,.13-.02.28-.05.46-.03.18-.08.35-.13.52-.06.17-.13.32-.23.44-.1.12-.21.18-.34.18l-2.02.22-.63,2h1.92l1.12-.17Z"/>
    <path class="cls-1" d="m95.02,56.64v5.07c.5-.41.97-.82,1.39-1.24.42-.42.8-.87,1.14-1.34v-5.34c-.99.93-1.84,1.88-2.53,2.85Z"/>
    <path class="cls-1" d="m333.35,50.75c-.55-.64-1.15-1.22-1.8-1.74-.41.5-.8,1.05-1.17,1.63-.37.58-.75,1.22-1.12,1.9.96.6,1.8,1.34,2.53,2.22.06.08.13.17.18.27.06.1.1.2.13.32.03.08.06.18.07.3.02.12.03.27.05.45.06.57.11,1.11.15,1.62.03.51.05,1,.05,1.47v3.05c0,.19,0,.32-.02.37v.56l-.02,3.34c.47-.49.91-.99,1.3-1.5.4-.51.76-1.04,1.08-1.57l.19-4.39c.05-.84.07-1.68.07-2.51,0-1.27-.05-2.5-.15-3.7-.47-.75-.98-1.44-1.53-2.08Z"/>
    <path class="cls-1" d="m379.89,53.05c-.21.55-.4,1.11-.56,1.68.13,1.62.45,3.25.95,4.87h-3.63c-.36-.03-.62-.15-.78-.37-.16-.21-.28-.5-.34-.88-.03-.18-.06-.36-.08-.55-.02-.19-.05-.37-.09-.55l-.32-4.07c-.05-.57-.08-1.07-.11-1.51-.02-.44-.04-.81-.06-1.12-1.14,1.04-1.96,2.25-2.46,3.63l.32,5.29c.02.13.03.28.04.44s.03.35.06.56c.02.19.04.39.06.58.02.19.07.38.13.56.1.34.26.65.49.93.21.24.51.41.9.49.08.02.16.03.24.04.08,0,.16.01.24.01h.29c.13,0,.21,0,.24.02l6.21.02c.13.28.26.56.38.86.12.3.24.61.35.94,1.53-1.87,2.55-3.62,3.07-5.26h-2.1c-.33-.84-.59-1.66-.8-2.45-.21-.79-.37-1.55-.49-2.3h2.31l.95-2.29.15-.29c.06-.1.11-.18.12-.24l.32-.71h-5.29c-.28.55-.52,1.1-.73,1.66Z"/>
    <path class="cls-1" d="m400.98,57.8l-.12-.1s.05.03.06.05.03.03.06.05Z"/>
    <path class="cls-1" d="m400.11,60.09c-.24-.34-.4-.71-.46-1.1l-.78-3.05c-.03-.21-.07-.4-.12-.56s-.09-.3-.12-.41l-.17-.73c-.08-.41-.16-.76-.24-1.06-.08-.3-.15-.55-.22-.74-.13-.36-.37-.72-.73-1.1-.37-.34-.89-.51-1.56-.51-1.27.03-2.47.37-3.61,1.02-1.19.62-2.06,1.47-2.61,2.56-1.04,1.92-1.56,3.59-1.56,5.02,0,.84.17,1.66.51,2.44.5,1.17,1.53,1.75,3.07,1.75,1.14,0,2.14-.31,3-.93.65-1.09,1-2.27,1.05-3.53-.31.13-.59.26-.85.38-.26.12-.5.22-.73.3-.42.15-.84.22-1.24.22-.76,0-1.28-.37-1.53-1.12-.18-.63-.27-1.12-.27-1.46,0-.42.11-.97.34-1.66,1.1-1.01,2.19-1.51,3.26-1.51.26,0,.53.02.8.07.19.06.34.15.44.24.1.1.15.26.17.49.08.23.13.43.15.61l.71,4.17c.21,1.53.65,3.12,1.32,4.77l1.39-1.75s.07-.08.12-.13c.05-.06.1-.12.15-.18l1.29-1.61c-.45-.37-.77-.67-.95-.9Z"/>
    <path class="cls-1" d="m352.21,54.84h1.88c.06.16.11.37.15.61.03.24.05.45.05.63,0,.41-.06.76-.18,1.07s-.32.62-.6.93c-.47-.41-.82-.69-1.03-.85-.22-.16-.42-.32-.6-.49l-1-.97c-.37-.36-.76-.73-1.14-1.11-.39-.38-.77-.78-1.15-1.21-.78-.84-1.51-1.7-2.19-2.56-.21.36-.4.69-.56.99-.16.3-.31.57-.44.82-.07.26-.19.54-.37.83-.08.16-.14.3-.18.41-.04.11-.08.2-.11.27.2.24.38.47.55.67.17.2.35.41.54.62.19.21.39.43.62.66.23.23.49.48.78.76-.34.44-.61.87-.82,1.3s-.36.85-.47,1.25c-.11.41-.19.79-.23,1.16-.04.37-.06.69-.06.99,0,.49.08.89.24,1.19.16.37.35.71.56,1.01.21.3.45.56.71.79l.34-.54c.63-.99,1.27-1.89,1.9-2.7-.29-.16-.46-.35-.51-.57-.05-.22-.07-.54-.07-.96s.11-.8.34-1.12c1.07,1.07,2.16,2.08,3.25,3.03s2.2,1.84,3.33,2.67c.42-.55.8-1.09,1.13-1.62.33-.53.63-1.04.89-1.55-.23-.15-.44-.29-.63-.43-.19-.14-.38-.28-.56-.41-.18-.14-.36-.29-.56-.45s-.41-.34-.66-.54c.57-.93.96-1.86,1.18-2.81s.33-1.8.33-2.55v-.41c0-.18,0-.28-.02-.29l.85-1.78h-4.26l-1.19,3.26Z"/>
    <path class="cls-1" d="m57.24,60.25c-.21-.57-.44-1.14-.69-1.72-.25-.58-.52-1.15-.82-1.72.16-.21.32-.41.48-.6.15-.19.3-.37.43-.55.28-.36.53-.71.76-1.06.23-.35.41-.73.54-1.13.15-.41.22-.84.22-1.29,0-.18-.02-.41-.07-.68-.11-.5-.26-.98-.43-1.44-.17-.45-.39-.89-.65-1.32l-2.46,3.24c.05.08.15.24.3.49.15.24.3.45.43.63.11.2.19.39.22.58.02.08.03.15.04.22,0,.06.01.11.01.15,0,.57-.2,1.01-.61,1.32-.73-.06-1.23.02-1.51.27v-.93c0-1.25-.2-2.23-.61-2.92-.44-.57-.89-1.1-1.36-1.6-.47-.5-.97-.95-1.49-1.35-.47.57-.9,1.15-1.29,1.74-.39.59-.74,1.19-1.05,1.79.6.41,1.13.82,1.6,1.24.46.42.87.86,1.23,1.32.15.26.24.56.29.9.05.34.07.77.07,1.29,0,.28,0,.52.01.72,0,.2.02.37.04.5v4.7c1.09-1.04,1.92-2.18,2.51-3.44l.02-1.88c.2.62.46,1.3.8,2.06.34.76.65,1.55.93,2.37.28.75.52,1.5.74,2.27.22.76.39,1.53.52,2.31.11-.16.26-.38.44-.65.18-.27.39-.59.63-.96.16-.24.31-.48.44-.71.13-.23.26-.45.39-.66-.13-.6-.28-1.2-.45-1.79s-.37-1.17-.6-1.74Z"/>
    <path class="cls-1" d="m64.06,52.15c-.47-.48-.97-.92-1.49-1.33-.18.37-.35.71-.5,1.01-.15.3-.32.58-.49.85-.17.27-.36.53-.57.78-.21.25-.47.52-.78.82,1.17.76,2.11,1.59,2.83,2.48.15.26.24.55.29.88.05.33.07.75.07,1.27,0,.28,0,.51.01.71,0,.2.02.36.04.49v4.58c1.09-.99,1.92-2.11,2.51-3.36l.05-3.46v-1.32c0-1.2-.2-2.15-.61-2.85-.44-.55-.89-1.07-1.36-1.55Z"/>
    <path class="cls-1" d="m366.19,55.72l-.71,2.27h2.29c.13.36.2.69.2,1v.22h-3.46c-.93-.03-1.54-.83-1.85-2.39.03-.37.06-.7.1-.99.03-.28.06-.52.1-.72.1-.37.36-.58.78-.61.13-.02.28-.03.46-.04.18,0,.38-.01.61-.01l3.73-.02,1.63-3.48h-7.82c-1.71,2.66-2.56,4.95-2.56,6.85,0,1.33.4,2.57,1.19,3.7.34.39.71.68,1.12.88.52.18,1.02.29,1.49.34h2.9c.18.54.27,1.15.27,1.85,1.4-1.61,2.44-3.39,3.14-5.36h-.19c.05-.23.08-.47.1-.72.02-.25.02-.52.02-.82v-.41c0-.18,0-.28-.02-.29l.76-1.24h-4.26Z"/>
    <polygon class="cls-1" points="109.98 57.75 109.98 57.75 109.98 57.75 109.98 57.75"/>
    <path class="cls-1" d="m346.36,57.68l.13.13s-.02-.02-.03-.04c-.05-.02-.08-.05-.1-.1Z"/>
    <g>
      <path class="cls-2" d="m311.56,48.06v-1.88h-159.16v1.88l-7.17,19.54c14.78,1.82,29.56,2.35,44.35,0,16.06-1.96,31.87-2.2,47.34,0,19.29,2.36,37.95,2.22,56.04,0,9.59-1.01,17.47-.24,24.66,1.25l-6.05-20.79Zm-149.73,20.32c-2.6-1.63-6.38-2.27-11.94-1.41l15.47-16.88-3.53,18.28h0Zm21.8-1.43c3.11-6.97,8.46-13.32,17.78-18.57,7.36,4.3,11.62,9.93,13.28,16.69-2.83-1.48-25.54.68-31.05,1.89h0Zm66.82.33c-2.39-1.83-18.46-3.76-24.19-3.32,4.92-6.43,5.81-8.63,16.37-12.54,6.07,5.21,8.02,9,7.83,15.85h0Zm30.97-1.68c3.1-6.97-2.81-11.6,6.5-16.85,7.36,4.3,22,10.1,23.66,16.85-2.83-1.47-24.66-1.21-30.16,0h0Z"/>
      <path d="m161.84,68.38l3.53-18.28-15.47,16.88c5.55-.87,9.33-.23,11.94,1.41h0Z"/>
      <path d="m201.41,48.38c-9.32,5.25-14.67,11.59-17.78,18.57,5.51-1.21,28.23-3.36,31.05-1.89-1.66-6.75-5.91-12.38-13.28-16.69h0Z"/>
      <path d="m242.62,51.42c-10.55,3.9-11.44,6.1-16.37,12.54,5.73-.45,21.81,1.48,24.19,3.32.19-6.85-1.76-10.64-7.83-15.85h0Z"/>
      <path d="m287.92,48.75c-9.31,5.25-3.41,9.88-6.5,16.85,5.5-1.21,27.34-1.47,30.16,0-1.66-6.75-16.3-12.55-23.66-16.85h0Z"/>
    </g>
  </g>
</svg>