<?xml version="1.0" encoding="UTF-8"?>
<svg id="_Ñëîé_1" data-name="Ñëîé 1" xmlns="http://www.w3.org/2000/svg" viewBox="0 0 1602 2275">
  <defs>
    <style>
      .cls-1 {
        fill: #2e4529;
        stroke: #fff;
        stroke-miterlimit: 10;
      }
    </style>
  </defs>
  <g>
    <g>
      <g>
        <g>
          <g>
            <g>
              <g>
                <g>
                  <g>
                    <g>
                      <g>
                        <g>
                          <g>
                            <path class="cls-1" d="m875.24,933.7l2.4,1.31,1.64-5.97-1.14-3.68-1.1-1.64,2.9-.97,4.46-1.31,2.2-1.55,3.39-3.2-5.23-8.05,8.01,3.4,2.93,1.18,2.7-1.5,3.45-1.42,1.55-2.63-2.77-.29,3.29-4.74-1.88-1.47,2.17-1.3.69-6.54,5.86-4.98,6.99-3.59,4.54,2.77.69,3.12,4.04-2.12,1.92-6.15,1.64-1.1,3.02.32,5.29,2.84,4.16-.83,4.82-2.29,4.39-3.1,3.9-.86,3.71-1.39,2.7-1.5,2.42-1.27.34-3.27,3.2-1.44-.29,2.77,2.4-1.02.32-3.02,3.43-1.17,4.42,1.48,3.16,1.35,1.64,3.73-.24,2.26-.15,1.38-2.96,1.6-3.32.16-3.32.16-3.85.36-2.67,1.24-1.97,1.83-1.5,2.13-1.02,2.44-1.22,1.91-3.32.16-2.25,2.05-1.27,2.41s-1.27,2.41-1.91,3.61c-.64,1.2-3.72,3.93-3.72,3.93l-1.38,3.42-.45,4.28-.65,3.75-2.16,3.59-1.5,2.13-2.38,3.31,6.19-.87.12,1.28,1.63,1.44,2.33,2.02-.34,3.27.72,2.87.54,2.09,1.85,1.72,1.13,1.39.24,2.57-.37,3.52-1.05,2.69-.74,2.21-.32,3.02.04,2.04,2.38,1.52,2.21.74s-.08.75.54,2.09c.62,1.34,4.18,3.75,4.18,3.75l4.28.45,3.77.4,4.39,1.73,5.1-2.52,2.74.54,3.92,1.43,3.49.62,1.6,1.69,8.63,14.64,4.42,1.48,4.04-2.12,4.87,2.04,12.4.54,3.79-2.14,6.58,2.73,1.06,4.43-3.53,2.17-1.51,4.67-3.86,2.9,2.34,4.31-2.46,8.89,1.39,3.71-.17,4.05.37,1.31-.64,1.2,3.95,6.01,1.42,3.45-.26,2.51-9.79,6.09,4.69,3.8,3.52,5.2-5.41,5.53-3.89.16-2.34,3.5-5.17-4.67-.78,5.58-26.91-2.83-1.81,9.98.19.66,9.44,2.14,1.72,2.98-.14,3.8-1.89,1.07-3.56-2.41-9.26,1.06-2.43,13.47,6.69,6.55.21,2.82,1.91,6.05-14.6,51.86-5.88-6.97-7.7.72,14.11-18.1-1.15-1.14-1.76-.19-1.19-3.18-3.19-1.1h-2.29s-.12-1.27-.12-1.27l-5.19-3.85-6.6,2.36-3.36-1.88-3.51-2.91-4.31,2.34-4.46,1.31-5.56-.33-5.4-1.84-2.36-1.77-2.2-8.11-5.37-2.09.73-4.5-1.26-2.55-3.71-1.03-2.42-3.56-6.08-2.67.37-3.52-.06-3.06-6.21-6.25-7.54-2.06-4.71-3.55-3.59-2.16-2.55-2.3-3.08-2.1-2.94-1.07-1.28.12-.99,2.18-6.04-.63-5.25-.81-2.41-1.27-4.92-1.53-1.17-3.43-5.39-4.38-14.67-10.44-2.42-3.56,1.47-1.88-1.13-1.39,5.32-2.24,4.02-4.41-2.18-.99.24-2.26,2.58-2.78,5.78.61,4.13-.58,17.39-20.29-4.91.76,1.51-4.67-3.02-.32,2.59-2.91-2.51-.26,2.37-8.01.91-1.43-1.5-7.53.2-4.3-1.81.32.24-2.26h2.54s2.36-3.05,2.36-3.05l-2.48-7.89,1.19-1.65,1.12-3.44-1.44-3.2-2.93-3.61v-2.29s-3.44-3.67-3.44-3.67l3.07-5.02,7.11-2.3,4.12-2.87,3.26-1.95Z"/>
                            <line class="cls-1" x1="1043.05" y1="1128.43" x2="1042.76" y2="1131.19"/>
                            <path class="cls-1" d="m982.86,876.23l-16.2,2.94-3.71,5.01-2.18,3.84-2.26-.24-5.11,5.06-3.22,3.98-2.08,2.83s.2.53-.13,1.26c-.33.73.29,2.06-.32,3.02-.61.95-.42,3.52-.42,3.52l-2.65,6.33-2.96,4.01-2.41,3.56,5.77-1.68.52,2.34,2.77.29.7,5.41s.04,2.04.46,2.85c.42.81.48.3,1.05,2.14.57,1.84,1.75,2.73,1.75,2.73,0,0,.85,1.61,1.02,2.4.17.78.13,3.57.13,3.57l-.32,3.02-1.3,2.66-.41,1.48.04,2.04.85,1.61,2.86,1.83,2.85,4.37,1.1,1.64,6.04.63,9.56,1,3.9-.86,10.18,2.34,4.37,6.82,4.86,9.41,5.4,1.84,3.11-2.98,5.4,1.84,12.6,1.07,4.76-1.79,7.03,3.28-.34,3.27-4.29,2.09-.94,6.51-4.26,1.84,1.72,2.98-.94,11.34.66,8.21,3.87,6.76-.37,3.52,1.51.16-.29,2.77-9.71,5.34,5.16,4.1,3.18,3.64,1.44,4.47,3.58,17.92,6.78,8.09,6.29.66,6.43-3.14,2.51.26-.29,2.77-1.65,3.64,3.27.34,1.3-2.66,3.63-.64.4-3.77,6.3-1.88,3.35-.41,3.89-3.15.77,2.37,4.82-2.29.5-4.78,2.53-2.28,2.77.29,3.23-1.69,3.9-.86,1.53-4.92-6.56-.44-5.25-.81,2.05-2.58-.6-6.42-2.81-2.33.97-6.76-9.15-12.15-.79-3.39,3.38,2.9,5.53.58,2.99.57,1.89,3.76,3.77.4,4.9,1.79,3.65-.89,3.85,4.47,2.13,1.5,2.26.24.58-5.53,4.26-1.84,1.87-.82,5.45,1.34,3.37-.66,4.16-.83,3.2-1.44,2.98-1.72,7.73-.97,3.06-2.48,3.16-3.48-2.04-4.79-8.64-12.1.21-2.01,3.39-3.2.69-1.71-1.22-2.92,2.1-3.08h2.29s1.89-1.09,1.89-1.09l3.38-.66,2.79.04,1.31-.37,2-2.08.21-2.01.16-1.51-2.16-1.24-1.85-1.72-.6-1.59-.46-2.85,4.98-3.8,1.28-.12,3.98-1.62,5.77-6.51-2.57-4.59-5.93-1.64-1.42,1.38-2.34.52-2.94-1.07-4.14-1.71-.41-3.35,2.53-2.28-3.3-.09,1.47-1.88-3.52-.37,7.24-3.56-2.22-3.03-4.67-1.51-5.9-6.72-.21,2.01-3.72-.9-.13,1.26-4.36-4.53-2.82.21-.17,4.05-1.28.12-2-7.58-2.37.77-3.04-.07-.16,1.51-1.76-.19-1.19-3.18,4.53.48,1.03-4.98-4.82,2.29-.49-2.59,3.48-1.67,7.54.79,8.34-1.92-11.77-1.75-6.59-.18-11.5.57-3.08-2.1-7.65.21-.24,2.26,5.64-.42,3.61,1.91.12,1.28-7.52-1.04-3.55-.12-.26,2.51-1.61.85-2.34.52-5.35,2.49-5.23-1.06-5.6-2.37-6.05-2.92-3-2.86-.94-3.15-5.15-1.81-9.36-.48-5.16.73-13.66-.67-3.14-1.6-.72-2.87.26-2.51-.19-3.07-1.77-2.47-2.05-2.25-2.41-1.27-5.27-3.1-5.43-1.59-4.14-1.71-2,2.08-4.98-1.03-1.92,1.32-7.91,2.73-3.52-.37-7.72,3.26-4.58.03.57,1.84-2.92,1.22s.54,2.09,1.27,2.42c.73.33-.52,2.49-.52,2.49l-.21,2.01,1.83,1.97,1.72,2.98,2.37,4.06s.85,1.61.72,2.87c-.13,1.26-.25,4.8-.25,4.8l-1.85,3.11-2.55,2.53-3.12.69-3.27-.34-2.38-1.52.07-3.04-2.62-4.09-.74-2.62-1.47-2.95,2.16-3.59,2.53-2.28,2.02-2.33,1.77-2.36,1.02-2.44-.07-1.79-1.35-1.67.21-2.01-.09-1.54,3.92,1.43-3.65-3.94-2.3-2.28-1.5-2.7,1.18-2.62,7.59-1.04,8.26-3.58Z"/>
                          </g>
                          <path class="cls-1" d="m1148.52,1010.35l2.04,4.79-2.79,3.52-3.06,2.48-7.73.97-2.98,1.72-3.2,1.44-4.16.83-3.38.66-5.45-1.34-1.87.82-4.26,1.84-.58,5.53-2.26-.24-2.13-1.5-3.85-4.47-3.65.89-4.9-1.79-3.77-.4-1.89-3.76-2.99-.57-5.53-.58-3.76-2.94,1.17,3.43,9.15,12.15-.97,6.76,2.81,2.33.6,6.42-2.05,2.58,5.25.81,6.57.44-1.53,4.92-3.9.86-3.23,1.69-2.77-.29-2.53,2.28-.5,4.78-4.82,2.29-.77-2.37-3.89,3.15-3.35.41-6.3,1.88-.4,3.77-3.63.64-1.3,2.66-3.27-.34,1.65-3.64.29-2.77-2.51-.26-6.43,3.14-6.29-.66-6.78-8.09-5.2-20.06-4,3.58-1.67,1.35-2.85-.11-3.54,2.87-4.45-4.85-1.64,6.5-26.57-2.98-1.85,8.58-.18,1.7,7.84,1.59,3.15.9.71,2.36-.24,2.26-.8,2.14-2.07-.22-2.68-1.74-9.77,2.22-1.27,12.07,5.99,6.54.15,4.02,1.62,4.56-1.17,11.13-12.53,41.21-1.55,3.84-3.49.59-2.01-2.69.22-2.07-1.6-1.12-2.57.87-2.24-.43-4.3,2.79-4.29.88-10.51.23-19.07,9.06-3.57,8.59-5.63,4.56,1.47,7.78-1.2,2.35-1.44.99-2.45-.26-2.44,1.46-2.44,1.46-1.89,3.42-.24,2.26.59,3.49-1.02.66-3.14.81-1.33,1.77,5.26,4.37-1.71,1.73,1.44,2.63,1.14,5.46,4.44,3.14-.41,2.05,2.19,2.71,3,4.13.54,2.15-4.66,4.47.05,1.34,13.1,2.33,3.01,5.85-1.01,2.37,1.56,1.5,4.39,1.8,5.09.54,5.12-1.56,6.47-3.52,8.2-5.43.27,2.89-3.13,2.53-2.27,19.78.54,2.15,4.39,1.8,2.83.3,4.67-.84,5.7.22,4.61-.28,4.26,1.21,3.78,2.11,4.03,1.57,3.02.32,2.5-2.03,1.77-2.29,1.35-1.96,2.7-.29,3.49-.59,6.03-1.08,1.3.33,1.31-2.53,11.89-6.95,7.07-1.93,8.38.12,1.98,1.16,3.18-1.19,2.54,1.22.12,2.49-1.01,2.37-.34,3.21-.13,3.04-1.67,1.35,1.96,8.6-1.56,5.75,1.26,4.33-.13,3.04,2.83.3-.49,2.81s1.82,2.67,2.49,3.5c.68.83,3.83,3.45,3.83,3.45l3.62,3.62,3.91,2.7,3.21.34,3.76-1.32,3.22,2.05,3.72,2.68,2.64.28,1.7.18,1.31,2.04.74,1.99,2.84,2.01,2.84,2.01,7.2,2.28,1.33,1.86,2.7,3.33,6.4,2.58,3.58.38,2.83.3,3.77.4,3.08,3.37,2.59,2.56,2.33,1.39-.26,2.45-1.16,1.98-.24,2.26.69,2.55,2.55,2.94v9.15s-6.99-.73-6.99-.73l6.11,9.03-1.23,11.69-.16,1.51,28.67,3.01,2.06,4.03-2.41,2.99-.13,3.04,4.13,11.49,5.66.59,3.95,13.19-3.99,8.92-1.01,2.37.65,2.93-8.25,11.34-1.07,2.94,4.59,3.53-4.9,3.11,1.46,6.07.82,4.85,1.48,2.25-1.26,2.92.87,2.57-2.33,2.23,1.14,1.84-1.73,1.92.77,3.51-1.91,5.52,1.57,3.22,5.47.57,1.54,1.69,6.6.69,5.66.59,5.47.57,1.79,1.14,9.81,1.03-.44,4.15,2.38,2.73-1.5,5.18,1.77,4.95-.56,5.28.99,5.06-.38,3.58,1.58,1.31,4.15.44,5.69-1.5,3.58.38,2.8,2.39,2.76,2.77-1.67,4.97-2.31,2.05-5.68,19.62,6.89-.23,3.37,2.45,3.06-.06-.57,5.47,2.57,6.37-2.86,5.42-.17,3.41,1.42,2.82-2.34,4.14-3.12.63-2.56,2.59-1.74.2-2.23,1.29-2.85-.11-.85.86-1.53.03-3.28,2.13-3.6,3.44-7.64,3.77-1.58,2.31-1.51-.16-1.51-.16-2.98,2.93,1.71,1.9-.87,1.05-1.96-1.35-1.25,1.01-.33,1.3-1.13-.12-.95,1.81-2.02,1.12-.74,1.64-2.01.93-.74,1.64-1.46,1.18-1.27,1.2-1.27,1.2-2.65,1.63-7.05,8.98-6.07,1.46-.51,3-2.96,2.74-1.2,2.35-.23.36,3.5,1.13,2.67-1.82,2.93-.65,3.56.57,2.31,1.58,1.54,1.69,1.86,2.29.93,2.01,2.25,2.14,2.17,2.9,1.04,2.78-.18,1.7.14,2.3.94.1,1.89.2,2.42-1.27,3.05-1.78,8.76,11.03,1.79,1.14,3.02.32,3.76,2.3,1.02,2.97,5.39,4.95,3.17,4.34,1.66.56.82,4.85.56,1.97,6.84,5.68,1.89.2,2.75-2.57,2.53-.5.36-3.4,2.71-2.19-.32,3.02,1.78,3.05-3,6.74-1.61.78-3.03-2.03-2.06,1.5-2.78,4.67-1.51-.16s-3.33.79-3.4,1.55c-.08.75.79,5.23.79,5.23l-1.47,3.09-.48,4.53,6.41-2.95,5.38-4.01,3.78-5.13,3.22-5.19,1.46-4.8,1.8-4.39,3.17-2.91,1.18-2.16.18-1.7-2.41-.63.78-2.02h1.91s-1.14-1.83-1.14-1.83l3.71-2.66,1.54-5.56,1.31-1.58,4.48-.86,1.24-2.73,2.32-3.95,1.55-.22.46-4.34,2.19-.91,1.82-4.58-1.2-1.27-.8-1.42.31-4.74-11.99-2.02.14-1.32,4.32.64,1.76-.39,8.43,1.46-.36,3.4,1.1,2.21,1.33,1.86-.18,1.7,1.11.31,1.67-1.35,1.89.2,2.15-.54.22-2.07,1.27,2.42-.42,3.96-1.9-1.92-.63,6.04-2.66,3.53-2.45-.26-.2,1.89-1.75,2.1-2.09-.03.27,2.89-1.83,2.86-1.28,2.47s-2.8-1.18-2.83-.87c-.03.31.07,2.93.07,2.93l-.9-.54-.89,1.24-1.52,1.11-1.24.95-2.37,1.4-2.45-.89-1.96-.71.56,2.54.94,1.37.67.9,3.33-2.07,2.12-2.07,3.9-1.43,2.89-2.68,5.32-4.08,1.74-1.41,9.5-12.35,1.89-1.61.92-3.34,7.55-13.16,7.29-8.9,9.06-7.57,3.98-1.62.59-5.66,1.77.06,2.36-3.06,1.36-4.43-.68-4.39,1.3-1.52.81,4.41,1.64-3.51,1.69-2.75-.56-1.97-1.85.7-.62,2.22-1.2-.64-.34-1.56,3.12-1.83-.08-1.66-1.72-.56,1.92-1.32-1.86-.45.17-1.63-.07-2.93-.62-1.34.34-5.68,1.41-2.52,2.44-2.67-1.84-1.85.12-4.82,6.02-6.49-1.58-3.09.38-2.38,1.69.81.69.71,3.1-.44,1.1-3.19-.52-1.07,10.14-5.8,1.44-.36.07-.63,3.04.07,3.39-3.2,2.01.21.25-2.39,10.87-5.47,2.2.87,2.36-.64-.25-2.44,4.91-.76,3.94,1.18,3.06,1.08,2.22,1.89,1.36,1.54,2.53-2.28-2.63-2.82-1.77,1.09-.67-2.1,1.03-1.29,2.38.38,1.29,1.03,2.29-2.43-.33-1.69,2.52-1.01,1.61.42,2.61-.62.8.85,2.03-1.18.13-1.26-1.67.21-1.54-1.05.85-2.07,1.9.07,4.48-2.71,2.15,2.51,1.23.38,4.92-2.03,4.04,2.71,1.79,1.08,2.32-1.54,1.85.58,1.38.15.2-1.89,1.71-1.73-.3,2.89,1.04,1,7.26-.13,2.34-.52,5.17.42,1.95,1.99,1.38.15.71-1.96,1.11-3.32-1.68-.94.3-1.62,4.57-3.59,12.49-3.9,1.98-1.95-1.42-4.6.07-4.31,2.53-2.28.22-2.14,3.82-3.67.26-2.51s1.34-1.89,1.82-1.59c.48.3,1.2.64,1.2.64l2.19-2.69,1.42-.23,2.38-5.72,1.89-1.07.32-3.02,5.32-7.07,3.95-2.51-.07-11.45,1.14-5.98,2.51-4.57,2.86-4.28,1.95-1.58,1.74-3.25,4.25.7-2.35-3.04.8-8.82,1.46-3.02.21-2.01,1.98-3.1.3-2.89,2.16-4.86,1.93-3.87-2.05-2.25,2.26.24-1.18-2.03-2.71-2.06,2.51.26-.19-6.63.61-3.37-.34-5.25-.57-1.84,3.69-7.24.19-3.03.32-3.02-1.18,2.8-1.39,1.13-.17-4.47.85-.8-1.3-2.17,1.57-.47.56,1.97.56-1.72-.23-1.42-1.46-.66.34-3.27,1.89-1.07,4.28.45.92-2.7-2.5-.39-.26-1.17,2.51-3.3-2.52-1.41v-2.54s1.3-.12,1.3-.12l.78,2.24,1.69-2.75,2.53.14-.16,1.51,1.71.69.94,3.15,1.05,2.14,3.33-1.43-.68-1.98,3.45-2.56,2.36-3.06,3.78-4.56,2.3-3.7,2.79-3.52,1.53-2.51,1.32-1.64-2.04.04.87-2.2.79-1.44.3-1.62,1.74,1.58,1.37-2.14-1.06-2.02s1.09-.65,1.31-.37c.23.28,1.46,1.81,1.46,1.81l.6-.83-1.17-2.16s-.09-2.81.67-2.73c.75.08,2.25.36,2.25.36l-.22,2.14,1.56-1.49,2.65-2.26,2.55-1.26,2.9-.97.12-1.13,1.69.81,1.99-3.22,1.3.9,3.06-4.89,3.68-3.55-1.4-2.44-.79-2.12,2.43,2.29,1.01-1.16,1.36.4,3.27-2.07,3.47-2.81,1.29-1.39.28-2.64,2.39-2.16,1.5-3.4,1.84-2.98,3.31-4.86-1.3-.9,3.09-4-1.69-2.08-.4-2.2,2.73-1.75.78-7.42-2.64-.28,1.16-3.82-.36-2.58-1.01-.11.56-2.87-.61-3.88-1.51-2.57-.75-.08,1.36-2.02-.44-4.24-.72-2.87-1.21-5.47-1.24-2.67-2.16-2.39-5.15-1.81-5.29-.43-2.18.15-3.72-.9-1.77,1.09-1.91-1.22-.87,1.05-.73-.33-.08-1.66-1.45-1.93-3.83.11-1.44-.79-.97-2.9-1.38-2.56-2.59-.78-1.96-.71-1.22-1.65-.96.66-.11-2.55-2.75-1.69-1.86-2.87-2.07-3.27-2.39-2.67-2.43-2.29-3.95-2.32-7.76-7.17-3.19-1.1-3.41-2.65-2.15-2.51-2.58-2.05-6.47-.17-1.91-1.22-.54,1.47-3.86-.79-3.73.37-2.05.17-4.28-.45-2.85-.68-4-1.82-3.85-2.06-2.63.87-2.59-.78-1.59-1.82-.81,1.69-1.5-.28.17-1.63-2.44-2.16-.24,2.26-1.14,1.15-1.3-.9,1.12-1.03-.4-1.06-6.78-4.4-4.5-.73,3.01,1.59-4.39.68-5.59-.08-3.18-1.22-.93-.86-2.14-.22-3,.7-.46,4.4,2.64.28.69-1.71,3.18,1.22-1.54,1.36-3.55,1.15-.76-1.22-1.26-.13-1.96,4.12-1.95.43-1.73,1.98-.9,1.3.03-2.67.6-.83,1.42-5.06-1.16-1.01,3.71-5.08,2.06-.29,1.3-2.66-.7-1.85-4.39,3.1,2.38-4.45,1.01.11.56-2.87-1.65-1.19-1.72-2.98-3.25-1.74,2.23-3.07-3.76,1.89v-1.14s-4.35.18-4.35.18l-1.59,1.87-2.65-2.57,1.42-2.65-1.34.62-.46-2.85-5.15-1.81-3.04-1.34-1.61.85-2.51-.26,1.34-4.31-2.07,1.56-4.05-.17-2.35-.63,1.44-1.63-1.71-.69s-.52-2.34-.89-2.38c-.38-.04-2.47.5-2.47.5l-1.67-2.21-2.22.53-2.16-1.24-1.2.51-1-1.38-1.19,1.65-2.28-.11-.56-1.97-2.92,1.22-2.86.59-1.18-.89-1.68,1.48-.06,1.77-.57,2.99-2.12-.35.34,1.56-1.85,3.11-2.08-.73-.3,1.62,5.43,1.59-5.51.44,1.17,3.43-1.3.25-2.69-5.88-2.28,1.16-2.67,4.81-2.14,3.46-.85-1.61-2-.34-4.84,6.1-1.13,9.54,1.79,4.76-2.28-.11-3.08-4.52,1.72-9.1,3.69-6.1-.89-1.24.64-2.48-2,2.08-3.96.22-1.74,3.25-1.01-4.94-4.97.11-.24,1.12-4.79-.38-1.07-1.89-1.4-.02-.27,1.37-1.64,1.1v2.42s-1.05-2.14-1.05-2.14l-1.5-.28-1.73,7.95-.74-5.04.44-3-2.97-3.24-2-.34-1.28,6.1,2.61,5.36-2.3-1.13-2.91-5.01,1.22-8.01,3.5-.65,3.82,3.58,2.43-.13,3.53-.9,2.83-.34,3.6,2.03.38-2.38,4.02.42.72,1.6,3.49.62,1.3-3.93.76,3.64,2.55-.11.87-4.61.71,1.73,1.47.54.34-.85,1.22.51,1.46-1.75,1.66-.08,2.59,3.2s2.94-.2,2-.93c-.94-.73-1.84-1.85-1.84-1.85l.1-2.15,1.77,1.33-.32-2.96s2.46.77,2.38.38c-.09-.39-.43-1.95-.43-1.95l2.74.54.24-2.26,2.81-1.36-1.73-2.85.26-1.24,1.5,1.43.09-2.03s3.75-4.18,3.13-4.37-1.6-1.69-1.6-1.69l-7.85-.32-.02-1.02-8.48-1.53,1.35-3.16-1.92-1.09-2.26-.24-2.4,2.29-2.66,1.12-2.15-.1-2.58.36-2.36-1.77-.81,2.84-1.6-1.69-4.7,2.43-1.05.27-.73.94-3.7.12,4.76,1.9.27,2.32,1.4,1.16-.05,1.65-1.44,1.63.05,1.91,2.64,2.69.05.77-6.54-.69-1.35-1.67-3.02-.32-9.56,5.1-5.55,1.96-2.92-.05-1.15,1.28-.3,5.31.56,3.11,1.16,2.28.56,3.11.21,2.82.06,3.06-1.98.68,1.04-5.1-1.68-3.36-2.26-6.34-.52-2.34,1.09-1.92-.43-1.95,1.37-2.14-5.07-.15-4.22.19-2.98,1.72-2.34,1.66-8.15.16-5.86.15-2.67,2.39-.46,4.4-8.44.51,5.67-1.95,2.34-4.08,4.41-3.22,5.79-.66,5.6-.05,5.4-2.99,5.08.03,6.83-2.08,1.67,1.07,2.47-.5,1.26-3.55-.15-2.18,1.63-2.24,2.69-.23-.19-1.8,6.21-5.83.74,2.62-4.05,2.24-.5,2.36-1.19,1.65-2.16.03,2.14,2.64-4.08,3.77-1.37,2.14,2.26.24,5.11-2.64,3.28-2.2,1.69-2.75.54-2.74.95-1.81-.6-1.59-1.01-1.25-1.53-3.59,2.86-3.01-3.38-1.75,5.2.16,4.96-2.4,1.51,2.57-4,1.74-.58,1.85,2.45.89,3.53-2.17,2.81-1.36,1.83-.44,1.46.66,3.29,1.36,2.64.28,7.03-3.97.1-2.15-4.18-1.33-4.14,1.85-4.22-.95,2.08-2.83-1.48-.41s-3.17,2.34-3.46,2.69c-.29.35,2.17,1.12,2.17,1.12l.67,2.1h-1.27s-1.26-1.28-1.26-1.28l-3.08.31-1.65,1.22-1.66-2.05,2.65-1.06,2.17-1.9,1.39-1.76s.74-1.86.87-1.97c.14-.11,2.9-2.24,2.9-2.24l2.08-2.29,4.63-2.95,1.62-2.12-2.32.27-1.51-.16-1.24-1.53-.54-.95,1.2-.51,2.1,1.75,2.83-1.48.18-4.18-1.44-3.2-6.4-.8-2.14-2.64,1.4-1.25,1.54,1.05.19-3.03-6.05-.51.22-4.55-1.52-1.3.31-1.75-2.71-8.04.07-4.31-.64-2.36,1.28-6.1-.29-2.06-1.42,1.38.8-3.98-.93-3.28-2.01-2.63-1.3-2.17-1.13-.12-.5,4.78.81,5.55-1.84-4.26-.83-3.01-1.37,4.56-2.66,1.12-1.59,3.01-2.46,1.65-2.83,5.17-3.2,2.59-1.88,3.93-4.96,3.67-.41,3.33-6,5.09-5.37-.95.48-2.11-2-.34-2.36.64-1.93.18-2.48-1.79-4.45,2.46-7.07-1.63s-.62-1.34-1.49-1.55c-.87-.22-2.64-.28-2.64-.28l.25-2.39-2.63-.4s-.07-1.79-.57-1.84-7.17-.75-7.17-.75l-1.3,2.66-7.17-.75-3.34-.86-1.28,3.68s1.38,2.56,1.75,2.73c.36.17.84,2.89.84,2.89l-2.07,1.56-2.44-1.02-3.54-1.39-4.24-.83-3.11.56-3.58-1.01-1.32-1.92-2-.34-2.07,1.56-2.71.35-1.07,1.67-2.27,1.03-3.34.29-2.79-.04-.36,2.25-3.04-.07-1.74-1.58-2.71,1.62-1.8,2.61-3.32.16-1.3,1.52-2.03-.09-.3-3.21-3.77-.4-8.56-8.02.18-9.01-3.03-2.61.43-2.88-1.83-4.39.89-2.45,1.52-1.11,2.01-4.62.83-4.24,5.58-4.75.09-3.3-2.22-3.03-1.23-2.8-1.28-1.15-4.65-1.76,1.16-2.55.73-4.5,2.4-1.02-.29-2.06-2.65-2.57-2.37.77-8.32-1.89Z"/>
                        </g>
                        <polygon class="cls-1" points="974.03 1152.51 972.49 1156.35 968.99 1156.94 966.99 1154.25 967.2 1152.17 965.61 1151.05 963.03 1151.92 960.79 1151.5 956.49 1154.29 952.2 1155.17 941.69 1155.4 922.62 1164.46 919.05 1173.05 913.42 1177.6 914.89 1185.39 913.69 1187.74 912.25 1188.73 909.8 1188.47 907.36 1189.93 904.92 1191.39 903.03 1194.82 902.8 1197.08 903.38 1200.58 902.36 1201.23 899.22 1202.05 897.89 1203.81 903.15 1208.18 901.45 1209.91 902.89 1212.54 904.03 1218 908.47 1221.13 908.06 1223.19 910.26 1225.9 913.25 1230.03 913.79 1232.18 909.13 1236.65 909.18 1237.99 922.28 1240.32 925.29 1246.17 924.28 1248.54 925.83 1250.04 930.22 1251.83 935.31 1252.37 940.44 1250.81 946.91 1247.29 955.11 1241.86 955.38 1244.75 952.25 1247.28 949.98 1267.07 950.52 1269.22 954.9 1271.02 957.73 1271.31 962.4 1270.47 967.37 1271.5 980.75 1297.83 976.64 1305.53 974.79 1314.62 972.53 1319.21 974.06 1327.63 972.75 1330.42 966.58 1337.14 965.54 1338.56 965.05 1343.21 967.37 1345.36 966.8 1348.36 964.23 1351.01 962.79 1352.64 965.11 1363.18 967.89 1368.18 967.13 1371.78 964.65 1372.41 963 1376.05 956.49 1381.09 957.92 1384.42 957.65 1388.2 952.67 1388.44 951.67 1389.48 952.07 1392.96 951.23 1397.32 946.42 1399.48 940.66 1399.89 933.79 1393.83 932.06 1390.98 925.08 1386.31 924.82 1382.46 923.52 1379.15 918.43 1376.71 910.63 1369.91 908.74 1366.15 903.52 1364.97 899.86 1362.3 898.06 1362.49 888.95 1356.06 886.67 1355.95 879.24 1349.2 877.99 1349.06 863.51 1338.01 862.76 1335.51 859.65 1331.18 852.85 1324.56 850.53 1319.99 848.47 1317.87 848.61 1316.48 846.63 1314.75 847.03 1310.98 845 1309.75 845.23 1307.48 848.06 1308.42 849.53 1301.7 844.97 1294.23 844.74 1291.67 841.94 1286.8 841.04 1285.68 840.68 1283.1 835.96 1277.14 835.05 1268.91 831.01 1263.78 828.87 1262.41 829.04 1260.78 829.24 1258.89 820.78 1238.93 821.11 1235.79 818.98 1229.46 817.21 1223.3 815.33 1221.83 815.57 1219.57 813.73 1216.58 814.04 1213.56 811.3 1210.6 811.47 1208.97 805.65 1199.08 803.23 1196.66 803.39 1195.15 801.69 1190.78 801.92 1188.64 795.32 1177.65 784.14 1170.24 778.37 1164.68 778.65 1162.04 779.95 1160.52 781.12 1161.54 783.07 1161.11 783.04 1157.8 782.29 1155.18 781.06 1153.65 778.94 1152.03 778.64 1148.82 780.84 1148.41 780.72 1145.98 777.03 1141.15 778.25 1139.24 779.28 1134.26 784.2 1129.82 785.55 1129.07 787.92 1125.89 792.39 1124.45 792.56 1122.82 795.08 1123.08 796 1121.53 797.89 1121.73 798.08 1125.94 799.03 1128.97 797.54 1131.1 794.14 1130.74 792.1 1132.05 791.95 1133.44 794.6 1134.86 793.25 1138.02 793.71 1139.72 798.06 1137 799.67 1137.42 802.97 1139.93 807.69 1140.94 810.88 1149.28 818.11 1150.68 817.85 1147.09 820.13 1144.79 822.43 1144.65 825.89 1134.71 829.5 1128.23 829.83 1125.08 833.05 1127.08 834.37 1123.02 840.82 1118.48 851.75 1116.07 857.47 1114.89 864.24 1113.32 869.08 1109.63 874.12 1105.2 879.33 1100.41 882.64 1095.55 884.61 1091.3 885.49 1088.98 888 1089.25 888.12 1079.72 884.81 1074.93 885.04 1072.66 893.85 1077.15 897.67 1075.9 898.12 1078.87 903.99 1084.7 904.23 1087.26 904.29 1087.91 904.39 1090.59 910.85 1094.44 911.39 1095.39 915.58 1097.86 917.29 1099.7 917.36 1101.48 917.05 1104.38 917.23 1106.3 920.88 1106.69 923.97 1112.35 924.57 1115.08 926.86 1117.48 929.64 1118.92 932.99 1119.65 936.55 1119.65 938.41 1120.1 939.73 1118.46 941.88 1118.55 945.86 1114.52 946.57 1116.25 950.32 1116.9 951.08 1119.27 955.18 1120.21 959.41 1117.47 964.1 1120 964.34 1122.57 967.85 1123.06 970.61 1124.63 974.13 1127.41 974.71 1129.12 961.52 1145.79 963.32 1146.74 966.76 1146.72 967.97 1146.09 970.27 1148.36 974.03 1152.51"/>
                      </g>
                      <polygon class="cls-1" points="885.04 1072.66 884.81 1074.93 888.12 1079.72 888 1089.25 885.49 1088.98 884.61 1091.3 882.64 1095.55 879.33 1100.41 874.12 1105.2 869.08 1109.63 864.24 1113.32 857.47 1114.89 851.75 1116.07 840.82 1118.48 834.37 1123.02 833.05 1127.08 829.83 1125.08 829.5 1128.23 825.89 1134.71 822.43 1144.65 820.13 1144.79 817.85 1147.09 818.11 1150.68 810.88 1149.28 807.69 1140.94 802.97 1139.93 799.67 1137.42 798.06 1137 793.71 1139.72 793.25 1138.02 794.6 1134.86 791.95 1133.44 792.1 1132.05 794.14 1130.74 797.54 1131.1 799.03 1128.97 798.08 1125.94 797.89 1121.73 800.54 1121.88 801.75 1121.24 802.42 1118.52 804.53 1116.58 805.25 1113.35 808.24 1109.09 807.26 1106.31 807.5 1101.63 805.89 1104.9 804.36 1107.28 804.89 1109.5 804.6 1111.12 803.15 1111.6 801.14 1111.39 800.6 1112.86 801.68 1115.9 797.84 1116.13 799.18 1110.68 801.1 1109.35 803.35 1109.71 804.36 1107.28 803.67 1106.63 805.28 1104.58 805.03 1102.14 801.91 1106.45 799.1 1109.01 797.38 1109.6 792.45 1103.36 789.98 1102.59 788.27 1100.76 791.75 1099.09 792.72 1095.89 792.42 1092.68 791.27 1090.39 792.91 1088.02 792.85 1084.97 790.38 1080.64 793.08 1079.14 794.82 1079.58 796.68 1080.03 798.63 1077.18 799.53 1074.61 800.61 1072.81 799.51 1070.03 807.65 1062.75 808.57 1058.78 809.51 1060.78 810.64 1060.9 811.09 1059.04 809.06 1056.54 809.03 1055.65 810.35 1055.15 808.44 1052.79 808.52 1050.76 814.03 1049.18 816.01 1048.5 817.14 1048.62 819.11 1046.79 823.01 1047.2 824.87 1045.23 825.62 1045.31 826.64 1047.71 829.5 1044.7 831.66 1043.53 832.92 1043.66 834.84 1045.9 845.06 1053.97 846.5 1054.75 849.53 1054.94 850.69 1057.23 852.89 1059.24 853.09 1062.18 857.72 1064.07 860.05 1066.09 870.48 1067.32 871.07 1065.34 872.19 1064.32 875.38 1065.42 877.26 1066.89 885.04 1072.66"/>
                    </g>
                    <path class="cls-1" d="m972.66,1270.79l4.26,1.21,3.78,2.11,4.03,1.57,3.02.32,2.5-2.03,1.77-2.29,1.35-1.96,2.7-.29,3.49-.59,6.03-1.08,1.3.33,1.31-2.53,11.89-6.95,7.07-1.93,8.38.12,1.98,1.16,3.18-1.19,2.54,1.22.12,2.49-1.01,2.37-.34,3.21-.13,3.04-1.67,1.35,1.96,8.6-1.56,5.75,1.26,4.33-.13,3.04,2.83.3-.49,2.81s1.82,2.67,2.49,3.5c.68.83,3.83,3.45,3.83,3.45l3.62,3.62,3.91,2.7,3.21.34,3.76-1.32,3.22,2.05,3.72,2.68,2.64.28,1.7.18,1.31,2.04.74,1.99,2.84,2.01,2.84,2.01,7.2,2.28,1.33,1.86,2.7,3.33,6.4,2.58,3.58.38,2.83.3,3.77.4,3.08,3.37,2.59,2.56,2.33,1.39-.26,2.45-1.16,1.98-.24,2.26.69,2.55,2.55,2.94v9.15s-6.99-.73-6.99-.73l6.11,9.03-1.23,11.69-.16,1.51,28.67,3.01,2.06,4.03-2.41,2.99-.13,3.04,4.13,11.49,5.66.59,3.95,13.19-3.99,8.92-1.01,2.37.65,2.93-8.25,11.34-1.07,2.94,4.59,3.53-4.9,3.11-.72-7.64-4.87-2.04-4.59-3.53-6.08-3.82-3.12-.58-11.26-.55-10.15.97-11.01.75-7.56-.67-3.66,4.57-2.14,7.02-4.24,2.86-1.03,3.71.05,5.6-1.01,3.58-8.96,19.91h-1.14s-2.73-5.49-2.73-5.49l-2.92-.05-4.76-.63-6.19-.4-4.3-.2-6.38,9.88-2.52,5.84-.93-4.42-.21-4.09-1.28-1.15-.42-3.22-2.95-2.22-3.19-1.1-14.82-1.69-.66-2.23-3.49-.62.22-2.14-1.38-.15-4.23,4-7.12,2.43-2.41,3.56-3.65-.38.44,3.1-2.92,2.36-2.98,1.72-3.27-.34-3.58-1.01-1.85-2.99.24-10.78-2.39-7.5-1.09-12.57-4.6-3.41.82-2.96,1.36-2.02-4.34-3.51,1.01-1.16-.27-5.88,3.5-.65.56-1.72-1.77-3.75,2.78-2.25,1.63-3.39-8.09-7.72.46-1.99-2.48-13.86,1.32-1.64-.6-1.59-2.33.39-1.09-1.77.3-2.89-2.36-2.92.27-3.79-1.43-3.33,6.5-5.04,1.65-3.64,2.48-.63.76-3.61-2.78-5-2.32-10.54,1.44-1.63,2.57-2.65.57-2.99-2.32-2.15.49-4.65,1.04-1.42,6.17-6.72,1.31-2.79-1.53-8.42,2.26-4.59,1.84-9.09,4.12-7.7-13.38-26.32-.45-.56,2.08-2.26,2.03.02,1.66,1.7Z"/>
                  </g>
                  <polygon class="cls-1" points="1168.34 956.13 1164.23 961.75 1159.61 964.78 1158.07 964.62 1153.74 968.66 1153.25 973.3 1154.98 975.43 1157.52 977.22 1159.39 978.04 1156.9 981.3 1152.23 982.95 1148.37 982.55 1145.85 984.24 1144.3 984.07 1141.91 986.36 1143.13 989.62 1142.66 992.3 1139.3 994.49 1138.98 997.58 1148.71 1010.48 1153.36 1011.39 1157.93 1012.41 1160.76 1013.35 1159.47 1016.34 1157.97 1021.26 1156.21 1023.22 1161.01 1025.87 1165.42 1032.2 1166.35 1034.44 1164.97 1036.45 1162.56 1038.93 1160.7 1039.91 1159.79 1044.89 1158.65 1048.28 1155.69 1052.27 1155.31 1055.94 1157.28 1059.47 1156.71 1061.17 1159.34 1063.98 1159.01 1069.03 1159.44 1072.39 1162.13 1074.63 1166.03 1080.31 1172.05 1082.51 1171.86 1084.25 1174.95 1084.57 1176.04 1083.51 1179.33 1083.86 1180.6 1081.06 1182.16 1081.03 1183.37 1078.82 1185.14 1080.56 1189.16 1081.38 1189.44 1078.67 1195.71 1078.55 1198.78 1075.36 1203.85 1073.55 1205.59 1073.73 1207.57 1075.3 1211.25 1077.45 1218.01 1076.4 1211.8 1072.23 1210.04 1068.53 1207.51 1061.04 1206.26 1056.22 1204.04 1051.3 1199.7 1046.15 1196.2 1042.27 1194.07 1038.33 1192.31 1034.63 1192.98 1031.97 1194.29 1030.74 1196.51 1026.28 1196.86 1023 1197.62 1021.32 1201.47 1019.97 1203.62 1020 1206.13 1020.26 1208.03 1018.9 1208.15 1017.74 1210.92 1017.45 1211.3 1015.73 1208.44 1015.04 1207.7 1012.81 1208.73 1011.03 1209.89 1009.85 1210.85 1004.48 1211.28 1001.66 1210.19 999.59 1209.09 997.66 1207.28 996.29 1205.72 996.26 1205.55 997.93 1203.58 999.29 1203.17 998.21 1203.94 997.11 1204.23 995.58 1202.87 992.44 1200.58 989.47 1198.02 987.77 1195.78 986.75 1195.07 989.8 1192.87 992.17 1192 991.82 1193.74 988.88 1194.27 986.33 1193.06 985.42 1190.97 985.46 1188.92 987.59 1187.74 990.2 1187.6 1000.21 1186.08 1002.27 1186.44 995.14 1185.15 995.01 1183.87 996.05 1182.75 996.45 1181.5 998.79 1179.96 999.8 1181.79 995.96 1184.76 993.8 1184.05 993.2 1183.17 992.46 1183.24 991.81 1185.94 992.49 1186.59 991.25 1186.96 986.47 1189.53 983.1 1190.2 982.91 1190.62 977.61 1189.09 974.85 1187.77 971.32 1186.61 971.2 1185.61 969.27 1182.11 964.48 1177.45 960.47 1174.11 958.82 1171.75 956.49 1170.93 955.62 1168.34 956.13"/>
                </g>
                <path class="cls-1" d="m1216.69,1075.42l-4.63-3.16-2.73-4.86-2.47-7.32-1.22-4.71-2.16-4.8-4.24-5.02-3.42-3.79-2.08-3.84-1.72-3.61.65-2.6,1.27-1.2,2.17-4.35.34-3.21.74-1.64,3.76-1.32,2.09.03,2.45.26,1.86-1.33.12-1.13,2.7-.29.37-1.68-2.79-.67-.72-2.17,1.23-1.3,1.31-.67.89-1.24.77-3.69.84-1.79,1.09-.65,2.77.29,2.57.91,3.62.63,3.67,1.4,3.52.37,1.45,1.93,2.24-.78-1.05-.87-.68-.83,1.93-.18,3.38-.66,5.18,1.56,3.85.91.16-1.51,5.88.87,3.95,2.32,4.15.44,4.38,1.86.45,2.97-1.03,2.56-1.67,1.35-2.17,1.3-1.54,1.36-1.69,1.6-.4,1.36-.95,2.95v2.29s-.37,6.06-.37,6.06l.68,6.84,4.08,7.14,1.46-.61-.33,3.14-1.03,2.56-2.29,4.84-3.31,6.14-2.2,2.82-2.4,2.29-.83.68-2.36.07.24-2.26-1.89-.2-1.21-1.21-.9-.54-2.21-.17-1.15-.57-2.3.14s-.99,2.18-1.37,2.14c-.38-.04-7.17-.75-7.17-.75l-3.36-.73-1.07,2.94,1.02,1.82,1.74,4.57-2.08,1.69-2.87-1.13-4.96-2.37Z"/>
              </g>
              <polygon class="cls-1" points="1264.13 1012.33 1264.58 1015.3 1263.55 1017.86 1261.88 1019.21 1259.71 1020.51 1258.17 1021.87 1256.48 1023.47 1256.08 1024.83 1255.13 1027.78 1255.15 1030.07 1254.76 1036.13 1255.44 1042.97 1259.52 1050.11 1260.99 1049.5 1260.66 1052.64 1259.62 1055.2 1257.34 1060.05 1254.02 1066.18 1251.82 1069 1249.42 1071.29 1248.58 1071.97 1249.03 1073.8 1252.04 1074.11 1255.99 1076.44 1262.2 1073.02 1264.57 1074.67 1266.05 1075.08 1269.2 1074.14 1270.94 1074.57 1270.73 1076.59 1275.98 1077.39 1282.16 1071.81 1282.48 1068.79 1285.51 1066.57 1288.65 1064.52 1289.03 1061.57 1290.1 1061.01 1293.05 1058.27 1295.04 1053.91 1296.58 1053.11 1298.37 1051.2 1301.07 1047.29 1302.33 1045.61 1302.52 1043.82 1301.59 1041.82 1301.57 1039.53 1300.35 1036.6 1298.62 1036.17 1298.96 1037.73 1297.83 1040.02 1295.93 1041.22 1296.31 1039.99 1297.11 1038.42 1296.93 1036.5 1296.22 1034.77 1294.49 1031.92 1292.12 1030.27 1290.68 1029.48 1289.49 1027.45 1288.12 1027.18 1284.38 1022.85 1281.82 1020.67 1279.54 1019.92 1275.32 1018.33 1272.54 1017.02 1268.26 1014.16 1266.39 1012.56 1264.13 1012.33"/>
            </g>
            <g>
              <path class="cls-1" d="m941.21,1399.44l4.09-.21,2.01.21,3.46-2.69,1.28-1.26.26-2.51-1.05-2.14.89-2.45,3.88-.61.63.07,2.87,4.12,1.72,2.98,2.14.22.47,1.58-1.73,1.98,1.27,2.42-.33,3.14,1.31,4.46.82,1.87-.91,2.57,4.7,6.09,3.69,2.42-1.46,3.02-3.3,3.59,2.01,2.63-.4,2.63-2.49.75-1.69.33.11,1.41,1.15,1.14.04,2.04-1.57,1.62-.22.87,2.27,1.38,1.87,1.59-.97,1.93-.55,1.59.14,2.3,1.93.97,1.38.15,1.28,2.3.23,3.84.32,2.96-.3,2.89.74,2.62,1.36,3.96.42,2.08.47,1.58-.44,4.15.49,5.01-.22,2.14,1.38,1.42,1.92,1.09,1.89.2,2.64.28,2.53-1.13.92-.28,3.49,4.31-5.17,11.66-2.86,6.69-12.41,4.42-2.33.39-.65,1.33-2.64-.28-3.76,4.31-.64,2.48,2.54,2.43.11,2.55-3.42,2.31-.47,5.67.07,1.79,1.65,4.88-.83,5.51-2.59,1.63-.5,3.51,1.24,3.94.87,2.63,1.93.97-.43,2.88-4.27.7-2.46,1.65-1.76-.18-1.26-.13-.08,3.17-2.32,1.54-.44,1.73-2.49,4.32-1.34,4.31-.38,1.23-2.94,1.34-.18,2.91-2.51-.26-.89,2.45-3.16,3.48-1.28,4.95-1.31,5.2-4.1,2.75-.19,3.03v2.54s1.04,5.7,1.04,5.7l-1.44,5.19,2.23,1.76-1.12,2.17-1.42,1.38-2.06,1.44-1.07-.75-2.26,3.32-2,2.08-.65,6.16-1.13,2.3-1.83,1.71-1.48.73-.17,1.63-1.08,3.06.49,2.59.99,5.06,2.27,1.38,1.7,1.96-.48.97-1.63-.17-.37,1.11-.16,2.78,1.13,3.81,1.73,1.71-.81,6.53-.22.87,2.39.25-2.2,3.96.74,2.62-.36,2.25,1.13.12.52-1.34,1.45-.48,1.3,2.17-.13,2.4-2.19,5.11-.55,4.01.4,2.2-.62,3.49-2.6,1.76-.68,2.85-3.45,2.56-2.53,2.28-.16,1.51,1.09,1.77-1.5,3.4-.39,2.5-1.04,1.42-1.83.44-1.48.73-.12,1.13,2.07,2.12.47,8.82-2.24,8.03-2.34.52-2.51,2.15-.22,2.14-3.14-.33-3.51,1.92-.45,4.28-1.51-.16-.26,2.51-.25,2.39-1.48.73,1.69,2.08-.54,2.74-1.79,1.34-.22,2.14,2.28,2.53-.13,1.26-2.67,1.24-.22,2.14,2.05,1.1-.53,2.61.86,3.9.27,1.05-.51,8.46,1.94,2.11-.06,1.77-1.72,1.85-.61.95-2.64-.28-5.37,2.74-.69,6.54-.24,2.26-1.59,3.01-.29,2.77-4.02-.42-.65,6.16,1.91,1.22-1.14,4.84-3.14-.33-.37,3.52,2.38,1.52-.02,1.4-2.73.6-.34,3.27-.12,1.13-2.07,1.56.5,4.88.13,4.84-2.49,8,1.44,2.06-.35,2.12,1.07,1.89-.09,3.3-.03,2.67,1.28,2.3-3.1,1.71-3.4-.36-1.53,2.51,1.37,2.69-1.91,2.47-.2,1.89-1.28,2.53-.26,2.51.24,4.98,1.82,3.24,4.8,1.52-.78,2.59-2.81,1.36-.2,4.3,2.46.77,1.85,1.72-1.83,1.71-1.41,2.52,1.64,2.59-2.75,3.14-.83,6.65,5.47,1.21,4.88,1.91,1.37,2.69-1.75,2.1-.99,2.18-1.35.75-8.74-1.55-3.66-.26-.5,1.09,1.69,2.08,2.06.98,2.26.24,3.02.32-.54,2.74,1.36,2.81,1.24,1.53-.68,2.85-5.81,2.06-1.37,6.98.31,3.08,1.57,3.22-5.65,2.97,2.07,2.12-.52,4.9.63,2.48.29,4.48-3.39,2.06-2.2,8.8-2.12,4.48-2.9,3.38-1.85.7-.16,1.51-.29,2.77-3.43,3.58-.46,4.4,2.51,3.95-.95,2.95.72,2.87-.36.98-4.81,1.02-1.03,9.81-3.28,2.2-3.07.19-3.97,3.91-1.28,3.68.91.99-1.1.77-3.9-.41-3.34,6.39.59,2.86,1.28,2.3-1.93,2.59.15,4.59-.48,2.11,1.54,2.32.73,5.16,1.97,5.42-.39,4.92,2.17,1.12,2.2-1.55,1.56-1.49,2.16-.03,1.29,1.03.87-2.2,3.17.08,2.18,2.26-1.18,3.94.05,5.6-2.24.78-1.14,3.57-.38,3.65,1.51.16-.09,2.02,1.63.17-.66,3.87-3.01.83,2.2,2.01-.44,3,3.77.4.39,2.33,2.05,1.1-.11,2.28-.82,2.96,31.44,3.3,9.2,4.4,4.9,1.79,3.88,1.81,5.02,3.07,2.39.25,2.01,2.63-7.02-2.14-5.47-3.63-5.54.69-1.58,4.16-2.83,2.75-1.51-.16-.87-1.36-7.48,3.41-1.89-.2-3.12,1.83-.47-1.58-4.56,1.05.11,2.55-2.4,1.02.48,2.72.29,3.34-1.1,4.46-2.06,3.85-.1,4.57-1.97,6.66-2.22,4.22-2.51-.26-4.88-3.18-4.58-2.39-.43-1.95-2.65-.15-4.41-5.17-1.36-3.96,1.08-3.06,3.98-.34.53,2.22-1.41,2.52,3.31-.03.65-5.02s2.3-.14,2.39.25-.03,6.35-.03,6.35l-5.21,2.38-.09.88,4.1-.33,3.2-2.59-.19-6.63,2.08-.42,4.37-1.7,5.72-6.01.24-1.12-3.39-1.63-.85-5.17-1.17,5.09-9.97,5.31-.6,2.1-1.59.6-2.3-3.55-.55,1.6-3.21-2.12.07,1.79,2.07.85.97,1.63-1.99.81-2.81-1.06,1.17,2.16-2.19,2.69-1.52-.03,2.85,4.37-1.91.05-11.06-9.68.05-1.65,4.54.35,3.25,1.74.81-2.84-2.48-.64.25-2.39-.19-3.07-1-1.38,3.01-.83,3.04-2.35-.12,3.55,1.49-.86.52,1.07,2.23,1.76.15-2.65,2.38-.89,2.81-2.5,1.66-.08,3.63,1.78,3.34.86.91-1.43-3.21-2.12-3.55-1.26-2.21-.74-2.35-.63-1.4-1.16-.37,3.52-5.15.6,4.31-3.49-3.29,1.05-.32-1.81-1.5.99-1.71-.69-2.57,3.92,2.77-.98-.07,1.9-4.73,2.68-.66,1.46.65,1.09.05,3.18-2.57,1.51-.96-1.75-.62,1.08-3.59-2.16,3.8-2.27-4.41-4.02,3.67,1.4.36-2.25,1.21-1.82,2.27-3.41,2.1-.67-3.52-2.79-.11,3.42-1.67,2.62-1.54-3.47-.37,3.52-2.04.04-2.28,2.3.29-2.77.2-1.89,3.61-2.93-3.07-2.23,2.45-2.79-1.77-3.75h2.54s1.8,2.24,1.8,2.24l1.75.31,3.08-2.73,1.64-1.1-1.22,4.32,1.49-.86s.89,1.24,1.4,1.16,3.06-3.75,3.06-3.75l-1.03-1.12-1.59,3.01-1.07-.75,1.77-5.92s1.69-.33,1.86.45c.17.78.96,4.17.96,4.17l1.94,2.11-1.06,4.08-2.06.29-1.68,1.48-1.74.83-.11,1.01,1.59-.6,4.66,1.63-.81-1.99,1.42-1.38.67-5.14-1.99-6.44.37-1.11,1.1,1.64.65-1.33,4.07,1.19,1.12-2.17-3.65-.38-.18-1.93.5-3.51-2.1-3.02-2.59-.78-2.34-1.9-1.69-2.08-4.84.13,4.2,2.35-.97,1.93,2.17-1.3,2.46,2.04,2.1.6,1.95,3.26s.33,1.69-.06,1.77c-.39.09-2.65.99-2.65.99l-2.43-2.29-.75-.08-4.96-4.84-1.66.08-.95,2.95.34,7.66-.34,4.41-2.61-1.8-1.83-3.12-.68-4.39,3.48,5.58.86-.93-2.38-7.62-1.66.08-1.25,1.01-.9-3.53-2.28-1.26,1.39-1.13-.37-3.73,2.63,1.55,1.2,3.05,1.16-3.82-1.3-2.17-.44-1.83,1.46-.61-.27-3.46-1.3-2.17-.87,3.47-1.41.11-1.82-3.24-.98,2.06-1.46-3.08-.9-3.53.17-1.63,5.28.56,2.02,1.36-.23-2.69,1.38.15s.07-4.31.57-4.26c.5.05,2.51.26,2.51.26l.34,1.56,2.79-1.11-4.99-3.32.07-.63,3.51-1.92-.26-2.32-4.12,2.87-1.01,4.73-2.53,3.55-1.72-.56-2.52-8.66,1.69.81,2.96.82.36-.98-2.34-1.9,2.5-2.03-1.75-.31-2.24,1.93-2.34-.75,1.38-2.27,2.39-2.16,3.74,1.92,1.48-.73-3.67-2.55-1.89-.2-3.01-6.42,8.42,4.57-.23-2.69-2.21-.74-1.67-2.21-2.14-.22-1.05-3.29,4.59-.15.54-1.47-4.43-.21.13-2.4,2.73-1.75,1.63.17.61,1.46.87-1.05.86,1.49,2.76,3.98s.84.47,1.01.11c.17-.36-2.54-4.84-2.54-4.84l.28-1.5-3.87-1.93.63-3.62s2.2.87,2.54.01c.34-.85-.5-6.15-.5-6.15l-4.06,3.51-.48,6.94-2.67-4.86-.42-8.05,1.79-2.48-1.31-2.04.21-2.01,5.36-.2.36-.98-4.08-1.06-.09-1.54,2.56-1.38,3.71,1.03,1.03-3.71,2.12-.79-1.79-1.08-4.16-1.58-1.42-2.18-2.01-1.48-2.96-4.51,1.59-1.87,3.1,1.98.42,4.49.95-4.22,5.5,2.1.76,1.22,1.46-.61,2.26,1.51.24,2.57,3.42.11-2.44-3.43.6-2.1-1.97-.59,1.24-2.16,1.06,2.02,2.66,1.3,2.62-.74s.18-1.76-.44-1.83c-.63-.07-2.47.5-2.47.5l-1.26-1.28-.06-3.06-2.14-.22-1.4-2.44-.95,2.95-3.7.12-1.54-1.05-1.26-.13-.26-1.17-1.11-1.52,1.51.16.1-2.15-1.43-.91.03-1.52-1.87-.32.4-1.36-1.8-2.22,4.19-4.77.62,5.02,1.63-3.39,4.37-1.7.17-2.78-1.2-1.91-1.89-.2-1.89-6.17-4.2-1.2v2.29s-3.63.76-3.63.76l-.93-2.01-1.69.33-1.74-4,2.18-2.57-.69-.71-2.53,2.28-1.84.57-3.02-.32-2.77.98-.15,1.38,1.95-.43.37,1.31,4.48,2.12-6.71,3.36-2.07-4.54,1.36-5.7,1.55-.22,2.47-1.77,2.32-2.68,3.08-2.73.83-.68,1.93.97.38-1.23,2.39.25-.7-1.85,1.6-3.14-3.57,2.55-2.23.66-.5-2.47,2.65.15,1.04-1.42-4.08-1.06.95-2.95,3.78,1.54,1.75-2.1.87,1.36,2.03.09,1.19.76.64,2.36,1.22-1.91.28-1.5,5.29.43.24,2.57.75,2.49-.57,2.99-2.46,1.65-2.44.25-1.77-1.33-2.61-2.94-.51,1.22,3.08,3.37,1.3.9,4.94-1.01-.91,2.57,1.75.31.69-4.12.63.07,2.16,2.39-.54,2.74-1.44,1.63-.18,1.76-1.02.02-1.99,3.22-.32,3.02,2.35-1.79.36-2.25,1.61-1.99,2.1.6-.42-2.08.85-2.07,3.96-.22-1.15-1.14,3.55-5.98-.68-.83-4.86,6.35.95-7.78,3.8-4.69,4.5-1.69-2.55-2.3-3.14,3.23,1.59-6.7,3.57-3.69,1.34.52.17,2.05,1,1.38,4.37.71.94-1.68-3-.44-3.27-2.76-1.68-.94-1.85.7-2.03-1.23,3.47-2.81-.25-3.71s3.3.09,3.67.13c.38.04,7.83-4.39,7.83-4.39l.58-3.12,1.77-2.36,1.29-3.81-1.38-.15-.68,2.85-3.94-2.45s.32-1.87-.43-1.95c-.75-.08-3.71-2.17-3.71-2.17l2.28-2.3-2.81,1.36-.89.03,2.09-2.96,2.77-4.54,4.25-1.71-4.08.08.07-1.9,2.79-2.38-1.32-.77-1.29-3.44,1.25-3.43,1.65-1.22,1.24-4.57,1.45-.48.81,1.99.81-4.11-1.64-3.73,1.61-.85-1.61-1.57.58-3.12,4.96,2.43-2.16-3.66.03-1.52-2.15-2.51,1.24-.89,3.35-.41.2,2.94.47,1.57-.02,1.4,1.55-5.05.32-3.02.79-1.44-.72-1.6-2.8,1.23-4.04-2.71,2.57-3.92,5.49-.19,3.49-4.21-.58-.57-3.39,3.2-2.3.14-4.2-4.76-3.38.66-.34,2-.31,1.75-1.38,1h-4.83s-2.23.66-2.23.66l1.13,2.53-1.93.18,1.47,2.95-.53,2.61,2.14,1.37.04,2.04-5.43.83-.36.98-1.85.7-.41,3.9,1.89,2.61,1.67,1.07.81,3.14-1.85-.58-2.4-1.4-.28,1.5,1.61,1.57.93,2.01.68,1.98-3.77-.4-.49,2.24,1.34,2.94-3.32-1.11-.18,2.91-7.49-2.57-2.67-2.44.52-1.34,3.55-2.3.72-3.23,1.73-4.39.67-5.14-.54-2.09.56-2.87,1.87-3.24,1.46-3.02.16-2.78-.77-3.51,2.77.29,1.54,2.32,3.41-1.04.6.32,1.63-.97-2.04-1.1,1.79-2.48,2.07-1.56,2.76-.85-3.8-.14-2.53,2.28-.61-1.46-.66,1.46-1.65-.05.25-2.39.34-5.68-1.75-2.73.32-3.02.99-.91-.18-1.93,1.86-4.38,1-1.04.74-7.04,2.46-4.06-.29-3.34,3.65-2.03.23,1.42,1.62.3.44-1.73-1.17-2.16,2.42-2.42,2.95-6.3s-2.11-5.31-2.07-5.68c.04-.38.07-4.31.07-4.31l-2.01-8.73,1.22-10.42-2.49-7.76,2.45-3.94-.6-2.73.4-3.77.6-.83,2.73,1.81h3.56s2.34-1.67,2.34-1.67l-.73-2.75-.35-2.71,3.08-.31-2.27-1.38-.27-1.05,4.16-2.11.87-2.2,1.3-1.52,2.57-8.76,3.51-4.34-.5-4.88,2.77-2.12,1.75-3.38,4.47-3.85.55-4.01,3.08-5.14,1.08-5.48.85-.8-.47-3.99,3.22-5.26.49-2.24,3.25-.68.56-4.14-.99-2.65.99-2.18-.27-3.46,3.34-2.7.6-3.24,2.21-4.09.65-5.02-.97-4.04.34-5.68-.61-1.46,1.2-5.34-2.01-5.04.62-5.91.67-1.58-.89-2.38,1.24-9.4,1.08-1.79.79.97,1.36.4.22-2.14,2.33-.39.37-3.52,1.99-1.95.32-3.02.05-8.89-2.16-1.24.3-4.04-.66-2.23.13-1.26,1.07-.52,2.79-2.38.26-2.51,2.92-2.36.35-2.12-.94-.73,1.24-.89-.56-4.38,2.7-3.91.62-2.22,1.44-.36,1.44-1.63-.93-8.11,3.81-2.4v-3.69s2.16-4.73,2.16-4.73l.58-3.12,1.42-1.38-.95-1.88,1.57-5.3-.83-3.01.22-2.14,1.31-.37.28-1.5-.37-1.31,1.13.12,2.97-2.87v-2.54s-.46-5.14-.46-5.14l-.83-3.01.52-4.9,1.88-3.36,1.18-11.19,1.8-2.61-1.27-2.42-2.69.23.28-3.91,1.34-1.89.43-2.88,1.91-.05,1.16,1.01.9-1.3,1-5.87,1.32-2.91.32-4.29.91-3.85,1.53-4.92,2.44-5.08.73-2.08-.78-11.91,1.26-9.53.7-6.66.09-4.44-1.4-4.85-.03-6.99-.21-4.09.95-7.78Z"/>
              <polygon class="cls-1" points="833.77 1936.72 836.03 1936.95 841.85 1933.62 842.07 1931.49 840.05 1930.13 842.19 1930.35 844.52 1928.69 842.84 1926.61 841.2 1927.71 840.55 1925.35 837.28 1925.01 836.22 1926.68 839.46 1929.69 836.17 1928.32 835.83 1929.18 833.06 1928.89 832.65 1932.79 835.9 1933.38 833 1934.35 833.77 1936.72"/>
              <polygon class="cls-1" points="825.37 1912.57 827.28 1908.96 821.8 1910.29 825.37 1912.57"/>
              <path class="cls-1" d="m828.03,1913.87c.07.52,2.65,3.84,2.65,3.84l.69-1.71-3.34-2.13Z"/>
              <polygon class="cls-1" points="823.34 1921 826.21 1919.14 823.18 1917.68 823.34 1921"/>
              <polygon class="cls-1" points="820.87 1919.09 822.04 1922.52 821.19 1923.32 815.6 1925.65 813.82 1924.45 813.19 1920.82 814.21 1920.8 816.16 1922.79 819.37 1922.49 820.87 1919.09"/>
              <polygon class="cls-1" points="822.36 1930.31 822.26 1931.31 817.74 1931.98 817.85 1930.91 815.66 1928.77 819.88 1928.52 822.11 1927.86 825.02 1930.46 822.36 1930.31"/>
              <polygon class="cls-1" points="825.2 1928.7 826.18 1931.47 828.57 1931.72 830.03 1928.7 828.43 1927 825.2 1928.7"/>
              <polygon class="cls-1" points="815.43 1930.97 816.45 1932.73 815.25 1932.61 814.04 1930.83 815.43 1930.97"/>
              <polygon class="cls-1" points="804.28 1930.57 805.1 1933.7 803.08 1933.49 804.28 1930.57"/>
              <polygon class="cls-1" points="814.58 1944.43 815.71 1947.02 812.01 1944.15 814.58 1944.43"/>
              <polygon class="cls-1" points="814.54 1942.39 816.54 1943.99 816.34 1945.85 817.53 1943.59 816.19 1941.54 814.34 1941.35 814.54 1942.39"/>
              <polygon class="cls-1" points="818.65 1943.2 819.11 1945.47 824.52 1946.71 824.96 1945.52 823.17 1944.42 821.28 1944.22 819.85 1943.33 818.65 1943.2"/>
              <path class="cls-1" d="m825.93,1944.71c.36-.39.54-2.09.54-2.09l-.4-2.2-.57-2.47-2.99-.31-.41,1.16-3.76.05.52,2.34,3.33.99-.04,1.01,2.26.24,1.52,1.29Z"/>
              <path class="cls-1" d="m826.78,1932.99c.26-.04,2.29-.59,2.29-.59l-.17,1.63-1.55.22-.57-1.27Z"/>
              <polygon class="cls-1" points="816.38 1949.7 816.84 1953.24 815.93 1953.97 813.29 1953.7 812.51 1951.45 813.56 1948.7 816.38 1949.7"/>
              <polygon class="cls-1" points="812.27 1947.74 812.59 1950.7 811.33 1950.57 812.27 1947.74"/>
              <polygon class="cls-1" points="810.88 1951.22 810.51 1954.74 808.63 1954.54 808.27 1952.47 809.25 1951.05 810.51 1951.18 810.88 1951.22"/>
              <polygon class="cls-1" points="822.04 1952.11 822.09 1954.62 819.86 1955.34 818.96 1951.78 817.65 1949.77 820.25 1948.58 821.21 1947.28 824.17 1947.59 823.94 1949.79 821.91 1950.98 822.04 1952.11"/>
              <path class="cls-1" d="m827.8,1949.95c.17.21-.69,6.54-.69,6.54l-3.06-2.36.38-3.65,1.79-1.59,1.57,1.06Z"/>
              <polygon class="cls-1" points="821.26 1956.51 820.37 1960.16 818.68 1956.23 821.26 1956.51"/>
              <polygon class="cls-1" points="821.19 1960.25 823.6 1958.4 825.16 1959.01 824.69 1959.57 823.45 1959.91 821.25 1962.1 821.19 1960.25"/>
              <path class="cls-1" d="m824.96,1960.96s-.1,2.47-.26,2.45-1.58-.42-1.58-.42l-.2-1.01,2.03-1.03Z"/>
              <polygon class="cls-1" points="823.31 1967.78 824.51 1965.94 824.53 1965.05 821.77 1963.11 820.84 1963.52 820.68 1965.03 823.31 1967.78"/>
              <polygon class="cls-1" points="809.88 2006.73 808.37 2006.57 808.14 2005.72 805.79 2006.3 804.42 2007.24 803 2005.69 802.89 2003.07 803.83 2002.6 804.19 2000.41 806.15 1999.86 807.93 2001.7 807.53 2003.05 805.82 2003.61 805.86 2004.47 808.12 2004.71 809.88 2006.73"/>
              <polygon class="cls-1" points="810.46 2010.86 814.61 2011.3 815.55 2012.03 817.24 2011.07 817.35 2010 813.71 2009.61 810.14 2007.84 810.01 2009.16 806.46 2008.98 806.35 2010.11 809.39 2011.39 810.46 2010.86"/>
              <polygon class="cls-1" points="800.02 2010.4 801.08 2006.38 797.88 2009.6 800.02 2010.4"/>
              <path class="cls-1" d="m800.94,2012.53l-.15,1.45-1.98.43-2.63-1.93-1.43-.34s.38-1.23.14-1.32c-.24-.09-1.73-.44-1.73-.44l.13-1.26,2.1-.67,1.95,2.62,3.6,1.46Z"/>
              <polygon class="cls-1" points="804.27 2020.19 806.39 2018.76 803.9 2015.2 803.92 2019.9 804.27 2020.19"/>
              <path class="cls-1" d="m790.96,2011.36l-.03,3.94,2.7,6.32-.22,2.07.61.89-2.05,3.22s-1.1-2.85-1.36-2.75-2.42,3.11-2.42,3.11l-3.73,1.64-.41-1.57,3.26-1.95,1.07-1.73-.85-.34-1.58,1.17-1.57-.17.31-2.95,3.85-.36,1.18.82s1.12-.39,1.15-.7c.03-.31-.41-2.14-.41-2.14l-2.59.43-1.22.16.02-.79,2.54-.56.4-1.36-.64-1.21-1.22,1.91-1.57-.17,1.36-2.02-1.01-1.25.2-3.16,1.98-.05,1.31-1.58.96,1.12Z"/>
              <polygon class="cls-1" points="792.53 2012.73 792.34 2014.55 794.75 2020.02 795.88 2020.14 795.21 2022.29 798.45 2020.53 798.85 2016.76 797.71 2014.86 796.11 2014.38 795.44 2014.05 792.53 2012.73"/>
              <polygon class="cls-1" points="805.48 2021.34 809.01 2024.12 807.57 2019.65 805.48 2021.34"/>
              <path class="cls-1" d="m809.23,2021.98c.23.28,1.9,3.12,1.9,3.12l1.01-1.74-2.04-1.74-.86.35Z"/>
              <polygon class="cls-1" points="801.08 2015.47 800.37 2017.94 800.05 2021.02 800.33 2022.57 799.5 2023.88 798.72 2021.58 796.85 2022.46 795.98 2024.66 797.53 2026.54 799.51 2026.17 801.26 2028.9 803.58 2029.15 804.19 2025.78 802.47 2024.64 802.4 2023.43 801.21 2023.3 801.26 2022.2 801.93 2021.85 802.24 2019.53 801.08 2015.47"/>
              <polygon class="cls-1" points="793.31 2031.37 794.41 2026.91 791.58 2029.6 791.49 2030.54 793.31 2031.37"/>
              <polygon class="cls-1" points="795.39 2030.26 797.64 2028.2 796.04 2027.08 795.39 2030.26"/>
              <path class="cls-1" d="m803,2030.42l-.03,3.3-.28,2.7.09,2.81.6,2.16-1.25,8.89-1.19-.13-.12,1.13.66,1.02-.23,1.63,1.27,1.79-.13,1.19-2.39-.82.89,1.56,1.47,2.63-2.07-.22.33,3.53-1.76.39-1.16.77-3.45-1.06-.38-1.82.5-2.3,2.79.1.08-1.33-1.92.12.02-.76,2.27-1.67-.93-.86-1.13.52-.92,1.49-.09-1.54-.79.24-.65,1.97-.96.66-.18,1.7-.36-1.44-1.41-.53-1.72-3.55-.33.16,1.05,3.29-.41.91-.69-1.28-.71.75-1.56-1.18.36-3.46-.9.35-2.32,2.74-.34-2.83-.53-1.58,1.71-1.16h2.93s.22.97.22.97l1.44.21.1-.94,1.45-1.06v-1.08s-1.62.15-1.62.15l-1.61-.74-1.5-1.17,1.16-5.03.97.1.87,3.49,1.26.13-.89-3.05.04-.95.8.21,1,1.95.82.66-.23-1.49,1.62.3.15-1.45,2.14,2,1.42-.17.85-3.22.1-2.72-.06-1.21.43-.46-.09-1.6-1.11-.31.08-1.33.15-.81-2.83-.3s.21-.74.39-.72c.19.02,1.98.53,1.98.53l1.21-1.84,1.39-.49.39-1.29,1.82,1.46-.35,2.76.55.25-.09-.96,1.9-1.77Z"/>
              <path class="cls-1" d="m795.92,2037.94l-.53,5.03-1.68-.94-.7-1.85-.63-.07-.71.69-1.18-.89-.9.73-1.23-.96h-2.48s-.18,1.69-.18,1.69l-1.38.43-1.05-.94.27-2.58,3.33-.79,1.11-1.22s-.59-.76-.98-.61c-.4.15-1.24.89-1.24.89l-.72-1.66-1.55-1.56,1.97-1.83,1.63.17.81,1.99,1.57-.41.43-2.24,2.59,1.93-.19,1.76-1.58.53-.19,1.82,1.54-.12,1.18.86,2.65.15Z"/>
              <polygon class="cls-1" points="803.03 2053.75 804.95 2052.43 805.1 2050.98 803.56 2048.72 803.03 2053.75"/>
              <path class="cls-1" d="m800.9,2074.06l1.02-1.23,2.3-1.92-1.17-3.05-1.93-3.06-2.66.48,2.03.66-1.11,1.47-1.57-.8-1.73,1.34,1.18,2.03-.37.53-1.11.26-2.48-.64.22-2.07-.5-.12-.29-2.06-2.25.21-1.32-.77.13-1.26-1.43-.34-.42.4-2.06-2.82-1.28-.52.87,2.63.03.96,3.98,2.67.57.06-1.28,1.93s-.32.6-.51.65c-.2.04-2.69-1.05-2.69-1.05l1.34-1.86-1.45-.15-1.99,1.98,2.95,2.15-.75,3.48,1.7.18,1.37-2.72,1.79-.7,3.06.51,3,.51-.04.95-2.14.98.29,2.64,4.39-3.03.81-.49,1.49.98Z"/>
              <path class="cls-1" d="m786.54,2078.21c.28-.23,2.13-2.7,2.13-2.7l-4.27.06-.85-1.61-.73,2.15,1.14,1.84-1.39.55-.7.63-.63-.07-.15,1.38,1.45.15-.94,1.11,1.66,2.34,1.44-.42.13-1.26-1.01-.68,1.05-.33.61-.95-.81-.47-.06-2.74.99.23.08,1.03.85-.23Z"/>
              <path class="cls-1" d="m797.95,2075.46l2.7.92s.33,2.32.3,2.57c-.03.25.86,3.33.86,3.33l1.39,2.5-.2,1.95-.44-.05s.07-1.9-.12-1.92c-.19-.02-1.21.06-1.21.06l-.37,1.68-.94-.1-.78-4.02-1.89-.14.19-1.79,1.49-.83.31-1.11.82.09-.2-1.1-3.29-.15.13-1.26,1.27-.63Z"/>
              <path class="cls-1" d="m793.93,2081.72s-.42,2.18-.25,2.39,1.34,1.79,1.34,1.79l-.6,1.46-1.57-.17-1.94-.9-.16-1.48-.39-2.33-.85-.41-.34,3.21-1.29-2.23.14-1.32,1.18-1.53,4.74,1.51Z"/>
              <polygon class="cls-1" points="815.33 2122.99 815.27 2110.91 815.99 2110.41 816.5 2111.87 819.2 2112.79 820.99 2115.71 820.83 2117.25 817.54 2118.9 816.78 2123.15 815.33 2122.99"/>
              <polygon class="cls-1" points="818.14 2122.85 821.2 2118.53 819.91 2118.39 818.05 2119.53 817.68 2123.05 818.14 2122.85"/>
              <polygon class="cls-1" points="795.88 2083.64 795.36 2088.6 793.07 2088.68 790.76 2087.61 789.54 2089.01 791.41 2090.54 792.58 2092.7 794.98 2092.25 795.84 2094.31 796.14 2095.68 797.92 2096.31 798.11 2094.55 797.15 2092.73 798.41 2091.66 799.22 2087.29 796.95 2083.75 795.88 2083.64"/>
              <polygon class="cls-1" points="788.93 2094.79 791.11 2093.37 789.82 2092.34 787.91 2092.97 787.77 2094.29 788.93 2094.79"/>
              <polygon class="cls-1" points="795.12 2096.4 794.36 2098.16 794.3 2101.4 793.26 2098.75 792.71 2098.69 792.15 2099.84 792.97 2101.57 790.5 2101.63 787.58 2102.79 787.49 2101.19 789.47 2099.94 788.46 2099.29 788.99 2098.11 791.43 2097.6 791.23 2096.5 794.59 2095.96 795.12 2096.4"/>
              <path class="cls-1" d="m786.08,2100.09l-.2,1.89-.99.98-.32,3.02-3.01.26s.03-2.09.24-2.26c.21-.17,2.06-1.56,2.06-1.56l.22-2.07.94-2.19.3-.41.95.67.63.07.75,1.35-.05.5-1.5-.22Z"/>
              <path class="cls-1" d="m801.66,2099.44s0,3.05-.32,3.02c-.31-.03-2.07-.22-2.07-.22l.63-2.98,1.76.19Z"/>
              <path class="cls-1" d="m803.01,2098.05l.22,4.6s1.42-.17,1.56-.34c.15-.18.9-3.08.9-3.08,0,0-.69-1.28-.88-1.3-.19-.02-1.79.13-1.79.13Z"/>
              <polygon class="cls-1" points="806.76 2099.34 806.46 2102.17 808.54 2101.69 808.27 2099.5 806.76 2099.34"/>
              <polygon class="cls-1" points="784.42 2114.66 786.68 2111.91 787.07 2108.26 786.09 2108.16 784.87 2110.39 784.42 2114.66"/>
              <path class="cls-1" d="m790.17,2109.61l.08,2.87-3,6.8-1.4.62s-.5-2.53-.7-2.71c-.2-.18,1.2-2,1.2-2l.64-1.84.72,1.38.91-2.35-.55-1.14,1.4-2.14.71.52Z"/>
              <polygon class="cls-1" points="790.9 2113.56 789.52 2115.77 788.95 2116.92 788.75 2118.87 787.67 2120.09 787.56 2121.16 789.43 2120.27 789.59 2118.7 791.74 2117.62 791.97 2115.45 792.15 2113.69 790.9 2113.56"/>
              <polygon class="cls-1" points="790.77 2118.95 792.31 2118.29 793.63 2116.58 794.19 2117.88 793.16 2119.2 791.06 2119.74 790.77 2118.95"/>
              <path class="cls-1" d="m794.98,2110.37s.05,1.91.16,2.08c.11.17,6.67,6.71,6.67,6.71l-.09.88,5.41,5.97-.4-3.41-3.13-3.48-.85-1.58-7.35-7.45-.41.27Z"/>
              <path class="cls-1" d="m799.46,2111.09l2.13.54.35.46.88,1.17,1.38.15s.95-.54.09-.9-1.86-1.67-1.86-1.67l1.23-.82-.41-.93-.57-.06-.07-2.42-.75-.08-.22,1.5s-.9-.22-.77.24c.13.46.27,1.49.27,1.49l-1.56.09-.13,1.26Z"/>
              <polygon class="cls-1" points="805.11 2110.73 805.71 2113.56 807.36 2112.94 805.11 2110.73"/>
              <polygon class="cls-1" points="807.38 2115.83 807.43 2119.53 805.45 2119.32 804.24 2116.74 803.13 2115.74 803.27 2114.35 805.16 2114.55 805.83 2115.67 807.38 2115.83"/>
              <path class="cls-1" d="m799.52,2121.14l3.37,4.68,1.85.19.36,2.96.5.69-.46.78-.85-.09s.09-2.34-.09-2.49c-.18-.15-5.41-6.61-5.41-6.61l.73-.11Z"/>
              <path class="cls-1" d="m798.65,2122.64l3.93,6.2-3.08-.32-2.13-2.13,2.1-.03-.04-.86-1.71-2.5-1.57-.17s-.07-.58-.17-.78c-.11-.2,2.3.24,2.3.24l.37.36Z"/>
              <path class="cls-1" d="m791.26,2124.63s-.24,4.08-.66,3.9-3.33-4.61-3.33-4.61l3.99.71Z"/>
              <path class="cls-1" d="m783.46,2123.81c.27.44,2.45,3.59,2.45,3.59l-1.92.44s-2.17-1.76-2.15-1.95c.02-.19.57-2.48.57-2.48l1.05.4Z"/>
              <path class="cls-1" d="m807.02,2134.33c-.19-.02-2.63.23-2.63.23l-.11,1.07,1.19,1.08-3.35,2.57-.87-.79,1.96-1.13.1-.94-1.89.44.82-1.06-2.32.14.08-.75,2.55-2.4.34-.92,1.51.16,1.75-.32,1.36,1.6-.49,1.03Z"/>
              <path class="cls-1" d="m802.61,2149.12s-.22,2.71-.25,2.39.58-3.12-1.51-2.57c-2.09.54-2.82.86-2.82.86l-2.03-1.81-1.36,2.02-1.02.02-.27-2.89-1.54-1.11-.4-1.06-1.23-.96-.46-1.64.69.07-.1-.9-.5-.05-2.09-2.32.63-.76,1.49.16,3.5,4.44-.09,1.45,1.85.49.23,1.51,2.68-.1,3.76,1.09,1.3.96-.46.71Z"/>
              <polygon class="cls-1" points="803.56 2149.15 803.61 2151.66 804.97 2153.24 804.72 2155.63 807.22 2156.59 808.67 2156.75 812.69 2159.65 812.18 2162.07 808.7 2161.26 808.47 2162.26 810.08 2164.46 809.79 2166.02 808.6 2165.89 807.52 2164.7 805.13 2164.45 805.05 2168.76 809.7 2169.95 809.17 2172.56 810.15 2174.07 808.38 2175.21 808.29 2176.09 810.82 2177.44 811.1 2178.36 812.04 2178.46 812.01 2173.37 815.5 2173.42 817.04 2172.06 817.69 2173.71 819.43 2174.15 818.36 2175.18 816.48 2175.56 816.47 2176.83 817.68 2178.03 817.2 2179 815.15 2179.17 814.55 2179.99 811.28 2179.65 807.74 2177.05 806.5 2177.37 805.27 2179.4 806.32 2181.48 811.33 2183.41 814.73 2182.56 817.93 2182.96 819.37 2183.17 819.54 2181.54 821.06 2181 821.36 2178.17 822.67 2178.37 822.95 2180.5 823.18 2181.98 824.15 2182.4 823.77 2183.57 822.12 2184.16 821.71 2185.07 823.81 2185.61 825.04 2185.42 826.01 2183.49 824.94 2182.17 824.25 2181.46 823.89 2180.02 824.53 2178.82 823.74 2177.85 823.46 2176.29 824.47 2176.4 824.46 2175.25 824.35 2173.9 824.94 2173.65 826.83 2175.63 827.76 2175.85 828.41 2173.31 827.71 2171.52 826.87 2170.48 824.59 2170.37 824.36 2167.1 821.86 2164.87 820.8 2164.7 820.88 2168.14 819.31 2167.97 819.61 2164.51 818.48 2164.39 816.36 2168.23 816.47 2164.81 817.75 2163.49 817.92 2162.49 816.28 2162.38 816.01 2160.95 811.99 2157.22 811.16 2155.99 809.44 2155.49 809.38 2153.64 808.62 2151.78 807.38 2154.51 806.57 2154.3 806.67 2151.58 805.75 2150.08 805.71 2150.46 803.56 2149.15"/>
              <path class="cls-1" d="m857.28,2170.25c-.05.5-.17,5.89-.17,5.89l1.77,6.73s-.94,1.05-1.13,1.09c-.2.04-2.23-1.12-2.23-1.12l-2.11-2.89.59-3.21-1.93-1.63.77-1.25,4.45-3.6Z"/>
              <path class="cls-1" d="m855.41,2184.35c.19.02,3.8.78,3.8.78l-1.14,1.79-2.01-.21-.64-2.36Z"/>
              <path class="cls-1" d="m826.2,2177.47l.4,1,.19,3.64,1.29,2.81,3.83,2.25,2.83.3,1.85.51,1.53.61s-.66,2.03-.23,2.2,2.14.22,2.14.22l-.12-1.86h2.29s.05,3.11.05,3.11c0,0,2.21.17,2.39.25s2.06-2.71,2.06-2.71l2.1-.03h1.43s-.25-1.7-.25-1.7l-1.4-1.69-.71-.07-.18.76-1.24-.42.46-1.62-1.13-.12-1.28,1.3-.99-.15.06-1.47-2.39-.82,1.18-.77.4-1.5-1.66-2.84-1.69-.67-2.01,2.76-.25,5.12-.52-.05-.14-2.29-1.75-1.96-.25-1.7s1.72-.01,1.87-.14c.16-.13-.21-2.98-.21-2.98l-2.12-.22-1.04-.97-1.23-.13-.69,1.17.49.29s-.13.75-.27.78-1.7,1.2-1.7,1.2l-1.17.26-.39-2.14-1.76-.23-.08.72Z"/>
              <path class="cls-1" d="m806.83,1971.01l.89,2.7.39,2.04,2.18,1.95,1.09-.97-1.8-1.94.91-.48,1.67,1.92.72-1.43,1.4-.6s-.59-1.08-.71-1.09c-.13-.01-1.33-.04-1.33-.04l-.23-1.71s-.93.12-.94-.1c0-.22-.21-3.42-.21-3.42l-.75-.43s-.15,2.91-.13,3.01.36,1.44.36,1.44l-1.39.57-1.45-2.81-.62,1.05-.04.35Z"/>
              <path class="cls-1" d="m805.79,1971.82c0,.09,1.35,3.16,1.35,3.16l.09,2.2-.7.34-.74-1.38.06-1.5-1.25-2.94,1.19.13Z"/>
              <path class="cls-1" d="m889.89,2144.5l2.51,3.35-5.94,63.74-1.79-.19-1.04-.11-.97,2-2.9-2.31-.87,1.91-8.31-3.45-1.95-1.44.27-2.55-1.39,2.33-1.01-3.06-1.14,2.65-1.59.6-.54-3.01-1.32,2.63-5.07.13.77-2.78-1.21,1.49-5.78-.32-1.91.94-.69-.74,6.18-2.59.89-2.1-.84-.18-3.51,2.59-2.52.4.68-1.93-3.45,1.07,1.61-3.55-3.39,1.45-1.55-.64,1.2-1.4-1.98-2.02-1.7,1.63-1.63.97-.62-1.4-6.84-.24-2.55-2.94,1.42-.8,2.14,1.37.77-2.78.88-.19,1.32,2.9,2.27,1.19-1.09-1.55-.19-2.69,2.82.39,2.22,2.43,2.56,1.03-.6-1.59,2.27.14.62-.41.85.09,1.2-3.21,1.87-.57.91,1.33,2.35.34-2.99,5.79,1.82.86.53-3.19,1.46-1.18,5.07,3.49s1.06-1.03.7-1.26c-.36-.23-3.52-1.9-3.52-1.9l-2.1-3.65-2.42-1.49,1.04-1.73-2.85-3.73.47-4.5.36-2.54,1.65-.3,1.6,1.12.24,3.17.41,4.24.88,2.83.88-1.4,2.13.61-.61,2.13.47,2.81,3.2,2.24-.76-2.75,2.81-2.28,1.64,4.37,1.32-2.63,2.82,1.25s1.69,3.9,1.97,3.93c.28.03.75-2.59.75-2.59l4.29,3.6s-2.65,3.44-2.79,3.9-.36,2.54-.36,2.54l1.92-.08.33-3.11,1.98-.65.45-1.57,1.88.29,1.27-1.2-6.7-4.33-1.62-1.79-2.27-.14-6.77-5.43s.13-1.27.21-2.03c.08-.76-1.49-4.83-1.49-4.83l-.57-2.73,3.76-2.18,4.03-1.1,3.99-2.54,3.23-.8,1.24-.92.29-3.69-3.56-1.52-6.13.31-2.61,2.11-2.97,1.02-1.88-2.1-1.31-.52.25-2.36-1.77-1.62,2.89-2.37-.81-4.95,2,.02-.16,1.48,2.36.25,2.76-2.63-.68-.83-2.58.02-1.37-1.48-1.74-1.61.75-2.02,3.46.08.43-.43,2.3,1.67.75,1.03,2.19.04,1.61-.78,1.53-.98,1.18-1.21.49-1,.39-1.87.23-1.31,1.32-.72,1.57-.41.94.1.71,1.41.46,1.96.67,1.79,1.23.99,2.69-.19,1.85-.38,1.33-.81,1.29-1.42Z"/>
              <path class="cls-1" d="m843.98,2213.28l4.84.51s.26,1.17.45,1.19,1.82-1.59,1.82-1.59l1.46.6-.74,2.21.29,2.06,1.79-.7s2.49-1.9,2.44-2.1c-.04-.2-2.99-2.35-2.99-2.35,0,0,2.05-3.22,1.62-3.33-.43-.11-3.53.9-3.53.9l-5.15-1.24-2.44,2.67.13,1.16Z"/>
              <path class="cls-1" d="m862.36,2215.59l9.9-.42,4.95-.5s3.27.34,3.46.36c.19.02,7.19-.71,7.19-.71,0,0,2.17,2.33,2.14,2.64-.03.31-2.23,2.44-2.23,2.44l-3.87,1.12-3.05-3.63-3.27-.34,2.26,2.65,1.04,1-1.73,2.55s-2.55-2.3-2.59-1.93c-.04.38-.97,1.04-.97,1.04l-1.15-.88-.24,1.69-2.83-.3-.12.56,1.53.54,1.97,3.64-.34.79,1.88.9-.12,1.77-3.89-1.74-1.8-2.86-2.38-.95-.15-1.03-2.32-.88.04-1.01s2.37.44,2.51.26c.15-.18,1.93-2.02,1.7-2.24-.23-.22-5.2.5-5.2.5l-2.54-3.1-.66-.96.87-.99Z"/>
              <path class="cls-1" d="m883.13,2221.21c.62.19,6.85.72,6.85.72l2.28,2.46s-4.37.49-4.78.45c-.41-.04-3.3-2.16-3.3-2.16l-.17,1.03,1.03,1.38-.08.75,5,.53.73,2.75,3.27.34.28,2.13-1.29.75,1.5,1.43-.38,3.65-1.29.82s.12-3.55-.07-3.57-1.68-.3-1.68-.3l-.7-.58-.32-1.75-.22-2.12-.97.72-2.04-.53-.08-1.66-1.1-.43-.28,1.43-1.26-.13-.44-.68-.57-.06-.45,1.86-.83.04-1.93-1.6.13-1.26,1.6-.15.5-1.15-1.94-.27,2.99-4.83Z"/>
              <polygon class="cls-1" points="900.39 2231.8 899.4 2235.76 901.44 2234.51 901.39 2231.9 900.39 2231.8"/>
              <path class="cls-1" d="m896.55,2241.05l5.34,1.2s-1.14,1.79-1.46,1.82c-.32.03-3.87-.66-3.87-.66v-2.35Z"/>
              <path class="cls-1" d="m903.64,2242.56l3,2.86s1.35-.75,1.17-.83-1.89-1.79-1.99-1.8c-.1-.01-2.18-.23-2.18-.23Z"/>
              <path class="cls-1" d="m902.05,2237.18s-.16,2.14.13,2.43c.29.28,4.57,2.51,4.57,2.51l-.21-2.25-1.64-.74.68-4.06-1.11-.37.1,3.32-.94-.1-.87-.79-.7.05Z"/>
              <path class="cls-1" d="m892,2214.26l-1.7-.18s.65,1.09.7,1.47c.05.39,2.04,1.42,2.04,1.42l.9,5.37,1.18,1.49,1.92-.08s-.12-1.86.19-1.82c.31.03,2.55.52,2.55.52l1.25,2.01-2.7-.28,2.53,1.95,3.02.32-.85-2.82.92-.86,2.13.86-.7,2.47,2.51,1.53,1.31-1.01-.37-1.34,2.62-.14s-.38,3.01.12,3.13c.5.12,3.56.57,3.65.38.08-.18.68-2.22.68-2.22l-2.56-1.67-2.04-.6v-.7s.97-1.3.94-1.56c-.04-.26-1.15-3.55-1.15-3.55l1.61,1,.23,1.42,2.97.76s.39-.72.04-1.01c-.35-.29-4.12-3.1-4.12-3.1,0,0-2.61-1.74-2.8-1.76s-5.44.32-5.63.3c-.19-.02-4.98-1.03-4.98-1.03l-4.68-.87-1.74.2Z"/>
            </g>
          </g>
          <g>
            <path class="cls-1" d="m813.6,2058.42s.84.47,1.01.11"/>
            <path class="cls-1" d="m892.62,2137.54l-5.02-3.07-3.88-1.81-4.9-1.79-9.2-4.4-31.44-3.3.82-2.96.11-2.28-2.05-1.1-.39-2.33-3.77-.4.44-3-2.2-2.01,3.01-.83.66-3.87-1.63-.17.09-2.02-1.51-.16.38-3.65,1.14-3.57,2.24-.78-.05-5.6,1.18-3.94-2.18-2.26-3.17-.08-.87,2.2-1.29-1.03-2.16.03-1.56,1.49-2.2,1.55-2.17-1.12.39-4.92-1.97-5.42-.73-5.16-1.54-2.32.48-2.11-.15-4.59,1.93-2.59-1.28-2.3-.59-2.86,3.34-6.39,3.9.41,1.1-.77-.91-.99,1.28-3.68,3.97-3.91,3.07-.19,3.28-2.2,1.03-9.81,4.81-1.02.36-.98-.72-2.87.95-2.95-2.51-3.95.46-4.4,3.43-3.58.29-2.77.16-1.51,1.85-.7,2.9-3.38,2.12-4.48,2.2-8.8,3.39-2.06-.29-4.48-.63-2.48.52-4.9-2.07-2.12,5.65-2.97-1.57-3.22-.31-3.08,1.37-6.98,5.81-2.06.68-2.85-1.24-1.53-1.36-2.81.54-2.74-3.02-.32-2.26-.24-2.06-.98-1.69-2.08.5-1.09,3.66.26,8.74,1.55,1.35-.75.99-2.18,1.75-2.1-1.37-2.69-4.88-1.91-5.47-1.21.83-6.65,2.75-3.14-1.64-2.59,1.41-2.52,1.83-1.71-1.85-1.72-2.46-.77.2-4.3,2.81-1.36.78-2.59-4.8-1.52-1.82-3.24-.24-4.98.26-2.51,1.28-2.53.2-1.89,1.91-2.47-1.37-2.69,1.53-2.51,3.4.36,3.1-1.71-1.28-2.3.03-2.67.09-3.3-1.07-1.89.35-2.12-1.44-2.06,2.49-8-.13-4.84-.5-4.88,2.07-1.56.12-1.13.34-3.27,2.73-.6.02-1.4-2.38-1.52.37-3.52,3.14.33,1.14-4.84-1.91-1.22.65-6.16,4.02.42.29-2.77,1.59-3.01.24-2.26.69-6.54,5.37-2.74,2.64.28.61-.95,1.72-1.85.06-1.77-1.94-2.11.51-8.46-.27-1.05-.86-3.9.53-2.61-2.05-1.1.22-2.14,2.67-1.24.13-1.26-2.28-2.53.22-2.14,1.79-1.34.54-2.74-1.69-2.08,1.48-.73.25-2.39.26-2.51,1.51.16.45-4.28,3.51-1.92,3.14.33.22-2.14,2.51-2.15,2.34-.52,2.24-8.03-.47-8.82-2.07-2.12.12-1.13,1.48-.73,1.83-.44,1.04-1.42.39-2.5,1.5-3.4-1.09-1.77.16-1.51,2.53-2.28,3.45-2.56.68-2.85,2.6-1.76.62-3.49-.4-2.2.55-4.01,2.19-5.11.13-2.4-1.3-2.17-1.45.48-.52,1.34-1.13-.12.36-2.25-.74-2.62,2.2-3.96-2.39-.25.22-.87.81-6.53-1.73-1.71-1.13-3.81.16-2.78.37-1.11,1.63.17.48-.97-1.7-1.96-2.27-1.38-.99-5.06-.49-2.59,1.08-3.06.17-1.63,1.48-.73,1.83-1.71,1.13-2.3.65-6.16,2-2.08,2.26-3.32,1.07.75,2.06-1.44,1.42-1.38,1.12-2.17-2.23-1.76,1.44-5.19-1.05-5.7v-2.54s.2-3.03.2-3.03l4.1-2.75,1.31-5.2,1.28-4.95,3.16-3.48.89-2.45,2.51.26.18-2.91,2.94-1.34.38-1.23,1.34-4.31,2.49-4.32.44-1.73,2.32-1.54.08-3.17,1.26.13,1.76.18,2.46-1.65,4.27-.7.43-2.88-1.93-.97-.87-2.63-1.24-3.94.5-3.51,2.59-1.63.83-5.51-1.65-4.88-.07-1.79.47-5.67,3.42-2.31-.11-2.55-2.54-2.43.64-2.48,3.76-4.31,2.64.28.65-1.33,2.33-.39,12.41-4.42,2.86-6.69,1.4-2.4,2.75-6.19.36-3.4-2.82-3.98,2.57-2.65-.59-2.86,3.41.23,1.11-.9,1.77-2.36,6.82-3.22,4.18-3.5,2.14.22.97,1.63,2.57.91,1.2,1.91,9.4,1.24,4.73,1.01h3.69s2.77,5.13,2.77,5.13l1.65,2.46-.41,3.9,1.25,3.82,2-4.49,6.47-10.76,3.42.11,1.09.5,2.82-.21,12.79,1.73,1.85,4.14,3.02,4.51,4.09,1-.46,4.34,2.8,2.39-.42,3.96,7.06,7.23,1.5,2.06,1.51.16,3.59,2.09,2.29,5.39,7.64,3.47,5.61,2.88,2.2-2.82,9.23,6.5,1.55,3.4,10.96,8.21,5.08,2.44,7.1,3.23,3.28,1.49-.38,3.58,3.12,3-2.07,3.41-2.88,1.99-.8,5.83-5.08,1.18-2.52,5.84-.29,4.55-8.21,7.34.02,3.43,16.27,3.04,7.25,3.62,4.7.68,1.16-1.98,4.28,1.02,1.59,3.03,3.02.32,1.26-2.92,4.47-2.58,3.18,2.43,3.4.36,1.59-4.22,14.13-7.48,3.99-5.3.63-6.04.87-8.3,8.33-1.22,1.84,2.48,3.02.32.98,6.97,2.26,3.86-2.84,5.23.59,7.12.65,2.93-3.9,2.64-7.62,3.58-6.23,1.25-7.24,5.34-1.19.45-7.59,5.11-4.31,1.07.04,3.25-1.1,1.41-4.2,1.85-3.33,2.7-2.05,3.22-2.99,1.21-12.51,13.75-5.33,1.73-.49,2.81-2.92,2.36-3.78,5.13-2.22,6.63-2.19,8.16-1.68,3.26s-2.15.54-2.23,1.29c-.08.75-.42,3.96-.42,3.96l-2.62,6.78.69,6.17-1.06,4.66-1.93.18-.29,11.79-3.61,1.72-3.7,8-.51,3,2.35,4.82.96,3.53-3.3-1.3.78,5.23-2.75-1.05,1.21,2.99-1.07,2.94,6.23,5.99,4.1,2.72,4.52,2.38,2.72,3.15,4.03,5.19.34,4.04-2.71,2.19-1.93,3.8-.57,3.56,1.9,5.54,2.71,1.43,3.8,1.93,2.22.62-1.01,13.24-5.75,5.69-2.74,4.29-1.52,1.75-1.89-.2-1.77,2.29-2.1,1.88.15,4.02-3.08,3.87-8.21,3.71-9.24,2.65-8.45,2.35-13.45,2.78-6.77-.9-6.21,1.06-8.94-.18-7.75-.62-6.2-.84-3.47-3.23-5.25-2.65,1.55,3.4-.08,4.38.21,3.45,2.37,4.64-.46,7.96-4.25.51-.13,6.66-2.14,2.25,2.6,7.9-.83,4.3-3.11,2.34-3.74,1.13-2.15.54-1.37-1.48-.6,2.03-4.89,1.2-5.74.16-4.7-.68-5.21-3.03-7.62-3.66-5.57-3.26-2.24-.43-2.14,2.25-1.85,3.05,1.01,4.87.43,6.78.02,5.28-2.13,3.97.72,4.08,3.07,1.66,5.31,2.08-.97,2-.24,2.26h5.53s2.3-.13,2.3-.13l.91-1.43-.35-2.13-3.34-.92,2.72-.48,3.78-1.51,2.21-1.1,3.5,4.75-.36,3.4-1.54-1.69-.65,2.6,1.66,4.18-2.11,3.78-1.77,2.29-6.05-2.35-1.29-2.23-.81-3.14-2.12-1.56-2.02-.78-3.1.44-1.75,2.1-3.07,1.97-.39,1.87,3.09,1.47,4.2,1.78,3.02.32-.07,2.47-12.27,4.24-1.02,4.28-3,3.12-2.09,3.59-.38,3.58,1.81,4.58-1.36,3.86-1.92,5.52-1.01,2.37-3.01,1.4-3.26,1.95,1.02,2.97,1.96,1.35-1.01,2.37-3.55,1.15-3.67-1.34-2.77-.86-2.97,1.02-2.99,1.21-1.18,2.16-3.45.21-3.38,1.36-3.09,2.15-2.41,2.99-3.23,3.47-1.87,3.24-2.88,5.61-.71,3.17.47,4.63,1.64,4.37,1.04,2.78,3.01,2.22,2.48,1.79,1.44,2.63s.56,1.97,1.04,2.78c.49.81,3.01,2.22,3.01,2.22l3.69,1.15,2.81.49,4.64,1.25,2.33,1.39.91,5.82-.38,3.58-2.47,3.55-6.92,2.32,4.49.85,2.38,2.73-2.61,1.25-.87,1.05.52,2.34-2.11.16-3.2,1.38-1.58,2.31s.09.96-.54,1.47c-.63.51-2.27,1.67-2.27,1.67l-3.29.42s-.9-.48-1.53.03c-.63.51-1.48,1.37-1.48,1.37,0,0-.63.51-.87,1.05-.25.55-.46.71-1.44.99-.98.28-1.55.22-2.51.31s-1.99.74-1.99.74l-.76,1.83-.39,1.87s-1.4.62-2.61,1.25c-1.21.64-1.15.07-2.02,1.12-.87,1.05-1.5,1.56-1.96,2.27s.1-.94-.46.71-1.05,2.75-1.05,2.75l-.58,1.85-2.88,1.99-1.22,2.54s3.18-1.19,3.31-.61c.13.59-.27,4.36-.27,4.36,0,0-.18,1.7-.47,2.62-.29.92-.78,2.02-.84,2.58-.06.57-.84,2.58-.84,2.58,0,0-.56,1.66-1.01,2.37s-1.1,1.41-1.56,2.12c-.46.71-2.12,2.07-2.12,2.07,0,0-2.32.33-3.06.06s-2.12-1.56-2.12-1.56l-1.5-2.06s-1.31-2.04-1.25-2.61-1.67-2.27-1.67-2.27l-1.79,2.48-3.64.19-.62,2.22s4.15.44,4.68.87c.53.44,2.84,2.01,2.84,2.01l.97,1.63s.26,1.17-.56,1.66c-.81.49-2.76.85-3.35.98-.59.13-3.31.61-3.31.61,0,0-1.04.84-1.5,1.56s-3.75,6.66-3.75,6.66l-2.56,2.59-.46,4.34-5.08,4.81-1.1,1.41,3.97-1.49,1.99-.74.65,2.93,1.07,4.31-.25,4.17.9,4.1-6.58-.88,6.32,3.33,1.07,5.26,2.87,6.21,2.33,5.01,1.53,3.59-1.25,1.01-3.71-2.81Z"/>
            <path class="cls-1" d="m892.4,2147.84l-5.94,63.74,7.83.82,6.21,2.56,4.9.52,5.5,2.1,5.84,2.52,3.8,1.93,4.07-2.43s2.64.28,3.62,0c.98-.28,3.42-1.74,3.42-1.74l4.15.44,2.63,2.18,3.47-.4,2.61-4.87,2.72-4.1-2.73-1.24-7.12.59-4.8-1.46-4.1-2.72-5.13-3.78-4.7-4.31-1.86-2.29-3.66-3.25s-2.33-1.39-2.65-1.99c-.32-.61-1.59-3.03-2.26-3.86-.68-.83-2.02-4.41-2.02-4.41l-3.12-3s-2.65-1.99-2.95-2.79c-.3-.79-.39-3.57-.5-4.3s-.93-3.86-.93-3.86l-3.91-2.7-1.85-.58-.67-2.74.55-3.38,2.33-2.23,2.24,4.05.84-2.58s-.14-2.3-.44-3.1c-.3-.79-3.11-4.9-3.11-4.9l-2.32-2.44Z"/>
          </g>
        </g>
        <polygon class="cls-1" points="1067.42 1483.26 1069.06 1479.75 1071.07 1475.13 1073.41 1469.78 1075.86 1464.57 1076.71 1461.36 1076.68 1455.63 1077.4 1453.55 1079.65 1451.5 1081.87 1448.55 1085.47 1440.92 1086.06 1438.95 1088.05 1438.14 1094.36 1438.55 1098.57 1438.48 1105.64 1437.7 1114.06 1437.44 1120.33 1437.08 1132.27 1438.34 1134.74 1440.25 1137.22 1443.31 1141.21 1445.25 1147.22 1448.55 1148.32 1452.61 1147 1456.67 1149.17 1460.2 1148.79 1463.85 1150.7 1468.63 1149.83 1472.09 1150.32 1474.69 1149.21 1475.59 1149.95 1478.21 1147.81 1480.4 1148.41 1483.13 1146.55 1491.2 1148.76 1491.94 1154.04 1492.5 1155.67 1493.94 1157.88 1494.68 1164.58 1495 1172.44 1495.19 1175.79 1497.2 1181.07 1497.75 1183.95 1499.45 1184.16 1502.27 1186.72 1505.72 1184.76 1511.11 1186.76 1515 1185.77 1522.02 1187.19 1525.47 1187.41 1529.44 1189.93 1530.85 1193.07 1531.18 1194.81 1530.34 1197.82 1529.52 1202.32 1529.1 1204.42 1530.84 1206.11 1532.93 1207.02 1536.33 1206.73 1539.1 1204.49 1544.71 1202.02 1552.46 1196.59 1562.44 1195.71 1570.74 1195.08 1576.77 1191.09 1582.08 1176.96 1589.55 1175.37 1593.77 1171.97 1593.41 1168.8 1590.98 1164.33 1593.57 1163.07 1596.48 1160.05 1596.17 1158.46 1593.14 1154.18 1592.12 1153.02 1594.09 1148.33 1593.41 1141.08 1589.79 1124.81 1586.74 1124.79 1583.31 1133 1575.97 1133.28 1571.42 1135.81 1565.59 1140.89 1564.4 1141.69 1558.58 1144.57 1556.59 1146.64 1553.19 1143.53 1550.19 1143.9 1546.6 1140.63 1545.12 1133.53 1541.89 1128.45 1539.45 1117.48 1531.24 1115.94 1527.84 1106.7 1521.34 1104.5 1524.16 1098.89 1521.28 1091.25 1517.81 1088.95 1512.42 1085.36 1510.32 1083.85 1510.16 1082.35 1508.1 1075.29 1500.87 1075.71 1496.91 1072.91 1494.52 1073.36 1490.18 1069.27 1489.18 1066.25 1484.67 1067.42 1483.26"/>
      </g>
      <path class="cls-1" d="m1134.29,1648.95l-2.22,6.63-2.19,8.16-1.68,3.26s-2.15.54-2.23,1.29c-.08.75-.42,3.96-.42,3.96l-2.62,6.78.69,6.17-1.06,4.66-1.93.18-.29,11.79-3.61,1.72-3.7,8-.51,3,2.35,4.82.96,3.53,3.94,3.66.95,1.24,1.12.88.05,1.91,1.09,2.34,2.97-1.02,2.65.21,2.77.29,2.84.17,2,2.12,1.4,1.8,3.25,2.38,2.87,1.13,4.47.98-.54.9s-.41.85-.37,1.11c.04.26.97,1.06,1.16,1.08s3.65.96,3.65.96l1.58-1.74,1.14-.58,2.8-.02,1.45.15,2.26.24,1.64.11,1.79.51,2.73,1.24,2.64.85s2.14.22,2.58.27c.44.05,3.21.34,3.21.34,0,0,1.22-.76,1.48-.8.26-.04,3.26-.8,3.26-.8l2.58-.94,1.85-.7,1-1.04.17-1.63,2.46.77,1.03-.72s-.06.57.38.61c.44.05,3.27.34,3.27.34,0,0,.73-2.15.57-2.42-.16-.27-1-.74-1-.74,0,0-.06-.64.02-.82s.42-1.55.42-1.55l1.15-2.04,1.28-1.07,1.26-1.08,2.39-3.94.2-1.89.36-3.4-.99-1.44-.75-1.92.3-2.83.2-1.89-.08-2.3.2-1.95,1.25.2.48-1.54,2.75-1.36,1.17-1.47.15-1.38,1.28-.06.73-.94.11-1.07-2.61-1.74-3.31-3.59-1.82-1.46.08-4.38-6.07-6.36-3.56-3.62-1.78-1.2.07-3.04-2.91-2.53-3.7-.45-1.92-1.73h-1.33s-2.11-2.9-2.11-2.9l-6.34-7.4-1.65,1.16-1.77,1.15-2.21,1.04-2.03-.02-.47-1,.2-1.95-.79-3.39-1.76-3.24-1.48-1.68-1.27-1.21.11-1.07-1.92-1.66-1.48-2.25-1.82-1.46-2.43-1.08-2.43.13-.06-1.28s-2.31.2-2.34.45c-.03.25-.5,1.15-.5,1.15l-2.41.51-1.24.89-2.13-.29-1.52-.1-1.39,1.13-.47.84Z"/>
    </g>
    <g>
      <path class="cls-1" d="m1042.29,2129.65l-1.44-.82-.22,2.07-2.07.64-2.21,1.96-.11,1.04,1.51,1.97-.12,1.13-3.96-.42-1.04-.11-.61,1.27-2.42,2.13-3.11-.33-1.98-.21-.12,1.13.76.94,1.2,1.27-1.26,1.11-1.65.3-.66-.07-.08.75-1.13-.12.08-.75-2.14-.51.55,1.11-1.23.82-.47-.05-1.72.06.11-1.08-.33-.46.13-1.23.4-.15-.23-1.41-.46.33-.64,1.08-.1.99-3.45-2.99-.9-.05.19-1.79.97.34.37.99,2.03.21.25-.59s1.61-.36,1.44-.56c-.17-.21-1.3-1.23-1.3-1.23h1.72s.8.5.8.5l4.05.47.24-.93-1.44-.39-.6.27-1.17-.17-.12-.68,1.83.24.56-.75.53-.09-.21-.69-3.46-.17-.12.66-1.14-.07-.37-.99v-2.24s1.44-2.38,1.44-2.38l2.52.03.57.49,1.22-.25,4.04.09,1.04.97,1.46.2.1-.47-1.99-1.93-.94-.58-.19-1.4h-.81s-1.23-.12-1.23-.12l-1.62-1.41,1.59-.17.21-1.07-.86-.9-2.31-.24-1.78-2.09,1.94-1.23,1.42.96.62,1.4,3.05,2.75,3.98.7v-.91s-.51-.58-.51-.58l-.13-1.06,1.42-.85,1.67.41,1.8,1.91,2.63.37,1.69-.2,1.22-1.16,1.41-.71,2.25,1.76s.64.31.82.33.5,1.63.5,1.63l-.87,1.96-1.29.05Z"/>
      <path class="cls-1" d="m1045.76,2126.59l-1.2,3.26-.4.63,1.85,2.82.13,1.44-.87.58-1.98-.21-2.24.43-1.91.94-1.18,1.73-.81.87-.52.9-.7.78-.75.78.11,1.68.18,1.02-1.6-.17-1.86.04.46,1.96-.29,1.83,1.01.82.35-2.44,1.14.07,1.54.73.08,2.87,1.46,1.97,1.13.12-.17-1.07-.1-2.2-.12-1.11-.67-.93,1.85-.85s.89,1.52,1.02,1.63c.13.11,3.3,2.59,3.3,2.59l2.68-.96,1-.9,2.07-.21,1.11-.12s-1.43-1.77-1.61-1.93c-.17-.16-2.07-1.12-2.07-1.12l.26-.69,2.13-.3s.62,1.78.96,1.77c.33-.01,2.51-2.55,2.51-2.55,0,0-3.33-.54-3.47-.51-.15.03-1.47-1.39-1.47-1.39l1.64-1.09,2.55.27,1.61.53.55-.66,1.47,1.39.7-.81,1.42-.83,3.95.51.4,1.19,1.08-1.17,3.72-.47s1.3-2.34,1.37-2.62c.08-.28.19-1.79.19-1.79l-5.18-2.4-1.73-.8.08-.75,2.96.45s2.31-.19,2.45-.22c.15-.03,1.22-1.59,1.22-1.59,0,0-1.94-2.44-2.08-2.46-.14-.01-5.35-.8-5.35-.8l-1.87,1.47s1.44,2.58,1.43,2.72c-.01.14-.52,1.8-.52,1.8l-2.8-.1s1.12-1.12.4-1.53c-.72-.41-1.84-2-1.84-2l-.08-.63,2.4-.61s.08-2.09.05-2.28c-.03-.19-1.4-2.05-1.4-2.05l-2.31-.24-.74,1.11-3.22-.67-2.2-2.19v1.24s1.29,1.47,1.29,1.47l-.12,1.18-1.41-.15-.62.94-1.77.05Z"/>
      <path class="cls-1" d="m1011.86,2138.25l1.52-.54s1.19-2.23,1.27-2.41c.08-.18,1.05-2.17,1.05-2.17,0,0-.69-1.29-.87-1.37-.18-.08-2.26-.24-2.26-.24l-1.99,1.95.1,2.68,1.18,2.09Z"/>
      <path class="cls-1" d="m1038.6,2123.9s.98-.85,1-1.01-2.24-1.67-2.24-1.67l-2.9-.56-.75.75,2.39.82,2.5,1.66Z"/>
      <path class="cls-1" d="m1042.47,2140.96l1.08.62.21,1.04,2.16,2.39s-.92.92-1.11.9c-.19-.02-2.1-1.68-2.1-1.68l-.89-1.36.65-1.9Z"/>
    </g>
  </g>
  <g>
    <g>
      <path class="cls-1" d="m506.38,80.72l.38,4.1-.21,2.42.96,1.63,2.56,1.11,2-.05,6.54,3.67,4.52,1.5,3.69-1.67,4.46,2.16,1.5.57,1.62,1.69,1.02.98,2.38.65,1.54.13-.19,2.2,2.64.23,1.62-.74,2.16.63.98,1.41,1.88,1.27,2.12,1.07,1.16,1.87,1.92.83,3.1.05,3.29-2.15,2.26-.47,1.8-.29-.15,1.76,1.22,1.21,1.7.81,2.64.23,2.4.43,4.6.62,2.32,1.31,6.52,1.46,1.96-.73,2.39-.89,2.88.03,3.02.93,3.05-1.95-.13,1.54-2.61,1.99-2.05.71-1.87,1.16-1.43,1.2-2.2-.19-.69-2.27-7.07-.18-11.54,2.76-11.04,7.23-8.37,7.02-5.88,3.91,1.79,2.37,5.55-.18,2.63-2.21,2.86.25,2.05-.71,1.43-1.2,1.54.13.65,2.71-1.07,2.12-.85,2.14-.55,1.28,2.51-.89,2.24-.25,6.54,1.24,3.31-2.37,1.85-.94,4.03-.53,2.69-.43,1.73-2.06,2.57-1.55,1.32.12,8.33-4.14,4.04-3.19,4.91-.46,2.4.43-2.01,2.7-3.35,2.81-2.09,1.15-2.64-.23-1.82.51.51,1.82.63,2.93.03,2.22,3.53-2.35,3.54.09,4.18,2.8,2.48,1.99.63,2.93,1.55,2.57,3.5.53,4.4.38,2.49-.67,3.08.27,3.01-1.51,1.87-1.16,2.9-.19,4.62.4,2.86.25,2.31-1.13,3.33-.15,3.3.29-2.14,4.24,1.7.81,2.12,1.07,1.92.83,2.86.25,1.46,1.01-.29,3.3-.17,1.98,2.36.87,1.66,1.25.93,2.07,2.73-.87,3.04.71-.25,2.86s-2.2-.19-3.86-1.44c-1.66-1.25-6.28-1.66-6.28-1.66l-5.71-.5-1.77,2.5-8.88-4.76-2.62-.45-2.15,1.8-1.8.29-3.08-.27-1.94-.61-1.82.51-1.25,1.66-1.57,2.74-1.82.51.05-3.1-3.02-.93-1.27,1.88-.54,1.06-1.2-1.43-.91-2.29-11.1,18.07-1.85.95-1.65,1.18-.83,1.92-1.29,2.1-.87,2.36,1.76.15,1.69-1.62,2.85-2.19,2.61-1.99,3.8-5.43,3.49-1.91-2.89,7.72-2.75,1.09-.63,2.16-1.15,3-.65,2.38-.13,1.54.1,1.34-.1,1.1-1.51,2.08-2.07.93-1.07,2.12-.71,3.04-.13,3.98-1.13,2.78-.65,2.38-.93,3.02-.05,3.1s-.35,1.52.41,2.91c.76,1.4.13,3.55.13,3.55l-.47,2.84-.59,4.16.03,2.22.07,4.21,1.23,3.65,1.44,1.23,1.31,2.77,1.79,2.37,4.65-.04,3.45-1.47,2.49-3.1,2.29-3.34,2.58-4.2,2.04-5.58-.07-4.21s1.08-4.78.2-4.85c-.88-.08-1-6.29-1-6.29l-1.94-5.71,2.3-3.56-1.1-5.19,2.62-4.64,2.09-8.68,5.24-4.19,2.22-.03,2.62-4.64,1.4-.76-.57,3.94-.91,2.8,1.2,1.43,2.27-3.12-.17-3.12.67-2.6,1.71-1.84,2.29-.91,2.2.19-1.53-2.79,2.23-2.68,1.09-2.34,2.97-1.07,2.43,2.65,2.28,1.75,2.68-.21,1.97,2.83,2.32,1.31,6.56,3.45,2.11,3.73-.21,2.42-.13,1.54.49,4.47-.35,3.96-.21,2.42-1.17,3.22-2.09,1.15-1.7,4.28-3.89,1.43-2.21,2.46-.27,3.08,1.62,1.69,3.77-.11,1.67-1.4,1.75-2.28,1.61-3.18,3.34-.15,2.2.19,1.86,1.49,1.85,4.15.53,4.03-.33,3.74-.25,2.86,1.29,2.99-.31,3.52-.27,3.08-2.03,2.92-2.51.89-1.61,3.18-4.09,1.19-1.04,4.34-1.21,3.66-2.41,2.23-2.83,1.97,4.3,1.48,4.06,1.68,7.04,3.05,4.43-.05,1.84-.73,3.3.29,8-2.84,3.49-1.91,3.23-1.49,4.51-.93,4.35-1.61,4.85-2.23,5.52-2.4,5.62-3.49,5.12-2.87,2.25-2.9-3.34-2.29-.69-2.27.67-2.6,1.09-2.34,4.75-1.13,4.16.59,4.43-.06,3.42,1.41,5.6,1.82,3.76.11,5.93.52,2.73-.87,2.17-2.02,2.51-.89,1.54.13,1.67-1.4.38-4.4.15-1.76,1.85-.95.15-1.76.1-1.1-1.46-1.01-.34-1.14,2.15-1.8,3.79-2.77,3.15-3.05,3.82-3.21,5.14-3.09,4.13-1.63,3.13-.39h2.66s7.03.63,7.03.63l3.52.31,30.85,1.81,2.68-.21,1.91-1.6.19-2.2,5.03-1.77,3.02.93,3.01-1.51,1.35-2.76,2.73-3.3,3.29-2.15.71-8.13,4.04-5.63.44-5.05,12.85-15.26s2.04-.49,2.68-.21c.64.28,1.15,4.53,1.15,4.53l-.15,1.76,8.74-1.23,1.97-2.26,2.96,1.59,3.63,4.08.74,6.71-1.9,21.76-.31,3.52,4.29,4.14-.62,7.03,4.56,1.06,1.6,1.91-2.17,2.02.19,2.9-.61,1.94-7.08,2.48-2.16-.63-1.79,2.72-2.57,1.55-.93-2.07-1.74-.37.69,2.27-1.93,1.82-1.25-3.43-1.93,1.82-2.6-.67-.55-3.81-4.21,2.51-1.44,6.3-1.09,2.34-2.12-1.07-.98,1.02-1.96-.39-1.71,1.84-3.68-.99-4.37,1.83-1.57,2.74-2.8,4.18-1.65,1.18-4.77,6.45-1.66,6.28,1.29,2.99-3.49,1.91.91,2.29,3.03,3.37,1.01,3.63-.15,1.76.31,1.58,1.44,1.23,2.08,1.51h2.44s1.05-1.91,1.05-1.91l-.47-2.26-1.62-1.69-.93-2.07,2.56,1.11s1.48.79,1.42,1.45c-.06.66.85,2.95.85,2.95l.03,2.22-1.93,1.82-2.11,1.37h-2.44s-3.98-.12-3.98-.12l-1-1.19-1.62.74.35,3.57,2.93-.63.47,2.26-4.51.93-.03-2.22-1.07-2.97-2.48.45-2.24.25-1.46-1.01,3.2-3.71-2.24.25-2.14-.85-.66,5.04,1.13,2.31.76,1.4-4.19-.15-3.54-.09-2.34-1.09-6.73.96-7.29-.19-7.54,2.66-4.43,2.49-2.53,1.11,4.85.2,3.34-.15,2.49-.67,4.6.62,1.98.17,3.37-.59,3.07-2.17,4.93-.68,1.48.79-2.09,3.58-3.41,1.03-6.29,1-3.37.59-3.83.77-3.57.35-4.89.24-4.27.73-5.15.66,1.25,3.43,1.99,2.61-.25,2.86-1.63,3.4-1.65,1.18-1.37,2.98-.61,1.94-1.71,1.84-.55,1.28-1.27,1.88-1.87,1.16-1.65,1.18-.77,1.26-1.51,2.08-1.47,1.64-1.3-.34-.07-1.78.59-1.72-2.28-1.75-1.22-1.21-1.04-.76-1.38-1.89-1.86-1.49.13-1.54.41-2.18-2.15,1.8-.23,2.64,1.11,2.53.94,1.85.29,1.8.91,2.29,1.35,2.33,1.44,1.23,1.22,3.75.18,3.02-1.13,2.78-1.61,3.18-2.54,3.76-2.11,1.37-1.73,2.06-2.19,2.24-2.87,2.41-.67,2.6-.75,3.48-2.16-.63.99-3.68.95-3.24.87-2.36,1.73-2.06,1.19-3.44-1.02-.98-1.75-2.81,2.61-1.99-2.01-2.39-2.97,1.07-1.6-1.91,1.47-1.64-.02-2.34,1.48-1.74-1.37-2.11-.94-1.85,1.18-.78,1.87-1.16.35-1.52-2.22.03-.52-1.6,2.29-.91,2.48-.45.25-2.86,1.49-1.86-2.84-.47-2.69,2.87-5.39.86-.33,3.74,1.51,3.01-1.15,3,.32,6.45-2.52-1.55-.37,1.74,3.47,3.4.23,2.46-5.41-4.02-3.34-2.29-2.71.65.13-1.54,2.22-2.59.5-3.15-3.79,2.86-1.66,3.75-.37,1.74,2.6.67,2.32,1.31,1.86,1.49.98,1.41,2.32,1.31,1.34-.1.51,1.82,2.18.41.65,2.71-.19,2.2-2.36-.87-1.32-.12-4.15-5.68,3.38,6.94.55,3.81.63,2.93-1.53,2.3,1.47,3.45,2.7,2.01,2.3,1.53,3.17-.83-.09,3.54-2.13,1.59,1.59,4.57.67,2.49-2.02.27-3.84-1.66-.95,3.24-1.7-.81-1.19,1-2.62-.45-1.93-3.27-.19,2.2.35,3.57,2.82.69,2.36.87,2.77-1.31,1.4,1.67,1.28.55,2.49-.67,1.4,1.67-.25,2.86-2.21,2.46-1.37,2.98-3.77.11-3.14-2.05-1.79-2.37-3.61.79-2.29.91,1.82,1.93,3.42,1.41-5.29,2.19-.67,2.6,3.64,1.43,1.36-.32,3.13-.39,1.25,3.43-4.13,1.63-3.61.79-4.5-1.72-1.19,1-4.85,2.23-4.24,5.39-1.9,4.04-2.31,1.13-3.08-.27-2.86-.25-2.97,1.07-3.01,1.51-.99,1.24-3.13,2.83-1.53,2.3-2.45,2.66-1.73,2.06-2.65,2.43-3.11,2.61-4.83,2.01-4.53,1.15-1.74-.37-2.91.41.25,2.24-2.2-.19-2.15,1.8-.41,2.18-3.13,2.83-1.36.32-.45,2.62-1.77,2.5-1.08,4.78s.56,1.16.07,1.78-3.31,2.37-3.31,2.37l.41,2.91-.63,2.16.26,4.67-1.39,3.2,7.51,23.02.69,4.71-.11,3.76,2.97-1.07s2.28,1.75,2.23,2.41c-.06.66-1.75,2.28-1.75,2.28l-.71,3.04,5.22,18.84.58,6.03-.24,5.29-1.28,4.54-.75,3.48s-.61,1.94-.89,2.58c-.28.64-1.77,2.5-1.77,2.5l-.83,1.92-.85,2.14-.15,1.76.03,2.22-1.98-.17-2.86-.25-3.74-.33-1.24-.99-1.24-.99,1.23-1.44-1.99-2.61-.59-3.37-.49-2.04s-2.5-1.77-3.14-2.05c-.64-.28-2.52-1.55-2.52-1.55l-1.18-1.65-.65-2.71.17-1.98-1.6-1.91-.54-1.38.23-2.64-.07-1.78-2.71-4.44.11,3.77-1.2-1.43-1.82-1.93-1.03-3.41-.69-2.27-.51-1.82,1.07-2.12,1.57-2.74.15-4.19-1.8.29s-.96.8-1.01,1.46c-.06.66-.03,2.88-.03,2.88,0,0-1.07,2.12-.54,1.06s-1.67-3.69-1.67-3.69l-.29-1.8.23-2.64,1.16-.56,2.05-3.14.57-3.94-.13-3.55-1.31-2.77-1.37-2.11-2.3-1.53-1.4-1.67-3.33-4.94-.91-2.29-2.94-1.81-.79-3.61-2.23-2.41-2.82-.69-3.7-.77-2.13,1.59-.1,1.1-4.15,1.85-3.01,1.51-2.2-.19-4.71.7-.95-1.85-.63-2.93-1.79-2.37-1.62-1.69-1.68-1.03-4.4-2.82-3.28-.51-5.91-.74-5.49-.48-1.9-1.05-1.22-1.21-2.81,1.75-1.67,1.4h-5.09s1.25-1.66,1.25-1.66l-.65-2.71-.15-3.33-1.54-.13-.31,3.52-.99,1.24-3.1-.05-3.54-.09-2.46.23-3.98-.13-3.08-.27-1.4.76-2.11,1.37-3.13.39-.96-1.63-.74-1.62-8.33-.95-1.47,1.64s-.34,1.3-.17,1.98c.16.68,2.56,1.11,2.56,1.11l2.42.21,2.91-.41,1,1.19,2.54,1.33,3.28.51s1.04.76.98,1.41c-.06.66-1.51,2.08-1.51,2.08l-1.49,1.86-2.86-.25-.54,1.06.34,1.14s.62.5,1.24.99l.62.5,3.32,2.51,1.82,1.93,1.92.83-1.25,1.66-2.75,1.09-2.61-3.11-1.62-1.69-2.3-1.53-1.55-2.57-2.5-1.77-1.84.73.93,2.07-.37,1.74,1.8,2.15-2.35,1.57-1.74-.37-.94-1.85-7.45-.87-3.28-.51-1.62-1.69-.73-1.84-.05-2-1.38.54-2.8-.91-1.68-1.03-2.61,1.99-2.52-1.55-1.02-.98-4.23.29-4.56-1.06-4.96-1.54-3.36-2.07-1.72-.59-2.86-.25-2.91.41-6.55,1.42-3.65,1.23-2.99,1.29-3.47,1.69-.34,1.3-5.47,1.74-2.17,2.02-2.11,1.37-2.57,1.55-2.13,1.59-2.99,1.29-5.47,1.74-1.37-2.11,1.85-.95s.17-1.98-.49-2.04c-.66-.06-2.97,1.07-2.97,1.07l-1.63.96,1.31,2.77-3.27,1.93-2.23-2.41-.69,2.82-.15,1.76-3.47,1.69-1.44-1.23-.77,1.26-.21,2.42.15,3.33-3.6-1.87.03,2.22.52,1.6-.23,2.64-1.03,1.68-1.68-1.03-2.05.71,2.06,1.73.15,3.34.57,3.59-.75,3.48.41,2.91.75,4.05,2.41,2.87.51,1.82-16.15-2.74-12.21-7.27-4.81-10.83.48-5.49.19-2.2-5.51-5.35.29-3.3-6.59-5.67-2.06-6.82-2.67-4.88.4-4.62-3.76-2.54-5.75-5.15-2.59-3.33-4.4-.38-4.94-1.76-1.32-.12-3.23,1.49-3.52-.31-1.65,3.62-1.98,4.92-3.55,2.57-.1,1.1-4.36-.82-3.91-3.44-3.38-1.85-2.2-.19-3.81-4.54-1.48-.79-2.45-4.87.38-4.4-2.29-4.19-1.07-2.97-1.77-2.59-2.24-2.19-2.54-1.33-2.28-1.75-4.13-5.9-2.41-2.87-2.42-.21-2.01-4.83-3.09-2.71-23.3-2.04-3.07,7.26-39.22-2.32-56.95-24.91.37-4.18-9.01-.79-9.01-.79-4.73.91-6.29,1-4.87.02-2.79-3.57-.98-6.51-1.59-4.57-4.59-5.72-7.82-4.23-1.21-3.87-2.04-1.95-1.76-.15-1.32-.12-2.2-.19-2.7-2.01-6.01-4.73-7.56-2.21-7.13.48-1.07-2.97.69-7.91-2.89-4.9-.81-3.39-3.03-3.37-9.18-14.09.33-3.74,1.31-2.32.2-4.85-3.52-.31-4.79-5.96-1.41-9.2-7.47-10.84.12-1.32,2.2.19-10.33-13.53-.81-8.49.79-9.01-7.1-9.92,2.16-4.46,1.98.17-3.41-4.06,3.13-2.83.53-3.5.62-4.6,1.65-3.62-2.14-5.94.03-2.88-2.5-6.86.44-5.05.25-2.86-1.34-4.99,2.2-4.9,1.5-4.52,1.85-.95,1.14-5.44,4.23-25.54,1.72-4.5-.85-2.95,2.05-3.14-1.63-4.13,1.83-3.16-.27-9.55,7.03.62,1.66,1.25,2.29-.91-2.48-1.99-1.98-.17-1.98-.17-2.86-.25-2.08-1.51.12-6.41,1.61,4.35,1.46-4.08,1.41-.98-.54-1.38-2.86-.25-.15-3.34,1.54.13-1.95-3.05-1.32-.12-1.57-9.88-1.91-8.58-1.31-2.77-.73-4.27.38-4.4,4.5,1.72,3.36,2.07,2.96,1.59,4.19.15,2.36.87,3.4,1.63,3.04.71,4.05-.75,2.8,6,2.52,1.55,2.3-3.56.59-1.72-1-1.19-.9-4.95-1-1.19-1.54-.13-1.27,1.88,2.73,4.23-.12,1.32-1.62-1.69-2.75-4.01,1.19-3.44,2.11-1.37.43-2.4-.13-3.55-3.25-3.38.47-2.84,213.18,18.65,154.72,13.54,42.64,3.73,4.68.05.95-2.6,4.67.49Z"/>
      <path class="cls-1" d="m465.14,682.6l18.61,15.26-1.44,1.2,9.12,9.77.64-7.26,2.48-1.78-2.74-2.9,7.31-11.33,20.13,1.76,2.17-5.79-3.63-.32.2-2.31-4.24-4.69-7.37-6.96,6.6.58,1.05-8.22,28.05,2.45,1.49-1.86,1.98.17,7.11-9.02,2.64.23,4.06-4.63,1.89,1.16-1.81,5.49,1.26.78,1.78,2.48,6.36-15.73-1.65-.14,1.97-3.49-4.95-.43s5.98-3.8,6.37-4.43.64-7.26.64-7.26l5.08-4.88,2.52,1.55-.26,2.97,4-3.97-4.5-1.72,3.76-4.99.48-9.27-14.19-1.24-3.87-1.34-4.1,1.3-4.56-1.06-3.53,2.35-14.06,1.1-5.39.86-5.02,4.22-1.45,5.19-1.21,6.21-.35,3.96-2.48,1.78-1.57,6.51-10.59,7.05,1.09,2.76-1.13,1.56-3.83,1.99-2.7.43-2.8-2.24-2.58-.89,4.95.43,5.57-2.84-1.26-.78-4.85,2.24-5.22-1.12-4.68.26-3.41,1.03-3.47,1.69-2.01.16-6.96-.28-2.34.13-4.13,1.63-4.1,1.3-3.36.37-2.8-2.24-1.18-1.77-1.39-3.11-2.64-.23-1.15-2.1-9.18-1.47-3.64-3.98-1.03-3.41-3.43-2.63-1.45-2.45.43-4.95-2.38-3.2-2.32-3.86-2.95-4.25-3.47-5.96-2.18-5.51-1.99-3.83.2-2.31-2.08-2.84.43-4.95,2.84,5.57,1.26.78-.32,3.63,1.64-3.51-2.35-3.53-3.63-7.96,2.51-28.71.43-4.95-2.11-2.51.23-2.64,2.47,2.21.58-6.6,1.46-1.53s.43-4.95-.23-5.01c-.66-.06-.43-2.7-.43-2.7l3.96.35,1.86,1.49-2.36,4.12,3.62-3.34,1.96-7.9-.51-4.57h-3.36s-4.62-.4-4.62-.4l-4.95-.43-8.92-4.44-4.39-3.04-3.17-5.6-1.42-2.78.32-3.63-.83-5.72-.82-2.07-3.28-4.28-2.29-4.19-3.34-3.62s-3.64-3.98-3.58-4.64c.06-.66-.59-4.71-.59-4.71l-1.69-3.47.2-2.31-3.31-3.95-2.52-1.55-3.37-3.29-3.07-2.93-7.11-2.28-3.96-.35-2.97-.26-3.83,1.99-1.72,4.5-1.61,3.18-3.59,3.01-1.77,1.18-2.14-2.18-3.9-1.01-3.43-2.63-7.13-5.94-2.44-2.54-1.46-6.11-1.4-6.77-2.95-4.25-3.73-2.99-3.7-3.32-3.58-4.64-2.41-2.87-4-3.67-1.3-4.1-6.6-.58-6.93-.61-7.92-.69-6.27-.55-.69,7.92-10.56-.92-10.56-.92-10.56-.92-8.58-.75-1.71.52-30.33-14.29-24.35-10.44.43-4.95-11.88-1.04-7.26-.63-7.4,1.01-6.3-.22-3.57-.98,2.69,7.22.97,4.07,3.76,2.66-.4,4.62,4.62,8.05.37,3.36,2.38,3.2.05,6.99,1.59.8,1.58,4.79.04,3.33,2.26,4.52,4.93,4.42,3.21,1.28,5.09,6.43,1.78,2.48,2.77,2.57,3.01,3.59-.65,3.6-.38,4.29-.89,2.58-1.62-.47,2.95,4.25-2.37.46-2.17-1.85-1.78-2.48-3.99-.02-2.7.43-2.97-.26,1.75,2.81,1.92.83,2.08,2.84,2.5,1.88.37,3.36,3.87,1.34,1.84,1.82.82,2.07,2.7-.43,1.48,2.12,1.15,2.1,2.43-1.12,2.55,1.22,2.6-3.1.37,3.36,2.95,4.25,2.08,2.84,3.79,2.33,2.01-.16,1.6,4.46,1.39,3.11s-.14,1.65-.26,2.97-.29,3.3-.29,3.3l-.17,1.98.43,2.7s-.86,2.25-.23,2.64c.63.39,1.75,2.81,1.75,2.81l2.35,3.53.49,2.04,1.81,2.15,3.16,1.94,2.77,2.57,2.14,2.18,3.43,2.63,2.8,2.24,1.81,2.15,2.83,1.91.7,3.39.73,3.06,1.06,3.08,2.19,1.52s2.64.23,3.33-.04,2.12-1.48,2.12-1.48l1.94-3.16.47-1.62.56-2.61-.79-2.4-2.47-2.21-2.02-3.5-1.15-2.1.86-2.25-.34-3.69-2,3.82-2.5-1.88-1.2-1.44-1.22,2.55-1.95-.5-2.8-2.24-.93-.75-.04-3.33.23-2.64-.04-3.33s-.37-3.36-.97-4.07c-.6-.72-4.49-5.71-4.49-5.71l-.46-2.37-1.39-3.11-1.03-3.41s.72-.6.78-1.26c.06-.66-.5-5.7-.5-5.7l-1.09-2.75-1.36-3.44-2.83-1.91.46,3.66.13,1.05-2.95-4.25-.49-2.04-.76-2.73-2.5-1.88-.52-1.71-1.36-3.44-4.6-4.39-.61-4.38-.99-7.73-4.86-1.42-1.19-5.42-2.25-.86-1.36-3.44-1.66-3.8-1.03-3.42-6.14-5.86-1.32-.12-3.01-3.59-.13-2.34-1.16-5.75,1.31-3.54-1.93-4.49-1-3.74v-3.66s.61-3.27.61-3.27l.45-1.29-.56-5.04,5.68,3.49,3.16,1.94,1.81,2.15,3.39-.7.78-1.26,2.52,1.55,1.86,1.49.43,2.7,2.25.86,2.58.89,1.59.8-.2,2.31-.23,2.64-.2,2.31.4,3.03,1.06,3.09,1.72,3.14,1.06,3.09.82,2.07.82,2.07,1.3,4.1,1.15,2.1.49,2.04-.62,3.27-1.22,2.55-1.58,2.85,3.79,2.33,1.31-3.54.35-3.96,1.42,2.78.79,2.4,1.78,2.48,2.08,2.84,1.15,2.1,2.14,2.18,1.51,1.79s.3.36.54,1.38c.24,1.02,1.06,3.08,1.06,3.08l.9,1.08,2.97.26,2.64.23,1.89,1.16,1.48,2.12.04,3.33.21,1.35.97,4.07,1.84,1.82,3.16,1.94,2.25.86,1.42,2.78,1.69,3.47,3.24.95s2.67-.1,3.24.95c.57,1.05,1.18,1.77,1.75,2.81.57,1.05,1.89,1.16,1.81,2.15-.09.99-.17,1.98-.17,1.98l-1.65-.14-1.23-1.11-1.08.9-2.24,2.8.76,2.73.73,3.06,1.78,2.48,2.17,1.85,1.05-.57,1.41-.87,5.12,6.1,1.35-.21,4.03,3.34,1.48,2.12.7,3.39.82,2.07,2.14,2.18,2.01-.16,1.26.78.7,3.39,3.43,2.63,2.14,2.18,2.02,3.5,1.06,3.09,1.72,3.14,2.71,3.23,1.45,2.45,3.04,3.26,1.75,2.81,2.44,2.54,1.81,2.15.21,1.35-.71,4.26.4,3.03-.14,1.65,1.48,2.12.73,3.06,2.58.89.13,2.34.73,3.06-.89,2.58-2.07.82-1.49,1.86,2.14,2.18,1.51,1.79-2.45,1.45-2.4.79-3.41,1.03,1.75,2.81,1.3,4.1.94,4.4,2.71,3.23,5.2,5.11,2.83,1.91,3.16,1.94s2.64.23,3.24.95c.6.72,3.07,2.93,3.07,2.93l1.26.78,2.05,3.17,2.11,2.51,2.47,2.21,3.18,1.61,3.18,1.61,3.51,1.64,4.17,1.7,3.9,1.01,3.93.68,1.29.45,1.75,2.81,2.41,2.87,3.79,2.33,3.46,2.3,3.46,2.3,3.84,1.67s1.89,1.16,2.52,1.55c.63.39,1.92.83,2.55,1.22.63.39,4.8,2.08,4.8,2.08l2.74,2.9,3.96.35,3.54,1.31,4.14,2.03,2.25.86.87,1.41,1.81,2.15,2.64.23,3.48,1.97,2.08,2.84,4.2,1.37,3.63.32,2.58.89,3.82,2,3.27.62,2.88,1.25,2.97.26,2.7-.43,3.69-.34,2.4-.79,3.41-1.03,2.76-1.09,2.12-1.48,3.09-1.06,1.38-.54,2.4-.79,1.77-1.18,1.62.47.82,2.07.24,1.02,1.74-.85.42-.96,1.26.78,1.92.83.9,1.08.19,1.68Z"/>
    </g>
    <polygon class="cls-1" points="538.67 659.89 512.22 657.57 511.46 666.28 505.01 665.72 506.02 669.05 508.69 671.89 511.6 672.14 514.57 675.33 515.28 678.32 517.43 679.8 517.09 683.67 515.71 684.53 511.84 684.19 506.68 683.74 502.49 683.37 498.62 683.03 495.7 686.68 491.78 690.56 490.16 694.32 492.05 698.71 489.65 700.12 489.14 705.93 498.49 714.22 508.94 717.41 512.16 717.69 518.41 720.52 519.61 718.02 523.06 715.72 527.39 714.48 526.71 711.17 529.67 710.78 534.44 708.27 533.43 704.93 533.36 702 539.15 698.93 545.21 696.53 549.02 693.94 544.57 689 544.99 691.64 543.38 691.5 539.71 688.9 534.84 688.8 538.67 659.89"/>
    <polygon class="cls-1" points="535.12 687.38 538.75 661.58 538.99 659.82 542.05 659.35 543.81 659.6 548.53 655.78 549.87 654.77 551.5 655.9 553.68 655.31 554.81 657.86 553.4 661.55 551.48 664.57 553.74 665.48 553.37 668.12 551.41 669.34 550.53 671.31 550.45 673.99 550.42 676.37 549.46 678.93 547.37 681.03 545.99 682.33 545.49 683.75 543.4 683.76 542.1 684.47 541.02 685.81 539.05 687.03 539.22 687.95 534.96 688.55 535.12 687.38"/>
  </g>
  <path class="cls-1" d="m514.82,720.01l.07-4.11s4.84-2.65,6.22-3.31c1.38-.66,6.9-3.3,6.9-3.3l5.54-3.33-1.52-4.14s-.46,0,1.63-2.02c2.09-2.02,8.25-1.91,8.25-1.91l4.11.07,2.63,6.21,5.39,4.89,2.74.05,4.05,3.49,3.39,2.11,3.36,3.48,7.53.13,1.09-1.41,1.01-1.3-.1,5.48,4.84-2.65,6.84.12-.05,2.74-.08,4.79-.08,4.79-.05,2.74-.04,2.05-4.19,4.72-6.16-.11-5.48-.1-4.11-.07-2.74-.05-5.4-4.2-3.42-.06-2.05-.04-3.42-.06-2.01-2.77-2.01-2.77-6.84-.12-2.05-.04-4.76-2.14-4.79-.08-3.43.62-3.39-2.11-3.35-4.17-4.07-2.12Z"/>
  <path class="cls-1" d="m575.74,725.82l-14.48-7.65-8.74-9.02-1.85-2.99-4.68-8.55,16.24-12.09,11.73-10.9,6.23-2.55,2.1-.07,2.1-.07,2.63-.09,4.84,2.74,5.68-3.11,5.26-.18,3.74,1.62,3.62-1.87,5.79-.2,3.56-3.62,5.26-.18-.1-2.91,5.79-.2,3.76,2.2,3.22,1.64,6.78-1.98,6.23-2.55,4.29,2.18,7.97,2.05,5.87,2.13,1.11,1.71,5.42,4.47,2.69,1.65,2.67,1.07-1.01,1.2-2.67-1.07-2.14-1.09-1.13-2.29-2.1.07-.44,2.35.04,1.16-1.58.06.06,1.75.59,1.73,2.12.51-.06-1.75-.57-1.15,2.1-.07,1.62,1.11,2.16,1.67,1.62,1.11.04,1.16-2.71-2.24-1.6-.53-1.05.04.04,1.16,1.62,1.11,1.07.55,1.62,1.11,1.6.53,1.58-.06,3.18.47,2.59-1.26-2.18-2.25-1.09-1.13-2.12-.51-.06-1.75,1.58-.06,2.67,1.07s.55.56,1.09,1.13c.55.56,1.64,1.69,1.64,1.69l1.09,1.13,3.2,1.05-.47,1.76.18-.16-.9-.08-.98.82-.33,1.82-2.12-.51-2.1.07s-1.6-.53-1.58.06-.44,2.35-.44,2.35l-2.61.67-6.17,4.29-3.14.69-2.63.09-2.57,1.84-2.59,1.26-1.54,1.22s-1.62-1.11-2.14-1.09c-.53.02-2.65-.49-2.65-.49l-1.58.06-1.66-2.27s-1.07-.55-1.6-.53c-.53.02-2.06,1.24-2.06,1.24l-.97,2.36s-1.56.64-1.54,1.22-.44,2.35-.44,2.35c0,0-.49,1.18-.46,1.76l.06,1.75.08,2.33.04,1.16-1.01,1.2-3.14.69-1.56.64-1.56.64-2.06,1.24-1.01,1.2s-1.03.62-1.01,1.2c.02.58-1.03.62-1.01,1.2.02.58-.99,1.78-.99,1.78l.08,2.33.02.58-1.03.62-2.14-1.09s-.53.02-.55-.56c-.02-.58-1.11-1.71-1.11-1.71l-.55-.56-.55-.56c-.55-.56-1.62-1.11-1.62-1.11l-2.12-.51s-1.05.04-1.56.64l-1.01,1.2s-.51.6-.49,1.18c.02.58-.49,1.18-.49,1.18l-.99,1.78-2.04,1.82-3.74-1.62-3.18-.47-1.5,2.38-.42,2.93.59,1.73.63,2.89.61,2.31-.44,2.35-2.63.09-2.1.07s-.55-.56-.53.02c.02.58.1,2.91.1,2.91l.06,1.75-1.5,2.38-1.56.64-3.14.69-2.1.07-2.08.66-1.62-1.11-.57-1.15,2.61-.67,1.58-.06s1.03-.62,1.56-.64c.53-.02.47-1.76.47-1.76,0,0-.02-.58-.55-.56s-1.54,1.22-1.54,1.22l-2.63.09-1.58.06-.12-3.49-.04-1.16-1.03.62-1.6-.53-1.62-1.11,1.52-1.8s-.02-.58-.57-1.15c-.55-.56-1.58.06-1.58.06l-1.01,1.2-.47,1.57-1.07-.35.44-2.35.22-8.75-.05-1.45-.03-.87-4.91.07-.87.13-1.54,1.22-3.18-.47Z"/>
  <path class="cls-1" d="m603.43,747.83s-5.34-.09-6.35.56c-1.01.64-7.41.65-7.41.65l-2.12.19.24,2.74,3.41,2.46,1.97-1.83.67,1.6,10.92,8.99,7.69,2.64.24,2.74,3.75,6.3,6.97,6.57,7.89,4.84,5.77,5.02,2.93,3.06,1.68-5.12,1.54-.69-5.77-5.02-2.5-4.2-2.36-2.56-.38-4.39,1.25-3.98,3.08-1.37,2.65-.23,3.94,2.42.14,1.65,2.16.36,5.05,2.87,4.62,4.02,3.56,4.11,3.65,5.21.24,2.74-6.83,1.15-4.91-1.23-3.75-.22,7.21,3.24,8.47-.74,4.76-.42,6.49,1.09,2.4,3.1,4.91,1.23,4.76-.42,2.65-.23-.34-3.84-3.08-4.7-2.5-4.2,3.75-11.93-.29-3.29-1.97,1.83-.58-6.58,2.16.36,1.54-6.77-1.78-2.05,2.65-6.31-.62-7.13-1.3-14.81-2.12.19,1.78-4.02,2.12-.19,1.01-6.72-.29-3.29,5.73-7.68-2.02-4.8-1.49-4.84-.82-3.24.72-3.93-5.82.51-5.29.46-4.04,2.56-3.51,2.52-3.61,1.42-3.08,1.37-2.98,2.47-2.02,1.28-7.69-2.64-2.6.78-2.41,2.97-1.4,2.33-.82,2.83.24,2.74-3.03,1.92-3.08,1.37-2.45,2.42-2.6.78-.91,1.74-.63,5.03-4.57-3.47-2.21-.91-2.02,1.28-2.98,2.47-2.02,1.28-.91,1.74-4.28-.18-2.69-.32-1.97,1.83-.15,4.43.38,4.39.14,1.65-2.65.23-1.97,1.83.72,2.15-1.16,5.07-1.54.69Z"/>
  <path class="cls-1" d="m691.16,791.15l-.07,3.97-3.31-.06-3.93,2.4-7.99-1.28-1.91-4-3.91-3.37-1.98-.03-3.97-.07-3.97-.07-2.64-.05-3.97-.07-2.64-.05-3.31-.06-2.59-3.35s-2.01,1.29-2.64-.05c-.64-1.33-4.59-2.06-4.59-2.06l-3.97-.07-.03,1.98-3.33,1.26,2.58,4.01-2.64-.05-3.99,1.25,3.92,2.71,3.28,1.38.63,1.99-1.39,3.94-3.97-.07-.08,4.63-2.68,1.94-.06,3.31,3.22,4.69,1.26,3.33,2.61,2.03,3.93,2.05,1.98.03,3.92,2.71,2.61,2.03,1.98.03,1.28,2.67,2.64.05,1.98.03,4.67-2.56-1.95-2.02-1.29-2.01-1.28-2.67-1.97-.7-2.64-.05-2.62-1.37-1.9-4.66.06-3.31,1.93,3.34,2.64.05,2.64.05,1.95,2.02,1.96,1.36,2.63.71,2.59,3.35,1.93,3.34,1.28,2.67,1.28,2.67.63,1.99.63,1.99,3.97.07,3.31.06,2.59,3.35s9.87,2.82,18.31,11.56l-2.02,1.95,1.95,2.02-3.31-.06,1.29,2.01-2.02,1.95-2.02,1.95.63,1.99,1.26,3.33,3.94,1.39,3.31.06,1.95,2.02,1.98.03.05-2.64.03-1.98-2.62-1.37-1.95-2.02,1.38-3.28,3.27,2.04-.03,1.98,2.63.71,1.99-.63,1.9,4.66-.05,2.64-.03,1.98,3.27,2.04.05-2.64.05-2.64,3.33-1.26,1.39-3.94.03-1.98.06-3.31,2.01-1.29.03-1.98.03-1.98.03-1.98-1.97-.7-1.95-2.02-1.97-.7.15-8.59,1.37-2.62,1.36-1.96,3.33-1.26,3.24,4.02,2.68-1.94-1.95-2.02-3.91-3.37-1.98-.03-4.51-6.69-7.17-6.08-3.22-4.69-3.2-6.01-3.19-6.67-1.9-4.66-2.6-2.69Z"/>
  <path class="cls-1" d="m886.38,904.59c1.51.13,4.71-1.65,5.46-1.59.75.07,1.57-.55,1.57-.55,0,0,1.69-1.92,2.5-2.53.81-.62.87-1.3,1.69-1.92.81-.62,4.01-2.4,4.01-2.4l.24-2.73s1.81-3.28.42-4.78c-1.39-1.5-2.02-2.93-2.66-4.36-.64-1.43-2.08-2.25-2.78-2.99-.69-.75-1.33-2.18-2.02-2.93-.69-.75-1.33-2.18-1.27-2.86.06-.68.93-1.98.99-2.66.06-.68.18-2.05.18-2.05,0,0-1.51-.13-2.2-.88-.69-.75-1.39-1.5-2.08-2.25-.69-.75-2.08-2.25-2.08-2.25l-2.9-1.63-1.27-2.86s-.58-2.11-1.27-2.86c-.69-.75-4.29-3.13-4.29-3.13,0,0-1.45-.81-2.14-1.56-.69-.75-2.84-2.31-2.84-2.31,0,0-2.9-1.63-3.65-1.7s-5.04-3.19-5.04-3.19l-3.65-1.7-3.71-1.01-3.02-.26s-1.51-.13-4.47-1.08c-2.96-.95-6.73-1.28-6.73-1.28l-3.08.42-.64-1.43,1.69-1.92-4.53-.4-11.26-1.67-2.96-.95-3.2,1.78-1.75,2.6-2.44,1.85-.87,1.3-.24,2.73,2.08,2.25s-.12,1.37.64,1.43c.75.07,2.96.95,2.96.95l2.32-.48.64,1.43,1.19,3.53-6.71-1.26s-.69-.75-2.14-1.56c-1.45-.81-2.14-1.56-2.14-1.56l-2.2-.88-1.33-2.18s.24-2.73.99-2.66.99-2.66.99-2.66c0,0-2.32.48-3.2,1.78-.87,1.3-1.63,1.23-3.2,1.78-1.57.55-.81.62-3.14,1.1-2.32.48-6.16.84-6.16.84l-5.34.22-2.38,1.17s-2.38,1.17-3.2,1.78c-.81.62-4.77,2.33-4.77,2.33,0,0-.12,1.37-1.63,1.23q-1.51-.13-3.83.35c-2.32.48-6.16.84-6.16.84l-3.89,1.04s-1.57.55-3.77-.33c-2.2-.88-4.47-1.08-4.47-1.08l-2.84-2.31-2.84-2.31-2.02-2.93-.64-1.43s-.64-1.43-1.39-1.5-1.45-.81-1.45-.81l-1.39-1.5-1.51-.13-.87,1.3,4.29,3.13.69.75-.12,1.37s-.64-1.43-2.2-.88-4.59.29-4.59.29c0,0-.75-.07-1.57.55-.81.62-2.32.48-2.32.48l-1.33-2.18-1.51-.13-1.51-.13-.52-2.8.24-2.73,1.51.13.87-1.3-2.96-.95s-.81.62-1.57.55c-.75-.07-2.9-1.63-2.14-1.56.75.07.93-1.98.99-2.66.06-.68.18-2.05.18-2.05,0,0,.81-.62.12-1.37s-2.9-1.63-2.9-1.63l-1.39-1.5-1.45-.81-3.2,1.78-3.47-3.74-3.02-.26-2.38,1.17-1.87,3.96-1.05,3.35-.3,3.41-.18,2.05,4.23,3.81,3.59,2.38-.12,1.37-3.14,1.1-2.26-.2-1.81,3.28,1.27,2.86.64,1.43c.64,1.43.58,2.11.52,2.8-.06.68-.18,2.05-.18,2.05l-1.57.55-6.33,2.89,3.93,7.22,2.56-3.22.87-1.3,9.81.86,2.44-1.85,1.97,3.61,2.26.2.12-1.37-.58-2.11,2.26.2,2.32-.48s2.26.2,1.45.81c-.81.62-1.75,2.6-1.75,2.6l1.33,2.18,2.2.88.12-1.37,3.02.26,3.14-1.1,1.45.81-.06.68.64,1.43,3.02.26,2.14,1.56,1.33,2.18.64,1.43.64,1.43,1.51.13-.24,2.73s-.75-.07-.06.68c.69.75-.18,2.05-.18,2.05,0,0,1.45.81,2.14,1.56.69.75-2.2-.88-.06.68l2.14,1.56,2.2.88,1.51.13,3.65,1.7.18-2.05.18-2.05,1.57-.55.12-1.37-1.39-1.5.12-1.37,1.51.13.87,1.43.46.75,2.44-1.85,1.51.13-.18,2.05-.12,1.37-1.63,1.23,1.45.81,1.33,2.18s-.75-.07-.12,1.37,1.27,2.86,1.27,2.86c0,0-.81.62-.12,1.37s1.27,2.86,1.27,2.86l-.12,1.37-.18,2.05-.12,1.37,2.2.88,2.26.2,2.26.2,3.02.26,3.02.26,3.83-.35,1.63-1.23.81-.62.12-1.37,3.2-1.78,3.02.26,3.02.26,1.51.13,1.81-3.28s.06-.68.12-1.37c.06-.68,1.69-1.92.18-2.05-1.51-.13-2.2-.88-2.2-.88l-2.72-3.68-2.02-2.93-2.08-2.25-2.14-1.56-2.9-1.63-1.27-2.86.3-3.41,2.44-1.85,1.51.13,5.28.46,2.32-.48,3.26-2.47,10.29-4.6,1.63-1.23-2.26-.2-1.39-1.5-.58-2.11,4.53.4.3-3.41.81-.62,1.63-1.23,5.34-.22.18-2.05,3.2-1.78,5.22,1.14,4.47,1.08,3.02.26.75.07,2.84,2.31,1.97,3.61-.06.68,3.77.33,2.02,2.93s2.96.95,3.59,2.38c.64,1.43,2.08,2.25,2.02,2.93-.06.68.34,4.84.34,4.84l-.18,2.05s1.45.81,2.26.2,3.2-1.78,3.2-1.78c0,0,4.71-1.65,5.4-.9.69.75,2.84,2.31,2.84,2.31,0,0-.18,2.05,1.27,2.86,1.45.81,3.65,1.7,3.65,1.7l5.1,2.51s3.02.26.69.75c-2.32.48-3.89,1.04-4.59.29-.69-.75-6.49-4.01-6.49-4.01,0,0-3.02-.26-3.77-.33l-.75-.07-1.93,4.65-.12,1.37.64,1.43-5.98-1.21s-.93,1.98-.24,2.73q.69.75,2.02,2.93c1.33,2.18.52,2.8,1.15,4.23.64,1.43.52,2.8.52,2.8,0,0,.58,2.11,1.27,2.86.69.75,2.02,2.93,2.02,2.93l4.23,3.81c1.33,2.18,1.91,4.29,1.91,4.29l2.26.2,1.75-2.6,3.26-2.47,3.14-1.1.81-.62,3.95-1.72Z"/>
  <g>
    <path class="cls-1" d="m754.67,629.76l-7.63.13-6.9.48-7.98.87-1.08.38-3.98,1.16-2.18.04.7-1.47,1.07-1.11,1.42-2.21,1.43-1.48,1.43-1.12,1.8-1.12,2.17-.76,1.06-1.47s-.01-.73-.38-1.08c-.37-.36-1.11-1.07-1.11-1.07l-1.47-.7-.38-1.08-1.11-1.07-1.45.03-5.45.1-2.91.05-2.56-.68-2.57-1.77-.75-1.44-1.09.02-2.21-1.78-.75-1.08-.03-1.82-.02-1.09-1.11-1.07-.03-1.82-.75-1.08s.35-.73-.02-1.09c-.37-.36-1.47-1.06-1.47-1.06l-.74-.71-1.45.39-2.9.41-1.45.39-1.08.75-2.92-.68-3.65-1.03-4.02-1.02h-.73s-1.09.03-1.09.03l-3.66-1.75s-2.56-1.05-2.57-1.41c0-.36-1.84-1.06-1.84-1.06l-1.13-2.52-1.08.75-2.54.41-2.19-.33-2.91.05-1.47-.7-.75-1.08-.76-1.8-.68,2.92-2.55-.32-.75-1.44-1.82.03-1.82-.33-1.09.02-1.81.4s-.75-1.44-1.12-1.8c-.37-.36-1.11-1.07-1.11-1.07l-.74-.71.71-1.1,1.82.33,1.09-.02,1.08-.38.34-1.1-.02-1.09-1.11-1.07-1.45.03-2.54.04-2.91.05-1.82.03-1.82.03-2.91.05s-1.82.03-2.18.04c-.36,0-1.8.76-1.8.76l-1.81.4s-1.45.39-1.8.76c-.36.37-1.43,1.12-1.43,1.12l-1.78,1.85-1.07,1.11-1.06,1.47-.71.74s-1.81.4-2.17.4c-.36,0-1.46-.34-1.46-.34l-2.18.04-2.17.4s.01.73-.71,1.1c-.72.38-1.08.38-1.07,1.11.01.73-.68,2.56-.68,2.56l-.72.38-2.17.4-1.82.03-1.07,1.11-1.06,1.47-1.1-.71-.02-1.09.71-1.1s-.38-.72-.74-.71c-.36,0-1.82.03-1.82.03l-1.8.76-1.07,1.11-1.82.03-.74-.71,6.12-3.38,1.45-.03,2.19.69,1.81-.4-1.1-.71-.38-.72-1.1-.71-.38-.72-.38-1.08,1.06-1.84.34-1.1s.72-.38,1.07-1.11l.35-.73,1.79-1.48,1.08-.75.35-.73.34-1.1,2.18-.04,2.17-.76,1.09-.02,1.44-.75,1.09-.02,1.43-1.48h.73s1.08-.76,1.08-.76c0,0,.37.36.73-.01.36-.37,1.43-1.12,1.43-1.12l.74.71,1.08-.75,1.09-.02,1.45-.03,1.07-1.11,1.82-.03,2.18-.04,1.09-.02,1.8-.76,1.09-.02,1.8-.76,1.45-.03,2.18-.04,2.18-.04,3.27-.06s1.45-.39,1.82-.03c.37.36,2.91.31,2.91.31l1.82-.03,2.91-.05s2.19.69,2.56.68c.36,0,1.82.33,1.82.33l1.82-.03,2.91-.05,1.47,1.06,1.83.69,1.1.71,1.1.71,1.45-.39,1.44-.75h.73s1.1.69,1.1.69c0,0,1.47.7,2.19.69.73-.01,2.92.68,2.92.68l1.13,2.16,1.49,1.79,1.12,1.43,1.1.71,1.1.71s1.45-.03,1.82.33c.37.36,3.28.67,3.28.67l2.56.68,2.54-.04,1.82-.03,1.46.34h.73s-.38-.73-.38-.73c0,0-.37-.36-.75-1.08s-1.11-1.07-1.11-1.07l-.73-.35-.73-.35,1.82-.03,1.45-.39,2.17-.76,3.31,2.49.74.71c.43.21,1.62,1.15,2.54,1.89.64.52,1.15.95,1.15.95l1.49,2.15,1.47,1.06,1.45-.03.4,1.81-1.08.75-1.46-.34-.75-1.08-1.46-.34-.75-1.08-.75-1.08-.02-1.09-.75-1.08-1.46-.34-.73-.35-.75-1.08-1.09.02-2.17.4-.35.73.75,1.08.38,1.08,1.46.34,1.83.69.73.35,1.1.71,1.48,1.43,1.12,1.8,1.07-1.11.38,1.08,1.11,1.07,1.1.71,1.1.34,1.45-.03,1.1.34,1.11,1.07-.03-1.45,1.46.34.38,1.08.38,1.08.4,1.81-.35.73,1.44-.75h.73s.69-1.84.69-1.84c0,0,.74.71.75,1.08s1.1.71,1.1.71c0,0,.36,0,.38.72.01.73.75,1.44.75,1.44l1.84,1.06,1.46.34,2.19.33.75,1.08,1.08-.75,2.18-.04.74.71,1.1.71s.71-.74,1.46.34l.75,1.08,2.91.31,1.09-.02,1.08-.75,1.45-.39,1.45-.03,1.46.34.02,1.09s.01.73.02,1.09c0,.36-.71,1.1-.71,1.1,0,0,.01.73.02,1.09v.36s.75.71.75.71l1.47,1.06,1.83.69h.73s1.46.33,1.46.33l1.82-.03,1.82-.03s.73.35,1.1.34c.36,0,1.82.33,2.19.33.36,0,.73.35,1.1.71q.37.36.74.71c.37.36,1.11,1.07,1.11,1.07l1.11,1.07s1.47.7,1.47,1.06c0,.36,1.11,1.07,1.11,1.07l1.09-.02,1.82-.03,2.2,1.05.75,1.44s-.36,0,.01.73c.38.72.76,1.8.03,1.82-.73.01-4-.29-4-.29l-1.82-.33s-.36,0-1.09.02c-.73.01-2.18.04-2.18.04l-1.45.39-1.8.76s-.36,0-.73.01c-.36,0-1.08.38-1.08.38l-1.07,1.11c-1.44.75-2.53.77-2.53.77l.34-1.1.34-1.46-1.47-.7-.33,1.82s.73.35-.71.74,0,.36-1.45.39c-1.45.03-1.82.03-2.18.04-.36,0-.73.01-1.45.03s-2.19-.33-2.19-.33c0,0,0-.36-1.1-.34-1.09.02-2.91-.31-2.91-.31Z"/>
    <path class="cls-1" d="m718.79,552.61l2.15-1.49,1.44-.75,1.06-1.84-.41-2.9-2.2-1.05.33-1.82-1.12-1.43s-2.19-.69-1.47-1.06,1.4-2.93,1.4-2.93l-2.18.04-3.63.06,1.13,2.16.03,1.82-1.06,1.84-1.42,1.84s-.72.38-.71.74c0,.36-.34,1.46-.34,1.46l.02,1.09,2.21,1.42,1.85,1.78,1.84,1.42,1.48,1.79,1.85,2.15-.34,1.46,1.84,1.06.38,1.08.75,1.08,1.45-.03,2.18-.04s-.4-1.81-.04-2.18c.36-.37.33-1.82-.04-2.18-.37-.36-1.5-2.88-1.5-2.88l-1.05,2.2-1.07,1.11-1.09.02.7-1.47-1.47-.7-2.96-2.86Z"/>
    <path class="cls-1" d="m733.92,669.73s-1.87-2.87-2.59-2.86c-.73.01-5.09.09-5.45.1-.36,0-2.21-1.78-2.21-1.78v-.73s-1.83.03-1.83.03l-1.14-2.89s-1.1-.71-1.47-.7c-.36,0-1.45.03-1.45.03l-2.18.04-.75-1.08-.02-1.09.71-1.1,1.44-.75s1.1.34,1.82-.03,1.82-.03,2.18-.04c.36,0,1.45-.03,1.45-.03l1.44-.75h.36s1.82-.04,1.82-.04l1.45-.03s1.09-.02,1.45-.03c.36,0,1.09-.02,1.82-.03.73-.01,2.54-.41,2.91-.05.37.36.74.71,1.1.71.36,0,1.1.34,1.1.34l1.09-.02.76,1.8,1.1.34v-.73s1.45.7,1.45.7l1.46.34,1.47.7,1.09-.02s.72-.38,1.09-.02c.37.36,1.1.71,1.1.71l1.84,1.06.75,1.08.03,1.45.02,1.09-1.45.39-2.18.04-1.45.03-1.1-.34-1.47-1.06-1.82.03-.71,1.1-.71.74-1.09.02-1.1-.71-1.08.38s-1.08.75-1.07,1.11c0,.36.02,1.09.02,1.09l.03,1.45Z"/>
    <path class="cls-1" d="m829.49,669.15c-.38-.72-1.49-2.15-1.85-2.15-.36,0-1.83-.69-1.83-.69l-.04-2.54-2.95-2.49-2.22-2.14-4.01-.66-2.54.04s-1.82-.33-2.91.05c-1.08.38,0,.36-2.17.76-2.17.4-5.44.82-5.44.82l-3.3-1.4-2.18.04c-.73.01-2.54.04-3.27.06-.73.01-2.55-.32-2.91.05-.36.37-1.79,1.48-1.79,1.48l.03,1.82-1.45.39s.36-.37-.38-1.08-1.84-1.42-1.84-1.42c-1.84-1.06-1.1-.71-1.84-1.06-.73-.35-2.2-1.05-2.2-1.05l-1.09.02-2.91.05-.04-2.18,1.78-1.85-.03-1.82,1.82-.03s2.52-1.13,2.89-.78c.37.36,1.11,1.07,1.48,1.43.37.36,3.28.31,3.28.31l1.82.33,2.17-.4,1.47,1.06,2.91-.05s1.09-.02,1.46.34c.37.36,1.82.33,1.82.33l2.56.68,2.18-.04s1.09-.02,1.45-.39c.36-.37,1.07-1.11,1.07-1.11,0,0,0-.36,1.81-.4,1.82-.03.36,0,1.82-.03,1.45-.03,2.17-.4,2.17-.4l.33-2.19s.34-1.1-.75-1.08c-1.09.02-3.99.43-3.99.43,0,0-1.8,1.12-2.53.77-.73-.35-2.91.05-2.91.05,0,0-1.82.03-2.56-1.05-.75-1.08-1.49-1.79-1.49-1.79l-.74-.71-.38-1.08,1.82-.03,1.47.7,1.1.71,2.55.32s1.46.34,1.82.33c.36,0,2.17-.76,2.17-.76l-.38-.72-2.94-2.13-.08-4.72s-.03-1.45.33-1.82c.36-.37-4.8-4.28-5.16-4.27-.36,0-5.45.1-5.81.1s-.74-.71-.74-.71l1.06-1.84s.34-1.46,1.06-1.47c.73-.01,3.26-.42,3.63-.43.36,0,4.36-.08,4.36-.08l-2.22-2.51,5.45-.1-2.52,1.5.38,1.08,1.09-.02,3.63-.06,3.3,1.76,2.2,1.05,2.19.33,3.27-.06.38,1.08.68-2.56.69-1.83,8.01.95s3.65.66,4.01.66c.36,0,4.71-.81,4.71-.81l2.92.68,4.02,1.38.02,1.09,3.65.66.7-1.47s2.54-.04,2.55.32c0,.36-.31,2.91-.31,2.91l1.5,2.52,1.47,1.06,2.19.33,3.63-.43,4.35-.44,1.11,1.07.02,1.09-4.36.08-4-.29-1.09.02-.35.73s.4,1.81.76,1.8c.36,0,2.17-.4,2.54-.04.37.36,2.2,1.05,2.2,1.05l4.37.65,2.52-1.13s2.2,1.05,2.57,1.41c.37.36,2.21,1.78,2.21,1.78l1.86,2.51,1.82.33.04,2.18,1.11,1.07-.69,1.83-2.16,1.13-2.18.04-1.06,1.84-2.21-1.78s-2.18.04-2.91-.31-1.46-.34-2.19-.33-4.36.08-4.36.08c0,0,.36,0-1.83-.69-2.19-.69-4.38-1.01-4.38-1.01,0,0,.35-.73-1.09.02-1.44.75-1.81.4-2.52,1.13-.71.74-1.44.75-1.79,1.49-.35.73-.71.74-.7,1.47s-.34,1.46-.34,1.46c0,0,0,.36-1.44.75-1.45.39-4.72.45-4.72.45,0,0,.28-4.73-.08-4.72-.36,0-3.65-.66-3.65-.66l-.7,1.47-1.07,1.11-.35.73-1.1-.34-1.83-.69s-.73-.35-.73.01c0,.36.02,1.09.39,1.45.37.36-.68,2.56-.68,2.56,0,0,0,.36-.35.73-.36.37-.71.74-1.06,1.47-.35.73-.34,1.1-1.06,1.84-.71.74-1.08.38-1.07,1.11s-1.41,2.57-1.41,2.57Z"/>
    <path class="cls-1" d="m800.13,611.16c.35-.73.68-2.92.68-2.92l1.42-1.84-.41-2.54-3.56,4.06s-2.2-1.05-2.56-1.05c-.36,0-3.59,2.61-3.95,2.98-.36.37-1.42,1.84-1.42,1.84l2.56.68.68-2.56,2.89-.78.38,1.08.04,2.18.38.72,2.9-.41-.03-1.45Z"/>
    <path class="cls-1" d="m898.41,661.77c.73-.01,4.72-.08,4.72-.08,0,0,1.42-2.21,3.24-1.51,1.83.69,10.22,2.73,10.22,2.73l4.33-1.53,2.47-4.4,2.15-1.49s-.4-1.81-.76-2.17c-.37-.36-8.02-1.31-8.02-1.31,0,0-7.27-.24-8-.22-.73.01-6.9.12-6.9.12l-3.62.79.83,5.8-.67,3.28Z"/>
    <path class="cls-1" d="m701.35,510.76l5.15,3.54,12.29-3.85s-1.84-1.42-2.21-1.42c-.36,0-5.45.1-5.45.1,0,0-3.23,2.24-3.95,2.61-.72.38-5.83-.99-5.83-.99Z"/>
    <path class="cls-1" d="m721.97,505.68l4.78,3.19,2.21,1.78,2.58,2.14s.41,2.54.05,2.91c-.36.37-1.42,2.21-1.77,2.94-.35.73-2.15,1.49-2.14,2.22s2.26,4.69,2.26,4.69c0,0,2.87-2.23,2.85-3.32-.02-1.09-.04-2.54-.06-3.27s1.77-2.94,1.77-2.94l-.06-3.63-5.15-3.54-2.6-3.23-4.72.08Z"/>
    <path class="cls-1" d="m749.58,546.62c-.04-2.18.57-8.73.57-8.73l-10.31-7.82-1.41,2.57s1.82-.03,2.55.32c.73.35,6.62,4.61,6.62,4.61l.46,5.44-1.45.03-.71,1.1,2.22,2.51.4,1.81,1.82-.03-.76-1.8Z"/>
    <path class="cls-1" d="m757.94,546.48c0,.36,2.25,3.96,2.25,3.96l2.95,2.49-1.73,4.75-.8-3.98-2.63-5.04-.04-2.18Z"/>
    <path class="cls-1" d="m770.86,578.96l-2.61-3.95-2.6-3.23-.08-4.72-2.97-3.58,1.45-.03,2.6,3.23s-.69,1.83.05,2.91c.75,1.08,2.24,3.23,2.24,3.23l2.21,1.42.78,3.26-1.06,1.47Z"/>
    <polygon class="cls-1" points="782.33 590.39 787.69 585.57 788.75 583.37 788.69 580.1 786.14 580.15 783.2 578.02 780.69 579.88 783.26 581.29 784.71 581.26 786.18 582.33 785.14 584.89 780.83 587.87 782.33 590.39"/>
  </g>
</svg>