<?xml version="1.0" encoding="UTF-8"?>
<svg id="Layer_1" data-name="Layer 1" xmlns="http://www.w3.org/2000/svg" viewBox="0 0 279.62 170.54">
  <defs>
    <style>
      .cls-1 {
        fill: #fffdfd;
        stroke: #000;
        stroke-miterlimit: 10;
      }

      .cls-2 {
        fill-rule: evenodd;
        stroke: #221f1f;
        stroke-linecap: round;
        stroke-linejoin: round;
        stroke-width: .24px;
      }
    </style>
  </defs>
  <g id="LogoStandardBW">
    <path class="cls-1" d="m135.63,65.68h2.38c.08.21.14.46.19.77.04.31.06.58.06.8,0,.52-.08.97-.23,1.36-.15.39-.41.78-.76,1.17-.6-.51-1.03-.88-1.31-1.08-.28-.21-.53-.41-.76-.62l-1.27-1.24c-.47-.45-.96-.92-1.45-1.4-.49-.48-.98-.99-1.45-1.53-.99-1.07-1.92-2.15-2.78-3.24-.27.45-.5.87-.71,1.25-.21.38-.39.73-.56,1.04-.08.33-.24.68-.46,1.05-.1.21-.18.38-.23.53-.05.14-.1.26-.14.34.25.31.48.59.7.85.22.26.44.52.68.79.24.27.5.55.79.83.29.29.62.61.99.96-.43.56-.78,1.11-1.03,1.65-.26.55-.46,1.08-.6,1.59-.14.52-.24,1-.29,1.47-.05.46-.08.88-.08,1.25,0,.62.1,1.12.31,1.51.21.47.44.9.71,1.28.27.38.57.72.9,1l.43-.68c.8-1.26,1.61-2.4,2.41-3.43-.37-.21-.59-.45-.65-.73-.06-.28-.09-.68-.09-1.22s.14-1.01.43-1.42c1.36,1.36,2.73,2.64,4.12,3.85,1.39,1.2,2.8,2.33,4.22,3.38.54-.7,1.01-1.39,1.44-2.05.42-.67.8-1.32,1.13-1.96-.29-.19-.56-.37-.8-.54-.25-.17-.48-.35-.71-.53-.23-.17-.46-.37-.71-.57s-.53-.43-.83-.68c.72-1.17,1.22-2.36,1.5-3.57.28-1.2.42-2.28.42-3.23v-.53c0-.23-.01-.35-.03-.37l1.08-2.26h-5.41l-1.51,4.14Z"/>
    <path class="cls-1" d="m82.5,72.69c-.29,0-.55,0-.77-.02-.23-.01-.42-.03-.59-.05-.54-.04-.86-.3-.99-.77-.04-.25-.08-.55-.12-.91-.04-.36-.08-.78-.12-1.25.41-2,1.19-3.01,2.35-3.03h6.7c-.89-2.49-2.21-4.76-3.98-6.8,0,.93-.11,1.71-.34,2.35h-3.68c-.64.06-1.27.21-1.88.43-.52.25-.99.62-1.42,1.11-1.01,1.44-1.51,3.01-1.51,4.69,0,2.43,1.08,5.32,3.24,8.68h9.92l-2.07-4.42-4.73-.03Z"/>
    <path class="cls-1" d="m69.89,60.06c-.52.35-.98.71-1.41,1.08-.42.37-.81.75-1.16,1.14h-3.18c-.1-.29-.19-.62-.26-.99-.07-.37-.12-.78-.14-1.24-2.06,2.31-3.4,4.53-4.02,6.67h6.76v6.92l-.06,4.51c.72-.52,1.35-1.09,1.9-1.73.55-.64,1.01-1.34,1.41-2.1v-7.6h2.16l1.76-4.45h-3.77v-2.22Z"/>
    <path class="cls-1" d="m169.33,62.14c-.6-.61-1.23-1.17-1.88-1.68-.23.47-.44.9-.63,1.28-.2.38-.4.74-.62,1.08-.22.34-.46.67-.73.99-.27.32-.6.66-.99,1.04,1.48.97,2.68,2.02,3.58,3.15.19.33.31.7.37,1.11.06.41.09.95.09,1.61,0,.35,0,.65.02.9.01.25.03.45.05.62v5.81c1.38-1.26,2.44-2.68,3.18-4.26l.06-4.39v-1.67c0-1.52-.26-2.73-.77-3.61-.56-.7-1.13-1.35-1.73-1.96Z"/>
    <path class="cls-1" d="m176.66,68.03c.07.06.14.12.2.19l-.34-.36c.04.06.08.12.13.17Z"/>
    <path class="cls-1" d="m105.85,63.05c-.58-.51-1.28-.78-2.1-.8l-6.8-.03c-.02-.17-.05-.48-.09-.94-.04-.46-.08-.96-.11-1.5-.03-.54-.06-1.04-.08-1.53-.02-.48-.03-.83-.03-1.03-.35.41-.65.83-.9,1.25-.25.42-.47.84-.68,1.27-.21.42-.41.85-.6,1.3-.2.44-.42.89-.66,1.34-.12.21-.28.51-.46.91-.19.4-.37.82-.56,1.25-.19.43-.37.84-.56,1.24-.19.39-.34.69-.46.9h10.44c.45.08.8.24,1.05.46.23.23.37.57.43,1.02.02.21.04.39.05.56,0,.17.02.3.02.4l.12,3.95c0,.43.01.66.03.68l.15,4.32c1.21-.93,2.22-1.96,3.03-3.09l.09-2.75c.02-.06.03-.21.03-.43v-1.79c0-1.42-.06-3.08-.19-4.97-.23-.84-.62-1.5-1.17-1.98Z"/>
    <path class="cls-1" d="m119.22,71.42h.03s.03-.01.03-.03l.99-.53c.33-.18.62-.38.88-.57.26-.2.5-.4.73-.6.64-.56.96-1.31.96-2.26-.23-1.26-.78-2.49-1.67-3.71-.81-1.06-1.69-1.92-2.63-2.6-2.7.7-5.39,2.17-8.09,4.43-.31,1.36-.46,2.82-.46,4.39,0,.82.06,2.08.19,3.77.08.47.2.93.36,1.37.06.16.13.34.21.54.06.14.13.28.21.43.11.23.22.48.33.72,0,0,0,.02.01.03,0,0,0,.01,0,.02.05.11.1.21.15.32h12.23l-.86-1.67c-.04-.1-.08-.19-.11-.26s-.09-.17-.17-.29l-.93-1.92h-7.69v.31l-.62-.62h-.31c0-.11,0-.2,0-.31h0s0,0,0,0c0-.44,0-.85.01-1.24.01-.47.03-.91.05-1.3.02-.76.11-1.51.28-2.25,1.63-1.13,3.44-1.98,5.44-2.53.29.25.48.51.56.78l.15.15s-.07.03-.09.03c0,0-.01,0-.02,0,0,.03.01.06.01.1.21.26.32.48.32.67,0,.17-.02.36-.06.59-.04.23-.1.45-.17.66-.07.22-.17.4-.29.56-.12.15-.27.23-.43.23l-2.56.28-.8,2.53h2.44l1.42-.22Z"/>
    <path class="cls-1" d="m94.02,71.58v6.42c.64-.51,1.23-1.04,1.76-1.58.54-.54,1.02-1.1,1.45-1.7v-6.76c-1.26,1.17-2.33,2.38-3.21,3.61Z"/>
    <path class="cls-1" d="m159.88,59.42c-.7-.81-1.46-1.55-2.29-2.21-.52.64-1.01,1.33-1.48,2.07-.47.74-.95,1.54-1.42,2.41,1.21.76,2.29,1.7,3.21,2.81.08.1.16.22.23.34.07.12.13.26.17.4.04.1.07.23.09.39.02.15.04.35.06.57.08.72.14,1.41.19,2.05.04.65.06,1.27.06,1.87v3.86c0,.25-.01.4-.03.46v.71l-.03,4.23c.6-.62,1.15-1.25,1.65-1.9.5-.65.96-1.31,1.37-1.99l.25-5.56c.06-1.07.09-2.13.09-3.18,0-1.61-.06-3.17-.19-4.7-.6-.95-1.25-1.83-1.95-2.64Z"/>
    <path class="cls-1" d="m218.87,64.29c-.27.7-.5,1.41-.71,2.13.16,2.06.57,4.12,1.2,6.18h-4.6c-.45-.04-.78-.2-.99-.46-.21-.27-.35-.64-.43-1.11-.04-.23-.08-.46-.11-.7-.03-.24-.07-.47-.11-.69l-.4-5.16c-.06-.72-.11-1.36-.14-1.91-.03-.56-.06-1.03-.08-1.42-1.44,1.32-2.48,2.85-3.12,4.6l.4,6.7c.02.17.04.35.05.56s.04.44.08.71c.02.25.05.49.08.74.03.25.09.48.17.71.12.43.33.82.62,1.17.27.31.65.52,1.14.62.1.02.21.04.31.05.1.01.21.02.31.02h.37c.16,0,.27.01.31.03l7.88.03c.16.35.32.72.48,1.1.15.38.3.78.45,1.19,1.94-2.37,3.23-4.59,3.89-6.67h-2.66c-.41-1.07-.75-2.1-1.02-3.1-.27-1-.47-1.97-.62-2.92h2.93l1.2-2.9.19-.37c.08-.12.13-.23.15-.31l.4-.9h-6.7c-.35.7-.66,1.4-.93,2.1Z"/>
    <path class="cls-1" d="m244.51,73.09c-.31-.43-.5-.9-.59-1.39l-.99-3.86c-.04-.27-.09-.5-.15-.71s-.11-.38-.15-.53l-.22-.93c-.1-.51-.21-.96-.31-1.34-.1-.38-.2-.69-.28-.94-.17-.45-.47-.92-.93-1.39-.47-.43-1.13-.65-1.98-.65-1.61.04-3.13.47-4.57,1.3-1.5.78-2.61,1.86-3.31,3.24-1.32,2.43-1.98,4.55-1.98,6.36,0,1.07.22,2.1.65,3.09.64,1.48,1.94,2.22,3.89,2.22,1.44,0,2.71-.39,3.8-1.17.82-1.38,1.27-2.87,1.33-4.48-.39.17-.75.32-1.08.48-.33.15-.64.28-.93.39-.54.19-1.06.28-1.58.28-.97,0-1.62-.47-1.95-1.42-.23-.8-.34-1.42-.34-1.85,0-.54.14-1.24.43-2.1,1.4-1.28,2.78-1.92,4.14-1.92.33,0,.67.03,1.02.09.25.08.43.19.56.31.12.12.2.33.22.62.1.29.16.55.19.77l.9,5.28c.27,1.94.82,3.95,1.67,6.05l1.76-2.22s.09-.1.15-.17c.06-.07.12-.15.18-.23l1.64-2.04c-.58-.47-.98-.85-1.2-1.14Z"/>
    <path class="cls-1" d="m183.78,65.68h2.38c.08.21.14.46.18.77.04.31.06.58.06.8,0,.52-.08.97-.23,1.36-.15.39-.41.78-.76,1.17-.6-.51-1.03-.88-1.31-1.08-.28-.21-.53-.41-.76-.62l-1.27-1.24c-.47-.45-.96-.92-1.45-1.4-.49-.48-.98-.99-1.45-1.53-.99-1.07-1.91-2.15-2.78-3.24-.27.45-.5.87-.71,1.25-.21.38-.39.73-.56,1.04-.08.33-.24.68-.46,1.05-.1.21-.18.38-.23.53-.05.14-.1.26-.14.34.25.31.48.59.7.85.22.26.44.52.68.79.24.27.5.55.79.83.29.29.62.61.99.96-.43.56-.78,1.11-1.04,1.65s-.46,1.08-.6,1.59c-.14.52-.24,1-.29,1.47-.05.46-.08.88-.08,1.25,0,.62.1,1.12.31,1.51.21.47.44.9.71,1.28.27.38.57.72.89,1l.43-.68c.8-1.26,1.61-2.4,2.41-3.43-.37-.21-.59-.45-.65-.73-.06-.28-.09-.68-.09-1.22s.14-1.01.43-1.42c1.36,1.36,2.73,2.64,4.12,3.85,1.39,1.2,2.8,2.33,4.22,3.38.54-.7,1.01-1.39,1.44-2.05.42-.67.8-1.32,1.13-1.96-.29-.19-.56-.37-.8-.54-.25-.17-.48-.35-.71-.53-.23-.17-.46-.37-.71-.57s-.53-.43-.83-.68c.72-1.17,1.22-2.36,1.5-3.57.28-1.2.42-2.28.42-3.23v-.53c0-.23-.01-.35-.03-.37l1.08-2.26h-5.41l-1.51,4.14Z"/>
    <path class="cls-1" d="m46.11,74.48c-.27-.72-.56-1.45-.88-2.18-.32-.73-.66-1.46-1.03-2.18.21-.27.41-.52.6-.76.2-.24.38-.47.54-.69.35-.45.67-.9.96-1.34.29-.44.51-.92.68-1.44.19-.51.28-1.06.28-1.64,0-.23-.03-.51-.09-.86-.14-.64-.32-1.25-.54-1.82-.22-.58-.49-1.13-.82-1.67l-3.12,4.11c.06.1.19.31.39.62.2.31.38.58.54.8.14.25.24.49.28.74.02.1.04.2.05.28,0,.08.02.14.02.18,0,.72-.26,1.28-.77,1.67-.93-.08-1.57.03-1.92.34v-1.17c0-1.59-.26-2.82-.77-3.71-.56-.72-1.13-1.4-1.73-2.02-.6-.63-1.23-1.2-1.88-1.71-.6.72-1.14,1.46-1.64,2.21-.49.75-.94,1.51-1.33,2.27.76.51,1.44,1.04,2.02,1.58.59.54,1.11,1.09,1.56,1.67.19.33.31.71.37,1.14.06.43.09.98.09,1.64,0,.35,0,.65.02.91.01.26.03.47.05.63v5.96c1.38-1.32,2.44-2.77,3.18-4.36l.03-2.38c.25.78.59,1.65,1.02,2.61.43.96.82,1.96,1.17,3.01.35.95.66,1.9.94,2.87.28.97.5,1.95.66,2.93.14-.21.33-.48.56-.82.23-.34.49-.75.8-1.22.21-.31.39-.61.56-.9.16-.29.33-.57.49-.83-.17-.76-.36-1.52-.57-2.27s-.47-1.49-.76-2.21Z"/>
    <path class="cls-1" d="m54.76,62.14c-.6-.61-1.23-1.17-1.88-1.68-.23.47-.44.9-.63,1.28-.2.38-.4.74-.62,1.08-.22.34-.46.67-.73.99-.27.32-.6.66-.99,1.04,1.48.97,2.68,2.02,3.58,3.15.19.33.31.7.37,1.11.06.41.09.95.09,1.61,0,.35,0,.65.02.9.01.25.03.45.05.62v5.81c1.38-1.26,2.44-2.68,3.18-4.26l.06-4.39v-1.67c0-1.52-.26-2.73-.77-3.61-.56-.7-1.13-1.35-1.73-1.96Z"/>
    <path class="cls-1" d="m201.51,68.37l-.9,2.87h2.9c.16.45.25.88.25,1.27v.28h-4.39c-1.17-.04-1.96-1.05-2.35-3.03.04-.47.08-.89.12-1.25.04-.36.08-.66.12-.91.12-.47.45-.73.99-.77.16-.02.36-.04.59-.05.23-.01.48-.02.77-.02l4.73-.03,2.07-4.42h-9.92c-2.16,3.38-3.24,6.27-3.24,8.68,0,1.69.5,3.25,1.51,4.7.43.49.91.86,1.42,1.11.66.23,1.29.37,1.88.43h3.68c.23.68.34,1.46.34,2.35,1.77-2.04,3.1-4.3,3.98-6.8h-.25c.06-.29.1-.59.12-.91.02-.32.03-.66.03-1.03v-.53c0-.23-.01-.35-.03-.37l.96-1.58h-5.41Z"/>
    <path class="cls-1" d="m176.37,67.69l.16.17s-.03-.03-.04-.05c-.06-.02-.1-.06-.12-.12Z"/>
    <path class="cls-2" d="m232.39,89.62v-2.1H54.91v2.1h0s-8,21.79-8,21.79c16.48,2.03,32.97,2.62,49.45,0,17.91-2.19,35.54-2.46,52.79,0,21.52,2.63,42.31,2.48,62.49,0,10.69-1.13,19.48-.27,27.5,1.39l-6.75-23.18Zm-163.02,2.27l-3.94,20.39c-2.91-1.82-7.12-2.54-13.31-1.57l17.25-18.83h0Zm20.37,18.79c3.46-7.78,9.43-14.85,19.82-20.71h0c8.21,4.79,12.96,11.08,14.81,18.6-3.15-1.64-28.48.76-34.63,2.1Zm74.5.37c-2.66-2.05-20.59-4.2-26.98-3.7,5.49-7.17,6.48-9.63,18.25-13.98h0c6.77,5.82,8.95,10.04,8.73,17.68Zm34.54-1.87c3.45-7.78-3.13-12.94,7.25-18.79h0c8.21,4.8,24.54,11.27,26.39,18.79-3.15-1.64-27.5-1.34-33.64,0Z"/>
  </g>
</svg>