<?xml version="1.0" encoding="UTF-8"?>
<svg id="Layer_1" data-name="Layer 1" xmlns="http://www.w3.org/2000/svg" viewBox="0 0 262.79 170.54">
  <defs>
    <style>
      .cls-1 {
        fill: #30472b;
      }

      .cls-2 {
        fill-rule: evenodd;
      }

      .cls-2, .cls-3 {
        fill: #f3934d;
      }
    </style>
  </defs>
  <g id="LogoStandardYellowGreen">
    <rect class="cls-1" x="13.01" y="46.16" width="236.78" height="78.22"/>
    <g>
      <path class="cls-2" d="m223.76,83.62v-2.28H30.57v2.28l-8.71,23.72c17.94,2.21,35.89,2.85,53.83,0,19.5-2.39,38.69-2.68,57.46,0,23.42,2.87,46.06,2.7,68.02,0,11.64-1.23,21.21-.29,29.93,1.52l-7.35-25.24Zm-181.91,22.86c-3.16-1.98-7.75-2.76-14.48-1.7l18.78-20.49-4.29,22.2Zm26.63.06c3.77-8.46,10.27-16.17,21.58-22.54,8.94,5.22,14.11,12.06,16.12,20.25-3.44-1.79-31.01.82-37.7,2.29Zm81.11.4c-2.89-2.22-22.41-4.57-29.37-4.03,5.98-7.81,7.06-10.48,19.86-15.22,7.37,6.33,9.74,10.93,9.51,19.24Zm37.59-2.03c3.76-8.46-3.41-14.08,7.89-20.46,8.94,5.22,26.71,12.26,28.72,20.46-3.44-1.79-29.93-1.47-36.62,0Z"/>
      <path class="cls-3" d="m121.39,63.31h2.19c.08.19.13.43.17.71.04.28.06.53.06.74,0,.47-.07.89-.21,1.25-.14.36-.37.72-.7,1.08-.55-.47-.95-.8-1.21-.99-.26-.19-.49-.38-.7-.57l-1.16-1.14c-.44-.42-.88-.85-1.33-1.29-.45-.44-.9-.91-1.33-1.41-.91-.98-1.76-1.98-2.56-2.98-.25.42-.46.8-.65,1.15-.19.35-.36.67-.51.95-.08.3-.22.62-.43.97-.09.19-.17.35-.21.48-.05.13-.09.24-.13.31.23.28.44.54.64.78.2.24.41.48.62.72.22.25.46.5.72.77.26.27.57.56.91.88-.4.51-.72,1.02-.95,1.52-.24.5-.42.99-.55,1.46-.13.47-.22.92-.27,1.35-.05.43-.07.81-.07,1.15,0,.57.09,1.03.28,1.39.19.44.41.83.65,1.18.25.35.52.66.82.92l.4-.62c.74-1.15,1.48-2.21,2.22-3.15-.34-.19-.54-.41-.6-.67-.06-.26-.09-.63-.09-1.12s.13-.93.4-1.31c1.25,1.25,2.51,2.43,3.79,3.54,1.28,1.11,2.57,2.14,3.88,3.11.49-.64.93-1.27,1.32-1.89.39-.61.73-1.22,1.04-1.8-.27-.17-.51-.34-.74-.5-.23-.16-.45-.32-.65-.48-.21-.16-.43-.34-.65-.53s-.48-.4-.77-.63c.66-1.08,1.12-2.17,1.38-3.28s.38-2.1.38-2.97v-.48c0-.21,0-.32-.03-.34l.99-2.07h-4.97l-1.39,3.81Z"/>
      <path class="cls-3" d="m72.54,69.76c-.27,0-.5,0-.71-.01-.21,0-.39-.02-.54-.04-.49-.04-.8-.27-.91-.71-.04-.23-.08-.51-.11-.84-.04-.33-.08-.71-.11-1.15.38-1.84,1.1-2.76,2.16-2.78h6.16c-.81-2.29-2.04-4.37-3.66-6.25,0,.85-.1,1.57-.31,2.16h-3.38c-.59.06-1.16.19-1.73.4-.47.23-.91.57-1.31,1.02-.93,1.33-1.39,2.76-1.39,4.32,0,2.23.99,4.9,2.98,7.98h9.12l-1.9-4.06-4.35-.03Z"/>
      <path class="cls-3" d="m60.95,58.14c-.47.32-.9.65-1.29.99-.39.34-.74.69-1.07,1.05h-2.93c-.09-.26-.18-.57-.24-.91-.07-.34-.11-.72-.13-1.14-1.89,2.12-3.12,4.17-3.69,6.14h6.22v6.36l-.06,4.15c.66-.47,1.24-1,1.75-1.59.5-.59.93-1.23,1.29-1.93v-6.99h1.99l1.62-4.09h-3.47v-2.04Z"/>
      <path class="cls-3" d="m152.38,60.06c-.55-.56-1.13-1.07-1.73-1.55-.21.44-.4.83-.58,1.18-.18.35-.37.68-.57.99-.2.31-.42.62-.67.91-.25.29-.55.61-.91.95,1.36.89,2.46,1.86,3.29,2.9.17.3.28.64.34,1.02.06.38.09.87.09,1.48,0,.32,0,.6.01.82,0,.23.02.42.04.57v5.34c1.27-1.15,2.24-2.46,2.93-3.92l.06-4.03v-1.53c0-1.4-.24-2.51-.71-3.32-.51-.64-1.04-1.24-1.59-1.8Z"/>
      <path class="cls-3" d="m159.12,65.47c.07.06.13.11.19.17l-.31-.33c.03.06.07.11.12.16Z"/>
      <path class="cls-3" d="m94.01,60.9c-.53-.47-1.17-.72-1.93-.74l-6.25-.03c-.02-.15-.05-.44-.09-.87-.04-.43-.07-.88-.1-1.38-.03-.49-.05-.96-.07-1.41-.02-.44-.03-.76-.03-.95-.32.38-.6.76-.82,1.15-.23.39-.44.78-.62,1.16-.19.39-.37.79-.55,1.19-.18.41-.38.82-.61,1.24-.11.19-.26.47-.43.84-.17.37-.34.75-.51,1.15-.17.4-.34.78-.51,1.14-.17.36-.31.63-.43.82h9.6c.42.08.74.22.97.43.21.21.34.52.4.94.02.19.03.36.04.51,0,.15.01.27.01.37l.11,3.64c0,.4,0,.61.03.62l.14,3.98c1.12-.85,2.04-1.8,2.78-2.84l.09-2.53c.02-.06.03-.19.03-.4v-1.65c0-1.31-.06-2.83-.17-4.57-.21-.78-.57-1.38-1.08-1.82Z"/>
      <path class="cls-3" d="m106.31,68.59h.03s.03,0,.03-.03l.91-.48c.3-.17.57-.35.81-.53.24-.18.46-.36.67-.55.59-.51.88-1.2.88-2.07-.21-1.15-.72-2.29-1.53-3.41-.75-.98-1.56-1.77-2.42-2.39-2.48.64-4.96,2-7.44,4.07-.28,1.25-.43,2.59-.43,4.03,0,.76.06,1.91.17,3.47.08.44.18.86.33,1.26.05.15.12.32.19.5.06.13.12.26.19.4.1.21.2.44.3.66,0,0,0,.02.01.02,0,0,0,0,0,.02.05.1.09.2.14.3h11.25l-.8-1.53c-.04-.09-.07-.18-.1-.24s-.08-.16-.16-.27l-.86-1.76h-7.07v.28l-.57-.57h-.28c0-.1,0-.19,0-.28h0s0,0,0,0c0-.4,0-.78.01-1.14,0-.43.02-.83.04-1.19.02-.7.1-1.39.26-2.07,1.5-1.04,3.16-1.82,5-2.33.27.23.44.47.51.71l.14.14s-.07.03-.09.03c0,0-.01,0-.02,0,0,.03.01.06.01.09.19.24.29.44.29.62,0,.15-.02.33-.06.54-.04.21-.09.41-.16.61-.07.2-.16.37-.27.51-.11.14-.25.21-.4.21l-2.36.26-.73,2.33h2.24l1.31-.2Z"/>
      <path class="cls-3" d="m83.13,68.73v5.91c.59-.47,1.13-.96,1.62-1.45.49-.49.94-1.01,1.33-1.56v-6.22c-1.16,1.08-2.14,2.19-2.95,3.32Z"/>
      <path class="cls-3" d="m143.69,57.56c-.64-.75-1.34-1.42-2.1-2.03-.47.59-.93,1.22-1.36,1.9-.44.68-.87,1.42-1.31,2.22,1.12.7,2.1,1.56,2.95,2.58.08.09.15.2.21.31.07.11.12.24.16.37.04.09.07.21.09.35.02.14.04.32.06.53.08.66.13,1.29.17,1.89.04.6.06,1.17.06,1.72v3.55c0,.23,0,.37-.03.43v.65l-.03,3.89c.55-.57,1.06-1.15,1.52-1.75.46-.6.89-1.21,1.26-1.83l.23-5.11c.06-.98.09-1.96.09-2.93,0-1.48-.06-2.92-.17-4.32-.55-.87-1.15-1.68-1.79-2.43Z"/>
      <path class="cls-3" d="m197.93,62.03c-.25.64-.46,1.3-.65,1.96.15,1.89.52,3.79,1.11,5.68h-4.23c-.42-.04-.72-.18-.91-.43-.19-.25-.32-.59-.4-1.02-.04-.21-.07-.42-.1-.64-.03-.22-.06-.43-.1-.64l-.37-4.74c-.06-.66-.1-1.25-.13-1.76-.03-.51-.05-.95-.07-1.31-1.33,1.21-2.28,2.62-2.87,4.23l.37,6.16c.02.15.03.32.04.51s.03.41.07.65c.02.23.04.45.07.68.03.23.08.44.16.65.11.4.3.76.57,1.08.25.28.6.47,1.05.57.09.02.19.03.28.04.09,0,.19.01.28.01h.34c.15,0,.25,0,.28.03l7.24.03c.15.32.3.66.44,1.01.14.35.28.71.41,1.09,1.78-2.18,2.97-4.22,3.58-6.14h-2.44c-.38-.98-.69-1.94-.94-2.85-.25-.92-.44-1.81-.57-2.68h2.7l1.11-2.67.17-.34c.08-.11.12-.21.14-.28l.37-.82h-6.16c-.32.64-.61,1.29-.85,1.93Z"/>
      <path class="cls-3" d="m222.53,70.75l-.14-.11s.06.04.07.06.03.04.07.06Z"/>
      <path class="cls-3" d="m221.51,70.13c-.28-.4-.46-.82-.54-1.28l-.91-3.55c-.04-.25-.08-.46-.14-.65s-.1-.35-.14-.48l-.2-.85c-.09-.47-.19-.89-.28-1.24-.09-.35-.18-.64-.26-.87-.15-.42-.44-.84-.85-1.28-.44-.4-1.04-.6-1.82-.6-1.48.04-2.88.44-4.2,1.19-1.38.72-2.4,1.71-3.04,2.98-1.21,2.23-1.82,4.18-1.82,5.85,0,.98.2,1.93.6,2.84.59,1.36,1.78,2.04,3.58,2.04,1.33,0,2.49-.36,3.49-1.08.76-1.27,1.16-2.64,1.22-4.12-.36.15-.69.3-.99.44-.3.14-.59.26-.85.36-.49.17-.98.26-1.45.26-.89,0-1.49-.44-1.79-1.31-.21-.74-.31-1.31-.31-1.7,0-.49.13-1.14.4-1.93,1.29-1.17,2.56-1.76,3.81-1.76.3,0,.61.03.94.09.23.08.4.17.51.28.11.11.18.3.2.57.09.26.15.5.17.71l.82,4.86c.25,1.78.76,3.64,1.53,5.57l1.62-2.04s.09-.09.14-.16c.06-.07.11-.14.17-.21l1.51-1.87c-.53-.43-.9-.79-1.11-1.05Z"/>
      <path class="cls-3" d="m165.67,63.31h2.19c.08.19.13.43.17.71.04.28.06.53.06.74,0,.47-.07.89-.21,1.25s-.37.72-.7,1.08c-.55-.47-.95-.8-1.21-.99-.26-.19-.49-.38-.7-.57l-1.17-1.14c-.43-.42-.88-.85-1.33-1.29-.45-.44-.9-.91-1.34-1.41-.91-.98-1.76-1.98-2.56-2.98-.25.42-.46.8-.65,1.15-.19.35-.36.67-.51.95-.08.3-.22.62-.43.97-.09.19-.17.35-.21.48-.05.13-.09.24-.13.31.23.28.44.54.64.78.2.24.41.48.62.72.22.25.46.5.72.77.26.27.57.56.91.88-.4.51-.72,1.02-.95,1.52s-.42.99-.55,1.46c-.13.47-.22.92-.27,1.35-.05.43-.07.81-.07,1.15,0,.57.09,1.03.28,1.39.19.44.41.83.65,1.18.24.35.52.66.82.92l.4-.62c.74-1.15,1.48-2.21,2.21-3.15-.34-.19-.54-.41-.6-.67-.06-.26-.09-.63-.09-1.12s.13-.93.4-1.31c1.25,1.25,2.51,2.43,3.79,3.54s2.57,2.14,3.88,3.11c.49-.64.93-1.27,1.32-1.89.39-.61.73-1.22,1.04-1.8-.26-.17-.51-.34-.74-.5-.23-.16-.44-.32-.65-.48-.21-.16-.43-.34-.65-.53s-.48-.4-.77-.63c.66-1.08,1.12-2.17,1.38-3.28s.38-2.1.38-2.97v-.48c0-.21-.01-.32-.03-.34l.99-2.07h-4.97l-1.39,3.81Z"/>
      <path class="cls-3" d="m39.08,71.4c-.25-.66-.52-1.33-.81-2-.29-.67-.61-1.34-.95-2,.19-.25.37-.48.55-.7.18-.22.35-.43.5-.64.32-.42.62-.83.88-1.24.26-.41.47-.85.62-1.32.17-.47.26-.97.26-1.51,0-.21-.03-.47-.08-.8-.13-.59-.3-1.15-.5-1.68-.2-.53-.45-1.04-.75-1.53l-2.87,3.78c.06.09.17.28.36.57.18.28.35.53.5.74.13.23.22.45.26.68.02.09.03.18.04.26,0,.08.01.13.01.17,0,.66-.24,1.17-.71,1.53-.85-.08-1.44.03-1.76.31v-1.08c0-1.46-.24-2.59-.71-3.41-.51-.66-1.04-1.28-1.59-1.86-.55-.58-1.13-1.1-1.73-1.58-.55.66-1.05,1.34-1.51,2.03-.45.69-.86,1.39-1.22,2.09.7.47,1.32.96,1.86,1.45.54.49,1.02,1,1.43,1.53.17.3.28.65.34,1.05.06.4.09.9.09,1.51,0,.32,0,.6.01.84,0,.24.02.43.04.58v5.48c1.27-1.21,2.24-2.55,2.93-4l.03-2.19c.23.72.54,1.52.94,2.4.4.88.76,1.8,1.08,2.77.32.87.61,1.75.87,2.64.26.89.46,1.79.61,2.7.13-.19.3-.44.51-.75.21-.31.45-.69.74-1.12.19-.28.36-.56.51-.82.15-.27.3-.52.45-.77-.15-.7-.33-1.4-.53-2.09s-.43-1.37-.7-2.03Z"/>
      <path class="cls-3" d="m47.03,60.06c-.55-.56-1.13-1.07-1.73-1.55-.21.44-.4.83-.58,1.18-.18.35-.37.68-.57.99-.2.31-.42.62-.67.91-.25.29-.55.61-.91.95,1.36.89,2.46,1.86,3.29,2.9.17.3.28.64.34,1.02.06.38.09.87.09,1.48,0,.32,0,.6.01.82,0,.23.02.42.04.57v5.34c1.27-1.15,2.24-2.46,2.93-3.92l.06-4.03v-1.53c0-1.4-.24-2.51-.71-3.32-.51-.64-1.04-1.24-1.59-1.8Z"/>
      <path class="cls-3" d="m181.97,65.78l-.82,2.64h2.67c.15.42.23.8.23,1.16v.26h-4.03c-1.08-.04-1.8-.97-2.16-2.78.04-.44.08-.82.11-1.15.04-.33.08-.61.11-.84.11-.44.42-.67.91-.71.15-.02.33-.03.54-.04.21,0,.44-.01.71-.01l4.35-.03,1.9-4.06h-9.12c-1.99,3.11-2.98,5.77-2.98,7.98,0,1.55.46,2.99,1.39,4.32.4.45.83.8,1.31,1.02.61.21,1.18.34,1.73.4h3.38c.21.62.31,1.34.31,2.16,1.63-1.87,2.85-3.96,3.66-6.25h-.23c.06-.26.09-.54.11-.84.02-.29.03-.61.03-.95v-.48c0-.21,0-.32-.03-.34l.88-1.45h-4.97Z"/>
      <polygon class="cls-3" points="100.57 69.47 100.57 69.47 100.57 69.47 100.57 69.47"/>
      <path class="cls-3" d="m158.85,65.16l.15.16s-.03-.03-.03-.04c-.06-.02-.09-.06-.11-.11Z"/>
    </g>
  </g>
</svg>